<svg xmlns="http://www.w3.org/2000/svg" class="prefix__svglite" viewBox="0 0 810 530"><rect width="100%" height="100%" style="stroke:none;fill:#fff;stroke-linecap:round;stroke-linejoin:round;stroke-miterlimit:10"/><defs><clipPath id="prefix__a"><rect x="0" y="0" width="810" height="530" style="fill:none;stroke:#000;stroke-linecap:round;stroke-linejoin:round;stroke-miterlimit:10"/></clipPath></defs><g clip-path="url(#prefix__a)"><rect x="0" y="0" width="810" height="530" style="stroke-width:1.07;stroke:#fff;fill:#fff;stroke-linecap:round;stroke-linejoin:round;stroke-miterlimit:10"/></g><defs><clipPath id="prefix__b"><rect x="93.35" y="14.17" width="632.94" height="434.93" style="fill:none;stroke:#000;stroke-linecap:round;stroke-linejoin:round;stroke-miterlimit:10"/></clipPath></defs><g clip-path="url(#prefix__b)"><rect x="93.35" y="14.17" width="632.94" height="434.93" style="stroke-width:1.07;stroke:none;fill:#fff;stroke-linecap:round;stroke-linejoin:round;stroke-miterlimit:10"/><polyline points="93.35 449.1 726.29 449.1" style="stroke-width:1.07;stroke:#c6c4c4;stroke-linecap:butt;fill:none;stroke-linejoin:round;stroke-miterlimit:10"/><polyline points="93.35 340.37 726.29 340.37" style="stroke-width:1.07;stroke:#c6c4c4;stroke-linecap:butt;fill:none;stroke-linejoin:round;stroke-miterlimit:10"/><polyline points="93.35 231.64 726.29 231.64" style="stroke-width:1.07;stroke:#c6c4c4;stroke-linecap:butt;fill:none;stroke-linejoin:round;stroke-miterlimit:10"/><polyline points="93.35 122.91 726.29 122.91" style="stroke-width:1.07;stroke:#c6c4c4;stroke-linecap:butt;fill:none;stroke-linejoin:round;stroke-miterlimit:10"/><polyline points="93.35 14.17 726.29 14.17" style="stroke-width:1.07;stroke:#c6c4c4;stroke-linecap:butt;fill:none;stroke-linejoin:round;stroke-miterlimit:10"/><polyline points="-55.48 436.71 -54.62 436.61 -53.77 436.51 -52.91 436.41 -52.06 436.32 -51.2 436.22 -50.35 436.12 -49.49 436.03 -48.64 435.93 -47.78 435.83 -46.92 435.74 -46.07 435.64 -45.21 435.54 -44.36 435.45 -43.5 435.35 -42.65 435.25 -41.79 435.16 -40.94 435.06 -40.08 434.96 -39.23 434.86 -38.37 434.77 -37.52 434.67 -36.66 434.57 -35.81 434.48 -34.95 434.38 -34.09 434.28 -33.24 434.19 -32.38 434.09 -31.53 433.99 -30.67 433.9 -29.82 433.8 -28.96 433.7 -28.11 433.61 -27.25 433.51 -26.4 433.41 -25.54 433.31 -24.69 433.22 -23.83 433.12 -22.98 433.02 -22.12 432.93 -21.26 432.83 -20.41 432.73 -19.55 432.64 -18.7 432.54 -17.84 432.44 -16.99 432.35 -16.13 432.25 -15.28 432.15 -14.42 432.05 -13.57 431.96 -12.71 431.86 -11.86 431.76 -11 431.67 -10.15 431.57 -9.29 431.47 -8.44 431.38 -7.58 431.28 -6.72 431.18 -5.87 431.09 -5.01 430.99 -4.16 430.89 -3.3 430.8 -2.45 430.7 -1.59 430.6 -.74 430.5 .12 430.41 .97 430.31 1.83 430.21 2.68 430.12 3.54 430.02 4.39 429.92 5.25 429.83 6.11 429.73 6.96 429.63 7.82 429.54 8.67 429.44 9.53 429.34 10.38 429.25 11.24 429.15 12.09 429.05 12.95 428.95 13.8 428.86 14.66 428.76 15.51 428.66 16.37 428.57 17.22 428.47 18.08 428.37 18.94 428.28 19.79 428.18 20.65 428.08 21.5 427.99 22.36 427.89 23.21 427.79 24.07 427.7 24.92 427.6 25.78 427.5 26.63 427.4 27.49 427.31 28.34 427.21 29.2 427.11 30.05 427.02 30.91 426.92 31.76 426.82 32.62 426.73 33.48 426.63 34.33 426.42 35.19 426.21 36.04 426 36.9 425.79 37.75 425.58 38.61 425.37 39.46 425.16 40.32 424.95 41.17 424.74 42.03 424.53 42.88 424.32 43.74 424.11 44.59 423.9 45.45 423.69 46.31 423.48 47.16 423.27 48.02 423.06 48.87 422.85 49.73 422.64 50.58 422.43 51.44 422.21 52.29 422 53.15 421.79 54 421.58 54.86 421.37 55.71 421.16 56.57 420.95 57.42 420.74 58.28 420.53 59.14 420.32 59.99 420.26 60.85 420.2 61.7 420.13 62.56 420.07 63.41 420.01 64.27 419.95 65.12 419.88 65.98 419.82 66.83 419.76 67.69 419.69 68.54 419.63 69.4 419.57 70.25 419.51 71.11 419.44 71.97 419.38 72.82 419.32 73.68 419.26 74.53 419.19 75.39 419.13 76.24 419.07 77.1 419 77.95 418.94 78.81 418.88 79.66 418.82 80.52 418.75 81.37 418.69 82.23 418.63 83.08 418.56 83.94 418.5 84.79 418.44 85.65 418.39 86.51 418.34 87.36 418.29 88.22 418.24 89.07 418.19 89.93 418.14 90.78 418.09 91.64 418.04 92.49 417.99 93.35 417.94 94.2 417.89 95.06 417.84 95.91 417.79 96.77 417.74 97.62 417.69 98.48 417.64 99.34 417.59 100.19 417.54 101.05 417.49 101.9 417.44 102.76 417.39 103.61 417.34 104.47 417.29 105.32 417.24 106.18 417.19 107.03 417.14 107.89 417.09 108.74 417.04 109.6 416.99 110.45 416.78 111.31 416.57 112.17 416.36 113.02 416.15 113.88 415.93 114.73 415.72 115.59 415.51 116.44 415.3 117.3 415.09 118.15 414.88 119.01 414.67 119.86 414.69 120.72 414.7 121.57 414.72 122.43 414.74 123.28 414.76 124.14 414.77 124.99 414.79 125.85 414.81 126.71 414.83 127.56 414.84 128.42 414.86 129.27 414.88 130.13 414.9 130.98 414.91 131.84 414.93 132.69 414.95 133.55 414.96 134.4 414.98 135.26 415 136.11 415.02 136.97 415.03 137.82 415.05 138.68 415.07 139.54 415.09 140.39 415.1 141.25 415.52 142.1 415.93 142.96 416.34 143.81 416.76 144.67 417.17 145.52 417.58 146.38 418 147.23 418.41 148.09 418.82 148.94 419.24 149.8 419.02 150.65 418.8 151.51 418.58 152.37 418.37 153.22 418.15 154.08 417.93 154.93 417.71 155.79 417.5 156.64 417.28 157.5 417.06 158.35 416.84 159.21 416.63 160.06 416.41 160.92 416.19 161.77 415.97 162.63 415.76 163.48 415.54 164.34 415.32 165.2 415.1 166.05 414.89 166.91 414.67 167.76 414.45 168.62 414.23 169.47 419.57 170.33 424.91 171.18 430.25 172.04 430.28 172.89 430.31 173.75 430.34 174.6 430.37 175.46 430.39 176.31 430.42 177.17 430.45 178.02 430.48 178.88 430.5 179.74 430.53 180.59 430.56 181.45 430.59 182.3 430.62 183.16 430.64 184.01 430.67 184.87 430.7 185.72 430.73 186.58 430.76 187.43 430.78 188.29 430.81 189.14 430.84 190 430.87 190.85 430.9 191.71 430.92 192.57 430.95 193.42 430.98 194.28 431.11 195.13 431.24 195.99 431.38 196.84 431.51 197.7 431.64 198.55 431.77 199.41 431.91 200.26 432.04 201.12 432.17 201.97 432.3 202.83 432.43 203.68 432.57 204.54 432.7 205.4 432.83 206.25 432.96 207.11 433.1 207.96 433.23 208.82 433.36 209.67 433.49 210.53 433.63 211.38 433.76 212.24 433.89 213.09 434.02 213.95 434.04 214.8 434.05 215.66 434.07 216.51 434.08 217.37 434.1 218.22 434.11 219.08 434.12 219.94 434.14 220.79 434.15 221.65 434.17 222.5 434.18 223.36 434.2 224.21 434.21 225.07 434.23 225.92 434.24 226.78 434.26 227.63 434.27 228.49 434.28 229.34 434.3 230.2 434.31 231.05 434.33 231.91 434.34 232.77 434.36 233.62 434.37 234.48 434.39 235.33 434.4 236.19 434.41 237.04 434.43 237.9 434.44 238.75 434.46 239.61 434.5 240.46 434.55 241.32 434.59 242.17 434.63 243.03 434.68 243.88 434.72 244.74 434.76 245.6 434.81 246.45 434.85 247.31 434.89 248.16 434.94 249.02 434.98 249.87 435.02 250.73 435.07 251.58 435.11 252.44 435.15 253.29 435.2 254.15 435.24 255 435.28 255.86 435.33 256.71 435.28 257.57 435.24 258.42 435.19 259.28 435.15 260.14 435.1 260.99 435.06 261.85 435.01 262.7 434.97 263.56 434.92 264.41 434.88 265.27 434.83 266.12 434.78 266.98 434.74 267.83 434.69 268.69 434.65 269.54 434.6 270.4 434.56 271.25 434.51 272.11 434.47 272.97 434.42 273.82 434.38 274.68 434.33 275.53 434.29 276.39 434.24 277.24 434.2 278.1 434.15 278.95 434.1 279.81 434.06 280.66 434.01 281.52 433.97 282.37 433.92 283.23 433.88 284.08 433.83 284.94 433.79 285.8 433.74 286.65 433.7 287.51 433.65 288.36 433.61 289.22 433.56 290.07 433.52 290.93 433.47 291.78 433.43 292.64 433.38 293.49 433.33 294.35 433.29 295.2 433.24 296.06 433.2 296.91 433.15 297.77 433.11 298.63 433.06 299.48 433.02 300.34 432.97 301.19 432.93 302.05 432.88 302.9 432.84 303.76 432.79 304.61 432.75 305.47 432.7 306.32 432.66 307.18 432.61 308.03 432.56 308.89 432.52 309.74 432.47 310.6 432.43 311.45 432.38 312.31 432.34 313.17 432.29 314.02 432.25 314.88 432.2 315.73 432.16 316.59 432.11 317.44 432.07 318.3 431.88 319.15 431.7 320.01 431.52 320.86 431.33 321.72 431.15 322.57 430.97 323.43 430.78 324.28 430.6 325.14 430.42 326 430.23 326.85 430.05 327.71 429.87 328.56 429.69 329.42 429.5 330.27 429.32 331.13 429.14 331.98 428.95 332.84 428.77 333.69 428.59 334.55 428.32 335.4 428.06 336.26 427.79 337.11 427.52 337.97 427.26 338.83 426.99 339.68 426.73 340.54 426.46 341.39 426.19 342.25 425.93 343.1 425.66 343.96 425.4 344.81 425.13 345.67 424.87 346.52 424.6 347.38 424.33 348.23 424.07 349.09 423.8 349.94 423.54 350.8 423.27 351.65 423.01 352.51 422.74 353.37 422.47 354.22 422.21 355.08 421.94 355.93 421.68 356.79 421.41 357.64 421.15 358.5 420.88 359.35 420.61 360.21 420.35 361.06 420.08 361.92 419.82 362.77 419.55 363.63 419.29 364.48 419.02 365.34 418.75 366.2 418.49 367.05 418.22 367.91 417.96 368.76 417.69 369.62 417.43 370.47 417.16 371.33 416.89 372.18 416.63 373.04 416.36 373.89 416.1 374.75 415.83 375.6 415.57 376.46 415.3 377.31 415.03 378.17 414.77 379.03 414.5 379.88 414.24 380.74 413.97 381.59 413.71 382.45 413.44 383.3 413.17 384.16 412.91 385.01 412.64 385.87 412.38 386.72 412.11 387.58 411.84 388.43 411.58 389.29 411.31 390.14 411.05 391 410.78 391.86 410.52 392.71 410.25 393.57 409.98 394.42 409.72 395.28 409.45 396.13 409.19 396.99 408.92 397.84 408.66 398.7 408.39 399.55 408.12 400.41 407.86 401.26 407.59 402.12 407.33 402.97 407.06 403.83 406.8 404.68 406.53 405.54 406.26 406.4 406 407.25 405.73 408.11 405.47 408.96 405.2 409.82 404.94 410.67 404.67 411.53 404.4 412.38 404.14 413.24 403.87 414.09 403.61 414.95 403.34 415.8 403.08 416.66 402.81 417.51 402.54 418.37 402.28 419.23 402.01 420.08 401.75 420.94 401.48 421.79 401.22 422.65 400.95 423.5 400.68 424.36 400.42 425.21 400.15 426.07 399.89 426.92 399.62 427.78 399.35 428.63 399.09 429.49 398.82 430.34 398.56 431.2 398.29 432.06 398.03 432.91 397.76 433.77 397.49 434.62 397.23 435.48 396.96 436.33 396.7 437.19 396.43 438.04 396.17 438.9 395.9 439.75 395.63 440.61 395.37 441.46 395.1 442.32 394.84 443.17 394.57 444.03 394.31 444.88 394.04 445.74 393.77 446.6 393.51 447.45 393.24 448.31 392.98 449.16 392.71 450.02 392.45 450.87 392.18 451.73 391.91 452.58 391.65 453.44 391.38 454.29 391.12 455.15 390.85 456 390.59 456.86 390.32 457.71 390.05 458.57 389.79 459.43 389.52 460.28 389.26 461.14 388.99 461.99 388.73 462.85 388.46 463.7 388.19 464.56 387.93 465.41 387.66 466.27 387.4 467.12 387.13 467.98 386.86 468.83 386.85 469.69 386.33 470.54 385.94 471.4 385.5 472.26 384.95 473.11 384.64 473.97 384.49 474.82 384.27 475.68 384.04 476.53 383.81 477.39 383.66 478.24 383.48 479.1 383.55 479.95 383.67 480.81 383.56 481.66 383.33 482.52 383.25 483.37 382.85 484.23 382.39 485.09 381.94 485.94 381.48 486.8 381.71 487.65 381.79 488.51 381.72 489.36 381.47 490.22 381.23 491.07 380.98 491.93 380.4 492.78 379.99 493.64 380.66 494.49 381.75 495.35 382.57 496.2 382.62 497.06 382.33 497.91 381.98 498.77 381.28 499.63 380.67 500.48 380.12 501.34 379.7 502.19 379.38 503.05 378.94 503.9 378.56 504.76 378.39 505.61 379.12 506.47 379.14 507.32 378.66 508.18 377.93 509.03 377.5 509.89 377.17 510.74 377 511.6 376.54 512.46 376.05 513.31 375.61 514.17 375.15 515.02 374.61 515.88 374.09 516.73 373.58 517.59 372.99 518.44 372.68 519.3 372.49 520.15 372.22 521.01 371.76 521.86 371.23 522.72 370.94 523.57 371.13 524.43 370.75 525.29 370.15 526.14 369.79 527 369.61 527.85 369.41 528.71 368.89 529.56 368.34 530.42 367.84 531.27 367.24 532.13 366.61 532.98 366.02 533.84 365.16 534.69 364.38 535.55 363.57 536.4 362.67 537.26 361.88 538.11 361.42 538.97 360.46 539.83 359.79 540.68 359.62 541.54 358.77 542.39 357.93 543.25 356.96 544.1 355.88 544.96 354.93 545.81 353.68 546.67 352.59 547.52 351.38 548.38 350.26 549.23 349.23 550.09 348.34 550.94 347.2 551.8 346.18 552.66 344.83 553.51 343.62 554.37 342.38 555.22 341.73 556.08 341.01 556.93 340.12 557.79 338.86 558.64 337.33 559.5 335.65 560.35 334 561.21 332.4 562.06 330.89 562.92 329.34 563.77 327.82 564.63 326.23 565.49 324.36 566.34 322.37 567.2 320.38 568.05 318.23 568.91 316.03 569.76 313.91 570.62 311.84 571.47 309.86 572.33 307.74 573.18 305.39 574.04 302.97 574.89 300.59 575.75 298.38 576.6 296.27 577.46 294.26 578.32 292.24 579.17 290.02 580.03 287.84 580.88 285.73 581.74 283.74 582.59 282.05 583.45 280.33 584.3 278.59 585.16 276.85 586.01 275.06 586.87 273.35 587.72 271.63 588.58 269.87 589.43 268.09 590.29 266.34 591.14 264.5 592 262.91 592.86 261.05 593.71 259.33 594.57 257.76 595.42 258.81 596.28 261.75 597.13 263.47 597.99 265.14 598.84 266.74 599.7 265.85 600.55 264.69 601.41 263.35 602.26 261.65 603.12 259.75 603.97 258.34 604.83 256.75 605.69 255.13 606.54 253.59 607.4 251.97 608.25 250.12 609.11 248.57 609.96 247.13 610.82 245.46 611.67 243.93 612.53 242.19 613.38 240.34 614.24 238.44 615.09 236.59 615.95 234.66 616.8 233.38 617.66 231.33 618.52 229.14 619.37 226.85 620.23 224.41 621.08 221.87 621.94 219.45 622.79 216.94 623.65 214.78 624.5 212.67 625.36 210.83 626.21 209.18 627.07 207.32 627.92 205.35 628.78 203.34 629.63 201.41 630.49 199.5 631.34 197.49 632.2 195.41 633.06 193.26 633.91 191.01 634.77 188.61 635.62 186.11 636.48 183.66 637.33 181.1 638.19 178.47 639.04 175.81 639.9 173.15 640.75 170.57 641.61 167.98 642.46 165.57 643.32 163.19 644.17 160.71 645.03 158.21 645.89 155.64 646.74 153.1 647.6 150.47 648.45 147.8 649.31 145.12 650.16 142.73 651.02 141.66 651.87 140.16 652.73 137.45 653.58 135.47 654.44 134.3 655.29 133.63 656.15 133.89 657 134.16 657.86 132.22 658.72 129.63 659.57 127.46 660.43 125.83 661.28 123.52 662.14 122.48 662.99 121.22 663.85 120.09 664.7 118.72 665.56 118.03 666.41 116.63 667.27 115.12 668.12 113.23 668.98 111.89 669.83 110.83 670.69 109.36 671.55 107.82 672.4 106.31 673.26 104.83 674.11 101.22 674.97 99.52 675.82 99.59 676.68 98.26 677.53 95.44 678.39 93.79 679.24 92.59 680.1 94.35 680.95 91.81 681.81 88.6 682.66 86.46 683.52 84.63 684.37 84.57 685.23 83.39 686.09 82.36 686.94 81.12 687.8 79.8 688.65 78.08 689.51 76.3 690.36 74.68 691.22 72.48 692.07 69.46 692.93 66.31 693.78 62.8 694.64 60.38 695.49 57.73 696.35 55.13 697.2 53.01 698.06 50.71 698.92 48.87 699.77 47.08 700.63 45.84 701.48 43.69 702.34 42.47 703.19 41.55 704.05 41.46 704.9 41.53 705.76 41.6 706.61 41.79 707.47 41.88 708.32 41.43 709.18 40.78 710.03 40.57 710.89 41.06 711.75 40.88 712.6 40.2 713.46 39.15 714.31 38.21 715.17 37.34 716.02 36.53 716.88 35.36 717.73 34.19 718.59 32.74 719.44 31.68 720.3 30.74 721.15 29.67 722.01 28.49 722.86 27.48 723.72 26.39 724.57 25.23 725.43 23.71 726.29 22.25 727.14 20.6 728 18.77 728.85 16.8 729.71 14.54 730.56 11.18 731.42 8.18 732.27 4.61 733.13 .95 733.98 -2.21 734.84 -5.83 735.69 -9.64 736.55 -12.68 737.4 -15.59 738.26 -19.15 739.12 -22.77" style="stroke-width:1.2;stroke:#3a53a4;stroke-linecap:butt;fill:none;stroke-linejoin:round;stroke-miterlimit:10"/><polyline points="100.19 413.76 101.05 414.94 101.9 415.9 102.76 416.95 103.61 417.76 104.47 417.65 105.32 418.26 106.18 417.64 107.03 417.46 107.89 417.47 108.74 417.1 109.6 416.66 110.45 416.89 111.31 416.93 112.17 417.31 113.02 418.22 113.88 418 114.73 417.86 115.59 417.24 116.44 415.22 117.3 413.49 118.15 412.9 119.01 413.88 119.86 414.41 120.72 416.3 121.57 418.52 122.43 420.71 123.28 420.65 124.14 420.29 124.99 420.32 125.85 419.45 126.71 418.61 127.56 418.01 128.42 417.58 129.27 416.87 130.13 415.87 130.98 415.13 131.84 414.35 132.69 413.73 133.55 413.36 134.4 414.35 135.26 414.98 136.11 415.76 136.97 415.78 137.82 415.28 138.68 414.08 139.54 413.63 140.39 415.43 141.25 418.53 142.1 419.96 142.96 419.72 143.81 418.13 144.67 415.42 145.52 414.49 146.38 414.88 147.23 415.75 148.09 416.76 148.94 416.41 149.8 413.15 150.65 410.32 151.51 409.67 152.37 409.34 153.22 410.41 154.08 412.28 154.93 412.79 155.79 411.8 156.64 410.64 157.5 409.35 158.35 408.08 159.21 407.15 160.06 406.89 160.92 407.86 161.77 407.06 162.63 407.71 163.48 409.52 164.34 411.65 165.2 411.98 166.05 413.63 166.91 415.34 167.76 417.03 168.62 416.89 169.47 417.96 170.33 419.86 171.18 419.92 172.04 419.26 172.89 418.21 173.75 416.88 174.6 414.7 175.46 413.57 176.31 412.88 177.17 413.13 178.02 413.68 178.88 414.17 179.74 412.63 180.59 411.8 181.45 411.43 182.3 410.16 183.16 407.88 184.01 407.83 184.87 407.73 185.72 407.37 186.58 409.26 187.43 411.25 188.29 411.61 189.14 411.52 190 411.1 190.85 409.37 191.71 408.26 192.57 407.12 193.42 404.9 194.28 403.29 195.13 402.32 195.99 401.71 196.84 402 197.7 403.44 198.55 404.87 199.41 405.19 200.26 405.11 201.12 404.35 201.97 402.88 202.83 401.15 203.68 400.55 204.54 401.4 205.4 401.9 206.25 402.01 207.11 402.81 207.96 401.83 208.82 400.36 209.67 400.83 210.53 402.08 211.38 402.62 212.24 403.64 213.09 404.99 213.95 405.41 214.8 405.76 215.66 404.43 216.51 403.17 217.37 400.16 218.22 398.11 219.08 396.65 219.94 398.52 220.79 400.6 221.65 401.82 222.5 401.94 223.36 402.53 224.21 400.82 225.07 398.91 225.92 399.17 226.78 400.27 227.63 399.36 228.49 399.81 229.34 399.33 230.2 398.47 231.05 396.92 231.91 396.34 232.77 395.2 233.62 395.75 234.48 395.14 235.33 394.41 236.19 394.14 237.04 396.57 237.9 398.08 238.75 399.5 239.61 400.69 240.46 402.72 241.32 401.67 242.17 400.36 243.03 399.95 243.88 400.14 244.74 400.78 245.6 403.45 246.45 404.67 247.31 404.15 248.16 403.56 249.02 401.73 249.87 398.31 250.73 396.14 251.58 397.37 252.44 397.85 253.29 398.05 254.15 398.32 255 398.86 255.86 398.74 256.71 398.97 257.57 398.84 258.42 398.64 259.28 398.03 260.14 397 260.99 396.28 261.85 396.46 262.7 396.5 263.56 397.04 264.41 398.03 265.27 399.24 266.12 398.1 266.98 397.11 267.83 396.91 268.69 396.06 269.54 395.19 270.4 396.23 271.25 397.32 272.11 398.12 272.97 398.62 273.82 398.94 274.68 398.16 275.53 397.39 276.39 396.7 277.24 396.18 278.1 395.49 278.95 396.65 279.81 398.12 280.66 398.73 281.52 399.47 282.37 401.48 283.23 403.32 284.08 403.56 284.94 403.22 285.8 402.12 286.65 400.47 287.51 398.33 288.36 397.43 289.22 397.71 290.07 398.26 290.93 398.49 291.78 397.65 292.64 396.68 293.49 395.79 294.35 395.2 295.2 394.93 296.06 395.28 296.91 396.21 297.77 396.51 298.63 397.55 299.48 398.92 300.34 400.48 301.19 401.05 302.05 401.57 302.9 400.84 303.76 399.37 304.61 398.17 305.47 397.24 306.32 396.03 307.18 395.48 308.03 395.91 308.89 397.47 309.74 398.33 310.6 399.71 311.45 401.34 312.31 401.74 313.17 401.16 314.02 401.47 314.88 402.73 315.73 403.83 316.59 404.42 317.44 404 318.3 403.36 319.15 402.27 320.01 400.94 320.86 400.95 321.72 403.64 322.57 405.35 323.43 406.65 324.28 407.71 325.14 408.47 326 406.88 326.85 406.46 327.71 405.59 328.56 406.39 329.42 406.92 330.27 406.55 331.13 406.72 331.98 406.84 332.84 405.34 333.69 405.08 334.55 406.15 335.4 407.08 336.26 408.18 337.11 410.32 337.97 410.18 338.83 409.32 339.68 409.29 340.54 411.07 341.39 412.01 342.25 411.83 343.1 412.2 343.96 411.62 344.81 410.59 345.67 411.06 346.52 413.29 347.38 413.44 348.23 413.48 349.09 413.34 349.94 412.08 350.8 410.28 351.65 412.41 352.51 412.48 353.37 411.79 354.22 411.38 355.08 410.92 355.93 408.75 356.79 409.24 357.64 409.04 358.5 408.13 359.35 408.55 360.21 409.49 361.06 411.3 361.92 411.88 362.77 411.85 363.63 412.06 364.48 411.35 365.34 408.45 366.2 407.48 367.05 407.43 367.91 406.56 368.76 406.13 369.62 406.31 370.47 406.52 371.33 408.14 372.18 411.08 373.04 411.2 373.89 411.2 374.75 412.28 375.6 412.16 376.46 409.55 377.31 410.06 378.17 411.08 379.03 413.21 379.88 414.74 380.74 418.37 381.59 421.09 382.45 421.91 383.3 420.88 384.16 419.98 385.01 417.6 385.87 415.16 386.72 414.5 387.58 414.06 388.43 413.29 389.29 413.36 390.14 414.98 391 416.26 391.86 416.01 392.71 416.08 393.57 416.92 394.42 416.83 395.28 417.01 396.13 417.85 396.99 418.87 397.84 418.8 398.7 418.9 399.55 417.99 400.41 417.11 401.26 414.64 402.12 413.48 402.97 412.74 403.83 412.59 404.68 412.95 405.54 414.4 406.4 413.59 407.25 411.57 408.11 410.84 408.96 411.1 409.82 411.02 410.67 410.98 411.53 411.93 412.38 411.7 413.24 410.19 414.09 409.46 414.95 409.58 415.8 410.32 416.66 409.83 417.51 408.65 418.37 408.24 419.23 407.46 420.08 405.81 420.94 405.36 421.79 405.53 422.65 405.4 423.5 406.62 424.36 409.21 425.21 411.96 426.07 415.03 426.92 416.56 427.78 416.48 428.63 413.83 429.49 410.41 430.34 406.58 431.2 404.95 432.06 404.52 432.91 406.33 433.77 408.98 434.62 411.67 435.48 411.61 436.33 412.38 437.19 409.94 438.04 407.37 438.9 404.71 439.75 402.92 440.61 399 441.46 397.57 442.32 397.37 443.17 396.99 444.03 398.97 444.88 401.85 445.74 404.52 446.6 407.26 447.45 410.29 448.31 410.25 449.16 410.05 450.02 410.81 450.87 410.73 451.73 409.85 452.58 410.43 453.44 410.73 454.29 410.05 455.15 408.89 456 409.37 456.86 408.43 457.71 408.21 458.57 407.36 459.43 406.5 460.28 405.63 461.14 405.65 461.99 406.27 462.85 408.26 463.7 410.86 464.56 411.26 465.41 412.88 466.27 413.59 467.12 413.87 467.98 413.32 468.83 413.36 469.69 411.91 470.54 410.29 471.4 408.09 472.26 407.1 473.11 406.28 473.97 405.73 474.82 405.24 475.68 405.32 476.53 406.11 477.39 408.47 478.24 410.17 479.1 411.64 479.95 412.37 480.81 411.9 481.66 409.79 482.52 409.15 483.37 408.77 484.23 408.23 485.09 406.85 485.94 406.77 486.8 406.34 487.65 405.72 488.51 405.73 489.36 406.3 490.22 406.81 491.07 407.6 491.93 408.1 492.78 409.33 493.64 410.31 494.49 409.84 495.35 408.69 496.2 407.66 497.06 405.82 497.91 404.59 498.77 404.68 499.63 405.12 500.48 404.43 501.34 403.24 502.19 401.87 503.05 401.31 503.9 401.01 504.76 401 505.61 400.8 506.47 400.12 507.32 398.38 508.18 397.15 509.03 397.2 509.89 397.81 510.74 398.69 511.6 399.46 512.46 399.18 513.31 399.34 514.17 399.72 515.02 399.85 515.88 399.59 516.73 400.11 517.59 401.82 518.44 402.78 519.3 403.23 520.15 403.67 521.01 403.51 521.86 401.11 522.72 399.85 523.57 399.44 524.43 400.16 525.29 401.66 526.14 403.53 527 405.71 527.85 407.47 528.71 407.76 529.56 407.46 530.42 407.97 531.27 408.31 532.13 408.88 532.98 410.15 533.84 411.2 534.69 410.22 535.55 409.19 536.4 407.89 537.26 406.21 538.11 404.44 538.97 404.87 539.83 404.61 540.68 404.54 541.54 404.79 542.39 404.91 543.25 404.1 544.1 403.55 544.96 403.39 545.81 403.56 546.67 404.38 547.52 405.18 548.38 405.61 549.23 406.24 550.09 407.04 550.94 408.59 551.8 410.37 552.66 410.71 553.51 410.25 554.37 410.21 555.22 410.72 556.08 411.24 556.93 411.29 557.79 411.35 558.64 410.97 559.5 409.48 560.35 407.45 561.21 407.1 562.06 407.53 562.92 407.89 563.77 407.18 564.63 408.28 565.49 409.48 566.34 410.02 567.2 409.18 568.05 407.87 568.91 406.4 569.76 405.66 570.62 404.46 571.47 404.9 572.33 405.91 573.18 405.17 574.04 403.27 574.89 402.15 575.75 401.04 576.6 400.78 577.46 400.49 578.32 400.76 579.17 400.81 580.03 400.84 580.88 400.12 581.74 400.16 582.59 399.95 583.45 399.44 584.3 398.24 585.16 396.74 586.01 395.91 586.87 396.1 587.72 396.87 588.58 398.54 589.43 400.73 590.29 401.88 591.14 402.06 592 401.04 592.86 399.73 593.71 398.37 594.57 398.51 595.42 400.01 596.28 400.88 597.13 401 597.99 400.62 598.84 398.49 599.7 395.57 600.55 394.85 601.41 395.34 602.26 396.63 603.12 398.41 603.97 399.68 604.83 399.2 605.69 397.94 606.54 397.34 607.4 396.61 608.25 396.17 609.11 396.35 609.96 396.29 610.82 394.79 611.67 393.45 612.53 392.98 613.38 392.63 614.24 391.44 615.09 390.91 615.95 390.72 616.8 389.46 617.66 387.98 618.52 386.93 619.37 385.62 620.23 384 621.08 382.59 621.94 381.38 622.79 380.12 623.65 379.35 624.5 378.37 625.36 377.43 626.21 376.9 627.07 376.53 627.92 375.33 628.78 374.17 629.63 372.67 630.49 371.13 631.34 370.23 632.2 369.93 633.06 369.9 633.91 370.25 634.77 369.66 635.62 368.5 636.48 367.04 637.33 365.4 638.19 364.04 639.04 363.97 639.9 363.04 640.75 363.05 641.61 363.03 642.46 362.68 643.32 362.21 644.17 362.98 645.03 363.11 645.89 363.28 646.74 363.73 647.6 364.2 648.45 364.76 649.31 365.61 650.16 366.52 651.02 367.6 651.87 368.57 652.73 368.19 653.58 369.82 654.44 373.3 655.29 377.34 656.15 381.21 657 382.38 657.86 377.76 658.72 372.39 659.57 366.17 660.43 358.99 661.28 354.3 662.14 353.04 662.99 350.25 663.85 346.7 664.7 343.95 665.56 342.51 666.41 340.8 667.27 338.67 668.12 336.63 668.98 334.69 669.83 333.25 670.69 330.95 671.55 329.6 672.4 329.15 673.26 328.44 674.11 327.06 674.97 328.73 675.82 330.94 676.68 332.45 677.53 333.16 678.39 333.64 679.24 331.43 680.1 324.59 680.95 315.12 681.81 308.78 682.66 303.35 683.52 299.02 684.37 298.9 685.23 301.96 686.09 302.56 686.94 301.71 687.8 299.65 688.65 295.97 689.51 291.79 690.36 287.91 691.22 284.58 692.07 280.34 692.93 274.67 693.78 268.8 694.64 263.05 695.49 255.49 696.35 248.02 697.2 242.07 698.06 235.05 698.92 227.29 699.77 221.73 700.63 215.75 701.48 209.27 702.34 197.31 703.19 183.85 704.05 169.61 704.9 155.6 705.76 146.43 706.61 147.37 707.47 148.98 708.32 150.67 709.18 151.76 710.03 152.09 710.89 149.43 711.75 147.1 712.6 144.91 713.46 144.88 714.31 140.5 715.17 134.19 716.02 126.29 716.88 118.3 717.73 111.09 718.59 106.05 719.44 100.1 720.3 97.74 721.15 97.37 722.01 94.47 722.86 90.72 723.72 90.17 724.57 90.21 725.43 86.26 726.29 82.04 727.14 75.28" style="stroke-width:1.2;stroke:#f49323;stroke-linecap:butt;fill:none;stroke-linejoin:round;stroke-miterlimit:10"/><circle cx="532.13" cy="408.87" r="2.2" style="stroke-width:1.2;fill:#000;stroke:#000;stroke-linecap:round;stroke-linejoin:round;stroke-miterlimit:10"/><circle cx="551.8" cy="411.04" r="2.2" style="stroke-width:1.2;fill:#000;stroke:#000;stroke-linecap:round;stroke-linejoin:round;stroke-miterlimit:10"/><text x="181.23" y="381.85" style="font-size:14px;font-family:Asap" textLength="69.01" lengthAdjust="spacingAndGlyphs">Malthusian</text><text x="253.6" y="381.85" style="font-size:14px;font-family:Asap" textLength="25.57" lengthAdjust="spacingAndGlyphs">trap</text><text x="499.09" y="430.78" style="font-size:14px;font-family:Asap" textLength="35.28" lengthAdjust="spacingAndGlyphs">Smith</text><text x="545.68" y="430.78" style="font-size:14px;font-family:Asap" textLength="49.87" lengthAdjust="spacingAndGlyphs">Malthus</text><text x="629.31" y="398.16" style="font-size:14px;font-family:Asap" textLength="43.42" lengthAdjust="spacingAndGlyphs">Escape</text></g><g clip-path="url(#prefix__a)"><polyline points="93.35 449.1 93.35 14.17" style="stroke-width:1.07;stroke:#464646;stroke-linecap:butt;fill:none;stroke-linejoin:round;stroke-miterlimit:10"/><text x="66.67" y="453.51" style="font-size:18px;font-family:Asap" textLength="9.63" lengthAdjust="spacingAndGlyphs">0</text><text x="47.4" y="344.78" style="font-size:18px;font-family:Asap" textLength="28.9" lengthAdjust="spacingAndGlyphs">200</text><text x="47.4" y="236.05" style="font-size:18px;font-family:Asap" textLength="28.9" lengthAdjust="spacingAndGlyphs">400</text><text x="47.4" y="127.32" style="font-size:18px;font-family:Asap" textLength="28.9" lengthAdjust="spacingAndGlyphs">600</text><text x="47.4" y="18.58" style="font-size:18px;font-family:Asap" textLength="28.9" lengthAdjust="spacingAndGlyphs">800</text><polyline points="86.26 449.1 93.35 449.1" style="stroke-width:1.07;stroke:#464646;stroke-linecap:butt;fill:none;stroke-linejoin:round;stroke-miterlimit:10"/><polyline points="86.26 340.37 93.35 340.37" style="stroke-width:1.07;stroke:#464646;stroke-linecap:butt;fill:none;stroke-linejoin:round;stroke-miterlimit:10"/><polyline points="86.26 231.64 93.35 231.64" style="stroke-width:1.07;stroke:#464646;stroke-linecap:butt;fill:none;stroke-linejoin:round;stroke-miterlimit:10"/><polyline points="86.26 122.91 93.35 122.91" style="stroke-width:1.07;stroke:#464646;stroke-linecap:butt;fill:none;stroke-linejoin:round;stroke-miterlimit:10"/><polyline points="86.26 14.17 93.35 14.17" style="stroke-width:1.07;stroke:#464646;stroke-linecap:butt;fill:none;stroke-linejoin:round;stroke-miterlimit:10"/><polyline points="726.29 449.1 726.29 14.17" style="stroke-width:1.07;stroke:#464646;stroke-linecap:butt;fill:none;stroke-linejoin:round;stroke-miterlimit:10"/><polyline points="726.29 449.1 733.37 449.1" style="stroke-width:1.07;stroke:#464646;stroke-linecap:butt;fill:none;stroke-linejoin:round;stroke-miterlimit:10"/><polyline points="726.29 340.26 733.37 340.26" style="stroke-width:1.07;stroke:#464646;stroke-linecap:butt;fill:none;stroke-linejoin:round;stroke-miterlimit:10"/><polyline points="726.29 231.85 733.37 231.85" style="stroke-width:1.07;stroke:#464646;stroke-linecap:butt;fill:none;stroke-linejoin:round;stroke-miterlimit:10"/><polyline points="726.29 123.01 733.37 123.01" style="stroke-width:1.07;stroke:#464646;stroke-linecap:butt;fill:none;stroke-linejoin:round;stroke-miterlimit:10"/><polyline points="726.29 14.17 733.37 14.17" style="stroke-width:1.07;stroke:#464646;stroke-linecap:butt;fill:none;stroke-linejoin:round;stroke-miterlimit:10"/><text x="743.33" y="455.42" style="font-size:18px;font-family:Asap" textLength="9.63" lengthAdjust="spacingAndGlyphs">0</text><text x="743.33" y="346.58" style="font-size:18px;font-family:Asap" textLength="19.27" lengthAdjust="spacingAndGlyphs">15</text><text x="743.33" y="238.17" style="font-size:18px;font-family:Asap" textLength="19.27" lengthAdjust="spacingAndGlyphs">30</text><text x="743.33" y="129.33" style="font-size:18px;font-family:Asap" textLength="19.27" lengthAdjust="spacingAndGlyphs">45</text><text x="743.33" y="20.49" style="font-size:18px;font-family:Asap" textLength="19.27" lengthAdjust="spacingAndGlyphs">60</text><polyline points="93.35 449.1 726.29 449.1" style="stroke-width:1.07;stroke:#464646;stroke-linecap:butt;fill:none;stroke-linejoin:round;stroke-miterlimit:10"/><polyline points="93.35 456.19 93.35 449.1" style="stroke-width:1.07;stroke:#464646;stroke-linecap:butt;fill:none;stroke-linejoin:round;stroke-miterlimit:10"/><polyline points="127.56 456.19 127.56 449.1" style="stroke-width:1.07;stroke:#464646;stroke-linecap:butt;fill:none;stroke-linejoin:round;stroke-miterlimit:10"/><polyline points="213.09 456.19 213.09 449.1" style="stroke-width:1.07;stroke:#464646;stroke-linecap:butt;fill:none;stroke-linejoin:round;stroke-miterlimit:10"/><polyline points="298.63 456.19 298.63 449.1" style="stroke-width:1.07;stroke:#464646;stroke-linecap:butt;fill:none;stroke-linejoin:round;stroke-miterlimit:10"/><polyline points="384.16 456.19 384.16 449.1" style="stroke-width:1.07;stroke:#464646;stroke-linecap:butt;fill:none;stroke-linejoin:round;stroke-miterlimit:10"/><polyline points="469.69 456.19 469.69 449.1" style="stroke-width:1.07;stroke:#464646;stroke-linecap:butt;fill:none;stroke-linejoin:round;stroke-miterlimit:10"/><polyline points="555.22 456.19 555.22 449.1" style="stroke-width:1.07;stroke:#464646;stroke-linecap:butt;fill:none;stroke-linejoin:round;stroke-miterlimit:10"/><polyline points="640.75 456.19 640.75 449.1" style="stroke-width:1.07;stroke:#464646;stroke-linecap:butt;fill:none;stroke-linejoin:round;stroke-miterlimit:10"/><polyline points="726.29 456.19 726.29 449.1" style="stroke-width:1.07;stroke:#464646;stroke-linecap:butt;fill:none;stroke-linejoin:round;stroke-miterlimit:10"/><text x="66.37" y="478.79" style="font-size:18px;font-family:Asap" textLength="38.53" lengthAdjust="spacingAndGlyphs">1260</text><text x="108.29" y="478.79" style="font-size:18px;font-family:Asap" textLength="38.53" lengthAdjust="spacingAndGlyphs">1300</text><text x="193.83" y="478.79" style="font-size:18px;font-family:Asap" textLength="38.53" lengthAdjust="spacingAndGlyphs">1400</text><text x="279.36" y="478.79" style="font-size:18px;font-family:Asap" textLength="38.53" lengthAdjust="spacingAndGlyphs">1500</text><text x="364.89" y="478.79" style="font-size:18px;font-family:Asap" textLength="38.53" lengthAdjust="spacingAndGlyphs">1600</text><text x="450.42" y="478.79" style="font-size:18px;font-family:Asap" textLength="38.53" lengthAdjust="spacingAndGlyphs">1700</text><text x="535.95" y="478.79" style="font-size:18px;font-family:Asap" textLength="38.53" lengthAdjust="spacingAndGlyphs">1800</text><text x="621.49" y="478.79" style="font-size:18px;font-family:Asap" textLength="38.53" lengthAdjust="spacingAndGlyphs">1900</text><text x="707.02" y="478.79" style="font-size:18px;font-family:Asap" textLength="38.53" lengthAdjust="spacingAndGlyphs">2000</text><text x="389.73" y="511.59" style="font-size:20px;font-weight:500;font-family:Asap Medium" textLength="40.18" lengthAdjust="spacingAndGlyphs">Year</text><text transform="rotate(-90 194.355 166.145)" style="font-size:20px;font-weight:500;fill:#f49323;font-family:Asap Medium" textLength="39.82" lengthAdjust="spacingAndGlyphs">Real</text><text transform="rotate(-90 172.045 143.835)" style="font-size:20px;font-weight:500;fill:#f49323;font-family:Asap Medium" textLength="47.54" lengthAdjust="spacingAndGlyphs">wage</text><text transform="rotate(-90 145.87 117.66)" style="font-size:20px;font-weight:500;fill:#f49323;font-family:Asap Medium" textLength="48.21" lengthAdjust="spacingAndGlyphs">index</text><text transform="rotate(-90 119.365 91.155)" style="font-size:20px;font-weight:500;fill:#f49323;font-family:Asap Medium" textLength="48.82" lengthAdjust="spacingAndGlyphs">(1850</text><text transform="rotate(-90 92.555 64.345)" style="font-size:20px;font-weight:500;fill:#f49323;font-family:Asap Medium" textLength="11.2" lengthAdjust="spacingAndGlyphs">=</text><text transform="rotate(-90 84.555 56.345)" style="font-size:20px;font-weight:500;fill:#f49323;font-family:Asap Medium" textLength="38.12" lengthAdjust="spacingAndGlyphs">100)</text><text transform="rotate(-90 557.6 -233.99)" style="font-size:20px;font-weight:500;fill:#3a53a4;font-family:Asap Medium" textLength="96.88" lengthAdjust="spacingAndGlyphs">Population</text><text transform="rotate(-90 506.755 -284.835)" style="font-size:20px;font-weight:500;fill:#3a53a4;font-family:Asap Medium" textLength="82.26" lengthAdjust="spacingAndGlyphs">(millions)</text><rect x="128.29" y="40.89" width="183.3" height="59.64" style="stroke-width:1.07;stroke:none;fill:none;stroke-linecap:round;stroke-linejoin:round;stroke-miterlimit:10"/><line x1="135.93" y1="62.65" x2="153.21" y2="62.65" style="stroke-width:1.2;stroke:#3a53a4;stroke-linecap:butt;fill:none;stroke-linejoin:round;stroke-miterlimit:10"/><line x1="135.93" y1="62.65" x2="153.21" y2="62.65" style="stroke-width:1.2;stroke:#3a53a4;stroke-linecap:butt;fill:none;stroke-linejoin:round;stroke-miterlimit:10"/><line x1="135.93" y1="84.25" x2="153.21" y2="84.25" style="stroke-width:1.2;stroke:#f49323;stroke-linecap:butt;fill:none;stroke-linejoin:round;stroke-miterlimit:10"/><line x1="135.93" y1="84.25" x2="153.21" y2="84.25" style="stroke-width:1.2;stroke:#f49323;stroke-linecap:butt;fill:none;stroke-linejoin:round;stroke-miterlimit:10"/><text x="160.85" y="66.57" style="font-size:16px;font-family:Asap" textLength="77.5" lengthAdjust="spacingAndGlyphs">Population</text><text x="242.18" y="66.57" style="font-size:16px;font-family:Asap" textLength="13.15" lengthAdjust="spacingAndGlyphs">in</text><text x="259.18" y="66.57" style="font-size:16px;font-family:Asap" textLength="46.93" lengthAdjust="spacingAndGlyphs">Britain</text><text x="160.85" y="88.17" style="font-size:16px;font-family:Asap" textLength="31.86" lengthAdjust="spacingAndGlyphs">Real</text><text x="196.54" y="88.17" style="font-size:16px;font-family:Asap" textLength="38.03" lengthAdjust="spacingAndGlyphs">wage</text></g></svg>