<svg version="1.1" xmlns="http://www.w3.org/2000/svg" x="0" y="0" viewBox="0 0 311.81 144.57" style="enable-background:new 0 0 311.81 144.57" xml:space="preserve"><polyline style="fill:#cfa9b1" points="236.26 142.06 236.26 107.44 155.08 107.44 155.08 142.06 236.26 142.06"/><polyline style="fill:#cea9b2" points="237.12 142.06 237.12 107.44 158.2 107.44 158.2 142.06 237.12 142.06"/><polyline style="fill:#cea9b2" points="237.99 142.06 237.99 107.44 161.32 107.44 161.32 142.06 237.99 142.06"/><polyline style="fill:#cda9b3" points="238.86 142.06 238.86 107.44 164.45 107.44 164.45 142.06 238.86 142.06"/><polyline style="fill:#cca9b4" points="239.72 142.06 239.72 107.44 167.57 107.44 167.57 142.06 239.72 142.06"/><polyline style="fill:#cca9b4" points="240.59 142.06 240.59 107.44 170.69 107.44 170.69 142.06 240.59 142.06"/><polyline style="fill:#cba9b5" points="241.45 142.06 241.45 107.44 173.81 107.44 173.81 142.06 241.45 142.06"/><polyline style="fill:#caa9b5" points="242.32 142.06 242.32 107.44 176.94 107.44 176.94 142.06 242.32 142.06"/><polyline style="fill:#c9a9b6" points="243.18 142.06 243.18 107.44 180.06 107.44 180.06 142.06 243.18 142.06"/><polyline style="fill:#c9a9b7" points="244.05 142.06 244.05 107.44 183.18 107.44 183.18 142.06 244.05 142.06"/><polyline style="fill:#c8a9b7" points="244.91 142.06 244.91 107.44 186.3 107.44 186.3 142.06 244.91 142.06"/><polyline style="fill:#c7a9b8" points="245.78 142.06 245.78 107.44 189.42 107.44 189.42 142.06 245.78 142.06"/><polyline style="fill:#c7a9b9" points="246.65 142.06 246.65 107.44 192.55 107.44 192.55 142.06 246.65 142.06"/><polyline style="fill:#c6a9b9" points="247.51 142.06 247.51 107.44 195.67 107.44 195.67 142.06 247.51 142.06"/><polyline style="fill:#c5a9ba" points="248.38 142.06 248.38 107.44 198.79 107.44 198.79 142.06 248.38 142.06"/><polyline style="fill:#c4a9ba" points="249.24 142.06 249.24 107.44 201.91 107.44 201.91 142.06 249.24 142.06"/><polyline style="fill:#c4a9bb" points="250.11 142.06 250.11 107.44 205.04 107.44 205.04 142.06 250.11 142.06"/><polyline style="fill:#c3a9bc" points="250.97 142.06 250.97 107.44 208.16 107.44 208.16 142.06 250.97 142.06"/><polyline style="fill:#c2a9bc" points="251.84 142.06 251.84 107.44 211.28 107.44 211.28 142.06 251.84 142.06"/><polyline style="fill:#c1a9bd" points="252.7 142.06 252.7 107.44 214.4 107.44 214.4 142.06 252.7 142.06"/><polyline style="fill:#c1a9bd" points="253.57 142.06 253.57 107.44 217.53 107.44 217.53 142.06 253.57 142.06"/><polyline style="fill:#c0a9be" points="254.44 142.06 254.44 107.44 220.65 107.44 220.65 142.06 254.44 142.06"/><polyline style="fill:#bfa9bf" points="255.3 142.06 255.3 107.44 223.77 107.44 223.77 142.06 255.3 142.06"/><polyline style="fill:#bea8bf" points="256.17 142.06 256.17 107.44 226.89 107.44 226.89 142.06 256.17 142.06"/><polyline style="fill:#bea8c0" points="257.03 142.06 257.03 107.44 230.01 107.44 230.01 142.06 257.03 142.06"/><polyline style="fill:#bda8c1" points="257.9 142.06 257.9 107.44 233.14 107.44 233.14 142.06 257.9 142.06"/><polyline style="fill:#bca8c1" points="258.76 142.06 258.76 107.44 236.26 107.44 236.26 142.06 258.76 142.06"/><rect x="1.69" y="37.13" style="fill:#f9aa8f" width="93.43" height="34.53"/><rect x="6.61" y="37.13" style="fill:#f7aa90" width="91.61" height="34.53"/><rect x="11.52" y="37.13" style="fill:#f6aa90" width="89.78" height="34.53"/><rect x="16.44" y="37.13" style="fill:#f5aa91" width="87.95" height="34.53"/><rect x="21.36" y="37.13" style="fill:#f4aa92" width="86.13" height="34.53"/><rect x="26.28" y="37.13" style="fill:#f3aa92" width="84.3" height="34.53"/><rect x="31.19" y="37.13" style="fill:#f3aa93" width="82.47" height="34.53"/><rect x="36.11" y="37.13" style="fill:#f2aa94" width="80.64" height="34.53"/><rect x="41.03" y="37.13" style="fill:#f1aa94" width="78.82" height="34.53"/><rect x="45.95" y="37.13" style="fill:#f0aa95" width="76.99" height="34.53"/><rect x="50.86" y="37.13" style="fill:#f0aa96" width="75.16" height="34.53"/><rect x="55.78" y="37.13" style="fill:#efaa96" width="73.34" height="34.53"/><rect x="60.7" y="37.13" style="fill:#eeaa97" width="71.51" height="34.53"/><rect x="65.62" y="37.13" style="fill:#edaa98" width="69.68" height="34.53"/><rect x="70.53" y="37.13" style="fill:#edaa98" width="67.85" height="34.53"/><rect x="75.45" y="37.13" style="fill:#ecaa99" width="66.03" height="34.53"/><rect x="80.37" y="37.13" style="fill:#ebaa9a" width="64.2" height="34.53"/><rect x="85.29" y="37.13" style="fill:#ebaa9a" width="62.37" height="34.53"/><rect x="90.21" y="37.13" style="fill:#eaaa9b" width="60.54" height="34.53"/><rect x="95.12" y="37.13" style="fill:#e9aa9c" width="58.72" height="34.53"/><g><polyline style="fill:#ec2426" points="202.27 36.58 202.27 2.53 155.21 2.53 155.21 36.58 202.27 36.58"/><polyline style="fill:#eb2527" points="202.3 36.58 202.3 2.53 155.6 2.53 155.6 36.58 202.3 36.58"/><polyline style="fill:#ea2527" points="202.33 36.58 202.33 2.54 155.98 2.54 155.98 36.58 202.33 36.58"/><polyline style="fill:#e92628" points="202.36 36.58 202.36 2.54 156.37 2.54 156.37 36.58 202.36 36.58"/><polyline style="fill:#e92629" points="202.4 36.58 202.4 2.54 156.75 2.54 156.75 36.58 202.4 36.58"/><polyline style="fill:#e82729" points="202.43 36.58 202.43 2.54 157.14 2.54 157.14 36.58 202.43 36.58"/><polyline style="fill:#e7272a" points="202.46 36.58 202.46 2.54 157.53 2.54 157.53 36.58 202.46 36.58"/><polyline style="fill:#e6282a" points="202.49 36.58 202.49 2.54 157.91 2.54 157.91 36.58 202.49 36.58"/><polyline style="fill:#e6282b" points="202.52 36.58 202.52 2.54 158.3 2.54 158.3 36.58 202.52 36.58"/><polyline style="fill:#e5282b" points="202.55 36.58 202.55 2.54 158.68 2.54 158.68 36.58 202.55 36.58"/><polyline style="fill:#e5292c" points="202.58 36.58 202.58 2.54 159.07 2.54 159.07 36.58 202.58 36.58"/><polyline style="fill:#e4292d" points="202.61 36.58 202.61 2.54 159.45 2.54 159.45 36.58 202.61 36.58"/><polyline style="fill:#e32a2d" points="202.65 36.58 202.65 2.54 159.84 2.54 159.84 36.58 202.65 36.58"/><polyline style="fill:#e32a2e" points="202.68 36.58 202.68 2.54 160.23 2.54 160.23 36.58 202.68 36.58"/><polyline style="fill:#e22a2e" points="202.71 36.59 202.71 2.54 160.61 2.54 160.61 36.59 202.71 36.59"/><polyline style="fill:#e22b2f" points="202.74 36.59 202.74 2.54 161 2.54 161 36.59 202.74 36.59"/><polyline style="fill:#e12b2f" points="202.77 36.59 202.77 2.54 161.38 2.54 161.38 36.59 202.77 36.59"/><polyline style="fill:#e02b30" points="202.8 36.59 202.8 2.54 161.77 2.54 161.77 36.59 202.8 36.59"/><polyline style="fill:#e02c31" points="202.83 36.59 202.83 2.54 162.16 2.54 162.16 36.59 202.83 36.59"/><polyline style="fill:#df2c31" points="202.86 36.59 202.86 2.54 162.54 2.54 162.54 36.59 202.86 36.59"/><polyline style="fill:#df2d32" points="202.9 36.59 202.9 2.55 162.93 2.55 162.93 36.59 202.9 36.59"/><polyline style="fill:#de2d32" points="202.93 36.59 202.93 2.55 163.31 2.55 163.31 36.59 202.93 36.59"/><polyline style="fill:#dd2d33" points="202.96 36.59 202.96 2.55 163.7 2.55 163.7 36.59 202.96 36.59"/><polyline style="fill:#dd2e33" points="202.99 36.59 202.99 2.55 164.08 2.55 164.08 36.59 202.99 36.59"/><polyline style="fill:#dc2e34" points="203.02 36.59 203.02 2.55 164.47 2.55 164.47 36.59 203.02 36.59"/><polyline style="fill:#dc2e34" points="203.05 36.59 203.05 2.55 164.86 2.55 164.86 36.59 203.05 36.59"/><polyline style="fill:#db2f35" points="203.08 36.59 203.08 2.55 165.24 2.55 165.24 36.59 203.08 36.59"/><polyline style="fill:#da2f35" points="203.11 36.59 203.11 2.55 165.63 2.55 165.63 36.59 203.11 36.59"/><polyline style="fill:#da2f36" points="203.15 36.59 203.15 2.55 166.01 2.55 166.01 36.59 203.15 36.59"/><polyline style="fill:#d93037" points="203.18 36.59 203.18 2.55 166.4 2.55 166.4 36.59 203.18 36.59"/><polyline style="fill:#d93037" points="203.21 36.59 203.21 2.55 166.78 2.55 166.78 36.59 203.21 36.59"/><polyline style="fill:#d83138" points="203.24 36.59 203.24 2.55 167.17 2.55 167.17 36.59 203.24 36.59"/><polyline style="fill:#d73138" points="203.27 36.6 203.27 2.55 167.56 2.55 167.56 36.6 203.27 36.6"/><polyline style="fill:#d73139" points="203.3 36.6 203.3 2.55 167.94 2.55 167.94 36.6 203.3 36.6"/><polyline style="fill:#d63239" points="203.33 36.6 203.33 2.55 168.33 2.55 168.33 36.6 203.33 36.6"/><polyline style="fill:#d5323a" points="203.36 36.6 203.36 2.55 168.71 2.55 168.71 36.6 203.36 36.6"/><polyline style="fill:#d5323b" points="203.4 36.6 203.4 2.55 169.1 2.55 169.1 36.6 203.4 36.6"/><polyline style="fill:#d4333b" points="203.43 36.6 203.43 2.55 169.48 2.55 169.48 36.6 203.43 36.6"/><polyline style="fill:#d4333c" points="203.46 36.6 203.46 2.55 169.87 2.55 169.87 36.6 203.46 36.6"/><polyline style="fill:#d3333c" points="203.49 36.6 203.49 2.56 170.26 2.56 170.26 36.6 203.49 36.6"/><polyline style="fill:#d2343d" points="203.52 36.6 203.52 2.56 170.64 2.56 170.64 36.6 203.52 36.6"/><polyline style="fill:#d2343d" points="203.55 36.6 203.55 2.56 171.03 2.56 171.03 36.6 203.55 36.6"/><polyline style="fill:#d1343e" points="203.58 36.6 203.58 2.56 171.41 2.56 171.41 36.6 203.58 36.6"/><polyline style="fill:#d1343f" points="203.61 36.6 203.61 2.56 171.8 2.56 171.8 36.6 203.61 36.6"/><polyline style="fill:#d0353f" points="203.65 36.6 203.65 2.56 172.18 2.56 172.18 36.6 203.65 36.6"/><polyline style="fill:#cf3540" points="203.68 36.6 203.68 2.56 172.57 2.56 172.57 36.6 203.68 36.6"/><polyline style="fill:#cf3540" points="203.71 36.6 203.71 2.56 172.96 2.56 172.96 36.6 203.71 36.6"/><polyline style="fill:#ce3641" points="203.74 36.6 203.74 2.56 173.34 2.56 173.34 36.6 203.74 36.6"/><polyline style="fill:#cd3641" points="203.77 36.6 203.77 2.56 173.73 2.56 173.73 36.6 203.77 36.6"/><polyline style="fill:#cd3642" points="203.8 36.6 203.8 2.56 174.11 2.56 174.11 36.6 203.8 36.6"/><polyline style="fill:#cc3643" points="203.83 36.6 203.83 2.56 174.5 2.56 174.5 36.6 203.83 36.6"/><polyline style="fill:#cc3743" points="203.86 36.61 203.86 2.56 174.88 2.56 174.88 36.61 203.86 36.61"/><polyline style="fill:#cb3744" points="203.9 36.61 203.9 2.56 175.27 2.56 175.27 36.61 203.9 36.61"/><polyline style="fill:#ca3744" points="203.93 36.61 203.93 2.56 175.66 2.56 175.66 36.61 203.93 36.61"/><polyline style="fill:#ca3845" points="203.96 36.61 203.96 2.56 176.04 2.56 176.04 36.61 203.96 36.61"/><polyline style="fill:#c93845" points="203.99 36.61 203.99 2.56 176.43 2.56 176.43 36.61 203.99 36.61"/><polyline style="fill:#c93846" points="204.02 36.61 204.02 2.56 176.81 2.56 176.81 36.61 204.02 36.61"/><polyline style="fill:#c83846" points="204.05 36.61 204.05 2.57 177.2 2.57 177.2 36.61 204.05 36.61"/><polyline style="fill:#c73947" points="204.08 36.61 204.08 2.57 177.58 2.57 177.58 36.61 204.08 36.61"/><polyline style="fill:#c73948" points="204.11 36.61 204.11 2.57 177.97 2.57 177.97 36.61 204.11 36.61"/><polyline style="fill:#c63948" points="204.14 36.61 204.14 2.57 178.36 2.57 178.36 36.61 204.14 36.61"/><polyline style="fill:#c53949" points="204.18 36.61 204.18 2.57 178.74 2.57 178.74 36.61 204.18 36.61"/><polyline style="fill:#c53a49" points="204.21 36.61 204.21 2.57 179.13 2.57 179.13 36.61 204.21 36.61"/><polyline style="fill:#c43a4a" points="204.24 36.61 204.24 2.57 179.51 2.57 179.51 36.61 204.24 36.61"/><polyline style="fill:#c33a4a" points="204.27 36.61 204.27 2.57 179.9 2.57 179.9 36.61 204.27 36.61"/><polyline style="fill:#c33b4b" points="204.3 36.61 204.3 2.57 180.28 2.57 180.28 36.61 204.3 36.61"/><polyline style="fill:#c23b4b" points="204.33 36.61 204.33 2.57 180.67 2.57 180.67 36.61 204.33 36.61"/><polyline style="fill:#c23b4c" points="204.36 36.61 204.36 2.57 181.06 2.57 181.06 36.61 204.36 36.61"/><polyline style="fill:#c13b4c" points="204.39 36.61 204.39 2.57 181.44 2.57 181.44 36.61 204.39 36.61"/><polyline style="fill:#c03c4d" points="204.43 36.62 204.43 2.57 181.83 2.57 181.83 36.62 204.43 36.62"/><polyline style="fill:#c03c4e" points="204.46 36.62 204.46 2.57 182.21 2.57 182.21 36.62 204.46 36.62"/><polyline style="fill:#bf3c4e" points="204.49 36.62 204.49 2.57 182.6 2.57 182.6 36.62 204.49 36.62"/><polyline style="fill:#be3c4f" points="204.52 36.62 204.52 2.57 182.98 2.57 182.98 36.62 204.52 36.62"/><polyline style="fill:#be3c4f" points="204.55 36.62 204.55 2.57 183.37 2.57 183.37 36.62 204.55 36.62"/><polyline style="fill:#bd3d50" points="204.58 36.62 204.58 2.57 183.76 2.57 183.76 36.62 204.58 36.62"/><polyline style="fill:#bc3d50" points="204.61 36.62 204.61 2.58 184.14 2.58 184.14 36.62 204.61 36.62"/><polyline style="fill:#bc3d51" points="204.64 36.62 204.64 2.58 184.53 2.58 184.53 36.62 204.64 36.62"/><polyline style="fill:#bb3d51" points="204.68 36.62 204.68 2.58 184.91 2.58 184.91 36.62 204.68 36.62"/><polyline style="fill:#bb3e52" points="204.71 36.62 204.71 2.58 185.3 2.58 185.3 36.62 204.71 36.62"/><polyline style="fill:#ba3e52" points="204.74 36.62 204.74 2.58 185.68 2.58 185.68 36.62 204.74 36.62"/><polyline style="fill:#b93e53" points="204.77 36.62 204.77 2.58 186.07 2.58 186.07 36.62 204.77 36.62"/><polyline style="fill:#b93e53" points="204.8 36.62 204.8 2.58 186.46 2.58 186.46 36.62 204.8 36.62"/><polyline style="fill:#b83e54" points="204.83 36.62 204.83 2.58 186.84 2.58 186.84 36.62 204.83 36.62"/><polyline style="fill:#b73f54" points="204.86 36.62 204.86 2.58 187.23 2.58 187.23 36.62 204.86 36.62"/><polyline style="fill:#b73f55" points="204.89 36.62 204.89 2.58 187.61 2.58 187.61 36.62 204.89 36.62"/><polyline style="fill:#b63f55" points="204.93 36.62 204.93 2.58 188 2.58 188 36.62 204.93 36.62"/><polyline style="fill:#b53f56" points="204.96 36.62 204.96 2.58 188.38 2.58 188.38 36.62 204.96 36.62"/><polyline style="fill:#b53f56" points="204.99 36.63 204.99 2.58 188.77 2.58 188.77 36.63 204.99 36.63"/><polyline style="fill:#b44057" points="205.02 36.63 205.02 2.58 189.16 2.58 189.16 36.63 205.02 36.63"/><polyline style="fill:#b34057" points="205.05 36.63 205.05 2.58 189.54 2.58 189.54 36.63 205.05 36.63"/><polyline style="fill:#b34058" points="205.08 36.63 205.08 2.58 189.93 2.58 189.93 36.63 205.08 36.63"/><polyline style="fill:#b24058" points="205.11 36.63 205.11 2.58 190.31 2.58 190.31 36.63 205.11 36.63"/><polyline style="fill:#b24058" points="205.14 36.63 205.14 2.58 190.7 2.58 190.7 36.63 205.14 36.63"/><polyline style="fill:#b14159" points="205.18 36.63 205.18 2.59 191.08 2.59 191.08 36.63 205.18 36.63"/><polyline style="fill:#b04159" points="205.21 36.63 205.21 2.59 191.47 2.59 191.47 36.63 205.21 36.63"/><polyline style="fill:#b0415a" points="205.24 36.63 205.24 2.59 191.86 2.59 191.86 36.63 205.24 36.63"/><polyline style="fill:#af415a" points="205.27 36.63 205.27 2.59 192.24 2.59 192.24 36.63 205.27 36.63"/><polyline style="fill:#ae415b" points="205.3 36.63 205.3 2.59 192.63 2.59 192.63 36.63 205.3 36.63"/><polyline style="fill:#ae425b" points="205.33 36.63 205.33 2.59 193.01 2.59 193.01 36.63 205.33 36.63"/><polyline style="fill:#ad425c" points="205.36 36.63 205.36 2.59 193.4 2.59 193.4 36.63 205.36 36.63"/><polyline style="fill:#ac425c" points="205.39 36.63 205.39 2.59 193.78 2.59 193.78 36.63 205.39 36.63"/><polyline style="fill:#ac425d" points="205.43 36.63 205.43 2.59 194.17 2.59 194.17 36.63 205.43 36.63"/><polyline style="fill:#ab425d" points="205.46 36.63 205.46 2.59 194.56 2.59 194.56 36.63 205.46 36.63"/><polyline style="fill:#aa435e" points="205.49 36.63 205.49 2.59 194.94 2.59 194.94 36.63 205.49 36.63"/><polyline style="fill:#aa435e" points="205.52 36.63 205.52 2.59 195.33 2.59 195.33 36.63 205.52 36.63"/><polyline style="fill:#a9435f" points="205.55 36.64 205.55 2.59 195.71 2.59 195.71 36.64 205.55 36.64"/><polyline style="fill:#a8435f" points="205.58 36.64 205.58 2.59 196.1 2.59 196.1 36.64 205.58 36.64"/><polyline style="fill:#a8435f" points="205.61 36.64 205.61 2.59 196.48 2.59 196.48 36.64 205.61 36.64"/><polyline style="fill:#a74360" points="205.64 36.64 205.64 2.59 196.87 2.59 196.87 36.64 205.64 36.64"/><polyline style="fill:#a64460" points="205.68 36.64 205.68 2.59 197.26 2.59 197.26 36.64 205.68 36.64"/><polyline style="fill:#a64461" points="205.71 36.64 205.71 2.59 197.64 2.59 197.64 36.64 205.71 36.64"/><polyline style="fill:#a54461" points="205.74 36.64 205.74 2.6 198.03 2.6 198.03 36.64 205.74 36.64"/><polyline style="fill:#a54462" points="205.77 36.64 205.77 2.6 198.41 2.6 198.41 36.64 205.77 36.64"/><polyline style="fill:#a44462" points="205.8 36.64 205.8 2.6 198.8 2.6 198.8 36.64 205.8 36.64"/><polyline style="fill:#a34463" points="205.83 36.64 205.83 2.6 199.18 2.6 199.18 36.64 205.83 36.64"/><polyline style="fill:#a34463" points="205.86 36.64 205.86 2.6 199.57 2.6 199.57 36.64 205.86 36.64"/><polyline style="fill:#a24564" points="205.89 36.64 205.89 2.6 199.96 2.6 199.96 36.64 205.89 36.64"/><polyline style="fill:#a14564" points="205.93 36.64 205.93 2.6 200.34 2.6 200.34 36.64 205.93 36.64"/><polyline style="fill:#a14564" points="205.96 36.64 205.96 2.6 200.73 2.6 200.73 36.64 205.96 36.64"/><polyline style="fill:#a04565" points="205.99 36.64 205.99 2.6 201.11 2.6 201.11 36.64 205.99 36.64"/><polyline style="fill:#9f4565" points="206.02 36.64 206.02 2.6 201.5 2.6 201.5 36.64 206.02 36.64"/><polyline style="fill:#9f4566" points="206.05 36.64 206.05 2.6 201.88 2.6 201.88 36.64 206.05 36.64"/><polyline style="fill:#9e4566" points="206.08 36.64 206.08 2.6 202.27 2.6 202.27 36.64 206.08 36.64"/></g><polyline style="fill:#ed2124;stroke:#fff;stroke-width:1.0493;stroke-miterlimit:10" points="102.88 37.13 102.88 1.98 37.32 1.98 37.32 37.13 102.88 37.13"/><polyline style="fill:#ed2124;stroke:#fff;stroke-width:1.0493;stroke-miterlimit:10" points="154.42 37.13 154.42 1.98 102.39 1.98 102.39 37.13 154.42 37.13"/><polyline style="fill:#bca8c1;stroke:#fff;stroke-width:.9;stroke-miterlimit:10" points="258.82 107.44 258.82 72.28 207.05 72.28 207.05 107.44 258.82 107.44"/><polyline style="fill:#bca8c1;stroke:#fff;stroke-width:.9;stroke-miterlimit:10" points="310.59 107.44 310.59 72.28 258.82 72.28 258.82 107.44 310.59 107.44"/><polyline style="fill:#cfa9b1;stroke:#fff;stroke-width:.9;stroke-miterlimit:10" points="206.7 72.28 206.7 37.13 154.76 37.13 154.76 72.28 206.7 72.28"/><polygon style="fill:#ed2124;stroke:#fff;stroke-width:1.0493;stroke-miterlimit:10" points="36.38 1.98 1.23 1.98 1.23 37.13 36.38 37.13 50.28 19.56"/><text transform="translate(7.644 21.656)" style="fill:#fff;font-family:'Asap-Bold';font-size:6px">Black Death</text><text transform="translate(53.029 17.808)"><tspan x="0" y="0" style="fill:#fff;font-family:'Asap-Regular';font-size:6px">Population and</tspan><tspan x="0" y="7.2" style="fill:#fff;font-family:'Asap-Regular';font-size:6px">labour supply fall</tspan></text><text transform="translate(109.124 17.808)"><tspan x="0" y="0" style="fill:#fff;font-family:'Asap-Regular';font-size:6px">More and better</tspan><tspan x="0" y="7.2" style="fill:#fff;font-family:'Asap-Regular';font-size:6px">land per farmer</tspan></text><text transform="translate(161.009 17.81)"><tspan x="0" y="0" style="fill:#fff;font-family:'Asap-Regular';font-size:6px">Average output</tspan><tspan x="0" y="7.2" style="fill:#fff;font-family:'Asap-Regular';font-size:6px">per farmer rises</tspan></text><text transform="translate(161.009 54.107)"><tspan x="0" y="0" style="fill:#fff;font-family:'Asap-Regular';font-size:6px">Rural income</tspan><tspan x="0" y="7.2" style="fill:#fff;font-family:'Asap-Regular';font-size:6px">and wages rise</tspan></text><text transform="translate(8.591 52.881)"><tspan x="0" y="0" style="fill:#fff;font-family:'Asap-Regular';font-size:6px">Bargaining power of farmers and</tspan><tspan x="22.4" y="7.2" style="fill:#fff;font-family:'Asap-Regular';font-size:6px">employees rises</tspan></text><text transform="translate(161.009 123.186)"><tspan x="0" y="0" style="fill:#fff;font-family:'Asap-Regular';font-size:6px">Bargaining power of farmer and</tspan><tspan x="0" y="7.2" style="fill:#fff;font-family:'Asap-Regular';font-size:6px">employees falls</tspan></text><g><text transform="translate(115.902 52.881)"><tspan x="0" y="0" style="fill:#fff;font-family:'Asap-Regular';font-size:6px">Peasants’</tspan><tspan x="3.88" y="7.2" style="fill:#fff;font-family:'Asap-Regular';font-size:6px">Revolt</tspan></text></g><polyline style="fill:#fff" points="102.39 16.98 107.06 19.56 102.39 22.13"/><polyline style="fill:#fff" points="102.39 52.14 107.06 54.71 102.39 57.28"/><polyline style="fill:#fff" points="154.42 16.98 159.09 19.56 154.42 22.13"/><polyline style="fill:#cfa9b1;stroke:#fff;stroke-width:.9;stroke-miterlimit:10" points="206.7 107.44 206.7 72.28 154.59 72.28 154.59 107.44 206.7 107.44"/><text transform="translate(161.01 88.112)"><tspan x="0" y="0" style="fill:#fff;font-family:'Asap-Regular';font-size:6px">Population and</tspan><tspan x="0" y="7.2" style="fill:#fff;font-family:'Asap-Regular';font-size:6px">labour supply</tspan><tspan x="0" y="14.4" style="fill:#fff;font-family:'Asap-Regular';font-size:6px">rise</tspan></text><text transform="translate(220.056 88.112)"><tspan x="0" y="0" style="fill:#fff;font-family:'Asap-Regular';font-size:6px">Less land</tspan><tspan x="0" y="7.2" style="fill:#fff;font-family:'Asap-Regular';font-size:6px">per farmer</tspan></text><polyline style="fill:#fff" points="207.05 87.29 211.72 89.86 207.05 92.43"/><text transform="translate(267.024 88.112)"><tspan x="0" y="0" style="fill:#fff;font-family:'Asap-Regular';font-size:6px">Average output</tspan><tspan x="0" y="7.2" style="fill:#fff;font-family:'Asap-Regular';font-size:6px">per farmer falls</tspan></text><polyline style="fill:#fff" points="258.82 87.29 263.49 89.86 258.82 92.43"/><polyline style="fill:#a4a7d3;stroke:#fff;stroke-width:.9325;stroke-miterlimit:10" points="310.59 142.59 310.59 107.44 258.82 107.44 258.82 142.59 310.59 142.59"/><polyline style="fill:#fff" points="258.82 122.44 263.49 125.01 258.82 127.58"/><polyline style="fill:#fff" points="154.42 52.14 159.09 54.71 154.42 57.28"/><polyline style="fill:#fff" points="183.22 37.13 180.65 41.8 178.07 37.13"/><polyline style="fill:#fff" points="75.36 37.13 72.79 41.8 70.22 37.13"/><polyline style="fill:#fff" points="183.22 72.28 180.65 76.95 178.07 72.28"/><polyline style="fill:#fff" points="183.22 107.44 180.65 112.11 178.07 107.44"/><text transform="translate(267.024 123.186)"><tspan x="0" y="0" style="fill:#fff;font-family:'Asap-Regular';font-size:6px">Rural income</tspan><tspan x="0" y="7.2" style="fill:#fff;font-family:'Asap-Regular';font-size:6px">and wages fall</tspan></text><line style="fill:none;stroke:#fff;stroke-width:1.1324;stroke-miterlimit:10" x1="102.39" y1="37.19" x2="102.39" y2="78.94"/></svg>