<svg version="1.1" xmlns="http://www.w3.org/2000/svg" x="0" y="0" viewBox="0 0 311.81 181.42" style="enable-background:new 0 0 311.81 181.42" xml:space="preserve"><rect x="53.12" y="38.97" style="fill:#f9aa8f" width="25.33" height="33.7"/><rect x="53.61" y="38.97" style="fill:#f7aa90" width="25.33" height="33.7"/><rect x="54.09" y="38.97" style="fill:#f6aa91" width="25.33" height="33.7"/><rect x="54.58" y="38.97" style="fill:#f5aa91" width="25.33" height="33.7"/><rect x="55.07" y="38.97" style="fill:#f4aa92" width="25.33" height="33.7"/><rect x="55.55" y="38.97" style="fill:#f3aa93" width="25.33" height="33.7"/><rect x="56.04" y="38.97" style="fill:#f2aa93" width="25.33" height="33.7"/><rect x="56.53" y="38.97" style="fill:#f1aa94" width="25.33" height="33.7"/><rect x="57.02" y="38.97" style="fill:#f0aa95" width="25.33" height="33.7"/><rect x="57.5" y="38.97" style="fill:#f0aa95" width="25.33" height="33.7"/><rect x="57.99" y="38.97" style="fill:#efa996" width="25.33" height="33.7"/><rect x="58.48" y="38.97" style="fill:#eea997" width="25.33" height="33.7"/><rect x="58.96" y="38.97" style="fill:#eda997" width="25.33" height="33.7"/><rect x="59.45" y="38.97" style="fill:#eda998" width="25.33" height="33.7"/><rect x="59.94" y="38.97" style="fill:#eca999" width="25.33" height="33.7"/><rect x="60.43" y="38.97" style="fill:#eba999" width="25.33" height="33.7"/><rect x="60.91" y="38.97" style="fill:#eaa99a" width="25.33" height="33.7"/><rect x="61.4" y="38.97" style="fill:#eaa99b" width="25.33" height="33.7"/><rect x="61.89" y="38.97" style="fill:#e9a99b" width="25.33" height="33.7"/><rect x="62.37" y="38.97" style="fill:#e8a99c" width="25.33" height="33.7"/><rect x="62.86" y="38.97" style="fill:#e7a99d" width="25.33" height="33.7"/><rect x="63.35" y="38.97" style="fill:#e7a99d" width="25.33" height="33.7"/><rect x="63.84" y="38.97" style="fill:#e6a99e" width="25.33" height="33.7"/><rect x="64.32" y="38.97" style="fill:#e5aa9f" width="25.33" height="33.7"/><rect x="64.81" y="38.97" style="fill:#e5aa9f" width="25.33" height="33.7"/><rect x="65.3" y="38.97" style="fill:#e4aaa0" width="25.33" height="33.7"/><rect x="65.78" y="38.97" style="fill:#e3a9a1" width="25.33" height="33.7"/><rect x="66.27" y="38.97" style="fill:#e2a9a1" width="25.33" height="33.7"/><rect x="66.76" y="38.97" style="fill:#e1a9a2" width="25.33" height="33.7"/><rect x="67.25" y="38.97" style="fill:#e1a9a3" width="25.33" height="33.7"/><rect x="67.73" y="38.97" style="fill:#e0a9a3" width="25.33" height="33.7"/><rect x="68.22" y="38.97" style="fill:#dfa9a4" width="25.33" height="33.7"/><rect x="68.71" y="38.97" style="fill:#dea9a5" width="25.33" height="33.7"/><rect x="69.19" y="38.97" style="fill:#dea9a5" width="25.33" height="33.7"/><rect x="69.68" y="38.97" style="fill:#dda9a6" width="25.33" height="33.7"/><rect x="70.17" y="38.97" style="fill:#dca9a6" width="25.33" height="33.7"/><rect x="70.66" y="38.97" style="fill:#dba9a7" width="25.33" height="33.7"/><rect x="71.14" y="38.97" style="fill:#daa9a8" width="25.33" height="33.7"/><rect x="71.63" y="38.97" style="fill:#daa9a8" width="25.33" height="33.7"/><rect x="72.12" y="38.97" style="fill:#d9a9a9" width="25.33" height="33.7"/><rect x="72.6" y="38.97" style="fill:#d8a9aa" width="25.33" height="33.7"/><rect x="73.09" y="38.97" style="fill:#d7a9aa" width="25.33" height="33.7"/><rect x="73.58" y="38.97" style="fill:#d7a9ab" width="25.33" height="33.7"/><rect x="74.07" y="38.97" style="fill:#d6a9ac" width="25.33" height="33.7"/><rect x="74.55" y="38.97" style="fill:#d5a9ac" width="25.33" height="33.7"/><rect x="75.04" y="38.97" style="fill:#d4a9ad" width="25.33" height="33.7"/><rect x="75.53" y="38.97" style="fill:#d4a9ae" width="25.33" height="33.7"/><rect x="76.01" y="38.97" style="fill:#d3a9ae" width="25.33" height="33.7"/><rect x="76.5" y="38.97" style="fill:#d2a9af" width="25.33" height="33.7"/><rect x="76.99" y="38.97" style="fill:#d1a9af" width="25.33" height="33.7"/><rect x="77.48" y="38.97" style="fill:#d0a9b0" width="25.33" height="33.7"/><rect x="77.96" y="38.97" style="fill:#d0a9b1" width="25.33" height="33.7"/><rect x="78.45" y="38.97" style="fill:#cfa9b1" width="25.33" height="33.7"/><g><rect x="51.38" y="4.14" style="fill:#ed2124" width="51.94" height="33.75"/><rect x="52.18" y="4.14" style="fill:#ec2225" width="51.94" height="33.75"/><rect x="52.98" y="4.14" style="fill:#eb2225" width="51.94" height="33.75"/><rect x="53.78" y="4.14" style="fill:#eb2326" width="51.94" height="33.75"/><rect x="54.58" y="4.14" style="fill:#ea2326" width="51.94" height="33.75"/><rect x="55.38" y="4.14" style="fill:#e92427" width="51.94" height="33.75"/><rect x="56.18" y="4.14" style="fill:#e82427" width="51.94" height="33.75"/><rect x="56.98" y="4.14" style="fill:#e82528" width="51.94" height="33.75"/><rect x="57.78" y="4.14" style="fill:#e72528" width="51.94" height="33.75"/><rect x="58.58" y="4.14" style="fill:#e62529" width="51.94" height="33.75"/><rect x="59.37" y="4.14" style="fill:#e62629" width="51.94" height="33.75"/><rect x="60.17" y="4.14" style="fill:#e5262a" width="51.94" height="33.75"/><rect x="60.97" y="4.14" style="fill:#e5272a" width="51.94" height="33.75"/><rect x="61.77" y="4.14" style="fill:#e4272b" width="51.94" height="33.75"/><rect x="62.57" y="4.14" style="fill:#e3272b" width="51.94" height="33.75"/><rect x="63.37" y="4.14" style="fill:#e3282c" width="51.94" height="33.75"/><rect x="64.17" y="4.14" style="fill:#e2282c" width="51.94" height="33.75"/><rect x="64.97" y="4.14" style="fill:#e2282d" width="51.94" height="33.75"/><rect x="65.77" y="4.14" style="fill:#e1292d" width="51.94" height="33.75"/><rect x="66.57" y="4.14" style="fill:#e1292e" width="51.94" height="33.75"/><rect x="67.37" y="4.14" style="fill:#e0292f" width="51.94" height="33.75"/><rect x="68.16" y="4.14" style="fill:#e02a2f" width="51.94" height="33.75"/><rect x="68.96" y="4.14" style="fill:#df2a30" width="51.94" height="33.75"/><rect x="69.76" y="4.14" style="fill:#de2a30" width="51.94" height="33.75"/><rect x="70.56" y="4.14" style="fill:#de2b31" width="51.94" height="33.75"/><rect x="71.36" y="4.14" style="fill:#dd2b31" width="51.94" height="33.75"/><rect x="72.16" y="4.14" style="fill:#dd2b32" width="51.94" height="33.75"/><rect x="72.96" y="4.14" style="fill:#dc2c32" width="51.94" height="33.75"/><rect x="73.76" y="4.14" style="fill:#dc2c33" width="51.94" height="33.75"/><rect x="74.56" y="4.14" style="fill:#db2c33" width="51.94" height="33.75"/><rect x="75.36" y="4.14" style="fill:#da2d34" width="51.94" height="33.75"/><rect x="76.16" y="4.14" style="fill:#da2d34" width="51.94" height="33.75"/><rect x="76.95" y="4.14" style="fill:#d92e35" width="51.94" height="33.75"/><rect x="77.75" y="4.14" style="fill:#d92e35" width="51.94" height="33.75"/><rect x="78.55" y="4.14" style="fill:#d82e36" width="51.94" height="33.75"/><rect x="79.35" y="4.14" style="fill:#d72f37" width="51.94" height="33.75"/><rect x="80.15" y="4.14" style="fill:#d72f37" width="51.94" height="33.75"/><rect x="80.95" y="4.14" style="fill:#d62f38" width="51.94" height="33.75"/><rect x="81.75" y="4.14" style="fill:#d63038" width="51.94" height="33.75"/><rect x="82.55" y="4.14" style="fill:#d53039" width="51.94" height="33.75"/><rect x="83.35" y="4.14" style="fill:#d43039" width="51.94" height="33.75"/><rect x="84.15" y="4.14" style="fill:#d4313a" width="51.94" height="33.75"/><rect x="84.95" y="4.14" style="fill:#d3313a" width="51.94" height="33.75"/><rect x="85.74" y="4.14" style="fill:#d3313b" width="51.94" height="33.75"/><rect x="86.54" y="4.14" style="fill:#d2313c" width="51.94" height="33.75"/><rect x="87.34" y="4.14" style="fill:#d2323c" width="51.94" height="33.75"/><rect x="88.14" y="4.14" style="fill:#d1323d" width="51.94" height="33.75"/><rect x="88.94" y="4.14" style="fill:#d0323d" width="51.94" height="33.75"/><rect x="89.74" y="4.14" style="fill:#d0333e" width="51.94" height="33.75"/><rect x="90.54" y="4.14" style="fill:#cf333e" width="51.94" height="33.75"/><rect x="91.34" y="4.14" style="fill:#cf333f" width="51.94" height="33.75"/><rect x="92.14" y="4.14" style="fill:#ce333f" width="51.94" height="33.75"/><rect x="92.94" y="4.14" style="fill:#ce3440" width="51.94" height="33.75"/><rect x="93.74" y="4.14" style="fill:#cd3440" width="51.94" height="33.75"/><rect x="94.54" y="4.14" style="fill:#cc3441" width="51.94" height="33.75"/><rect x="95.33" y="4.14" style="fill:#cc3542" width="51.94" height="33.75"/><rect x="96.13" y="4.14" style="fill:#cb3542" width="51.94" height="33.75"/><rect x="96.93" y="4.14" style="fill:#cb3543" width="51.94" height="33.75"/><rect x="97.73" y="4.14" style="fill:#ca3543" width="51.94" height="33.75"/><rect x="98.53" y="4.14" style="fill:#c93644" width="51.94" height="33.75"/><rect x="99.33" y="4.14" style="fill:#c93644" width="51.94" height="33.75"/><rect x="100.13" y="4.14" style="fill:#c83645" width="51.94" height="33.75"/><rect x="100.93" y="4.14" style="fill:#c83645" width="51.94" height="33.75"/><rect x="101.73" y="4.14" style="fill:#c73746" width="51.94" height="33.75"/><rect x="102.53" y="4.14" style="fill:#c63746" width="51.94" height="33.75"/><rect x="103.33" y="4.14" style="fill:#c63747" width="51.94" height="33.75"/></g><line style="fill:none;stroke:#ccc;stroke-width:.7372;stroke-linecap:square;stroke-linejoin:round" x1="187.76" y1="133.91" x2="187.76" y2="134.78"/><line style="fill:none;stroke:#ccc;stroke-width:.7372;stroke-linecap:square;stroke-linejoin:round" x1="176.32" y1="133.91" x2="176.32" y2="134.78"/><polyline style="fill:#ed2124;stroke:#fff;stroke-width:1.0493;stroke-miterlimit:10" points="52.66 73.28 52.66 38.43 1.08 38.43 1.08 73.28 52.66 73.28"/><polyline style="fill:#cfa9b1;stroke:#fff;stroke-width:.9;stroke-miterlimit:10" points="155.82 73.28 155.82 38.43 104.24 38.43 104.24 73.28 155.82 73.28"/><polyline style="fill:#9e4566;stroke:#fff;stroke-width:.9;stroke-miterlimit:10" points="207.14 38.43 207.14 3.59 155.82 3.59 155.82 38.43 207.14 38.43"/><polyline style="fill:#bca8c1;stroke:#fff;stroke-width:.9;stroke-miterlimit:10" points="259.15 108.13 259.15 73.28 207.83 73.28 207.83 108.13 259.15 108.13"/><polyline style="fill:#f9aa8f;stroke:#fff;stroke-width:1.0493;stroke-miterlimit:10" points="310.47 108.13 310.47 73.28 259.15 73.28 259.15 108.13 310.47 108.13"/><polyline style="fill:#cfa9b1;stroke:#fff;stroke-width:.9;stroke-miterlimit:10" points="207.32 73.28 207.32 38.43 155.82 38.43 155.82 73.28 207.32 73.28"/><text transform="translate(70.678 19.277)"><tspan x="0" y="0" style="fill:#fff;font-family:'Asap-Regular';font-size:6px">More and better capital goods</tspan><tspan x="0" y="7.2" style="fill:#fff;font-family:'Asap-Regular';font-size:6px">per worker</tspan></text><text transform="translate(161.724 19.277)"><tspan x="0" y="0" style="fill:#fff;font-family:'Asap-Regular';font-size:6px">Average output</tspan><tspan x="0" y="7.2" style="fill:#fff;font-family:'Asap-Regular';font-size:6px">per worker rises</tspan></text><text transform="translate(161.723 57.343)" style="fill:#fff;font-family:'Asap-Regular';font-size:6px">Higher profits</text><text transform="translate(13.683 57.814)"><tspan x="0" y="0" style="fill:#fff;font-family:'Asap-Regular';font-size:6px">Displaced</tspan><tspan x="0" y="7.2" style="fill:#fff;font-family:'Asap-Regular';font-size:6px">workers</tspan></text><text transform="translate(62.46 50.702)"><tspan x="0" y="0" style="fill:#fff;font-family:'Asap-Regular';font-size:6px">Bargaining</tspan><tspan x="0" y="7.2" style="fill:#fff;font-family:'Asap-Regular';font-size:6px">power of</tspan><tspan x="0" y="14.4" style="fill:#fff;font-family:'Asap-Regular';font-size:6px">workers falls</tspan></text><text transform="translate(115.486 53.593)"><tspan x="0" y="0" style="fill:#fff;font-family:'Asap-Regular';font-size:6px">Kept wages</tspan><tspan x="0" y="7.2" style="fill:#fff;font-family:'Asap-Regular';font-size:6px">from rising</tspan></text><polygon style="fill:#a4a7d3;stroke:#fff;stroke-width:.9325;stroke-miterlimit:10" points="258.93 108.13 258.55 108.13 207.57 108.13 207.57 142.98 258.55 142.98 258.93 142.98 310.73 142.98 310.73 108.13"/><polygon style="fill:#f9aa8f;stroke:#fff;stroke-width:1.0493;stroke-miterlimit:10" points="258.93 37.84 258.55 37.84 207.57 37.84 207.57 72.69 258.55 72.69 258.93 72.69 310.73 72.69 310.73 37.84"/><text transform="translate(217.165 126.868)" style="fill:#fff;font-family:'Asap-Regular';font-size:6px">Bargaining power of workers rises</text><polyline style="fill:#fff" points="155.27 18.46 159.9 21.01 155.27 23.56"/><polyline style="fill:#bca8c1;stroke:#fff;stroke-width:.9;stroke-miterlimit:10" points="207.49 108.13 207.49 73.28 155.82 73.28 155.82 108.13 207.49 108.13"/><polyline style="fill:#bca8c1;stroke:#fff;stroke-width:.9;stroke-miterlimit:10" points="207.49 142.98 207.49 108.13 155.82 108.13 155.82 142.98 207.49 142.98"/><text transform="translate(161.452 87.274)"><tspan x="0" y="0" style="fill:#fff;font-family:'Asap-Regular';font-size:6px">Expansion </tspan><tspan x="0" y="7.2" style="fill:#fff;font-family:'Asap-Regular';font-size:6px">of factory</tspan><tspan x="0" y="14.4" style="fill:#fff;font-family:'Asap-Regular';font-size:6px">production</tspan></text><text transform="translate(161.452 123.748)"><tspan x="0" y="0" style="fill:#fff;font-family:'Asap-Regular';font-size:6px">Demand for </tspan><tspan x="0" y="7.2" style="fill:#fff;font-family:'Asap-Regular';font-size:6px">labour rises</tspan></text><text transform="translate(216.844 88.975)"><tspan x="0" y="0" style="fill:#fff;font-family:'Asap-Regular';font-size:6px">Labour supply</tspan><tspan x="0" y="7.2" style="fill:#fff;font-family:'Asap-Regular';font-size:6px">falls</tspan></text><polyline style="fill:#fff" points="207.49 123.01 212.12 125.56 207.49 128.11"/><text transform="translate(264.143 88.975)"><tspan x="0" y="0" style="fill:#fff;font-family:'Asap-Bold';font-size:6px">Extension of the</tspan><tspan x="0" y="7.2" style="fill:#fff;font-family:'Asap-Bold';font-size:6px">right to vote</tspan></text><polyline style="fill:#a4a7d3;stroke:#fff;stroke-width:.9325;stroke-miterlimit:10" points="310.47 177.83 310.47 142.98 259.15 142.98 259.15 177.83 310.47 177.83"/><polyline style="fill:#fff" points="155.27 53.31 159.9 55.86 155.27 58.41"/><polyline style="fill:#fff" points="104.24 53.31 108.87 55.86 104.24 58.41"/><polyline style="fill:#fff" points="52.66 53.31 57.29 55.86 52.66 58.41"/><polyline style="fill:#fff" points="181.51 38.43 178.96 43.07 176.41 38.43"/><polyline style="fill:#fff" points="181.51 73.28 178.96 77.91 176.41 73.28"/><polyline style="fill:#fff" points="181.51 108.13 178.96 112.76 176.41 108.13"/><polyline style="fill:#fff" points="236.04 108.37 233.49 113 230.94 108.37"/><polyline style="fill:#fff" points="236.04 72.69 233.49 77.32 230.94 72.69"/><polyline style="fill:#fff" points="287.36 108.37 284.81 113 282.26 108.37"/><polyline style="fill:#fff" points="287.36 142.98 284.81 147.61 282.26 142.98"/><text transform="translate(272.179 162.095)" style="fill:#fff;font-family:'Asap-Regular';font-size:6px">Wages rise</text><text transform="translate(216.844 53.31)"><tspan x="0" y="0" style="fill:#fff;font-family:'Asap-Bold';font-size:6px">Restrictions on employing women</tspan><tspan x="0" y="7.2" style="fill:#fff;font-family:'Asap-Bold';font-size:6px">and children, factory hours</tspan></text><polygon style="fill:#ed2124;stroke:#fff;stroke-width:1.0493;stroke-miterlimit:10" points="1.08 38.43 1.08 3.59 52.57 3.59 66.36 21.01 52.57 38.43 52.57 38.43 26.87 48.43 1.08 38.43"/><text transform="translate(12.603 21.277)"><tspan x="0" y="0" style="fill:#fff;font-family:'Asap-Bold';font-size:6px">The Industrial</tspan><tspan x="0" y="7.2" style="fill:#fff;font-family:'Asap-Bold';font-size:6px">Revolution</tspan></text><g><path style="fill:#fff" d="M93.16 109.17c7.72 0 7.73-12 0-12s-7.74 12 0 12z"/></g><g><line style="fill:none;stroke:#bda8c1;stroke-miterlimit:10" x1="130.03" y1="123.94" x2="153.17" y2="123.94"/><polygon style="fill:#bda8c1" points="149.85 128.03 149.17 127.3 152.78 123.94 149.17 120.59 149.85 119.85 154.25 123.94"/></g><g><line style="fill:none;stroke:#bda8c1;stroke-miterlimit:10" x1="130.03" y1="108.13" x2="130.03" y2="124.46"/><line style="fill:none;stroke:#bda9c1;stroke-miterlimit:10" x1="130.03" y1="106.72" x2="130.03" y2="123.86"/><line style="fill:none;stroke:#bea9c0;stroke-miterlimit:10" x1="130.03" y1="105.3" x2="130.03" y2="123.25"/><line style="fill:none;stroke:#bfa9bf;stroke-miterlimit:10" x1="130.03" y1="103.88" x2="130.03" y2="122.65"/><line style="fill:none;stroke:#bfa9bf;stroke-miterlimit:10" x1="130.03" y1="102.46" x2="130.03" y2="122.04"/><line style="fill:none;stroke:#c0a9be;stroke-miterlimit:10" x1="130.03" y1="101.05" x2="130.03" y2="121.44"/><line style="fill:none;stroke:#c1a9be;stroke-miterlimit:10" x1="130.03" y1="99.63" x2="130.03" y2="120.84"/><line style="fill:none;stroke:#c2a9bd;stroke-miterlimit:10" x1="130.03" y1="98.21" x2="130.03" y2="120.23"/><line style="fill:none;stroke:#c2a9bc;stroke-miterlimit:10" x1="130.03" y1="96.79" x2="130.03" y2="119.63"/><line style="fill:none;stroke:#c3a9bc;stroke-miterlimit:10" x1="130.03" y1="95.38" x2="130.03" y2="119.02"/><line style="fill:none;stroke:#c4a9bb;stroke-miterlimit:10" x1="130.03" y1="93.96" x2="130.03" y2="118.42"/><line style="fill:none;stroke:#c4a9bb;stroke-miterlimit:10" x1="130.03" y1="92.54" x2="130.03" y2="117.81"/><line style="fill:none;stroke:#c5a9ba;stroke-miterlimit:10" x1="130.03" y1="91.12" x2="130.03" y2="117.21"/><line style="fill:none;stroke:#c6a9ba;stroke-miterlimit:10" x1="130.03" y1="89.71" x2="130.03" y2="116.6"/><line style="fill:none;stroke:#c6a9b9;stroke-miterlimit:10" x1="130.03" y1="88.29" x2="130.03" y2="116"/><line style="fill:none;stroke:#c7a9b8;stroke-miterlimit:10" x1="130.03" y1="86.87" x2="130.03" y2="115.39"/><line style="fill:none;stroke:#c8a9b8;stroke-miterlimit:10" x1="130.03" y1="85.45" x2="130.03" y2="114.79"/><line style="fill:none;stroke:#c8a9b7;stroke-miterlimit:10" x1="130.03" y1="84.04" x2="130.03" y2="114.18"/><line style="fill:none;stroke:#c9a9b7;stroke-miterlimit:10" x1="130.03" y1="82.62" x2="130.03" y2="113.58"/><line style="fill:none;stroke:#caa9b6;stroke-miterlimit:10" x1="130.03" y1="81.2" x2="130.03" y2="112.97"/><line style="fill:none;stroke:#caa9b5;stroke-miterlimit:10" x1="130.03" y1="79.78" x2="130.03" y2="112.37"/><line style="fill:none;stroke:#cba9b5;stroke-miterlimit:10" x1="130.03" y1="78.37" x2="130.03" y2="111.76"/><line style="fill:none;stroke:#cca9b4;stroke-miterlimit:10" x1="130.03" y1="76.95" x2="130.03" y2="111.16"/><line style="fill:none;stroke:#cca9b4;stroke-miterlimit:10" x1="130.03" y1="75.53" x2="130.03" y2="110.55"/><line style="fill:none;stroke:#cda9b3;stroke-miterlimit:10" x1="130.03" y1="74.11" x2="130.03" y2="109.95"/><line style="fill:none;stroke:#cea9b2;stroke-miterlimit:10" x1="130.03" y1="72.7" x2="130.03" y2="109.34"/><line style="fill:none;stroke:#cea9b2;stroke-miterlimit:10" x1="130.03" y1="71.28" x2="130.03" y2="108.74"/><line style="fill:none;stroke:#cfa9b1;stroke-miterlimit:10" x1="130.03" y1="69.86" x2="130.03" y2="108.13"/></g></svg>