<svg xmlns="http://www.w3.org/2000/svg" class="prefix__svglite" viewBox="0 0 810 426"><rect width="100%" height="100%" style="stroke:none;fill:#fff;stroke-linecap:round;stroke-linejoin:round;stroke-miterlimit:10"/><defs><clipPath id="prefix__a"><rect x="0" y="0" width="810" height="426" style="fill:none;stroke:#000;stroke-linecap:round;stroke-linejoin:round;stroke-miterlimit:10"/></clipPath></defs><g clip-path="url(#prefix__a)"><rect x="0" y="0" width="810" height="426" style="stroke-width:1.07;stroke:#fff;fill:#fff;stroke-linecap:round;stroke-linejoin:round;stroke-miterlimit:10"/><rect x="93.35" y="14.17" width="702.48" height="330.93" style="stroke-width:1.07;stroke:none;fill:#fff;stroke-linecap:round;stroke-linejoin:round;stroke-miterlimit:10"/><polyline points="93.35 345.1 795.83 345.1" style="stroke-width:1.07;stroke:#c6c4c4;stroke-linecap:butt;fill:none;stroke-linejoin:round;stroke-miterlimit:10"/><polyline points="93.35 262.37 795.83 262.37" style="stroke-width:1.07;stroke:#c6c4c4;stroke-linecap:butt;fill:none;stroke-linejoin:round;stroke-miterlimit:10"/><polyline points="93.35 179.64 795.83 179.64" style="stroke-width:1.07;stroke:#c6c4c4;stroke-linecap:butt;fill:none;stroke-linejoin:round;stroke-miterlimit:10"/><polyline points="93.35 96.91 795.83 96.91" style="stroke-width:1.07;stroke:#c6c4c4;stroke-linecap:butt;fill:none;stroke-linejoin:round;stroke-miterlimit:10"/><polyline points="93.35 14.17 795.83 14.17" style="stroke-width:1.07;stroke:#c6c4c4;stroke-linecap:butt;fill:none;stroke-linejoin:round;stroke-miterlimit:10"/><polyline points="264.67 229.69 280.16 271.73 280.04 225.77 290.4 233.99 267.95 205.74 257.72 167.83 247.55 224.92 217.85 228 204.66 172.39 204.42 133.8 192.09 104.08 192.35 102.75 186.08 94.24 182.49 66.69 180.09 44.64 181.51 100.53 173.19 50.5 173.43 50.81 174.87 50.63 176.95 52.63 177.74 80.07 174.65 37.01 183.26 63.46 191.96 87.65 196.65 119.98 199.41 137.53 198.46 171.54 207.19 194.94 206.11 179.43 216.29 172.1 218.18 169.29 239.46 245.62 247.93 225.55 259.59 250.01 269.58 195.52 276.31 169.51 283.88 178.09 290.5 166.56 289.46 83.93 284.96 175.99 283.1 150.31 282.55 198.36 286.87 149.1 293.25 158.13 297.75 158.54 294.44 105.36 305.92 64.69 313.31 91.74 327.18 114.98 339.68 157.14 359.98 117.11 384.07 161.55 412.77 169.61 455.43 145.75 514.21 84.84 577.12 59.38 642.56 79.12 711.16 41.87 786.07 14.17" style="stroke-width:1.2;stroke:red;stroke-linecap:butt;fill:none;stroke-linejoin:round;stroke-miterlimit:10"/><line x1="264.67" y1="229.69" x2="334.91" y2="257.27" style="stroke-width:.53;stroke-linecap:butt;fill:none;stroke:#000;stroke-linejoin:round;stroke-miterlimit:10"/><line x1="280.16" y1="271.73" x2="322.31" y2="282.76" style="stroke-width:.53;stroke-linecap:butt;fill:none;stroke:#000;stroke-linejoin:round;stroke-miterlimit:10"/><line x1="257.72" y1="167.83" x2="257.72" y2="156.8" style="stroke-width:.53;stroke-linecap:butt;fill:none;stroke:#000;stroke-linejoin:round;stroke-miterlimit:10"/><line x1="247.55" y1="224.92" x2="247.55" y2="280.08" style="stroke-width:.53;stroke-linecap:butt;fill:none;stroke:#000;stroke-linejoin:round;stroke-miterlimit:10"/><line x1="217.85" y1="228" x2="182.73" y2="233.51" style="stroke-width:.53;stroke-linecap:butt;fill:none;stroke:#000;stroke-linejoin:round;stroke-miterlimit:10"/><line x1="204.42" y1="133.8" x2="169.3" y2="133.8" style="stroke-width:.53;stroke-linecap:butt;fill:none;stroke:#000;stroke-linejoin:round;stroke-miterlimit:10"/><line x1="181.51" y1="100.53" x2="146.38" y2="111.56" style="stroke-width:.53;stroke-linecap:butt;fill:none;stroke:#000;stroke-linejoin:round;stroke-miterlimit:10"/><line x1="174.65" y1="37.01" x2="121.96" y2="37.01" style="stroke-width:.53;stroke-linecap:butt;fill:none;stroke:#000;stroke-linejoin:round;stroke-miterlimit:10"/><line x1="216.29" y1="172.1" x2="233.85" y2="133.49" style="stroke-width:.53;stroke-linecap:butt;fill:none;stroke:#000;stroke-linejoin:round;stroke-miterlimit:10"/><line x1="239.46" y1="245.62" x2="204.34" y2="251.13" style="stroke-width:.53;stroke-linecap:butt;fill:none;stroke:#000;stroke-linejoin:round;stroke-miterlimit:10"/><line x1="305.92" y1="64.69" x2="305.92" y2="53.66" style="stroke-width:.53;stroke-linecap:butt;fill:none;stroke:#000;stroke-linejoin:round;stroke-miterlimit:10"/><line x1="339.68" y1="157.14" x2="339.68" y2="168.17" style="stroke-width:.53;stroke-linecap:butt;fill:none;stroke:#000;stroke-linejoin:round;stroke-miterlimit:10"/><line x1="359.98" y1="117.11" x2="359.98" y2="106.08" style="stroke-width:.53;stroke-linecap:butt;fill:none;stroke:#000;stroke-linejoin:round;stroke-miterlimit:10"/><line x1="412.77" y1="169.61" x2="412.77" y2="180.64" style="stroke-width:.53;stroke-linecap:butt;fill:none;stroke:#000;stroke-linejoin:round;stroke-miterlimit:10"/><line x1="455.43" y1="145.75" x2="490.55" y2="145.75" style="stroke-width:.53;stroke-linecap:butt;fill:none;stroke:#000;stroke-linejoin:round;stroke-miterlimit:10"/><line x1="514.21" y1="84.84" x2="479.08" y2="73.81" style="stroke-width:.53;stroke-linecap:butt;fill:none;stroke:#000;stroke-linejoin:round;stroke-miterlimit:10"/><line x1="577.12" y1="59.38" x2="577.12" y2="48.35" style="stroke-width:.53;stroke-linecap:butt;fill:none;stroke:#000;stroke-linejoin:round;stroke-miterlimit:10"/><line x1="642.56" y1="79.12" x2="642.56" y2="90.15" style="stroke-width:.53;stroke-linecap:butt;fill:none;stroke:#000;stroke-linejoin:round;stroke-miterlimit:10"/><line x1="711.16" y1="41.87" x2="676.04" y2="30.84" style="stroke-width:.53;stroke-linecap:butt;fill:none;stroke:#000;stroke-linejoin:round;stroke-miterlimit:10"/><line x1="786.07" y1="14.17" x2="786.07" y2="30.72" style="stroke-width:.53;stroke-linecap:butt;fill:none;stroke:#000;stroke-linejoin:round;stroke-miterlimit:10"/><polygon points="315.61 265.78 354.22 265.78 354.13 265.78 354.48 265.77 354.82 265.7 355.15 265.57 355.45 265.4 355.72 265.18 355.95 264.92 356.13 264.62 356.27 264.3 356.35 263.97 356.38 263.62 356.38 263.62 356.38 250.91 356.38 250.91 356.35 250.57 356.27 250.23 356.13 249.91 355.95 249.62 355.72 249.36 355.45 249.14 355.15 248.96 354.82 248.84 354.48 248.77 354.22 248.75 315.61 248.75 315.87 248.77 315.52 248.75 315.17 248.8 314.84 248.89 314.53 249.04 314.24 249.24 313.99 249.48 313.78 249.76 313.62 250.07 313.51 250.4 313.45 250.74 313.45 250.91 313.45 263.62 313.45 263.45 313.45 263.79 313.51 264.14 313.62 264.47 313.78 264.78 313.99 265.05 314.24 265.29 314.53 265.49 314.84 265.64 315.17 265.74 315.52 265.78" style="stroke-width:nan;stroke:none;fill:#fff;stroke-linecap:round;stroke-linejoin:round;stroke-miterlimit:10"/><text x="334.91" y="262.18" text-anchor="middle" style="font-size:14px;font-family:Asap" textLength="35.73" lengthAdjust="spacingAndGlyphs">1280s</text><polygon points="303 291.27 341.62 291.27 341.53 291.27 341.88 291.26 342.22 291.19 342.54 291.06 342.84 290.89 343.11 290.67 343.34 290.41 343.53 290.12 343.67 289.8 343.75 289.46 343.78 289.11 343.78 289.11 343.78 276.4 343.78 276.4 343.75 276.06 343.67 275.72 343.53 275.4 343.34 275.11 343.11 274.85 342.84 274.63 342.54 274.45 342.22 274.33 341.88 274.26 341.62 274.24 303 274.24 303.26 274.26 302.92 274.25 302.57 274.29 302.24 274.38 301.92 274.53 301.64 274.73 301.39 274.97 301.18 275.25 301.02 275.56 300.91 275.89 300.85 276.23 300.84 276.4 300.84 289.11 300.85 288.94 300.85 289.29 300.91 289.63 301.02 289.96 301.18 290.27 301.39 290.54 301.64 290.78 301.92 290.98 302.24 291.13 302.57 291.23 302.92 291.27" style="stroke-width:nan;stroke:none;fill:#fff;stroke-linecap:round;stroke-linejoin:round;stroke-miterlimit:10"/><text x="322.31" y="287.67" text-anchor="middle" style="font-size:14px;font-family:Asap" textLength="35.73" lengthAdjust="spacingAndGlyphs">1290s</text><polygon points="238.41 165.32 277.03 165.32 276.94 165.31 277.29 165.3 277.63 165.23 277.95 165.11 278.25 164.93 278.52 164.71 278.75 164.45 278.94 164.16 279.08 163.84 279.16 163.5 279.19 163.16 279.19 163.16 279.19 150.45 279.19 150.45 279.16 150.1 279.08 149.76 278.94 149.44 278.75 149.15 278.52 148.89 278.25 148.67 277.95 148.5 277.63 148.37 277.29 148.3 277.03 148.29 238.41 148.29 238.67 148.3 238.33 148.29 237.98 148.33 237.65 148.43 237.33 148.58 237.05 148.77 236.8 149.02 236.59 149.29 236.43 149.6 236.32 149.93 236.26 150.27 236.25 150.45 236.25 163.16 236.26 162.98 236.26 163.33 236.32 163.67 236.43 164 236.59 164.31 236.8 164.59 237.05 164.83 237.33 165.03 237.65 165.18 237.98 165.27 238.33 165.31" style="stroke-width:nan;stroke:none;fill:#fff;stroke-linecap:round;stroke-linejoin:round;stroke-miterlimit:10"/><text x="257.72" y="161.72" text-anchor="middle" style="font-size:14px;font-family:Asap" textLength="35.73" lengthAdjust="spacingAndGlyphs">1330s</text><polygon points="228.24 288.59 266.85 288.59 266.77 288.59 267.11 288.57 267.45 288.51 267.78 288.38 268.08 288.21 268.35 287.99 268.58 287.73 268.77 287.43 268.9 287.11 268.99 286.78 269.01 286.43 269.01 286.43 269.01 273.72 269.01 273.72 268.99 273.38 268.9 273.04 268.77 272.72 268.58 272.43 268.35 272.16 268.08 271.95 267.78 271.77 267.45 271.65 267.11 271.58 266.85 271.56 228.24 271.56 228.5 271.58 228.15 271.56 227.81 271.61 227.47 271.7 227.16 271.85 226.87 272.05 226.62 272.29 226.41 272.57 226.25 272.88 226.14 273.21 226.09 273.55 226.08 273.72 226.08 286.43 226.09 286.26 226.09 286.6 226.14 286.95 226.25 287.28 226.41 287.59 226.62 287.86 226.87 288.1 227.16 288.3 227.47 288.45 227.81 288.55 228.15 288.59" style="stroke-width:nan;stroke:none;fill:#fff;stroke-linecap:round;stroke-linejoin:round;stroke-miterlimit:10"/><text x="247.55" y="284.99" text-anchor="middle" style="font-size:14px;font-family:Asap" textLength="35.73" lengthAdjust="spacingAndGlyphs">1340s</text><polygon points="163.42 242.02 202.04 242.02 201.95 242.02 202.3 242.01 202.64 241.94 202.96 241.82 203.26 241.64 203.53 241.42 203.76 241.16 203.95 240.87 204.08 240.55 204.17 240.21 204.2 239.86 204.2 239.86 204.2 227.16 204.2 227.16 204.17 226.81 204.08 226.47 203.95 226.15 203.76 225.86 203.53 225.6 203.26 225.38 202.96 225.21 202.64 225.08 202.3 225.01 202.04 225 163.42 225 163.68 225.01 163.34 225 162.99 225.04 162.66 225.14 162.34 225.29 162.06 225.48 161.81 225.72 161.6 226 161.44 226.31 161.33 226.64 161.27 226.98 161.26 227.16 161.26 239.86 161.27 239.69 161.27 240.04 161.33 240.38 161.44 240.71 161.6 241.02 161.81 241.3 162.06 241.54 162.34 241.74 162.66 241.88 162.99 241.98 163.34 242.02" style="stroke-width:nan;stroke:none;fill:#fff;stroke-linecap:round;stroke-linejoin:round;stroke-miterlimit:10"/><text x="182.73" y="238.42" text-anchor="middle" style="font-size:14px;font-family:Asap" textLength="35.73" lengthAdjust="spacingAndGlyphs">1350s</text><polygon points="149.99 142.32 188.6 142.32 188.52 142.31 188.86 142.3 189.2 142.23 189.53 142.11 189.83 141.93 190.1 141.71 190.33 141.45 190.52 141.16 190.65 140.84 190.74 140.5 190.76 140.16 190.76 140.16 190.76 127.45 190.76 127.45 190.74 127.1 190.65 126.76 190.52 126.44 190.33 126.15 190.1 125.89 189.83 125.67 189.53 125.5 189.2 125.37 188.86 125.3 188.6 125.29 149.99 125.29 150.25 125.3 149.9 125.29 149.56 125.33 149.22 125.43 148.91 125.58 148.62 125.77 148.37 126.02 148.16 126.29 148 126.6 147.89 126.93 147.84 127.27 147.83 127.45 147.83 140.16 147.84 139.98 147.84 140.33 147.89 140.67 148 141 148.16 141.31 148.37 141.59 148.62 141.83 148.91 142.03 149.22 142.18 149.56 142.27 149.9 142.31" style="stroke-width:nan;stroke:none;fill:#fff;stroke-linecap:round;stroke-linejoin:round;stroke-miterlimit:10"/><text x="169.3" y="138.72" text-anchor="middle" style="font-size:14px;font-family:Asap" textLength="35.73" lengthAdjust="spacingAndGlyphs">1370s</text><polygon points="127.07 120.08 165.69 120.08 165.6 120.08 165.95 120.06 166.29 119.99 166.61 119.87 166.92 119.7 167.18 119.48 167.41 119.22 167.6 118.92 167.74 118.6 167.82 118.26 167.85 117.92 167.85 117.92 167.85 105.21 167.85 105.21 167.82 104.86 167.74 104.53 167.6 104.21 167.41 103.91 167.18 103.65 166.92 103.43 166.61 103.26 166.29 103.13 165.95 103.07 165.69 103.05 127.07 103.05 127.33 103.07 126.99 103.05 126.64 103.09 126.31 103.19 125.99 103.34 125.71 103.54 125.46 103.78 125.25 104.06 125.09 104.36 124.98 104.69 124.92 105.04 124.91 105.21 124.91 117.92 124.92 117.74 124.92 118.09 124.98 118.43 125.09 118.76 125.25 119.07 125.46 119.35 125.71 119.59 125.99 119.79 126.31 119.94 126.64 120.03 126.99 120.08" style="stroke-width:nan;stroke:none;fill:#fff;stroke-linecap:round;stroke-linejoin:round;stroke-miterlimit:10"/><text x="146.38" y="116.48" text-anchor="middle" style="font-size:14px;font-family:Asap" textLength="35.73" lengthAdjust="spacingAndGlyphs">1430s</text><polygon points="102.66 45.53 141.27 45.53 141.18 45.53 141.53 45.51 141.87 45.44 142.2 45.32 142.5 45.15 142.77 44.93 143 44.67 143.18 44.37 143.32 44.05 143.4 43.71 143.43 43.37 143.43 43.37 143.43 30.66 143.43 30.66 143.4 30.31 143.32 29.98 143.18 29.66 143 29.36 142.77 29.1 142.5 28.88 142.2 28.71 141.87 28.58 141.53 28.52 141.27 28.5 102.66 28.5 102.92 28.52 102.57 28.5 102.22 28.54 101.89 28.64 101.58 28.79 101.29 28.99 101.04 29.23 100.83 29.51 100.67 29.81 100.56 30.14 100.5 30.49 100.5 30.66 100.5 43.37 100.5 43.19 100.5 43.54 100.56 43.88 100.67 44.21 100.83 44.52 101.04 44.8 101.29 45.04 101.58 45.24 101.89 45.39 102.22 45.48 102.57 45.53" style="stroke-width:nan;stroke:none;fill:#fff;stroke-linecap:round;stroke-linejoin:round;stroke-miterlimit:10"/><text x="121.96" y="41.93" text-anchor="middle" style="font-size:14px;font-family:Asap" textLength="35.73" lengthAdjust="spacingAndGlyphs">1490s</text><polygon points="214.54 142.01 253.16 142.01 253.07 142.01 253.42 141.99 253.76 141.92 254.08 141.8 254.38 141.62 254.65 141.41 254.88 141.14 255.07 140.85 255.2 140.53 255.29 140.19 255.32 139.85 255.32 139.85 255.32 127.14 255.32 127.14 255.29 126.79 255.2 126.46 255.07 126.14 254.88 125.84 254.65 125.58 254.38 125.36 254.08 125.19 253.76 125.06 253.42 124.99 253.16 124.98 214.54 124.98 214.8 124.99 214.45 124.98 214.11 125.02 213.78 125.12 213.46 125.27 213.18 125.47 212.92 125.71 212.72 125.98 212.55 126.29 212.44 126.62 212.39 126.97 212.38 127.14 212.38 139.85 212.39 139.67 212.39 140.02 212.44 140.36 212.55 140.69 212.72 141 212.92 141.28 213.18 141.52 213.46 141.72 213.78 141.87 214.11 141.96 214.45 142.01" style="stroke-width:nan;stroke:none;fill:#fff;stroke-linecap:round;stroke-linejoin:round;stroke-miterlimit:10"/><text x="233.85" y="138.41" text-anchor="middle" style="font-size:14px;font-family:Asap" textLength="35.73" lengthAdjust="spacingAndGlyphs">1570s</text><polygon points="185.03 259.65 223.65 259.65 223.56 259.65 223.91 259.63 224.25 259.56 224.57 259.44 224.87 259.27 225.14 259.05 225.37 258.79 225.56 258.49 225.7 258.17 225.78 257.83 225.81 257.49 225.81 257.49 225.81 244.78 225.81 244.78 225.78 244.43 225.7 244.1 225.56 243.78 225.37 243.48 225.14 243.22 224.87 243 224.57 242.83 224.25 242.7 223.91 242.64 223.65 242.62 185.03 242.62 185.29 242.64 184.95 242.62 184.6 242.66 184.27 242.76 183.95 242.91 183.67 243.11 183.42 243.35 183.21 243.63 183.05 243.93 182.94 244.26 182.88 244.61 182.87 244.78 182.87 257.49 182.88 257.31 182.88 257.66 182.94 258 183.05 258.33 183.21 258.64 183.42 258.92 183.67 259.16 183.95 259.36 184.27 259.51 184.6 259.6 184.95 259.65" style="stroke-width:nan;stroke:none;fill:#fff;stroke-linecap:round;stroke-linejoin:round;stroke-miterlimit:10"/><text x="204.34" y="256.05" text-anchor="middle" style="font-size:14px;font-family:Asap" textLength="35.73" lengthAdjust="spacingAndGlyphs">1590s</text><polygon points="286.61 62.17 325.23 62.17 325.14 62.17 325.49 62.16 325.83 62.09 326.15 61.96 326.45 61.79 326.72 61.57 326.95 61.31 327.14 61.02 327.28 60.7 327.36 60.36 327.39 60.01 327.39 60.01 327.39 47.3 327.39 47.3 327.36 46.96 327.28 46.62 327.14 46.3 326.95 46.01 326.72 45.75 326.45 45.53 326.15 45.35 325.83 45.23 325.49 45.16 325.23 45.14 286.61 45.14 286.87 45.16 286.53 45.15 286.18 45.19 285.85 45.28 285.53 45.43 285.25 45.63 285 45.87 284.79 46.15 284.63 46.46 284.52 46.79 284.46 47.13 284.45 47.3 284.45 60.01 284.46 59.84 284.46 60.19 284.52 60.53 284.63 60.86 284.79 61.17 285 61.44 285.25 61.69 285.53 61.88 285.85 62.03 286.18 62.13 286.53 62.17" style="stroke-width:nan;stroke:none;fill:#fff;stroke-linecap:round;stroke-linejoin:round;stroke-miterlimit:10"/><text x="305.92" y="58.57" text-anchor="middle" style="font-size:14px;font-family:Asap" textLength="35.73" lengthAdjust="spacingAndGlyphs">1740s</text><polygon points="320.37 176.68 358.99 176.68 358.9 176.68 359.25 176.67 359.59 176.6 359.91 176.47 360.21 176.3 360.48 176.08 360.71 175.82 360.9 175.53 361.04 175.21 361.12 174.87 361.15 174.52 361.15 174.52 361.15 161.81 361.15 161.81 361.12 161.47 361.04 161.13 360.9 160.81 360.71 160.52 360.48 160.26 360.21 160.04 359.91 159.86 359.59 159.74 359.25 159.67 358.99 159.65 320.37 159.65 320.63 159.67 320.29 159.66 319.94 159.7 319.61 159.79 319.29 159.94 319.01 160.14 318.76 160.38 318.55 160.66 318.39 160.97 318.28 161.3 318.22 161.64 318.21 161.81 318.21 174.52 318.22 174.35 318.22 174.7 318.28 175.04 318.39 175.37 318.55 175.68 318.76 175.95 319.01 176.19 319.29 176.39 319.61 176.54 319.94 176.64 320.29 176.68" style="stroke-width:nan;stroke:none;fill:#fff;stroke-linecap:round;stroke-linejoin:round;stroke-miterlimit:10"/><text x="339.68" y="173.08" text-anchor="middle" style="font-size:14px;font-family:Asap" textLength="35.73" lengthAdjust="spacingAndGlyphs">1770s</text><polygon points="340.67 114.59 379.28 114.59 379.2 114.59 379.54 114.57 379.88 114.5 380.21 114.38 380.51 114.21 380.78 113.99 381.01 113.73 381.19 113.43 381.33 113.11 381.41 112.78 381.44 112.43 381.44 112.43 381.44 99.72 381.44 99.72 381.41 99.38 381.33 99.04 381.19 98.72 381.01 98.42 380.78 98.16 380.51 97.94 380.21 97.77 379.88 97.65 379.54 97.58 379.28 97.56 340.67 97.56 340.93 97.58 340.58 97.56 340.24 97.61 339.9 97.7 339.59 97.85 339.3 98.05 339.05 98.29 338.84 98.57 338.68 98.88 338.57 99.21 338.52 99.55 338.51 99.72 338.51 112.43 338.52 112.26 338.52 112.6 338.57 112.95 338.68 113.28 338.84 113.58 339.05 113.86 339.3 114.1 339.59 114.3 339.9 114.45 340.24 114.55 340.58 114.59" style="stroke-width:nan;stroke:none;fill:#fff;stroke-linecap:round;stroke-linejoin:round;stroke-miterlimit:10"/><text x="359.98" y="110.99" text-anchor="middle" style="font-size:14px;font-family:Asap" textLength="35.73" lengthAdjust="spacingAndGlyphs">1780s</text><polygon points="393.47 189.16 432.08 189.16 431.99 189.15 432.34 189.14 432.68 189.07 433 188.95 433.31 188.77 433.58 188.55 433.81 188.29 433.99 188 434.13 187.68 434.21 187.34 434.24 187 434.24 187 434.24 174.29 434.24 174.29 434.21 173.94 434.13 173.6 433.99 173.28 433.81 172.99 433.58 172.73 433.31 172.51 433 172.34 432.68 172.21 432.34 172.14 432.08 172.13 393.47 172.13 393.73 172.14 393.38 172.13 393.03 172.17 392.7 172.27 392.39 172.42 392.1 172.61 391.85 172.85 391.64 173.13 391.48 173.44 391.37 173.77 391.31 174.11 391.31 174.29 391.31 187 391.31 186.82 391.31 187.17 391.37 187.51 391.48 187.84 391.64 188.15 391.85 188.43 392.1 188.67 392.39 188.87 392.7 189.01 393.03 189.11 393.38 189.15" style="stroke-width:nan;stroke:none;fill:#fff;stroke-linecap:round;stroke-linejoin:round;stroke-miterlimit:10"/><text x="412.77" y="185.56" text-anchor="middle" style="font-size:14px;font-family:Asap" textLength="35.73" lengthAdjust="spacingAndGlyphs">1800s</text><polygon points="471.24 154.26 509.86 154.26 509.77 154.26 510.12 154.25 510.46 154.18 510.78 154.05 511.08 153.88 511.35 153.66 511.58 153.4 511.77 153.1 511.91 152.78 511.99 152.45 512.02 152.1 512.02 152.1 512.02 139.39 512.02 139.39 511.99 139.05 511.91 138.71 511.77 138.39 511.58 138.1 511.35 137.84 511.08 137.62 510.78 137.44 510.46 137.32 510.12 137.25 509.86 137.23 471.24 137.23 471.5 137.25 471.16 137.23 470.81 137.28 470.48 137.37 470.16 137.52 469.88 137.72 469.63 137.96 469.42 138.24 469.26 138.55 469.15 138.88 469.09 139.22 469.08 139.39 469.08 152.1 469.09 151.93 469.09 152.27 469.15 152.62 469.26 152.95 469.42 153.26 469.63 153.53 469.88 153.77 470.16 153.97 470.48 154.12 470.81 154.22 471.16 154.26" style="stroke-width:nan;stroke:none;fill:#fff;stroke-linecap:round;stroke-linejoin:round;stroke-miterlimit:10"/><text x="490.55" y="150.66" text-anchor="middle" style="font-size:14px;font-family:Asap" textLength="35.73" lengthAdjust="spacingAndGlyphs">1810s</text><polygon points="459.78 82.33 498.39 82.33 498.3 82.32 498.65 82.31 498.99 82.24 499.32 82.12 499.62 81.94 499.89 81.72 500.12 81.46 500.3 81.17 500.44 80.85 500.52 80.51 500.55 80.17 500.55 80.17 500.55 67.46 500.55 67.46 500.52 67.11 500.44 66.77 500.3 66.45 500.12 66.16 499.89 65.9 499.62 65.68 499.32 65.51 498.99 65.38 498.65 65.31 498.39 65.3 459.78 65.3 460.04 65.31 459.69 65.3 459.34 65.34 459.01 65.44 458.7 65.59 458.41 65.78 458.16 66.02 457.95 66.3 457.79 66.61 457.68 66.94 457.62 67.28 457.62 67.46 457.62 80.17 457.62 79.99 457.62 80.34 457.68 80.68 457.79 81.01 457.95 81.32 458.16 81.6 458.41 81.84 458.7 82.04 459.01 82.18 459.34 82.28 459.69 82.32" style="stroke-width:nan;stroke:none;fill:#fff;stroke-linecap:round;stroke-linejoin:round;stroke-miterlimit:10"/><text x="479.08" y="78.73" text-anchor="middle" style="font-size:14px;font-family:Asap" textLength="35.73" lengthAdjust="spacingAndGlyphs">1820s</text><polygon points="557.81 56.86 596.42 56.86 596.34 56.86 596.68 56.84 597.02 56.78 597.35 56.65 597.65 56.48 597.92 56.26 598.15 56 598.34 55.7 598.47 55.38 598.56 55.05 598.58 54.7 598.58 54.7 598.58 41.99 598.58 41.99 598.56 41.65 598.47 41.31 598.34 40.99 598.15 40.69 597.92 40.43 597.65 40.21 597.35 40.04 597.02 39.92 596.68 39.85 596.42 39.83 557.81 39.83 558.07 39.85 557.72 39.83 557.38 39.88 557.04 39.97 556.73 40.12 556.44 40.32 556.19 40.56 555.98 40.84 555.82 41.15 555.71 41.48 555.66 41.82 555.65 41.99 555.65 54.7 555.66 54.53 555.66 54.87 555.71 55.22 555.82 55.55 555.98 55.85 556.19 56.13 556.44 56.37 556.73 56.57 557.04 56.72 557.38 56.82 557.72 56.86" style="stroke-width:nan;stroke:none;fill:#fff;stroke-linecap:round;stroke-linejoin:round;stroke-miterlimit:10"/><text x="577.12" y="53.26" text-anchor="middle" style="font-size:14px;font-family:Asap" textLength="35.73" lengthAdjust="spacingAndGlyphs">1830s</text><polygon points="623.26 98.66 661.87 98.66 661.78 98.66 662.13 98.65 662.47 98.58 662.8 98.45 663.1 98.28 663.37 98.06 663.6 97.8 663.78 97.51 663.92 97.19 664 96.85 664.03 96.5 664.03 96.5 664.03 83.79 664.03 83.79 664 83.45 663.92 83.11 663.78 82.79 663.6 82.5 663.37 82.24 663.1 82.02 662.8 81.84 662.47 81.72 662.13 81.65 661.87 81.63 623.26 81.63 623.52 81.65 623.17 81.64 622.82 81.68 622.49 81.77 622.18 81.92 621.89 82.12 621.64 82.36 621.43 82.64 621.27 82.95 621.16 83.28 621.1 83.62 621.1 83.79 621.1 96.5 621.1 96.33 621.1 96.68 621.16 97.02 621.27 97.35 621.43 97.66 621.64 97.93 621.89 98.17 622.18 98.37 622.49 98.52 622.82 98.62 623.17 98.66" style="stroke-width:nan;stroke:none;fill:#fff;stroke-linecap:round;stroke-linejoin:round;stroke-miterlimit:10"/><text x="642.56" y="95.06" text-anchor="middle" style="font-size:14px;font-family:Asap" textLength="35.73" lengthAdjust="spacingAndGlyphs">1840s</text><polygon points="656.73 39.36 695.35 39.36 695.26 39.35 695.61 39.34 695.95 39.27 696.27 39.15 696.57 38.97 696.84 38.75 697.07 38.49 697.26 38.2 697.4 37.88 697.48 37.54 697.51 37.2 697.51 37.2 697.51 24.49 697.51 24.49 697.48 24.14 697.4 23.8 697.26 23.48 697.07 23.19 696.84 22.93 696.57 22.71 696.27 22.54 695.95 22.41 695.61 22.34 695.35 22.33 656.73 22.33 656.99 22.34 656.65 22.33 656.3 22.37 655.97 22.47 655.65 22.62 655.37 22.81 655.12 23.06 654.91 23.33 654.75 23.64 654.64 23.97 654.58 24.31 654.57 24.49 654.57 37.2 654.58 37.02 654.58 37.37 654.64 37.71 654.75 38.04 654.91 38.35 655.12 38.63 655.37 38.87 655.65 39.07 655.97 39.22 656.3 39.31 656.65 39.35" style="stroke-width:nan;stroke:none;fill:#fff;stroke-linecap:round;stroke-linejoin:round;stroke-miterlimit:10"/><text x="676.04" y="35.76" text-anchor="middle" style="font-size:14px;font-family:Asap" textLength="35.73" lengthAdjust="spacingAndGlyphs">1850s</text><polygon points="766.76 39.23 805.38 39.23 805.29 39.23 805.64 39.22 805.98 39.15 806.3 39.03 806.6 38.85 806.87 38.63 807.1 38.37 807.29 38.08 807.43 37.76 807.51 37.42 807.54 37.07 807.54 37.07 807.54 24.37 807.54 24.37 807.51 24.02 807.43 23.68 807.29 23.36 807.1 23.07 806.87 22.81 806.6 22.59 806.3 22.41 805.98 22.29 805.64 22.22 805.38 22.21 766.76 22.21 767.02 22.22 766.68 22.21 766.33 22.25 766 22.35 765.68 22.49 765.4 22.69 765.15 22.93 764.94 23.21 764.78 23.52 764.67 23.85 764.61 24.19 764.6 24.37 764.6 37.07 764.61 36.9 764.61 37.25 764.67 37.59 764.78 37.92 764.94 38.23 765.15 38.51 765.4 38.75 765.68 38.94 766 39.09 766.33 39.19 766.68 39.23" style="stroke-width:nan;stroke:none;fill:#fff;stroke-linecap:round;stroke-linejoin:round;stroke-miterlimit:10"/><text x="786.07" y="35.63" text-anchor="middle" style="font-size:14px;font-family:Asap" textLength="35.73" lengthAdjust="spacingAndGlyphs">1860s</text><circle cx="264.67" cy="229.69" r="2.2" style="stroke-width:1.2;stroke:#ed1f24;fill:#ed1f24;stroke-linecap:round;stroke-linejoin:round;stroke-miterlimit:10"/><circle cx="280.16" cy="271.73" r="2.2" style="stroke-width:1.2;stroke:#ed1f24;fill:#ed1f24;stroke-linecap:round;stroke-linejoin:round;stroke-miterlimit:10"/><circle cx="280.04" cy="225.77" r="2.2" style="stroke-width:1.2;stroke:#ed1f24;fill:#ed1f24;stroke-linecap:round;stroke-linejoin:round;stroke-miterlimit:10"/><circle cx="290.4" cy="233.99" r="2.2" style="stroke-width:1.2;stroke:#ed1f24;fill:#ed1f24;stroke-linecap:round;stroke-linejoin:round;stroke-miterlimit:10"/><circle cx="267.95" cy="205.74" r="2.2" style="stroke-width:1.2;stroke:#ed1f24;fill:#ed1f24;stroke-linecap:round;stroke-linejoin:round;stroke-miterlimit:10"/><circle cx="257.72" cy="167.83" r="2.2" style="stroke-width:1.2;stroke:#ed1f24;fill:#ed1f24;stroke-linecap:round;stroke-linejoin:round;stroke-miterlimit:10"/><circle cx="247.55" cy="224.92" r="2.2" style="stroke-width:1.2;stroke:#ed1f24;fill:#ed1f24;stroke-linecap:round;stroke-linejoin:round;stroke-miterlimit:10"/><circle cx="217.85" cy="228" r="2.2" style="stroke-width:1.2;stroke:#ed1f24;fill:#ed1f24;stroke-linecap:round;stroke-linejoin:round;stroke-miterlimit:10"/><circle cx="204.66" cy="172.39" r="2.2" style="stroke-width:1.2;stroke:#ed1f24;fill:#ed1f24;stroke-linecap:round;stroke-linejoin:round;stroke-miterlimit:10"/><circle cx="204.42" cy="133.8" r="2.2" style="stroke-width:1.2;stroke:#ed1f24;fill:#ed1f24;stroke-linecap:round;stroke-linejoin:round;stroke-miterlimit:10"/><circle cx="192.09" cy="104.08" r="2.2" style="stroke-width:1.2;stroke:#ed1f24;fill:#ed1f24;stroke-linecap:round;stroke-linejoin:round;stroke-miterlimit:10"/><circle cx="192.35" cy="102.75" r="2.2" style="stroke-width:1.2;stroke:#ed1f24;fill:#ed1f24;stroke-linecap:round;stroke-linejoin:round;stroke-miterlimit:10"/><circle cx="186.08" cy="94.24" r="2.2" style="stroke-width:1.2;stroke:#ed1f24;fill:#ed1f24;stroke-linecap:round;stroke-linejoin:round;stroke-miterlimit:10"/><circle cx="182.49" cy="66.69" r="2.2" style="stroke-width:1.2;stroke:#ed1f24;fill:#ed1f24;stroke-linecap:round;stroke-linejoin:round;stroke-miterlimit:10"/><circle cx="180.09" cy="44.64" r="2.2" style="stroke-width:1.2;stroke:#ed1f24;fill:#ed1f24;stroke-linecap:round;stroke-linejoin:round;stroke-miterlimit:10"/><circle cx="181.51" cy="100.53" r="2.2" style="stroke-width:1.2;stroke:#ed1f24;fill:#ed1f24;stroke-linecap:round;stroke-linejoin:round;stroke-miterlimit:10"/><circle cx="173.19" cy="50.5" r="2.2" style="stroke-width:1.2;stroke:#ed1f24;fill:#ed1f24;stroke-linecap:round;stroke-linejoin:round;stroke-miterlimit:10"/><circle cx="173.43" cy="50.81" r="2.2" style="stroke-width:1.2;stroke:#ed1f24;fill:#ed1f24;stroke-linecap:round;stroke-linejoin:round;stroke-miterlimit:10"/><circle cx="174.87" cy="50.63" r="2.2" style="stroke-width:1.2;stroke:#ed1f24;fill:#ed1f24;stroke-linecap:round;stroke-linejoin:round;stroke-miterlimit:10"/><circle cx="176.95" cy="52.63" r="2.2" style="stroke-width:1.2;stroke:#ed1f24;fill:#ed1f24;stroke-linecap:round;stroke-linejoin:round;stroke-miterlimit:10"/><circle cx="177.74" cy="80.07" r="2.2" style="stroke-width:1.2;stroke:#ed1f24;fill:#ed1f24;stroke-linecap:round;stroke-linejoin:round;stroke-miterlimit:10"/><circle cx="174.65" cy="37.01" r="2.2" style="stroke-width:1.2;stroke:#ed1f24;fill:#ed1f24;stroke-linecap:round;stroke-linejoin:round;stroke-miterlimit:10"/><circle cx="183.26" cy="63.46" r="2.2" style="stroke-width:1.2;stroke:#ed1f24;fill:#ed1f24;stroke-linecap:round;stroke-linejoin:round;stroke-miterlimit:10"/><circle cx="191.96" cy="87.65" r="2.2" style="stroke-width:1.2;stroke:#ed1f24;fill:#ed1f24;stroke-linecap:round;stroke-linejoin:round;stroke-miterlimit:10"/><circle cx="196.65" cy="119.98" r="2.2" style="stroke-width:1.2;stroke:#ed1f24;fill:#ed1f24;stroke-linecap:round;stroke-linejoin:round;stroke-miterlimit:10"/><circle cx="199.41" cy="137.53" r="2.2" style="stroke-width:1.2;stroke:#ed1f24;fill:#ed1f24;stroke-linecap:round;stroke-linejoin:round;stroke-miterlimit:10"/><circle cx="198.46" cy="171.54" r="2.2" style="stroke-width:1.2;stroke:#ed1f24;fill:#ed1f24;stroke-linecap:round;stroke-linejoin:round;stroke-miterlimit:10"/><circle cx="207.19" cy="194.94" r="2.2" style="stroke-width:1.2;stroke:#ed1f24;fill:#ed1f24;stroke-linecap:round;stroke-linejoin:round;stroke-miterlimit:10"/><circle cx="206.11" cy="179.43" r="2.2" style="stroke-width:1.2;stroke:#ed1f24;fill:#ed1f24;stroke-linecap:round;stroke-linejoin:round;stroke-miterlimit:10"/><circle cx="216.29" cy="172.1" r="2.2" style="stroke-width:1.2;stroke:#ed1f24;fill:#ed1f24;stroke-linecap:round;stroke-linejoin:round;stroke-miterlimit:10"/><circle cx="218.18" cy="169.29" r="2.2" style="stroke-width:1.2;stroke:#ed1f24;fill:#ed1f24;stroke-linecap:round;stroke-linejoin:round;stroke-miterlimit:10"/><circle cx="239.46" cy="245.62" r="2.2" style="stroke-width:1.2;stroke:#ed1f24;fill:#ed1f24;stroke-linecap:round;stroke-linejoin:round;stroke-miterlimit:10"/><circle cx="247.93" cy="225.55" r="2.2" style="stroke-width:1.2;stroke:#ed1f24;fill:#ed1f24;stroke-linecap:round;stroke-linejoin:round;stroke-miterlimit:10"/><circle cx="259.59" cy="250.01" r="2.2" style="stroke-width:1.2;stroke:#ed1f24;fill:#ed1f24;stroke-linecap:round;stroke-linejoin:round;stroke-miterlimit:10"/><circle cx="269.58" cy="195.52" r="2.2" style="stroke-width:1.2;stroke:#ed1f24;fill:#ed1f24;stroke-linecap:round;stroke-linejoin:round;stroke-miterlimit:10"/><circle cx="276.31" cy="169.51" r="2.2" style="stroke-width:1.2;stroke:#ed1f24;fill:#ed1f24;stroke-linecap:round;stroke-linejoin:round;stroke-miterlimit:10"/><circle cx="283.88" cy="178.09" r="2.2" style="stroke-width:1.2;stroke:#ed1f24;fill:#ed1f24;stroke-linecap:round;stroke-linejoin:round;stroke-miterlimit:10"/><circle cx="290.5" cy="166.56" r="2.2" style="stroke-width:1.2;stroke:#ed1f24;fill:#ed1f24;stroke-linecap:round;stroke-linejoin:round;stroke-miterlimit:10"/><circle cx="289.46" cy="83.93" r="2.2" style="stroke-width:1.2;stroke:#ed1f24;fill:#ed1f24;stroke-linecap:round;stroke-linejoin:round;stroke-miterlimit:10"/><circle cx="284.96" cy="175.99" r="2.2" style="stroke-width:1.2;stroke:#ed1f24;fill:#ed1f24;stroke-linecap:round;stroke-linejoin:round;stroke-miterlimit:10"/><circle cx="283.1" cy="150.31" r="2.2" style="stroke-width:1.2;stroke:#ed1f24;fill:#ed1f24;stroke-linecap:round;stroke-linejoin:round;stroke-miterlimit:10"/><circle cx="282.55" cy="198.36" r="2.2" style="stroke-width:1.2;stroke:#ed1f24;fill:#ed1f24;stroke-linecap:round;stroke-linejoin:round;stroke-miterlimit:10"/><circle cx="286.87" cy="149.1" r="2.2" style="stroke-width:1.2;stroke:#ed1f24;fill:#ed1f24;stroke-linecap:round;stroke-linejoin:round;stroke-miterlimit:10"/><circle cx="293.25" cy="158.13" r="2.2" style="stroke-width:1.2;stroke:#ed1f24;fill:#ed1f24;stroke-linecap:round;stroke-linejoin:round;stroke-miterlimit:10"/><circle cx="297.75" cy="158.54" r="2.2" style="stroke-width:1.2;stroke:#ed1f24;fill:#ed1f24;stroke-linecap:round;stroke-linejoin:round;stroke-miterlimit:10"/><circle cx="294.44" cy="105.36" r="2.2" style="stroke-width:1.2;stroke:#ed1f24;fill:#ed1f24;stroke-linecap:round;stroke-linejoin:round;stroke-miterlimit:10"/><circle cx="305.92" cy="64.69" r="2.2" style="stroke-width:1.2;stroke:#ed1f24;fill:#ed1f24;stroke-linecap:round;stroke-linejoin:round;stroke-miterlimit:10"/><circle cx="313.31" cy="91.74" r="2.2" style="stroke-width:1.2;stroke:#ed1f24;fill:#ed1f24;stroke-linecap:round;stroke-linejoin:round;stroke-miterlimit:10"/><circle cx="327.18" cy="114.98" r="2.2" style="stroke-width:1.2;stroke:#ed1f24;fill:#ed1f24;stroke-linecap:round;stroke-linejoin:round;stroke-miterlimit:10"/><circle cx="339.68" cy="157.14" r="2.2" style="stroke-width:1.2;stroke:#ed1f24;fill:#ed1f24;stroke-linecap:round;stroke-linejoin:round;stroke-miterlimit:10"/><circle cx="359.98" cy="117.11" r="2.2" style="stroke-width:1.2;stroke:#ed1f24;fill:#ed1f24;stroke-linecap:round;stroke-linejoin:round;stroke-miterlimit:10"/><circle cx="384.07" cy="161.55" r="2.2" style="stroke-width:1.2;stroke:#ed1f24;fill:#ed1f24;stroke-linecap:round;stroke-linejoin:round;stroke-miterlimit:10"/><circle cx="412.77" cy="169.61" r="2.2" style="stroke-width:1.2;stroke:#ed1f24;fill:#ed1f24;stroke-linecap:round;stroke-linejoin:round;stroke-miterlimit:10"/><circle cx="455.43" cy="145.75" r="2.2" style="stroke-width:1.2;stroke:#ed1f24;fill:#ed1f24;stroke-linecap:round;stroke-linejoin:round;stroke-miterlimit:10"/><circle cx="514.21" cy="84.84" r="2.2" style="stroke-width:1.2;stroke:#ed1f24;fill:#ed1f24;stroke-linecap:round;stroke-linejoin:round;stroke-miterlimit:10"/><circle cx="577.12" cy="59.38" r="2.2" style="stroke-width:1.2;stroke:#ed1f24;fill:#ed1f24;stroke-linecap:round;stroke-linejoin:round;stroke-miterlimit:10"/><circle cx="642.56" cy="79.12" r="2.2" style="stroke-width:1.2;stroke:#ed1f24;fill:#ed1f24;stroke-linecap:round;stroke-linejoin:round;stroke-miterlimit:10"/><circle cx="711.16" cy="41.87" r="2.2" style="stroke-width:1.2;stroke:#ed1f24;fill:#ed1f24;stroke-linecap:round;stroke-linejoin:round;stroke-miterlimit:10"/><circle cx="786.07" cy="14.17" r="2.2" style="stroke-width:1.2;stroke:#ed1f24;fill:#ed1f24;stroke-linecap:round;stroke-linejoin:round;stroke-miterlimit:10"/><polyline points="139.01 15.33 142.52 21.44 146.03 27.54 149.55 33.65 153.06 39.75 156.57 45.86 160.08 51.96 163.6 58.07 167.11 64.17 170.62 70.28 174.13 76.38 177.65 82.49 181.16 88.59 184.67 94.7 188.18 100.8 191.7 106.91 195.21 113.01 198.72 119.11 202.23 125.22 205.74 131.32 209.26 137.43 212.77 143.53 216.28 149.64 219.79 155.74 223.31 161.85 226.82 167.95 230.33 174.06 233.84 180.16 237.36 186.27 240.87 192.37 244.38 198.48 247.89 204.58 251.41 210.69 254.92 216.79 258.43 222.89 261.94 229 265.46 235.1 268.97 241.21 272.48 247.31 275.99 253.42 279.5 259.52 283.02 265.63 286.53 271.73 290.04 277.84 293.55 283.94 297.07 290.05 300.58 296.15 304.09 302.26" style="stroke-width:1.2;stroke:#3a53a4;stroke-dasharray:3.2,3.2;stroke-linecap:butt;fill:none;stroke-linejoin:round;stroke-miterlimit:10"/><polyline points="268.97 118.38 272.48 119.03 275.99 119.68 279.5 120.33 283.02 120.97 286.53 121.62 290.04 122.27 293.55 122.91 297.07 123.56 300.58 124.21 304.09 124.86 307.6 125.5 311.12 126.15 314.63 126.8 318.14 127.45 321.65 128.09 325.17 128.74 328.68 129.39 332.19 130.03 335.7 130.68 339.22 131.33 342.73 131.98 346.24 132.62 349.75 133.27 353.27 133.92 356.78 134.57 360.29 135.21 363.8 135.86 367.31 136.51 370.83 137.15 374.34 137.8 377.85 138.45 381.36 139.1 384.88 139.74 388.39 140.39 391.9 141.04 395.41 141.69 398.93 142.33 402.44 142.98 405.95 143.63 409.46 144.27 412.98 144.92 416.49 145.57 420 146.22 423.51 146.86 427.03 147.51 430.54 148.16 434.05 148.81 437.56 149.45 441.08 150.1 444.59 150.75 448.1 151.39 451.61 152.04 455.12 152.69 458.64 153.34 462.15 153.98 465.66 154.63 469.17 155.28 472.69 155.93 476.2 156.57 479.71 157.22" style="stroke-width:1.2;stroke:#3a53a4;stroke-dasharray:3.2,3.2;stroke-linecap:butt;fill:none;stroke-linejoin:round;stroke-miterlimit:10"/><polyline points="444.59 138.56 448.1 137.22 451.61 135.89 455.12 134.55 458.64 133.22 462.15 131.88 465.66 130.55 469.17 129.21 472.69 127.88 476.2 126.54 479.71 125.21 483.22 123.87 486.74 122.54 490.25 121.2 493.76 119.87 497.27 118.53 500.79 117.2 504.3 115.86 507.81 114.53 511.32 113.2 514.84 111.86 518.35 110.53 521.86 109.19 525.37 107.86 528.88 106.52 532.4 105.19 535.91 103.85 539.42 102.52 542.93 101.18 546.45 99.85 549.96 98.51 553.47 97.18 556.98 95.84 560.5 94.51 564.01 93.17 567.52 91.84 571.03 90.5 574.55 89.17 578.06 87.84 581.57 86.5 585.08 85.17 588.6 83.83 592.11 82.5 595.62 81.16 599.13 79.83 602.65 78.49 606.16 77.16 609.67 75.82 613.18 74.49 616.69 73.15 620.21 71.82 623.72 70.48 627.23 69.15 630.74 67.81 634.26 66.48 637.77 65.14 641.28 63.81 644.79 62.47 648.31 61.14 651.82 59.81 655.33 58.47 658.84 57.14 662.36 55.8 665.87 54.47 669.38 53.13 672.89 51.8 676.41 50.46 679.92 49.13 683.43 47.79 686.94 46.46 690.45 45.12 693.97 43.79 697.48 42.45 700.99 41.12 704.5 39.78 708.02 38.45 711.53 37.11 715.04 35.78 718.55 34.45 722.07 33.11 725.58 31.78 729.09 30.44 732.6 29.11 736.12 27.77 739.63 26.44 743.14 25.1 746.65 23.77 750.17 22.43 753.68 21.1 757.19 19.76 760.7 18.43 764.22 17.09 767.73 15.76 771.24 14.42" style="stroke-width:1.2;stroke:#3a53a4;stroke-dasharray:3.2,3.2;stroke-linecap:butt;fill:none;stroke-linejoin:round;stroke-miterlimit:10"/><polygon points="259.8 234.56 269.53 234.56 269.53 224.82 259.8 224.82" style="stroke-width:1.2;stroke:none;fill:#000;stroke-linecap:round;stroke-linejoin:round;stroke-miterlimit:10"/><circle cx="786.07" cy="14.17" r="4.87" style="stroke-width:1.2;fill:#000;stroke:#000;stroke-linecap:round;stroke-linejoin:round;stroke-miterlimit:10"/><text x="205.04" y="33.23" style="font-size:17.07px;fill:#3a53a4;font-family:Asap" textLength="84.11" lengthAdjust="spacingAndGlyphs">Malthusian</text><text x="293.25" y="33.23" style="font-size:17.07px;fill:#3a53a4;font-family:Asap" textLength="38.2" lengthAdjust="spacingAndGlyphs">traps</text><text x="552.6" y="112.1" style="font-size:17.07px;fill:#3a53a4;font-family:Asap" textLength="52.91" lengthAdjust="spacingAndGlyphs">Escape</text><text x="484.44" y="170.56" style="font-size:17.07px;fill:#3a53a4;font-family:Asap" textLength="33.73" lengthAdjust="spacingAndGlyphs">18th</text><text x="522.27" y="170.56" style="font-size:17.07px;fill:#3a53a4;font-family:Asap" textLength="56.76" lengthAdjust="spacingAndGlyphs">century</text><text x="311.69" y="315.62" style="font-size:17.07px;fill:#3a53a4;font-family:Asap" textLength="33.73" lengthAdjust="spacingAndGlyphs">13th</text><text x="349.52" y="315.62" style="font-size:17.07px;fill:#3a53a4;font-family:Asap" textLength="15.54" lengthAdjust="spacingAndGlyphs">to</text><text x="369.16" y="315.62" style="font-size:17.07px;fill:#3a53a4;font-family:Asap" textLength="33.73" lengthAdjust="spacingAndGlyphs">16th</text><text x="406.99" y="315.62" style="font-size:17.07px;fill:#3a53a4;font-family:Asap" textLength="56.76" lengthAdjust="spacingAndGlyphs">century</text><polyline points="93.35 345.1 93.35 14.17" style="stroke-width:1.07;stroke:#464646;stroke-linecap:butt;fill:none;stroke-linejoin:round;stroke-miterlimit:10"/><text x="57.03" y="349.51" style="font-size:18px;font-family:Asap" textLength="19.27" lengthAdjust="spacingAndGlyphs">40</text><text x="57.03" y="266.78" style="font-size:18px;font-family:Asap" textLength="19.27" lengthAdjust="spacingAndGlyphs">55</text><text x="57.03" y="184.05" style="font-size:18px;font-family:Asap" textLength="19.27" lengthAdjust="spacingAndGlyphs">70</text><text x="57.03" y="101.32" style="font-size:18px;font-family:Asap" textLength="19.27" lengthAdjust="spacingAndGlyphs">85</text><text x="47.4" y="18.58" style="font-size:18px;font-family:Asap" textLength="28.9" lengthAdjust="spacingAndGlyphs">100</text><polyline points="86.26 345.1 93.35 345.1" style="stroke-width:1.07;stroke:#464646;stroke-linecap:butt;fill:none;stroke-linejoin:round;stroke-miterlimit:10"/><polyline points="86.26 262.37 93.35 262.37" style="stroke-width:1.07;stroke:#464646;stroke-linecap:butt;fill:none;stroke-linejoin:round;stroke-miterlimit:10"/><polyline points="86.26 179.64 93.35 179.64" style="stroke-width:1.07;stroke:#464646;stroke-linecap:butt;fill:none;stroke-linejoin:round;stroke-miterlimit:10"/><polyline points="86.26 96.91 93.35 96.91" style="stroke-width:1.07;stroke:#464646;stroke-linecap:butt;fill:none;stroke-linejoin:round;stroke-miterlimit:10"/><polyline points="86.26 14.17 93.35 14.17" style="stroke-width:1.07;stroke:#464646;stroke-linecap:butt;fill:none;stroke-linejoin:round;stroke-miterlimit:10"/><polyline points="93.35 345.1 795.83 345.1" style="stroke-width:1.07;stroke:#464646;stroke-linecap:butt;fill:none;stroke-linejoin:round;stroke-miterlimit:10"/><polyline points="93.35 352.19 93.35 345.1" style="stroke-width:1.07;stroke:#464646;stroke-linecap:butt;fill:none;stroke-linejoin:round;stroke-miterlimit:10"/><polyline points="268.97 352.19 268.97 345.1" style="stroke-width:1.07;stroke:#464646;stroke-linecap:butt;fill:none;stroke-linejoin:round;stroke-miterlimit:10"/><polyline points="444.59 352.19 444.59 345.1" style="stroke-width:1.07;stroke:#464646;stroke-linecap:butt;fill:none;stroke-linejoin:round;stroke-miterlimit:10"/><polyline points="620.21 352.19 620.21 345.1" style="stroke-width:1.07;stroke:#464646;stroke-linecap:butt;fill:none;stroke-linejoin:round;stroke-miterlimit:10"/><polyline points="795.83 352.19 795.83 345.1" style="stroke-width:1.07;stroke:#464646;stroke-linecap:butt;fill:none;stroke-linejoin:round;stroke-miterlimit:10"/><text x="88.53" y="374.79" style="font-size:18px;font-family:Asap" textLength="9.63" lengthAdjust="spacingAndGlyphs">0</text><text x="264.15" y="374.79" style="font-size:18px;font-family:Asap" textLength="9.63" lengthAdjust="spacingAndGlyphs">5</text><text x="434.95" y="374.79" style="font-size:18px;font-family:Asap" textLength="19.27" lengthAdjust="spacingAndGlyphs">10</text><text x="610.57" y="374.79" style="font-size:18px;font-family:Asap" textLength="19.27" lengthAdjust="spacingAndGlyphs">15</text><text x="786.19" y="374.79" style="font-size:18px;font-family:Asap" textLength="19.27" lengthAdjust="spacingAndGlyphs">20</text><text x="352.61" y="407.59" style="font-size:20px;font-weight:500;font-family:Asap Medium" textLength="96.88" lengthAdjust="spacingAndGlyphs">Population</text><text x="454.3" y="407.59" style="font-size:20px;font-weight:500;font-family:Asap Medium" textLength="82.26" lengthAdjust="spacingAndGlyphs">(millions)</text><text transform="rotate(-90 168.355 140.145)" style="font-size:20px;font-weight:500;font-family:Asap Medium" textLength="39.82" lengthAdjust="spacingAndGlyphs">Real</text><text transform="rotate(-90 146.045 117.835)" style="font-size:20px;font-weight:500;font-family:Asap Medium" textLength="47.54" lengthAdjust="spacingAndGlyphs">wage</text><text transform="rotate(-90 119.87 91.66)" style="font-size:20px;font-weight:500;font-family:Asap Medium" textLength="48.21" lengthAdjust="spacingAndGlyphs">index</text><text transform="rotate(-90 93.365 65.155)" style="font-size:20px;font-weight:500;font-family:Asap Medium" textLength="48.82" lengthAdjust="spacingAndGlyphs">(1860</text><text transform="rotate(-90 66.555 38.345)" style="font-size:20px;font-weight:500;font-family:Asap Medium" textLength="11.2" lengthAdjust="spacingAndGlyphs">=</text><text transform="rotate(-90 58.555 30.345)" style="font-size:20px;font-weight:500;font-family:Asap Medium" textLength="38.12" lengthAdjust="spacingAndGlyphs">100)</text></g></svg>