<svg version="1.1" xmlns="http://www.w3.org/2000/svg" x="0" y="0" viewBox="0 0 311.81 195.59" style="enable-background:new 0 0 311.81 195.59" xml:space="preserve"><line style="fill:none;stroke:#ed2124;stroke-width:.5;stroke-miterlimit:10" x1="87.83" y1="40.41" x2="149.14" y2="161.97"/><line style="fill:none;stroke:#939598;stroke-width:.5;stroke-miterlimit:10" x1="87.84" y1="9.56" x2="164.39" y2="161.97"/><circle cx="103.33" cy="71" r="1.13"/><line style="fill:none;stroke:#ed2124;stroke-width:.5;stroke-linecap:square;stroke-linejoin:bevel;stroke-miterlimit:10;stroke-dasharray:2.8346,2.8346" x1="88.38" y1="101.19" x2="209.75" y2="161.97"/><circle cx="149" cy="131.34" r="1.13"/><g><text transform="translate(130.872 86.114)" style="font-family:'Asap-Regular';font-size:6px">Cost = £50</text><text transform="translate(179.633 141.005)" style="fill:#ed2124;font-family:'Asap-Regular';font-size:6px">Cost = £80</text><text transform="translate(151.243 127.903)" style="font-family:'Asap-Regular';font-size:6px">B</text><text transform="translate(105.8 67.936)" style="font-family:'Asap-Regular';font-size:6px">A</text><text transform="translate(90.7 40.41)" style="fill:#ed2124;font-family:'Asap-Regular';font-size:6px">G</text><text transform="translate(90.7 98.839)" style="fill:#ed2124;font-family:'Asap-Regular';font-size:6px">J</text><text transform="translate(92.58 11.033)" style="fill:#ed2124;font-family:'Asap-Regular';font-size:6px">N</text><text transform="translate(165.577 158.04)" style="fill:#ed2124;font-family:'Asap-Regular';font-size:6px">M</text><text transform="translate(151.243 158.04)" style="fill:#ed2124;font-family:'Asap-Regular';font-size:6px">F</text><text transform="translate(209.756 158.04)" style="fill:#ed2124;font-family:'Asap-Regular';font-size:6px">H</text><text transform="translate(105.8 151.638)" style="font-family:'Asap-Regular';font-size:6px">Cost = £40</text></g><g><path style="fill:none;stroke:#6d6e71;stroke-width:.5;stroke-miterlimit:10" d="M248.76 161.97H87.83V1.13"/><line style="fill:none;stroke:#6d6e71;stroke-width:.5;stroke-miterlimit:10" x1="87.84" y1="131.53" x2="85.72" y2="131.53"/><line style="fill:none;stroke:#6d6e71;stroke-width:.5;stroke-miterlimit:10" x1="87.84" y1="116.28" x2="85.72" y2="116.28"/><line style="fill:none;stroke:#6d6e71;stroke-width:.5;stroke-miterlimit:10" x1="87.84" y1="101.04" x2="85.72" y2="101.04"/><line style="fill:none;stroke:#6d6e71;stroke-width:.5;stroke-miterlimit:10" x1="87.84" y1="85.79" x2="85.72" y2="85.79"/><line style="fill:none;stroke:#6d6e71;stroke-width:.5;stroke-miterlimit:10" x1="87.84" y1="70.54" x2="85.72" y2="70.54"/><line style="fill:none;stroke:#6d6e71;stroke-width:.5;stroke-miterlimit:10" x1="87.84" y1="55.3" x2="85.72" y2="55.3"/><line style="fill:none;stroke:#6d6e71;stroke-width:.5;stroke-miterlimit:10" x1="87.84" y1="40.05" x2="85.72" y2="40.05"/><line style="fill:none;stroke:#6d6e71;stroke-width:.5;stroke-miterlimit:10" x1="87.84" y1="24.8" x2="85.72" y2="24.8"/><line style="fill:none;stroke:#6d6e71;stroke-width:.5;stroke-miterlimit:10" x1="87.84" y1="9.56" x2="85.72" y2="9.56"/><line style="fill:none;stroke:#6d6e71;stroke-width:.5;stroke-miterlimit:10" x1="87.84" y1="146.78" x2="85.72" y2="146.78"/><line style="fill:none;stroke:#6d6e71;stroke-width:.5;stroke-miterlimit:10" x1="194.88" y1="162.25" x2="194.88" y2="164.37"/><line style="fill:none;stroke:#6d6e71;stroke-width:.5;stroke-miterlimit:10" x1="179.63" y1="162.25" x2="179.63" y2="164.37"/><line style="fill:none;stroke:#6d6e71;stroke-width:.5;stroke-miterlimit:10" x1="164.39" y1="162.25" x2="164.39" y2="164.37"/><line style="fill:none;stroke:#6d6e71;stroke-width:.5;stroke-miterlimit:10" x1="149.14" y1="162.25" x2="149.14" y2="164.37"/><line style="fill:none;stroke:#6d6e71;stroke-width:.5;stroke-miterlimit:10" x1="133.89" y1="162.25" x2="133.89" y2="164.37"/><line style="fill:none;stroke:#6d6e71;stroke-width:.5;stroke-miterlimit:10" x1="118.65" y1="162.25" x2="118.65" y2="164.37"/><line style="fill:none;stroke:#6d6e71;stroke-width:.5;stroke-miterlimit:10" x1="103.4" y1="162.25" x2="103.4" y2="164.37"/><line style="fill:none;stroke:#6d6e71;stroke-width:.5;stroke-miterlimit:10" x1="240.62" y1="162.25" x2="240.62" y2="164.37"/><line style="fill:none;stroke:#6d6e71;stroke-width:.5;stroke-miterlimit:10" x1="225.37" y1="162.25" x2="225.37" y2="164.37"/><text transform="translate(72.5 149.616)" style="font-family:'Asap-Regular';font-size:7px">1</text><text transform="translate(101.238 176.055)" style="font-family:'Asap-Regular';font-size:7px">1</text><text transform="translate(116.74 176.055)" style="font-family:'Asap-Regular';font-size:7px">2</text><text transform="translate(132.243 176.055)" style="font-family:'Asap-Regular';font-size:7px">3</text><text transform="translate(147.746 176.055)" style="font-family:'Asap-Regular';font-size:7px">4</text><text transform="translate(163.248 176.055)" style="font-family:'Asap-Regular';font-size:7px">5</text><text transform="translate(178.75 176.055)" style="font-family:'Asap-Regular';font-size:7px">6</text><text transform="translate(194.253 176.055)" style="font-family:'Asap-Regular';font-size:7px">7</text><text transform="translate(209.756 176.055)" style="font-family:'Asap-Regular';font-size:7px">8</text><text transform="translate(225.258 176.055)" style="font-family:'Asap-Regular';font-size:7px">9</text><text transform="translate(238.608 176.055)" style="font-family:'Asap-Regular';font-size:7px">10</text><text transform="translate(72.5 134.353)" style="font-family:'Asap-Regular';font-size:7px">2</text><text transform="translate(72.5 119.09)" style="font-family:'Asap-Regular';font-size:7px">3</text><text transform="translate(72.5 103.826)" style="font-family:'Asap-Regular';font-size:7px">4</text><text transform="translate(72.5 88.562)" style="font-family:'Asap-Regular';font-size:7px">5</text><text transform="translate(72.5 73.3)" style="font-family:'Asap-Regular';font-size:7px">6</text><text transform="translate(72.5 58.037)" style="font-family:'Asap-Regular';font-size:7px">7</text><text transform="translate(72.5 42.773)" style="font-family:'Asap-Regular';font-size:7px">8</text><text transform="translate(72.5 27.51)" style="font-family:'Asap-Regular';font-size:7px">9</text><text transform="translate(70.2 12.247)" style="font-family:'Asap-Regular';font-size:7px">10</text><text transform="rotate(-90 86.802 21.29)" style="font-family:'Asap-Medium';font-size:8px">Tonnes of coal</text><text transform="translate(136.495 189.92)" style="font-family:'Asap-Medium';font-size:8px">Number of workers</text><line style="fill:none;stroke:#6d6e71;stroke-width:.5;stroke-miterlimit:10" x1="210.37" y1="162.25" x2="210.37" y2="164.37"/></g></svg>