<svg version="1.1" xmlns="http://www.w3.org/2000/svg" x="0" y="0" viewBox="0 0 311.81 191.31" style="enable-background:new 0 0 311.81 191.31" xml:space="preserve"><rect x="145.24" y="16.48" style="fill:#e4d1d6" width="99.91" height="59.68"/><rect x="105.45" y="16.48" style="fill:#fee7dc" width="39.79" height="59.83"/><text transform="translate(107.906 74.34)" style="font-family:'Asap-Regular';font-size:6px">A</text><rect x="145.24" y="76.16" style="fill:#e3e3f2" width="99.91" height="53.22"/><text transform="translate(147.86 127.91)" style="font-family:'Asap-Regular';font-size:6px">B</text><circle cx="158.51" cy="89.77" r="1.13"/><g><text transform="translate(134.572 62.105)" style="font-family:'Asap-Regular';font-size:6px">C</text></g><g><text transform="translate(161.239 88.767)" style="font-family:'Asap-Regular';font-size:6px">D</text></g><g><polyline style="fill:none;stroke:#ed2124;stroke-width:.5;stroke-miterlimit:10" points="105.45 16.48 105.45 76.16 245.15 76.16"/><polyline style="fill:none;stroke:#3a53a4;stroke-width:.5;stroke-miterlimit:10" points="145.24 16.48 145.24 129.38 245.15 129.38"/><text transform="translate(226.62 141.434)" style="font-family:'Asap-Regular';font-size:6px">E</text><circle cx="224.82" cy="143.06" r="1.13"/><circle cx="145.24" cy="129.38" r="1.13"/><circle cx="105.45" cy="76.16" r="1.13"/><circle cx="131.98" cy="63.14" r="1.13"/></g><g><path style="fill:none;stroke:#6d6e71;stroke-width:.5;stroke-miterlimit:10" d="M231.91 156.39h-140V16.48"/><line style="fill:none;stroke:#6d6e71;stroke-width:.6008;stroke-miterlimit:10" x1="91.91" y1="129.21" x2="89.78" y2="129.21"/><line style="fill:none;stroke:#6d6e71;stroke-width:.6008;stroke-miterlimit:10" x1="91.91" y1="115.95" x2="89.78" y2="115.95"/><line style="fill:none;stroke:#6d6e71;stroke-width:.6008;stroke-miterlimit:10" x1="91.91" y1="102.69" x2="89.78" y2="102.69"/><line style="fill:none;stroke:#6d6e71;stroke-width:.6008;stroke-miterlimit:10" x1="91.91" y1="89.42" x2="89.78" y2="89.42"/><line style="fill:none;stroke:#6d6e71;stroke-width:.6008;stroke-miterlimit:10" x1="91.91" y1="76.16" x2="89.78" y2="76.16"/><line style="fill:none;stroke:#6d6e71;stroke-width:.6008;stroke-miterlimit:10" x1="91.91" y1="62.9" x2="89.78" y2="62.9"/><line style="fill:none;stroke:#6d6e71;stroke-width:.6008;stroke-miterlimit:10" x1="91.91" y1="49.63" x2="89.78" y2="49.63"/><line style="fill:none;stroke:#6d6e71;stroke-width:.6008;stroke-miterlimit:10" x1="91.91" y1="36.37" x2="89.78" y2="36.37"/><line style="fill:none;stroke:#6d6e71;stroke-width:.6008;stroke-miterlimit:10" x1="91.91" y1="23.11" x2="89.78" y2="23.11"/><line style="fill:none;stroke:#6d6e71;stroke-width:.5994;stroke-miterlimit:10" x1="91.91" y1="142.48" x2="89.78" y2="142.48"/><line style="fill:none;stroke:#6d6e71;stroke-width:.5;stroke-miterlimit:10" x1="198.3" y1="156.39" x2="198.3" y2="158.52"/><line style="fill:none;stroke:#6d6e71;stroke-width:.5;stroke-miterlimit:10" x1="185.03" y1="156.39" x2="185.03" y2="158.52"/><line style="fill:none;stroke:#6d6e71;stroke-width:.5;stroke-miterlimit:10" x1="171.77" y1="156.39" x2="171.77" y2="158.52"/><line style="fill:none;stroke:#6d6e71;stroke-width:.5;stroke-miterlimit:10" x1="158.51" y1="156.39" x2="158.51" y2="158.52"/><line style="fill:none;stroke:#6d6e71;stroke-width:.5;stroke-miterlimit:10" x1="145.24" y1="156.39" x2="145.24" y2="158.52"/><line style="fill:none;stroke:#6d6e71;stroke-width:.5;stroke-miterlimit:10" x1="131.98" y1="156.39" x2="131.98" y2="158.52"/><line style="fill:none;stroke:#6d6e71;stroke-width:.5;stroke-miterlimit:10" x1="118.72" y1="156.39" x2="118.72" y2="158.52"/><line style="fill:none;stroke:#6d6e71;stroke-width:.5;stroke-miterlimit:10" x1="105.45" y1="156.39" x2="105.45" y2="158.52"/><line style="fill:none;stroke:#6d6e71;stroke-width:.5;stroke-miterlimit:10" x1="224.82" y1="156.39" x2="224.82" y2="158.52"/><line style="fill:none;stroke:#6d6e71;stroke-width:.5;stroke-miterlimit:10" x1="211.56" y1="156.39" x2="211.56" y2="158.52"/><text transform="translate(103.572 166.642)" style="font-family:'Asap-Regular';font-size:7px">1</text><text transform="translate(117.058 166.642)" style="font-family:'Asap-Regular';font-size:7px">2</text><text transform="translate(130.544 166.642)" style="font-family:'Asap-Regular';font-size:7px">3</text><text transform="translate(144.03 166.642)" style="font-family:'Asap-Regular';font-size:7px">4</text><text transform="translate(157.515 166.642)" style="font-family:'Asap-Regular';font-size:7px">5</text><text transform="translate(171 166.642)" style="font-family:'Asap-Regular';font-size:7px">6</text><text transform="translate(184.487 166.642)" style="font-family:'Asap-Regular';font-size:7px">7</text><text transform="translate(197.972 166.642)" style="font-family:'Asap-Regular';font-size:7px">8</text><text transform="translate(211.458 166.642)" style="font-family:'Asap-Regular';font-size:7px">9</text><text transform="translate(223.072 166.642)" style="font-family:'Asap-Regular';font-size:7px">10</text><text transform="rotate(-90 93.29 18.796)" style="font-family:'Asap-Medium';font-size:8px">Tonnes of coal</text><text transform="translate(128.544 178.573)" style="font-family:'Asap-Medium';font-size:8px">Number of workers</text><text transform="translate(81.572 144.643)" style="font-family:'Asap-Regular';font-size:7px">1</text><text transform="translate(81.572 131.365)" style="font-family:'Asap-Regular';font-size:7px">2</text><text transform="translate(81.572 118.087)" style="font-family:'Asap-Regular';font-size:7px">3</text><text transform="translate(81.572 104.809)" style="font-family:'Asap-Regular';font-size:7px">4</text><text transform="translate(81.572 91.531)" style="font-family:'Asap-Regular';font-size:7px">5</text><text transform="translate(81.572 78.254)" style="font-family:'Asap-Regular';font-size:7px">6</text><text transform="translate(81.572 64.976)" style="font-family:'Asap-Regular';font-size:7px">7</text><text transform="translate(81.572 51.698)" style="font-family:'Asap-Regular';font-size:7px">8</text><text transform="translate(81.572 38.42)" style="font-family:'Asap-Regular';font-size:7px">9</text><text transform="translate(79.572 25.142)" style="font-family:'Asap-Regular';font-size:7px">10</text></g></svg>