<svg version="1.1" xmlns="http://www.w3.org/2000/svg" x="0" y="0" viewBox="0 0 311.81 167.09" style="enable-background:new 0 0 311.81 167.09" xml:space="preserve"><line style="fill:none;stroke:#ed2124;stroke-width:.5;stroke-miterlimit:10" x1="28" y1="35.37" x2="82.56" y2="141.75"/><line style="fill:none;stroke:#ed2124;stroke-width:.5;stroke-linecap:square;stroke-miterlimit:10;stroke-dasharray:1.4173" x1="28.28" y1="9.06" x2="96.12" y2="141.75"/><line style="fill:none;stroke:#ed2124;stroke-width:.5;stroke-linecap:square;stroke-miterlimit:10;stroke-dasharray:1.4173" x1="28.5" y1="88.56" x2="136.49" y2="141.75"/><line style="fill:none;stroke:#ed2124;stroke-width:.5;stroke-linecap:square;stroke-miterlimit:10;stroke-dasharray:1.4173" x1="28" y1="55.65" x2="205.95" y2="141.75"/><circle style="fill:#58595b" cx="82.8" cy="115.58" r="1.13"/><circle style="fill:#58595b" cx="41.07" cy="61.99" r="1.13"/><text transform="matrix(1.0167 0 0 1 84.43 112.944)" style="font-family:'Asap-Regular';font-size:6px">B</text><text transform="matrix(1.0167 0 0 1 42.36 58.763)" style="font-family:'Asap-Regular';font-size:6px">A</text><text transform="matrix(1.0167 0 0 1 84.43 138.312)" style="fill:#ed2124;font-family:'Asap-Regular';font-size:6px">F</text><text transform="matrix(1.0167 0 0 1 30.56 35.372)" style="fill:#ed2124;font-family:'Asap-Regular';font-size:6px">G</text><text transform="matrix(1.0167 0 0 1 136.492 137.306)" style="fill:#ed2124;font-family:'Asap-Regular';font-size:6px">H</text><text transform="matrix(1.0167 0 0 1 30.56 86.503)" style="fill:#ed2124;font-family:'Asap-Regular';font-size:6px">J</text><path style="fill:none;stroke:#6d6e71;stroke-width:.5;stroke-miterlimit:10" d="M214.41 141.75H28V1"/><line style="fill:none;stroke:#6d6e71;stroke-width:.5;stroke-miterlimit:10" x1="27.62" y1="115.36" x2="25.5" y2="115.36"/><line style="fill:none;stroke:#6d6e71;stroke-width:.5;stroke-miterlimit:10" x1="27.62" y1="102.02" x2="25.5" y2="102.02"/><line style="fill:none;stroke:#6d6e71;stroke-width:.5;stroke-miterlimit:10" x1="27.62" y1="88.68" x2="25.5" y2="88.68"/><line style="fill:none;stroke:#6d6e71;stroke-width:.5;stroke-miterlimit:10" x1="27.62" y1="75.34" x2="25.5" y2="75.34"/><line style="fill:none;stroke:#6d6e71;stroke-width:.5;stroke-miterlimit:10" x1="27.62" y1="61.99" x2="25.5" y2="61.99"/><line style="fill:none;stroke:#6d6e71;stroke-width:.5;stroke-miterlimit:10" x1="27.62" y1="48.65" x2="25.5" y2="48.65"/><line style="fill:none;stroke:#6d6e71;stroke-width:.5;stroke-miterlimit:10" x1="27.62" y1="35.31" x2="25.5" y2="35.31"/><line style="fill:none;stroke:#6d6e71;stroke-width:.5;stroke-miterlimit:10" x1="27.62" y1="21.96" x2="25.5" y2="21.96"/><line style="fill:none;stroke:#6d6e71;stroke-width:.5;stroke-miterlimit:10" x1="27.62" y1="8.62" x2="25.5" y2="8.62"/><line style="fill:none;stroke:#6d6e71;stroke-width:.5;stroke-miterlimit:10" x1="27.62" y1="128.71" x2="25.5" y2="128.71"/><line style="fill:none;stroke:#6d6e71;stroke-width:.5;stroke-miterlimit:10" x1="123.26" y1="141.93" x2="123.26" y2="144.06"/><line style="fill:none;stroke:#6d6e71;stroke-width:.5;stroke-miterlimit:10" x1="109.69" y1="141.93" x2="109.69" y2="144.06"/><line style="fill:none;stroke:#6d6e71;stroke-width:.5;stroke-miterlimit:10" x1="96.12" y1="141.93" x2="96.12" y2="144.06"/><line style="fill:none;stroke:#6d6e71;stroke-width:.5;stroke-miterlimit:10" x1="82.56" y1="141.93" x2="82.56" y2="144.06"/><line style="fill:none;stroke:#6d6e71;stroke-width:.5;stroke-miterlimit:10" x1="68.99" y1="141.93" x2="68.99" y2="144.06"/><line style="fill:none;stroke:#6d6e71;stroke-width:.5;stroke-miterlimit:10" x1="55.43" y1="141.93" x2="55.43" y2="144.06"/><line style="fill:none;stroke:#6d6e71;stroke-width:.5;stroke-miterlimit:10" x1="41.86" y1="141.93" x2="41.86" y2="144.06"/><line style="fill:none;stroke:#6d6e71;stroke-width:.5;stroke-miterlimit:10" x1="163.95" y1="141.93" x2="163.95" y2="144.06"/><line style="fill:none;stroke:#6d6e71;stroke-width:.5;stroke-miterlimit:10" x1="150.39" y1="141.93" x2="150.39" y2="144.06"/><text transform="translate(14.366 130.94)" style="font-family:'Asap-Regular';font-size:7px">1</text><text transform="translate(39.937 154.078)" style="font-family:'Asap-Regular';font-size:7px">1</text><text transform="translate(53.73 154.078)" style="font-family:'Asap-Regular';font-size:7px">2</text><text transform="translate(67.524 154.078)" style="font-family:'Asap-Regular';font-size:7px">3</text><text transform="translate(81.317 154.078)" style="font-family:'Asap-Regular';font-size:7px">4</text><text transform="translate(95.111 154.078)" style="font-family:'Asap-Regular';font-size:7px">5</text><text transform="translate(108.905 154.078)" style="font-family:'Asap-Regular';font-size:7px">6</text><text transform="translate(122.698 154.078)" style="font-family:'Asap-Regular';font-size:7px">7</text><text transform="translate(136.492 154.078)" style="font-family:'Asap-Regular';font-size:7px">8</text><text transform="translate(150.285 154.078)" style="font-family:'Asap-Regular';font-size:7px">9</text><text transform="translate(161.163 154.078)" style="font-family:'Asap-Regular';font-size:7px">10</text><text transform="translate(173.663 154.078)" style="font-family:'Asap-Regular';font-size:7px">11</text><text transform="translate(187.997 154.078)" style="font-family:'Asap-Regular';font-size:7px">12</text><text transform="translate(201.997 154.078)" style="font-family:'Asap-Regular';font-size:7px">13</text><text transform="translate(14.366 117.584)" style="font-family:'Asap-Regular';font-size:7px">2</text><text transform="translate(14.366 104.226)" style="font-family:'Asap-Regular';font-size:7px">3</text><text transform="translate(14.366 90.869)" style="font-family:'Asap-Regular';font-size:7px">4</text><text transform="translate(14.366 77.511)" style="font-family:'Asap-Regular';font-size:7px">5</text><text transform="translate(14.366 64.154)" style="font-family:'Asap-Regular';font-size:7px">6</text><text transform="translate(14.366 50.796)" style="font-family:'Asap-Regular';font-size:7px">7</text><text transform="translate(14.366 37.44)" style="font-family:'Asap-Regular';font-size:7px">8</text><text transform="translate(14.366 24.082)" style="font-family:'Asap-Regular';font-size:7px">9</text><text transform="translate(12.32 10.725)" style="font-family:'Asap-Regular';font-size:7px">10</text><text transform="rotate(-90 56.187 48.038)" style="font-family:'Asap-Medium';font-size:8px">Tonnes of coal</text><text transform="translate(69.41 166.085)" style="font-family:'Asap-Medium';font-size:8px">Number of workers</text><line style="fill:none;stroke:#6d6e71;stroke-width:.5;stroke-miterlimit:10" x1="137.39" y1="141.93" x2="137.39" y2="144.06"/><line style="fill:none;stroke:#6d6e71;stroke-width:.5;stroke-miterlimit:10" x1="177.95" y1="141.93" x2="177.95" y2="144.06"/><line style="fill:none;stroke:#6d6e71;stroke-width:.5;stroke-miterlimit:10" x1="191.95" y1="141.93" x2="191.95" y2="144.06"/><line style="fill:none;stroke:#6d6e71;stroke-width:.5;stroke-miterlimit:10" x1="205.95" y1="141.93" x2="205.95" y2="144.06"/></svg>