<svg xmlns="http://www.w3.org/2000/svg" viewBox="0 0 810 445"><rect width="100%" height="100%" style="stroke:none;fill:#fff;stroke-linecap:round;stroke-linejoin:round;stroke-miterlimit:10"/><rect x="0" y="0" width="810" height="445" style="stroke-width:1.07;stroke:#fff;fill:#fff;stroke-linecap:round;stroke-linejoin:round;stroke-miterlimit:10"/><rect x="107.51" y="28.35" width="659.97" height="321.58" style="stroke-width:1.07;stroke:none;fill:#fff;stroke-linecap:round;stroke-linejoin:round;stroke-miterlimit:10"/><polyline points="107.51 349.93 767.48 349.93" style="stroke-width:1.07;stroke:#c6c4c4;stroke-linecap:butt;fill:none;stroke-linejoin:round;stroke-miterlimit:10"/><polyline points="107.51 269.53 767.48 269.53" style="stroke-width:1.07;stroke:#c6c4c4;stroke-linecap:butt;fill:none;stroke-linejoin:round;stroke-miterlimit:10"/><polyline points="107.51 189.14 767.48 189.14" style="stroke-width:1.07;stroke:#c6c4c4;stroke-linecap:butt;fill:none;stroke-linejoin:round;stroke-miterlimit:10"/><polyline points="107.51 108.74 767.48 108.74" style="stroke-width:1.07;stroke:#c6c4c4;stroke-linecap:butt;fill:none;stroke-linejoin:round;stroke-miterlimit:10"/><polyline points="107.51 28.35 767.48 28.35" style="stroke-width:1.07;stroke:#c6c4c4;stroke-linecap:butt;fill:none;stroke-linejoin:round;stroke-miterlimit:10"/><polyline points="107.51 269.53 111.39 264.7 115.27 269.9 119.16 272.35 123.04 275.4 126.92 278.97 130.8 281.85 134.68 282.32 138.57 281.84 142.45 282.66 146.33 283.23 150.21 284.15 154.1 286.23 157.98 287.95 161.86 286.34 165.74 284.66 169.62 282.54 173.51 279.8 177.39 276.89 181.27 277.6 185.15 277.18 189.04 277.05 192.92 277.46 196.8 277.66 200.68 276.33 204.56 275.43 208.45 275.17 212.33 275.45 216.21 276.8 220.09 278.11 223.98 278.81 227.86 279.83 231.74 281.14 235.62 283.69 239.5 286.59 243.39 287.14 247.27 286.4 251.15 286.33 255.03 287.17 258.91 288.02 262.8 288.09 266.68 288.2 270.56 287.58 274.44 285.14 278.33 281.82 282.21 281.24 286.09 281.95 289.97 282.53 293.85 281.38 297.74 283.17 301.62 285.14 305.5 286.03 309.38 284.65 313.27 282.51 317.15 280.11 321.03 278.88 324.91 276.93 328.79 277.64 332.68 279.29 336.56 278.1 340.44 274.97 344.32 273.15 348.2 271.33 352.09 270.91 355.97 270.43 359.85 270.88 363.73 270.95 367.62 271.01 371.5 269.83 375.38 269.89 379.26 269.55 383.14 268.71 387.03 266.76 390.91 264.3 394.79 262.94 398.67 263.25 402.56 264.51 406.44 267.24 410.32 270.82 414.2 272.71 418.08 273.01 421.97 271.34 425.85 269.2 429.73 266.98 433.61 267.2 437.49 269.65 441.38 271.07 445.26 271.27 449.14 270.65 453.02 267.17 456.91 262.39 460.79 261.2 464.67 262.01 468.55 264.12 472.43 267.03 476.32 269.12 480.2 268.32 484.08 266.26 487.96 265.29 491.85 264.09 495.73 263.37 499.61 263.67 503.49 263.57 507.37 261.11 511.26 258.91 515.14 258.15 519.02 257.59 522.9 255.63 526.79 254.77 530.67 254.46 534.55 252.4 538.43 249.98 542.31 248.26 546.2 246.12 550.08 243.46 553.96 241.16 557.84 239.19 561.72 237.12 565.61 235.87 569.49 234.26 573.37 232.72 577.25 231.86 581.14 231.26 585.02 229.28 588.9 227.4 592.78 224.94 596.66 222.43 600.55 220.95 604.43 220.46 608.31 220.41 612.19 220.98 616.08 220.02 619.96 218.13 623.84 215.73 627.72 213.06 631.6 210.83 635.49 210.71 639.37 209.2 643.25 209.2 647.13 209.18 651.01 208.61 654.9 207.84 658.78 209.09 662.66 209.31 666.54 209.58 670.43 210.31 674.31 211.09 678.19 212.01 682.07 213.4 685.95 214.88 689.84 216.65 693.72 218.23 697.6 217.61 701.48 220.27 705.37 225.98 709.25 232.57 713.13 238.91 717.01 240.82 720.89 233.27 724.78 224.48 728.66 214.31 732.54 202.57 736.42 194.9 740.31 192.84 744.19 188.28 748.07 182.47 751.95 177.97 755.83 175.62 759.72 172.82 763.6 169.34 767.48 166.01" style="stroke-width:1.2;stroke:#ed1f24;stroke-linecap:butt;fill:none;stroke-linejoin:round;stroke-miterlimit:10"/><polyline points="107.51 269.53 111.39 267.34 115.27 268.66 119.16 268.71 123.04 269.16 126.92 269.23 130.8 269.32 134.68 268.78 138.57 268.5 142.45 268.11 146.33 268.15 150.21 268.09 154.1 269.02 157.98 269.17 161.86 269.19 165.74 268.52 169.62 268.12 173.51 267.39 177.39 266.37 181.27 265.43 185.15 264.97 189.04 264.53 192.92 264.05 196.8 264.34 200.68 264.78 204.56 265.38 208.45 265.92 212.33 266.3 216.21 265.62 220.09 265.09 223.98 263.76 227.86 262.52 231.74 261.71 235.62 260.62 239.5 259.32 243.39 258.68 247.27 257.95 251.15 256.61 255.03 255.82 258.91 255.08 262.8 253.96 266.68 252.97 270.56 252.39 274.44 251.86 278.33 251.69 282.21 251.04 286.09 251.06 289.97 250.6 293.85 249.97 297.74 249.29 301.62 249.89 305.5 248.84 309.38 248.48 313.27 247.93 317.15 247.97 321.03 247.17 324.91 247.31 328.79 247.36 332.68 247.68 336.56 247.17 340.44 246.88 344.32 246.32 348.2 244.93 352.09 244 355.97 243.7 359.85 242.48 363.73 241.23 367.62 240.6 371.5 239.8 375.38 238.62 379.26 237.56 383.14 236.78 387.03 235.96 390.91 234.48 394.79 232.32 398.67 231.05 402.56 229.2 406.44 228.31 410.32 226.78 414.2 225.6 418.08 224.65 421.97 224.18 425.85 221.58 429.73 220.17 433.61 219.6 437.49 218.75 441.38 216.63 445.26 214.86 449.14 213.29 453.02 210.63 456.91 207.17 460.79 205.03 464.67 202.82 468.55 201.87 472.43 200.19 476.32 199.36 480.2 198.22 484.08 197.63 487.96 195.86 491.85 194.47 495.73 192.51 499.61 190.44 503.49 188.83 507.37 186.21 511.26 184.14 515.14 182.66 519.02 180.61 522.9 178.14 526.79 174.55 530.67 169.74 534.55 165.36 538.43 161.84 542.31 157.16 546.2 154.46 550.08 152.85 553.96 150.08 557.84 146.83 561.72 145.79 565.61 143.22 569.49 140.7 573.37 138.76 577.25 136.49 581.14 133.72 585.02 132.97 588.9 132.6 592.78 131.27 596.66 130.41 600.55 128.96 604.43 127.55 608.31 125.05 612.19 124.51 616.08 124.73 619.96 123.74 623.84 121.48 627.72 119.17 631.6 116.1 635.49 111.43 639.37 107.34 643.25 105.24 647.13 102.83 651.01 99.79 654.9 98.7 658.78 97.68 662.66 94.91 666.54 93.33 670.43 92.1 674.31 91.12 678.19 89.88 682.07 89.54 685.95 88.61 689.84 87.9 693.72 84.65 697.6 82.04 701.48 77.66 705.37 73.72 709.25 69.63 713.13 66.29 717.01 68.4 720.89 77.26 724.78 85.48 728.66 90.57 732.54 95.57 736.42 93.88 740.31 85.77 744.19 80.39 748.07 75.39 751.95 71.06 755.83 67.64 759.72 65.01 763.6 62.12 767.48 62.01" style="stroke-width:1.2;stroke:#3a53a4;stroke-linecap:butt;fill:none;stroke-linejoin:round;stroke-miterlimit:10"/><line x1="767.48" y1="349.93" x2="767.48" y2="355.15" style="stroke-width:1.07;stroke:#333;stroke-linecap:butt;fill:none;stroke-linejoin:round;stroke-miterlimit:10"/><circle cx="123.04" cy="275.4" r="2.2" style="stroke-width:1.2;fill:#000;stroke:#000;stroke-linecap:round;stroke-linejoin:round;stroke-miterlimit:10"/><circle cx="189.04" cy="277.05" r="2.2" style="stroke-width:1.2;fill:#000;stroke:#000;stroke-linecap:round;stroke-linejoin:round;stroke-miterlimit:10"/><circle cx="390.91" cy="264.3" r="2.2" style="stroke-width:1.2;fill:#000;stroke:#000;stroke-linecap:round;stroke-linejoin:round;stroke-miterlimit:10"/><circle cx="433.61" cy="267.2" r="2.2" style="stroke-width:1.2;fill:#000;stroke:#000;stroke-linecap:round;stroke-linejoin:round;stroke-miterlimit:10"/><circle cx="445.26" cy="271.27" r="2.2" style="stroke-width:1.2;fill:#000;stroke:#000;stroke-linecap:round;stroke-linejoin:round;stroke-miterlimit:10"/><circle cx="720.89" cy="233.27" r="2.2" style="stroke-width:1.2;fill:#000;stroke:#000;stroke-linecap:round;stroke-linejoin:round;stroke-miterlimit:10"/><circle cx="759.72" cy="172.82" r="2.2" style="stroke-width:1.2;fill:#000;stroke:#000;stroke-linecap:round;stroke-linejoin:round;stroke-miterlimit:10"/><text x="113.33" y="312.83" style="font-size:14px;font-weight:700;font-family:Asap" textLength="29.96" lengthAdjust="spacingAndGlyphs">1764</text><text x="113.33" y="329.57" style="font-size:14px;font-family:Asap" textLength="73.77" lengthAdjust="spacingAndGlyphs">Hargreaves&apos;</text><text x="190.46" y="329.57" style="font-size:14px;font-family:Asap" textLength="52.26" lengthAdjust="spacingAndGlyphs">spinning</text><text x="246.08" y="329.57" style="font-size:14px;font-family:Asap" textLength="33.74" lengthAdjust="spacingAndGlyphs">jenny</text><text x="113.33" y="216.69" style="font-size:14px;font-weight:700;font-family:Asap" textLength="29.96" lengthAdjust="spacingAndGlyphs">1781</text><text x="146.65" y="216.69" style="font-size:14px;font-family:Asap" textLength="38.42" lengthAdjust="spacingAndGlyphs">Watt&apos;s</text><text x="188.43" y="216.69" style="font-size:14px;font-family:Asap" textLength="37.62" lengthAdjust="spacingAndGlyphs">steam</text><text x="229.41" y="216.69" style="font-size:14px;font-family:Asap" textLength="42.04" lengthAdjust="spacingAndGlyphs">engine</text><text x="317.15" y="312.83" style="font-size:14px;font-weight:700;font-family:Asap" textLength="29.96" lengthAdjust="spacingAndGlyphs">1833</text><text x="350.47" y="312.83" style="font-size:14px;font-family:Asap" textLength="46.07" lengthAdjust="spacingAndGlyphs">Factory</text><text x="399.9" y="312.83" style="font-size:14px;font-family:Asap" textLength="20.16" lengthAdjust="spacingAndGlyphs">Act</text><text x="423.42" y="312.83" style="font-size:14px;font-family:Asap" textLength="19.98" lengthAdjust="spacingAndGlyphs">(no</text><text x="446.76" y="312.83" style="font-size:14px;font-family:Asap" textLength="30.48" lengthAdjust="spacingAndGlyphs">child</text><text x="317.15" y="329.57" style="font-size:14px;font-family:Asap" textLength="40.64" lengthAdjust="spacingAndGlyphs">labour</text><text x="361.15" y="329.57" style="font-size:14px;font-family:Asap" textLength="36.18" lengthAdjust="spacingAndGlyphs">under</text><text x="400.69" y="329.57" style="font-size:14px;font-family:Asap" textLength="7.49" lengthAdjust="spacingAndGlyphs">9</text><text x="411.54" y="329.57" style="font-size:14px;font-family:Asap" textLength="37.03" lengthAdjust="spacingAndGlyphs">years)</text><text x="282.21" y="157.67" style="font-size:14px;font-weight:700;font-family:Asap" textLength="29.96" lengthAdjust="spacingAndGlyphs">1844</text><text x="315.53" y="157.67" style="font-size:14px;font-family:Asap" textLength="46.07" lengthAdjust="spacingAndGlyphs">Factory</text><text x="364.96" y="157.67" style="font-size:14px;font-family:Asap" textLength="20.16" lengthAdjust="spacingAndGlyphs">Act</text><text x="388.48" y="157.67" style="font-size:14px;font-family:Asap" textLength="55.16" lengthAdjust="spacingAndGlyphs">(children</text><text x="282.21" y="174.41" style="font-size:14px;font-family:Asap" textLength="30.84" lengthAdjust="spacingAndGlyphs">work</text><text x="316.41" y="174.41" style="font-size:14px;font-family:Asap" textLength="26.66" lengthAdjust="spacingAndGlyphs">only</text><text x="346.43" y="174.41" style="font-size:14px;font-family:Asap" textLength="17.75" lengthAdjust="spacingAndGlyphs">6.5</text><text x="367.54" y="174.41" style="font-size:14px;font-family:Asap" textLength="34.58" lengthAdjust="spacingAndGlyphs">hours</text><text x="405.48" y="174.41" style="font-size:14px;font-family:Asap" textLength="26.49" lengthAdjust="spacingAndGlyphs">day)</text><text x="421.97" y="83.7" style="font-size:14px;font-weight:700;font-family:Asap" textLength="29.96" lengthAdjust="spacingAndGlyphs">1847</text><text x="455.29" y="83.7" style="font-size:14px;font-family:Asap" textLength="23.03" lengthAdjust="spacingAndGlyphs">Ten</text><text x="481.68" y="83.7" style="font-size:14px;font-family:Asap" textLength="36.93" lengthAdjust="spacingAndGlyphs">Hours</text><text x="521.97" y="83.7" style="font-size:14px;font-family:Asap" textLength="20.16" lengthAdjust="spacingAndGlyphs">Act</text><text x="545.49" y="83.7" style="font-size:14px;font-family:Asap" textLength="38.23" lengthAdjust="spacingAndGlyphs">(limits</text><text x="587.08" y="83.7" style="font-size:14px;font-family:Asap" textLength="30.84" lengthAdjust="spacingAndGlyphs">work</text><text x="421.97" y="100.44" style="font-size:14px;font-family:Asap" textLength="34.58" lengthAdjust="spacingAndGlyphs">hours</text><text x="459.91" y="100.44" style="font-size:14px;font-family:Asap" textLength="17.64" lengthAdjust="spacingAndGlyphs">for</text><text x="480.91" y="100.44" style="font-size:14px;font-family:Asap" textLength="45.64" lengthAdjust="spacingAndGlyphs">women</text><text x="529.91" y="100.44" style="font-size:14px;font-family:Asap" textLength="8.74" lengthAdjust="spacingAndGlyphs">&amp;</text><text x="542" y="100.44" style="font-size:14px;font-family:Asap" textLength="55.16" lengthAdjust="spacingAndGlyphs">children)</text><text x="654.9" y="287.1" style="font-size:14px;font-weight:700;font-family:Asap" textLength="29.96" lengthAdjust="spacingAndGlyphs">1918</text><text x="688.22" y="287.1" style="font-size:14px;font-family:Asap" textLength="40.54" lengthAdjust="spacingAndGlyphs">Voting</text><text x="732.12" y="287.1" style="font-size:14px;font-family:Asap" textLength="34.96" lengthAdjust="spacingAndGlyphs">rights</text><text x="654.9" y="303.84" style="font-size:14px;font-family:Asap" textLength="17.64" lengthAdjust="spacingAndGlyphs">for</text><text x="675.9" y="303.84" style="font-size:14px;font-family:Asap" textLength="15.95" lengthAdjust="spacingAndGlyphs">all</text><text x="695.2" y="303.84" style="font-size:14px;font-family:Asap" textLength="36.99" lengthAdjust="spacingAndGlyphs">males</text><text x="680.13" y="131.94" style="font-size:14px;font-weight:700;font-family:Asap" textLength="29.96" lengthAdjust="spacingAndGlyphs">1928</text><text x="713.45" y="131.94" style="font-size:14px;font-family:Asap" textLength="58.51" lengthAdjust="spacingAndGlyphs">Universal</text><text x="680.13" y="148.68" style="font-size:14px;font-family:Asap" textLength="50.62" lengthAdjust="spacingAndGlyphs">suffrage</text><line x1="123.04" y1="301.69" x2="123.04" y2="284" style="stroke-width:1.2;stroke:#7f8182;stroke-linecap:butt;fill:none;stroke-linejoin:round;stroke-miterlimit:10"/><polyline points="127.05 288.01 123.04 284 119.03 288.01" style="stroke-width:1.2;stroke:#7f8182;stroke-linecap:butt;fill:none;stroke-linejoin:round;stroke-miterlimit:10"/><line x1="189.04" y1="224.51" x2="189.04" y2="255.06" style="stroke-width:1.2;stroke:#7f8182;stroke-linecap:butt;fill:none;stroke-linejoin:round;stroke-miterlimit:10"/><polyline points="185.03 251.05 189.04 255.06 193.04 251.05" style="stroke-width:1.2;stroke:#7f8182;stroke-linecap:butt;fill:none;stroke-linejoin:round;stroke-miterlimit:10"/><line x1="390.91" y1="301.69" x2="390.91" y2="275.96" style="stroke-width:1.2;stroke:#7f8182;stroke-linecap:butt;fill:none;stroke-linejoin:round;stroke-miterlimit:10"/><polyline points="394.92 279.97 390.91 275.96 386.9 279.97" style="stroke-width:1.2;stroke:#7f8182;stroke-linecap:butt;fill:none;stroke-linejoin:round;stroke-miterlimit:10"/><line x1="433.61" y1="165.02" x2="433.61" y2="255.06" style="stroke-width:1.2;stroke:#7f8182;stroke-linecap:butt;fill:none;stroke-linejoin:round;stroke-miterlimit:10"/><polyline points="429.6 251.05 433.61 255.06 437.62 251.05" style="stroke-width:1.2;stroke:#7f8182;stroke-linecap:butt;fill:none;stroke-linejoin:round;stroke-miterlimit:10"/><line x1="445.26" y1="112.76" x2="445.26" y2="255.06" style="stroke-width:1.2;stroke:#7f8182;stroke-linecap:butt;fill:none;stroke-linejoin:round;stroke-miterlimit:10"/><polyline points="441.25 251.05 445.26 255.06 449.27 251.05" style="stroke-width:1.2;stroke:#7f8182;stroke-linecap:butt;fill:none;stroke-linejoin:round;stroke-miterlimit:10"/><line x1="720.89" y1="275.16" x2="720.89" y2="245.41" style="stroke-width:1.2;stroke:#7f8182;stroke-linecap:butt;fill:none;stroke-linejoin:round;stroke-miterlimit:10"/><polyline points="724.9 249.42 720.89 245.41 716.89 249.42" style="stroke-width:1.2;stroke:#7f8182;stroke-linecap:butt;fill:none;stroke-linejoin:round;stroke-miterlimit:10"/><line x1="734.48" y1="144.92" x2="753.12" y2="165.02" style="stroke-width:1.2;stroke:#7f8182;stroke-linecap:butt;fill:none;stroke-linejoin:round;stroke-miterlimit:10"/><polyline points="747.45 164.8 753.12 165.02 753.33 159.35" style="stroke-width:1.2;stroke:#7f8182;stroke-linecap:butt;fill:none;stroke-linejoin:round;stroke-miterlimit:10"/><polyline points="107.51 349.93 107.51 28.35" style="stroke-width:1.07;stroke:#464646;stroke-linecap:butt;fill:none;stroke-linejoin:round;stroke-miterlimit:10"/><text x="80.83" y="354.34" style="font-size:18px;font-family:Asap" textLength="9.63" lengthAdjust="spacingAndGlyphs">0</text><text x="61.57" y="273.94" style="font-size:18px;font-family:Asap" textLength="28.89" lengthAdjust="spacingAndGlyphs">100</text><text x="61.57" y="193.55" style="font-size:18px;font-family:Asap" textLength="28.89" lengthAdjust="spacingAndGlyphs">200</text><text x="61.57" y="113.15" style="font-size:18px;font-family:Asap" textLength="28.89" lengthAdjust="spacingAndGlyphs">300</text><text x="61.57" y="32.76" style="font-size:18px;font-family:Asap" textLength="28.89" lengthAdjust="spacingAndGlyphs">400</text><polyline points="100.42 349.93 107.51 349.93" style="stroke-width:1.07;stroke:#464646;stroke-linecap:butt;fill:none;stroke-linejoin:round;stroke-miterlimit:10"/><polyline points="100.42 269.53 107.51 269.53" style="stroke-width:1.07;stroke:#464646;stroke-linecap:butt;fill:none;stroke-linejoin:round;stroke-miterlimit:10"/><polyline points="100.42 189.14 107.51 189.14" style="stroke-width:1.07;stroke:#464646;stroke-linecap:butt;fill:none;stroke-linejoin:round;stroke-miterlimit:10"/><polyline points="100.42 108.74 107.51 108.74" style="stroke-width:1.07;stroke:#464646;stroke-linecap:butt;fill:none;stroke-linejoin:round;stroke-miterlimit:10"/><polyline points="100.42 28.35 107.51 28.35" style="stroke-width:1.07;stroke:#464646;stroke-linecap:butt;fill:none;stroke-linejoin:round;stroke-miterlimit:10"/><polyline points="107.51 349.93 767.48 349.93" style="stroke-width:1.07;stroke:#464646;stroke-linecap:butt;fill:none;stroke-linejoin:round;stroke-miterlimit:10"/><polyline points="107.51 357.01 107.51 349.93" style="stroke-width:1.07;stroke:#464646;stroke-linecap:butt;fill:none;stroke-linejoin:round;stroke-miterlimit:10"/><polyline points="301.62 357.01 301.62 349.93" style="stroke-width:1.07;stroke:#464646;stroke-linecap:butt;fill:none;stroke-linejoin:round;stroke-miterlimit:10"/><polyline points="495.73 357.01 495.73 349.93" style="stroke-width:1.07;stroke:#464646;stroke-linecap:butt;fill:none;stroke-linejoin:round;stroke-miterlimit:10"/><polyline points="689.84 357.01 689.84 349.93" style="stroke-width:1.07;stroke:#464646;stroke-linecap:butt;fill:none;stroke-linejoin:round;stroke-miterlimit:10"/><polyline points="767.48 357.01 767.48 349.93" style="stroke-width:1.07;stroke:#464646;stroke-linecap:butt;fill:none;stroke-linejoin:round;stroke-miterlimit:10"/><text x="88.25" y="379.61" style="font-size:18px;font-family:Asap" textLength="38.52" lengthAdjust="spacingAndGlyphs">1760</text><text x="282.36" y="379.61" style="font-size:18px;font-family:Asap" textLength="38.52" lengthAdjust="spacingAndGlyphs">1810</text><text x="476.47" y="379.61" style="font-size:18px;font-family:Asap" textLength="38.52" lengthAdjust="spacingAndGlyphs">1860</text><text x="670.58" y="379.61" style="font-size:18px;font-family:Asap" textLength="38.52" lengthAdjust="spacingAndGlyphs">1910</text><text x="748.22" y="379.61" style="font-size:18px;font-family:Asap" textLength="38.52" lengthAdjust="spacingAndGlyphs">1930</text><text x="417.4" y="412.41" style="font-size:20px;font-family:Asap Medium" textLength="40.18" lengthAdjust="spacingAndGlyphs">Year</text><text transform="rotate(-90 156.045 113.655)" style="font-size:20px;font-family:Asap Medium" textLength="48.58" lengthAdjust="spacingAndGlyphs">Index</text><text transform="rotate(-90 129.355 86.965)" style="font-size:20px;font-family:Asap Medium" textLength="48.82" lengthAdjust="spacingAndGlyphs">(1760</text><text transform="rotate(-90 102.545 60.155)" style="font-size:20px;font-family:Asap Medium" textLength="11.2" lengthAdjust="spacingAndGlyphs">=</text><text transform="rotate(-90 94.545 52.155)" style="font-size:20px;font-family:Asap Medium" textLength="38.12" lengthAdjust="spacingAndGlyphs">100)</text><rect x="110.81" y="14.61" width="332.13" height="59.64" style="stroke-width:1.07;stroke:none;fill:none;stroke-linecap:round;stroke-linejoin:round;stroke-miterlimit:10"/><line x1="120.61" y1="47.17" x2="155.17" y2="47.17" style="stroke-width:1.2;stroke:#ed1f24;stroke-linecap:butt;fill:none;stroke-linejoin:round;stroke-miterlimit:10"/><line x1="120.61" y1="47.17" x2="155.17" y2="47.17" style="stroke-width:1.2;stroke:#ed1f24;stroke-linecap:butt;fill:none;stroke-linejoin:round;stroke-miterlimit:10"/><line x1="255.1" y1="47.17" x2="289.66" y2="47.17" style="stroke-width:1.2;stroke:#3a53a4;stroke-linecap:butt;fill:none;stroke-linejoin:round;stroke-miterlimit:10"/><line x1="255.1" y1="47.17" x2="289.66" y2="47.17" style="stroke-width:1.2;stroke:#3a53a4;stroke-linecap:butt;fill:none;stroke-linejoin:round;stroke-miterlimit:10"/><text x="164.97" y="51.09" style="font-size:16px;font-family:Asap" textLength="31.86" lengthAdjust="spacingAndGlyphs">Real</text><text x="200.66" y="51.09" style="font-size:16px;font-family:Asap" textLength="44.64" lengthAdjust="spacingAndGlyphs">wages</text><text x="299.46" y="51.09" style="font-size:16px;font-family:Asap" textLength="49.44" lengthAdjust="spacingAndGlyphs">Labour</text><text x="352.74" y="51.09" style="font-size:16px;font-family:Asap" textLength="84.72" lengthAdjust="spacingAndGlyphs">productivity</text></svg>