<svg version="1.1" xmlns="http://www.w3.org/2000/svg" x="0" y="0" viewBox="0 0 311.81 195.59" style="enable-background:new 0 0 311.81 195.59" xml:space="preserve"><polyline style="fill:none;stroke:#939598;stroke-width:.5;stroke-linecap:square;stroke-miterlimit:10;stroke-dasharray:1.4173" points="107.34 161.76 107.34 70.13 91.95 70.13"/><line style="fill:none;stroke:#ed2124;stroke-width:.5;stroke-miterlimit:10" x1="91.95" y1="39.72" x2="153.5" y2="161.76"/><circle cx="107.05" cy="70.13" r="1.13"/><ellipse cx="246.48" cy="147.06" rx="1.13" ry="1.12"/><ellipse cx="153.35" cy="130.7" rx="1.13" ry="1.12"/><text transform="translate(118.137 78.955)" style="font-family:'Asap-Regular';font-size:6px">Cost = £40</text><text transform="translate(155.612 127.556)" style="font-family:'Asap-Regular';font-size:6px">B</text><text transform="translate(248.964 144.284)" style="font-family:'Asap-Regular';font-size:6px">E</text><text transform="translate(109.99 67.35)" style="font-family:'Asap-Regular';font-size:6px">A</text><text transform="translate(94.83 40.716)" style="fill:#ed2124;font-family:'Asap-Regular';font-size:6px">G</text><text transform="translate(154.305 157.774)" style="fill:#ed2124;font-family:'Asap-Regular';font-size:6px">F</text><path style="fill:none;stroke:#6d6e71;stroke-width:.5;stroke-miterlimit:10" d="M253.52 161.76H91.95V1.73"/><line style="fill:none;stroke:#6d6e71;stroke-width:.5;stroke-miterlimit:10" x1="199.42" y1="161.76" x2="199.42" y2="163.88"/><line style="fill:none;stroke:#6d6e71;stroke-width:.5;stroke-miterlimit:10" x1="184.12" y1="161.76" x2="184.12" y2="163.88"/><line style="fill:none;stroke:#6d6e71;stroke-width:.5;stroke-miterlimit:10" x1="168.81" y1="161.76" x2="168.81" y2="163.88"/><line style="fill:none;stroke:#6d6e71;stroke-width:.5;stroke-miterlimit:10" x1="153.5" y1="161.76" x2="153.5" y2="163.88"/><line style="fill:none;stroke:#6d6e71;stroke-width:.5;stroke-miterlimit:10" x1="138.19" y1="161.76" x2="138.19" y2="163.88"/><line style="fill:none;stroke:#6d6e71;stroke-width:.5;stroke-miterlimit:10" x1="122.89" y1="161.76" x2="122.89" y2="163.88"/><line style="fill:none;stroke:#6d6e71;stroke-width:.5;stroke-miterlimit:10" x1="107.58" y1="161.76" x2="107.58" y2="163.88"/><line style="fill:none;stroke:#6d6e71;stroke-width:.5;stroke-miterlimit:10" x1="245.35" y1="161.76" x2="245.35" y2="163.88"/><line style="fill:none;stroke:#6d6e71;stroke-width:.5;stroke-miterlimit:10" x1="230.04" y1="161.76" x2="230.04" y2="163.88"/><text transform="translate(76.557 149.356)" style="font-family:'Asap-Regular';font-size:7px">1</text><text transform="translate(105.41 175.9)" style="font-family:'Asap-Regular';font-size:7px">1</text><text transform="translate(120.974 175.9)" style="font-family:'Asap-Regular';font-size:7px">2</text><text transform="translate(136.538 175.9)" style="font-family:'Asap-Regular';font-size:7px">3</text><text transform="translate(152.101 175.9)" style="font-family:'Asap-Regular';font-size:7px">4</text><text transform="translate(167.666 175.9)" style="font-family:'Asap-Regular';font-size:7px">5</text><text transform="translate(183.23 175.9)" style="font-family:'Asap-Regular';font-size:7px">6</text><text transform="translate(198.794 175.9)" style="font-family:'Asap-Regular';font-size:7px">7</text><text transform="translate(214.358 175.9)" style="font-family:'Asap-Regular';font-size:7px">8</text><text transform="translate(229.922 175.9)" style="font-family:'Asap-Regular';font-size:7px">9</text><text transform="translate(243.326 175.9)" style="font-family:'Asap-Regular';font-size:7px">10</text><text transform="translate(76.557 134.032)" style="font-family:'Asap-Regular';font-size:7px">2</text><text transform="translate(76.557 118.708)" style="font-family:'Asap-Regular';font-size:7px">3</text><text transform="translate(76.557 103.385)" style="font-family:'Asap-Regular';font-size:7px">4</text><text transform="translate(76.557 88.06)" style="font-family:'Asap-Regular';font-size:7px">5</text><text transform="translate(76.557 72.736)" style="font-family:'Asap-Regular';font-size:7px">6</text><text transform="translate(76.557 57.411)" style="font-family:'Asap-Regular';font-size:7px">7</text><text transform="translate(76.557 42.09)" style="font-family:'Asap-Regular';font-size:7px">8</text><text transform="translate(76.557 26.765)" style="font-family:'Asap-Regular';font-size:7px">9</text><text transform="translate(74.249 11.44)" style="font-family:'Asap-Regular';font-size:7px">10</text><text transform="rotate(-90 85.125 15.582)" style="font-family:'Asap-Medium';font-size:8px">Tonnes of coal</text><text transform="translate(144.768 190.823)" style="font-family:'Asap-Medium';font-size:8px">Number of workers</text><line style="fill:none;stroke:#6d6e71;stroke-width:.5;stroke-miterlimit:10" x1="215.04" y1="161.76" x2="215.04" y2="163.88"/><line style="fill:none;stroke:#6d6e71;stroke-width:.5;stroke-miterlimit:10" x1="91.67" y1="131.37" x2="89.55" y2="131.37"/><line style="fill:none;stroke:#6d6e71;stroke-width:.5;stroke-miterlimit:10" x1="91.67" y1="116.06" x2="89.55" y2="116.06"/><line style="fill:none;stroke:#6d6e71;stroke-width:.5;stroke-miterlimit:10" x1="91.67" y1="100.76" x2="89.55" y2="100.76"/><line style="fill:none;stroke:#6d6e71;stroke-width:.5;stroke-miterlimit:10" x1="91.67" y1="85.45" x2="89.55" y2="85.45"/><line style="fill:none;stroke:#6d6e71;stroke-width:.5;stroke-miterlimit:10" x1="91.67" y1="70.14" x2="89.55" y2="70.14"/><line style="fill:none;stroke:#6d6e71;stroke-width:.5;stroke-miterlimit:10" x1="91.67" y1="54.83" x2="89.55" y2="54.83"/><line style="fill:none;stroke:#6d6e71;stroke-width:.5;stroke-miterlimit:10" x1="91.67" y1="39.53" x2="89.55" y2="39.53"/><line style="fill:none;stroke:#6d6e71;stroke-width:.5;stroke-miterlimit:10" x1="91.67" y1="24.22" x2="89.55" y2="24.22"/><line style="fill:none;stroke:#6d6e71;stroke-width:.5;stroke-miterlimit:10" x1="91.67" y1="8.91" x2="89.55" y2="8.91"/><line style="fill:none;stroke:#6d6e71;stroke-width:.5;stroke-miterlimit:10" x1="91.67" y1="146.68" x2="89.55" y2="146.68"/></svg>