<svg version="1.1" xmlns="http://www.w3.org/2000/svg" x="0" y="0" viewBox="0 0 311.81 170.08" style="enable-background:new 0 0 311.81 170.08" xml:space="preserve"><rect x="20.42" y="136.48" style="fill:none" width="4.94" height="9.11"/><text transform="translate(14.011 109.284)" style="font-family:'Asap-Regular';font-size:7px">225</text><text transform="translate(14.011 75.02)" style="font-family:'Asap-Regular';font-size:7px">450</text><text transform="translate(14.011 40.755)" style="font-family:'Asap-Regular';font-size:7px">675</text><text transform="translate(14.011 6.492)" style="font-family:'Asap-Regular';font-size:7px">900</text><rect x="29.74" y="144.85" style="fill:none" width="4.94" height="9.11"/><rect x="103.8" y="144.85" style="fill:none" width="12.22" height="9.11"/><line style="fill:none;stroke:#6d6e71;stroke-width:.5;stroke-linecap:square;stroke-linejoin:round" x1="303.96" y1="141.1" x2="303.96" y2="143.23"/><line style="fill:none;stroke:#6d6e71;stroke-width:.5;stroke-linecap:square;stroke-linejoin:round" x1="265.36" y1="141.1" x2="265.36" y2="143.23"/><line style="fill:none;stroke:#6d6e71;stroke-width:.5;stroke-linecap:square;stroke-linejoin:round" x1="226.32" y1="141.1" x2="226.32" y2="143.23"/><line style="fill:none;stroke:#6d6e71;stroke-width:.5;stroke-linecap:square;stroke-linejoin:round" x1="187.72" y1="141.1" x2="187.72" y2="143.23"/><line style="fill:none;stroke:#6d6e71;stroke-width:.5;stroke-linecap:square;stroke-linejoin:round" x1="148.68" y1="141.1" x2="148.68" y2="143.23"/><line style="fill:none;stroke:#6d6e71;stroke-width:.5;stroke-linecap:square;stroke-linejoin:round" x1="110.08" y1="141.1" x2="110.08" y2="143.23"/><line style="fill:none;stroke:#6d6e71;stroke-width:.5;stroke-linecap:square;stroke-linejoin:round" x1="71.05" y1="141.1" x2="71.05" y2="143.23"/><line style="fill:none;stroke:#6d6e71;stroke-width:.5;stroke-linecap:square;stroke-linejoin:round" x1="32.01" y1="141.1" x2="32.01" y2="143.23"/><line style="fill:none;stroke:#6d6e71;stroke-width:.5;stroke-linecap:square;stroke-linejoin:round" x1="32.01" y1="140.89" x2="303.96" y2="140.89"/><line style="fill:none;stroke:#6d6e71;stroke-width:.5;stroke-linecap:square;stroke-linejoin:round" x1="31.92" y1="4.11" x2="29.79" y2="4.11"/><line style="fill:none;stroke:#6d6e71;stroke-width:.5;stroke-linecap:square;stroke-linejoin:round" x1="31.92" y1="38.37" x2="29.79" y2="38.37"/><line style="fill:none;stroke:#6d6e71;stroke-width:.5;stroke-linecap:square;stroke-linejoin:round" x1="31.92" y1="72.64" x2="29.79" y2="72.64"/><line style="fill:none;stroke:#6d6e71;stroke-width:.5;stroke-linecap:square;stroke-linejoin:round" x1="31.92" y1="106.9" x2="29.79" y2="106.9"/><line style="fill:none;stroke:#6d6e71;stroke-width:.5;stroke-linecap:square;stroke-linejoin:round" x1="31.92" y1="141.16" x2="29.79" y2="141.16"/><line style="fill:none;stroke:#6d6e71;stroke-width:.5;stroke-linecap:square;stroke-linejoin:round" x1="32.01" y1="141.16" x2="32.01" y2="4.11"/><text transform="translate(20.951 143.548)" style="font-family:'Asap-Regular';font-size:7px">0</text><text transform="translate(138.924 164.367)" style="font-family:'Asap-Medium';font-size:8px">Number of farmers</text><text transform="translate(30.493 151.79)" style="font-family:'Asap-Regular';font-size:7px">0</text><text transform="rotate(-90 69.497 61.798)" style="font-family:'Asap-Medium';font-size:8px">Kg of grain produced (thousands)</text><line style="fill:none;stroke:#939598;stroke-width:.5;stroke-linecap:square;stroke-miterlimit:10;stroke-dasharray:1.4173" x1="110.08" y1="140.95" x2="110.08" y2="64.21"/><line style="fill:none;stroke:#939598;stroke-width:.5;stroke-linecap:square;stroke-miterlimit:10;stroke-dasharray:1.4173" x1="110.08" y1="64.21" x2="31.91" y2="64.21"/><rect x="1" y="-24.17" style="fill:none" width="310.64" height="190.27"/><rect x="1" y="-24.17" style="fill:none" width="310.64" height="190.27"/><rect x="1" y="-24.17" style="fill:none" width="310.64" height="190.27"/><rect x="13.14" y="102.23" style="fill:none" width="12.22" height="9.11"/><rect x="13.14" y="67.98" style="fill:none" width="12.22" height="9.11"/><rect x="13.14" y="33.72" style="fill:none" width="12.22" height="9.11"/><rect x="13.14" y="-.53" style="fill:none" width="12.22" height="9.11"/><rect x="140.83" y="144.85" style="fill:none" width="15.86" height="9.11"/><rect x="179.67" y="144.85" style="fill:none" width="15.86" height="9.11"/><rect x="218.52" y="144.85" style="fill:none" width="15.86" height="9.11"/><rect x="257.37" y="144.85" style="fill:none" width="15.86" height="9.11"/><rect x="295.22" y="144.85" style="fill:none" width="15.42" height="9.11"/><path style="fill:none;stroke:#b9519e;stroke-width:.5;stroke-linejoin:round" d="M381.84 4.03h116.54M284.72 6.77c32.25-3.79 64.72-2.74 97.12-2.74m-233.08 41.1c43.16-19.28 88.96-32.84 135.97-38.36M71.06 90.8c22.3-19.23 50.98-33.74 77.7-45.67m-97.12 65.46c5.65-7.31 12.42-13.76 19.42-19.79m-38.85 50.24c6.47-10.15 12.06-20.92 19.42-30.45"/><text transform="translate(65.626 151.79)" style="font-family:'Asap-Regular';font-size:7px">400</text><text transform="translate(141.526 151.79)" style="font-family:'Asap-Regular';font-size:7px">1,200</text><text transform="translate(180.13 151.79)" style="font-family:'Asap-Regular';font-size:7px">1,600</text><text transform="translate(219.163 151.79)" style="font-family:'Asap-Regular';font-size:7px">2,000</text><text transform="translate(258.199 151.79)" style="font-family:'Asap-Regular';font-size:7px">2,400</text><text transform="translate(294.8 151.79)" style="font-family:'Asap-Regular';font-size:7px">2,800</text><text transform="translate(104.66 151.79)" style="font-family:'Asap-Regular';font-size:7px">800</text><text transform="translate(195.533 38.167)"><tspan x="0" y="0" style="font-family:'Asap-Regular';font-size:6px">The farmers’ production function:</tspan><tspan x="0" y="7.2" style="font-family:'Asap-Regular';font-size:6px">This shows how the number of</tspan><tspan x="0" y="14.4" style="font-family:'Asap-Regular';font-size:6px">farmers working the land</tspan><tspan x="0" y="21.6" style="font-family:'Asap-Regular';font-size:6px">translates into grain harvested.</tspan></text></svg>