<svg version="1.1" xmlns="http://www.w3.org/2000/svg" x="0" y="0" viewBox="0 0 311.81 144.57" style="enable-background:new 0 0 311.81 144.57" xml:space="preserve"><polyline style="fill:#cfa9b1" points="236.26 142.06 236.26 107.44 155.08 107.44 155.08 142.06 236.26 142.06"/><polyline style="fill:#cea9b2" points="237.12 142.06 237.12 107.44 158.2 107.44 158.2 142.06 237.12 142.06"/><polyline style="fill:#cea9b2" points="237.99 142.06 237.99 107.44 161.32 107.44 161.32 142.06 237.99 142.06"/><polyline style="fill:#cda9b3" points="238.86 142.06 238.86 107.44 164.45 107.44 164.45 142.06 238.86 142.06"/><polyline style="fill:#cca9b4" points="239.72 142.06 239.72 107.44 167.57 107.44 167.57 142.06 239.72 142.06"/><polyline style="fill:#cca9b4" points="240.59 142.06 240.59 107.44 170.69 107.44 170.69 142.06 240.59 142.06"/><polyline style="fill:#cba9b5" points="241.45 142.06 241.45 107.44 173.81 107.44 173.81 142.06 241.45 142.06"/><polyline style="fill:#caa9b5" points="242.32 142.06 242.32 107.44 176.94 107.44 176.94 142.06 242.32 142.06"/><polyline style="fill:#c9a9b6" points="243.18 142.06 243.18 107.44 180.06 107.44 180.06 142.06 243.18 142.06"/><polyline style="fill:#c9a9b7" points="244.05 142.06 244.05 107.44 183.18 107.44 183.18 142.06 244.05 142.06"/><polyline style="fill:#c8a9b7" points="244.91 142.06 244.91 107.44 186.3 107.44 186.3 142.06 244.91 142.06"/><polyline style="fill:#c7a9b8" points="245.78 142.06 245.78 107.44 189.42 107.44 189.42 142.06 245.78 142.06"/><polyline style="fill:#c7a9b9" points="246.65 142.06 246.65 107.44 192.55 107.44 192.55 142.06 246.65 142.06"/><polyline style="fill:#c6a9b9" points="247.51 142.06 247.51 107.44 195.67 107.44 195.67 142.06 247.51 142.06"/><polyline style="fill:#c5a9ba" points="248.38 142.06 248.38 107.44 198.79 107.44 198.79 142.06 248.38 142.06"/><polyline style="fill:#c4a9ba" points="249.24 142.06 249.24 107.44 201.91 107.44 201.91 142.06 249.24 142.06"/><polyline style="fill:#c4a9bb" points="250.11 142.06 250.11 107.44 205.04 107.44 205.04 142.06 250.11 142.06"/><polyline style="fill:#c3a9bc" points="250.97 142.06 250.97 107.44 208.16 107.44 208.16 142.06 250.97 142.06"/><polyline style="fill:#c2a9bc" points="251.84 142.06 251.84 107.44 211.28 107.44 211.28 142.06 251.84 142.06"/><polyline style="fill:#c1a9bd" points="252.7 142.06 252.7 107.44 214.4 107.44 214.4 142.06 252.7 142.06"/><polyline style="fill:#c1a9bd" points="253.57 142.06 253.57 107.44 217.53 107.44 217.53 142.06 253.57 142.06"/><polyline style="fill:#c0a9be" points="254.44 142.06 254.44 107.44 220.65 107.44 220.65 142.06 254.44 142.06"/><polyline style="fill:#bfa9bf" points="255.3 142.06 255.3 107.44 223.77 107.44 223.77 142.06 255.3 142.06"/><polyline style="fill:#bea8bf" points="256.17 142.06 256.17 107.44 226.89 107.44 226.89 142.06 256.17 142.06"/><polyline style="fill:#bea8c0" points="257.03 142.06 257.03 107.44 230.01 107.44 230.01 142.06 257.03 142.06"/><polyline style="fill:#bda8c1" points="257.9 142.06 257.9 107.44 233.14 107.44 233.14 142.06 257.9 142.06"/><polyline style="fill:#bca8c1" points="258.76 142.06 258.76 107.44 236.26 107.44 236.26 142.06 258.76 142.06"/><rect x="1.69" y="37.13" style="fill:#ec2426" width="93.43" height="34.53"/><rect x="3.3" y="37.13" style="fill:#eb2527" width="92.84" height="34.53"/><rect x="4.91" y="37.13" style="fill:#ea2528" width="92.24" height="34.53"/><rect x="6.52" y="37.13" style="fill:#e92628" width="91.64" height="34.53"/><rect x="8.13" y="37.13" style="fill:#e82629" width="91.04" height="34.53"/><rect x="9.74" y="37.13" style="fill:#e82729" width="90.44" height="34.53"/><rect x="11.35" y="37.13" style="fill:#e7272a" width="89.84" height="34.53"/><rect x="12.96" y="37.13" style="fill:#e6272a" width="89.24" height="34.53"/><rect x="14.58" y="37.13" style="fill:#e6282b" width="88.65" height="34.53"/><rect x="16.19" y="37.13" style="fill:#e5282b" width="88.05" height="34.53"/><rect x="17.8" y="37.13" style="fill:#e4282c" width="87.45" height="34.53"/><rect x="19.41" y="37.13" style="fill:#e4292d" width="86.85" height="34.53"/><rect x="21.02" y="37.13" style="fill:#e3292d" width="86.25" height="34.53"/><rect x="22.63" y="37.13" style="fill:#e22a2e" width="85.65" height="34.53"/><rect x="24.24" y="37.13" style="fill:#e22a2e" width="85.05" height="34.53"/><rect x="25.85" y="37.13" style="fill:#e12a2f" width="84.46" height="34.53"/><rect x="27.46" y="37.13" style="fill:#e12b30" width="83.86" height="34.53"/><rect x="29.07" y="37.13" style="fill:#e02b30" width="83.26" height="34.53"/><rect x="30.69" y="37.13" style="fill:#df2b31" width="82.66" height="34.53"/><rect x="32.3" y="37.13" style="fill:#df2c31" width="82.06" height="34.53"/><rect x="33.91" y="37.13" style="fill:#de2c32" width="81.46" height="34.53"/><rect x="35.52" y="37.13" style="fill:#de2c32" width="80.86" height="34.53"/><rect x="37.13" y="37.13" style="fill:#dd2d33" width="80.27" height="34.53"/><rect x="38.74" y="37.13" style="fill:#dc2d33" width="79.67" height="34.53"/><rect x="40.35" y="37.13" style="fill:#dc2d34" width="79.07" height="34.53"/><rect x="41.96" y="37.13" style="fill:#db2d34" width="78.47" height="34.53"/><rect x="43.57" y="37.13" style="fill:#da2e35" width="77.87" height="34.53"/><rect x="45.18" y="37.13" style="fill:#da2e35" width="77.27" height="34.53"/><rect x="46.79" y="37.13" style="fill:#d92f36" width="76.67" height="34.53"/><rect x="48.41" y="37.13" style="fill:#d82f37" width="76.08" height="34.53"/><rect x="50.02" y="37.13" style="fill:#d82f37" width="75.48" height="34.53"/><rect x="51.63" y="37.13" style="fill:#d73038" width="74.88" height="34.53"/><rect x="53.24" y="37.13" style="fill:#d63038" width="74.28" height="34.53"/><rect x="54.85" y="37.13" style="fill:#d63039" width="73.68" height="34.53"/><rect x="56.46" y="37.13" style="fill:#d53139" width="73.08" height="34.53"/><rect x="58.07" y="37.13" style="fill:#d5313a" width="72.48" height="34.53"/><rect x="59.68" y="37.13" style="fill:#d4313b" width="71.89" height="34.53"/><rect x="61.29" y="37.13" style="fill:#d3313b" width="71.29" height="34.53"/><rect x="62.9" y="37.13" style="fill:#d3323c" width="70.69" height="34.53"/><rect x="64.51" y="37.13" style="fill:#d2323c" width="70.09" height="34.53"/><rect x="66.13" y="37.13" style="fill:#d1323d" width="69.49" height="34.53"/><rect x="67.74" y="37.13" style="fill:#d1333d" width="68.89" height="34.53"/><rect x="69.35" y="37.13" style="fill:#d0333e" width="68.29" height="34.53"/><rect x="70.96" y="37.13" style="fill:#cf333f" width="67.7" height="34.53"/><rect x="72.57" y="37.13" style="fill:#cf343f" width="67.1" height="34.53"/><rect x="74.18" y="37.13" style="fill:#ce3440" width="66.5" height="34.53"/><rect x="75.79" y="37.13" style="fill:#ce3440" width="65.9" height="34.53"/><rect x="77.4" y="37.13" style="fill:#cd3441" width="65.3" height="34.53"/><rect x="79.01" y="37.13" style="fill:#cc3541" width="64.7" height="34.53"/><rect x="80.62" y="37.13" style="fill:#cc3542" width="64.1" height="34.53"/><rect x="82.24" y="37.13" style="fill:#cb3543" width="63.51" height="34.53"/><rect x="83.85" y="37.13" style="fill:#ca3543" width="62.91" height="34.53"/><rect x="85.46" y="37.13" style="fill:#ca3644" width="62.31" height="34.53"/><rect x="87.07" y="37.13" style="fill:#c93644" width="61.71" height="34.53"/><rect x="88.68" y="37.13" style="fill:#c83645" width="61.11" height="34.53"/><rect x="90.29" y="37.13" style="fill:#c83645" width="60.51" height="34.53"/><rect x="91.9" y="37.13" style="fill:#c73746" width="59.91" height="34.53"/><rect x="93.51" y="37.13" style="fill:#c63746" width="59.32" height="34.53"/><rect x="95.12" y="37.13" style="fill:#c63747" width="58.72" height="34.53"/><g><polyline style="fill:#ec2426" points="202.46 36.51 202.46 2.47 155.41 2.47 155.41 36.51 202.46 36.51"/><polyline style="fill:#eb2527" points="202.5 36.51 202.5 2.47 155.79 2.47 155.79 36.51 202.5 36.51"/><polyline style="fill:#ea2527" points="202.53 36.51 202.53 2.47 156.18 2.47 156.18 36.51 202.53 36.51"/><polyline style="fill:#e92628" points="202.56 36.51 202.56 2.47 156.56 2.47 156.56 36.51 202.56 36.51"/><polyline style="fill:#e92629" points="202.59 36.51 202.59 2.47 156.95 2.47 156.95 36.51 202.59 36.51"/><polyline style="fill:#e82729" points="202.62 36.51 202.62 2.47 157.33 2.47 157.33 36.51 202.62 36.51"/><polyline style="fill:#e7272a" points="202.65 36.51 202.65 2.47 157.72 2.47 157.72 36.51 202.65 36.51"/><polyline style="fill:#e6282a" points="202.68 36.51 202.68 2.47 158.11 2.47 158.11 36.51 202.68 36.51"/><polyline style="fill:#e6282b" points="202.71 36.51 202.71 2.47 158.49 2.47 158.49 36.51 202.71 36.51"/><polyline style="fill:#e5282b" points="202.75 36.52 202.75 2.47 158.88 2.47 158.88 36.52 202.75 36.52"/><polyline style="fill:#e5292c" points="202.78 36.52 202.78 2.47 159.26 2.47 159.26 36.52 202.78 36.52"/><polyline style="fill:#e4292d" points="202.81 36.52 202.81 2.47 159.65 2.47 159.65 36.52 202.81 36.52"/><polyline style="fill:#e32a2d" points="202.84 36.52 202.84 2.47 160.03 2.47 160.03 36.52 202.84 36.52"/><polyline style="fill:#e32a2e" points="202.87 36.52 202.87 2.47 160.42 2.47 160.42 36.52 202.87 36.52"/><polyline style="fill:#e22a2e" points="202.9 36.52 202.9 2.47 160.81 2.47 160.81 36.52 202.9 36.52"/><polyline style="fill:#e22b2f" points="202.93 36.52 202.93 2.48 161.19 2.48 161.19 36.52 202.93 36.52"/><polyline style="fill:#e12b2f" points="202.96 36.52 202.96 2.48 161.58 2.48 161.58 36.52 202.96 36.52"/><polyline style="fill:#e02b30" points="203 36.52 203 2.48 161.96 2.48 161.96 36.52 203 36.52"/><polyline style="fill:#e02c31" points="203.03 36.52 203.03 2.48 162.35 2.48 162.35 36.52 203.03 36.52"/><polyline style="fill:#df2c31" points="203.06 36.52 203.06 2.48 162.73 2.48 162.73 36.52 203.06 36.52"/><polyline style="fill:#df2d32" points="203.09 36.52 203.09 2.48 163.12 2.48 163.12 36.52 203.09 36.52"/><polyline style="fill:#de2d32" points="203.12 36.52 203.12 2.48 163.51 2.48 163.51 36.52 203.12 36.52"/><polyline style="fill:#dd2d33" points="203.15 36.52 203.15 2.48 163.89 2.48 163.89 36.52 203.15 36.52"/><polyline style="fill:#dd2e33" points="203.18 36.52 203.18 2.48 164.28 2.48 164.28 36.52 203.18 36.52"/><polyline style="fill:#dc2e34" points="203.21 36.52 203.21 2.48 164.66 2.48 164.66 36.52 203.21 36.52"/><polyline style="fill:#dc2e34" points="203.25 36.52 203.25 2.48 165.05 2.48 165.05 36.52 203.25 36.52"/><polyline style="fill:#db2f35" points="203.28 36.52 203.28 2.48 165.43 2.48 165.43 36.52 203.28 36.52"/><polyline style="fill:#da2f35" points="203.31 36.53 203.31 2.48 165.82 2.48 165.82 36.53 203.31 36.53"/><polyline style="fill:#da2f36" points="203.34 36.53 203.34 2.48 166.21 2.48 166.21 36.53 203.34 36.53"/><polyline style="fill:#d93037" points="203.37 36.53 203.37 2.48 166.59 2.48 166.59 36.53 203.37 36.53"/><polyline style="fill:#d93037" points="203.4 36.53 203.4 2.48 166.98 2.48 166.98 36.53 203.4 36.53"/><polyline style="fill:#d83138" points="203.43 36.53 203.43 2.48 167.36 2.48 167.36 36.53 203.43 36.53"/><polyline style="fill:#d73138" points="203.46 36.53 203.46 2.48 167.75 2.48 167.75 36.53 203.46 36.53"/><polyline style="fill:#d73139" points="203.5 36.53 203.5 2.49 168.13 2.49 168.13 36.53 203.5 36.53"/><polyline style="fill:#d63239" points="203.53 36.53 203.53 2.49 168.52 2.49 168.52 36.53 203.53 36.53"/><polyline style="fill:#d5323a" points="203.56 36.53 203.56 2.49 168.91 2.49 168.91 36.53 203.56 36.53"/><polyline style="fill:#d5323b" points="203.59 36.53 203.59 2.49 169.29 2.49 169.29 36.53 203.59 36.53"/><polyline style="fill:#d4333b" points="203.62 36.53 203.62 2.49 169.68 2.49 169.68 36.53 203.62 36.53"/><polyline style="fill:#d4333c" points="203.65 36.53 203.65 2.49 170.06 2.49 170.06 36.53 203.65 36.53"/><polyline style="fill:#d3333c" points="203.68 36.53 203.68 2.49 170.45 2.49 170.45 36.53 203.68 36.53"/><polyline style="fill:#d2343d" points="203.71 36.53 203.71 2.49 170.83 2.49 170.83 36.53 203.71 36.53"/><polyline style="fill:#d2343d" points="203.74 36.53 203.74 2.49 171.22 2.49 171.22 36.53 203.74 36.53"/><polyline style="fill:#d1343e" points="203.78 36.53 203.78 2.49 171.61 2.49 171.61 36.53 203.78 36.53"/><polyline style="fill:#d1343f" points="203.81 36.53 203.81 2.49 171.99 2.49 171.99 36.53 203.81 36.53"/><polyline style="fill:#d0353f" points="203.84 36.53 203.84 2.49 172.38 2.49 172.38 36.53 203.84 36.53"/><polyline style="fill:#cf3540" points="203.87 36.54 203.87 2.49 172.76 2.49 172.76 36.54 203.87 36.54"/><polyline style="fill:#cf3540" points="203.9 36.54 203.9 2.49 173.15 2.49 173.15 36.54 203.9 36.54"/><polyline style="fill:#ce3641" points="203.93 36.54 203.93 2.49 173.53 2.49 173.53 36.54 203.93 36.54"/><polyline style="fill:#cd3641" points="203.96 36.54 203.96 2.49 173.92 2.49 173.92 36.54 203.96 36.54"/><polyline style="fill:#cd3642" points="203.99 36.54 203.99 2.49 174.31 2.49 174.31 36.54 203.99 36.54"/><polyline style="fill:#cc3643" points="204.03 36.54 204.03 2.49 174.69 2.49 174.69 36.54 204.03 36.54"/><polyline style="fill:#cc3743" points="204.06 36.54 204.06 2.5 175.08 2.5 175.08 36.54 204.06 36.54"/><polyline style="fill:#cb3744" points="204.09 36.54 204.09 2.5 175.46 2.5 175.46 36.54 204.09 36.54"/><polyline style="fill:#ca3744" points="204.12 36.54 204.12 2.5 175.85 2.5 175.85 36.54 204.12 36.54"/><polyline style="fill:#ca3845" points="204.15 36.54 204.15 2.5 176.23 2.5 176.23 36.54 204.15 36.54"/><polyline style="fill:#c93845" points="204.18 36.54 204.18 2.5 176.62 2.5 176.62 36.54 204.18 36.54"/><polyline style="fill:#c93846" points="204.21 36.54 204.21 2.5 177.01 2.5 177.01 36.54 204.21 36.54"/><polyline style="fill:#c83846" points="204.24 36.54 204.24 2.5 177.39 2.5 177.39 36.54 204.24 36.54"/><polyline style="fill:#c73947" points="204.28 36.54 204.28 2.5 177.78 2.5 177.78 36.54 204.28 36.54"/><polyline style="fill:#c73948" points="204.31 36.54 204.31 2.5 178.16 2.5 178.16 36.54 204.31 36.54"/><polyline style="fill:#c63948" points="204.34 36.54 204.34 2.5 178.55 2.5 178.55 36.54 204.34 36.54"/><polyline style="fill:#c53949" points="204.37 36.54 204.37 2.5 178.93 2.5 178.93 36.54 204.37 36.54"/><polyline style="fill:#c53a49" points="204.4 36.54 204.4 2.5 179.32 2.5 179.32 36.54 204.4 36.54"/><polyline style="fill:#c43a4a" points="204.43 36.55 204.43 2.5 179.71 2.5 179.71 36.55 204.43 36.55"/><polyline style="fill:#c33a4a" points="204.46 36.55 204.46 2.5 180.09 2.5 180.09 36.55 204.46 36.55"/><polyline style="fill:#c33b4b" points="204.49 36.55 204.49 2.5 180.48 2.5 180.48 36.55 204.49 36.55"/><polyline style="fill:#c23b4b" points="204.53 36.55 204.53 2.5 180.86 2.5 180.86 36.55 204.53 36.55"/><polyline style="fill:#c23b4c" points="204.56 36.55 204.56 2.5 181.25 2.5 181.25 36.55 204.56 36.55"/><polyline style="fill:#c13b4c" points="204.59 36.55 204.59 2.5 181.63 2.5 181.63 36.55 204.59 36.55"/><polyline style="fill:#c03c4d" points="204.62 36.55 204.62 2.5 182.02 2.5 182.02 36.55 204.62 36.55"/><polyline style="fill:#c03c4e" points="204.65 36.55 204.65 2.51 182.41 2.51 182.41 36.55 204.65 36.55"/><polyline style="fill:#bf3c4e" points="204.68 36.55 204.68 2.51 182.79 2.51 182.79 36.55 204.68 36.55"/><polyline style="fill:#be3c4f" points="204.71 36.55 204.71 2.51 183.18 2.51 183.18 36.55 204.71 36.55"/><polyline style="fill:#be3c4f" points="204.74 36.55 204.74 2.51 183.56 2.51 183.56 36.55 204.74 36.55"/><polyline style="fill:#bd3d50" points="204.78 36.55 204.78 2.51 183.95 2.51 183.95 36.55 204.78 36.55"/><polyline style="fill:#bc3d50" points="204.81 36.55 204.81 2.51 184.34 2.51 184.34 36.55 204.81 36.55"/><polyline style="fill:#bc3d51" points="204.84 36.55 204.84 2.51 184.72 2.51 184.72 36.55 204.84 36.55"/><polyline style="fill:#bb3d51" points="204.87 36.55 204.87 2.51 185.11 2.51 185.11 36.55 204.87 36.55"/><polyline style="fill:#bb3e52" points="204.9 36.55 204.9 2.51 185.49 2.51 185.49 36.55 204.9 36.55"/><polyline style="fill:#ba3e52" points="204.93 36.55 204.93 2.51 185.88 2.51 185.88 36.55 204.93 36.55"/><polyline style="fill:#b93e53" points="204.96 36.55 204.96 2.51 186.26 2.51 186.26 36.55 204.96 36.55"/><polyline style="fill:#b93e53" points="204.99 36.55 204.99 2.51 186.65 2.51 186.65 36.55 204.99 36.55"/><polyline style="fill:#b83e54" points="205.03 36.56 205.03 2.51 187.04 2.51 187.04 36.56 205.03 36.56"/><polyline style="fill:#b73f54" points="205.06 36.56 205.06 2.51 187.42 2.51 187.42 36.56 205.06 36.56"/><polyline style="fill:#b73f55" points="205.09 36.56 205.09 2.51 187.81 2.51 187.81 36.56 205.09 36.56"/><polyline style="fill:#b63f55" points="205.12 36.56 205.12 2.51 188.19 2.51 188.19 36.56 205.12 36.56"/><polyline style="fill:#b53f56" points="205.15 36.56 205.15 2.51 188.58 2.51 188.58 36.56 205.15 36.56"/><polyline style="fill:#b53f56" points="205.18 36.56 205.18 2.51 188.96 2.51 188.96 36.56 205.18 36.56"/><polyline style="fill:#b44057" points="205.21 36.56 205.21 2.52 189.35 2.52 189.35 36.56 205.21 36.56"/><polyline style="fill:#b34057" points="205.24 36.56 205.24 2.52 189.74 2.52 189.74 36.56 205.24 36.56"/><polyline style="fill:#b34058" points="205.28 36.56 205.28 2.52 190.12 2.52 190.12 36.56 205.28 36.56"/><polyline style="fill:#b24058" points="205.31 36.56 205.31 2.52 190.51 2.52 190.51 36.56 205.31 36.56"/><polyline style="fill:#b24058" points="205.34 36.56 205.34 2.52 190.89 2.52 190.89 36.56 205.34 36.56"/><polyline style="fill:#b14159" points="205.37 36.56 205.37 2.52 191.28 2.52 191.28 36.56 205.37 36.56"/><polyline style="fill:#b04159" points="205.4 36.56 205.4 2.52 191.66 2.52 191.66 36.56 205.4 36.56"/><polyline style="fill:#b0415a" points="205.43 36.56 205.43 2.52 192.05 2.52 192.05 36.56 205.43 36.56"/><polyline style="fill:#af415a" points="205.46 36.56 205.46 2.52 192.44 2.52 192.44 36.56 205.46 36.56"/><polyline style="fill:#ae415b" points="205.49 36.56 205.49 2.52 192.82 2.52 192.82 36.56 205.49 36.56"/><polyline style="fill:#ae425b" points="205.53 36.56 205.53 2.52 193.21 2.52 193.21 36.56 205.53 36.56"/><polyline style="fill:#ad425c" points="205.56 36.56 205.56 2.52 193.59 2.52 193.59 36.56 205.56 36.56"/><polyline style="fill:#ac425c" points="205.59 36.57 205.59 2.52 193.98 2.52 193.98 36.57 205.59 36.57"/><polyline style="fill:#ac425d" points="205.62 36.57 205.62 2.52 194.36 2.52 194.36 36.57 205.62 36.57"/><polyline style="fill:#ab425d" points="205.65 36.57 205.65 2.52 194.75 2.52 194.75 36.57 205.65 36.57"/><polyline style="fill:#aa435e" points="205.68 36.57 205.68 2.52 195.14 2.52 195.14 36.57 205.68 36.57"/><polyline style="fill:#aa435e" points="205.71 36.57 205.71 2.52 195.52 2.52 195.52 36.57 205.71 36.57"/><polyline style="fill:#a9435f" points="205.74 36.57 205.74 2.52 195.91 2.52 195.91 36.57 205.74 36.57"/><polyline style="fill:#a8435f" points="205.78 36.57 205.78 2.53 196.29 2.53 196.29 36.57 205.78 36.57"/><polyline style="fill:#a8435f" points="205.81 36.57 205.81 2.53 196.68 2.53 196.68 36.57 205.81 36.57"/><polyline style="fill:#a74360" points="205.84 36.57 205.84 2.53 197.06 2.53 197.06 36.57 205.84 36.57"/><polyline style="fill:#a64460" points="205.87 36.57 205.87 2.53 197.45 2.53 197.45 36.57 205.87 36.57"/><polyline style="fill:#a64461" points="205.9 36.57 205.9 2.53 197.84 2.53 197.84 36.57 205.9 36.57"/><polyline style="fill:#a54461" points="205.93 36.57 205.93 2.53 198.22 2.53 198.22 36.57 205.93 36.57"/><polyline style="fill:#a54462" points="205.96 36.57 205.96 2.53 198.61 2.53 198.61 36.57 205.96 36.57"/><polyline style="fill:#a44462" points="205.99 36.57 205.99 2.53 198.99 2.53 198.99 36.57 205.99 36.57"/><polyline style="fill:#a34463" points="206.03 36.57 206.03 2.53 199.38 2.53 199.38 36.57 206.03 36.57"/><polyline style="fill:#a34463" points="206.06 36.57 206.06 2.53 199.76 2.53 199.76 36.57 206.06 36.57"/><polyline style="fill:#a24564" points="206.09 36.57 206.09 2.53 200.15 2.53 200.15 36.57 206.09 36.57"/><polyline style="fill:#a14564" points="206.12 36.57 206.12 2.53 200.54 2.53 200.54 36.57 206.12 36.57"/><polyline style="fill:#a14564" points="206.15 36.58 206.15 2.53 200.92 2.53 200.92 36.58 206.15 36.58"/><polyline style="fill:#a04565" points="206.18 36.58 206.18 2.53 201.31 2.53 201.31 36.58 206.18 36.58"/><polyline style="fill:#9f4565" points="206.21 36.58 206.21 2.53 201.69 2.53 201.69 36.58 206.21 36.58"/><polyline style="fill:#9f4566" points="206.24 36.58 206.24 2.53 202.08 2.53 202.08 36.58 206.24 36.58"/><polyline style="fill:#9e4566" points="206.28 36.58 206.28 2.53 202.46 2.53 202.46 36.58 206.28 36.58"/></g><polyline style="fill:#ed2124;stroke:#fff;stroke-width:1.0493;stroke-miterlimit:10" points="102.88 37.13 102.88 1.98 37.32 1.98 37.32 37.13 102.88 37.13"/><polyline style="fill:#ed2124;stroke:#fff;stroke-width:1.0493;stroke-miterlimit:10" points="154.42 37.13 154.42 1.98 102.39 1.98 102.39 37.13 154.42 37.13"/><polyline style="fill:#bca8c1;stroke:#fff;stroke-width:.9;stroke-miterlimit:10" points="258.82 107.44 258.82 72.28 207.05 72.28 207.05 107.44 258.82 107.44"/><polyline style="fill:#bca8c1;stroke:#fff;stroke-width:.9;stroke-miterlimit:10" points="310.59 107.44 310.59 72.28 258.82 72.28 258.82 107.44 310.59 107.44"/><polyline style="fill:#9e4566;stroke:#fff;stroke-width:.9;stroke-miterlimit:10" points="206.7 72.28 206.7 37.13 154.76 37.13 154.76 72.28 206.7 72.28"/><polygon style="fill:#f9aa8f;stroke:#fff;stroke-width:1.0493;stroke-miterlimit:10" points="36.38 1.98 1.23 1.98 1.23 37.13 36.38 37.13 50.28 19.56"/><text transform="translate(7.644 21.656)" style="fill:#fff;font-family:'Asap-Bold';font-size:6px">Black Death</text><text transform="translate(53.029 17.808)"><tspan x="0" y="0" style="fill:#fff;font-family:'Asap-Regular';font-size:6px">Population and</tspan><tspan x="0" y="7.2" style="fill:#fff;font-family:'Asap-Regular';font-size:6px">labour supply fall</tspan></text><text transform="translate(109.124 17.808)"><tspan x="0" y="0" style="fill:#fff;font-family:'Asap-Regular';font-size:6px">More and better</tspan><tspan x="0" y="7.2" style="fill:#fff;font-family:'Asap-Regular';font-size:6px">land per farmer</tspan></text><text transform="translate(161.009 17.81)"><tspan x="0" y="0" style="fill:#fff;font-family:'Asap-Regular';font-size:6px">Average output</tspan><tspan x="0" y="7.2" style="fill:#fff;font-family:'Asap-Regular';font-size:6px">per farmer rises</tspan></text><text transform="translate(161.009 54.107)"><tspan x="0" y="0" style="fill:#fff;font-family:'Asap-Regular';font-size:6px">Rural income</tspan><tspan x="0" y="7.2" style="fill:#fff;font-family:'Asap-Regular';font-size:6px">and wages rise</tspan></text><text transform="translate(8.591 52.881)"><tspan x="0" y="0" style="fill:#fff;font-family:'Asap-Regular';font-size:6px">Bargaining power of farmers and</tspan><tspan x="22.4" y="7.2" style="fill:#fff;font-family:'Asap-Regular';font-size:6px">employees rises</tspan></text><text transform="translate(161.009 123.186)"><tspan x="0" y="0" style="fill:#fff;font-family:'Asap-Regular';font-size:6px">Bargaining power of farmer and</tspan><tspan x="0" y="7.2" style="fill:#fff;font-family:'Asap-Regular';font-size:6px">employees falls</tspan></text><g><text transform="translate(115.902 52.881)"><tspan x="0" y="0" style="fill:#fff;font-family:'Asap-Regular';font-size:6px">Peasants’</tspan><tspan x="3.88" y="7.2" style="fill:#fff;font-family:'Asap-Regular';font-size:6px">Revolt</tspan></text></g><polyline style="fill:#fff" points="102.39 16.98 107.06 19.56 102.39 22.13"/><polyline style="fill:#fff" points="102.39 52.14 107.06 54.71 102.39 57.28"/><polyline style="fill:#fff" points="154.42 16.98 159.09 19.56 154.42 22.13"/><polyline style="fill:#cfa9b1;stroke:#fff;stroke-width:.9;stroke-miterlimit:10" points="206.7 107.44 206.7 72.28 154.59 72.28 154.59 107.44 206.7 107.44"/><text transform="translate(161.01 88.112)"><tspan x="0" y="0" style="fill:#fff;font-family:'Asap-Regular';font-size:6px">Population and</tspan><tspan x="0" y="7.2" style="fill:#fff;font-family:'Asap-Regular';font-size:6px">labour supply</tspan><tspan x="0" y="14.4" style="fill:#fff;font-family:'Asap-Regular';font-size:6px">rise</tspan></text><text transform="translate(220.056 88.112)"><tspan x="0" y="0" style="fill:#fff;font-family:'Asap-Regular';font-size:6px">Less land</tspan><tspan x="0" y="7.2" style="fill:#fff;font-family:'Asap-Regular';font-size:6px">per farmer</tspan></text><polyline style="fill:#fff" points="207.05 87.29 211.72 89.86 207.05 92.43"/><text transform="translate(267.024 88.112)"><tspan x="0" y="0" style="fill:#fff;font-family:'Asap-Regular';font-size:6px">Average output</tspan><tspan x="0" y="7.2" style="fill:#fff;font-family:'Asap-Regular';font-size:6px">per farmer falls</tspan></text><polyline style="fill:#fff" points="258.82 87.29 263.49 89.86 258.82 92.43"/><polyline style="fill:#a4a7d3;stroke:#fff;stroke-width:.9325;stroke-miterlimit:10" points="310.59 142.59 310.59 107.44 258.82 107.44 258.82 142.59 310.59 142.59"/><polyline style="fill:#fff" points="258.82 122.44 263.49 125.01 258.82 127.58"/><polyline style="fill:#fff" points="154.42 52.14 159.09 54.71 154.42 57.28"/><polyline style="fill:#fff" points="183.22 37.13 180.65 41.8 178.07 37.13"/><polyline style="fill:#fff" points="75.36 37.13 72.79 41.8 70.22 37.13"/><polyline style="fill:#fff" points="183.22 72.28 180.65 76.95 178.07 72.28"/><polyline style="fill:#fff" points="183.22 107.44 180.65 112.11 178.07 107.44"/><text transform="translate(267.024 123.186)"><tspan x="0" y="0" style="fill:#fff;font-family:'Asap-Regular';font-size:6px">Rural income</tspan><tspan x="0" y="7.2" style="fill:#fff;font-family:'Asap-Regular';font-size:6px">and wages fall</tspan></text><line style="fill:none;stroke:#fff;stroke-width:1.1324;stroke-miterlimit:10" x1="102.39" y1="37.19" x2="102.39" y2="78.94"/></svg>