<svg version="1.1" xmlns="http://www.w3.org/2000/svg" x="0" y="0" viewBox="0 0 311.81 144.79" style="enable-background:new 0 0 311.81 144.79" xml:space="preserve"><path style="fill:none;stroke:#27aae1;stroke-width:.5;stroke-miterlimit:10" d="M190.96 107.34s-3.58 3.15-3.58 9.87"/><polyline style="fill:none;stroke:#939598;stroke-width:.5;stroke-miterlimit:10;stroke-dasharray:1.4173" points="150.14 117.21 150.14 86.61 89.5 87.08"/><line style="fill:none;stroke:#f15c5b;stroke-width:.5;stroke-linecap:square;stroke-miterlimit:10" x1="89.5" y1="56" x2="210.47" y2="117.21"/><polygon style="fill:#fee7dc" points="89.5 56 89.5 2.55 240.63 2.55 240.63 117.21 210.47 117.21"/><circle cx="106.21" cy="26.93" r="1.13"/><circle cx="240.76" cy="102.73" r="1.13"/><circle cx="150.01" cy="86.93" r="1.13"/><g><text transform="translate(172.692 95.328)" style="font-family:'Asap-Regular';font-size:6px">Cost = £80</text><text transform="translate(243.196 99.996)" style="font-family:'Asap-Regular';font-size:6px">E</text><text transform="translate(152.225 83.515)" style="font-family:'Asap-Regular';font-size:6px">B</text><text transform="translate(108.639 24.199)" style="font-family:'Asap-Regular';font-size:6px">A</text><text transform="translate(152.257 42.265)" style="fill:#ed2124;font-family:'Asap-Regular';font-size:6px">Cost above £80</text><text transform="translate(212.488 112.755)" style="fill:#f15c5b;font-family:'Asap-Regular';font-size:6px">H</text><text transform="translate(92.53 54.198)" style="fill:#f15c5b;font-family:'Asap-Regular';font-size:6px">J</text></g><g><path style="fill:none;stroke:#6d6e71;stroke-width:.5;stroke-miterlimit:10" d="M248.68 117.21H89.5V2.55"/><line style="fill:none;stroke:#6d6e71;stroke-width:.5;stroke-miterlimit:10" x1="89.25" y1="86.17" x2="87.12" y2="86.17"/><line style="fill:none;stroke:#6d6e71;stroke-width:.5;stroke-miterlimit:10" x1="89.25" y1="71.08" x2="87.12" y2="71.08"/><line style="fill:none;stroke:#6d6e71;stroke-width:.5;stroke-miterlimit:10" x1="89.25" y1="56" x2="87.12" y2="56"/><line style="fill:none;stroke:#6d6e71;stroke-width:.5;stroke-miterlimit:10" x1="89.25" y1="40.92" x2="87.12" y2="40.92"/><line style="fill:none;stroke:#6d6e71;stroke-width:.5;stroke-miterlimit:10" x1="89.25" y1="25.84" x2="87.12" y2="25.84"/><line style="fill:none;stroke:#6d6e71;stroke-width:.5;stroke-miterlimit:10" x1="89.25" y1="10.76" x2="87.12" y2="10.76"/><line style="fill:none;stroke:#6d6e71;stroke-width:.5;stroke-miterlimit:10" x1="89.25" y1="101.25" x2="87.12" y2="101.25"/><line style="fill:none;stroke:#6d6e71;stroke-width:.5;stroke-miterlimit:10" x1="195.39" y1="117.48" x2="195.39" y2="119.61"/><line style="fill:none;stroke:#6d6e71;stroke-width:.5;stroke-miterlimit:10" x1="180.31" y1="117.48" x2="180.31" y2="119.61"/><line style="fill:none;stroke:#6d6e71;stroke-width:.5;stroke-miterlimit:10" x1="165.22" y1="117.48" x2="165.22" y2="119.61"/><line style="fill:none;stroke:#6d6e71;stroke-width:.5;stroke-miterlimit:10" x1="150.14" y1="117.48" x2="150.14" y2="119.61"/><line style="fill:none;stroke:#6d6e71;stroke-width:.5;stroke-miterlimit:10" x1="135.06" y1="117.48" x2="135.06" y2="119.61"/><line style="fill:none;stroke:#6d6e71;stroke-width:.5;stroke-miterlimit:10" x1="119.98" y1="117.48" x2="119.98" y2="119.61"/><line style="fill:none;stroke:#6d6e71;stroke-width:.5;stroke-miterlimit:10" x1="104.9" y1="117.48" x2="104.9" y2="119.61"/><line style="fill:none;stroke:#6d6e71;stroke-width:.5;stroke-miterlimit:10" x1="240.63" y1="117.48" x2="240.63" y2="119.61"/><line style="fill:none;stroke:#6d6e71;stroke-width:.5;stroke-miterlimit:10" x1="225.55" y1="117.48" x2="225.55" y2="119.61"/><text transform="translate(77.337 103.992)" style="font-family:'Asap-Regular';font-size:7px">1</text><text transform="translate(102.764 129.727)" style="font-family:'Asap-Regular';font-size:7px">1</text><text transform="translate(118.097 129.727)" style="font-family:'Asap-Regular';font-size:7px">2</text><text transform="translate(133.43 129.727)" style="font-family:'Asap-Regular';font-size:7px">3</text><text transform="translate(148.766 129.727)" style="font-family:'Asap-Regular';font-size:7px">4</text><text transform="translate(164.099 129.727)" style="font-family:'Asap-Regular';font-size:7px">5</text><text transform="translate(179.433 129.727)" style="font-family:'Asap-Regular';font-size:7px">6</text><text transform="translate(194.767 129.727)" style="font-family:'Asap-Regular';font-size:7px">7</text><text transform="translate(210.1 129.727)" style="font-family:'Asap-Regular';font-size:7px">8</text><text transform="translate(225.435 129.727)" style="font-family:'Asap-Regular';font-size:7px">9</text><text transform="translate(238.64 129.727)" style="font-family:'Asap-Regular';font-size:7px">10</text><text transform="translate(77.337 88.895)" style="font-family:'Asap-Regular';font-size:7px">2</text><text transform="translate(77.337 73.797)" style="font-family:'Asap-Regular';font-size:7px">3</text><text transform="translate(77.337 58.7)" style="font-family:'Asap-Regular';font-size:7px">4</text><text transform="translate(77.337 43.602)" style="font-family:'Asap-Regular';font-size:7px">5</text><text transform="translate(77.337 28.505)" style="font-family:'Asap-Regular';font-size:7px">6</text><text transform="translate(77.337 13.408)" style="font-family:'Asap-Regular';font-size:7px">7</text><text transform="rotate(-90 76.111 8.683)" style="font-family:'Asap-Medium';font-size:8px">Tonnes of coal</text><text transform="translate(137.746 141.595)" style="font-family:'Asap-Medium';font-size:8px">Number of workers</text><line style="fill:none;stroke:#6d6e71;stroke-width:.5;stroke-miterlimit:10" x1="210.55" y1="117.48" x2="210.55" y2="119.61"/></g></svg>