<svg version="1.1" xmlns="http://www.w3.org/2000/svg" x="0" y="0" viewBox="0 0 311.81 144.57" style="enable-background:new 0 0 311.81 144.57" xml:space="preserve"><polyline style="fill:#cfa9b1" points="236.26 142.06 236.26 107.44 155.08 107.44 155.08 142.06 236.26 142.06"/><polyline style="fill:#cea9b2" points="237.12 142.06 237.12 107.44 158.2 107.44 158.2 142.06 237.12 142.06"/><polyline style="fill:#cea9b2" points="237.99 142.06 237.99 107.44 161.32 107.44 161.32 142.06 237.99 142.06"/><polyline style="fill:#cda9b3" points="238.86 142.06 238.86 107.44 164.45 107.44 164.45 142.06 238.86 142.06"/><polyline style="fill:#cca9b4" points="239.72 142.06 239.72 107.44 167.57 107.44 167.57 142.06 239.72 142.06"/><polyline style="fill:#cca9b4" points="240.59 142.06 240.59 107.44 170.69 107.44 170.69 142.06 240.59 142.06"/><polyline style="fill:#cba9b5" points="241.45 142.06 241.45 107.44 173.81 107.44 173.81 142.06 241.45 142.06"/><polyline style="fill:#caa9b5" points="242.32 142.06 242.32 107.44 176.94 107.44 176.94 142.06 242.32 142.06"/><polyline style="fill:#c9a9b6" points="243.18 142.06 243.18 107.44 180.06 107.44 180.06 142.06 243.18 142.06"/><polyline style="fill:#c9a9b7" points="244.05 142.06 244.05 107.44 183.18 107.44 183.18 142.06 244.05 142.06"/><polyline style="fill:#c8a9b7" points="244.91 142.06 244.91 107.44 186.3 107.44 186.3 142.06 244.91 142.06"/><polyline style="fill:#c7a9b8" points="245.78 142.06 245.78 107.44 189.42 107.44 189.42 142.06 245.78 142.06"/><polyline style="fill:#c7a9b9" points="246.65 142.06 246.65 107.44 192.55 107.44 192.55 142.06 246.65 142.06"/><polyline style="fill:#c6a9b9" points="247.51 142.06 247.51 107.44 195.67 107.44 195.67 142.06 247.51 142.06"/><polyline style="fill:#c5a9ba" points="248.38 142.06 248.38 107.44 198.79 107.44 198.79 142.06 248.38 142.06"/><polyline style="fill:#c4a9ba" points="249.24 142.06 249.24 107.44 201.91 107.44 201.91 142.06 249.24 142.06"/><polyline style="fill:#c4a9bb" points="250.11 142.06 250.11 107.44 205.04 107.44 205.04 142.06 250.11 142.06"/><polyline style="fill:#c3a9bc" points="250.97 142.06 250.97 107.44 208.16 107.44 208.16 142.06 250.97 142.06"/><polyline style="fill:#c2a9bc" points="251.84 142.06 251.84 107.44 211.28 107.44 211.28 142.06 251.84 142.06"/><polyline style="fill:#c1a9bd" points="252.7 142.06 252.7 107.44 214.4 107.44 214.4 142.06 252.7 142.06"/><polyline style="fill:#c1a9bd" points="253.57 142.06 253.57 107.44 217.53 107.44 217.53 142.06 253.57 142.06"/><polyline style="fill:#c0a9be" points="254.44 142.06 254.44 107.44 220.65 107.44 220.65 142.06 254.44 142.06"/><polyline style="fill:#bfa9bf" points="255.3 142.06 255.3 107.44 223.77 107.44 223.77 142.06 255.3 142.06"/><polyline style="fill:#bea8bf" points="256.17 142.06 256.17 107.44 226.89 107.44 226.89 142.06 256.17 142.06"/><polyline style="fill:#bea8c0" points="257.03 142.06 257.03 107.44 230.01 107.44 230.01 142.06 257.03 142.06"/><polyline style="fill:#bda8c1" points="257.9 142.06 257.9 107.44 233.14 107.44 233.14 142.06 257.9 142.06"/><polyline style="fill:#bca8c1" points="258.76 142.06 258.76 107.44 236.26 107.44 236.26 142.06 258.76 142.06"/><rect x="1.69" y="37.13" style="fill:#f9aa8f" width="93.43" height="34.53"/><rect x="6.61" y="37.13" style="fill:#f7aa90" width="91.61" height="34.53"/><rect x="11.52" y="37.13" style="fill:#f6aa90" width="89.78" height="34.53"/><rect x="16.44" y="37.13" style="fill:#f5aa91" width="87.95" height="34.53"/><rect x="21.36" y="37.13" style="fill:#f4aa92" width="86.13" height="34.53"/><rect x="26.28" y="37.13" style="fill:#f3aa92" width="84.3" height="34.53"/><rect x="31.19" y="37.13" style="fill:#f3aa93" width="82.47" height="34.53"/><rect x="36.11" y="37.13" style="fill:#f2aa94" width="80.64" height="34.53"/><rect x="41.03" y="37.13" style="fill:#f1aa94" width="78.82" height="34.53"/><rect x="45.95" y="37.13" style="fill:#f0aa95" width="76.99" height="34.53"/><rect x="50.86" y="37.13" style="fill:#f0aa96" width="75.16" height="34.53"/><rect x="55.78" y="37.13" style="fill:#efaa96" width="73.34" height="34.53"/><rect x="60.7" y="37.13" style="fill:#eeaa97" width="71.51" height="34.53"/><rect x="65.62" y="37.13" style="fill:#edaa98" width="69.68" height="34.53"/><rect x="70.53" y="37.13" style="fill:#edaa98" width="67.85" height="34.53"/><rect x="75.45" y="37.13" style="fill:#ecaa99" width="66.03" height="34.53"/><rect x="80.37" y="37.13" style="fill:#ebaa9a" width="64.2" height="34.53"/><rect x="85.29" y="37.13" style="fill:#ebaa9a" width="62.37" height="34.53"/><rect x="90.21" y="37.13" style="fill:#eaaa9b" width="60.54" height="34.53"/><rect x="95.12" y="37.13" style="fill:#e9aa9c" width="58.72" height="34.53"/><g><polyline style="fill:#f9aa8f" points="202.27 36.51 202.27 2.47 155.21 2.47 155.21 36.51 202.27 36.51"/><polyline style="fill:#f7aa90" points="202.34 36.51 202.34 2.47 156.12 2.47 156.12 36.51 202.34 36.51"/><polyline style="fill:#f6aa91" points="202.42 36.51 202.42 2.47 157.02 2.47 157.02 36.51 202.42 36.51"/><polyline style="fill:#f5aa91" points="202.49 36.51 202.49 2.47 157.93 2.47 157.93 36.51 202.49 36.51"/><polyline style="fill:#f4aa92" points="202.56 36.52 202.56 2.47 158.83 2.47 158.83 36.52 202.56 36.52"/><polyline style="fill:#f3aa93" points="202.64 36.52 202.64 2.47 159.74 2.47 159.74 36.52 202.64 36.52"/><polyline style="fill:#f2aa93" points="202.71 36.52 202.71 2.47 160.64 2.47 160.64 36.52 202.71 36.52"/><polyline style="fill:#f1aa94" points="202.78 36.52 202.78 2.48 161.55 2.48 161.55 36.52 202.78 36.52"/><polyline style="fill:#f0aa95" points="202.86 36.52 202.86 2.48 162.45 2.48 162.45 36.52 202.86 36.52"/><polyline style="fill:#f0aa95" points="202.93 36.52 202.93 2.48 163.36 2.48 163.36 36.52 202.93 36.52"/><polyline style="fill:#efa996" points="203 36.52 203 2.48 164.26 2.48 164.26 36.52 203 36.52"/><polyline style="fill:#eea997" points="203.08 36.52 203.08 2.48 165.17 2.48 165.17 36.52 203.08 36.52"/><polyline style="fill:#eda997" points="203.15 36.53 203.15 2.48 166.07 2.48 166.07 36.53 203.15 36.53"/><polyline style="fill:#eda998" points="203.22 36.53 203.22 2.48 166.98 2.48 166.98 36.53 203.22 36.53"/><polyline style="fill:#eca999" points="203.3 36.53 203.3 2.49 167.88 2.49 167.88 36.53 203.3 36.53"/><polyline style="fill:#eba999" points="203.37 36.53 203.37 2.49 168.79 2.49 168.79 36.53 203.37 36.53"/><polyline style="fill:#eaa99a" points="203.44 36.53 203.44 2.49 169.69 2.49 169.69 36.53 203.44 36.53"/><polyline style="fill:#eaa99b" points="203.52 36.53 203.52 2.49 170.6 2.49 170.6 36.53 203.52 36.53"/><polyline style="fill:#e9a99b" points="203.59 36.53 203.59 2.49 171.5 2.49 171.5 36.53 203.59 36.53"/><polyline style="fill:#e8a99c" points="203.66 36.53 203.66 2.49 172.41 2.49 172.41 36.53 203.66 36.53"/><polyline style="fill:#e7a99d" points="203.74 36.54 203.74 2.49 173.31 2.49 173.31 36.54 203.74 36.54"/><polyline style="fill:#e7a99d" points="203.81 36.54 203.81 2.49 174.22 2.49 174.22 36.54 203.81 36.54"/><polyline style="fill:#e6a99e" points="203.88 36.54 203.88 2.5 175.12 2.5 175.12 36.54 203.88 36.54"/><polyline style="fill:#e5aa9f" points="203.96 36.54 203.96 2.5 176.03 2.5 176.03 36.54 203.96 36.54"/><polyline style="fill:#e5aa9f" points="204.03 36.54 204.03 2.5 176.93 2.5 176.93 36.54 204.03 36.54"/><polyline style="fill:#e4aaa0" points="204.1 36.54 204.1 2.5 177.84 2.5 177.84 36.54 204.1 36.54"/><polyline style="fill:#e3a9a1" points="204.18 36.54 204.18 2.5 178.74 2.5 178.74 36.54 204.18 36.54"/><polyline style="fill:#e2a9a1" points="204.25 36.55 204.25 2.5 179.65 2.5 179.65 36.55 204.25 36.55"/><polyline style="fill:#e1a9a2" points="204.32 36.55 204.32 2.5 180.55 2.5 180.55 36.55 204.32 36.55"/><polyline style="fill:#e1a9a3" points="204.4 36.55 204.4 2.5 181.46 2.5 181.46 36.55 204.4 36.55"/><polyline style="fill:#e0a9a3" points="204.47 36.55 204.47 2.51 182.36 2.51 182.36 36.55 204.47 36.55"/><polyline style="fill:#dfa9a4" points="204.54 36.55 204.54 2.51 183.27 2.51 183.27 36.55 204.54 36.55"/><polyline style="fill:#dea9a5" points="204.62 36.55 204.62 2.51 184.17 2.51 184.17 36.55 204.62 36.55"/><polyline style="fill:#dea9a5" points="204.69 36.55 204.69 2.51 185.08 2.51 185.08 36.55 204.69 36.55"/><polyline style="fill:#dda9a6" points="204.76 36.55 204.76 2.51 185.98 2.51 185.98 36.55 204.76 36.55"/><polyline style="fill:#dca9a6" points="204.84 36.56 204.84 2.51 186.89 2.51 186.89 36.56 204.84 36.56"/><polyline style="fill:#dba9a7" points="204.91 36.56 204.91 2.51 187.79 2.51 187.79 36.56 204.91 36.56"/><polyline style="fill:#daa9a8" points="204.98 36.56 204.98 2.51 188.7 2.51 188.7 36.56 204.98 36.56"/><polyline style="fill:#daa9a8" points="205.06 36.56 205.06 2.52 189.6 2.52 189.6 36.56 205.06 36.56"/><polyline style="fill:#d9a9a9" points="205.13 36.56 205.13 2.52 190.51 2.52 190.51 36.56 205.13 36.56"/><polyline style="fill:#d8a9aa" points="205.2 36.56 205.2 2.52 191.41 2.52 191.41 36.56 205.2 36.56"/><polyline style="fill:#d7a9aa" points="205.28 36.56 205.28 2.52 192.32 2.52 192.32 36.56 205.28 36.56"/><polyline style="fill:#d7a9ab" points="205.35 36.56 205.35 2.52 193.22 2.52 193.22 36.56 205.35 36.56"/><polyline style="fill:#d6a9ac" points="205.42 36.57 205.42 2.52 194.13 2.52 194.13 36.57 205.42 36.57"/><polyline style="fill:#d5a9ac" points="205.5 36.57 205.5 2.52 195.03 2.52 195.03 36.57 205.5 36.57"/><polyline style="fill:#d4a9ad" points="205.57 36.57 205.57 2.53 195.94 2.53 195.94 36.57 205.57 36.57"/><polyline style="fill:#d4a9ae" points="205.64 36.57 205.64 2.53 196.84 2.53 196.84 36.57 205.64 36.57"/><polyline style="fill:#d3a9ae" points="205.72 36.57 205.72 2.53 197.75 2.53 197.75 36.57 205.72 36.57"/><polyline style="fill:#d2a9af" points="205.79 36.57 205.79 2.53 198.65 2.53 198.65 36.57 205.79 36.57"/><polyline style="fill:#d1a9af" points="205.86 36.57 205.86 2.53 199.56 2.53 199.56 36.57 205.86 36.57"/><polyline style="fill:#d0a9b0" points="205.93 36.57 205.93 2.53 200.46 2.53 200.46 36.57 205.93 36.57"/><polyline style="fill:#d0a9b1" points="206.01 36.58 206.01 2.53 201.37 2.53 201.37 36.58 206.01 36.58"/><polyline style="fill:#cfa9b1" points="206.08 36.58 206.08 2.53 202.27 2.53 202.27 36.58 206.08 36.58"/></g><polyline style="fill:#f9aa8f;stroke:#fff;stroke-width:1.0493;stroke-miterlimit:10" points="102.88 37.13 102.88 1.98 37.32 1.98 37.32 37.13 102.88 37.13"/><polyline style="fill:#f9aa8f;stroke:#fff;stroke-width:1.0493;stroke-miterlimit:10" points="154.42 37.13 154.42 1.98 102.39 1.98 102.39 37.13 154.42 37.13"/><polyline style="fill:#754d84;stroke:#fff;stroke-width:.9;stroke-miterlimit:10" points="258.82 107.44 258.82 72.28 207.05 72.28 207.05 107.44 258.82 107.44"/><polyline style="fill:#bca8c1;stroke:#fff;stroke-width:.9;stroke-miterlimit:10" points="310.59 107.44 310.59 72.28 258.82 72.28 258.82 107.44 310.59 107.44"/><polyline style="fill:#9e4566;stroke:#fff;stroke-width:.9;stroke-miterlimit:10" points="206.7 72.28 206.7 37.13 154.76 37.13 154.76 72.28 206.7 72.28"/><polygon style="fill:#f9aa8f;stroke:#fff;stroke-width:1.0493;stroke-miterlimit:10" points="36.38 1.98 1.23 1.98 1.23 37.13 36.38 37.13 50.28 19.56"/><text transform="translate(7.644 21.656)" style="fill:#fff;font-family:'Asap-Bold';font-size:6px">Black Death</text><text transform="translate(53.029 17.808)"><tspan x="0" y="0" style="fill:#fff;font-family:'Asap-Regular';font-size:6px">Population and</tspan><tspan x="0" y="7.2" style="fill:#fff;font-family:'Asap-Regular';font-size:6px">labour supply fall</tspan></text><text transform="translate(109.124 17.808)"><tspan x="0" y="0" style="fill:#fff;font-family:'Asap-Regular';font-size:6px">More and better</tspan><tspan x="0" y="7.2" style="fill:#fff;font-family:'Asap-Regular';font-size:6px">land per farmer</tspan></text><text transform="translate(161.009 17.81)"><tspan x="0" y="0" style="fill:#fff;font-family:'Asap-Regular';font-size:6px">Average output</tspan><tspan x="0" y="7.2" style="fill:#fff;font-family:'Asap-Regular';font-size:6px">per farmer rises</tspan></text><text transform="translate(161.009 54.107)"><tspan x="0" y="0" style="fill:#fff;font-family:'Asap-Regular';font-size:6px">Rural income</tspan><tspan x="0" y="7.2" style="fill:#fff;font-family:'Asap-Regular';font-size:6px">and wages rise</tspan></text><text transform="translate(8.591 52.882)"><tspan x="0" y="0" style="fill:#fff;font-family:'Asap-Regular';font-size:6px">Bargaining power of farmers and</tspan><tspan x="22.4" y="7.2" style="fill:#fff;font-family:'Asap-Regular';font-size:6px">employees rises</tspan></text><text transform="translate(161.009 123.186)"><tspan x="0" y="0" style="fill:#fff;font-family:'Asap-Regular';font-size:6px">Bargaining power of farmer and</tspan><tspan x="0" y="7.2" style="fill:#fff;font-family:'Asap-Regular';font-size:6px">employees falls</tspan></text><g><text transform="translate(115.902 52.882)"><tspan x="0" y="0" style="fill:#fff;font-family:'Asap-Regular';font-size:6px">Peasants’</tspan><tspan x="3.88" y="7.2" style="fill:#fff;font-family:'Asap-Regular';font-size:6px">Revolt</tspan></text></g><polyline style="fill:#fff" points="102.39 16.98 107.06 19.56 102.39 22.13"/><polyline style="fill:#fff" points="102.39 52.14 107.06 54.71 102.39 57.28"/><polyline style="fill:#fff" points="154.42 16.98 159.09 19.56 154.42 22.13"/><polyline style="fill:#9e4566;stroke:#fff;stroke-width:.9;stroke-miterlimit:10" points="206.7 107.44 206.7 72.28 154.59 72.28 154.59 107.44 206.7 107.44"/><text transform="translate(161.01 88.112)"><tspan x="0" y="0" style="fill:#fff;font-family:'Asap-Regular';font-size:6px">Population and</tspan><tspan x="0" y="7.2" style="fill:#fff;font-family:'Asap-Regular';font-size:6px">labour supply</tspan><tspan x="0" y="14.4" style="fill:#fff;font-family:'Asap-Regular';font-size:6px">rise</tspan></text><text transform="translate(220.056 88.112)"><tspan x="0" y="0" style="fill:#fff;font-family:'Asap-Regular';font-size:6px">Less land</tspan><tspan x="0" y="7.2" style="fill:#fff;font-family:'Asap-Regular';font-size:6px">per farmer</tspan></text><polyline style="fill:#fff" points="207.05 87.29 211.72 89.86 207.05 92.43"/><text transform="translate(267.024 88.112)"><tspan x="0" y="0" style="fill:#fff;font-family:'Asap-Regular';font-size:6px">Average output</tspan><tspan x="0" y="7.2" style="fill:#fff;font-family:'Asap-Regular';font-size:6px">per farmer falls</tspan></text><polyline style="fill:#fff" points="258.82 87.29 263.49 89.86 258.82 92.43"/><polyline style="fill:#a4a7d3;stroke:#fff;stroke-width:.9325;stroke-miterlimit:10" points="310.59 142.59 310.59 107.44 258.82 107.44 258.82 142.59 310.59 142.59"/><polyline style="fill:#fff" points="258.82 122.44 263.49 125.01 258.82 127.58"/><polyline style="fill:#fff" points="154.42 52.14 159.09 54.71 154.42 57.28"/><polyline style="fill:#fff" points="183.22 37.13 180.65 41.8 178.07 37.13"/><polyline style="fill:#fff" points="75.36 37.13 72.79 41.8 70.22 37.13"/><polyline style="fill:#fff" points="183.22 72.28 180.65 76.95 178.07 72.28"/><polyline style="fill:#fff" points="183.22 107.44 180.65 112.11 178.07 107.44"/><text transform="translate(267.024 123.186)"><tspan x="0" y="0" style="fill:#fff;font-family:'Asap-Regular';font-size:6px">Rural income</tspan><tspan x="0" y="7.2" style="fill:#fff;font-family:'Asap-Regular';font-size:6px">and wages fall</tspan></text><line style="fill:none;stroke:#fff;stroke-width:1.1324;stroke-miterlimit:10" x1="102.39" y1="37.19" x2="102.39" y2="78.94"/></svg>