<svg version="1.1" xmlns="http://www.w3.org/2000/svg" x="0" y="0" viewBox="0 0 311.81 173.98" style="enable-background:new 0 0 311.81 173.98" xml:space="preserve"><line style="fill:none;stroke:#b9519e;stroke-width:.5;stroke-miterlimit:10" x1="33.75" y1="25.26" x2="144.91" y2="148.2"/><polyline style="fill:none;stroke:#ccc;stroke-width:.5;stroke-miterlimit:10" points="33.75 11.27 33.75 148.2 171.71 148.2"/><polyline style="fill:none;stroke:#ccc;stroke-width:.5;stroke-miterlimit:10" points="196.13 148.2 253.47 148.2 310.81 148.2"/><line style="fill:none;stroke:#939598;stroke-width:.5;stroke-linecap:square;stroke-miterlimit:10;stroke-dasharray:1.4173" x1="282.49" y1="88.7" x2="33.75" y2="88.7"/><line style="fill:none;stroke:#939598;stroke-width:.5;stroke-linecap:square;stroke-miterlimit:10;stroke-dasharray:1.4173" x1="91.2" y1="88.7" x2="91.2" y2="148.2"/><line style="fill:none;stroke:#939598;stroke-width:.5;stroke-linecap:square;stroke-miterlimit:10;stroke-dasharray:1.4173" x1="91.2" y1="121.5" x2="33.75" y2="120.37"/><line style="fill:none;stroke:#ccc;stroke-width:.5;stroke-miterlimit:10" x1="253.47" y1="148.2" x2="253.47" y2="12.65"/><text transform="translate(16.887 7.146)" style="font-family:'Asap-Medium';font-size:8px">Real wage</text><text transform="translate(234.322 7.146)" style="font-family:'Asap-Medium';font-size:8px">Real wage</text><text transform="translate(219.357 171.626)" style="font-family:'Asap-Medium';font-size:8px">Population growth</text><text transform="translate(209.035 159.208)" style="font-family:'Asap-Regular';font-size:7px">negative</text><text transform="translate(150.549 159.208)" style="font-family:'Asap-Regular';font-size:7px">Population</text><text transform="translate(84.492 159.208)" style="font-family:'Asap-Regular';font-size:7px">Pop</text><text transform="matrix(.583 0 0 .583 96.476 161.54)" style="font-family:'Asap-Regular';font-size:7px">Medium</text><text transform="translate(1.406 91.604)" style="font-family:'Asap-Regular';font-size:7px">Wage</text><text transform="matrix(.583 0 0 .583 18.99 93.935)" style="font-family:'Asap-Regular';font-size:7px">High</text><text transform="translate(1.406 120.368)" style="font-family:'Asap-Regular';font-size:7px">Wage</text><text transform="matrix(.583 0 0 .583 18.99 122.699)" style="font-family:'Asap-Regular';font-size:7px">Low</text><text transform="translate(269.587 52.899)"><tspan x="0" y="0" style="fill:#ed2124;font-family:'Asap-Regular';font-size:7px">Population</tspan><tspan x="0" y="8.4" style="fill:#ed2124;font-family:'Asap-Regular';font-size:7px">rising</tspan></text><text transform="translate(199.402 132.373)"><tspan x="0" y="0" style="fill:#ed2124;font-family:'Asap-Regular';font-size:7px">Population</tspan><tspan x="0" y="8.4" style="fill:#ed2124;font-family:'Asap-Regular';font-size:7px">falling</tspan></text><text transform="translate(264.77 159.208)" style="font-family:'Asap-Regular';font-size:7px">positive</text><text transform="translate(251.352 155.08)" style="font-family:'Asap-Regular';font-size:7.2249px">0</text><text transform="translate(306.055 155.08)" style="font-family:'Asap-Regular';font-size:7.2249px">+</text><line style="fill:none;stroke:#3a53a4;stroke-width:.5;stroke-miterlimit:10" x1="33.75" y1="57.72" x2="114.94" y2="147.51"/><line style="fill:none;stroke:#ed2124;stroke-width:.5;stroke-miterlimit:10" x1="234.32" y1="143.73" x2="299" y2="69.42"/><circle cx="91.33" cy="89.12" r="1.13"/><circle cx="91.2" cy="121.37" r="1.13"/><text transform="translate(93.233 117.456)" style="font-family:'Asap-Regular';font-size:6px">A</text><circle cx="282.2" cy="88.7" r="1.13"/><line style="fill:none;stroke:#939598;stroke-width:.5;stroke-miterlimit:10" x1="86.04" y1="94.91" x2="86.04" y2="108.29"/><polygon style="fill:#939598" points="84.61 96.07 84.86 96.31 86.04 95.05 87.21 96.31 87.47 96.07 86.04 94.53"/><text transform="translate(118.552 159.208)" style="font-family:'Asap-Regular';font-size:7px">Pop</text><text transform="matrix(.583 0 0 .583 130.536 161.54)" style="font-family:'Asap-Regular';font-size:7px">High</text><text transform="translate(93.233 85.53)" style="font-family:'Asap-Regular';font-size:6px">D</text><text transform="translate(275.791 86.104)"><tspan x="0" y="0" style="font-family:'Asap-Regular';font-size:6px">D</tspan><tspan x="4.17" y="0" style="fill:#231f20;font-family:'SourceSansPro-Regular';font-size:6px">′</tspan></text><text transform="matrix(.583 0 0 .583 1.406 128.429)" style="font-family:'Asap-Regular';font-size:7px">(subsistence)</text><text transform="translate(195.617 155.08)" style="font-family:'Asap-Regular';font-size:7.2249px">–</text><text transform="translate(62.27 25.514)"><tspan x="0" y="0" style="fill:#b9519e;font-family:'Asap-Regular';font-size:7px">Real wage: after a new</tspan><tspan x="0" y="8.4" style="fill:#b9519e;font-family:'Asap-Regular';font-size:7px">technology is introduced</tspan></text><text transform="translate(62.27 44.58)" style="fill:#3a53a4;font-family:'Asap-Regular';font-size:7px">Real wage, initial</text></svg>