<svg xmlns="http://www.w3.org/2000/svg" viewBox="0 0 810 510"><rect width="100%" height="100%" style="stroke:none;fill:#fff;stroke-linecap:round;stroke-linejoin:round;stroke-miterlimit:10"/><rect x="0" y="0" width="810" height="510" style="stroke-width:1.07;stroke:#fff;fill:#fff;stroke-linecap:round;stroke-linejoin:round;stroke-miterlimit:10"/><rect x="93.34" y="14.17" width="695.4" height="414.93" style="stroke-width:1.07;stroke:none;fill:#fff;stroke-linecap:round;stroke-linejoin:round;stroke-miterlimit:10"/><polyline points="93.34 429.1 788.74 429.1" style="stroke-width:1.07;stroke:#c6c4c4;stroke-linecap:butt;fill:none;stroke-linejoin:round;stroke-miterlimit:10"/><polyline points="93.34 325.37 788.74 325.37" style="stroke-width:1.07;stroke:#c6c4c4;stroke-linecap:butt;fill:none;stroke-linejoin:round;stroke-miterlimit:10"/><polyline points="93.34 221.64 788.74 221.64" style="stroke-width:1.07;stroke:#c6c4c4;stroke-linecap:butt;fill:none;stroke-linejoin:round;stroke-miterlimit:10"/><polyline points="93.34 117.91 788.74 117.91" style="stroke-width:1.07;stroke:#c6c4c4;stroke-linecap:butt;fill:none;stroke-linejoin:round;stroke-miterlimit:10"/><polyline points="93.34 14.17 788.74 14.17" style="stroke-width:1.07;stroke:#c6c4c4;stroke-linecap:butt;fill:none;stroke-linejoin:round;stroke-miterlimit:10"/><polyline points="97.12 395.38 98.06 396.52 99.01 397.42 99.95 398.43 100.9 399.2 101.84 399.1 102.78 399.68 103.73 399.09 104.67 398.92 105.62 398.92 106.56 398.57 107.51 398.16 108.45 398.37 109.4 398.41 110.34 398.77 111.29 399.64 112.23 399.43 113.18 399.29 114.12 398.71 115.07 396.78 116.01 395.13 116.96 394.57 117.9 395.5 118.85 396.01 119.79 397.81 120.74 399.93 121.68 402.01 122.63 401.96 123.57 401.62 124.52 401.65 125.46 400.81 126.41 400.01 127.35 399.44 128.3 399.03 129.24 398.36 130.19 397.4 131.13 396.69 132.07 395.95 133.02 395.35 133.96 395 134.91 395.95 135.85 396.55 136.8 397.3 137.74 397.32 138.69 396.83 139.63 395.69 140.58 395.26 141.52 396.98 142.47 399.93 143.41 401.3 144.36 401.07 145.3 399.55 146.25 396.97 147.19 396.08 148.14 396.45 149.08 397.28 150.03 398.25 150.97 397.92 151.92 394.8 152.86 392.1 153.81 391.48 154.75 391.17 155.7 392.19 156.64 393.97 157.59 394.46 158.53 393.51 159.48 392.41 160.42 391.18 161.37 389.97 162.31 389.08 163.25 388.83 164.2 389.76 165.14 389 166.09 389.62 167.03 391.34 167.98 393.37 168.92 393.69 169.87 395.26 170.81 396.89 171.76 398.51 172.7 398.37 173.65 399.39 174.59 401.2 175.54 401.26 176.48 400.64 177.43 399.63 178.37 398.36 179.32 396.28 180.26 395.21 181.21 394.54 182.15 394.79 183.1 395.31 184.04 395.78 184.99 394.31 185.93 393.51 186.88 393.17 187.82 391.95 188.77 389.78 189.71 389.73 190.66 389.63 191.6 389.29 192.54 391.09 193.49 392.99 194.43 393.33 195.38 393.25 196.32 392.85 197.27 391.2 198.21 390.13 199.16 389.05 200.1 386.93 201.05 385.4 201.99 384.47 202.94 383.89 203.88 384.17 204.83 385.54 205.77 386.91 206.72 387.21 207.66 387.13 208.61 386.41 209.55 385.01 210.5 383.36 211.44 382.78 212.39 383.59 213.33 384.08 214.28 384.17 215.22 384.94 216.17 384 217.11 382.6 218.06 383.05 219 384.24 219.95 384.75 220.89 385.73 221.83 387.02 222.78 387.42 223.72 387.75 224.67 386.48 225.61 385.28 226.56 382.41 227.5 380.46 228.45 379.06 229.39 380.85 230.34 382.83 231.28 383.99 232.23 384.1 233.17 384.67 234.12 383.04 235.06 381.22 236.01 381.46 236.95 382.52 237.9 381.65 238.84 382.08 239.79 381.62 240.73 380.8 241.68 379.32 242.62 378.77 243.57 377.68 244.51 378.21 245.46 377.62 246.4 376.93 247.35 376.66 248.29 378.98 249.24 380.42 250.18 381.78 251.13 382.91 252.07 384.85 253.01 383.85 253.96 382.6 254.9 382.21 255.85 382.4 256.79 383 257.74 385.55 258.68 386.71 259.63 386.22 260.57 385.66 261.52 383.91 262.46 380.65 263.41 378.58 264.35 379.75 265.3 380.21 266.24 380.4 267.19 380.65 268.13 381.17 269.08 381.06 270.02 381.28 270.97 381.15 271.91 380.96 272.86 380.38 273.8 379.4 274.75 378.71 275.69 378.88 276.64 378.92 277.58 379.43 278.53 380.38 279.47 381.53 280.42 380.44 281.36 379.5 282.3 379.31 283.25 378.5 284.19 377.67 285.14 378.66 286.08 379.7 287.03 380.47 287.97 380.94 288.92 381.25 289.86 380.5 290.81 379.77 291.75 379.11 292.7 378.61 293.64 377.96 294.59 379.07 295.53 380.47 296.48 381.05 297.42 381.76 298.37 383.67 299.31 385.42 300.26 385.65 301.2 385.33 302.15 384.28 303.09 382.71 304.04 380.67 304.98 379.81 305.93 380.07 306.87 380.6 307.82 380.81 308.76 380.01 309.71 379.09 310.65 378.24 311.59 377.68 312.54 377.42 313.48 377.76 314.43 378.65 315.37 378.93 316.32 379.93 317.26 381.23 318.21 382.71 319.15 383.26 320.1 383.76 321.04 383.06 321.99 381.66 322.93 380.52 323.88 379.62 324.82 378.47 325.77 377.95 326.71 378.36 327.66 379.85 328.6 380.66 329.55 381.99 330.49 383.53 331.44 383.92 332.38 383.36 333.33 383.66 334.27 384.86 335.22 385.91 336.16 386.48 337.11 386.08 338.05 385.46 339 384.42 339.94 383.16 340.89 383.17 341.83 385.73 342.77 387.37 343.72 388.6 344.66 389.61 345.61 390.34 346.55 388.82 347.5 388.42 348.44 387.6 349.39 388.35 350.33 388.86 351.28 388.51 352.22 388.67 353.17 388.79 354.11 387.36 355.06 387.1 356 388.12 356.95 389.01 357.89 390.06 358.84 392.1 359.78 391.97 360.73 391.15 361.67 391.12 362.62 392.82 363.56 393.72 364.51 393.55 365.45 393.9 366.4 393.34 367.34 392.36 368.29 392.81 369.23 394.94 370.18 395.08 371.12 395.12 372.06 394.99 373.01 393.79 373.95 392.07 374.9 394.1 375.84 394.16 376.79 393.5 377.73 393.11 378.68 392.68 379.62 390.6 380.57 391.07 381.51 390.88 382.46 390.02 383.4 390.42 384.35 391.32 385.29 393.04 386.24 393.6 387.18 393.57 388.13 393.76 389.07 393.09 390.02 390.32 390.96 389.39 391.91 389.35 392.85 388.52 393.8 388.1 394.74 388.28 395.69 388.48 396.63 390.02 397.58 392.83 398.52 392.94 399.47 392.95 400.41 393.97 401.35 393.86 402.3 391.37 403.24 391.86 404.19 392.83 405.13 394.86 406.08 396.32 407.02 399.79 407.97 402.38 408.91 403.16 409.86 402.18 410.8 401.32" style="stroke-width:1.2;stroke:#f49323;stroke-linecap:butt;fill:none;stroke-linejoin:round;stroke-miterlimit:10"/><polyline points="410.8 401.32 411.75 399.05 412.69 396.72 413.64 396.09 414.58 395.67 415.53 394.93 416.47 395.01 417.42 396.55 418.36 397.77 419.31 397.53 420.25 397.6 421.2 398.4 422.14 398.31 423.09 398.49 424.03 399.29 424.98 400.26 425.92 400.19 426.87 400.29 427.81 399.42 428.76 398.59 429.7 396.22 430.65 395.12 431.59 394.41 432.53 394.27 433.48 394.61 434.42 396 435.37 395.22 436.31 393.3 437.26 392.6 438.2 392.85 439.15 392.77 440.09 392.74 441.04 393.64 441.98 393.42 442.93 391.98 443.87 391.28 444.82 391.4 445.76 392.1 446.71 391.64 447.65 390.51 448.6 390.12 449.54 389.38 450.49 387.8 451.43 387.37 452.38 387.53 453.32 387.41 454.27 388.58 455.21 391.04 456.16 393.67 457.1 396.6 458.05 398.06 458.99 397.98 459.94 395.46 460.88 392.19 461.82 388.54 462.77 386.98 463.71 386.57 464.66 388.29 465.6 390.83 466.55 393.39 467.49 393.33 468.44 394.07 469.38 391.74 470.33 389.29 471.27 386.76 472.22 385.04 473.16 381.3 474.11 379.94 475.05 379.75 476 379.38 476.94 381.27 477.89 384.02 478.83 386.58 479.78 389.19 480.72 392.07 481.67 392.04 482.61 391.85 483.56 392.57 484.5 392.49 485.45 391.66 486.39 392.21 487.34 392.49 488.28 391.84 489.23 390.74 490.17 391.19 491.11 390.3 492.06 390.09 493 389.28 493.95 388.46 494.89 387.63 495.84 387.64 496.78 388.24 497.73 390.14 498.67 392.62 499.62 393 500.56 394.55 501.51 395.23 502.45 395.49 503.4 394.97 504.34 395 505.29 393.62 506.23 392.08 507.18 389.98 508.12 389.03 509.07 388.25 510.01 387.73 510.96 387.26 511.9 387.34 512.85 388.09 513.79 390.34 514.74 391.96 515.68 393.36 516.63 394.06 517.57 393.61 518.52 391.6 519.46 390.99 520.41 390.62 521.35 390.11 522.29 388.8 523.24 388.72 524.18 388.31 525.13 387.72 526.07 387.73 527.02 388.27 527.96 388.75 528.91 389.51 529.85 389.99 530.8 391.16 531.74 392.09 532.69 391.64 533.63 390.55 534.58 389.56 535.52 387.81 536.47 386.64 537.41 386.73 538.36 387.14 539.3 386.49 540.25 385.35 541.19 384.04 542.14 383.51 543.08 383.22 544.03 383.21 544.97 383.02 545.92 382.38 546.86 380.71 547.81 379.54 548.75 379.59 549.7 380.17 550.64 381.01 551.58 381.75 552.53 381.47 553.47 381.63 554.42 381.99 555.36 382.12 556.31 381.87 557.25 382.37 558.2 384 559.14 384.91 560.09 385.34 561.03 385.76 561.98 385.6 562.92 383.31 563.87 382.11 564.81 381.73 565.76 382.41 566.7 383.84 567.65 385.63 568.59 387.7 569.54 389.39 570.48 389.66 571.43 389.38 572.37 389.86 573.32 390.19 574.26 390.73 575.21 391.94 576.15 392.95 577.1 392.01 578.04 391.03 578.99 389.79 579.93 388.19 580.87 386.49 581.82 386.9 582.76 386.66 583.71 386.59 584.65 386.82 585.6 386.94 586.54 386.17 587.49 385.64 588.43 385.49 589.38 385.65 590.32 386.44 591.27 387.2 592.21 387.61 593.16 388.21 594.1 388.97 595.05 390.46 595.99 392.15 596.94 392.47 597.88 392.04 598.83 392 599.77 392.49 600.72 392.99 601.66 393.03 602.61 393.09 603.55 392.73 604.5 391.3 605.44 389.37 606.39 389.03 607.33 389.44 608.28 389.78 609.22 389.11 610.17 390.16 611.11 391.31 612.05 391.82 613 391.02 613.94 389.77 614.89 388.37 615.83 387.66 616.78 386.51 617.72 386.93 618.67 387.89 619.61 387.2 620.56 385.37 621.5 384.31 622.45 383.25 623.39 383 624.34 382.73 625.28 382.99 626.23 383.03 627.17 383.06 628.12 382.37 629.06 382.41 630.01 382.21 630.95 381.72 631.9 380.58 632.84 379.15 633.79 378.35 634.73 378.53 635.68 379.27 636.62 380.86 637.57 382.95 638.51 384.05 639.46 384.23 640.4 383.25 641.34 382 642.29 380.71 643.23 380.84 644.18 382.27 645.12 383.1 646.07 383.21 647.01 382.85 647.96 380.82 648.9 378.03 649.85 377.34 650.79 377.81 651.74 379.04 652.68 380.74 653.63 381.96 654.57 381.49 655.52 380.29 656.46 379.73 657.41 379.03 658.35 378.6 659.3 378.78 660.24 378.72 661.19 377.29 662.13 376.01 663.08 375.56 664.02 375.23 664.97 374.09 665.91 373.59 666.86 373.41 667.8 372.2 668.75 370.79 669.69 369.79 670.63 368.54 671.58 366.99 672.52 365.65 673.47 364.5 674.41 363.29 675.36 362.56 676.3 361.62 677.25 360.73 678.19 360.22 679.14 359.87 680.08 358.72 681.03 357.62 681.97 356.19 682.92 354.72 683.86 353.86 684.81 353.57 685.75 353.54 686.7 353.88 687.64 353.31 688.59 352.21 689.53 350.81 690.48 349.25 691.42 347.96 692.37 347.88 693.31 347 694.26 347 695.2 346.99 696.15 346.66 697.09 346.21 698.04 346.94 698.98 347.06 699.93 347.23 700.87 347.65 701.81 348.1 702.76 348.64 703.7 349.45 704.65 350.32 705.59 351.35 706.54 352.27 707.48 351.91 708.43 353.46 709.37 356.79 710.32 360.64 711.26 364.34 712.21 365.45 713.15 361.04 714.1 355.92 715.04 349.98 715.99 343.13 716.93 338.66 717.88 337.46 718.82 334.8 719.77 331.41 720.71 328.79 721.66 327.42 722.6 325.78 723.55 323.75 724.49 321.81 725.44 319.96 726.38 318.58 727.33 316.38 728.27 315.09 729.22 314.67 730.16 313.99 731.1 312.68 732.05 314.26 732.99 316.38 733.94 317.82 734.88 318.49 735.83 318.95 736.77 316.84 737.72 310.32 738.66 301.28 739.61 295.23 740.55 290.06 741.5 285.92 742.44 285.81 743.39 288.73 744.33 289.3 745.28 288.48 746.22 286.53 747.17 283.01 748.11 279.03 749.06 275.32 750 272.15 750.95 268.1 751.89 262.69 752.84 257.1 753.78 251.61 754.73 244.39 755.67 237.27 756.62 231.59 757.56 224.89 758.51 217.49 759.45 212.19 760.39 206.48 761.34 200.3 762.28 188.89 763.23 176.04 764.17 162.46 765.12 149.1 766.06 140.35 767.01 141.25 767.95 142.79 768.9 144.4 769.84 145.44 770.79 145.75 771.73 143.21 772.68 140.98 773.62 138.9 774.57 138.87 775.51 134.69 776.46 128.67 777.4 121.14 778.35 113.51 779.29 106.63 780.24 101.83 781.18 96.15 782.13 93.89 783.07 93.55 784.02 90.78 784.96 87.2 785.91 86.67 786.85 86.71 787.8 82.95 788.74 78.92" style="stroke-width:1.2;stroke:#f9c991;stroke-linecap:butt;fill:none;stroke-linejoin:round;stroke-miterlimit:10"/><line x1="127.35" y1="399.44" x2="217.11" y2="97.16" style="stroke-width:1.2;stroke:#c6c4c4;stroke-linecap:butt;fill:none;stroke-linejoin:round;stroke-miterlimit:10"/><line x1="410.8" y1="401.32" x2="476.94" y2="221.64" style="stroke-width:1.2;stroke:#c6c4c4;stroke-linecap:butt;fill:none;stroke-linejoin:round;stroke-miterlimit:10"/><line x1="175.54" y1="320.18" x2="175.54" y2="388.29" style="stroke-width:1.6;stroke:#c6c4c4;stroke-linecap:butt;fill:none;stroke-linejoin:round;stroke-miterlimit:10"/><polyline points="171.53 384.28 175.54 388.29 179.55 384.28" style="stroke-width:1.6;stroke:#c6c4c4;stroke-linecap:butt;fill:none;stroke-linejoin:round;stroke-miterlimit:10"/><circle cx="175.54" cy="401.26" r="2.2" style="stroke-width:1.2;fill:#000;stroke:#000;stroke-linecap:round;stroke-linejoin:round;stroke-miterlimit:10"/><text x="168.53" y="315.83" style="font-size:14px;font-weight:700;font-family:Asap" textLength="29.97" lengthAdjust="spacingAndGlyphs">1347</text><text x="201.86" y="315.83" style="font-size:14px;font-family:Asap" textLength="34.18" lengthAdjust="spacingAndGlyphs">Black</text><text x="239.41" y="315.83" style="font-size:14px;font-family:Asap" textLength="37.61" lengthAdjust="spacingAndGlyphs">Death</text><defs><clipPath id="prefix__a"><rect x="187.45" y="0" width="321.05" height="317.59" style="fill:none;stroke:#000;stroke-linecap:round;stroke-linejoin:round;stroke-miterlimit:10"/></clipPath></defs><rect x="187.45" y="-3.46" width="321.05" height="321.05" style="stroke-width:1.07;stroke:none;fill:none;stroke-linecap:round;stroke-linejoin:round;stroke-miterlimit:10" clip-path="url(#prefix__a)"/><defs><clipPath id="prefix__d"><rect x="0" y="0" width="810" height="510" style="fill:none;stroke:#000;stroke-linecap:round;stroke-linejoin:round;stroke-miterlimit:10"/></clipPath></defs><defs><clipPath id="prefix__b"><rect x="190.19" y="0" width="318.31" height="314.85" style="fill:none;stroke:#000;stroke-linecap:round;stroke-linejoin:round;stroke-miterlimit:10"/></clipPath></defs><rect x="190.19" y="-3.46" width="318.31" height="318.31" style="stroke-width:1.07;stroke:none;fill:none;stroke-linecap:round;stroke-linejoin:round;stroke-miterlimit:10" clip-path="url(#prefix__b)"/><polygon points="349.34 11.01 351.87 11.03 354.39 11.1 356.91 11.21 359.43 11.36 361.95 11.56 364.47 11.8 366.97 12.09 369.48 12.42 371.98 12.79 374.47 13.21 376.95 13.67 379.42 14.17 381.89 14.72 384.34 15.31 386.79 15.94 389.22 16.61 391.64 17.33 394.05 18.09 396.45 18.89 398.83 19.73 401.19 20.62 403.54 21.54 405.87 22.51 408.19 23.52 410.49 24.56 412.77 25.65 415.03 26.78 417.27 27.94 419.49 29.15 421.68 30.39 423.86 31.67 426.01 32.99 428.14 34.35 430.25 35.74 432.33 37.17 434.39 38.64 436.42 40.14 438.42 41.68 440.4 43.25 442.34 44.86 444.26 46.5 446.16 48.17 448.02 49.88 449.85 51.62 451.65 53.39 453.42 55.19 455.16 57.02 456.86 58.88 458.54 60.77 460.18 62.69 461.78 64.64 463.36 66.62 464.89 68.62 466.4 70.65 467.86 72.71 469.29 74.79 470.69 76.89 472.04 79.02 473.36 81.18 474.64 83.35 475.89 85.55 477.09 87.77 478.26 90.01 479.38 92.27 480.47 94.55 481.52 96.84 482.53 99.16 483.49 101.49 484.42 103.84 485.3 106.21 486.15 108.59 486.95 110.98 487.71 113.39 488.42 115.81 489.1 118.25 489.73 120.69 490.32 123.15 490.87 125.61 491.37 128.09 491.83 130.57 492.25 133.06 492.62 135.56 492.95 138.06 493.24 140.57 493.48 143.08 493.68 145.6 493.83 148.12 493.94 150.64 494.01 153.17 494.03 155.69 494.01 158.22 493.94 160.74 493.83 163.27 493.68 165.79 493.48 168.3 493.24 170.82 492.95 173.33 492.62 175.83 492.25 178.33 491.83 180.82 491.37 183.3 490.87 185.78 490.32 188.24 489.73 190.7 489.1 193.14 488.42 195.58 487.71 198 486.95 200.41 486.15 202.8 485.3 205.18 484.42 207.55 483.49 209.89 482.53 212.23 481.52 214.54 480.47 216.84 479.38 219.12 478.26 221.38 477.09 223.62 475.89 225.84 474.64 228.04 473.36 230.21 472.04 232.37 470.69 234.5 469.29 236.6 467.86 238.68 466.4 240.74 464.89 242.77 463.36 244.77 461.78 246.75 460.18 248.7 458.54 250.62 456.86 252.51 455.16 254.37 453.42 256.2 451.65 258 449.85 259.77 448.02 261.51 446.16 263.22 444.26 264.89 442.34 266.53 440.4 268.14 438.42 269.71 436.42 271.25 434.39 272.75 432.33 274.21 430.25 275.65 428.14 277.04 426.01 278.4 423.86 279.72 421.68 281 419.49 282.24 417.27 283.45 415.03 284.61 412.77 285.74 410.49 286.83 408.19 287.87 405.87 288.88 403.54 289.85 401.19 290.77 398.83 291.66 396.45 292.5 394.05 293.3 391.64 294.06 389.22 294.78 386.79 295.45 384.34 296.08 381.89 296.67 379.42 297.22 376.95 297.72 374.47 298.18 371.98 298.6 369.48 298.97 366.97 299.3 364.47 299.59 361.95 299.83 359.43 300.03 356.91 300.18 354.39 300.29 351.87 300.36 349.34 300.38 346.82 300.36 344.29 300.29 341.77 300.18 339.25 300.03 336.73 299.83 334.22 299.59 331.71 299.3 329.2 298.97 326.71 298.6 324.22 298.18 321.73 297.72 319.26 297.22 316.79 296.67 314.34 296.08 311.89 295.45 309.46 294.78 307.04 294.06 304.63 293.3 302.24 292.5 299.86 291.66 297.49 290.77 295.14 289.85 292.81 288.88 290.49 287.87 288.19 286.83 285.91 285.74 283.65 284.61 281.41 283.45 279.2 282.24 277 281 274.82 279.72 272.67 278.4 270.54 277.04 268.43 275.65 266.35 274.21 264.3 272.75 262.27 271.25 260.26 269.71 258.29 268.14 256.34 266.53 254.42 264.89 252.53 263.22 250.67 261.51 248.83 259.77 247.03 258 245.26 256.2 243.52 254.37 241.82 252.51 240.14 250.62 238.5 248.7 236.9 246.75 235.33 244.77 233.79 242.77 232.29 240.74 230.82 238.68 229.39 236.6 228 234.5 226.64 232.37 225.32 230.21 224.04 228.04 222.8 225.84 221.59 223.62 220.42 221.38 219.3 219.12 218.21 216.84 217.16 214.54 216.16 212.23 215.19 209.89 214.26 207.55 213.38 205.18 212.54 202.8 211.74 200.41 210.98 198 210.26 195.58 209.58 193.14 208.95 190.7 208.36 188.24 207.82 185.78 207.31 183.3 206.85 180.82 206.44 178.33 206.06 175.83 205.73 173.33 205.45 170.82 205.2 168.3 205.01 165.79 204.85 163.27 204.74 160.74 204.68 158.22 204.65 155.69 204.68 153.17 204.74 150.64 204.85 148.12 205.01 145.6 205.2 143.08 205.45 140.57 205.73 138.06 206.06 135.56 206.44 133.06 206.85 130.57 207.31 128.09 207.82 125.61 208.36 123.15 208.95 120.69 209.58 118.25 210.26 115.81 210.98 113.39 211.74 110.98 212.54 108.59 213.38 106.21 214.26 103.84 215.19 101.49 216.16 99.16 217.16 96.84 218.21 94.55 219.3 92.27 220.42 90.01 221.59 87.77 222.8 85.55 224.04 83.35 225.32 81.18 226.64 79.02 228 76.89 229.39 74.79 230.82 72.71 232.29 70.65 233.79 68.62 235.33 66.62 236.9 64.64 238.5 62.69 240.14 60.77 241.82 58.88 243.52 57.02 245.26 55.19 247.03 53.39 248.83 51.62 250.67 49.88 252.53 48.17 254.42 46.5 256.34 44.86 258.29 43.25 260.26 41.68 262.27 40.14 264.3 38.64 266.35 37.17 268.43 35.74 270.54 34.35 272.67 32.99 274.82 31.67 277 30.39 279.2 29.15 281.41 27.94 283.65 26.78 285.91 25.65 288.19 24.56 290.49 23.52 292.81 22.51 295.14 21.54 297.49 20.62 299.86 19.73 302.24 18.89 304.63 18.09 307.04 17.33 309.46 16.61 311.89 15.94 314.34 15.31 316.79 14.72 319.26 14.17 321.73 13.67 324.22 13.21 326.71 12.79 329.2 12.42 331.71 12.09 334.22 11.8 336.73 11.56 339.25 11.36 341.77 11.21 344.29 11.1 346.82 11.03 349.34 11.01" style="stroke-width:1.6;stroke:#c6c4c4;fill:#fff;stroke-linecap:round;stroke-linejoin:round;stroke-miterlimit:10" clip-path="url(#prefix__b)"/><defs><clipPath id="prefix__c"><rect x="233.17" y="71.74" width="229.6" height="170.64" style="fill:none;stroke:#000;stroke-linecap:round;stroke-linejoin:round;stroke-miterlimit:10"/></clipPath></defs><rect x="233.17" y="71.74" width="229.6" height="170.64" style="stroke-width:1.07;stroke:none;fill:none;stroke-linecap:round;stroke-linejoin:round;stroke-miterlimit:10" clip-path="url(#prefix__c)"/><rect x="272.32" y="71.74" width="176.28" height="158" style="stroke-width:1.07;stroke:none;fill:#fff;stroke-linecap:round;stroke-linejoin:round;stroke-miterlimit:10" clip-path="url(#prefix__d)"/><polyline points="272.32 229.75 448.6 229.75" style="stroke-width:1.07;stroke:#c6c4c4;stroke-linecap:butt;fill:none;stroke-linejoin:round;stroke-miterlimit:10" clip-path="url(#prefix__d)"/><polyline points="272.32 190.25 448.6 190.25" style="stroke-width:1.07;stroke:#c6c4c4;stroke-linecap:butt;fill:none;stroke-linejoin:round;stroke-miterlimit:10" clip-path="url(#prefix__d)"/><polyline points="272.32 150.75 448.6 150.75" style="stroke-width:1.07;stroke:#c6c4c4;stroke-linecap:butt;fill:none;stroke-linejoin:round;stroke-miterlimit:10" clip-path="url(#prefix__d)"/><polyline points="272.32 111.25 448.6 111.25" style="stroke-width:1.07;stroke:#c6c4c4;stroke-linecap:butt;fill:none;stroke-linejoin:round;stroke-miterlimit:10" clip-path="url(#prefix__d)"/><polyline points="272.32 71.74 448.6 71.74" style="stroke-width:1.07;stroke:#c6c4c4;stroke-linecap:butt;fill:none;stroke-linejoin:round;stroke-miterlimit:10" clip-path="url(#prefix__d)"/><polyline points="272.32 165.57 272.91 162.75 273.49 160.48 274.08 159.15 274.67 162.77 275.26 165.06 275.84 167.89 276.43 167.96 277.02 166.12 277.61 161.77 278.19 160.14 278.78 166.67 279.37 177.92 279.96 183.12 280.54 182.25 281.13 176.47 281.72 166.64 282.31 163.25 282.89 164.66 283.48 167.84 284.07 171.5 284.66 170.25 285.24 158.39 285.83 148.1 286.42 145.74 287.01 144.55 287.6 148.44 288.18 155.24 288.77 157.1 289.36 153.48 289.95 149.28 290.53 144.58 291.12 139.98 291.71 136.58 292.3 135.64 292.88 139.19 293.47 136.29 294.06 138.64 294.65 145.2 295.23 152.95 295.82 154.16 296.41 160.14 297 166.33 297.58 172.49 298.17 171.98 298.76 175.86 299.35 182.75 299.93 182.98 300.52 180.6 301.11 176.78 301.7 171.93 302.29 164.01 302.87 159.92 303.46 157.4 304.05 158.33 304.64 160.32 305.22 162.11 305.81 156.5 306.4 153.48 306.99 152.16 307.57 147.54 308.16 139.26 308.75 139.08 309.34 138.7 309.92 137.38 310.51 144.25 311.1 151.5 311.69 152.79 312.27 152.47 312.86 150.96 313.45 144.67 314.04 140.62 314.62 136.47 315.21 128.41 315.8 122.59 316.39 119.04 316.98 116.83 317.56 117.88 318.15 123.12 318.74 128.33 319.33 129.47 319.91 129.19 320.5 126.42 321.09 121.09 321.68 114.81 322.26 112.62 322.85 115.7 323.44 117.54 324.03 117.92 324.61 120.82 325.2 117.25 325.79 111.93 326.38 113.62 326.96 118.18 327.55 120.13 328.14 123.86 328.73 128.74 329.31 130.29 329.9 131.54 330.49 126.71 331.08 122.12 331.66 111.2 332.25 103.76 332.84 98.45 333.43 105.26 334.02 112.8 334.6 117.22 335.19 117.65 335.78 119.8 336.37 113.59 336.95 106.68 337.54 107.59 338.13 111.6 338.72 108.3 339.3 109.93 339.89 108.2 340.48 105.07 341.07 99.43 341.65 97.33 342.24 93.19 342.83 95.19 343.42 92.96 344 90.33 344.59 89.32 345.18 98.15 345.77 103.64 346.35 108.79 346.94 113.12 347.53 120.5 348.12 116.69 348.71 111.92 349.29 110.43 349.88 111.15 350.47 113.45 351.06 123.16 351.64 127.58 352.23 125.71 352.82 123.57 353.41 116.92 353.99 104.49 354.58 96.61 355.17 101.07 355.76 102.8 356.34 103.53 356.93 104.51 357.52 106.49 358.11 106.04 358.69 106.88 359.28 106.41 359.87 105.67 360.46 103.46 361.04 99.73 361.63 97.12 362.22 97.75 362.81 97.9 363.4 99.86 363.98 103.45 364.57 107.86 365.16 103.71 365.75 100.12 366.33 99.39 366.92 96.31 367.51 93.16 368.1 96.92 368.68 100.89 369.27 103.79 369.86 105.61 370.45 106.78 371.03 103.94 371.62 101.14 372.21 98.63 372.8 96.74 373.38 94.24 373.97 98.47 374.56 103.8 375.15 106.01 375.73 108.71 376.32 116.01 376.91 122.68 377.5 123.55 378.08 122.32 378.67 118.31 379.26 112.34 379.85 104.57 380.44 101.28 381.02 102.29 381.61 104.29 382.2 105.12 382.79 102.08 383.37 98.57 383.96 95.33 384.55 93.19 385.14 92.2 385.72 93.47 386.31 96.87 386.9 97.95 387.49 101.74 388.07 106.7 388.66 112.35 389.25 114.43 389.84 116.33 390.42 113.66 391.01 108.33 391.6 103.99 392.19 100.59 392.77 96.19 393.36 94.21 393.95 95.76 394.54 101.44 395.13 104.54 395.71 109.58 396.3 115.48 396.89 116.94 397.48 114.83 398.06 115.96 398.65 120.54 399.24 124.53 399.83 126.69 400.41 125.16 401 122.81 401.59 118.87 402.18 114.05 402.76 114.07 403.35 123.86 403.94 130.07 404.53 134.78 405.11 138.63 405.7 141.4 406.29 135.6 406.88 134.07 407.46 130.95 408.05 133.84 408.64 135.77 409.23 134.41 409.82 135.02 410.4 135.48 410.99 130.04 411.58 129.07 412.17 132.95 412.75 136.35 413.34 140.34 413.93 148.11 414.52 147.62 415.1 144.48 415.69 144.38 416.28 150.83 416.87 154.26 417.45 153.61 418.04 154.94 418.63 152.83 419.22 149.1 419.8 150.79 420.39 158.91 420.98 159.46 421.57 159.61 422.15 159.1 422.74 154.52 423.33 147.98 423.92 155.7 424.51 155.96 425.09 153.44 425.68 151.95 426.27 150.31 426.86 142.4 427.44 144.17 428.03 143.47 428.62 140.16 429.21 141.7 429.79 145.11 430.38 151.66 430.97 153.79 431.56 153.68 432.14 154.43 432.73 151.87 433.32 141.33 433.91 137.78 434.49 137.61 435.08 134.45 435.67 132.88 436.26 133.54 436.84 134.31 437.43 140.19 438.02 150.86 438.61 151.31 439.19 151.32 439.78 155.23 440.37 154.8 440.96 145.33 441.55 147.18 442.13 150.88 442.72 158.61 443.31 164.18 443.9 177.37 444.48 187.24 445.07 190.23 445.66 186.47 446.25 183.19 446.83 174.54 447.42 165.68 448.01 163.29" style="stroke-width:1.2;stroke:#f49323;stroke-linecap:butt;fill:none;stroke-linejoin:round;stroke-miterlimit:10" clip-path="url(#prefix__d)"/><circle cx="299.93" cy="182.98" r="1.13" style="stroke-width:1.2;fill:#000;stroke:#000;stroke-linecap:round;stroke-linejoin:round;stroke-miterlimit:10" clip-path="url(#prefix__d)"/><polyline points="272.32 229.75 272.32 71.74" style="stroke-width:1.07;stroke:#464646;stroke-linecap:butt;fill:none;stroke-linejoin:round;stroke-miterlimit:10" clip-path="url(#prefix__d)"/><g clip-path="url(#prefix__d)"><text x="258.43" y="231.71" style="font-size:8px;font-family:Asap" textLength="8.56" lengthAdjust="spacingAndGlyphs">30</text></g><g clip-path="url(#prefix__d)"><text x="258.43" y="192.21" style="font-size:8px;font-family:Asap" textLength="8.56" lengthAdjust="spacingAndGlyphs">50</text></g><g clip-path="url(#prefix__d)"><text x="258.43" y="152.71" style="font-size:8px;font-family:Asap" textLength="8.56" lengthAdjust="spacingAndGlyphs">70</text></g><g clip-path="url(#prefix__d)"><text x="258.43" y="113.21" style="font-size:8px;font-family:Asap" textLength="8.56" lengthAdjust="spacingAndGlyphs">90</text></g><g clip-path="url(#prefix__d)"><text x="254.15" y="73.7" style="font-size:8px;font-family:Asap" textLength="12.84" lengthAdjust="spacingAndGlyphs">110</text></g><polyline points="269.48 229.75 272.32 229.75" style="stroke-width:1.07;stroke:#464646;stroke-linecap:butt;fill:none;stroke-linejoin:round;stroke-miterlimit:10" clip-path="url(#prefix__d)"/><polyline points="269.48 190.25 272.32 190.25" style="stroke-width:1.07;stroke:#464646;stroke-linecap:butt;fill:none;stroke-linejoin:round;stroke-miterlimit:10" clip-path="url(#prefix__d)"/><polyline points="269.48 150.75 272.32 150.75" style="stroke-width:1.07;stroke:#464646;stroke-linecap:butt;fill:none;stroke-linejoin:round;stroke-miterlimit:10" clip-path="url(#prefix__d)"/><polyline points="269.48 111.25 272.32 111.25" style="stroke-width:1.07;stroke:#464646;stroke-linecap:butt;fill:none;stroke-linejoin:round;stroke-miterlimit:10" clip-path="url(#prefix__d)"/><polyline points="269.48 71.74 272.32 71.74" style="stroke-width:1.07;stroke:#464646;stroke-linecap:butt;fill:none;stroke-linejoin:round;stroke-miterlimit:10" clip-path="url(#prefix__d)"/><polyline points="272.32 229.75 448.6 229.75" style="stroke-width:1.07;stroke:#464646;stroke-linecap:butt;fill:none;stroke-linejoin:round;stroke-miterlimit:10" clip-path="url(#prefix__d)"/><polyline points="272.32 232.58 272.32 229.75" style="stroke-width:1.07;stroke:#464646;stroke-linecap:butt;fill:none;stroke-linejoin:round;stroke-miterlimit:10" clip-path="url(#prefix__d)"/><polyline points="301.7 232.58 301.7 229.75" style="stroke-width:1.07;stroke:#464646;stroke-linecap:butt;fill:none;stroke-linejoin:round;stroke-miterlimit:10" clip-path="url(#prefix__d)"/><polyline points="331.08 232.58 331.08 229.75" style="stroke-width:1.07;stroke:#464646;stroke-linecap:butt;fill:none;stroke-linejoin:round;stroke-miterlimit:10" clip-path="url(#prefix__d)"/><polyline points="360.46 232.58 360.46 229.75" style="stroke-width:1.07;stroke:#464646;stroke-linecap:butt;fill:none;stroke-linejoin:round;stroke-miterlimit:10" clip-path="url(#prefix__d)"/><polyline points="389.84 232.58 389.84 229.75" style="stroke-width:1.07;stroke:#464646;stroke-linecap:butt;fill:none;stroke-linejoin:round;stroke-miterlimit:10" clip-path="url(#prefix__d)"/><polyline points="419.22 232.58 419.22 229.75" style="stroke-width:1.07;stroke:#464646;stroke-linecap:butt;fill:none;stroke-linejoin:round;stroke-miterlimit:10" clip-path="url(#prefix__d)"/><polyline points="448.6 232.58 448.6 229.75" style="stroke-width:1.07;stroke:#464646;stroke-linecap:butt;fill:none;stroke-linejoin:round;stroke-miterlimit:10" clip-path="url(#prefix__d)"/><g clip-path="url(#prefix__d)"><text x="263.76" y="240.69" style="font-size:8px;font-family:Asap" textLength="17.12" lengthAdjust="spacingAndGlyphs">1300</text></g><g clip-path="url(#prefix__d)"><text x="293.14" y="240.69" style="font-size:8px;fill:none;font-family:Asap" textLength="17.12" lengthAdjust="spacingAndGlyphs">1350</text></g><g clip-path="url(#prefix__d)"><text x="322.52" y="240.69" style="font-size:8px;font-family:Asap" textLength="17.12" lengthAdjust="spacingAndGlyphs">1400</text></g><g clip-path="url(#prefix__d)"><text x="351.9" y="240.69" style="font-size:8px;fill:none;font-family:Asap" textLength="17.12" lengthAdjust="spacingAndGlyphs">1450</text></g><g clip-path="url(#prefix__d)"><text x="381.28" y="240.69" style="font-size:8px;font-family:Asap" textLength="17.12" lengthAdjust="spacingAndGlyphs">1500</text></g><g clip-path="url(#prefix__d)"><text x="410.66" y="240.69" style="font-size:8px;fill:none;font-family:Asap" textLength="17.12" lengthAdjust="spacingAndGlyphs">1550</text></g><g clip-path="url(#prefix__d)"><text x="440.04" y="240.69" style="font-size:8px;font-family:Asap" textLength="17.12" lengthAdjust="spacingAndGlyphs">1600</text></g><g clip-path="url(#prefix__d)"><text transform="rotate(-90 225.35 -21.75)" style="font-size:9.75px;font-family:Asap Medium" textLength="19.41" lengthAdjust="spacingAndGlyphs">Real</text></g><g clip-path="url(#prefix__d)"><text transform="rotate(-90 214.475 -32.625)" style="font-size:9.75px;font-family:Asap Medium" textLength="23.18" lengthAdjust="spacingAndGlyphs">wage</text></g><g clip-path="url(#prefix__d)"><text transform="rotate(-90 201.715 -45.385)" style="font-size:9.75px;font-family:Asap Medium" textLength="23.51" lengthAdjust="spacingAndGlyphs">index</text></g><g clip-path="url(#prefix__d)"><text transform="rotate(-90 188.795 -58.305)" style="font-size:9.75px;font-family:Asap Medium" textLength="23.8" lengthAdjust="spacingAndGlyphs">(1850</text></g><g clip-path="url(#prefix__d)"><text transform="rotate(-90 175.725 -71.375)" style="font-size:9.75px;font-family:Asap Medium" textLength="5.46" lengthAdjust="spacingAndGlyphs">=</text></g><g clip-path="url(#prefix__d)"><text transform="rotate(-90 171.825 -75.275)" style="font-size:9.75px;font-family:Asap Medium" textLength="18.58" lengthAdjust="spacingAndGlyphs">100)</text></g><polyline points="93.34 429.1 93.34 14.17" style="stroke-width:1.07;stroke:#464646;stroke-linecap:butt;fill:none;stroke-linejoin:round;stroke-miterlimit:10" clip-path="url(#prefix__d)"/><g clip-path="url(#prefix__d)"><text x="66.66" y="433.51" style="font-size:18px;font-family:Asap" textLength="9.63" lengthAdjust="spacingAndGlyphs">0</text></g><g clip-path="url(#prefix__d)"><text x="47.4" y="329.78" style="font-size:18px;font-family:Asap" textLength="28.89" lengthAdjust="spacingAndGlyphs">200</text></g><g clip-path="url(#prefix__d)"><text x="47.4" y="226.05" style="font-size:18px;font-family:Asap" textLength="28.89" lengthAdjust="spacingAndGlyphs">400</text></g><g clip-path="url(#prefix__d)"><text x="47.4" y="122.32" style="font-size:18px;font-family:Asap" textLength="28.89" lengthAdjust="spacingAndGlyphs">600</text></g><g clip-path="url(#prefix__d)"><text x="47.4" y="18.58" style="font-size:18px;font-family:Asap" textLength="28.89" lengthAdjust="spacingAndGlyphs">800</text></g><polyline points="86.25 429.1 93.34 429.1" style="stroke-width:1.07;stroke:#464646;stroke-linecap:butt;fill:none;stroke-linejoin:round;stroke-miterlimit:10" clip-path="url(#prefix__d)"/><polyline points="86.25 325.37 93.34 325.37" style="stroke-width:1.07;stroke:#464646;stroke-linecap:butt;fill:none;stroke-linejoin:round;stroke-miterlimit:10" clip-path="url(#prefix__d)"/><polyline points="86.25 221.64 93.34 221.64" style="stroke-width:1.07;stroke:#464646;stroke-linecap:butt;fill:none;stroke-linejoin:round;stroke-miterlimit:10" clip-path="url(#prefix__d)"/><polyline points="86.25 117.91 93.34 117.91" style="stroke-width:1.07;stroke:#464646;stroke-linecap:butt;fill:none;stroke-linejoin:round;stroke-miterlimit:10" clip-path="url(#prefix__d)"/><polyline points="86.25 14.17 93.34 14.17" style="stroke-width:1.07;stroke:#464646;stroke-linecap:butt;fill:none;stroke-linejoin:round;stroke-miterlimit:10" clip-path="url(#prefix__d)"/><polyline points="93.34 429.1 788.74 429.1" style="stroke-width:1.07;stroke:#464646;stroke-linecap:butt;fill:none;stroke-linejoin:round;stroke-miterlimit:10" clip-path="url(#prefix__d)"/><polyline points="127.35 436.19 127.35 429.1" style="stroke-width:1.07;stroke:#464646;stroke-linecap:butt;fill:none;stroke-linejoin:round;stroke-miterlimit:10" clip-path="url(#prefix__d)"/><polyline points="410.8 436.19 410.8 429.1" style="stroke-width:1.07;stroke:#464646;stroke-linecap:butt;fill:none;stroke-linejoin:round;stroke-miterlimit:10" clip-path="url(#prefix__d)"/><polyline points="788.74 436.19 788.74 429.1" style="stroke-width:1.07;stroke:#464646;stroke-linecap:butt;fill:none;stroke-linejoin:round;stroke-miterlimit:10" clip-path="url(#prefix__d)"/><g clip-path="url(#prefix__d)"><text x="108.09" y="458.79" style="font-size:18px;font-family:Asap" textLength="38.52" lengthAdjust="spacingAndGlyphs">1300</text></g><g clip-path="url(#prefix__d)"><text x="391.54" y="458.79" style="font-size:18px;font-family:Asap" textLength="38.52" lengthAdjust="spacingAndGlyphs">1600</text></g><g clip-path="url(#prefix__d)"><text x="769.48" y="458.79" style="font-size:18px;font-family:Asap" textLength="38.52" lengthAdjust="spacingAndGlyphs">2000</text></g><g clip-path="url(#prefix__d)"><text x="420.95" y="491.59" style="font-size:20px;font-family:Asap Medium" textLength="40.18" lengthAdjust="spacingAndGlyphs">Year</text></g><g clip-path="url(#prefix__d)"><text transform="rotate(-90 189.355 161.145)" style="font-size:20px;font-family:Asap Medium" textLength="39.82" lengthAdjust="spacingAndGlyphs">Real</text></g><g clip-path="url(#prefix__d)"><text transform="rotate(-90 167.045 138.835)" style="font-size:20px;font-family:Asap Medium" textLength="47.54" lengthAdjust="spacingAndGlyphs">wage</text></g><g clip-path="url(#prefix__d)"><text transform="rotate(-90 140.875 112.665)" style="font-size:20px;font-family:Asap Medium" textLength="48.22" lengthAdjust="spacingAndGlyphs">index</text></g><g clip-path="url(#prefix__d)"><text transform="rotate(-90 114.365 86.155)" style="font-size:20px;font-family:Asap Medium" textLength="48.82" lengthAdjust="spacingAndGlyphs">(1850</text></g><g clip-path="url(#prefix__d)"><text transform="rotate(-90 87.555 59.345)" style="font-size:20px;font-family:Asap Medium" textLength="11.2" lengthAdjust="spacingAndGlyphs">=</text></g><g clip-path="url(#prefix__d)"><text transform="rotate(-90 79.555 51.345)" style="font-size:20px;font-family:Asap Medium" textLength="38.12" lengthAdjust="spacingAndGlyphs">100)</text></g></svg>