<svg xmlns="http://www.w3.org/2000/svg" viewBox="0 0 810 510"><rect width="100%" height="100%" style="stroke:none;fill:#fff;stroke-linecap:round;stroke-linejoin:round;stroke-miterlimit:10"/><rect x="0" y="0" width="810" height="510" style="stroke-width:1.07;stroke:#fff;fill:#fff;stroke-linecap:round;stroke-linejoin:round;stroke-miterlimit:10"/><rect x="93.34" y="14.17" width="695.4" height="414.93" style="stroke-width:1.07;stroke:none;fill:#fff;stroke-linecap:round;stroke-linejoin:round;stroke-miterlimit:10"/><polyline points="93.34 429.1 788.74 429.1" style="stroke-width:1.07;stroke:#c6c4c4;stroke-linecap:butt;fill:none;stroke-linejoin:round;stroke-miterlimit:10"/><polyline points="93.34 325.37 788.74 325.37" style="stroke-width:1.07;stroke:#c6c4c4;stroke-linecap:butt;fill:none;stroke-linejoin:round;stroke-miterlimit:10"/><polyline points="93.34 221.64 788.74 221.64" style="stroke-width:1.07;stroke:#c6c4c4;stroke-linecap:butt;fill:none;stroke-linejoin:round;stroke-miterlimit:10"/><polyline points="93.34 117.91 788.74 117.91" style="stroke-width:1.07;stroke:#c6c4c4;stroke-linecap:butt;fill:none;stroke-linejoin:round;stroke-miterlimit:10"/><polyline points="93.34 14.17 788.74 14.17" style="stroke-width:1.07;stroke:#c6c4c4;stroke-linecap:butt;fill:none;stroke-linejoin:round;stroke-miterlimit:10"/><polyline points="596.35 158.47 598.66 154.45 600.98 148.29 603.3 137.93 605.62 125.28 607.94 125.33 610.25 151.03 612.57 167.33 614.89 179.71 617.21 189.83 619.53 197.09 621.84 181.87 624.16 177.86 626.48 169.64 628.8 177.23 631.12 182.31 633.43 178.74 635.75 180.34 638.07 181.55 640.39 167.26 642.71 164.72 645.02 174.9 647.34 183.82 649.66 194.3 651.98 214.71 654.3 213.42 656.61 205.19 658.93 204.93 661.25 221.87 663.57 230.86 665.89 229.15 668.2 232.65 670.52 227.12 672.84 217.32 675.16 221.75 677.48 243.09 679.79 244.53 682.11 244.91 684.43 243.57 686.75 231.55 689.07 214.37 691.38 234.64 693.7 235.33 696.02 228.72 698.34 224.8 700.66 220.49 702.97 199.72 705.29 204.38 707.61 202.53 709.93 193.83 712.25 197.89 714.56 206.85 716.88 224.04 719.2 229.64 721.52 229.34 723.84 231.32 726.15 224.58 728.47 196.92 730.79 187.6 733.11 187.14 735.43 178.85 737.74 174.73 740.06 176.46 742.38 178.47 744.7 193.91 747.02 221.94 749.33 223.11 751.65 223.14 753.97 233.41 756.29 232.28 758.61 207.41 760.92 212.27 763.24 221.98 765.56 242.28 767.88 256.93 770.2 291.57 772.51 317.46 774.83 325.31 777.15 315.44 779.47 306.84 781.79 284.13 784.1 260.86 786.42 254.59 788.74 250.41" style="stroke-width:1.2;stroke:#f49323;stroke-linecap:butt;fill:none;stroke-linejoin:round;stroke-miterlimit:10"/><polyline points="93.34 260.57 95.65 253.17 97.97 247.21 100.29 243.71 102.61 253.2 104.93 259.22 107.24 266.65 109.56 266.85 111.88 262.02 114.2 250.59 116.52 246.31 118.83 263.47 121.15 293.01 123.47 306.66 125.79 304.38 128.11 289.2 130.42 263.38 132.74 254.48 135.06 258.18 137.38 266.53 139.7 276.15 142.01 272.86 144.33 241.71 146.65 214.7 148.97 208.5 151.29 205.36 153.6 215.59 155.92 233.43 158.24 238.32 160.56 228.81 162.88 217.8 165.19 205.45 167.51 193.35 169.83 184.44 172.15 181.96 174.47 191.28 176.78 183.67 179.1 189.84 181.42 207.09 183.74 227.43 186.06 230.59 188.37 246.3 190.69 262.57 193.01 278.74 195.33 277.41 197.65 287.58 199.97 305.69 202.28 306.28 204.6 300.05 206.92 290 209.24 277.27 211.56 256.48 213.87 245.74 216.19 239.11 218.51 241.55 220.83 246.77 223.15 251.49 225.46 236.75 227.78 228.82 230.1 225.35 232.42 213.21 234.74 191.47 237.05 191.01 239.37 190.01 241.69 186.55 244.01 204.58 246.33 223.62 248.64 227.01 250.96 226.17 253.28 222.2 255.6 205.68 257.92 195.03 260.23 184.16 262.55 162.99 264.87 147.69 267.19 138.37 269.51 132.58 271.82 135.34 274.14 149.1 276.46 162.77 278.78 165.76 281.1 165.02 283.41 157.75 285.73 143.76 288.05 127.26 290.37 121.5 292.69 129.6 295 134.44 297.32 135.42 299.64 143.05 301.96 133.68 304.28 119.72 306.59 124.15 308.91 136.11 311.23 141.23 313.55 151.02 315.87 163.84 318.18 167.91 320.5 171.2 322.82 158.51 325.14 146.48 327.46 117.8 329.77 98.25 332.09 84.3 334.41 102.2 336.73 121.99 339.05 133.6 341.36 134.73 343.68 140.38 346 124.05 348.32 105.91 350.64 108.31 352.95 118.85 355.27 110.18 357.59 114.46 359.91 109.9 362.23 101.68 364.54 86.88 366.86 81.35 369.18 70.49 371.5 75.74 373.82 69.89 376.13 62.98 378.45 60.33 380.77 83.52 383.09 97.93 385.41 111.46 387.72 122.83 390.04 142.2 392.36 132.21 394.68 119.68 397 115.78 399.31 117.65 401.63 123.7 403.95 149.19 406.27 160.8 408.59 155.9 410.9 150.28 413.22 132.82 415.54 100.17 417.86 79.47 420.18 91.19 422.49 95.74 424.81 97.66 427.13 100.22 429.45 105.41 431.77 104.25 434.08 106.43 436.4 105.2 438.72 103.26 441.04 97.45 443.36 87.66 445.67 80.8 447.99 82.46 450.31 82.85 452.63 88.02 454.95 97.44 457.26 109.01 459.58 98.1 461.9 88.7 464.22 86.78 466.54 78.68 468.85 70.41 471.17 80.29 473.49 90.71 475.81 98.34 478.13 103.1 480.44 106.19 482.76 98.72 485.08 91.36 487.4 84.77 489.72 79.81 492.03 73.25 494.35 84.36 496.67 98.35 498.99 104.16 501.31 111.25 503.62 130.41 505.94 147.92 508.26 150.23 510.58 147 512.9 136.47 515.21 120.79 517.53 100.38 519.85 91.75 522.17 94.38 524.49 99.65 526.8 101.82 529.12 93.82 531.44 84.63 533.76 76.1 536.08 70.5 538.39 67.89 540.71 71.23 543.03 80.15 545.35 83 547.67 92.94 549.98 105.96 552.3 120.82 554.62 126.28 556.94 131.27 559.26 124.25 561.57 110.24 563.89 98.86 566.21 89.92 568.53 78.37 570.85 73.17 573.17 77.24 575.48 92.16 577.8 100.3 580.12 113.55 582.44 129.02 584.76 132.86 587.07 127.33 589.39 130.3 591.71 142.32 594.03 152.8 596.35 158.47" style="stroke-width:1.2;stroke:#f9c991;stroke-linecap:butt;fill:none;stroke-linejoin:round;stroke-miterlimit:10"/><circle cx="202.28" cy="306.28" r="2.2" style="stroke-width:1.2;fill:#000;stroke:#000;stroke-linecap:round;stroke-linejoin:round;stroke-miterlimit:10"/><circle cx="211.56" cy="256.48" r="2.2" style="stroke-width:1.2;fill:#000;stroke:#000;stroke-linecap:round;stroke-linejoin:round;stroke-miterlimit:10"/><circle cx="281.1" cy="165.02" r="2.2" style="stroke-width:1.2;fill:#000;stroke:#000;stroke-linecap:round;stroke-linejoin:round;stroke-miterlimit:10"/><text x="199.97" y="344.36" style="font-size:14px;font-weight:700;font-family:Asap" textLength="29.97" lengthAdjust="spacingAndGlyphs">1347</text><text x="233.29" y="344.36" style="font-size:14px;font-family:Asap" textLength="34.18" lengthAdjust="spacingAndGlyphs">Black</text><text x="270.84" y="344.36" style="font-size:14px;font-family:Asap" textLength="37.61" lengthAdjust="spacingAndGlyphs">Death</text><text x="230.1" y="261.37" style="font-size:14px;font-weight:700;font-family:Asap" textLength="29.97" lengthAdjust="spacingAndGlyphs">1351</text><text x="263.43" y="261.37" style="font-size:14px;font-family:Asap" textLength="44.35" lengthAdjust="spacingAndGlyphs">Statute</text><text x="311.14" y="261.37" style="font-size:14px;font-family:Asap" textLength="12.52" lengthAdjust="spacingAndGlyphs">of</text><text x="327.02" y="261.37" style="font-size:14px;font-family:Asap" textLength="61.73" lengthAdjust="spacingAndGlyphs">Labourers</text><text x="276.46" y="188.76" style="font-size:14px;font-weight:700;font-family:Asap" textLength="29.97" lengthAdjust="spacingAndGlyphs">1381</text><text x="309.79" y="188.76" style="font-size:14px;font-family:Asap" textLength="57.64" lengthAdjust="spacingAndGlyphs">Peasants&apos;</text><text x="370.79" y="188.76" style="font-size:14px;font-family:Asap" textLength="39.8" lengthAdjust="spacingAndGlyphs">Revolt</text><polyline points="93.34 429.1 93.34 14.17" style="stroke-width:1.07;stroke:#464646;stroke-linecap:butt;fill:none;stroke-linejoin:round;stroke-miterlimit:10"/><text x="57.03" y="433.51" style="font-size:18px;font-family:Asap" textLength="19.26" lengthAdjust="spacingAndGlyphs">30</text><text x="57.03" y="329.78" style="font-size:18px;font-family:Asap" textLength="19.26" lengthAdjust="spacingAndGlyphs">50</text><text x="57.03" y="226.05" style="font-size:18px;font-family:Asap" textLength="19.26" lengthAdjust="spacingAndGlyphs">70</text><text x="57.03" y="122.32" style="font-size:18px;font-family:Asap" textLength="19.26" lengthAdjust="spacingAndGlyphs">90</text><text x="47.4" y="18.58" style="font-size:18px;font-family:Asap" textLength="28.89" lengthAdjust="spacingAndGlyphs">110</text><polyline points="86.25 429.1 93.34 429.1" style="stroke-width:1.07;stroke:#464646;stroke-linecap:butt;fill:none;stroke-linejoin:round;stroke-miterlimit:10"/><polyline points="86.25 325.37 93.34 325.37" style="stroke-width:1.07;stroke:#464646;stroke-linecap:butt;fill:none;stroke-linejoin:round;stroke-miterlimit:10"/><polyline points="86.25 221.64 93.34 221.64" style="stroke-width:1.07;stroke:#464646;stroke-linecap:butt;fill:none;stroke-linejoin:round;stroke-miterlimit:10"/><polyline points="86.25 117.91 93.34 117.91" style="stroke-width:1.07;stroke:#464646;stroke-linecap:butt;fill:none;stroke-linejoin:round;stroke-miterlimit:10"/><polyline points="86.25 14.17 93.34 14.17" style="stroke-width:1.07;stroke:#464646;stroke-linecap:butt;fill:none;stroke-linejoin:round;stroke-miterlimit:10"/><polyline points="93.34 429.1 788.74 429.1" style="stroke-width:1.07;stroke:#464646;stroke-linecap:butt;fill:none;stroke-linejoin:round;stroke-miterlimit:10"/><polyline points="93.34 436.19 93.34 429.1" style="stroke-width:1.07;stroke:#464646;stroke-linecap:butt;fill:none;stroke-linejoin:round;stroke-miterlimit:10"/><polyline points="209.24 436.19 209.24 429.1" style="stroke-width:1.07;stroke:#464646;stroke-linecap:butt;fill:none;stroke-linejoin:round;stroke-miterlimit:10"/><polyline points="325.14 436.19 325.14 429.1" style="stroke-width:1.07;stroke:#464646;stroke-linecap:butt;fill:none;stroke-linejoin:round;stroke-miterlimit:10"/><polyline points="441.04 436.19 441.04 429.1" style="stroke-width:1.07;stroke:#464646;stroke-linecap:butt;fill:none;stroke-linejoin:round;stroke-miterlimit:10"/><polyline points="556.94 436.19 556.94 429.1" style="stroke-width:1.07;stroke:#464646;stroke-linecap:butt;fill:none;stroke-linejoin:round;stroke-miterlimit:10"/><polyline points="672.84 436.19 672.84 429.1" style="stroke-width:1.07;stroke:#464646;stroke-linecap:butt;fill:none;stroke-linejoin:round;stroke-miterlimit:10"/><polyline points="788.74 436.19 788.74 429.1" style="stroke-width:1.07;stroke:#464646;stroke-linecap:butt;fill:none;stroke-linejoin:round;stroke-miterlimit:10"/><text x="74.08" y="458.79" style="font-size:18px;font-family:Asap" textLength="38.52" lengthAdjust="spacingAndGlyphs">1300</text><text x="189.98" y="458.79" style="font-size:18px;fill:none;font-family:Asap" textLength="38.52" lengthAdjust="spacingAndGlyphs">1350</text><text x="305.88" y="458.79" style="font-size:18px;font-family:Asap" textLength="38.52" lengthAdjust="spacingAndGlyphs">1400</text><text x="421.78" y="458.79" style="font-size:18px;fill:none;font-family:Asap" textLength="38.52" lengthAdjust="spacingAndGlyphs">1450</text><text x="537.68" y="458.79" style="font-size:18px;font-family:Asap" textLength="38.52" lengthAdjust="spacingAndGlyphs">1500</text><text x="653.58" y="458.79" style="font-size:18px;fill:none;font-family:Asap" textLength="38.52" lengthAdjust="spacingAndGlyphs">1550</text><text x="769.48" y="458.79" style="font-size:18px;font-family:Asap" textLength="38.52" lengthAdjust="spacingAndGlyphs">1600</text><text x="420.95" y="491.59" style="font-size:20px;font-family:Asap Medium" textLength="40.18" lengthAdjust="spacingAndGlyphs">Year</text><text transform="rotate(-90 189.355 161.145)" style="font-size:20px;font-family:Asap Medium" textLength="39.82" lengthAdjust="spacingAndGlyphs">Real</text><text transform="rotate(-90 167.045 138.835)" style="font-size:20px;font-family:Asap Medium" textLength="47.54" lengthAdjust="spacingAndGlyphs">wage</text><text transform="rotate(-90 140.875 112.665)" style="font-size:20px;font-family:Asap Medium" textLength="48.22" lengthAdjust="spacingAndGlyphs">index</text><text transform="rotate(-90 114.365 86.155)" style="font-size:20px;font-family:Asap Medium" textLength="48.82" lengthAdjust="spacingAndGlyphs">(1850</text><text transform="rotate(-90 87.555 59.345)" style="font-size:20px;font-family:Asap Medium" textLength="11.2" lengthAdjust="spacingAndGlyphs">=</text><text transform="rotate(-90 79.555 51.345)" style="font-size:20px;font-family:Asap Medium" textLength="38.12" lengthAdjust="spacingAndGlyphs">100)</text></svg>