<svg version="1.1" xmlns="http://www.w3.org/2000/svg" x="0" y="0" viewBox="0 0 311.81 175.31" style="enable-background:new 0 0 311.81 175.31" xml:space="preserve"><line style="fill:none;stroke:#939598;stroke-width:.5;stroke-linecap:square;stroke-miterlimit:10;stroke-dasharray:1.4173" x1="91.56" y1="121.31" x2="91.56" y2="148.1"/><polyline style="fill:none;stroke:#6d6e71;stroke-width:.5;stroke-miterlimit:10" points="34.19 11.4 34.19 148.1 171.93 148.1"/><polyline style="fill:none;stroke:#6d6e71;stroke-width:.5;stroke-miterlimit:10" points="196.32 148.1 253.57 148.1 310.81 148.1"/><line style="fill:none;stroke:#939598;stroke-width:.5;stroke-linecap:square;stroke-miterlimit:10;stroke-dasharray:1.4173" x1="61.67" y1="88.7" x2="34.19" y2="88.7"/><line style="fill:none;stroke:#939598;stroke-width:.5;stroke-linecap:square;stroke-miterlimit:10;stroke-dasharray:1.4173" x1="61.67" y1="88.7" x2="61.67" y2="147.42"/><line style="fill:none;stroke:#939598;stroke-width:.5;stroke-linecap:square;stroke-miterlimit:10;stroke-dasharray:1.4173" x1="253.57" y1="121.31" x2="34.19" y2="121.31"/><line style="fill:none;stroke:#6d6e71;stroke-width:.5;stroke-miterlimit:10" x1="253.57" y1="148.1" x2="253.57" y2="12.77"/><text transform="translate(17.363 7.275)" style="font-family:'Asap-Medium';font-size:8px">Real wage</text><text transform="translate(234.446 7.275)" style="font-family:'Asap-Medium';font-size:8px">Real wage</text><text transform="translate(220.535 172.488)" style="font-family:'Asap-Medium';font-size:8px">Population growth</text><text transform="translate(209.2 159.092)" style="font-family:'Asap-Regular';font-size:7px">negative</text><text transform="translate(140.503 159.092)" style="font-family:'Asap-Regular';font-size:7px">Population</text><text transform="translate(84.858 159.092)" style="font-family:'Asap-Regular';font-size:7px">Pop</text><text transform="matrix(.583 0 0 .583 96.841 161.423)" style="font-family:'Asap-Regular';font-size:7px">Medium</text><text transform="translate(1.905 91.597)" style="font-family:'Asap-Regular';font-size:7px">Wage</text><text transform="matrix(.583 0 0 .583 19.49 93.928)" style="font-family:'Asap-Regular';font-size:7px">High</text><text transform="translate(1.905 120.314)" style="font-family:'Asap-Regular';font-size:7px">Wage</text><text transform="matrix(.583 0 0 .583 19.49 122.645)" style="font-family:'Asap-Regular';font-size:7px">Low</text><text transform="translate(54.974 159.092)" style="font-family:'Asap-Regular';font-size:7px">Pop</text><text transform="matrix(.583 0 0 .583 66.958 161.423)" style="font-family:'Asap-Regular';font-size:7px">Low</text><text transform="translate(42.61 52.955)" style="fill:#3a53a4;font-family:'Asap-Regular';font-size:7px">Real wage</text><text transform="translate(269.654 52.955)"><tspan x="0" y="0" style="fill:#ed2124;font-family:'Asap-Regular';font-size:7px">Population</tspan><tspan x="0" y="8.4" style="fill:#ed2124;font-family:'Asap-Regular';font-size:7px">rising</tspan></text><text transform="translate(199.582 132.3)"><tspan x="0" y="0" style="fill:#ed2124;font-family:'Asap-Regular';font-size:7px">Population</tspan><tspan x="0" y="8.4" style="fill:#ed2124;font-family:'Asap-Regular';font-size:7px">falling</tspan></text><text transform="translate(264.845 159.092)" style="font-family:'Asap-Regular';font-size:7px">positive</text><text transform="translate(251.448 154.97)" style="font-family:'Asap-Regular';font-size:7.2132px">0</text><text transform="translate(306.063 154.97)" style="font-family:'Asap-Regular';font-size:7.2132px">+</text><text transform="translate(195.804 154.97)" style="font-family:'Asap-Regular';font-size:7.2132px">–</text><line style="fill:none;stroke:#3a53a4;stroke-width:.5;stroke-miterlimit:10" x1="34.19" y1="57.77" x2="115.26" y2="147.42"/><line style="fill:none;stroke:#ed2124;stroke-width:.5;stroke-miterlimit:10" x1="234.45" y1="143.64" x2="299.02" y2="69.45"/><text transform="translate(62.67 85.533)" style="font-family:'Asap-Regular';font-size:6px">B</text><text transform="translate(93.584 117.407)" style="font-family:'Asap-Regular';font-size:6px">A</text><text transform="translate(244.03 119.467)" style="font-family:'Asap-Regular';font-size:6px">A’</text><circle cx="61.67" cy="88.7" r="1.13"/><circle cx="91.56" cy="121.31" r="1.13"/><circle cx="253.28" cy="121.31" r="1.13"/><text transform="matrix(.583 0 0 .583 1.905 128.355)" style="font-family:'Asap-Regular';font-size:7px">(subsistence)</text></svg>