<svg xmlns="http://www.w3.org/2000/svg" class="prefix__svglite" viewBox="0 0 810 501"><rect width="100%" height="100%" style="stroke:none;fill:#fff;stroke-linecap:round;stroke-linejoin:round;stroke-miterlimit:10"/><defs><clipPath id="prefix__a"><rect x="0" y="0" width="810" height="501" style="fill:none;stroke:#000;stroke-linecap:round;stroke-linejoin:round;stroke-miterlimit:10"/></clipPath></defs><g clip-path="url(#prefix__a)"><rect x="0" y="0" width="810" height="501" style="stroke-width:1.07;stroke:#fff;fill:#fff;stroke-linecap:round;stroke-linejoin:round;stroke-miterlimit:10"/><rect x="87.28" y="14.17" width="708.55" height="405.93" style="stroke-width:1.07;stroke:none;fill:#fff;stroke-linecap:round;stroke-linejoin:round;stroke-miterlimit:10"/><polyline points="87.28 420.1 795.83 420.1" style="stroke-width:1.07;stroke:#c6c4c4;stroke-linecap:butt;fill:none;stroke-linejoin:round;stroke-miterlimit:10"/><polyline points="87.28 307.34 795.83 307.34" style="stroke-width:1.07;stroke:#c6c4c4;stroke-linecap:butt;fill:none;stroke-linejoin:round;stroke-miterlimit:10"/><polyline points="87.28 217.14 795.83 217.14" style="stroke-width:1.07;stroke:#c6c4c4;stroke-linecap:butt;fill:none;stroke-linejoin:round;stroke-miterlimit:10"/><polyline points="87.28 104.38 795.83 104.38" style="stroke-width:1.07;stroke:#c6c4c4;stroke-linecap:butt;fill:none;stroke-linejoin:round;stroke-miterlimit:10"/><polyline points="87.28 14.17 795.83 14.17" style="stroke-width:1.07;stroke:#c6c4c4;stroke-linecap:butt;fill:none;stroke-linejoin:round;stroke-miterlimit:10"/><polyline points="92.95 204.79 95.78 203.94 98.62 206.82 101.45 210.32 104.28 210.25 107.12 210.11 109.95 208.66 112.79 208.59 115.62 205.86 118.45 205.68 121.29 206.82 124.12 209.23 126.96 210.78 129.79 213 132.63 215.39 135.46 216.48 138.29 214.49 141.13 214.54 143.96 213.74 146.8 213.24 149.63 214.47 152.46 220.95 155.3 223.77 158.13 227.32 160.97 230.33 163.8 230.93 166.64 226.72 169.47 223.9 172.3 223.63 175.14 222.24 177.97 221.39 180.81 221.78 183.64 223.74 186.48 225.05 189.31 224.32 192.14 224.51 194.98 226.29 197.81 226.95 200.65 225.49 203.48 226.26 206.31 226.88 209.15 223.06 211.98 219.56 214.82 213.55 217.65 208.57 220.49 202.56 223.32 200.1 226.15 197.44 228.99 197.51 231.82 197.39 234.66 196.7 237.49 195.96 240.32 195.03 243.16 195.05 245.99 194.29 248.83 194.77 251.66 190.89 254.5 189.03 257.33 184.8 260.16 181.23 263 180.3 265.83 181.9 268.67 182.12 271.5 182.13 274.34 179.92 277.17 177.65 280 180.15 282.84 173.2 285.67 168.21 288.51 164.71 291.34 158.98 294.17 153.72 297.01 156.75 299.84 160.88 302.68 164.95 305.51 168.01 308.35 168.52 311.18 169.55 314.01 169.01 316.85 168.17 319.68 168.68 322.52 169.21 325.35 169.33 328.18 169.09 331.02 168.78 333.85 168.23 336.69 167.84 339.52 167.9 342.36 168.79 345.19 169.4 348.02 170.44 350.86 171.04 353.69 170.34 356.53 170.21 359.36 170.32 362.2 170.38 365.03 170.33 367.86 170.8 370.7 170.71 373.53 171.22 376.37 170.62 379.2 170.59 382.03 169.23 384.87 167.75 387.7 166.01 390.54 165.54 393.37 164.62 396.21 165.34 399.04 166.23 401.87 167.06 404.71 165.02 407.54 163.16 410.38 162.23 413.21 161.26 416.04 160.3 418.88 161.41 421.71 162.35 424.55 162.9 427.38 160.58 430.22 157.69 433.05 154.46 435.88 150.63 438.72 145.39 441.55 142.8 444.39 140.59 447.22 138.71 450.06 137.91 452.89 137.43 455.72 137.54 458.56 137.26 461.39 136.67 464.23 131.9 467.06 127.83 469.89 123.73 472.73 121.68 475.56 119.92 478.4 121.89 481.23 123.89 484.07 125.44 486.9 125.47 489.73 125.59 492.57 126.76 495.4 128.14 498.24 130.46 501.07 132.96 503.9 135.43 506.74 136.87 509.57 135.43 512.41 131.29 515.24 126.6 518.08 121.71 520.91 116.33 523.74 113.25 526.58 111.25 529.41 109.95 532.25 108.75 535.08 107.98 537.92 107.44 540.75 107.6 543.58 107.42 546.42 106.29 549.25 105.15 552.09 103.89 554.92 102.75 557.75 101.8 560.59 101.8 563.42 101.92 566.26 102.01 569.09 102.05 571.93 102.01 574.76 102.01 577.59 101.93 580.43 102.74 583.26 103.94 586.1 105.13 588.93 106.33 591.76 106.53 594.6 106.1 597.43 105.11 600.27 104.11 603.1 103.11 605.94 103.11 608.77 102.92 611.6 102.92 614.44 102.92 617.27 102.92 620.11 102.92 622.94 104.34 625.78 106.37 628.61 107.72 631.44 106.1 634.28 105.12 637.11 102.8 639.95 97.02 642.78 91.59 645.61 89.2 648.45 86.89 651.28 84.12 654.12 83.97 656.95 84.76 659.79 86.53 662.62 85.96 665.45 86.11 668.29 86.3 671.12 85.8 673.96 84.32 676.79 84.89 679.62 90.63 682.46 95.22 685.29 100.7 688.13 103.22 690.96 105.47 693.8 102.83 696.63 102.74 699.46 102.11 702.3 104.12 705.13 107.51 707.97 102.98 710.8 106.48 713.64 93.52 716.47 81.47 719.3 80.9 722.14 88 724.97 76.12 727.81 79.29 730.64 85.97 733.47 76.55 736.31 67.93 739.14 67.2 741.98 66.56 744.81 60.97 747.65 58.97 750.48 50.53 753.31 46.43 756.15 45.78 758.98 45.46 761.82 42.52 764.65 43.15 767.48 41.69 770.32 38.01 773.15 36.16 775.99 37.17 778.82 35.91 781.66 31.83 784.49 31.61 787.32 29.2" style="stroke-width:1.2;stroke:#122a73;stroke-linecap:butt;fill:none;stroke-linejoin:round;stroke-miterlimit:10"/><polyline points="92.95 164.71 95.78 165.48 98.62 165.96 101.45 174.37 104.28 174.49 107.12 174.37 109.95 175.02 112.79 176.12 115.62 174.45 118.45 173.45 121.29 173.42 124.12 172.9 126.96 173.55 129.79 175.23 132.63 175.91 135.46 175.62 138.29 175.05 141.13 174.66 143.96 171.55 146.8 166.27 149.63 161.82 152.46 157.38 155.3 151.6 158.13 149.89 160.97 150.72 163.8 150.72 166.64 150.72 169.47 150.72 172.3 151.4 175.14 154.28 177.97 157.17 180.81 160.05 183.64 162.93 186.48 165.14 189.31 165.14 192.14 165.14 194.98 165.14 197.81 165.14 200.65 165.14 203.48 165.14 206.31 165.14 209.15 165.14 211.98 170.1 214.82 175.06 217.65 180.01 220.49 184.97 223.32 189.93 226.15 189.93 228.99 189.93 231.82 189.93 234.66 189.93 237.49 189.93 240.32 189.93 243.16 189.93 245.99 189.93 248.83 189.93 251.66 189.93 254.5 189.93 257.33 189.93 260.16 189.93 263 189.93 265.83 189.93 268.67 192.59 271.5 194.76 274.34 196.92 277.17 199.09 280 203.18 282.84 207.09 285.67 211.62 288.51 215.37 291.34 219.11 294.17 220.35 297.01 219.7 299.84 219.57 302.68 220.22 305.51 220.87 308.35 221.88 311.18 222.72 314.01 223.64 316.85 224.33 319.68 224.79 322.52 224.79 325.35 224.37 328.18 223.45 331.02 222.42 333.85 221.95 336.69 222.65 339.52 222.42 342.36 222.42 345.19 223.23 348.02 223.65 350.86 223.78 353.69 222.81 356.53 221.72 359.36 220.17 362.2 220.29 365.03 219.06 367.86 219.48 370.7 219.99 373.53 219.52 376.37 217.3 379.2 215.39 382.03 213.75 384.87 213.08 387.7 213.39 390.54 213.83 393.37 214.81 396.21 216.11 399.04 215.3 401.87 215.46 404.71 215.55 407.54 214.93 410.38 213.93 413.21 214.04 416.04 213.45 418.88 212.34 421.71 212.65 424.55 210.91 427.38 209.65 430.22 208.1 433.05 207.8 435.88 207.35 438.72 208.4 441.55 208.64 444.39 210.13 447.22 208.18 450.06 206 452.89 204.67 455.72 203.72 458.56 201.53 461.39 202.2 464.23 203.41 467.06 203.68 469.89 202.87 472.73 200.72 475.56 199.6 478.4 199.11 481.23 199.27 484.07 199.46 486.9 201.43 489.73 202.28 492.57 201.37 495.4 205.46 498.24 210.15 501.07 214.41 503.9 218.28 506.74 224.34 509.57 225.54 512.41 226.74 515.24 227.93 518.08 230.09 520.91 230.67 523.74 231.24 526.58 231.54 529.41 231.54 532.25 230.97 535.08 230.39 537.92 230.11 540.75 230.11 543.58 230.69 546.42 232.33 549.25 233.97 552.09 235.31 554.92 236.65 557.75 237.72 560.59 236.41 563.42 234.19 566.26 232.09 569.09 230 571.93 227.91 574.76 226.83 577.59 226.67 580.43 226.38 583.26 226.08 586.1 225.78 588.93 225.78 591.76 226.07 594.6 226.36 597.43 226.66 600.27 227.56 603.1 228.45 605.94 226.07 608.77 219.05 611.6 211.74 614.44 203.45 617.27 195.16 620.11 189.84 622.94 194.58 625.78 199.62 628.61 205.03 631.44 210.45 634.28 215.86 637.11 215.22 639.95 215.16 642.78 215.1 645.61 215.68 648.45 215.2 651.28 215.2 654.12 214.61 656.95 214.02 659.79 215.14 662.62 216.2 665.45 218.54 668.29 220.89 671.12 222.11 673.96 220.38 676.79 219.15 679.62 216.19 682.46 212.62 685.29 209.55 688.13 206.48 690.96 203.42 693.8 200.35 696.63 197.28 699.46 194.22 702.3 191.15 705.13 188.08 707.97 185.02 710.8 181.95 713.64 179.61 716.47 178.01 719.3 177.52 722.14 179.73 724.97 180.71 727.81 182.53 730.64 186.17 733.47 188.04 736.31 186.44 739.14 187.61 741.98 188.94 744.81 186.29 747.65 184.76 750.48 185 753.31 185.67 756.15 183.64 758.98 183.88 761.82 185.84 764.65 186.03 767.48 184.23 770.32 184.94 773.15 185.36 775.99 184.34 778.82 190.86 781.66 198.99 784.49 205.46 787.32 211.79" style="stroke-width:1.2;stroke:#b9519e;stroke-linecap:butt;fill:none;stroke-linejoin:round;stroke-miterlimit:10"/><polyline points="87.28 420.1 87.28 14.17" style="stroke-width:1.07;stroke:#464646;stroke-linecap:butt;fill:none;stroke-linejoin:round;stroke-miterlimit:10"/><text x="60.6" y="424.51" style="font-size:18px;font-family:Asap" textLength="9.63" lengthAdjust="spacingAndGlyphs">0</text><text x="47.4" y="311.75" style="font-size:18px;font-family:Asap" textLength="22.83" lengthAdjust="spacingAndGlyphs">0.5</text><text x="47.4" y="221.55" style="font-size:18px;font-family:Asap" textLength="22.83" lengthAdjust="spacingAndGlyphs">0.9</text><text x="47.4" y="108.79" style="font-size:18px;font-family:Asap" textLength="22.83" lengthAdjust="spacingAndGlyphs">1.4</text><text x="47.4" y="18.58" style="font-size:18px;font-family:Asap" textLength="22.83" lengthAdjust="spacingAndGlyphs">1.8</text><polyline points="80.19 420.1 87.28 420.1" style="stroke-width:1.07;stroke:#464646;stroke-linecap:butt;fill:none;stroke-linejoin:round;stroke-miterlimit:10"/><polyline points="80.19 307.34 87.28 307.34" style="stroke-width:1.07;stroke:#464646;stroke-linecap:butt;fill:none;stroke-linejoin:round;stroke-miterlimit:10"/><polyline points="80.19 217.14 87.28 217.14" style="stroke-width:1.07;stroke:#464646;stroke-linecap:butt;fill:none;stroke-linejoin:round;stroke-miterlimit:10"/><polyline points="80.19 104.38 87.28 104.38" style="stroke-width:1.07;stroke:#464646;stroke-linecap:butt;fill:none;stroke-linejoin:round;stroke-miterlimit:10"/><polyline points="80.19 14.17 87.28 14.17" style="stroke-width:1.07;stroke:#464646;stroke-linecap:butt;fill:none;stroke-linejoin:round;stroke-miterlimit:10"/><polyline points="87.28 420.1 795.83 420.1" style="stroke-width:1.07;stroke:#464646;stroke-linecap:butt;fill:none;stroke-linejoin:round;stroke-miterlimit:10"/><polyline points="87.28 427.19 87.28 420.1" style="stroke-width:1.07;stroke:#464646;stroke-linecap:butt;fill:none;stroke-linejoin:round;stroke-miterlimit:10"/><polyline points="143.96 427.19 143.96 420.1" style="stroke-width:1.07;stroke:#464646;stroke-linecap:butt;fill:none;stroke-linejoin:round;stroke-miterlimit:10"/><polyline points="200.65 427.19 200.65 420.1" style="stroke-width:1.07;stroke:#464646;stroke-linecap:butt;fill:none;stroke-linejoin:round;stroke-miterlimit:10"/><polyline points="257.33 427.19 257.33 420.1" style="stroke-width:1.07;stroke:#464646;stroke-linecap:butt;fill:none;stroke-linejoin:round;stroke-miterlimit:10"/><polyline points="314.01 427.19 314.01 420.1" style="stroke-width:1.07;stroke:#464646;stroke-linecap:butt;fill:none;stroke-linejoin:round;stroke-miterlimit:10"/><polyline points="370.7 427.19 370.7 420.1" style="stroke-width:1.07;stroke:#464646;stroke-linecap:butt;fill:none;stroke-linejoin:round;stroke-miterlimit:10"/><polyline points="427.38 427.19 427.38 420.1" style="stroke-width:1.07;stroke:#464646;stroke-linecap:butt;fill:none;stroke-linejoin:round;stroke-miterlimit:10"/><polyline points="484.07 427.19 484.07 420.1" style="stroke-width:1.07;stroke:#464646;stroke-linecap:butt;fill:none;stroke-linejoin:round;stroke-miterlimit:10"/><polyline points="540.75 427.19 540.75 420.1" style="stroke-width:1.07;stroke:#464646;stroke-linecap:butt;fill:none;stroke-linejoin:round;stroke-miterlimit:10"/><polyline points="597.43 427.19 597.43 420.1" style="stroke-width:1.07;stroke:#464646;stroke-linecap:butt;fill:none;stroke-linejoin:round;stroke-miterlimit:10"/><polyline points="654.12 427.19 654.12 420.1" style="stroke-width:1.07;stroke:#464646;stroke-linecap:butt;fill:none;stroke-linejoin:round;stroke-miterlimit:10"/><polyline points="710.8 427.19 710.8 420.1" style="stroke-width:1.07;stroke:#464646;stroke-linecap:butt;fill:none;stroke-linejoin:round;stroke-miterlimit:10"/><polyline points="767.48 427.19 767.48 420.1" style="stroke-width:1.07;stroke:#464646;stroke-linecap:butt;fill:none;stroke-linejoin:round;stroke-miterlimit:10"/><text x="68.01" y="449.79" style="font-size:18px;font-family:Asap" textLength="38.53" lengthAdjust="spacingAndGlyphs">1580</text><text x="124.7" y="449.79" style="font-size:18px;font-family:Asap" textLength="38.53" lengthAdjust="spacingAndGlyphs">1600</text><text x="181.38" y="449.79" style="font-size:18px;font-family:Asap" textLength="38.53" lengthAdjust="spacingAndGlyphs">1620</text><text x="238.06" y="449.79" style="font-size:18px;font-family:Asap" textLength="38.53" lengthAdjust="spacingAndGlyphs">1640</text><text x="294.75" y="449.79" style="font-size:18px;font-family:Asap" textLength="38.53" lengthAdjust="spacingAndGlyphs">1660</text><text x="351.43" y="449.79" style="font-size:18px;font-family:Asap" textLength="38.53" lengthAdjust="spacingAndGlyphs">1680</text><text x="408.11" y="449.79" style="font-size:18px;font-family:Asap" textLength="38.53" lengthAdjust="spacingAndGlyphs">1700</text><text x="464.8" y="449.79" style="font-size:18px;font-family:Asap" textLength="38.53" lengthAdjust="spacingAndGlyphs">1720</text><text x="521.48" y="449.79" style="font-size:18px;font-family:Asap" textLength="38.53" lengthAdjust="spacingAndGlyphs">1740</text><text x="578.17" y="449.79" style="font-size:18px;font-family:Asap" textLength="38.53" lengthAdjust="spacingAndGlyphs">1760</text><text x="634.85" y="449.79" style="font-size:18px;font-family:Asap" textLength="38.53" lengthAdjust="spacingAndGlyphs">1780</text><text x="691.53" y="449.79" style="font-size:18px;font-family:Asap" textLength="38.53" lengthAdjust="spacingAndGlyphs">1800</text><text x="748.22" y="449.79" style="font-size:18px;font-family:Asap" textLength="38.53" lengthAdjust="spacingAndGlyphs">1820</text><text x="421.46" y="482.59" style="font-size:20px;font-weight:500;font-family:Asap Medium" textLength="40.18" lengthAdjust="spacingAndGlyphs">Year</text><text transform="rotate(-90 201.955 173.745)" style="font-size:20px;font-weight:500;font-family:Asap Medium" textLength="58.5" lengthAdjust="spacingAndGlyphs">Wages</text><text transform="rotate(-90 170.3 142.09)" style="font-size:20px;font-weight:500;font-family:Asap Medium" textLength="67.56" lengthAdjust="spacingAndGlyphs">relative</text><text transform="rotate(-90 134.12 105.91)" style="font-size:20px;font-weight:500;font-family:Asap Medium" textLength="18.22" lengthAdjust="spacingAndGlyphs">to</text><text transform="rotate(-90 122.61 94.4)" style="font-size:20px;font-weight:500;font-family:Asap Medium" textLength="28.92" lengthAdjust="spacingAndGlyphs">the</text><text transform="rotate(-90 105.75 77.54)" style="font-size:20px;font-weight:500;font-family:Asap Medium" textLength="36.18" lengthAdjust="spacingAndGlyphs">cost</text><text transform="rotate(-90 85.26 57.05)" style="font-size:20px;font-weight:500;font-family:Asap Medium" textLength="17.88" lengthAdjust="spacingAndGlyphs">of</text><text transform="rotate(-90 73.915 45.705)" style="font-size:20px;font-weight:500;font-family:Asap Medium" textLength="61.04" lengthAdjust="spacingAndGlyphs">capital</text><rect x="638.25" y="227.91" width="116.77" height="59.64" style="stroke-width:1.07;stroke:none;fill:none;stroke-linecap:round;stroke-linejoin:round;stroke-miterlimit:10"/><line x1="647.98" y1="249.67" x2="681.99" y2="249.67" style="stroke-width:1.2;stroke:#122a73;stroke-linecap:butt;fill:none;stroke-linejoin:round;stroke-miterlimit:10"/><line x1="647.98" y1="271.27" x2="681.99" y2="271.27" style="stroke-width:1.2;stroke:#b9519e;stroke-linecap:butt;fill:none;stroke-linejoin:round;stroke-miterlimit:10"/><text x="691.73" y="253.59" style="font-size:16px;font-family:Asap" textLength="57.81" lengthAdjust="spacingAndGlyphs">England</text><text x="691.73" y="275.19" style="font-size:16px;font-family:Asap" textLength="47.92" lengthAdjust="spacingAndGlyphs">France</text></g></svg>