<svg version="1.1" xmlns="http://www.w3.org/2000/svg" x="0" y="0" viewBox="0 0 311.81 137.26" style="enable-background:new 0 0 311.81 137.26" xml:space="preserve"><circle style="fill:#3a53a4" cx="54.22" cy="51.23" r="47"/><circle style="fill:#3a53a4" cx="155.75" cy="51.08" r="47"/><circle style="fill:#b9519e" cx="165.55" cy="51.08" r="37.11"/><circle style="fill:#3a53a4" cx="257.59" cy="51.33" r="47"/><circle style="fill:#b9519e" cx="267.38" cy="51.33" r="37.11"/><circle style="fill:#ed207a" cx="279.13" cy="51.33" r="25.46"/><rect x="219.85" y="106.29" style="fill:none" width="75.48" height="20.21"/><text transform="translate(222.536 112.315)"><tspan x="0" y="0" style="fill:#231f20;font-family:'Asap-Medium';font-size:8px">Capitalist economic </tspan><tspan x="22.91" y="9.6" style="fill:#231f20;font-family:'Asap-Medium';font-size:8px">system</tspan></text><rect x="19.31" y="106.29" style="fill:none" width="75.48" height="25.25"/><text transform="translate(32.83 112.316)"><tspan x="0" y="0" style="fill:#231f20;font-family:'Asap-Medium';font-size:8px">Self-sufficient </tspan><tspan x="1.37" y="9.6" style="fill:#231f20;font-family:'Asap-Medium';font-size:8px">family-based </tspan><tspan x="4.82" y="19.2" style="fill:#231f20;font-family:'Asap-Medium';font-size:8px">production</tspan></text><rect x="119.31" y="106.29" style="fill:none" width="75.48" height="25.25"/><text transform="translate(127.27 112.316)"><tspan x="0" y="0" style="fill:#231f20;font-family:'Asap-Medium';font-size:8px">Market economy </tspan><tspan x="-1.71" y="9.6" style="fill:#231f20;font-family:'Asap-Medium';font-size:8px">with family-based </tspan><tspan x="10.38" y="19.2" style="fill:#231f20;font-family:'Asap-Medium';font-size:8px">production</tspan></text><rect x="253.67" y="47.67" style="fill:none" width="50.92" height="5.71"/><text transform="translate(264.79 52.93)" style="fill:#fff;font-family:'Asap-Regular';font-size:7px">and firms</text><rect x="128.43" y="47.67" style="fill:none" width="74.32" height="5.71"/><text transform="translate(146.41 52.93)" style="fill:#fff;font-family:'Asap-Regular';font-size:7px">and markets</text><rect x="7.22" y="44.85" style="fill:none" width="94" height="15.34"/><text transform="translate(15.157 50.118)"><tspan x="0" y="0" style="fill:#fff;font-family:'Asap-Regular';font-size:7px">An economic system with </tspan><tspan x="13.99" y="8.4" style="fill:#fff;font-family:'Asap-Regular';font-size:7px">private property</tspan></text></svg>