<svg version="1.1" xmlns="http://www.w3.org/2000/svg" x="0" y="0" viewBox="0 0 311.81 181.42" style="enable-background:new 0 0 311.81 181.42" xml:space="preserve"><path style="fill:none;stroke:#27aae1;stroke-width:.5;stroke-linejoin:round" d="M84.09 4.23s22.29 36.43 79.79 36.43 111.71-27.43 111.71-27.43"/><text transform="translate(27.805 27.007)" style="font-family:'Asap-Regular';font-size:7px">4,000</text><text transform="translate(27.805 76.841)" style="font-family:'Asap-Regular';font-size:7px">2,000</text><text transform="translate(101.295 134.507)" style="font-family:'Asap-Regular';font-size:7px">20</text><text transform="translate(43.138 134.506)" style="font-family:'Asap-Regular';font-size:7px">0</text><line style="fill:none;stroke:#939598;stroke-width:.5;stroke-linecap:square;stroke-linejoin:round" x1="105.21" y1="149.84" x2="105.21" y2="139.46"/><polygon style="fill:#939598" points="107.26 141.12 106.89 141.46 105.21 139.65 103.54 141.46 103.17 141.12 105.21 138.92"/><line style="fill:none;stroke:#939598;stroke-width:.5;stroke-linejoin:round;stroke-dasharray:1.4173" x1="104.67" y1="23.5" x2="104.67" y2="125"/><text transform="translate(107.463 21.686)" style="font-family:'Asap-Regular';font-size:6px">A</text><text transform="translate(263.543 23.5)" style="fill:#27aae1;font-family:'Asap-Regular';font-size:6px">AC</text><text transform="translate(132.18 175.726)"><tspan x="0" y="0" style="font-family:'Asap-Medium';font-size:8px">Quantity of cars, </tspan><tspan x="59.53" y="0" style="font-family:'Asap-MediumItalic';font-size:8px">Q</tspan></text><text transform="translate(101.295 158.84)" style="font-family:'Asap-Italic';font-size:7px">Q</text><text transform="matrix(.583 0 0 .583 106.412 161.171)" style="font-family:'Asap-Regular';font-size:7px">0</text><text transform="rotate(-90 59.25 51.584)"><tspan x="0" y="0" style="font-family:'Asap-Medium';font-size:8px">Average and marginal</tspan><tspan x="-.13" y="9.6" style="font-family:'Asap-Medium';font-size:8px">costs of production ($)</tspan></text><line style="fill:none;stroke:#b9519e;stroke-width:.5;stroke-linecap:square;stroke-linejoin:round" x1="60.69" y1="85.37" x2="218.49" y2="16.46"/><text transform="translate(205.376 29.917)" style="fill:#b9519e;font-family:'Asap-Regular';font-size:6px">MC</text><g><line style="fill:none;stroke:#6d6e71;stroke-width:.5;stroke-linecap:square;stroke-linejoin:round" x1="47.31" y1="125" x2="47.31" y2="12.33"/><line style="fill:none;stroke:#6d6e71;stroke-width:.5;stroke-linecap:square;stroke-linejoin:round" x1="47.31" y1="125" x2="309.98" y2="125"/></g><g><circle cx="104.67" cy="23.5" r="1.13"/></g></svg>