<svg version="1.1" xmlns="http://www.w3.org/2000/svg" x="0" y="0" viewBox="0 0 311.81 305.33" style="enable-background:new 0 0 311.81 305.33" xml:space="preserve"><polyline style="fill:none;stroke:#3a53a4;stroke-miterlimit:10" points="274.93 127.98 274.93 175.26 196.19 175.26"/><polygon style="fill:#3a53a4" points="199.5 171.17 200.18 171.9 196.57 175.26 200.18 178.62 199.5 179.35 195.1 175.26"/><polyline style="fill:none;stroke:#3a53a4;stroke-miterlimit:10" points="36.88 127.98 36.88 175.26 115.62 175.26"/><polygon style="fill:#3a53a4" points="112.31 179.35 111.63 178.62 115.24 175.26 111.63 171.9 112.31 171.17 116.71 175.26"/><polyline style="fill:none;stroke:#b9519e;stroke-miterlimit:10" points="155.91 33.43 155.91 49.19 190.06 49.19 190.06 58.92"/><polygon style="fill:#b9519e" points="185.97 55.61 186.7 54.92 190.06 58.54 193.41 54.92 194.15 55.61 190.06 60.01"/><rect x="121.75" y="1.91" style="fill:none;stroke:#b9519e;stroke-miterlimit:10" width="68.3" height="31.52"/><text transform="translate(133.321 15.168)"><tspan x="0" y="0" style="fill:#b9519e;font-family:'Asap-Regular';font-size:8.4684px">Expenditure</tspan><tspan x="-3.15" y="10.16" style="fill:#b9519e;font-family:'Asap-Regular';font-size:8.4684px">on innovation</tspan></text><rect x="121.75" y="159.5" style="fill:none;stroke:#3a53a4;stroke-miterlimit:10" width="68.3" height="31.52"/><text transform="translate(141.171 172.758)"><tspan x="0" y="0" style="fill:#3a53a4;font-family:'Asap-Regular';font-size:8.4684px">Sets the</tspan><tspan x="5.3" y="10.16" style="fill:#3a53a4;font-family:'Asap-Regular';font-size:8.4684px">price</tspan></text><rect x="121.75" y="206.78" style="fill:none;stroke:#3a53a4;stroke-miterlimit:10" width="68.3" height="31.52"/><text transform="translate(139.732 220.037)"><tspan x="0" y="0" style="fill:#3a53a4;font-family:'Asap-Regular';font-size:8.4684px">Quantity</tspan><tspan x="8.37" y="10.16" style="fill:#3a53a4;font-family:'Asap-Regular';font-size:8.4684px">sold</tspan></text><rect x="93.57" y="112.23" style="fill:none;stroke:#b9519e;stroke-miterlimit:10" width="124.67" height="31.52"/><text transform="translate(109.983 125.482)"><tspan x="0" y="0" style="fill:#b9519e;font-family:'Asap-Regular';font-size:8.4684px">Expenditure to influence</tspan><tspan x="-11.17" y="10.16" style="fill:#b9519e;font-family:'Asap-Regular';font-size:8.4684px">taxes and other public policies</tspan></text><rect x="2.73" y="33.43" style="fill:none;stroke:#b9519e;stroke-miterlimit:10" width="68.3" height="31.52"/><text transform="translate(14.296 46.685)"><tspan x="0" y="0" style="fill:#b9519e;font-family:'Asap-Regular';font-size:8.4684px">Expenditure</tspan><tspan x="-3.9" y="10.16" style="fill:#b9519e;font-family:'Asap-Regular';font-size:8.4684px">on advertising</tspan></text><rect x="240.78" y="33.43" style="fill:none;stroke:#b9519e;stroke-miterlimit:10" width="68.3" height="31.52"/><text transform="translate(260.2 46.685)"><tspan x="0" y="0" style="fill:#b9519e;font-family:'Asap-Regular';font-size:8.4684px">Sets the</tspan><tspan x="4.67" y="10.16" style="fill:#b9519e;font-family:'Asap-Regular';font-size:8.4684px">wage</tspan></text><rect x="240.78" y="96.47" style="fill:none;stroke:#ed2124;stroke-miterlimit:10" width="68.3" height="31.52"/><text transform="translate(266.707 109.723)"><tspan x="0" y="0" style="fill:#ed2124;font-family:'Asap-Regular';font-size:8.4684px">Cost</tspan><tspan x="-2.07" y="10.16" style="fill:#ed2124;font-family:'Asap-Regular';font-size:8.4684px">curve</tspan></text><rect x="2.73" y="96.47" style="fill:none;stroke:#ed2124;stroke-miterlimit:10" width="68.3" height="31.52"/><text transform="translate(21.01 109.723)"><tspan x="0" y="0" style="fill:#ed2124;font-family:'Asap-Regular';font-size:8.4684px">Demand</tspan><tspan x="5.58" y="10.16" style="fill:#ed2124;font-family:'Asap-Regular';font-size:8.4684px">curve</tspan></text><text transform="translate(106.999 78.205)"><tspan x="0" y="0" style="fill:#b9519e;font-family:'Asap-Regular';font-size:8.4684px">What to</tspan><tspan x="-.72" y="10.16" style="fill:#b9519e;font-family:'Asap-Regular';font-size:8.4684px">produce</tspan></text><rect x="161.87" y="64.95" style="fill:none;stroke:#b9519e;stroke-miterlimit:10" width="56.37" height="31.52"/><rect x="93.57" y="64.95" style="fill:none;stroke:#b9519e;stroke-miterlimit:10" width="56.37" height="31.52"/><text transform="translate(176.508 78.205)"><tspan x="0" y="0" style="fill:#b9519e;font-family:'Asap-Regular';font-size:8.4684px">How to</tspan><tspan x="-1.92" y="10.16" style="fill:#b9519e;font-family:'Asap-Regular';font-size:8.4684px">produce</tspan></text><polyline style="fill:none;stroke:#b9519e;stroke-miterlimit:10" points="155.91 49.19 121.75 49.19 121.75 58.92"/><polygon style="fill:#b9519e" points="117.66 55.61 118.4 54.92 121.75 58.54 125.11 54.92 125.84 55.61 121.75 60.01"/><polyline style="fill:none;stroke:#3a53a4;stroke-miterlimit:10" points="155.91 238.3 155.91 254.06 190.06 254.06 190.06 263.79"/><polygon style="fill:#3a53a4" points="185.97 260.47 186.7 259.79 190.06 263.4 193.41 259.79 194.15 260.47 190.06 264.87"/><text transform="translate(111.55 288.717)" style="fill:#3a53a4;font-family:'Asap-Regular';font-size:8.4684px">Profit</text><rect x="161.87" y="269.82" style="fill:none;stroke:#3a53a4;stroke-miterlimit:10" width="56.37" height="31.52"/><rect x="93.57" y="269.82" style="fill:none;stroke:#3a53a4;stroke-miterlimit:10" width="56.37" height="31.52"/><text transform="translate(178.49 288.717)" style="fill:#3a53a4;font-family:'Asap-Regular';font-size:8.4684px">Hiring</text><polyline style="fill:none;stroke:#3a53a4;stroke-miterlimit:10" points="155.91 254.06 121.75 254.06 121.75 263.79"/><polygon style="fill:#3a53a4" points="117.66 260.47 118.4 259.79 121.75 263.4 125.11 259.79 125.84 260.47 121.75 264.87"/><line style="fill:none;stroke:#b9519e;stroke-miterlimit:10" x1="36.88" y1="64.95" x2="36.88" y2="90.59"/><polygon style="fill:#b9519e" points="32.79 87.28 33.52 86.6 36.88 90.21 40.24 86.6 40.97 87.28 36.88 91.68"/><g><line style="fill:none;stroke:#b9519e;stroke-miterlimit:10" x1="274.93" y1="64.95" x2="274.93" y2="90.59"/><polygon style="fill:#b9519e" points="270.84 87.28 271.58 86.6 274.93 90.21 278.29 86.6 279.02 87.28 274.93 91.68"/></g><g><polyline style="fill:none;stroke:#b9519e;stroke-miterlimit:10" points="218.24 80.71 255.97 80.71 255.97 90.59"/><polygon style="fill:#b9519e" points="251.88 87.28 252.61 86.6 255.97 90.21 259.33 86.6 260.06 87.28 255.97 91.68"/></g><g><polyline style="fill:none;stroke:#b9519e;stroke-miterlimit:10" points="93.57 80.71 55.84 80.71 55.84 90.59"/><polygon style="fill:#b9519e" points="51.75 87.28 52.48 86.6 55.84 90.21 59.2 86.6 59.93 87.28 55.84 91.68"/></g><g><line style="fill:none;stroke:#b9519e;stroke-miterlimit:10" x1="221.73" y1="120.42" x2="233.93" y2="120.42"/><polygon style="fill:#b9519e" points="230.62 124.51 229.94 123.78 233.55 120.42 229.94 117.06 230.62 116.33 235.02 120.42"/></g><g><line style="fill:none;stroke:#b9519e;stroke-miterlimit:10" x1="88.94" y1="120.42" x2="76.74" y2="120.42"/><polygon style="fill:#b9519e" points="80.06 116.33 80.74 117.06 77.13 120.42 80.74 123.78 80.06 124.51 75.66 120.42"/></g><g><line style="fill:none;stroke:#3a53a4;stroke-miterlimit:10" x1="155.91" y1="191.02" x2="155.91" y2="203.22"/><polygon style="fill:#3a53a4" points="151.82 199.91 152.55 199.23 155.9 202.84 159.26 199.23 159.99 199.91 155.9 204.31"/></g></svg>