<svg version="1.1" xmlns="http://www.w3.org/2000/svg" x="0" y="0" viewBox="0 0 311.81 167.41" style="enable-background:new 0 0 311.81 167.41" xml:space="preserve"><text transform="translate(35.011 149.429)" style="font-family:'Asap-Regular';font-size:7px">0</text><rect x="34.57" y="143.13" style="fill:none" width="4.48" height="8.26"/><text transform="translate(49.96 149.429)" style="font-family:'Asap-Regular';font-size:7px">10</text><rect x="49.21" y="143.13" style="fill:none" width="7.78" height="8.26"/><text transform="translate(66.088 149.429)" style="font-family:'Asap-Regular';font-size:7px">20</text><rect x="65.51" y="143.13" style="fill:none" width="7.78" height="8.26"/><text transform="translate(82.216 149.429)" style="font-family:'Asap-Regular';font-size:7px">30</text><rect x="81.81" y="143.13" style="fill:none" width="7.78" height="8.26"/><text transform="translate(98.739 149.429)" style="font-family:'Asap-Regular';font-size:7px">40</text><rect x="98.11" y="143.13" style="fill:none" width="7.78" height="8.26"/><text transform="translate(114.867 149.429)" style="font-family:'Asap-Regular';font-size:7px">50</text><rect x="114.41" y="143.13" style="fill:none" width="7.78" height="8.26"/><text transform="translate(131.389 149.429)" style="font-family:'Asap-Regular';font-size:7px">60</text><rect x="130.71" y="143.13" style="fill:none" width="7.78" height="8.26"/><text transform="translate(147.517 149.429)" style="font-family:'Asap-Regular';font-size:7px">70</text><text transform="translate(164.04 149.429)" style="font-family:'Asap-Regular';font-size:7px">80</text><rect x="163.31" y="143.13" style="fill:none" width="7.78" height="8.26"/><text transform="translate(180.167 149.429)" style="font-family:'Asap-Regular';font-size:7px">90</text><rect x="179.61" y="143.13" style="fill:none" width="7.78" height="8.26"/><text transform="translate(194.723 149.429)" style="font-family:'Asap-Regular';font-size:7px">100</text><rect x="194.25" y="143.13" style="fill:none" width="11.08" height="8.26"/><text transform="translate(211.245 149.429)" style="font-family:'Asap-Regular';font-size:7px">110</text><rect x="210.55" y="143.13" style="fill:none" width="11.08" height="8.26"/><text transform="translate(227.373 149.429)" style="font-family:'Asap-Regular';font-size:7px">120</text><rect x="226.85" y="143.13" style="fill:none" width="11.08" height="8.26"/><text transform="translate(205.336 59.642)" style="fill:#273a71;font-family:'Asap-Regular';font-size:6px">Isoprofit curve: $150,000</text><text transform="translate(205.336 70.45)" style="fill:#5b73b8;font-family:'Asap-Regular';font-size:6px">Isoprofit curve: $70,000</text><text transform="translate(205.336 91.257)" style="fill:#a1b0da;font-family:'Asap-Regular';font-size:6px">Zero-economic-profit curve (AC curve)</text><text transform="translate(107.787 160.836)"><tspan x="0" y="0" style="font-family:'Asap-Medium';font-size:8px">Quantity of cars, </tspan><tspan x="59.53" y="0" style="font-family:'Asap-MediumItalic';font-size:8px">Q</tspan></text><text transform="translate(205.336 25.308)"><tspan x="0" y="0" style="font-family:'Asap-Regular';font-size:6px">Profit = </tspan><tspan x="20.7" y="0" style="font-family:'Asap-Italic';font-size:6px">Q</tspan><tspan x="25.09" y="0" style="font-family:'Asap-Regular';font-size:6px">(</tspan><tspan x="26.89" y="0" style="font-family:'Asap-Italic';font-size:6px">P </tspan><tspan x="31.75" y="0" style="font-family:'Asap-Regular';font-size:6px">− AC)</tspan></text><text transform="rotate(-90 60.561 52.486)" style="font-family:'Asap-Medium';font-size:8px">Price, marginal cost ($)</text><path style="fill:none;stroke:#a1b0da;stroke-width:.5;stroke-linejoin:round" d="M45.59 5.19c1.1 15.41 2.67 30.9 5.89 45.99 2.7 12.66 7.04 26.81 17.93 34.89 11.83 8.78 28.35 8.57 42.38 7.73 29.6-1.78 59.04-8.17 88.01-14.16"/><path style="fill:none;stroke:#5b73b8;stroke-width:.5;stroke-linejoin:round" d="M59.06 5.19c1.46 7.17 3.23 14.27 5.46 21.23 3.26 10.2 7.72 20.31 14.66 28.58 26.15 31.14 85.21 20.52 120.61 15.26"/><path style="fill:none;stroke:#273a71;stroke-width:.5;stroke-linejoin:round" d="M75.59 5.19c.58 1.51 1.9 4.72 1.97 4.89 1.52 3.58 3.2 7.11 5.09 10.52 2.73 4.95 5.89 9.66 9.58 13.95 25.94 30.17 71.53 27.94 107.57 24.97"/><text transform="translate(28.167 141.955)" style="font-family:'Asap-Regular';font-size:7px">0</text><rect x="27.43" y="135.55" style="fill:none" width="4.48" height="8.26"/><text transform="translate(15.547 115.147)" style="font-family:'Asap-Regular';font-size:7px">2,000</text><text transform="translate(15.547 101.73)" style="font-family:'Asap-Regular';font-size:7px">3,000</text><text transform="translate(15.547 128.564)" style="font-family:'Asap-Regular';font-size:7px">1,000</text><text transform="translate(15.547 88.313)" style="font-family:'Asap-Regular';font-size:7px">4,000</text><text transform="translate(15.547 74.897)" style="font-family:'Asap-Regular';font-size:7px">5,000</text><text transform="translate(15.547 61.48)" style="font-family:'Asap-Regular';font-size:7px">6,000</text><text transform="translate(15.547 48.063)" style="font-family:'Asap-Regular';font-size:7px">7,000</text><text transform="translate(11.802 7.812)" style="font-family:'Asap-Regular';font-size:7px">10,000</text><text transform="translate(15.547 21.229)" style="font-family:'Asap-Regular';font-size:7px">9,000</text><text transform="translate(15.547 34.646)" style="font-family:'Asap-Regular';font-size:7px">8,000</text><g><path style="fill:none;stroke:#6d6e71;stroke-width:.5;stroke-linecap:square;stroke-linejoin:round" d="M36.79 139.86V5.5M232.29 140.12v2.13m-16.13-2.13v2.13m-16.52-2.13v2.13m-16.13-2.13v2.13m-16.13-2.13v2.13m-16.52-2.13v2.13m-16.13-2.13v2.13m-16.52-2.13v2.13m-16.13-2.13v2.13m-16.52-2.13v2.13m-16.13-2.13v2.13m-16.13-2.13v2.13m-16.52-2.13v2.13m0-2.46h195.51"/><line style="fill:none;stroke:#6d6e71;stroke-width:.5;stroke-linecap:square;stroke-linejoin:round" x1="36.58" y1="139.79" x2="34.45" y2="139.79"/><line style="fill:none;stroke:#6d6e71;stroke-width:.5;stroke-linecap:square;stroke-linejoin:round" x1="36.58" y1="126.36" x2="34.45" y2="126.36"/><line style="fill:none;stroke:#6d6e71;stroke-width:.5;stroke-linecap:square;stroke-linejoin:round" x1="36.58" y1="32.36" x2="34.45" y2="32.36"/><line style="fill:none;stroke:#6d6e71;stroke-width:.5;stroke-linecap:square;stroke-linejoin:round" x1="36.58" y1="18.93" x2="34.45" y2="18.93"/><line style="fill:none;stroke:#6d6e71;stroke-width:.5;stroke-linecap:square;stroke-linejoin:round" x1="36.58" y1="59.22" x2="34.45" y2="59.22"/><line style="fill:none;stroke:#6d6e71;stroke-width:.5;stroke-linecap:square;stroke-linejoin:round" x1="36.58" y1="45.79" x2="34.45" y2="45.79"/><line style="fill:none;stroke:#6d6e71;stroke-width:.5;stroke-linecap:square;stroke-linejoin:round" x1="36.58" y1="72.64" x2="34.45" y2="72.64"/><line style="fill:none;stroke:#6d6e71;stroke-width:.5;stroke-linecap:square;stroke-linejoin:round" x1="36.58" y1="86.07" x2="34.45" y2="86.07"/><line style="fill:none;stroke:#6d6e71;stroke-width:.5;stroke-linecap:square;stroke-linejoin:round" x1="36.58" y1="99.5" x2="34.45" y2="99.5"/><line style="fill:none;stroke:#6d6e71;stroke-width:.5;stroke-linecap:square;stroke-linejoin:round" x1="36.58" y1="112.93" x2="34.45" y2="112.93"/><line style="fill:none;stroke:#6d6e71;stroke-width:.5;stroke-linecap:square;stroke-linejoin:round" x1="34.45" y1="5.5" x2="36.41" y2="5.5"/></g></svg>