<svg version="1.1" xmlns="http://www.w3.org/2000/svg" x="0" y="0" viewBox="0 0 311.81 177.5" style="enable-background:new 0 0 311.81 177.5" xml:space="preserve"><line style="fill:none;stroke:#bcbec0;stroke-width:.5;stroke-linejoin:round" x1="36.65" y1="115.63" x2="306.11" y2="115.63"/><line style="fill:none;stroke:#bcbec0;stroke-width:.5;stroke-linejoin:round" x1="36.65" y1="78.99" x2="306.11" y2="78.99"/><line style="fill:none;stroke:#bcbec0;stroke-width:.5;stroke-linejoin:round" x1="36.65" y1="41.91" x2="306.11" y2="41.91"/><line style="fill:none;stroke:#bcbec0;stroke-width:.5;stroke-linejoin:round" x1="36.65" y1="5.26" x2="306.11" y2="5.26"/><text transform="rotate(-90 52.697 46.038)"><tspan x="0" y="0" style="font-family:'Asap-Medium';font-size:8px">Price, </tspan><tspan x="21.3" y="0" style="font-family:'Asap-MediumItalic';font-size:8px">P</tspan><tspan x="26.18" y="0" style="font-family:'Asap-Medium';font-size:8px">: WTP ($)</tspan></text><text transform="translate(27.437 154.435)" style="font-family:'Asap-Regular';font-size:7px">0</text><text transform="translate(14.63 118.435)" style="font-family:'Asap-Regular';font-size:7px">2,000</text><text transform="translate(14.63 81.357)" style="font-family:'Asap-Regular';font-size:7px">4,000</text><text transform="translate(14.63 44.711)" style="font-family:'Asap-Regular';font-size:7px">6,000</text><text transform="translate(14.63 7.633)" style="font-family:'Asap-Regular';font-size:7px">8,000</text><text transform="translate(118.993 173.249)"><tspan x="0" y="0" style="font-family:'Asap-Medium';font-size:8px">Quantity, </tspan><tspan x="34.06" y="0" style="font-family:'Asap-MediumItalic';font-size:8px">Q</tspan><tspan x="39.91" y="0" style="font-family:'Asap-Medium';font-size:8px">: number of consumers per day</tspan></text><rect x="36.72" y="165.21" style="fill:none" width="269.2" height="12.29"/><text transform="translate(34.922 163.273)" style="font-family:'Asap-Regular';font-size:7px">0</text><rect x="34.27" y="156.37" style="fill:none" width="4.91" height="9.05"/><text transform="translate(76.454 163.273)" style="font-family:'Asap-Regular';font-size:7px">20</text><rect x="99.76" y="156.37" style="fill:none" width="8.53" height="9.05"/><text transform="translate(167.711 163.273)" style="font-family:'Asap-Regular';font-size:7px">60</text><rect x="167.05" y="156.37" style="fill:none" width="8.53" height="9.05"/><text transform="translate(212.968 163.273)" style="font-family:'Asap-Regular';font-size:7px">80</text><rect x="234.35" y="156.37" style="fill:none" width="8.53" height="9.05"/><text transform="translate(299.5 163.273)" style="font-family:'Asap-Regular';font-size:7px">120</text><text transform="translate(256.167 163.273)" style="font-family:'Asap-Regular';font-size:7px">100</text><rect x="299.84" y="156.37" style="fill:none" width="11.71" height="9.05"/><path style="fill:none;stroke:#ed2124;stroke-width:.5;stroke-linejoin:round" d="M36.72 5.27c74.78 49.1 149.55 98.21 224.33 147.31"/><polyline style="fill:none;stroke:#939598;stroke-width:.5;stroke-linejoin:round;stroke-dasharray:1.4173" points="171.38 153.79 171.38 93.7 36.86 93.7"/><circle cx="171.32" cy="93.7" r="1.13"/><text transform="translate(175.583 92.28)" style="font-family:'Asap-Regular';font-size:6px">A</text><text transform="translate(122.454 163.273)" style="font-family:'Asap-Regular';font-size:7px">40</text><text transform="translate(14.757 95.97)" style="font-family:'Asap-Regular';font-size:7px">3,200</text><line style="fill:none;stroke:#6d6e71;stroke-width:.5;stroke-linecap:square" x1="36.24" y1="93.69" x2="34.12" y2="93.67"/><g><path style="fill:none;stroke:#6d6e71;stroke-width:.5;stroke-linecap:square;stroke-linejoin:round" d="M36.28 5.26h-2.13m2.13 36.65h-2.13m2.13 37.08h-2.13m2.13 36.64h-2.13m2.13 37.08h-2.13m2.71 0V5.26"/><line style="fill:none;stroke:#6d6e71;stroke-width:.5;stroke-linecap:square;stroke-linejoin:round" x1="36.86" y1="152.71" x2="305.89" y2="152.71"/><line style="fill:none;stroke:#6d6e71;stroke-width:.5;stroke-linecap:square;stroke-linejoin:round" x1="305.89" y1="153.08" x2="305.89" y2="155.2"/><line style="fill:none;stroke:#6d6e71;stroke-width:.5;stroke-linecap:square;stroke-linejoin:round" x1="261.05" y1="153.08" x2="261.05" y2="155.2"/><line style="fill:none;stroke:#6d6e71;stroke-width:.5;stroke-linecap:square;stroke-linejoin:round" x1="171.38" y1="153.08" x2="171.38" y2="155.2"/><line style="fill:none;stroke:#6d6e71;stroke-width:.5;stroke-linecap:square;stroke-linejoin:round" x1="126.54" y1="153.08" x2="126.54" y2="155.2"/><line style="fill:none;stroke:#6d6e71;stroke-width:.5;stroke-linecap:square;stroke-linejoin:round" x1="36.86" y1="153.08" x2="36.86" y2="155.2"/><line style="fill:none;stroke:#6d6e71;stroke-width:.5;stroke-linecap:square;stroke-linejoin:round" x1="81.7" y1="153.08" x2="81.7" y2="155.2"/><line style="fill:none;stroke:#6d6e71;stroke-width:.5;stroke-linecap:square;stroke-linejoin:round" x1="216.21" y1="153.08" x2="216.21" y2="155.2"/><line style="fill:none;stroke:#6d6e71;stroke-width:.5;stroke-linecap:square;stroke-linejoin:round" x1="171.38" y1="153.08" x2="171.38" y2="155.2"/></g></svg>