<svg version="1.1" xmlns="http://www.w3.org/2000/svg" x="0" y="0" viewBox="0 0 311.81 200.41" style="enable-background:new 0 0 311.81 200.41" xml:space="preserve"><polygon style="fill:#fee7dc" points="36.36 37.27 252.76 176.06 36.36 176.21"/><text transform="rotate(-90 68.746 60.334)" style="font-family:'Asap-Medium';font-size:8px">Price, marginal cost ($)</text><text transform="translate(27.636 178.74)" style="font-family:'Asap-Regular';font-size:7px">0</text><text transform="translate(10.688 6.306)" style="font-family:'Asap-Regular';font-size:7px">10,000</text><text transform="translate(14.432 39.59)" style="font-family:'Asap-Regular';font-size:7px">8,000</text><text transform="translate(24.197 83.59)"><tspan x="0" y="0" style="font-family:'Asap-Italic';font-size:7px">P</tspan><tspan x="3.99" y="0" style="font-family:'Asap-Regular';font-size:7px">*</tspan></text><text transform="translate(102.403 186.998)"><tspan x="0" y="0" style="font-family:'Asap-Italic';font-size:7px">Q</tspan><tspan x="5.12" y="0" style="font-family:'Asap-Regular';font-size:7px">*</tspan></text><line style="fill:none;stroke:#ccc;stroke-width:.5;stroke-linecap:square;stroke-linejoin:round" x1="144.37" y1="175.95" x2="144.37" y2="176.97"/><text transform="translate(131.446 196.41)"><tspan x="0" y="0" style="font-family:'Asap-Medium';font-size:8px">Quantity of cars, </tspan><tspan x="59.53" y="0" style="font-family:'Asap-MediumItalic';font-size:8px">Q</tspan></text><text transform="translate(33.814 186.665)" style="font-family:'Asap-Regular';font-size:7px">0</text><text transform="translate(289.59 186.665)" style="font-family:'Asap-Regular';font-size:7px">120</text><text transform="translate(265.784 76.348)"><tspan x="0" y="0" style="fill:#273a71;font-family:'Asap-Regular';font-size:6px">Isoprofit curve:</tspan><tspan x="0" y="7.2" style="fill:#273a71;font-family:'Asap-Regular';font-size:6px">$63,360</tspan></text><text transform="translate(265.784 95.616)"><tspan x="0" y="0" style="fill:#5b73b8;font-family:'Asap-Regular';font-size:6px">Isoprofit curve:</tspan><tspan x="0" y="7.2" style="fill:#5b73b8;font-family:'Asap-Regular';font-size:6px">$30,000</tspan></text><text transform="translate(256.784 116.554)" style="fill:#a1b0da;font-family:'Asap-Regular';font-size:6px">Isoprofit curve: $0</text><text transform="translate(249.45 166.25)" style="fill:#ed2124;font-family:'Asap-Regular';font-size:6px">Demand curve</text><text transform="translate(256.784 54.962)" style="fill:#b9519e;font-family:'Asap-Regular';font-size:6px">Marginal cost</text><text transform="translate(246.59 186.665)" style="font-family:'Asap-Regular';font-size:7px">100</text><text transform="translate(140.257 186.665)" style="font-family:'Asap-Regular';font-size:7px">50</text><polyline style="fill:none;stroke:#939598;stroke-width:.5;stroke-linejoin:round;stroke-dasharray:1.4173" points="105 175.95 105 81.01 36.34 81.01"/><text transform="translate(106.338 78.851)" style="font-family:'Asap-Regular';font-size:6px">E</text><path style="fill:none;stroke:#b9519e;stroke-width:.5;stroke-linejoin:round" d="M36.17 159.06c72.21-33.12 144.2-69.71 216.41-102.82"/><path style="fill:none;stroke:#ed2124;stroke-width:.5;stroke-linejoin:round" d="M36.36 37.27c72.21 44.16 144.2 94.63 216.41 138.79"/><path style="fill:none;stroke:#a1b0da;stroke-width:.5;stroke-miterlimit:10" d="M47.34 3s2.14 94.72 40 107.72c20.26 6.96 25.33 7.8 85.67 1.64l79.37-13.47"/><path style="fill:none;stroke:#5b73b8;stroke-width:.5;stroke-miterlimit:10" d="M55.63 3S58.96 85.72 105 99.37c16.82 4.99 23 7.55 70 4.68 0 0 61.85-6.67 76.76-11"/><path style="fill:none;stroke:#273a71;stroke-width:.5;stroke-miterlimit:10" d="M63.67 3S73.34 62.31 105 81.01c0 0 20.84 16.04 62.26 13.7 0 0 64.26-2.33 85.5-8.33"/><circle cx="105" cy="81.01" r="1.13"/><polyline style="fill:none;stroke:#939598;stroke-width:.5;stroke-miterlimit:10" points="254.67 114.08 241 114.08 241 103.79"/><polygon style="fill:#939598" points="243.05 105.45 242.68 105.79 241.01 103.99 239.33 105.79 238.96 105.45 241.01 103.25"/><line style="fill:none;stroke:#939598;stroke-width:.5;stroke-miterlimit:10" x1="262.67" y1="92.74" x2="255.21" y2="92.74"/><polygon style="fill:#939598" points="256.87 90.7 257.21 91.07 255.41 92.74 257.21 94.42 256.87 94.79 254.67 92.74"/><g><polyline style="fill:none;stroke:#939598;stroke-width:.5;stroke-miterlimit:10" points="262.67 74.74 241 74.74 241 85.2"/><polygon style="fill:#939598" points="238.96 83.55 239.33 83.2 241 85.01 242.68 83.2 243.05 83.55 241 85.74"/></g><g><line style="fill:none;stroke:#6d6e71;stroke-width:.5;stroke-linecap:square;stroke-linejoin:round" x1="36.08" y1="3" x2="33.96" y2="3"/><line style="fill:none;stroke:#6d6e71;stroke-width:.5;stroke-linecap:square;stroke-linejoin:round" x1="36.08" y1="176.21" x2="33.96" y2="176.21"/><line style="fill:none;stroke:#6d6e71;stroke-width:.5;stroke-linecap:square;stroke-linejoin:round" x1="36.1" y1="176.21" x2="36.1" y2="3"/><line style="fill:none;stroke:#6d6e71;stroke-width:.5;stroke-linecap:square;stroke-linejoin:round" x1="295.94" y1="176.21" x2="295.94" y2="178.33"/><line style="fill:none;stroke:#6d6e71;stroke-width:.5;stroke-linecap:square;stroke-linejoin:round" x1="57.78" y1="176.21" x2="57.78" y2="178.33"/><line style="fill:none;stroke:#6d6e71;stroke-width:.5;stroke-linecap:square;stroke-linejoin:round" x1="36.08" y1="176.21" x2="36.08" y2="178.33"/><line style="fill:none;stroke:#6d6e71;stroke-width:.5;stroke-linecap:square;stroke-linejoin:round" x1="36.1" y1="176.21" x2="295.95" y2="176.21"/><line style="fill:none;stroke:#6d6e71;stroke-width:.5;stroke-linecap:square;stroke-linejoin:round" x1="36.08" y1="20.32" x2="33.96" y2="20.32"/><line style="fill:none;stroke:#6d6e71;stroke-width:.5;stroke-linecap:square;stroke-linejoin:round" x1="36.08" y1="37.64" x2="33.96" y2="37.64"/><line style="fill:none;stroke:#6d6e71;stroke-width:.5;stroke-linecap:square;stroke-linejoin:round" x1="274.29" y1="176.21" x2="274.29" y2="178.33"/><line style="fill:none;stroke:#6d6e71;stroke-width:.5;stroke-linecap:square;stroke-linejoin:round" x1="252.64" y1="176.21" x2="252.64" y2="178.33"/><line style="fill:none;stroke:#6d6e71;stroke-width:.5;stroke-linecap:square;stroke-linejoin:round" x1="36.08" y1="54.96" x2="33.96" y2="54.96"/><line style="fill:none;stroke:#6d6e71;stroke-width:.5;stroke-linecap:square;stroke-linejoin:round" x1="36.08" y1="72.28" x2="33.96" y2="72.28"/><line style="fill:none;stroke:#6d6e71;stroke-width:.5;stroke-linecap:square;stroke-linejoin:round" x1="36.08" y1="89.6" x2="33.96" y2="89.6"/><line style="fill:none;stroke:#6d6e71;stroke-width:.5;stroke-linecap:square;stroke-linejoin:round" x1="36.08" y1="106.92" x2="33.96" y2="106.92"/><line style="fill:none;stroke:#6d6e71;stroke-width:.5;stroke-linecap:square;stroke-linejoin:round" x1="36.08" y1="124.24" x2="33.96" y2="124.24"/><line style="fill:none;stroke:#6d6e71;stroke-width:.5;stroke-linecap:square;stroke-linejoin:round" x1="36.08" y1="141.56" x2="33.96" y2="141.56"/><line style="fill:none;stroke:#6d6e71;stroke-width:.5;stroke-linecap:square;stroke-linejoin:round" x1="36.08" y1="158.89" x2="33.96" y2="158.89"/><line style="fill:none;stroke:#6d6e71;stroke-width:.5;stroke-linecap:square;stroke-linejoin:round" x1="230.99" y1="176.21" x2="230.99" y2="178.33"/><line style="fill:none;stroke:#6d6e71;stroke-width:.5;stroke-linecap:square;stroke-linejoin:round" x1="209.34" y1="176.21" x2="209.34" y2="178.33"/><line style="fill:none;stroke:#6d6e71;stroke-width:.5;stroke-linecap:square;stroke-linejoin:round" x1="187.69" y1="176.21" x2="187.69" y2="178.33"/><line style="fill:none;stroke:#6d6e71;stroke-width:.5;stroke-linecap:square;stroke-linejoin:round" x1="166.04" y1="176.21" x2="166.04" y2="178.33"/><line style="fill:none;stroke:#6d6e71;stroke-width:.5;stroke-linecap:square;stroke-linejoin:round" x1="144.39" y1="176.21" x2="144.39" y2="178.33"/><line style="fill:none;stroke:#6d6e71;stroke-width:.5;stroke-linecap:square;stroke-linejoin:round" x1="122.73" y1="176.21" x2="122.73" y2="178.33"/><line style="fill:none;stroke:#6d6e71;stroke-width:.5;stroke-linecap:square;stroke-linejoin:round" x1="101.08" y1="176.21" x2="101.08" y2="178.33"/><line style="fill:none;stroke:#6d6e71;stroke-width:.5;stroke-linecap:square;stroke-linejoin:round" x1="79.43" y1="176.21" x2="79.43" y2="178.33"/></g></svg>