<svg version="1.1" xmlns="http://www.w3.org/2000/svg" x="0" y="0" viewBox="0 0 311.81 407.41" style="enable-background:new 0 0 311.81 407.41" xml:space="preserve"><rect x="151.38" y="67.87" style="fill:#e3e3f2" width="3.94" height="19.81"/><rect x="58.17" y="43.83" style="fill:#fee7dc" width="46.33" height="21.66"/><rect x="58.17" y="32.9" style="fill:#fee7dc" width="23.09" height="32.59"/><rect x="81.26" y="34.35" style="fill:#e3e3f2" width="3.11" height="9.47"/><rect x="104.5" y="45.68" style="fill:#e3e3f2" width="3.96" height="19.81"/><rect x="57.89" y="34.35" style="fill:#e4d1d6" width="23.37" height="9.47"/><rect x="58.17" y="43.83" style="fill:#e6c2bf" width="23.09" height="1.85"/><rect x="81.26" y="43.83" style="fill:#e6d2d4" width="3.11" height="1.85"/><rect x="57.89" y="45.68" style="fill:#d3b4bc" width="23.37" height="19.81"/><rect x="81.26" y="45.68" style="fill:#d3c1ce" width="3.11" height="19.81"/><rect x="84.38" y="45.68" style="fill:#e4d1d6" width="20.12" height="19.81"/><rect x="108.46" y="65.49" style="fill:#fee7dc" width="43.06" height="2.38"/><rect x="108.46" y="67.78" style="fill:#e4d1d6" width="42.92" height="19.9"/><rect x="104.5" y="65.49" style="fill:#e6d2d4" width="3.96" height="2.38"/><rect x="84.38" y="65.49" style="fill:#e6c2bf" width="20.12" height="2.38"/><rect x="81.26" y="65.49" style="fill:#d6b2b8" width="3.11" height="2.38"/><rect x="57.89" y="65.49" style="fill:#d6a7a8" width="23.37" height="2.38"/><rect x="57.89" y="67.87" style="fill:#c79ca9" width="23.37" height="19.81"/><rect x="81.26" y="67.87" style="fill:#c6a5b6" width="3.11" height="19.81"/><rect x="84.38" y="67.78" style="fill:#d3b4bc" width="20.12" height="19.9"/><rect x="104.5" y="67.78" style="fill:#d3c1ce" width="3.96" height="19.9"/><rect x="155.32" y="87.68" style="fill:#fee7dc" width="43.9" height="2.03"/><rect x="199.21" y="89.71" style="fill:#e3e3f2" width="2.87" height="43.84"/><rect x="151.38" y="87.68" style="fill:#e6d2d4" width="3.94" height="2.03"/><rect x="155.37" y="89.71" style="fill:#e4d1d6" width="43.84" height="43.84"/><rect x="151.38" y="89.71" style="fill:#d3c1ce" width="3.99" height="43.84"/><rect x="108.46" y="87.67" style="fill:#e6c2bf" width="42.92" height="2.04"/><rect x="108.46" y="89.71" style="fill:#d3b4bc" width="42.92" height="43.84"/><rect x="104.5" y="87.68" style="fill:#d6b2b8" width="3.96" height="2.03"/><rect x="104.5" y="89.71" style="fill:#c6a5b6" width="3.96" height="43.84"/><rect x="84.38" y="87.67" style="fill:#d6a7a8" width="20.12" height="2.04"/><rect x="84.38" y="89.71" style="fill:#c79ca9" width="20.12" height="43.84"/><rect x="81.26" y="87.68" style="fill:#cb9ba4" width="3.11" height="2.03"/><rect x="81.26" y="89.71" style="fill:#bc93a5" width="3.11" height="43.84"/><rect x="57.89" y="87.68" style="fill:#cb9397" width="23.37" height="2.03"/><rect x="58.17" y="89.71" style="fill:#bc8b9a" width="23.09" height="43.84"/><text transform="translate(55.386 145.276)" style="font-family:'Asap-Regular';font-size:7px">0</text><text transform="translate(241.155 145.276)" style="font-family:'Asap-Regular';font-size:7px">80</text><text transform="translate(171.516 145.276)" style="font-family:'Asap-Regular';font-size:7px">50</text><text transform="translate(147.784 145.276)" style="font-family:'Asap-Regular';font-size:7px">40</text><text transform="translate(124.054 145.276)" style="font-family:'Asap-Regular';font-size:7px">30</text><text transform="translate(100.416 145.276)" style="font-family:'Asap-Regular';font-size:7px">20</text><text transform="translate(77.685 145.276)" style="font-family:'Asap-Regular';font-size:7px">10</text><text transform="translate(223.343 94.932)" style="fill:#ed2124;font-family:'Asap-Regular';font-size:6px">Demand curve</text><text transform="translate(194.516 145.276)" style="font-family:'Asap-Regular';font-size:7px">60</text><text transform="translate(217.516 145.276)" style="font-family:'Asap-Regular';font-size:7px">70</text><line style="fill:none;stroke:#ed2124;stroke-width:.5;stroke-miterlimit:10" x1="58.17" y1="22.08" x2="244.87" y2="109.56"/><text transform="translate(79.846 27.411)" style="font-family:'Asap-Regular';font-size:6px">A</text><text transform="translate(103.08 39.632)" style="font-family:'Asap-Regular';font-size:6px">B</text><text transform="translate(126.59 49.725)" style="font-family:'Asap-Regular';font-size:6px">E</text><text transform="translate(150.101 60.938)" style="font-family:'Asap-Regular';font-size:6px">C</text><text transform="translate(196.124 83.367)" style="font-family:'Asap-Regular';font-size:6px">D</text><text transform="rotate(-90 123.627 116.762)"><tspan x="0" y="0" style="font-family:'Asap-Medium';font-size:8px">Marginal cost and</tspan><tspan x="-4.84" y="9.6" style="font-family:'Asap-Medium';font-size:8px">marginal revenue ($)</tspan></text><text transform="translate(55.386 284.276)" style="font-family:'Asap-Regular';font-size:7px">0</text><text transform="translate(241.155 284.276)" style="font-family:'Asap-Regular';font-size:7px">80</text><text transform="translate(171.516 284.276)" style="font-family:'Asap-Regular';font-size:7px">50</text><text transform="translate(147.784 284.276)" style="font-family:'Asap-Regular';font-size:7px">40</text><text transform="translate(124.054 284.276)" style="font-family:'Asap-Regular';font-size:7px">30</text><text transform="translate(100.416 284.276)" style="font-family:'Asap-Regular';font-size:7px">20</text><text transform="translate(77.685 284.276)" style="font-family:'Asap-Regular';font-size:7px">10</text><text transform="translate(194.706 284.277)" style="font-family:'Asap-Regular';font-size:7px">60</text><text transform="translate(217.516 284.276)" style="font-family:'Asap-Regular';font-size:7px">70</text><line style="fill:none;stroke:#39b54a;stroke-width:.5;stroke-miterlimit:10" x1="58.17" y1="165.09" x2="198.21" y2="274.46"/><text transform="translate(79.846 177.529)" style="font-family:'Asap-Regular';font-size:6px">A</text><text transform="translate(149.963 230.549)" style="font-family:'Asap-Regular';font-size:6px">C</text><text transform="translate(177.705 251.882)" style="fill:#39b54a;font-family:'Asap-Regular';font-size:6px">Marginal revenue</text><text transform="translate(177.705 177.632)" style="fill:#b9519e;font-family:'Asap-Regular';font-size:6px">Marginal cost</text><text transform="translate(103.079 195.487)" style="font-family:'Asap-Regular';font-size:6px">B</text><line style="fill:none;stroke:#939598;stroke-width:.5;stroke-linejoin:round;stroke-dasharray:1.4173" x1="81.26" y1="181" x2="81.26" y2="256.91"/><line style="fill:none;stroke:#939598;stroke-width:.5;stroke-linejoin:round;stroke-dasharray:1.4173" x1="104.64" y1="200.81" x2="104.64" y2="256.91"/><line style="fill:none;stroke:#939598;stroke-width:.5;stroke-linejoin:round;stroke-dasharray:1.4173" x1="151.38" y1="239.45" x2="151.38" y2="256.91"/><text transform="translate(202.08 276.518)" style="font-family:'Asap-Regular';font-size:6px">D</text><line style="fill:none;stroke:#939598;stroke-width:.5;stroke-linejoin:round;stroke-dasharray:1.4173" x1="198.21" y1="273.05" x2="198.21" y2="258.55"/><text transform="rotate(-90 185.77 166.904)" style="font-family:'Asap-Medium';font-size:8px">Profit ($)</text><text transform="translate(241.155 382.248)" style="font-family:'Asap-Regular';font-size:7px">80</text><text transform="translate(171.516 382.248)" style="font-family:'Asap-Regular';font-size:7px">50</text><text transform="translate(147.784 382.248)" style="font-family:'Asap-Regular';font-size:7px">40</text><text transform="translate(124.054 382.248)" style="font-family:'Asap-Regular';font-size:7px">30</text><text transform="translate(100.416 382.248)" style="font-family:'Asap-Regular';font-size:7px">20</text><text transform="translate(77.685 382.248)" style="font-family:'Asap-Regular';font-size:7px">10</text><text transform="translate(194.706 382.248)" style="font-family:'Asap-Regular';font-size:7px">60</text><text transform="translate(217.516 382.248)" style="font-family:'Asap-Regular';font-size:7px">70</text><text transform="translate(47.882 136.604)" style="font-family:'Asap-Regular';font-size:7px">0</text><text transform="translate(47.882 258.547)" style="font-family:'Asap-Regular';font-size:7px">0</text><text transform="translate(35.72 9.68)" style="font-family:'Asap-Regular';font-size:7px">9,000</text><text transform="translate(35.72 23.783)" style="font-family:'Asap-Regular';font-size:7px">8,000</text><text transform="translate(35.72 37.886)" style="font-family:'Asap-Regular';font-size:7px">7,000</text><text transform="translate(35.72 51.988)" style="font-family:'Asap-Regular';font-size:7px">6,000</text><text transform="translate(35.72 66.09)" style="font-family:'Asap-Regular';font-size:7px">5,000</text><text transform="translate(35.72 80.193)" style="font-family:'Asap-Regular';font-size:7px">4,000</text><text transform="translate(35.72 94.296)" style="font-family:'Asap-Regular';font-size:7px">3,000</text><text transform="translate(35.72 108.4)" style="font-family:'Asap-Regular';font-size:7px">2,000</text><text transform="translate(35.72 122.502)" style="font-family:'Asap-Regular';font-size:7px">1,000</text><text transform="translate(35.72 156.68)" style="font-family:'Asap-Regular';font-size:7px">9,000</text><text transform="translate(35.72 167.18)" style="font-family:'Asap-Regular';font-size:7px">8,000</text><text transform="translate(35.72 178.029)" style="font-family:'Asap-Regular';font-size:7px">7,000</text><text transform="translate(35.72 189.779)" style="font-family:'Asap-Regular';font-size:7px">6,000</text><text transform="translate(35.72 201.495)" style="font-family:'Asap-Regular';font-size:7px">5,000</text><text transform="translate(35.72 212.745)" style="font-family:'Asap-Regular';font-size:7px">4,000</text><text transform="translate(35.72 224.2)" style="font-family:'Asap-Regular';font-size:7px">3,000</text><text transform="translate(35.72 235.382)" style="font-family:'Asap-Regular';font-size:7px">2,000</text><text transform="translate(35.72 247.715)" style="font-family:'Asap-Regular';font-size:7px">1,000</text><text transform="translate(48.341 368.24)" style="font-family:'Asap-Regular';font-size:7px">0</text><text transform="translate(31.976 302.652)" style="font-family:'Asap-Regular';font-size:7px">60,000</text><text transform="translate(31.976 324.71)" style="font-family:'Asap-Regular';font-size:7px">40,000</text><text transform="translate(31.976 346.527)" style="font-family:'Asap-Regular';font-size:7px">20,000</text><text transform="rotate(-90 55.287 34.422)"><tspan x="0" y="0" style="font-family:'Asap-Medium';font-size:8px">Price, </tspan><tspan x="21.3" y="0" style="font-family:'Asap-MediumItalic';font-size:8px">P</tspan><tspan x="25.86" y="0" style="font-family:'Asap-Medium';font-size:8px"> ($)</tspan></text><text transform="translate(262.554 136.604)"><tspan x="0" y="0" style="font-family:'Asap-Medium';font-size:8px">Quantity</tspan><tspan x="0" y="9.6" style="font-family:'Asap-Medium';font-size:8px">of cars, </tspan><tspan x="27.05" y="9.6" style="font-family:'Asap-MediumItalic';font-size:8px">Q</tspan></text><text transform="translate(262.554 268.11)"><tspan x="0" y="0" style="font-family:'Asap-Medium';font-size:8px">Quantity</tspan><tspan x="0" y="9.6" style="font-family:'Asap-Medium';font-size:8px">of cars, </tspan><tspan x="27.05" y="9.6" style="font-family:'Asap-MediumItalic';font-size:8px">Q</tspan></text><text transform="translate(262.554 386.804)"><tspan x="0" y="0" style="font-family:'Asap-Medium';font-size:8px">Quantity</tspan><tspan x="0" y="9.6" style="font-family:'Asap-Medium';font-size:8px">of cars,</tspan><tspan x="25.13" y="9.6" style="font-family:'Asap-MediumItalic';font-size:8px"> Q</tspan></text><text transform="translate(32.22 270.854)" style="font-family:'Asap-Regular';font-size:7px">–1,000</text><text transform="translate(28.476 389.826)" style="font-family:'Asap-Regular';font-size:7px">–20,000</text><line style="fill:none;stroke:#b9519e;stroke-width:.5;stroke-miterlimit:10" x1="58.17" y1="249.91" x2="246.34" y2="183.34"/><text transform="translate(131.27 217.586)" style="font-family:'Asap-Regular';font-size:6px">E</text><g><line style="fill:none;stroke:#6d6e71;stroke-width:.5471;stroke-linecap:square;stroke-linejoin:round" x1="57.89" y1="133.83" x2="57.89" y2="7.67"/><line style="fill:none;stroke:#6d6e71;stroke-width:.5471;stroke-linecap:square;stroke-linejoin:round" x1="57.89" y1="267.83" x2="57.89" y2="153.67"/><line style="fill:none;stroke:#6d6e71;stroke-width:.5471;stroke-linecap:square;stroke-linejoin:round" x1="57.89" y1="386.8" x2="57.89" y2="300.64"/><line style="fill:none;stroke:#6d6e71;stroke-width:.5471;stroke-linecap:square;stroke-linejoin:round" x1="57.4" y1="300.64" x2="55.27" y2="300.64"/><line style="fill:none;stroke:#6d6e71;stroke-width:.5471;stroke-linecap:square;stroke-linejoin:round" x1="57.4" y1="386.8" x2="55.27" y2="386.8"/><line style="fill:none;stroke:#6d6e71;stroke-width:.5471;stroke-linecap:square;stroke-linejoin:round" x1="57.4" y1="322.61" x2="55.27" y2="322.61"/><line style="fill:none;stroke:#6d6e71;stroke-width:.5471;stroke-linecap:square;stroke-linejoin:round" x1="57.4" y1="365.68" x2="55.27" y2="365.68"/><line style="fill:none;stroke:#6d6e71;stroke-width:.5471;stroke-linecap:square;stroke-linejoin:round" x1="57.4" y1="344.01" x2="55.27" y2="344.01"/><line style="fill:none;stroke:#6d6e71;stroke-width:.5471;stroke-linecap:square;stroke-linejoin:round" x1="57.4" y1="7.67" x2="55.27" y2="7.67"/><line style="fill:none;stroke:#6d6e71;stroke-width:.5471;stroke-linecap:square;stroke-linejoin:round" x1="57.4" y1="35.71" x2="55.27" y2="35.71"/><line style="fill:none;stroke:#6d6e71;stroke-width:.5471;stroke-linecap:square;stroke-linejoin:round" x1="57.4" y1="49.72" x2="55.27" y2="49.72"/><line style="fill:none;stroke:#6d6e71;stroke-width:.5471;stroke-linecap:square;stroke-linejoin:round" x1="57.4" y1="63.74" x2="55.27" y2="63.74"/><line style="fill:none;stroke:#6d6e71;stroke-width:.5471;stroke-linecap:square;stroke-linejoin:round" x1="57.4" y1="91.78" x2="55.27" y2="91.78"/><line style="fill:none;stroke:#6d6e71;stroke-width:.5471;stroke-linecap:square;stroke-linejoin:round" x1="57.4" y1="21.69" x2="55.27" y2="21.69"/><line style="fill:none;stroke:#6d6e71;stroke-width:.5471;stroke-linecap:square;stroke-linejoin:round" x1="57.4" y1="77.76" x2="55.27" y2="77.76"/><line style="fill:none;stroke:#6d6e71;stroke-width:.5471;stroke-linecap:square;stroke-linejoin:round" x1="57.4" y1="105.8" x2="55.27" y2="105.8"/><line style="fill:none;stroke:#6d6e71;stroke-width:.5471;stroke-linecap:square;stroke-linejoin:round" x1="57.4" y1="119.81" x2="55.27" y2="119.81"/><g><line style="fill:none;stroke:#6d6e71;stroke-width:.5471;stroke-linecap:square;stroke-linejoin:round" x1="57.4" y1="153.67" x2="55.27" y2="153.67"/><line style="fill:none;stroke:#6d6e71;stroke-width:.5471;stroke-linecap:square;stroke-linejoin:round" x1="57.4" y1="267.83" x2="55.27" y2="267.83"/><line style="fill:none;stroke:#6d6e71;stroke-width:.5471;stroke-linecap:square;stroke-linejoin:round" x1="57.4" y1="176.5" x2="55.27" y2="176.5"/><line style="fill:none;stroke:#6d6e71;stroke-width:.5471;stroke-linecap:square;stroke-linejoin:round" x1="57.4" y1="199.34" x2="55.27" y2="199.34"/><line style="fill:none;stroke:#6d6e71;stroke-width:.5471;stroke-linecap:square;stroke-linejoin:round" x1="57.4" y1="222.17" x2="55.27" y2="222.17"/><line style="fill:none;stroke:#6d6e71;stroke-width:.5471;stroke-linecap:square;stroke-linejoin:round" x1="57.4" y1="165.09" x2="55.27" y2="165.09"/><line style="fill:none;stroke:#6d6e71;stroke-width:.5471;stroke-linecap:square;stroke-linejoin:round" x1="57.4" y1="187.92" x2="55.27" y2="187.92"/><line style="fill:none;stroke:#6d6e71;stroke-width:.5471;stroke-linecap:square;stroke-linejoin:round" x1="57.4" y1="210.75" x2="55.27" y2="210.75"/><line style="fill:none;stroke:#6d6e71;stroke-width:.5471;stroke-linecap:square;stroke-linejoin:round" x1="57.4" y1="233.58" x2="55.27" y2="233.58"/><line style="fill:none;stroke:#6d6e71;stroke-width:.5471;stroke-linecap:square;stroke-linejoin:round" x1="57.4" y1="245" x2="55.27" y2="245"/><line style="fill:none;stroke:#6d6e71;stroke-width:.5471;stroke-linecap:square;stroke-linejoin:round" x1="57.4" y1="256.42" x2="55.27" y2="256.42"/></g><g><line style="fill:none;stroke:#6d6e71;stroke-width:.5471;stroke-linecap:square;stroke-linejoin:round" x1="57.89" y1="365.68" x2="244.87" y2="365.68"/><line style="fill:none;stroke:#6d6e71;stroke-width:.5471;stroke-linecap:square;stroke-linejoin:round" x1="57.89" y1="366.18" x2="57.89" y2="368.3"/><line style="fill:none;stroke:#6d6e71;stroke-width:.5471;stroke-linecap:square;stroke-linejoin:round" x1="151.38" y1="366.18" x2="151.38" y2="368.3"/><line style="fill:none;stroke:#6d6e71;stroke-width:.5471;stroke-linecap:square;stroke-linejoin:round" x1="244.87" y1="366.18" x2="244.87" y2="368.3"/><line style="fill:none;stroke:#6d6e71;stroke-width:.5471;stroke-linecap:square;stroke-linejoin:round" x1="174.75" y1="366.18" x2="174.75" y2="368.3"/><line style="fill:none;stroke:#6d6e71;stroke-width:.5471;stroke-linecap:square;stroke-linejoin:round" x1="128.01" y1="366.18" x2="128.01" y2="368.3"/><line style="fill:none;stroke:#6d6e71;stroke-width:.5471;stroke-linecap:square;stroke-linejoin:round" x1="104.64" y1="366.18" x2="104.64" y2="368.3"/><line style="fill:none;stroke:#6d6e71;stroke-width:.5471;stroke-linecap:square;stroke-linejoin:round" x1="81.26" y1="366.18" x2="81.26" y2="368.3"/><line style="fill:none;stroke:#6d6e71;stroke-width:.5471;stroke-linecap:square;stroke-linejoin:round" x1="221.5" y1="366.18" x2="221.5" y2="368.3"/><line style="fill:none;stroke:#6d6e71;stroke-width:.5471;stroke-linecap:square;stroke-linejoin:round" x1="198.12" y1="366.18" x2="198.12" y2="368.3"/></g><g><line style="fill:none;stroke:#6d6e71;stroke-width:.5471;stroke-linecap:square;stroke-linejoin:round" x1="57.89" y1="256.29" x2="244.87" y2="256.29"/><line style="fill:none;stroke:#6d6e71;stroke-width:.5471;stroke-linecap:square;stroke-linejoin:round" x1="57.89" y1="256.79" x2="57.89" y2="258.91"/><line style="fill:none;stroke:#6d6e71;stroke-width:.5471;stroke-linecap:square;stroke-linejoin:round" x1="151.38" y1="256.79" x2="151.38" y2="258.91"/><line style="fill:none;stroke:#6d6e71;stroke-width:.5471;stroke-linecap:square;stroke-linejoin:round" x1="244.87" y1="256.79" x2="244.87" y2="258.91"/><line style="fill:none;stroke:#6d6e71;stroke-width:.5471;stroke-linecap:square;stroke-linejoin:round" x1="174.75" y1="256.79" x2="174.75" y2="258.91"/><line style="fill:none;stroke:#6d6e71;stroke-width:.5471;stroke-linecap:square;stroke-linejoin:round" x1="128.01" y1="256.79" x2="128.01" y2="258.91"/><line style="fill:none;stroke:#6d6e71;stroke-width:.5471;stroke-linecap:square;stroke-linejoin:round" x1="104.64" y1="256.79" x2="104.64" y2="258.91"/><line style="fill:none;stroke:#6d6e71;stroke-width:.5471;stroke-linecap:square;stroke-linejoin:round" x1="81.26" y1="256.79" x2="81.26" y2="258.91"/><line style="fill:none;stroke:#6d6e71;stroke-width:.5471;stroke-linecap:square;stroke-linejoin:round" x1="221.5" y1="256.79" x2="221.5" y2="258.91"/><line style="fill:none;stroke:#6d6e71;stroke-width:.5471;stroke-linecap:square;stroke-linejoin:round" x1="198.12" y1="256.79" x2="198.12" y2="258.91"/></g><g><line style="fill:none;stroke:#6d6e71;stroke-width:.5471;stroke-linecap:square;stroke-linejoin:round" x1="57.89" y1="133.79" x2="244.87" y2="133.79"/><line style="fill:none;stroke:#6d6e71;stroke-width:.5471;stroke-linecap:square;stroke-linejoin:round" x1="57.89" y1="134.29" x2="57.89" y2="136.41"/><line style="fill:none;stroke:#6d6e71;stroke-width:.5471;stroke-linecap:square;stroke-linejoin:round" x1="151.38" y1="134.29" x2="151.38" y2="136.41"/><line style="fill:none;stroke:#6d6e71;stroke-width:.5471;stroke-linecap:square;stroke-linejoin:round" x1="244.87" y1="134.29" x2="244.87" y2="136.41"/><line style="fill:none;stroke:#6d6e71;stroke-width:.5471;stroke-linecap:square;stroke-linejoin:round" x1="174.75" y1="134.29" x2="174.75" y2="136.41"/><line style="fill:none;stroke:#6d6e71;stroke-width:.5471;stroke-linecap:square;stroke-linejoin:round" x1="128.01" y1="134.29" x2="128.01" y2="136.41"/><line style="fill:none;stroke:#6d6e71;stroke-width:.5471;stroke-linecap:square;stroke-linejoin:round" x1="104.64" y1="134.29" x2="104.64" y2="136.41"/><line style="fill:none;stroke:#6d6e71;stroke-width:.5471;stroke-linecap:square;stroke-linejoin:round" x1="81.26" y1="134.29" x2="81.26" y2="136.41"/><line style="fill:none;stroke:#6d6e71;stroke-width:.5471;stroke-linecap:square;stroke-linejoin:round" x1="221.5" y1="134.29" x2="221.5" y2="136.41"/><line style="fill:none;stroke:#6d6e71;stroke-width:.5471;stroke-linecap:square;stroke-linejoin:round" x1="198.12" y1="134.29" x2="198.12" y2="136.41"/></g></g><g><circle cx="81.26" cy="32.9" r="1.13"/><circle cx="104.5" cy="43.83" r="1.13"/><circle cx="151.52" cy="65.82" r="1.13"/><circle cx="128.01" cy="55.17" r="1.13"/><circle cx="198.26" cy="87.68" r="1.13"/><circle cx="81.26" cy="182.21" r="1.13"/><circle cx="151.38" cy="238.37" r="1.13"/><circle cx="104.5" cy="200.08" r="1.13"/><circle cx="198.21" cy="273.05" r="1.13"/><circle cx="133.01" cy="223.43" r="1.13"/></g></svg>