<svg version="1.1" xmlns="http://www.w3.org/2000/svg" x="0" y="0" viewBox="0 0 311.81 311" style="enable-background:new 0 0 311.81 311" xml:space="preserve"><text transform="translate(22.305 27.918)" style="font-family:'Asap-Regular';font-size:7px">350,000</text><text transform="translate(25.305 99.918)" style="font-family:'Asap-Regular';font-size:7px">80,000</text><text transform="translate(27.805 159.007)" style="font-family:'Asap-Regular';font-size:7px">6,000</text><text transform="translate(27.805 242.257)" style="font-family:'Asap-Regular';font-size:7px">2,200</text><text transform="translate(40.897 110.57)" style="font-family:'Asap-Regular';font-size:6px">F</text><polyline style="fill:none;stroke:#939598;stroke-width:.5;stroke-linejoin:round;stroke-dasharray:1.4173" points="48.76 99.17 104.67 99.17 104.67 127.83"/><text transform="translate(84.588 45.766)" style="font-family:'Asap-Regular';font-size:6px">A</text><text transform="translate(99.578 62.213)" style="font-family:'Asap-Regular';font-size:6px">1</text><line style="fill:none;stroke:#939598;stroke-width:.5;stroke-linecap:square;stroke-linejoin:round" x1="105.21" y1="281.84" x2="105.21" y2="271.46"/><polygon style="fill:#939598" points="107.26 273.12 106.89 273.46 105.21 271.65 103.54 273.46 103.17 273.12 105.21 270.92"/><polyline style="fill:none;stroke:#939598;stroke-width:.5;stroke-linejoin:round;stroke-dasharray:1.4173" points="47.31 239 104.67 239 104.67 257"/><path style="fill:none;stroke:#27aae1;stroke-width:.5;stroke-linejoin:round" d="M73.67 195.67S91.34 227.38 195 217.86c0 0 48-6.35 109.67-20.77"/><text transform="translate(291.876 195.665)" style="fill:#27aae1;font-family:'Asap-Regular';font-size:6px">AC</text><circle style="fill:none;stroke:#939598;stroke-width:.5;stroke-miterlimit:10" cx="104.75" cy="95.72" r="14.5"/><circle style="fill:none;stroke:#939598;stroke-width:.5;stroke-miterlimit:10" cx="104.75" cy="42.23" r="28.74"/><line style="fill:none;stroke:#939598;stroke-width:.5;stroke-miterlimit:10" x1="104.75" y1="70.96" x2="104.75" y2="81.22"/><line style="fill:none;stroke:#b9519e;stroke-width:.5;stroke-linejoin:round" x1="77.6" y1="51.64" x2="133.37" y2="39.66"/><text transform="translate(103.33 95.582)" style="font-family:'Asap-Regular';font-size:6px">A</text><polyline style="fill:none;stroke:#939598;stroke-width:.5;stroke-miterlimit:10" points="86 49.83 113.15 49.83 113.15 44"/><text transform="translate(102.754 234.185)" style="font-family:'Asap-Regular';font-size:6px">A</text><text transform="translate(100.638 137.34)" style="font-family:'Asap-Regular';font-size:7px">20</text><text transform="translate(43.138 137.34)" style="font-family:'Asap-Regular';font-size:7px">0</text><text transform="translate(101.295 266.507)" style="font-family:'Asap-Regular';font-size:7px">20</text><text transform="translate(43.138 266.506)" style="font-family:'Asap-Regular';font-size:7px">0</text><text transform="translate(160.5 266.507)" style="font-family:'Asap-Regular';font-size:7px">40</text><text transform="translate(225.462 266.507)" style="font-family:'Asap-Regular';font-size:7px">60</text><text transform="translate(160.555 137.34)" style="font-family:'Asap-Regular';font-size:7px">40</text><text transform="translate(225.05 137.34)" style="font-family:'Asap-Regular';font-size:7px">60</text><text transform="rotate(-90 69.753 62.086)"><tspan x="0" y="0" style="font-family:'Asap-Medium';font-size:8px">Total cost of production, </tspan><tspan x="88.09" y="0" style="font-family:'Asap-MediumItalic';font-size:8px">C</tspan><tspan x="93.04" y="0" style="font-family:'Asap-Medium';font-size:8px">(</tspan><tspan x="95.45" y="0" style="font-family:'Asap-MediumItalic';font-size:8px">Q</tspan><tspan x="101.29" y="0" style="font-family:'Asap-Medium';font-size:8px">)</tspan></text><text transform="rotate(-90 125.25 117.584)"><tspan x="0" y="0" style="font-family:'Asap-Medium';font-size:8px">Average and marginal</tspan><tspan x="5.22" y="9.6" style="font-family:'Asap-Medium';font-size:8px">costs of production</tspan></text><text transform="translate(132.18 307.726)"><tspan x="0" y="0" style="font-family:'Asap-Medium';font-size:8px">Quantity of cars, </tspan><tspan x="59.53" y="0" style="font-family:'Asap-MediumItalic';font-size:8px">Q</tspan></text><text transform="translate(118.805 52.838)"><tspan x="0" y="0" style="font-family:'Asap-Regular';font-size:7px">Δ</tspan><tspan x="4.96" y="0" style="font-family:'Asap-Italic';font-size:7px">C</tspan></text><text transform="translate(101.295 290.84)" style="font-family:'Asap-Italic';font-size:7px">Q</text><text transform="matrix(.583 0 0 .583 106.412 293.171)" style="font-family:'Asap-Regular';font-size:7px">0</text><text transform="translate(11.638 99.918)" style="font-family:'Asap-Italic';font-size:7px">C</text><text transform="matrix(.583 0 0 .583 15.971 102.25)" style="font-family:'Asap-Regular';font-size:7px">0</text><text transform="translate(18.154 99.918)" style="font-family:'Asap-Regular';font-size:7px">=</text><text transform="translate(89.305 7.463)"><tspan x="0" y="0" style="font-family:'Asap-Regular';font-size:7px">Δ</tspan><tspan x="4.96" y="0" style="font-family:'Asap-Italic';font-size:7px">C</tspan><tspan x="9.29" y="0" style="font-family:'Asap-Regular';font-size:7px"> = 2,200</tspan></text><path style="fill:none;stroke:#b9519e;stroke-width:.5;stroke-linejoin:round" d="M48.68 108.15c93.81-10.17 182.23-45.18 262.51-93.92"/><line style="fill:none;stroke:#6d6e71;stroke-width:.5;stroke-linecap:square" x1="48.56" y1="108.16" x2="46.44" y2="108.14"/><g><line style="fill:none;stroke:#6d6e71;stroke-width:.5;stroke-linecap:square;stroke-linejoin:round" x1="48.56" y1="127.83" x2="48.56" y2="24.71"/><line style="fill:none;stroke:#6d6e71;stroke-width:.5;stroke-linecap:square;stroke-linejoin:round" x1="48.56" y1="127.83" x2="311.23" y2="127.83"/><line style="fill:none;stroke:#6d6e71;stroke-width:.5;stroke-linecap:square;stroke-linejoin:round" x1="47.31" y1="257" x2="47.31" y2="155.5"/><line style="fill:none;stroke:#6d6e71;stroke-width:.5;stroke-linecap:square;stroke-linejoin:round" x1="47.31" y1="257" x2="309.98" y2="257"/></g><g><circle cx="104.67" cy="239.4" r="1.13"/><circle cx="86" cy="49.83" r="1.13"/><circle cx="104.75" cy="99.65" r="1.13"/></g></svg>