<svg version="1.1" xmlns="http://www.w3.org/2000/svg" xmlns:xlink="http://www.w3.org/1999/xlink" x="0" y="0" viewBox="0 0 311.81 198.91" style="enable-background:new 0 0 311.81 198.91" xml:space="preserve"><g style="enable-background:new"><defs><rect id="prefix__a" x="55.34" y="53.29" width="218.15" height="100.68"/></defs><clipPath id="prefix__b"><use xlink:href="#prefix__a" style="overflow:visible"/></clipPath><g><defs><rect id="prefix__c" x="55.52" y="53.32" width="217.85" height="100.58"/></defs><clipPath id="prefix__d"><use xlink:href="#prefix__c" style="overflow:visible"/></clipPath><path d="M56.1 153.63c72.21-33.12 128.62-64.71 200.83-97.83"/></g></g><g style="enable-background:new"><path style="fill:none;stroke:#ed2124;stroke-width:.5;stroke-linejoin:round" d="M56.36 38.74c72.21 44.16 127.36 87.19 199.57 131.35"/></g><polygon style="fill:#f3e9f3" points="56.1 79.39 117.85 79.39 117.85 124.05 56.1 153.63"/><polygon style="fill:#fcd3c1" points="117.85 78.6 56.36 38.74 56.1 79.39 116.67 79.39"/><path style="fill:none;stroke:#5b73b8;stroke-width:.5;stroke-linejoin:round" d="M80.93 6.22s7.55 87.19 83.44 86.86c0 0 42.56 3.33 92.56-7.33"/><text transform="translate(47.636 172.523)" style="font-family:'Asap-Regular';font-size:7px">0</text><text transform="translate(71.308 180.988)" style="font-family:'Asap-Regular';font-size:7px">10</text><text transform="translate(53.814 180.447)" style="font-family:'Asap-Regular';font-size:7px">0</text><rect x="53.24" y="170.31" style="fill:none" width="5.79" height="10.68"/><text transform="translate(290.59 180.447)" style="font-family:'Asap-Regular';font-size:7px">120</text><text transform="translate(261.784 74.038)"><tspan x="0" y="0" style="fill:#273a71;font-family:'Asap-Regular';font-size:6px">Isoprofit curve:</tspan><tspan x="0" y="7.2" style="fill:#273a71;font-family:'Asap-Regular';font-size:6px">$150,000</tspan></text><text transform="translate(261.784 95.705)"><tspan x="0" y="0" style="fill:#5b73b8;font-family:'Asap-Regular';font-size:6px">Isoprofit curve:</tspan><tspan x="0" y="7.2" style="fill:#5b73b8;font-family:'Asap-Regular';font-size:6px">$63,360</tspan></text><text transform="translate(248.784 158.033)" style="fill:#ed2124;font-family:'Asap-Regular';font-size:6px">Demand curve</text><text transform="translate(263.45 53.287)" style="fill:#b9519e;font-family:'Asap-Regular';font-size:6px">Marginal cost</text><polyline style="fill:none;stroke:#939598;stroke-width:.5;stroke-linejoin:round;stroke-dasharray:1.4173" points="117.85 170.45 117.85 79.39 56.1 79.39"/><text transform="translate(120.338 74.5)" style="font-family:'Asap-Regular';font-size:6px">E</text><path style="fill:none;stroke:#273a71;stroke-width:.5;stroke-linejoin:round" d="M103.93 6.22s14.34 81.86 153 66.19"/><line style="fill:none;stroke:#ed2124;stroke-width:.5;stroke-miterlimit:10" x1="73.11" y1="49.15" x2="73.11" y2="79.39"/><line style="fill:none;stroke:#ed2124;stroke-width:.5;stroke-miterlimit:10" x1="84.11" y1="56.16" x2="84.11" y2="79.39"/><line style="fill:none;stroke:#b9519e;stroke-width:.5;stroke-miterlimit:10" x1="96.26" y1="80.02" x2="96.26" y2="134.64"/><text transform="translate(91.058 180.988)" style="font-family:'Asap-Regular';font-size:7px">20</text><text transform="translate(30.688 8.523)" style="font-family:'Asap-Regular';font-size:7px">10,000</text><text transform="rotate(-90 67.417 57.505)" style="font-family:'Asap-Medium';font-size:8px">Price, marginal cost ($)</text><text transform="translate(17.052 81.372)"><tspan x="0" y="0" style="font-family:'Asap-Italic';font-size:7px">P</tspan><tspan x="3.99" y="0" style="font-family:'Asap-Regular';font-size:7px">* = $5,440</tspan></text><text transform="translate(109.3 180.989)"><tspan x="0" y="0" style="font-family:'Asap-Italic';font-size:7px">Q</tspan><tspan x="5.12" y="0" style="font-family:'Asap-Regular';font-size:7px">* = 32</tspan></text><text transform="translate(151.447 195.194)"><tspan x="0" y="0" style="font-family:'Asap-Medium';font-size:8px">Quantity of cars, </tspan><tspan x="59.53" y="0" style="font-family:'Asap-MediumItalic';font-size:8px">Q</tspan></text><g><line style="fill:none;stroke:#6d6e71;stroke-width:.5;stroke-linecap:square;stroke-linejoin:round" x1="55.66" y1="169.99" x2="53.53" y2="169.99"/><line style="fill:none;stroke:#6d6e71;stroke-width:.5;stroke-linecap:square;stroke-linejoin:round" x1="55.66" y1="6.22" x2="53.53" y2="6.22"/><line style="fill:none;stroke:#6d6e71;stroke-width:.5;stroke-linecap:square;stroke-linejoin:round" x1="56.1" y1="169.99" x2="56.1" y2="6.22"/><line style="fill:none;stroke:#6d6e71;stroke-width:.5;stroke-linecap:square;stroke-linejoin:round" x1="56.1" y1="170.43" x2="56.1" y2="172.56"/><line style="fill:none;stroke:#6d6e71;stroke-width:.5;stroke-linecap:square;stroke-linejoin:round" x1="296.95" y1="170.43" x2="296.95" y2="172.56"/><line style="fill:none;stroke:#6d6e71;stroke-width:.5;stroke-linecap:square;stroke-linejoin:round" x1="56.1" y1="169.99" x2="296.95" y2="169.99"/><line style="fill:none;stroke:#6d6e71;stroke-width:.5;stroke-linecap:square;stroke-linejoin:round" x1="74.84" y1="170.09" x2="74.84" y2="172.22"/><line style="fill:none;stroke:#6d6e71;stroke-width:.5;stroke-linecap:square;stroke-linejoin:round" x1="94.49" y1="170.09" x2="94.49" y2="172.22"/></g><g><circle cx="117.85" cy="78.6" r="1.13"/></g></svg>