<svg version="1.1" xmlns="http://www.w3.org/2000/svg" x="0" y="0" viewBox="0 0 311.81 200.41" style="enable-background:new 0 0 311.81 200.41" xml:space="preserve"><rect x="50.89" y="51.18" style="fill:#fee7dc" width="62.33" height="120.37"/><text transform="translate(37.882 174.604)" style="font-family:'Asap-Regular';font-size:7px">0</text><text transform="translate(28.721 8.014)" style="font-family:'Asap-Regular';font-size:7px">9,000</text><text transform="translate(28.721 24.014)" style="font-family:'Asap-Regular';font-size:7px">8,000</text><text transform="translate(28.721 44.18)" style="font-family:'Asap-Regular';font-size:7px">7,000</text><text transform="translate(28.721 62.514)" style="font-family:'Asap-Regular';font-size:7px">6,000</text><text transform="translate(28.721 81.684)" style="font-family:'Asap-Regular';font-size:7px">5,000</text><text transform="translate(28.721 100.205)" style="font-family:'Asap-Regular';font-size:7px">4,000</text><text transform="translate(28.721 118.872)" style="font-family:'Asap-Regular';font-size:7px">3,000</text><text transform="translate(28.721 137.539)" style="font-family:'Asap-Regular';font-size:7px">2,000</text><text transform="translate(28.721 155.872)" style="font-family:'Asap-Regular';font-size:7px">1,000</text><text transform="translate(48.387 183.276)" style="font-family:'Asap-Regular';font-size:7px">0</text><text transform="translate(296.524 183.276)" style="font-family:'Asap-Regular';font-size:7px">80</text><text transform="translate(264.792 183.276)" style="font-family:'Asap-Regular';font-size:7px">70</text><text transform="translate(234.156 183.276)" style="font-family:'Asap-Regular';font-size:7px">60</text><text transform="translate(203.517 183.276)" style="font-family:'Asap-Regular';font-size:7px">50</text><text transform="translate(171.785 183.276)" style="font-family:'Asap-Regular';font-size:7px">40</text><text transform="translate(140.054 183.276)" style="font-family:'Asap-Regular';font-size:7px">30</text><text transform="translate(109.417 183.276)" style="font-family:'Asap-Regular';font-size:7px">20</text><text transform="translate(77.685 183.276)" style="font-family:'Asap-Regular';font-size:7px">10</text><line style="fill:none;stroke:#ed2124;stroke-width:.5471;stroke-miterlimit:10" x1="51.83" y1="21.66" x2="299.26" y2="141.71"/><text transform="translate(268.01 120.266)" style="fill:#ed2124;font-family:'Asap-Regular';font-size:6px">Demand curve</text><text transform="rotate(-90 57.621 48.422)"><tspan x="0" y="0" style="font-family:'Asap-Medium';font-size:8px">Price, </tspan><tspan x="21.3" y="0" style="font-family:'Asap-MediumItalic';font-size:8px">P</tspan><tspan x="25.86" y="0" style="font-family:'Asap-Medium';font-size:8px"> ($)</tspan></text><text transform="translate(155.215 197.411)"><tspan x="0" y="0" style="font-family:'Asap-Medium';font-size:8px">Quantity of cars, </tspan><tspan x="59.53" y="0" style="font-family:'Asap-MediumItalic';font-size:8px">Q</tspan></text><line style="fill:none;stroke:#6d6e71;stroke-width:.5;stroke-linecap:square" x1="50.89" y1="78.74" x2="48.77" y2="78.74"/><line style="fill:none;stroke:#6d6e71;stroke-width:.5;stroke-linecap:square" x1="50.89" y1="97.36" x2="48.77" y2="97.36"/><line style="fill:none;stroke:#6d6e71;stroke-width:.5;stroke-linecap:square" x1="50.89" y1="115.98" x2="48.77" y2="115.98"/><line style="fill:none;stroke:#6d6e71;stroke-width:.5;stroke-linecap:square" x1="50.89" y1="134.59" x2="48.77" y2="134.59"/><line style="fill:none;stroke:#6d6e71;stroke-width:.5;stroke-linecap:square" x1="50.89" y1="153.21" x2="48.77" y2="153.21"/><g><line style="fill:none;stroke:#6d6e71;stroke-width:.5471;stroke-linecap:square;stroke-linejoin:round" x1="50.89" y1="171.83" x2="300.2" y2="171.83"/><line style="fill:none;stroke:#6d6e71;stroke-width:.5471;stroke-linecap:square;stroke-linejoin:round" x1="175.54" y1="172.32" x2="175.54" y2="174.45"/><line style="fill:none;stroke:#6d6e71;stroke-width:.5471;stroke-linecap:square;stroke-linejoin:round" x1="300.2" y1="172.32" x2="300.2" y2="174.45"/><line style="fill:none;stroke:#6d6e71;stroke-width:.5471;stroke-linecap:square;stroke-linejoin:round" x1="50.89" y1="172.32" x2="50.89" y2="174.45"/><line style="fill:none;stroke:#6d6e71;stroke-width:.5471;stroke-linecap:square;stroke-linejoin:round" x1="237.87" y1="172.32" x2="237.87" y2="174.45"/><line style="fill:none;stroke:#6d6e71;stroke-width:.5471;stroke-linecap:square;stroke-linejoin:round" x1="269.03" y1="172.32" x2="269.03" y2="174.45"/><line style="fill:none;stroke:#6d6e71;stroke-width:.5471;stroke-linecap:square;stroke-linejoin:round" x1="206.71" y1="172.32" x2="206.71" y2="174.45"/><line style="fill:none;stroke:#6d6e71;stroke-width:.5471;stroke-linecap:square;stroke-linejoin:round" x1="144.38" y1="172.32" x2="144.38" y2="174.45"/><line style="fill:none;stroke:#6d6e71;stroke-width:.5471;stroke-linecap:square;stroke-linejoin:round" x1="113.22" y1="172.32" x2="113.22" y2="174.45"/><line style="fill:none;stroke:#6d6e71;stroke-width:.5471;stroke-linecap:square;stroke-linejoin:round" x1="82.05" y1="172.32" x2="82.05" y2="174.45"/><line style="fill:none;stroke:#6d6e71;stroke-width:.5471;stroke-linecap:square;stroke-linejoin:round" x1="51.17" y1="171.83" x2="49.5" y2="171.83"/><line style="fill:none;stroke:#6d6e71;stroke-width:.5471;stroke-linecap:square;stroke-linejoin:round" x1="50.89" y1="171.83" x2="50.89" y2="4.67"/><line style="fill:none;stroke:#6d6e71;stroke-width:.5;stroke-linecap:square" x1="50.89" y1="4.26" x2="48.77" y2="4.26"/><line style="fill:none;stroke:#6d6e71;stroke-width:.5;stroke-linecap:square" x1="50.89" y1="22.88" x2="48.77" y2="22.88"/><line style="fill:none;stroke:#6d6e71;stroke-width:.5;stroke-linecap:square" x1="50.89" y1="41.5" x2="48.77" y2="41.5"/><line style="fill:none;stroke:#6d6e71;stroke-width:.5;stroke-linecap:square" x1="50.89" y1="60.12" x2="48.77" y2="60.12"/></g></svg>