<svg version="1.1" xmlns="http://www.w3.org/2000/svg" xmlns:xlink="http://www.w3.org/1999/xlink" x="0" y="0" viewBox="0 0 311.81 198.91" style="enable-background:new 0 0 311.81 198.91" xml:space="preserve"><rect x="56.1" y="79.39" style="fill:#fee7dc" width="61.74" height="25.28"/><polygon style="fill:#fee7dc" points="117.85 78.6 156.57 104.67 117.85 104.67"/><polygon style="fill:#fee7dc" points="117.85 78.6 56.36 38.74 56.1 79.39 116.67 79.39"/><polygon style="fill:#f3e9f3" points="117.85 104.67 156.57 104.67 117.85 124.05"/><polygon style="fill:#f3e9f3" points="56.1 104.67 117.85 104.67 117.85 124.05 56.1 153.63"/><path style="fill:none;stroke:#5b73b8;stroke-width:.5;stroke-linejoin:round" d="M80.93 6.22s7.55 87.19 83.44 86.86c0 0 42.56 3.33 92.56-7.33"/><text transform="translate(47.636 172.523)" style="font-family:'Asap-Regular';font-size:7px">0</text><text transform="translate(44.625 107.989)" style="font-family:'Asap-Italic';font-size:7px">P</text><text transform="matrix(.583 0 0 .583 48.615 110.32)" style="font-family:'Asap-Regular';font-size:7px">0</text><text transform="translate(53.814 180.448)" style="font-family:'Asap-Regular';font-size:7px">0</text><rect x="53.24" y="170.31" style="fill:none" width="5.79" height="10.68"/><text transform="translate(290.59 180.448)" style="font-family:'Asap-Regular';font-size:7px">120</text><g style="enable-background:new"><defs><rect id="prefix__a" x="55.34" y="53.29" width="218.15" height="100.68"/></defs><clipPath id="prefix__b"><use xlink:href="#prefix__a" style="overflow:visible"/></clipPath><g><defs><rect id="prefix__c" x="55.52" y="53.32" width="217.85" height="100.58"/></defs><clipPath id="prefix__d"><use xlink:href="#prefix__c" style="overflow:visible"/></clipPath><path d="M55.52 153.89c72.21-33.12 129.2-64.98 201.41-98.1"/></g></g><g style="enable-background:new"><defs><rect id="prefix__e" x="55.34" y="36.51" width="218.15" height="134.24"/></defs><clipPath id="prefix__f"><use xlink:href="#prefix__e" style="overflow:visible"/></clipPath><g><defs><rect id="prefix__g" x="55.52" y="36.76" width="217.85" height="133.7"/></defs><clipPath id="prefix__h"><use xlink:href="#prefix__g" style="overflow:visible"/></clipPath><path d="M56.36 38.74c72.21 44.16 128.36 87.79 200.57 131.95"/></g></g><text transform="translate(261.784 74.039)"><tspan x="0" y="0" style="fill:#273a71;font-family:'Asap-Regular';font-size:6px">Isoprofit curve:</tspan><tspan x="0" y="7.2" style="fill:#273a71;font-family:'Asap-Regular';font-size:6px">$150,000</tspan></text><text transform="translate(261.784 95.706)"><tspan x="0" y="0" style="fill:#5b73b8;font-family:'Asap-Regular';font-size:6px">Isoprofit curve:</tspan><tspan x="0" y="7.2" style="fill:#5b73b8;font-family:'Asap-Regular';font-size:6px">$63,360</tspan></text><text transform="translate(248.784 158.034)" style="fill:#ed2124;font-family:'Asap-Regular';font-size:6px">Demand curve</text><text transform="translate(263.45 53.288)" style="fill:#b9519e;font-family:'Asap-Regular';font-size:6px">Marginal cost</text><polyline style="fill:none;stroke:#939598;stroke-width:.5;stroke-linejoin:round;stroke-dasharray:1.4173" points="117.85 170.45 117.85 79.39 56.1 79.39"/><circle cx="117.85" cy="78.6" r="1.13"/><text transform="translate(120.338 74.5)" style="font-family:'Asap-Regular';font-size:6px">E</text><path style="fill:none;stroke:#273a71;stroke-width:.5;stroke-linejoin:round" d="M103.93 6.22s14.34 81.86 153 66.19"/><circle cx="156.57" cy="104.67" r="1.13"/><polyline style="fill:none;stroke:#939598;stroke-width:.5;stroke-linejoin:round;stroke-dasharray:1.4173" points="56.1 104.67 156.57 104.67 156.57 169.73"/><text transform="translate(154.906 101.456)" style="font-family:'Asap-Regular';font-size:6px">F</text><text transform="translate(30.688 8.523)" style="font-family:'Asap-Regular';font-size:7px">10,000</text><text transform="rotate(-90 67.417 57.505)" style="font-family:'Asap-Medium';font-size:8px">Price, marginal cost ($)</text><text transform="translate(17.08 81.372)"><tspan x="0" y="0" style="font-family:'Asap-Italic';font-size:7px">P</tspan><tspan x="3.99" y="0" style="font-family:'Asap-Regular';font-size:7px">* = $5,440</tspan></text><text transform="translate(109.3 180.989)"><tspan x="0" y="0" style="font-family:'Asap-Italic';font-size:7px">Q</tspan><tspan x="5.12" y="0" style="font-family:'Asap-Regular';font-size:7px">* = 32</tspan></text><text transform="translate(151.447 195.194)"><tspan x="0" y="0" style="font-family:'Asap-Medium';font-size:8px">Quantity of cars, </tspan><tspan x="59.53" y="0" style="font-family:'Asap-MediumItalic';font-size:8px">Q</tspan></text><text transform="translate(153.558 180.989)" style="font-family:'Asap-Italic';font-size:7px">Q</text><text transform="matrix(.583 0 0 .583 158.675 183.32)" style="font-family:'Asap-Regular';font-size:7px">0</text><g><line style="fill:none;stroke:#6d6e71;stroke-width:.5;stroke-linecap:square;stroke-linejoin:round" x1="55.66" y1="6.22" x2="53.53" y2="6.22"/><line style="fill:none;stroke:#6d6e71;stroke-width:.5;stroke-linecap:square;stroke-linejoin:round" x1="55.66" y1="169.99" x2="53.53" y2="169.99"/><line style="fill:none;stroke:#6d6e71;stroke-width:.5;stroke-linecap:square;stroke-linejoin:round" x1="56.1" y1="171.99" x2="56.1" y2="6.22"/><line style="fill:none;stroke:#6d6e71;stroke-width:.5;stroke-linecap:square;stroke-linejoin:round" x1="296.95" y1="170.43" x2="296.95" y2="173.56"/><line style="fill:none;stroke:#6d6e71;stroke-width:.5;stroke-linecap:square;stroke-linejoin:round" x1="56.1" y1="170.43" x2="56.1" y2="173.56"/><line style="fill:none;stroke:#6d6e71;stroke-width:.5;stroke-linecap:square;stroke-linejoin:round" x1="56.1" y1="169.99" x2="296.95" y2="169.99"/></g></svg>