<svg version="1.1" xmlns="http://www.w3.org/2000/svg" x="0" y="0" viewBox="0 0 311.81 178.58" style="enable-background:new 0 0 311.81 178.58" xml:space="preserve"><line style="fill:none;stroke:#ed2124;stroke-width:.5;stroke-linecap:square;stroke-linejoin:round" x1="258.93" y1="151.99" x2="39.1" y2="20.47"/><text transform="translate(30.636 154.777)" style="font-family:'Asap-Regular';font-size:7px">0</text><text transform="translate(84.247 44.11)" style="font-family:'Asap-Regular';font-size:6px">A</text><text transform="translate(121.95 81.277)" style="font-family:'Asap-Regular';font-size:6px">B</text><polyline style="fill:none;stroke:#939598;stroke-width:.5;stroke-linejoin:round;stroke-dasharray:1.4173" points="39.36 46.28 82.6 46.28 82.6 151.99"/><polyline style="fill:none;stroke:#939598;stroke-width:.5;stroke-linejoin:round;stroke-dasharray:1.4173" points="39.36 73.69 127.93 73.69 127.93 151.99"/><text transform="translate(17.432 24.11)" style="font-family:'Asap-Regular';font-size:7px">8,000</text><text transform="translate(17.432 7.048)" style="font-family:'Asap-Regular';font-size:7px">9,000</text><text transform="translate(17.432 56.11)" style="font-family:'Asap-Regular';font-size:7px">6,000</text><text transform="translate(17.432 89.444)" style="font-family:'Asap-Regular';font-size:7px">4,000</text><text transform="translate(17.432 121.777)" style="font-family:'Asap-Regular';font-size:7px">2,000</text><circle cx="82.6" cy="46.81" r="1.13"/><circle cx="127.93" cy="73.69" r="1.13"/><text transform="translate(17.432 39.11)" style="font-family:'Asap-Regular';font-size:7px">7,000</text><text transform="translate(17.432 72.277)" style="font-family:'Asap-Regular';font-size:7px">5,000</text><text transform="translate(17.432 105.277)" style="font-family:'Asap-Regular';font-size:7px">3,000</text><text transform="translate(17.432 137.943)" style="font-family:'Asap-Regular';font-size:7px">1,000</text><text transform="translate(101.058 163.243)" style="font-family:'Asap-Regular';font-size:7px">30</text><text transform="translate(122.808 163.243)" style="font-family:'Asap-Regular';font-size:7px">40</text><text transform="translate(145.058 163.243)" style="font-family:'Asap-Regular';font-size:7px">50</text><text transform="translate(80.435 163.243)" style="font-family:'Asap-Regular';font-size:7px">20</text><text transform="translate(57.935 163.243)" style="font-family:'Asap-Regular';font-size:7px">10</text><text transform="translate(36.814 162.702)" style="font-family:'Asap-Regular';font-size:7px">0</text><text transform="translate(296.59 162.702)" style="font-family:'Asap-Regular';font-size:7px">120</text><text transform="translate(167.308 163.243)" style="font-family:'Asap-Regular';font-size:7px">60</text><text transform="translate(188.808 163.243)" style="font-family:'Asap-Regular';font-size:7px">70</text><text transform="translate(211.058 163.243)" style="font-family:'Asap-Regular';font-size:7px">80</text><text transform="translate(233.058 163.243)" style="font-family:'Asap-Regular';font-size:7px">90</text><text transform="translate(253.563 163.243)" style="font-family:'Asap-Regular';font-size:7px">100</text><text transform="translate(274.563 163.243)" style="font-family:'Asap-Regular';font-size:7px">110</text><text transform="rotate(-90 66.711 58.8)"><tspan x="0" y="0" style="font-family:'Asap-Medium';font-size:8px">Price, </tspan><tspan x="21.3" y="0" style="font-family:'Asap-MediumItalic';font-size:8px">P</tspan><tspan x="25.86" y="0" style="font-family:'Asap-Medium';font-size:8px">: WTP ($)</tspan></text><text transform="translate(106.78 173.093)"><tspan x="0" y="0" style="font-family:'Asap-Medium';font-size:8px">Quantity, </tspan><tspan x="34.06" y="0" style="font-family:'Asap-MediumItalic';font-size:8px">Q</tspan><tspan x="39.91" y="0" style="font-family:'Asap-Medium';font-size:8px"> (number of consumers)</tspan></text><g><line style="fill:none;stroke:#6d6e71;stroke-width:.5;stroke-linecap:square;stroke-linejoin:round" x1="39.1" y1="152.24" x2="302.95" y2="152.24"/><line style="fill:none;stroke:#6d6e71;stroke-width:.5;stroke-linecap:square;stroke-linejoin:round" x1="39.1" y1="4" x2="39.1" y2="154.24"/><line style="fill:none;stroke:#6d6e71;stroke-width:.5;stroke-linecap:square;stroke-linejoin:round" x1="38.66" y1="20.47" x2="36.53" y2="20.47"/><line style="fill:none;stroke:#6d6e71;stroke-width:.5;stroke-linecap:square;stroke-linejoin:round" x1="38.66" y1="4" x2="36.53" y2="4"/><line style="fill:none;stroke:#6d6e71;stroke-width:.5;stroke-linecap:square;stroke-linejoin:round" x1="38.66" y1="152.24" x2="36.53" y2="152.24"/><line style="fill:none;stroke:#6d6e71;stroke-width:.5;stroke-linecap:square;stroke-linejoin:round" x1="38.66" y1="53.41" x2="36.53" y2="53.41"/><line style="fill:none;stroke:#6d6e71;stroke-width:.5;stroke-linecap:square;stroke-linejoin:round" x1="38.66" y1="86.36" x2="36.53" y2="86.36"/><line style="fill:none;stroke:#6d6e71;stroke-width:.5;stroke-linecap:square;stroke-linejoin:round" x1="38.66" y1="119.3" x2="36.53" y2="119.3"/><line style="fill:none;stroke:#6d6e71;stroke-width:.5;stroke-linecap:square;stroke-linejoin:round" x1="38.66" y1="135.77" x2="36.53" y2="135.77"/><line style="fill:none;stroke:#6d6e71;stroke-width:.5;stroke-linecap:square;stroke-linejoin:round" x1="38.66" y1="102.83" x2="36.53" y2="102.83"/><line style="fill:none;stroke:#6d6e71;stroke-width:.5;stroke-linecap:square;stroke-linejoin:round" x1="38.66" y1="69.89" x2="36.53" y2="69.89"/><line style="fill:none;stroke:#6d6e71;stroke-width:.5;stroke-linecap:square;stroke-linejoin:round" x1="38.66" y1="36.94" x2="36.53" y2="36.94"/><g><line style="fill:none;stroke:#6d6e71;stroke-width:.5;stroke-linecap:square;stroke-linejoin:round" x1="302.95" y1="152.69" x2="302.95" y2="154.81"/><line style="fill:none;stroke:#6d6e71;stroke-width:.5;stroke-linecap:square;stroke-linejoin:round" x1="39.1" y1="152.69" x2="39.1" y2="154.81"/><line style="fill:none;stroke:#6d6e71;stroke-width:.5;stroke-linecap:square;stroke-linejoin:round" x1="236.99" y1="152.69" x2="236.99" y2="154.81"/><line style="fill:none;stroke:#6d6e71;stroke-width:.5;stroke-linecap:square;stroke-linejoin:round" x1="171.02" y1="152.69" x2="171.02" y2="154.81"/><line style="fill:none;stroke:#6d6e71;stroke-width:.5;stroke-linecap:square;stroke-linejoin:round" x1="105.06" y1="152.69" x2="105.06" y2="154.81"/><line style="fill:none;stroke:#6d6e71;stroke-width:.5;stroke-linecap:square;stroke-linejoin:round" x1="61.09" y1="152.69" x2="61.09" y2="154.81"/><line style="fill:none;stroke:#6d6e71;stroke-width:.5;stroke-linecap:square;stroke-linejoin:round" x1="82.6" y1="152.69" x2="82.6" y2="154.81"/><line style="fill:none;stroke:#6d6e71;stroke-width:.5;stroke-linecap:square;stroke-linejoin:round" x1="127.05" y1="152.69" x2="127.05" y2="154.81"/><line style="fill:none;stroke:#6d6e71;stroke-width:.5;stroke-linecap:square;stroke-linejoin:round" x1="149.04" y1="152.69" x2="149.04" y2="154.81"/><line style="fill:none;stroke:#6d6e71;stroke-width:.5;stroke-linecap:square;stroke-linejoin:round" x1="193.01" y1="152.69" x2="193.01" y2="154.81"/><line style="fill:none;stroke:#6d6e71;stroke-width:.5;stroke-linecap:square;stroke-linejoin:round" x1="215" y1="152.69" x2="215" y2="154.81"/><line style="fill:none;stroke:#6d6e71;stroke-width:.5;stroke-linecap:square;stroke-linejoin:round" x1="258.97" y1="152.69" x2="258.97" y2="154.81"/><line style="fill:none;stroke:#6d6e71;stroke-width:.5;stroke-linecap:square;stroke-linejoin:round" x1="280.96" y1="152.69" x2="280.96" y2="154.81"/></g></g></svg>