<svg version="1.1" xmlns="http://www.w3.org/2000/svg" x="0" y="0" viewBox="0 0 311.81 360.28" style="enable-background:new 0 0 311.81 360.28" xml:space="preserve"><line style="fill:none;stroke:#bcbec0;stroke-width:.5;stroke-linecap:square;stroke-linejoin:round" x1="121.34" y1="164.64" x2="121.34" y2="302.76"/><line style="fill:none;stroke:#bcbec0;stroke-width:.5;stroke-linecap:square;stroke-linejoin:round" x1="202.34" y1="164.64" x2="202.34" y2="302.76"/><line style="fill:none;stroke:#bcbec0;stroke-width:.5;stroke-linecap:square;stroke-linejoin:round" x1="288.58" y1="164.64" x2="288.58" y2="302.76"/><path style="fill:none;stroke:#0871b9;stroke-width:.5;stroke-linejoin:round" d="M104.67 170.28s20.5 38.97 100.75 39.15c0 0 75.25-2.15 127.58-27.82"/><polyline style="fill:none;stroke:#939598;stroke-width:.5;stroke-linejoin:round;stroke-dasharray:1.4173" points="202.34 146.28 202.34 86.86 48.68 147.69 121.34 113.16"/><path style="fill:none;stroke:#b9519e;stroke-width:.5;stroke-linejoin:round" d="M48.68 126.01c93.81-10.17 182.23-45.18 262.51-93.92"/><rect x="47.98" y="31.16" style="fill:none" width="263.83" height="95.83"/><text transform="translate(22.305 12.777)" style="font-family:'Asap-Regular';font-size:7px">350,000</text><text transform="translate(25.305 115.777)" style="font-family:'Asap-Regular';font-size:7px">80,000</text><text transform="translate(27.805 189.865)" style="font-family:'Asap-Regular';font-size:7px">4,000</text><text transform="translate(27.805 213.865)" style="font-family:'Asap-Regular';font-size:7px">3,400</text><text transform="translate(27.805 203.199)" style="font-family:'Asap-Regular';font-size:7px">3,600</text><text transform="translate(76.324 74.693)" style="font-family:'Asap-Regular';font-size:7px">AC at A</text><text transform="translate(76.324 83.094)" style="font-family:'Asap-Regular';font-size:7px">= slope of OA</text><text transform="translate(76.324 91.493)" style="font-family:'Asap-Regular';font-size:7px">=</text><text transform="translate(81.924 91.493)" style="font-family:'Asap-Italic';font-size:7px">C</text><text transform="matrix(.583 0 0 .583 86.256 93.824)" style="font-family:'Asap-Regular';font-size:7px">0</text><text transform="translate(88.44 91.493)" style="font-family:'Asap-Regular';font-size:7px">/</text><text transform="translate(94.754 91.493)" style="font-family:'Asap-Italic';font-size:7px">Q</text><text transform="matrix(.583 0 0 .583 99.87 93.824)" style="font-family:'Asap-Regular';font-size:7px">0</text><text transform="translate(76.324 99.893)" style="font-family:'Asap-Regular';font-size:7px">= 4,000</text><text transform="translate(160.74 55.365)"><tspan x="0" y="0" style="font-family:'Asap-Regular';font-size:7px">AC at B</tspan><tspan x="0" y="8.4" style="font-family:'Asap-Regular';font-size:7px">= slope of OB</tspan><tspan x="0" y="16.8" style="font-family:'Asap-Regular';font-size:7px">= 3,400</tspan></text><text transform="translate(240.074 106.365)"><tspan x="0" y="0" style="font-family:'Asap-Regular';font-size:7px">AC at D</tspan><tspan x="0" y="8.4" style="font-family:'Asap-Regular';font-size:7px">= slope of OD</tspan><tspan x="0" y="16.8" style="font-family:'Asap-Regular';font-size:7px">= 3,600</tspan></text><text transform="translate(118.379 312.532)" style="font-family:'Asap-Regular';font-size:7px">20</text><text transform="translate(48.563 312.532)" style="font-family:'Asap-Regular';font-size:7px">0</text><text transform="translate(40.897 304.199)" style="font-family:'Asap-Regular';font-size:7px">0</text><text transform="translate(118.379 336.865)" style="font-family:'Asap-Italic';font-size:7px">Q</text><text transform="matrix(.583 0 0 .583 123.496 339.197)" style="font-family:'Asap-Regular';font-size:7px">0</text><text transform="translate(11.638 115.777)" style="font-family:'Asap-Italic';font-size:7px">C</text><text transform="matrix(.583 0 0 .583 15.971 118.108)" style="font-family:'Asap-Regular';font-size:7px">0</text><text transform="translate(18.154 115.777)" style="font-family:'Asap-Regular';font-size:7px">=</text><text transform="translate(41.305 128.013)" style="font-family:'Asap-Regular';font-size:6px">F</text><polyline style="fill:none;stroke:#939598;stroke-width:.5;stroke-linejoin:round;stroke-dasharray:1.4173" points="48.76 113.16 121.34 113.16 121.34 147.69"/><text transform="translate(119.921 108.443)" style="font-family:'Asap-Regular';font-size:6px">A</text><text transform="translate(200.92 82.36)" style="font-family:'Asap-Regular';font-size:6px">B</text><text transform="translate(287.166 41.033)" style="font-family:'Asap-Regular';font-size:6px">D</text><line style="fill:none;stroke:#939598;stroke-width:.5;stroke-linejoin:round" x1="122.3" y1="327.87" x2="122.3" y2="317.49"/><polygon style="fill:#939598" points="124.34 319.14 123.98 319.48 122.3 317.68 120.62 319.48 120.25 319.14 122.3 316.94"/><text transform="translate(198.962 312.532)" style="font-family:'Asap-Regular';font-size:7px">40</text><text transform="translate(198.962 336.865)" style="font-family:'Asap-Italic';font-size:7px">Q</text><text transform="matrix(.583 0 0 .583 204.078 339.197)" style="font-family:'Asap-Regular';font-size:7px">1</text><line style="fill:none;stroke:#939598;stroke-width:.5;stroke-linejoin:round" x1="202.88" y1="327.87" x2="202.88" y2="317.49"/><polygon style="fill:#939598" points="204.93 319.14 204.56 319.48 202.88 317.68 201.2 319.48 200.84 319.14 202.88 316.94"/><text transform="translate(285.207 312.532)" style="font-family:'Asap-Regular';font-size:7px">60</text><text transform="translate(285.207 336.865)" style="font-family:'Asap-Italic';font-size:7px">Q</text><text transform="matrix(.583 0 0 .583 290.324 339.197)" style="font-family:'Asap-Regular';font-size:7px">2</text><line style="fill:none;stroke:#939598;stroke-width:.5;stroke-linejoin:round" x1="289.13" y1="327.87" x2="289.13" y2="317.49"/><polygon style="fill:#939598" points="291.17 319.14 290.8 319.48 289.13 317.68 287.45 319.48 287.08 319.14 289.13 316.94"/><text transform="translate(39.897 154.865)" style="font-family:'Asap-Regular';font-size:7px">O</text><polyline style="fill:none;stroke:#939598;stroke-width:.5;stroke-linejoin:round;stroke-dasharray:1.4173" points="48.76 187.41 121.34 187.41 121.34 302.76"/><text transform="translate(124.42 185.194)" style="font-family:'Asap-Regular';font-size:6px">A</text><text transform="translate(205.42 207.216)" style="font-family:'Asap-Regular';font-size:6px">B</text><text transform="translate(291.376 194.277)" style="font-family:'Asap-Regular';font-size:6px">D</text><line style="fill:none;stroke:#939598;stroke-width:.5;stroke-linejoin:round;stroke-dasharray:1.4173" x1="288.58" y1="146.28" x2="288.58" y2="45.33"/><polyline style="fill:none;stroke:#939598;stroke-width:.5;stroke-linejoin:round;stroke-dasharray:1.4173" points="50.1 210.28 202.34 209.03 202.34 302.76"/><polyline style="fill:none;stroke:#939598;stroke-width:.5;stroke-linejoin:round;stroke-dasharray:1.4173" points="48.56 199.46 288.29 198.22 288.58 302.76"/><text transform="translate(152.18 354.918)"><tspan x="0" y="0" style="font-family:'Asap-Medium';font-size:8px">Quantity of cars, </tspan><tspan x="59.53" y="0" style="font-family:'Asap-MediumItalic';font-size:8px">Q</tspan></text><text transform="translate(117.638 157.199)" style="font-family:'Asap-Regular';font-size:7px">20</text><text transform="translate(198.805 157.199)" style="font-family:'Asap-Regular';font-size:7px">40</text><text transform="translate(285.05 157.199)" style="font-family:'Asap-Regular';font-size:7px">60</text><text transform="rotate(-90 147.6 139.933)" style="font-family:'Asap-Medium';font-size:8px">Average cost of production ($)</text><text transform="rotate(-90 71.851 64.185)"><tspan x="0" y="0" style="font-family:'Asap-Medium';font-size:8px">Total cost of production, </tspan><tspan x="88.09" y="0" style="font-family:'Asap-MediumItalic';font-size:8px">C</tspan><tspan x="93.04" y="0" style="font-family:'Asap-Medium';font-size:8px">(</tspan><tspan x="95.45" y="0" style="font-family:'Asap-MediumItalic';font-size:8px">Q</tspan><tspan x="101.29" y="0" style="font-family:'Asap-Medium';font-size:8px">) ($)</tspan></text><line style="fill:none;stroke:#6d6e71;stroke-width:.5;stroke-linecap:square" x1="48.56" y1="126.01" x2="46.44" y2="126"/><g><line style="fill:none;stroke:#6d6e71;stroke-width:.5;stroke-linecap:square;stroke-linejoin:round" x1="48.56" y1="147.69" x2="48.56" y2="9.57"/><line style="fill:none;stroke:#6d6e71;stroke-width:.5;stroke-linecap:square;stroke-linejoin:round" x1="48.56" y1="147.69" x2="311.23" y2="147.69"/><line style="fill:none;stroke:#6d6e71;stroke-width:.5;stroke-linecap:square;stroke-linejoin:round" x1="48.56" y1="302.76" x2="48.56" y2="164.64"/><line style="fill:none;stroke:#6d6e71;stroke-width:.5;stroke-linecap:square;stroke-linejoin:round" x1="48.56" y1="302.76" x2="311.23" y2="302.76"/></g><g><circle cx="121.34" cy="113.16" r="1.13"/><circle cx="48.68" cy="147.69" r="1.13"/><circle cx="202.34" cy="87.08" r="1.13"/><circle cx="288.58" cy="45.75" r="1.13"/><circle cx="121.34" cy="187.41" r="1.13"/><circle cx="202.34" cy="209.43" r="1.13"/><circle cx="288.29" cy="197.49" r="1.13"/></g></svg>