<svg version="1.1" xmlns="http://www.w3.org/2000/svg" x="0" y="0" viewBox="0 0 311.81 210.47" style="enable-background:new 0 0 311.81 210.47" xml:space="preserve"><path style="fill:none;stroke:#b9519e;stroke-width:.5;stroke-linejoin:round" d="M43.5 158.5L275.55 31.15"/><text transform="rotate(-90 70.751 61.404)" style="font-family:'Asap-Medium';font-size:8px">Price, marginal cost ($)</text><text transform="translate(30.679 182.557)" style="font-family:'Asap-Regular';font-size:7px">0</text><rect x="30.18" y="174.58" style="fill:none" width="5.58" height="10.28"/><text transform="translate(16.476 139.949)" style="font-family:'Asap-Regular';font-size:7px">2,000</text><text transform="translate(16.476 97.83)" style="font-family:'Asap-Regular';font-size:7px">4,000</text><text transform="translate(16.476 55.22)" style="font-family:'Asap-Regular';font-size:7px">6,000</text><text transform="translate(16.476 12.612)" style="font-family:'Asap-Regular';font-size:7px">8,000</text><text transform="translate(156.056 206.065)" style="font-family:'Asap-Medium';font-size:8px">Quantity</text><rect x="43.5" y="194.07" style="fill:none" width="255.25" height="13.96"/><text transform="translate(41.453 191.863)" style="font-family:'Asap-Regular';font-size:7px">0</text><rect x="40.71" y="184.03" style="fill:none" width="5.58" height="10.28"/><text transform="translate(62.513 191.863)" style="font-family:'Asap-Regular';font-size:7px">10</text><rect x="61.86" y="184.03" style="fill:none" width="9.69" height="10.28"/><text transform="translate(86.02 191.863)" style="font-family:'Asap-Regular';font-size:7px">20</text><rect x="85.06" y="184.03" style="fill:none" width="9.69" height="10.28"/><text transform="translate(109.04 191.863)" style="font-family:'Asap-Regular';font-size:7px">30</text><rect x="108.27" y="184.03" style="fill:none" width="9.69" height="10.28"/><text transform="translate(132.058 191.863)" style="font-family:'Asap-Regular';font-size:7px">40</text><rect x="131.47" y="184.03" style="fill:none" width="9.69" height="10.28"/><text transform="translate(155.567 191.863)" style="font-family:'Asap-Regular';font-size:7px">50</text><rect x="154.67" y="184.03" style="fill:none" width="9.69" height="10.28"/><text transform="translate(178.585 191.863)" style="font-family:'Asap-Regular';font-size:7px">60</text><rect x="177.88" y="184.03" style="fill:none" width="9.69" height="10.28"/><text transform="translate(201.603 191.863)" style="font-family:'Asap-Regular';font-size:7px">70</text><rect x="201.08" y="184.03" style="fill:none" width="9.69" height="10.28"/><text transform="translate(225.112 191.863)" style="font-family:'Asap-Regular';font-size:7px">80</text><rect x="224.29" y="184.03" style="fill:none" width="9.69" height="10.28"/><text transform="translate(248.13 191.863)" style="font-family:'Asap-Regular';font-size:7px">90</text><rect x="247.49" y="184.03" style="fill:none" width="9.69" height="10.28"/><text transform="translate(269.19 191.863)" style="font-family:'Asap-Regular';font-size:7px">100</text><rect x="268.64" y="184.03" style="fill:none" width="13.8" height="10.28"/><text transform="translate(292.698 191.863)" style="font-family:'Asap-Regular';font-size:7px">110</text><rect x="291.85" y="184.03" style="fill:none" width="13.8" height="10.28"/><path style="fill:none;stroke:#ed2124;stroke-width:.5;stroke-linejoin:round" d="M43.5 62.98c77.35 21.22 154.7 42.45 232.05 63.67"/><path style="fill:none;stroke:#3a53a4;stroke-width:.5;stroke-linejoin:round" d="M159.52 90.85c38.82 1.33 78.1-6.48 116.02-13.93M101.51 70.96c15.5 14.92 37.22 19.18 58.01 19.89M80.62 36.4c4.62 12.7 11.05 25.1 20.88 34.56M72.95 9.71c2.03 9.06 4.52 17.99 7.68 26.69"/><text transform="translate(244.97 57.515)" style="fill:#b9519e;font-family:'Asap-Regular';font-size:6px">Marginal cost</text><text transform="translate(244.969 94.646)" style="fill:#3a53a4;font-family:'Asap-Regular';font-size:6px">Isoprofit curve: $36,360</text><text transform="translate(244.969 134.555)" style="fill:#ed2124;font-family:'Asap-Regular';font-size:6px">Demand curve</text><polyline style="fill:none;stroke:#939598;stroke-width:.5;stroke-linejoin:round;stroke-dasharray:1.4173" points="131.47 179.62 131.47 87.06 43.66 87.06"/><circle cx="131.47" cy="87.06" r="1.13"/><text transform="translate(134.263 84.47)" style="font-family:'Asap-Regular';font-size:6px">E</text><text transform="translate(86.563 101.387)" style="font-family:'Asap-Regular';font-size:6px">Profit margin</text><circle cx="159.48" cy="94.89" r="1.13"/><text transform="translate(159.484 104.137)" style="font-family:'Asap-Regular';font-size:6px">F</text><line style="fill:none;stroke:#939598;stroke-width:.5;stroke-miterlimit:10" x1="126.01" y1="90.22" x2="126.01" y2="108.18"/><polygon style="fill:#939598" points="123.97 91.88 124.33 92.22 126.01 90.41 127.69 92.22 128.06 91.88 126.01 89.68"/><polygon style="fill:#939598" points="123.97 106.52 124.33 106.18 126.01 107.99 127.69 106.18 128.06 106.52 126.01 108.72"/><g><path style="fill:none;stroke:#6d6e71;stroke-width:.5;stroke-linecap:square;stroke-linejoin:round" d="M43.45 9.92h-2.13m2.13 42.61h-2.13m2.13 42.12h-2.13m2.13 42.6h-2.13m2.13 42.61h-2.13m2.34 0V9.92M298.82 180.29v2.13m-23.51-2.13v2.13m-23.02-2.13v2.13m-23.02-2.13v2.13m-23.5-2.13v2.13m-23.02-2.13v2.13m-23.02-2.13v2.13m-23.51-2.13v2.13m-23.02-2.13v2.13m-23.51-2.13v2.13m-23.01-2.13v2.13m-23.02-2.13v2.13m0-2.56h255.16"/></g></svg>