<svg version="1.1" xmlns="http://www.w3.org/2000/svg" x="0" y="0" viewBox="0 0 311.81 210.47" style="enable-background:new 0 0 311.81 210.47" xml:space="preserve"><path style="fill:none;stroke:#b9519e;stroke-width:.5;stroke-linejoin:round" d="M45.92 157.1c75.25-41.79 150.51-83.58 225.76-125.37"/><text transform="translate(247.312 52.63)" style="fill:#b9519e;font-family:'Asap-Regular';font-size:6px">Marginal cost</text><text transform="translate(247.312 77.934)" style="fill:#3a53a4;font-family:'Asap-Regular';font-size:6px">Isoprofit curve: $87,000</text><text transform="translate(247.311 169.51)" style="fill:#ed2124;font-family:'Asap-Regular';font-size:6px">Demand curve</text><polyline style="fill:none;stroke:#939598;stroke-width:.5;stroke-linejoin:round;stroke-dasharray:1.4173" points="111.55 178.63 111.55 41.22 46.08 41.22"/><text transform="translate(114.076 39.217)" style="font-family:'Asap-Regular';font-size:6px">E</text><text transform="translate(158.684 89.717)" style="font-family:'Asap-Regular';font-size:6px">F</text><text transform="rotate(-90 70.344 58.64)" style="font-family:'Asap-Medium';font-size:8px">Price, marginal cost</text><rect x="4.13" y="10.84" style="fill:none" width="13.98" height="167.16"/><text transform="translate(33.074 180.84)" style="font-family:'Asap-Regular';font-size:7px">0</text><rect x="32.58" y="172.85" style="fill:none" width="5.59" height="10.3"/><text transform="translate(18.845 139.135)" style="font-family:'Asap-Regular';font-size:7px">2,000</text><text transform="translate(18.845 97.428)" style="font-family:'Asap-Regular';font-size:7px">4,000</text><text transform="translate(18.845 55.72)" style="font-family:'Asap-Regular';font-size:7px">6,000</text><text transform="translate(18.845 13.524)" style="font-family:'Asap-Regular';font-size:7px">8,000</text><text transform="translate(154.76 204.393)" style="font-family:'Asap-Medium';font-size:8px">Quantity</text><rect x="45.92" y="192.37" style="fill:none" width="248.34" height="13.98"/><text transform="translate(43.869 190.163)" style="font-family:'Asap-Regular';font-size:7px">0</text><rect x="43.12" y="182.31" style="fill:none" width="5.59" height="10.3"/><text transform="translate(64.477 190.163)" style="font-family:'Asap-Regular';font-size:7px">10</text><rect x="63.64" y="182.31" style="fill:none" width="9.71" height="10.3"/><text transform="translate(87.048 190.163)" style="font-family:'Asap-Regular';font-size:7px">20</text><rect x="86.21" y="182.31" style="fill:none" width="9.71" height="10.3"/><text transform="translate(109.618 190.163)" style="font-family:'Asap-Regular';font-size:7px">30</text><rect x="108.79" y="182.31" style="fill:none" width="9.71" height="10.3"/><text transform="translate(132.188 190.163)" style="font-family:'Asap-Regular';font-size:7px">40</text><rect x="131.37" y="182.31" style="fill:none" width="9.71" height="10.3"/><text transform="translate(154.76 190.163)" style="font-family:'Asap-Regular';font-size:7px">50</text><rect x="153.94" y="182.31" style="fill:none" width="9.71" height="10.3"/><text transform="translate(177.329 190.163)" style="font-family:'Asap-Regular';font-size:7px">60</text><rect x="176.52" y="182.31" style="fill:none" width="9.71" height="10.3"/><text transform="translate(199.9 190.163)" style="font-family:'Asap-Regular';font-size:7px">70</text><rect x="199.09" y="182.31" style="fill:none" width="9.71" height="10.3"/><text transform="translate(222.47 190.163)" style="font-family:'Asap-Regular';font-size:7px">80</text><rect x="221.67" y="182.31" style="fill:none" width="9.71" height="10.3"/><text transform="translate(245.04 190.163)" style="font-family:'Asap-Regular';font-size:7px">90</text><rect x="244.25" y="182.31" style="fill:none" width="9.71" height="10.3"/><text transform="translate(265.648 190.163)" style="font-family:'Asap-Regular';font-size:7px">100</text><rect x="264.76" y="182.31" style="fill:none" width="13.82" height="10.3"/><text transform="translate(288.22 190.163)" style="font-family:'Asap-Regular';font-size:7px">110</text><rect x="287.34" y="182.31" style="fill:none" width="13.82" height="10.3"/><path style="fill:none;stroke:#ed2124;stroke-width:.5;stroke-linejoin:round" d="M83.21 10.47c50.32 55.89 100.64 111.78 150.97 167.67"/><path style="fill:none;stroke:#3a53a4;stroke-width:.5;stroke-linejoin:round" d="M93.64 10.47c1.3 3.23 2.69 6.43 4.2 9.57 32.32 67.52 112.64 55.44 173.83 46.17"/><circle cx="111.55" cy="41.22" r="1.13"/><text transform="translate(64.477 90.783)" style="font-family:'Asap-Regular';font-size:6px">Profit margin</text><text transform="translate(119.977 83.283)"><tspan x="0" y="0" style="font-family:'Asap-Regular';font-size:6px">Dead</tspan><tspan x="0" y="7.2" style="font-family:'Asap-Regular';font-size:6px">weight</tspan><tspan x="0" y="14.4" style="font-family:'Asap-Regular';font-size:6px">loss</tspan></text><line style="fill:none;stroke:#939598;stroke-width:.5;stroke-miterlimit:10" x1="103.93" y1="45.51" x2="103.93" y2="120.18"/><polygon style="fill:#939598" points="101.88 47.17 102.25 47.51 103.93 45.7 105.61 47.51 105.97 47.17 103.93 44.97"/><polygon style="fill:#939598" points="101.88 118.52 102.25 118.18 103.93 119.99 105.61 118.18 105.97 118.52 103.93 120.72"/><circle cx="158.68" cy="94.48" r="1.13"/><g><path style="fill:none;stroke:#6d6e71;stroke-width:.5;stroke-linecap:square;stroke-linejoin:round" d="M45.9 10.83h-2.13m2.13 41.7h-2.13m2.13 41.71h-2.13m2.13 42.2h-2.13m2.13 41.7h-2.13m2.31 0V10.83M294.35 178.57v2.13m-22.57-2.13v2.13m-22.57-2.13v2.13m-22.57-2.13v2.13m-22.57-2.13v2.13m-22.57-2.13v2.13m-22.57-2.13v2.13m-22.57-2.13v2.13m-22.57-2.13v2.13m-22.57-2.13v2.13m-22.57-2.13v2.13m-22.57-2.13v2.13m0-2.56h248.28"/></g></svg>