<svg xmlns="http://www.w3.org/2000/svg" class="prefix__svglite" viewBox="0 0 810 579"><rect width="100%" height="100%" style="stroke:none;fill:#fff;stroke-linecap:round;stroke-linejoin:round;stroke-miterlimit:10"/><defs><clipPath id="prefix__a"><rect x="0" y="0" width="810" height="579" style="fill:none;stroke:#000;stroke-linecap:round;stroke-linejoin:round;stroke-miterlimit:10"/></clipPath></defs><g clip-path="url(#prefix__a)"><rect x="0" y="0" width="810" height="579" style="stroke-width:1.07;stroke:#fff;fill:#fff;stroke-linecap:round;stroke-linejoin:round;stroke-miterlimit:10"/><rect x="116.18" y="14.17" width="679.65" height="461.85" style="stroke-width:1.07;stroke:none;fill:#fff;stroke-linecap:round;stroke-linejoin:round;stroke-miterlimit:10"/><polyline points="116.18 476.02 795.83 476.02" style="stroke-width:1.07;stroke:#c6c4c4;stroke-linecap:butt;fill:none;stroke-linejoin:round;stroke-miterlimit:10"/><polyline points="116.18 360.56 795.83 360.56" style="stroke-width:1.07;stroke:#c6c4c4;stroke-linecap:butt;fill:none;stroke-linejoin:round;stroke-miterlimit:10"/><polyline points="116.18 245.1 795.83 245.1" style="stroke-width:1.07;stroke:#c6c4c4;stroke-linecap:butt;fill:none;stroke-linejoin:round;stroke-miterlimit:10"/><polyline points="116.18 129.63 795.83 129.63" style="stroke-width:1.07;stroke:#c6c4c4;stroke-linecap:butt;fill:none;stroke-linejoin:round;stroke-miterlimit:10"/><polyline points="116.18 14.17 795.83 14.17" style="stroke-width:1.07;stroke:#c6c4c4;stroke-linecap:butt;fill:none;stroke-linejoin:round;stroke-miterlimit:10"/><polyline points="116.18 301.32 133.61 287.51 151.03 273.94 168.46 261.46 185.89 250.83 203.31 233.54 220.74 223.28 238.17 215.79 255.59 210.66 273.02 199.95 290.45 187.79 307.87 182.65 325.3 177.13 342.73 174.18 360.16 165.12 377.58 158.27 395.01 155.1 412.44 156 429.86 147.61 447.29 137.23 464.72 130.56 482.14 127.4 499.57 121.45 517 114.35 534.42 114.12 551.85 115.86 569.28 106.38 586.7 101.37 604.13 96.23 621.56 89.63 638.99 88.39 656.41 88.56 673.84 90 691.27 86.51 708.69 81.22 726.12 77.47 743.55 73.72 760.97 71.29 778.4 66.22 795.83 61.95" style="stroke-width:1.2;stroke:#4dd9ff;stroke-linecap:butt;fill:none;stroke-linejoin:round;stroke-miterlimit:10"/><polyline points="116.18 434.83 133.61 417.95 151.03 402.2 168.46 392.65 185.89 385.56 203.31 373.8 220.74 363.48 238.17 353.18 255.59 345.24 273.02 332.33 290.45 313.2 307.87 295.77 325.3 283.08 342.73 271.23 360.16 254.59 377.58 246.95 395.01 231.62 412.44 215.83 429.86 197.52 447.29 179.9 464.72 164.84 482.14 159.33 499.57 148.21 517 137.69 534.42 141.95 551.85 139 569.28 134.29 586.7 128.75 604.13 121.71 621.56 114.22 638.99 110.91 656.41 106.9 673.84 103.03 691.27 100.35 708.69 95.01 726.12 88.83 743.55 85.09 760.97 79.12 778.4 69.82 795.83 62.63" style="stroke-width:1.2;stroke:#f49323;stroke-linecap:butt;fill:none;stroke-linejoin:round;stroke-miterlimit:10"/><polyline points="116.18 413.06 133.61 398.67 151.03 387.08 168.46 389.1 185.89 378.38 203.31 373.34 220.74 361.79 238.17 358.02 255.59 352.44 273.02 357.78 290.45 356.63 307.87 337.95 325.3 321.2 342.73 306.45 360.16 292.46 377.58 283.58 395.01 273.49 412.44 264.69 429.86 256.94 447.29 244.21 464.72 236.46 482.14 228.75 499.57 217.07 517 204.38 534.42 194.09 551.85 190.12 569.28 185.14 586.7 180.67 604.13 177.13 621.56 176.3 638.99 173.85 656.41 174.15 673.84 172.22 691.27 168.94 708.69 167.31 726.12 164.71 743.55 160.04 760.97 151.56 778.4 143.43 795.83 135.55" style="stroke-width:1.2;stroke:#009147;stroke-linecap:butt;fill:none;stroke-linejoin:round;stroke-miterlimit:10"/><polyline points="116.18 373.08 133.61 364.26 151.03 355.89 168.46 347.92 185.89 340.31 203.31 333.04 220.74 326.06 238.17 319.37 255.59 312.94 273.02 306.75 290.45 315.71 307.87 313.39 325.3 307.61 342.73 302.9 360.16 298.78 377.58 292.69 395.01 288.01 412.44 282.97 429.86 275.57 447.29 271.63 464.72 267.22 482.14 263.55 499.57 257.86 517 252.09 534.42 243.76 551.85 236.96 569.28 233.03 586.7 227.78 604.13 224.9 621.56 220.2 638.99 216.63 656.41 213.26 673.84 213.79 691.27 210.31 708.69 205.35 726.12 199.98 743.55 197.39 760.97 194.78 778.4 193.23 795.83 188.61" style="stroke-width:1.2;stroke:#b9519e;stroke-linecap:butt;fill:none;stroke-linejoin:round;stroke-miterlimit:10"/><line x1="116.18" y1="476.02" x2="116.18" y2="14.17" style="stroke-width:1.07;stroke:#333;stroke-linecap:butt;fill:none;stroke-linejoin:round;stroke-miterlimit:10"/><circle cx="116.18" cy="373.08" r="3.8" style="stroke-width:1.2;stroke:#b9519e;fill:#b9519e;stroke-linecap:round;stroke-linejoin:round;stroke-miterlimit:10"/><circle cx="116.18" cy="301.32" r="3.8" style="stroke-width:1.2;stroke:#4dd9ff;fill:#4dd9ff;stroke-linecap:round;stroke-linejoin:round;stroke-miterlimit:10"/><circle cx="116.18" cy="413.06" r="3.8" style="stroke-width:1.2;stroke:#009147;fill:#009147;stroke-linecap:round;stroke-linejoin:round;stroke-miterlimit:10"/><circle cx="116.18" cy="434.83" r="3.8" style="stroke-width:1.2;stroke:#f49323;fill:#f49323;stroke-linecap:round;stroke-linejoin:round;stroke-miterlimit:10"/><text x="57.03" y="480.43" style="font-size:18px;font-family:Asap" textLength="42.1" lengthAdjust="spacingAndGlyphs">1,500</text><text x="57.03" y="364.97" style="font-size:18px;font-family:Asap" textLength="42.1" lengthAdjust="spacingAndGlyphs">3,000</text><text x="57.03" y="249.51" style="font-size:18px;font-family:Asap" textLength="42.1" lengthAdjust="spacingAndGlyphs">6,000</text><text x="47.4" y="134.04" style="font-size:18px;font-family:Asap" textLength="51.73" lengthAdjust="spacingAndGlyphs">12,000</text><text x="47.4" y="18.58" style="font-size:18px;font-family:Asap" textLength="51.73" lengthAdjust="spacingAndGlyphs">24,000</text><polyline points="109.09 476.02 116.18 476.02" style="stroke-width:1.07;stroke:#464646;stroke-linecap:butt;fill:none;stroke-linejoin:round;stroke-miterlimit:10"/><polyline points="109.09 360.56 116.18 360.56" style="stroke-width:1.07;stroke:#464646;stroke-linecap:butt;fill:none;stroke-linejoin:round;stroke-miterlimit:10"/><polyline points="109.09 245.1 116.18 245.1" style="stroke-width:1.07;stroke:#464646;stroke-linecap:butt;fill:none;stroke-linejoin:round;stroke-miterlimit:10"/><polyline points="109.09 129.63 116.18 129.63" style="stroke-width:1.07;stroke:#464646;stroke-linecap:butt;fill:none;stroke-linejoin:round;stroke-miterlimit:10"/><polyline points="109.09 14.17 116.18 14.17" style="stroke-width:1.07;stroke:#464646;stroke-linecap:butt;fill:none;stroke-linejoin:round;stroke-miterlimit:10"/><polyline points="116.18 476.02 795.83 476.02" style="stroke-width:1.07;stroke:#464646;stroke-linecap:butt;fill:none;stroke-linejoin:round;stroke-miterlimit:10"/><polyline points="116.18 483.1 116.18 476.02" style="stroke-width:1.07;stroke:#464646;stroke-linecap:butt;fill:none;stroke-linejoin:round;stroke-miterlimit:10"/><polyline points="203.31 483.1 203.31 476.02" style="stroke-width:1.07;stroke:#464646;stroke-linecap:butt;fill:none;stroke-linejoin:round;stroke-miterlimit:10"/><polyline points="290.45 483.1 290.45 476.02" style="stroke-width:1.07;stroke:#464646;stroke-linecap:butt;fill:none;stroke-linejoin:round;stroke-miterlimit:10"/><polyline points="377.58 483.1 377.58 476.02" style="stroke-width:1.07;stroke:#464646;stroke-linecap:butt;fill:none;stroke-linejoin:round;stroke-miterlimit:10"/><polyline points="464.72 483.1 464.72 476.02" style="stroke-width:1.07;stroke:#464646;stroke-linecap:butt;fill:none;stroke-linejoin:round;stroke-miterlimit:10"/><polyline points="551.85 483.1 551.85 476.02" style="stroke-width:1.07;stroke:#464646;stroke-linecap:butt;fill:none;stroke-linejoin:round;stroke-miterlimit:10"/><polyline points="638.99 483.1 638.99 476.02" style="stroke-width:1.07;stroke:#464646;stroke-linecap:butt;fill:none;stroke-linejoin:round;stroke-miterlimit:10"/><polyline points="726.12 483.1 726.12 476.02" style="stroke-width:1.07;stroke:#464646;stroke-linecap:butt;fill:none;stroke-linejoin:round;stroke-miterlimit:10"/><polyline points="795.83 483.1 795.83 476.02" style="stroke-width:1.07;stroke:#464646;stroke-linecap:butt;fill:none;stroke-linejoin:round;stroke-miterlimit:10"/><text transform="rotate(-90 326.095 205.505)" style="font-size:18px;font-family:Asap" textLength="38.53" lengthAdjust="spacingAndGlyphs">1950</text><text transform="rotate(-90 369.66 161.94)" style="font-size:18px;font-family:Asap" textLength="38.53" lengthAdjust="spacingAndGlyphs">1955</text><text transform="rotate(-90 413.23 118.37)" style="font-size:18px;font-family:Asap" textLength="38.53" lengthAdjust="spacingAndGlyphs">1960</text><text transform="rotate(-90 456.795 74.805)" style="font-size:18px;font-family:Asap" textLength="38.53" lengthAdjust="spacingAndGlyphs">1965</text><text transform="rotate(-90 500.365 31.235)" style="font-size:18px;font-family:Asap" textLength="38.53" lengthAdjust="spacingAndGlyphs">1970</text><text transform="rotate(-90 543.93 -12.33)" style="font-size:18px;font-family:Asap" textLength="38.53" lengthAdjust="spacingAndGlyphs">1975</text><text transform="rotate(-90 587.5 -55.9)" style="font-size:18px;font-family:Asap" textLength="38.53" lengthAdjust="spacingAndGlyphs">1980</text><text transform="rotate(-90 631.065 -99.465)" style="font-size:18px;font-family:Asap" textLength="38.53" lengthAdjust="spacingAndGlyphs">1985</text><text transform="rotate(-90 665.92 -134.32)" style="font-size:18px;font-family:Asap" textLength="38.53" lengthAdjust="spacingAndGlyphs">1989</text><text x="435.91" y="560.59" style="font-size:20px;font-weight:500;font-family:Asap Medium" textLength="40.18" lengthAdjust="spacingAndGlyphs">Year</text><text transform="rotate(-90 213.72 185.51)" style="font-size:20px;font-weight:500;font-family:Asap Medium" textLength="38.74" lengthAdjust="spacingAndGlyphs">GDP</text><text transform="rotate(-90 191.945 163.735)" style="font-size:20px;font-weight:500;font-family:Asap Medium" textLength="29.56" lengthAdjust="spacingAndGlyphs">per</text><text transform="rotate(-90 174.76 146.55)" style="font-size:20px;font-weight:500;font-family:Asap Medium" textLength="55.1" lengthAdjust="spacingAndGlyphs">capita</text><text transform="rotate(-90 144.81 116.6)" style="font-size:20px;font-weight:500;font-family:Asap Medium" textLength="48.82" lengthAdjust="spacingAndGlyphs">(1990</text><text transform="rotate(-90 118 89.79)" style="font-size:20px;font-weight:500;font-family:Asap Medium" textLength="13.88" lengthAdjust="spacingAndGlyphs">$,</text><text transform="rotate(-90 108.66 80.45)" style="font-size:20px;font-weight:500;font-family:Asap Medium" textLength="41.75" lengthAdjust="spacingAndGlyphs">ratio</text><text transform="rotate(-90 85.385 57.175)" style="font-size:20px;font-weight:500;font-family:Asap Medium" textLength="51.6" lengthAdjust="spacingAndGlyphs">scale)</text><rect x="589.49" y="249.1" width="140.82" height="102.84" style="stroke-width:1.07;stroke:none;fill:#fff;stroke-linecap:round;stroke-linejoin:round;stroke-miterlimit:10"/><line x1="588.49" y1="270.86" x2="610.09" y2="270.86" style="stroke-width:1.2;stroke:#4dd9ff;stroke-linecap:butt;fill:none;stroke-linejoin:round;stroke-miterlimit:10"/><circle cx="612.25" cy="270.86" r="4.27" style="stroke-width:.75;stroke:#4dd9ff;fill:#4dd9ff;stroke-linecap:round;stroke-linejoin:round;stroke-miterlimit:10"/><circle cx="612.25" cy="270.86" r="4.27" style="stroke-width:.75;stroke:#4dd9ff;fill:#4dd9ff;stroke-linecap:round;stroke-linejoin:round;stroke-miterlimit:10"/><line x1="588.49" y1="292.46" x2="610.09" y2="292.46" style="stroke-width:1.2;stroke:#f49323;stroke-linecap:butt;fill:none;stroke-linejoin:round;stroke-miterlimit:10"/><circle cx="612.25" cy="292.46" r="4.27" style="stroke-width:.75;stroke:#f49323;fill:#f49323;stroke-linecap:round;stroke-linejoin:round;stroke-miterlimit:10"/><circle cx="612.25" cy="292.46" r="4.27" style="stroke-width:.75;stroke:#f49323;fill:#f49323;stroke-linecap:round;stroke-linejoin:round;stroke-miterlimit:10"/><line x1="588.49" y1="314.06" x2="610.09" y2="314.06" style="stroke-width:1.2;stroke:#009147;stroke-linecap:butt;fill:none;stroke-linejoin:round;stroke-miterlimit:10"/><circle cx="612.25" cy="314.06" r="4.27" style="stroke-width:.75;stroke:#009147;fill:#009147;stroke-linecap:round;stroke-linejoin:round;stroke-miterlimit:10"/><circle cx="612.25" cy="314.06" r="4.27" style="stroke-width:.75;stroke:#009147;fill:#009147;stroke-linecap:round;stroke-linejoin:round;stroke-miterlimit:10"/><line x1="588.49" y1="335.66" x2="610.09" y2="335.66" style="stroke-width:1.2;stroke:#b9519e;stroke-linecap:butt;fill:none;stroke-linejoin:round;stroke-miterlimit:10"/><circle cx="612.25" cy="335.66" r="4.27" style="stroke-width:.75;stroke:#b9519e;fill:#b9519e;stroke-linecap:round;stroke-linejoin:round;stroke-miterlimit:10"/><circle cx="612.25" cy="335.66" r="4.27" style="stroke-width:.75;stroke:#b9519e;fill:#b9519e;stroke-linecap:round;stroke-linejoin:round;stroke-miterlimit:10"/><text x="622.05" y="274.77" style="font-size:16px;font-family:Asap" textLength="34.82" lengthAdjust="spacingAndGlyphs">West</text><text x="660.7" y="274.77" style="font-size:16px;font-family:Asap" textLength="64.12" lengthAdjust="spacingAndGlyphs">Germany</text><text x="622.05" y="296.37" style="font-size:16px;font-family:Asap" textLength="41.95" lengthAdjust="spacingAndGlyphs">Japan</text><text x="622.05" y="317.97" style="font-size:16px;font-family:Asap" textLength="39.04" lengthAdjust="spacingAndGlyphs">Spain</text><text x="622.05" y="339.57" style="font-size:16px;font-family:Asap" textLength="29.53" lengthAdjust="spacingAndGlyphs">East</text><text x="655.42" y="339.57" style="font-size:16px;font-family:Asap" textLength="64.12" lengthAdjust="spacingAndGlyphs">Germany</text></g></svg>