<svg xmlns="http://www.w3.org/2000/svg" viewBox="0 0 810 549"><rect width="100%" height="100%" style="stroke:none;fill:#fff;stroke-linecap:round;stroke-linejoin:round;stroke-miterlimit:10"/><rect x="0" y="0" width="810" height="549" style="stroke-width:1.07;stroke:#fff;fill:#fff;stroke-linecap:round;stroke-linejoin:round;stroke-miterlimit:10"/><rect x="116.16" y="14.17" width="679.67" height="431.86" style="stroke-width:1.07;stroke:none;fill:#fff;stroke-linecap:round;stroke-linejoin:round;stroke-miterlimit:10"/><polyline points="116.16 446.03 795.83 446.03" style="stroke-width:1.07;stroke:#c6c4c4;stroke-linecap:butt;fill:none;stroke-linejoin:round;stroke-miterlimit:10"/><polyline points="116.16 359.66 795.83 359.66" style="stroke-width:1.07;stroke:#c6c4c4;stroke-linecap:butt;fill:none;stroke-linejoin:round;stroke-miterlimit:10"/><polyline points="116.16 273.29 795.83 273.29" style="stroke-width:1.07;stroke:#c6c4c4;stroke-linecap:butt;fill:none;stroke-linejoin:round;stroke-miterlimit:10"/><polyline points="116.16 186.92 795.83 186.92" style="stroke-width:1.07;stroke:#c6c4c4;stroke-linecap:butt;fill:none;stroke-linejoin:round;stroke-miterlimit:10"/><polyline points="116.16 100.55 795.83 100.55" style="stroke-width:1.07;stroke:#c6c4c4;stroke-linecap:butt;fill:none;stroke-linejoin:round;stroke-miterlimit:10"/><polyline points="116.16 14.17 795.83 14.17" style="stroke-width:1.07;stroke:#c6c4c4;stroke-linecap:butt;fill:none;stroke-linejoin:round;stroke-miterlimit:10"/><polyline points="116.16 434.56 123.97 435.25 131.78 435.91 139.6 435.95 147.41 436.01 155.22 434.01 163.03 434.11 170.85 433.13 178.66 432.18 186.47 430.97 194.28 430.42 202.1 432.14 209.91 430.61 217.72 430.67 225.53 430.74 233.34 430.81 241.16 430.88 248.97 430.94 256.78 431.01 264.59 431.08 272.41 431.15 280.22 431.21 288.03 431.28 295.84 432.44 303.65 431.61 311.47 427.52 319.28 426.62 327.09 425.84 334.9 426.19 342.72 425.2 350.53 424.72 358.34 424.56 366.15 424.86 373.96 424.49 381.78 424.53 389.59 423.3 397.4 422.02 405.21 421.23 413.03 418.93 420.84 417.62 428.65 414.73 436.46 410.79 444.28 408.6 452.09 405.75 459.9 403.61 467.71 397.25 475.52 393.95 483.34 391.41 491.15 385.99 498.96 380.82 506.77 375.83 514.59 371.86 522.4 374.97 530.21 371.72 538.02 367.31 545.83 359.54 553.65 353.18 561.46 348.09 569.27 337.84 577.08 326.56 584.9 314.39 592.71 307.37 600.52 295.68 608.33 282.86 616.14 275.41 623.96 266.54 631.77 252.58 639.58 237.12 647.39 223.88 655.21 212.81 663.02 227.79 670.83 206.09 678.64 186.95 686.46 178.61 694.27 161.04 702.08 154.41 709.89 142.19 717.7 131.17 725.52 115.68 733.33 99.72 741.14 92.7 748.95 92.53 756.77 71.16 764.58 58.31 772.39 50.28 780.2 39.6 788.01 26.87 795.83 16.58" style="stroke-width:1.2;stroke:#009147;stroke-linecap:butt;fill:none;stroke-linejoin:round;stroke-miterlimit:10"/><polyline points="116.16 371.9 123.97 370.6 131.78 375.56 139.6 381.92 147.41 385.2 155.22 383.48 163.03 379.62 170.85 377.8 178.66 378.46 186.47 374.77 194.28 375.69 202.1 374.38 209.91 374.15 217.72 371.69 225.53 372.03 233.34 373.79 241.16 366.93 248.97 370.78 256.78 365.45 264.59 358.12 272.41 355.31 280.22 358.84 288.03 359.89 295.84 358.4 303.65 364.54 311.47 361.83 319.28 360.01 327.09 355.57 334.9 354.73 342.72 351.7 350.53 347.6 358.34 355.49 366.15 350 373.96 344.77 381.78 347.96 389.59 351.79 397.4 343.66 405.21 335.98 413.03 336.85 420.84 335.5 428.65 332.41 436.46 324.47 444.28 319.9 452.09 315.96 459.9 314.15 467.71 308.5 475.52 302.07 483.34 305.72 491.15 308.44 498.96 302.58 506.77 311.17 514.59 303.92 522.4 304.28 530.21 314.63 538.02 320.87 545.83 318.43 553.65 317.76 561.46 327.96 569.27 321.25 577.08 319.97 584.9 324.17 592.71 333.4 600.52 334.91 608.33 325.9 616.14 318.48 623.96 312.19 631.77 305.78 639.58 311.54 647.39 306.27 655.21 297.22 663.02 292.29 670.83 298.42 678.64 300.76 686.46 308.39 694.27 324.46 702.08 316.16 709.89 308.41 717.7 298.5 725.52 288.82 733.33 278.21 741.14 273.77 748.95 280.53 756.77 268.86 764.58 261.7 772.39 265.48 780.2 263.37 788.01 266.21 795.83 264.69" style="stroke-width:1.2;stroke:#f49323;stroke-linecap:butt;fill:none;stroke-linejoin:round;stroke-miterlimit:10"/><polyline points="600.52 311.66 608.33 318.66 616.14 337.24 623.96 346.73 631.77 359.42 639.58 363.05 647.39 365.95 655.21 364.73 663.02 368.96 670.83 363.81 678.64 355.15 686.46 350.06 694.27 344.95 702.08 336.98 709.89 328.56 717.7 320.47 725.52 309.68 733.33 297.73 741.14 289.9 748.95 302.17 756.77 296.43 764.58 290.05 772.39 284.68 780.2 282.54 788.01 281.35 795.83 287.43" style="stroke-width:1.2;stroke:#7f8182;stroke-linecap:butt;fill:none;stroke-linejoin:round;stroke-miterlimit:10"/><polyline points="116.16 422.37 123.97 422.09 131.78 421.02 139.6 420.78 147.41 421.18 155.22 420.24 163.03 417.88 170.85 413.83 178.66 411.64 186.47 408.79 194.28 408.89 202.1 407.39 209.91 409 217.72 409.66 225.53 410.33 233.34 410.99 241.16 411.66 248.97 412.32 256.78 412.99 264.59 409.31 272.41 404.54 280.22 400.72 288.03 396.96 295.84 397.56 303.65 395.3 311.47 393.99 319.28 392.38 327.09 388.8 334.9 384.43 342.72 384.26 350.53 380.79 358.34 382.65 366.15 377.89 373.96 375.24 381.78 374.52 389.59 377.2 397.4 369.35 405.21 365.98 413.03 363.05 420.84 360.3 428.65 356.17 436.46 355.77 444.28 349.73 452.09 348.14 459.9 348.55 467.71 341.37 475.52 339.35 483.34 340.06 491.15 336.12 498.96 334.54 506.77 332.73 514.59 334.23 522.4 335.01 530.21 334.91 538.02 333.13 545.83 330.52 553.65 330.14 561.46 330.16 569.27 326.44 577.08 325.94 584.9 324.37 592.71 323.18 600.52 326.94 608.33 335.05 616.14 351.47 623.96 360.89 631.77 372.67 639.58 376.52 647.39 378.51 655.21 377.06 663.02 378.58 670.83 375.29 678.64 369.02 686.46 364.03 694.27 359.37 702.08 352.46 709.89 344.56 717.7 337.27 725.52 327.39 733.33 316.6 741.14 309.95 748.95 318.36 756.77 312.45" style="stroke-width:1.2;stroke-linecap:butt;fill:none;stroke:#000;stroke-linejoin:round;stroke-miterlimit:10"/><polyline points="116.16 426.03 123.97 426.39 131.78 427.93 139.6 428.69 147.41 428.45 155.22 427.45 163.03 426.31 170.85 426.17 178.66 424.7 186.47 424.44 194.28 423.99 202.1 424.22 209.91 424.44 217.72 423.46 225.53 424.8 233.34 422.4 241.16 422.09 248.97 422.02 256.78 420.1 264.59 419.81 272.41 418.46 280.22 417.38 288.03 417.15 295.84 416.63 303.65 415.77 311.47 415.22 319.28 414.11 327.09 412.76 334.9 413.28 342.72 411.59 350.53 409.57 358.34 407.67 366.15 405.7 373.96 403.94 381.78 402.66 389.59 403.49 397.4 403.33 405.21 403.75 413.03 402.38 420.84 401.91 428.65 399.32 436.46 396.63 444.28 393.23 452.09 389.41 459.9 384.92 467.71 379.01 475.52 375.54 483.34 373.71 491.15 368.82 498.96 367.18 506.77 365.22 514.59 361.56 522.4 356.29 530.21 362.25 538.02 363.76 545.83 368.33 553.65 365.83 561.46 361.15 569.27 356.17 577.08 355 584.9 356.98 592.71 355.79 600.52 361.04 608.33 361.6 616.14 363.43 623.96 360.75 631.77 357.16 639.58 354.82 647.39 354.25 655.21 352.56 663.02 353.89 670.83 355 678.64 352.44 686.46 352.54 694.27 351.35 702.08 351.51 709.89 347.34 717.7 345.43 725.52 342.59 733.33 337.46 741.14 333.02 748.95 334.49 756.77 327.2 764.58 323.65 772.39 322.57 780.2 320.25 788.01 321.09 795.83 326.84" style="stroke-width:1.2;stroke:#ed1f24;stroke-linecap:butt;fill:none;stroke-linejoin:round;stroke-miterlimit:10"/><polyline points="288.03 440 295.84 439.9 303.65 439.83 311.47 439.71 319.28 439.61 327.09 439.52 334.9 439.42 342.72 439.33 350.53 439.26 358.34 439.14 366.15 439.07 373.96 438.95 381.78 438.86 389.59 438.74 397.4 438.61 405.21 438.48 413.03 437.86 420.84 437.17 428.65 436.41 436.46 435.65 444.28 434.86 452.09 433.13 459.9 429.52 467.71 426.63 475.52 423.58 483.34 424.91 491.15 422.18 498.96 422.57 506.77 419.48 514.59 418.17 522.4 415.54 530.21 413.94 538.02 412.85 545.83 409 553.65 406.3 561.46 404.8 569.27 403.11 577.08 400.79 584.9 395.3 592.71 390.48 600.52 388.96 608.33 387.99 616.14 388.1 623.96 388.84 631.77 388.67 639.58 387.87 647.39 386.3 655.21 384.04 663.02 382.05 670.83 379.61 678.64 375.48 686.46 373.29 694.27 371.08 702.08 369.53 709.89 368.49 717.7 368.63 725.52 366.24 733.33 364.36 741.14 363.65 748.95 371.45 756.77 366.67 764.58 363.55 772.39 361.62 780.2 355.16 788.01 354.08 795.83 356.04" style="stroke-width:1.2;stroke:#b9519e;stroke-linecap:butt;fill:none;stroke-linejoin:round;stroke-miterlimit:10"/><polyline points="288.03 433.03 295.84 432.35 303.65 431.7 311.47 431.68 319.28 431.06 327.09 431.09 334.9 431.85 342.72 431.7 350.53 432.27 358.34 432.08 366.15 431.87 373.96 431.8 381.78 431.42 389.59 430.5 397.4 430.31 405.21 429.73 413.03 430.71 420.84 433.46 428.65 433.96 436.46 431.16 444.28 427.14 452.09 425.51 459.9 425.36 467.71 424.23 475.52 422.42 483.34 423.8 491.15 422.11 498.96 421.97 506.77 424.06 514.59 423.23 522.4 423.49 530.21 425.93 538.02 426.7 545.83 428.36 553.65 429.48 561.46 428.47 569.27 428.59 577.08 429.17 584.9 427.96 592.71 427.29 600.52 426.82 608.33 427.43 616.14 427.81 623.96 427.91 631.77 428.21 639.58 428.69 647.39 428.28 655.21 428.22 663.02 428.17 670.83 428.52 678.64 428.05 686.46 427.07 694.27 423.65 702.08 422 709.89 420.17 717.7 419.48 725.52 418.57 733.33 417.41 741.14 416.48 748.95 415.23 756.77 413.63 764.58 412.89 772.39 412.32 780.2 411.38 788.01 410.09 795.83 410.02" style="stroke-width:1.2;stroke:#4dd9ff;stroke-linecap:butt;fill:none;stroke-linejoin:round;stroke-miterlimit:10"/><circle cx="795.83" cy="16.58" r="3.8" style="stroke-width:1.2;stroke:#009147;fill:#009147;stroke-linecap:round;stroke-linejoin:round;stroke-miterlimit:10"/><circle cx="795.83" cy="264.69" r="3.8" style="stroke-width:1.2;stroke:#f49323;fill:#f49323;stroke-linecap:round;stroke-linejoin:round;stroke-miterlimit:10"/><circle cx="795.83" cy="287.43" r="3.8" style="stroke-width:1.2;stroke:#7f8182;fill:#7f8182;stroke-linecap:round;stroke-linejoin:round;stroke-miterlimit:10"/><circle cx="756.77" cy="312.45" r="3.8" style="stroke-width:1.2;fill:#000;stroke:#000;stroke-linecap:round;stroke-linejoin:round;stroke-miterlimit:10"/><circle cx="795.83" cy="326.84" r="3.8" style="stroke-width:1.2;stroke:#ed1f24;fill:#ed1f24;stroke-linecap:round;stroke-linejoin:round;stroke-miterlimit:10"/><circle cx="795.83" cy="356.04" r="3.8" style="stroke-width:1.2;stroke:#b9519e;fill:#b9519e;stroke-linecap:round;stroke-linejoin:round;stroke-miterlimit:10"/><circle cx="795.83" cy="410.02" r="3.8" style="stroke-width:1.2;stroke:#4dd9ff;fill:#4dd9ff;stroke-linecap:round;stroke-linejoin:round;stroke-miterlimit:10"/><polyline points="116.16 446.03 116.16 14.17" style="stroke-width:1.07;stroke:#464646;stroke-linecap:butt;fill:none;stroke-linejoin:round;stroke-miterlimit:10"/><text x="89.48" y="450.44" style="font-size:18px;font-family:Asap" textLength="9.63" lengthAdjust="spacingAndGlyphs">0</text><text x="57.03" y="364.07" style="font-size:18px;font-family:Asap" textLength="42.08" lengthAdjust="spacingAndGlyphs">5,000</text><text x="47.4" y="277.7" style="font-size:18px;font-family:Asap" textLength="51.71" lengthAdjust="spacingAndGlyphs">10,000</text><text x="47.4" y="191.33" style="font-size:18px;font-family:Asap" textLength="51.71" lengthAdjust="spacingAndGlyphs">15,000</text><text x="47.4" y="104.96" style="font-size:18px;font-family:Asap" textLength="51.71" lengthAdjust="spacingAndGlyphs">20,000</text><text x="47.4" y="18.58" style="font-size:18px;font-family:Asap" textLength="51.71" lengthAdjust="spacingAndGlyphs">25,000</text><polyline points="109.07 446.03 116.16 446.03" style="stroke-width:1.07;stroke:#464646;stroke-linecap:butt;fill:none;stroke-linejoin:round;stroke-miterlimit:10"/><polyline points="109.07 359.66 116.16 359.66" style="stroke-width:1.07;stroke:#464646;stroke-linecap:butt;fill:none;stroke-linejoin:round;stroke-miterlimit:10"/><polyline points="109.07 273.29 116.16 273.29" style="stroke-width:1.07;stroke:#464646;stroke-linecap:butt;fill:none;stroke-linejoin:round;stroke-miterlimit:10"/><polyline points="109.07 186.92 116.16 186.92" style="stroke-width:1.07;stroke:#464646;stroke-linecap:butt;fill:none;stroke-linejoin:round;stroke-miterlimit:10"/><polyline points="109.07 100.55 116.16 100.55" style="stroke-width:1.07;stroke:#464646;stroke-linecap:butt;fill:none;stroke-linejoin:round;stroke-miterlimit:10"/><polyline points="109.07 14.17 116.16 14.17" style="stroke-width:1.07;stroke:#464646;stroke-linecap:butt;fill:none;stroke-linejoin:round;stroke-miterlimit:10"/><polyline points="116.16 446.03 795.83 446.03" style="stroke-width:1.07;stroke:#464646;stroke-linecap:butt;fill:none;stroke-linejoin:round;stroke-miterlimit:10"/><polyline points="116.16 453.12 116.16 446.03" style="stroke-width:1.07;stroke:#464646;stroke-linecap:butt;fill:none;stroke-linejoin:round;stroke-miterlimit:10"/><polyline points="209.91 453.12 209.91 446.03" style="stroke-width:1.07;stroke:#464646;stroke-linecap:butt;fill:none;stroke-linejoin:round;stroke-miterlimit:10"/><polyline points="288.03 453.12 288.03 446.03" style="stroke-width:1.07;stroke:#464646;stroke-linecap:butt;fill:none;stroke-linejoin:round;stroke-miterlimit:10"/><polyline points="366.15 453.12 366.15 446.03" style="stroke-width:1.07;stroke:#464646;stroke-linecap:butt;fill:none;stroke-linejoin:round;stroke-miterlimit:10"/><polyline points="444.28 453.12 444.28 446.03" style="stroke-width:1.07;stroke:#464646;stroke-linecap:butt;fill:none;stroke-linejoin:round;stroke-miterlimit:10"/><polyline points="522.4 453.12 522.4 446.03" style="stroke-width:1.07;stroke:#464646;stroke-linecap:butt;fill:none;stroke-linejoin:round;stroke-miterlimit:10"/><polyline points="600.52 453.12 600.52 446.03" style="stroke-width:1.07;stroke:#464646;stroke-linecap:butt;fill:none;stroke-linejoin:round;stroke-miterlimit:10"/><polyline points="678.64 453.12 678.64 446.03" style="stroke-width:1.07;stroke:#464646;stroke-linecap:butt;fill:none;stroke-linejoin:round;stroke-miterlimit:10"/><polyline points="756.77 453.12 756.77 446.03" style="stroke-width:1.07;stroke:#464646;stroke-linecap:butt;fill:none;stroke-linejoin:round;stroke-miterlimit:10"/><polyline points="795.83 453.12 795.83 446.03" style="stroke-width:1.07;stroke:#464646;stroke-linecap:butt;fill:none;stroke-linejoin:round;stroke-miterlimit:10"/><text transform="rotate(-90 311.085 190.515)" style="font-size:18px;font-family:Asap" textLength="38.52" lengthAdjust="spacingAndGlyphs">1928</text><text transform="rotate(-90 357.96 143.64)" style="font-size:18px;font-family:Asap" textLength="38.52" lengthAdjust="spacingAndGlyphs">1940</text><text transform="rotate(-90 397.02 104.58)" style="font-size:18px;font-family:Asap" textLength="38.52" lengthAdjust="spacingAndGlyphs">1950</text><text transform="rotate(-90 436.08 65.52)" style="font-size:18px;font-family:Asap" textLength="38.52" lengthAdjust="spacingAndGlyphs">1960</text><text transform="rotate(-90 475.145 26.455)" style="font-size:18px;font-family:Asap" textLength="38.52" lengthAdjust="spacingAndGlyphs">1970</text><text transform="rotate(-90 514.205 -12.605)" style="font-size:18px;font-family:Asap" textLength="38.52" lengthAdjust="spacingAndGlyphs">1980</text><text transform="rotate(-90 553.265 -51.665)" style="font-size:18px;font-family:Asap" textLength="38.52" lengthAdjust="spacingAndGlyphs">1990</text><text transform="rotate(-90 592.325 -90.725)" style="font-size:18px;font-family:Asap" textLength="38.52" lengthAdjust="spacingAndGlyphs">2000</text><text transform="rotate(-90 631.39 -129.79)" style="font-size:18px;font-family:Asap" textLength="38.52" lengthAdjust="spacingAndGlyphs">2010</text><text transform="rotate(-90 650.92 -149.32)" style="font-size:18px;font-family:Asap" textLength="38.52" lengthAdjust="spacingAndGlyphs">2015</text><text x="435.9" y="530.59" style="font-size:20px;font-family:Asap Medium" textLength="40.18" lengthAdjust="spacingAndGlyphs">Year</text><text transform="rotate(-90 218.97 190.76)" style="font-size:20px;font-family:Asap Medium" textLength="52.04" lengthAdjust="spacingAndGlyphs">Living</text><text transform="rotate(-90 190.55 162.34)" style="font-size:20px;font-family:Asap Medium" textLength="86.22" lengthAdjust="spacingAndGlyphs">standards</text><text transform="rotate(-90 145.04 116.83)" style="font-size:20px;font-family:Asap Medium" textLength="44.76" lengthAdjust="spacingAndGlyphs">(GDP</text><text transform="rotate(-90 120.26 92.05)" style="font-size:20px;font-family:Asap Medium" textLength="29.56" lengthAdjust="spacingAndGlyphs">per</text><text transform="rotate(-90 103.08 74.87)" style="font-size:20px;font-family:Asap Medium" textLength="59.06" lengthAdjust="spacingAndGlyphs">capita,</text><text transform="rotate(-90 71.15 42.94)" style="font-size:20px;font-family:Asap Medium" textLength="42.8" lengthAdjust="spacingAndGlyphs">2011</text><text transform="rotate(-90 47.35 19.14)" style="font-size:20px;font-family:Asap Medium" textLength="16.02" lengthAdjust="spacingAndGlyphs">$)</text><rect x="440.73" y="39.61" width="220.84" height="173.69" style="stroke-width:1.07;stroke:none;fill:#fff;stroke-linecap:round;stroke-linejoin:round;stroke-miterlimit:10"/><line x1="459.15" y1="70.07" x2="493.17" y2="70.07" style="stroke-width:1.2;stroke:#009147;stroke-linecap:butt;fill:none;stroke-linejoin:round;stroke-miterlimit:10"/><circle cx="488.92" cy="70.07" r="4.27" style="stroke-width:.75;stroke:#009147;fill:#009147;stroke-linecap:round;stroke-linejoin:round;stroke-miterlimit:10"/><line x1="459.15" y1="91.67" x2="493.17" y2="91.67" style="stroke-width:1.2;stroke:#f49323;stroke-linecap:butt;fill:none;stroke-linejoin:round;stroke-miterlimit:10"/><circle cx="488.92" cy="91.67" r="4.27" style="stroke-width:.75;stroke:#f49323;fill:#f49323;stroke-linecap:round;stroke-linejoin:round;stroke-miterlimit:10"/><line x1="459.15" y1="113.27" x2="493.17" y2="113.27" style="stroke-width:1.2;stroke:#7f8182;stroke-linecap:butt;fill:none;stroke-linejoin:round;stroke-miterlimit:10"/><circle cx="488.92" cy="113.27" r="4.27" style="stroke-width:.75;stroke:#7f8182;fill:#7f8182;stroke-linecap:round;stroke-linejoin:round;stroke-miterlimit:10"/><line x1="459.15" y1="134.87" x2="493.17" y2="134.87" style="stroke-width:1.2;stroke-linecap:butt;fill:none;stroke:#000;stroke-linejoin:round;stroke-miterlimit:10"/><circle cx="488.92" cy="134.87" r="4.27" style="stroke-width:.75;fill:#000;stroke:#000;stroke-linecap:round;stroke-linejoin:round;stroke-miterlimit:10"/><line x1="459.15" y1="156.47" x2="493.17" y2="156.47" style="stroke-width:1.2;stroke:#ed1f24;stroke-linecap:butt;fill:none;stroke-linejoin:round;stroke-miterlimit:10"/><circle cx="488.92" cy="156.47" r="4.27" style="stroke-width:.75;stroke:#ed1f24;fill:#ed1f24;stroke-linecap:round;stroke-linejoin:round;stroke-miterlimit:10"/><line x1="459.15" y1="178.07" x2="493.17" y2="178.07" style="stroke-width:1.2;stroke:#b9519e;stroke-linecap:butt;fill:none;stroke-linejoin:round;stroke-miterlimit:10"/><circle cx="488.92" cy="178.07" r="4.27" style="stroke-width:.75;stroke:#b9519e;fill:#b9519e;stroke-linecap:round;stroke-linejoin:round;stroke-miterlimit:10"/><line x1="459.15" y1="199.67" x2="493.17" y2="199.67" style="stroke-width:1.2;stroke:#4dd9ff;stroke-linecap:butt;fill:none;stroke-linejoin:round;stroke-miterlimit:10"/><circle cx="488.92" cy="199.67" r="4.27" style="stroke-width:.75;stroke:#4dd9ff;fill:#4dd9ff;stroke-linecap:round;stroke-linejoin:round;stroke-miterlimit:10"/><text x="502.9" y="73.99" style="font-size:16px;font-family:Asap" textLength="40.53" lengthAdjust="spacingAndGlyphs">South</text><text x="547.27" y="73.99" style="font-size:16px;font-family:Asap" textLength="41.52" lengthAdjust="spacingAndGlyphs">Korea</text><text x="502.9" y="95.59" style="font-size:16px;font-family:Asap" textLength="69.28" lengthAdjust="spacingAndGlyphs">Argentina</text><text x="502.9" y="117.19" style="font-size:16px;font-family:Asap" textLength="53.76" lengthAdjust="spacingAndGlyphs">Russian</text><text x="560.5" y="117.19" style="font-size:16px;font-family:Asap" textLength="76.64" lengthAdjust="spacingAndGlyphs">Federation</text><text x="502.9" y="138.79" style="font-size:16px;font-family:Asap" textLength="51.06" lengthAdjust="spacingAndGlyphs">Former</text><text x="557.79" y="138.79" style="font-size:16px;font-family:Asap" textLength="43.2" lengthAdjust="spacingAndGlyphs">Soviet</text><text x="604.83" y="138.79" style="font-size:16px;font-family:Asap" textLength="42.56" lengthAdjust="spacingAndGlyphs">Union</text><text x="502.9" y="160.39" style="font-size:16px;font-family:Asap" textLength="40.88" lengthAdjust="spacingAndGlyphs">Brazil</text><text x="502.9" y="181.99" style="font-size:16px;font-family:Asap" textLength="68.98" lengthAdjust="spacingAndGlyphs">Botswana</text><text x="502.9" y="203.59" style="font-size:16px;font-family:Asap" textLength="51.92" lengthAdjust="spacingAndGlyphs">Nigeria</text></svg>