<svg xmlns="http://www.w3.org/2000/svg" version="1.1" style="font-family:Lato, &#x27;Helvetica Neue&#x27;, Helvetica, Arial, sans-serif;font-size:18px;background-color:white;text-rendering:geometricPrecision;-webkit-font-smoothing:antialiased" width="850" height="600" viewBox="0 0 850 600"><g class="HeaderView"><g transform="translate(774, 15) scale(0.29)"><svg className="owidLog" width="210" height="120" viewBox="0 0 210 120" fill="none" xmlns="http://www.w3.org/2000/svg">
<g clip-path="url(#clip0)">
  <path d="M0 0h210v107.89H0V0z" fill="#002147" />
  <path
    d="M40.98 32.25c0 2.36-.38 4.53-1.12 6.51a14.26 14.26 0 0 1-8.1 8.4c-1.9.78-4.02 1.17-6.34 1.17-2.31 0-4.42-.39-6.33-1.17a14.31 14.31 0 0 1-8.08-8.4 18.29 18.29 0 0 1-1.12-6.51c0-2.36.38-4.53 1.12-6.5.75-1.97 1.8-3.67 3.17-5.1a14.32 14.32 0 0 1 4.9-3.34c1.92-.8 4.03-1.19 6.34-1.19 2.32 0 4.43.4 6.34 1.19 1.92.8 3.56 1.9 4.93 3.34a14.87 14.87 0 0 1 3.17 5.1 18.1 18.1 0 0 1 1.12 6.5zm-4.38 0c0-1.94-.26-3.68-.8-5.22a10.91 10.91 0 0 0-2.24-3.89 9.68 9.68 0 0 0-3.52-2.46 11.95 11.95 0 0 0-4.62-.86c-1.68 0-3.21.28-4.6.86a9.88 9.88 0 0 0-3.54 2.46 10.91 10.91 0 0 0-2.24 3.9c-.53 1.53-.8 3.27-.8 5.2 0 1.94.27 3.68.8 5.22a11.17 11.17 0 0 0 2.24 3.9 10.01 10.01 0 0 0 3.55 2.44c1.38.56 2.9.83 4.6.83s3.24-.27 4.61-.83a9.8 9.8 0 0 0 3.52-2.44 11.17 11.17 0 0 0 2.25-3.9c.53-1.54.8-3.28.8-5.21zm26.22-6.54V48H60.5c-.56 0-.9-.27-1.05-.81l-.31-2.4a12.45 12.45 0 0 1-3.26 2.6c-1.2.64-2.58.96-4.13.96-1.22 0-2.3-.2-3.24-.6a6.52 6.52 0 0 1-2.33-1.7 7.37 7.37 0 0 1-1.43-2.67c-.3-1.04-.46-2.2-.46-3.45V25.7h3.91v14.22c0 1.68.38 2.99 1.15 3.91.77.93 1.96 1.39 3.54 1.39 1.16 0 2.24-.27 3.23-.82a10.42 10.42 0 0 0 2.8-2.28V25.7h3.91zm8.61 4.47a9.94 9.94 0 0 1 2.6-3.56 5.64 5.64 0 0 1 3.76-1.3c.47 0 .92.05 1.34.15.44.1.83.27 1.17.49l-.3 2.92c-.09.37-.3.55-.66.55-.2 0-.5-.04-.9-.13a6.21 6.21 0 0 0-3.24.18 4.23 4.23 0 0 0-1.47.92c-.42.4-.81.9-1.17 1.5-.33.58-.64 1.26-.92 2.02V48H67.7V25.71h2.25c.42 0 .72.08.88.25.16.16.27.44.33.83l.26 3.39zm61.16-13.7L122.75 48h-3.82l-7.99-24.05a21.95 21.95 0 0 1-.42-1.58 38.36 38.36 0 0 1-.44 1.58L102.05 48h-3.83L88.4 16.47h3.54c.38 0 .7.1.95.29.26.2.43.43.5.73l6.52 21.9.28 1.28.29 1.46.3-1.46.38-1.27 7.41-21.91c.1-.25.26-.48.51-.69.27-.22.58-.33.95-.33h1.23c.38 0 .69.1.92.29a1.77 1.77 0 0 1 .53.73l7.4 21.9a28.4 28.4 0 0 1 .68 2.62 29.52 29.52 0 0 1 .52-2.61l6.54-21.91a1.31 1.31 0 0 1 .48-.7c.27-.21.58-.32.95-.32h3.32zm9.35 8.88c1.63 0 3.1.27 4.4.82a9.43 9.43 0 0 1 5.46 5.94c.5 1.4.74 2.98.74 4.73 0 1.76-.25 3.34-.74 4.75a9.43 9.43 0 0 1-5.46 5.92c-1.3.52-2.77.79-4.4.79-1.64 0-3.12-.27-4.44-.8a9.42 9.42 0 0 1-3.35-2.3c-.92-1-1.63-2.2-2.13-3.61-.49-1.41-.73-3-.73-4.75s.24-3.33.73-4.73c.5-1.43 1.2-2.64 2.13-3.63.93-1 2.04-1.77 3.35-2.31 1.32-.55 2.8-.82 4.44-.82zm0 19.89c2.2 0 3.84-.73 4.93-2.2 1.08-1.48 1.63-3.54 1.63-6.18 0-2.66-.55-4.72-1.63-6.2-1.09-1.49-2.73-2.23-4.93-2.23-1.12 0-2.09.2-2.93.57a5.71 5.71 0 0 0-2.06 1.65c-.55.72-.96 1.61-1.24 2.67-.26 1.04-.4 2.22-.4 3.54 0 2.64.55 4.7 1.64 6.18 1.1 1.47 2.76 2.2 4.99 2.2zm17.97-15.07a9.94 9.94 0 0 1 2.6-3.56 5.64 5.64 0 0 1 3.76-1.3c.47 0 .91.05 1.34.15.44.1.83.27 1.16.49l-.28 2.92c-.09.37-.31.55-.66.55-.2 0-.5-.04-.9-.13a6.2 6.2 0 0 0-3.24.18 4.23 4.23 0 0 0-1.47.92c-.43.4-.82.9-1.17 1.5a13.1 13.1 0 0 0-.92 2.02V48h-3.94V25.71h2.24c.43 0 .72.08.88.25.17.16.28.44.33.83l.27 3.39zm15.04-14.59V48h-3.92V15.6h3.92zm19.55 15.43a6.22 6.22 0 0 0-2.38-2.05 6.7 6.7 0 0 0-2.86-.6c-2.07 0-3.66.75-4.77 2.23-1.12 1.48-1.68 3.6-1.68 6.33 0 1.46.13 2.7.38 3.74a7.29 7.29 0 0 0 1.1 2.56 4.35 4.35 0 0 0 1.78 1.45c.7.3 1.5.46 2.4.46 1.29 0 2.41-.3 3.36-.88a9.6 9.6 0 0 0 2.67-2.49V31.02zm3.91-15.43V48h-2.33c-.56 0-.9-.27-1.06-.81l-.35-2.71a12.13 12.13 0 0 1-3.25 2.77 8.28 8.28 0 0 1-4.23 1.06 7.31 7.31 0 0 1-6.14-2.9c-.73-.96-1.3-2.15-1.69-3.57a18.35 18.35 0 0 1 .07-9.48 11.29 11.29 0 0 1 1.89-3.7 8.7 8.7 0 0 1 7.06-3.34 7.96 7.96 0 0 1 6.12 2.62V15.59h3.91zM46.61 70.71V93H42.7V70.71h3.91zm.84-7c0 .39-.08.75-.24 1.09-.15.32-.35.61-.62.88-.25.25-.55.44-.9.59a2.67 2.67 0 0 1-2.16 0 2.9 2.9 0 0 1-1.45-1.47 2.67 2.67 0 0 1 0-2.16c.15-.35.35-.65.6-.9.25-.27.53-.47.85-.62a2.67 2.67 0 0 1 2.16 0c.35.15.65.35.9.62.27.25.47.55.62.9.16.34.24.7.24 1.08zm7.97 10.24c.49-.54 1-1.04 1.54-1.48a9.85 9.85 0 0 1 3.66-1.84 8.96 8.96 0 0 1 5.43.35c.94.4 1.72.97 2.33 1.71.63.74 1.11 1.62 1.43 2.67.32 1.04.49 2.19.49 3.45V93h-3.94V78.81c0-1.69-.4-3-1.17-3.92-.76-.93-1.93-1.4-3.5-1.4-1.15 0-2.24.27-3.25.83-1 .56-1.92 1.31-2.77 2.27V93h-3.94V70.71h2.35c.56 0 .9.28 1.04.82l.3 2.42zm57.7 3.3c0 2.36-.37 4.5-1.11 6.44a14.3 14.3 0 0 1-3.17 4.98c-1.37 1.37-3 2.45-4.93 3.2-1.9.76-4.02 1.13-6.33 1.13H85.8V61.47h11.77c2.31 0 4.42.39 6.33 1.15a13.8 13.8 0 0 1 8.1 8.18 17.75 17.75 0 0 1 1.12 6.45zm-4.37 0c0-1.94-.26-3.67-.8-5.2a10.94 10.94 0 0 0-2.23-3.87 9.57 9.57 0 0 0-3.53-2.42 12.23 12.23 0 0 0-4.61-.83h-7.5v24.62h7.5c1.7 0 3.24-.28 4.61-.84a9.7 9.7 0 0 0 3.53-2.4 10.94 10.94 0 0 0 2.24-3.87c.53-1.53.8-3.26.8-5.2zm19.8 5.72c-1.8.06-3.34.2-4.62.44-1.26.22-2.3.51-3.1.88-.8.36-1.37.8-1.74 1.3-.35.5-.53 1.05-.53 1.67 0 .58.1 1.1.3 1.52a3 3 0 0 0 .76 1.05c.34.27.73.46 1.17.6a6.13 6.13 0 0 0 1.45.17 7.28 7.28 0 0 0 3.5-.81 11.95 11.95 0 0 0 2.82-2.2v-4.62zm-12.65-9.11a12.73 12.73 0 0 1 3.98-2.66c1.43-.59 3-.88 4.73-.88 1.25 0 2.36.2 3.33.61a6.81 6.81 0 0 1 3.94 4.38c.33 1.04.5 2.19.5 3.43V93h-1.74a1.8 1.8 0 0 1-.88-.18c-.2-.13-.36-.38-.48-.74l-.44-2.12-1.72 1.46a9.48 9.48 0 0 1-3.74 1.7c-.69.15-1.46.23-2.3.23-.87 0-1.69-.12-2.45-.35a5.34 5.34 0 0 1-3.34-2.93 6.64 6.64 0 0 1-.49-2.64c0-.88.25-1.72.73-2.53a6.33 6.33 0 0 1 2.35-2.17c1.09-.63 2.5-1.15 4.25-1.54 1.75-.41 3.89-.65 6.42-.7v-1.75c0-1.73-.37-3.03-1.12-3.91-.75-.9-1.84-1.34-3.28-1.34-.97 0-1.78.12-2.44.37-.64.23-1.2.5-1.7.81l-1.23.82c-.33.23-.67.35-1 .35-.27 0-.5-.07-.69-.2a2.1 2.1 0 0 1-.48-.53l-.7-1.25zm27.67 19.5c-1.76 0-3.12-.5-4.07-1.48-.94-.98-1.41-2.4-1.41-4.25V74h-2.68a.9.9 0 0 1-.6-.2c-.16-.14-.24-.36-.24-.66v-1.56l3.65-.46.9-6.89c.05-.22.14-.4.29-.52a.88.88 0 0 1 .62-.22H142v7.67h6.44V74H142v13.38c0 .94.22 1.63.68 2.09.45.45 1.04.68 1.76.68a3.21 3.21 0 0 0 1.85-.53l.55-.35c.16-.12.3-.18.41-.18.2 0 .4.13.55.38l1.15 1.87a7.45 7.45 0 0 1-2.44 1.5 8.53 8.53 0 0 1-2.95.52zm19.68-10.4c-1.8.07-3.34.21-4.62.45-1.26.22-2.3.51-3.1.88-.8.36-1.37.8-1.74 1.3-.35.5-.53 1.05-.53 1.67 0 .58.1 1.1.3 1.52a2.9 2.9 0 0 0 .76 1.05c.34.27.73.46 1.17.6a6.13 6.13 0 0 0 1.45.17 7.3 7.3 0 0 0 3.5-.81 12.04 12.04 0 0 0 2.82-2.2v-4.62zm-12.65-9.1a12.72 12.72 0 0 1 3.99-2.66c1.42-.59 3-.88 4.72-.88 1.25 0 2.36.2 3.33.61a6.81 6.81 0 0 1 3.94 4.38c.33 1.04.5 2.19.5 3.43V93h-1.74a1.8 1.8 0 0 1-.88-.18c-.2-.13-.36-.38-.48-.74l-.44-2.12-1.72 1.46a9.48 9.48 0 0 1-3.74 1.7c-.69.15-1.46.23-2.3.23-.87 0-1.69-.12-2.45-.35a5.33 5.33 0 0 1-3.34-2.93 6.62 6.62 0 0 1-.49-2.64c0-.88.25-1.72.73-2.53a6.33 6.33 0 0 1 2.35-2.17c1.09-.63 2.5-1.15 4.25-1.54 1.74-.41 3.89-.65 6.42-.7v-1.75c0-1.73-.37-3.03-1.12-3.91-.75-.9-1.84-1.34-3.28-1.34-.97 0-1.78.12-2.44.37-.64.23-1.2.5-1.7.81l-1.22.82c-.34.23-.68.35-1.02.35-.26 0-.49-.07-.68-.2a1.88 1.88 0 0 1-.48-.53l-.7-1.25zM40.98 32.25c0 2.36-.38 4.53-1.12 6.51a14.26 14.26 0 0 1-8.1 8.4c-1.9.78-4.02 1.17-6.34 1.17-2.31 0-4.42-.39-6.33-1.17a14.31 14.31 0 0 1-8.08-8.4 18.29 18.29 0 0 1-1.12-6.51c0-2.36.38-4.53 1.12-6.5.75-1.97 1.8-3.67 3.17-5.1a14.32 14.32 0 0 1 4.9-3.34c1.92-.8 4.03-1.19 6.34-1.19 2.32 0 4.43.4 6.34 1.19 1.92.8 3.56 1.9 4.93 3.34a14.87 14.87 0 0 1 3.17 5.1 18.1 18.1 0 0 1 1.12 6.5zm-4.38 0c0-1.94-.26-3.68-.8-5.22a10.91 10.91 0 0 0-2.24-3.89 9.68 9.68 0 0 0-3.52-2.46 11.95 11.95 0 0 0-4.62-.86c-1.68 0-3.21.28-4.6.86a9.88 9.88 0 0 0-3.54 2.46 10.91 10.91 0 0 0-2.24 3.9c-.53 1.53-.8 3.27-.8 5.2 0 1.94.27 3.68.8 5.22a11.17 11.17 0 0 0 2.24 3.9 10.01 10.01 0 0 0 3.55 2.44c1.38.56 2.9.83 4.6.83s3.24-.27 4.61-.83a9.8 9.8 0 0 0 3.52-2.44 11.17 11.17 0 0 0 2.25-3.9c.53-1.54.8-3.28.8-5.21zm26.22-6.54V48H60.5c-.56 0-.9-.27-1.05-.81l-.31-2.4a12.45 12.45 0 0 1-3.26 2.6c-1.2.64-2.58.96-4.13.96-1.22 0-2.3-.2-3.24-.6a6.52 6.52 0 0 1-2.33-1.7 7.37 7.37 0 0 1-1.43-2.67c-.3-1.04-.46-2.2-.46-3.45V25.7h3.91v14.22c0 1.68.38 2.99 1.15 3.91.77.93 1.96 1.39 3.54 1.39 1.16 0 2.24-.27 3.23-.82a10.42 10.42 0 0 0 2.8-2.28V25.7h3.91zm8.61 4.47a9.94 9.94 0 0 1 2.6-3.56 5.64 5.64 0 0 1 3.76-1.3c.47 0 .92.05 1.34.15.44.1.83.27 1.17.49l-.3 2.92c-.09.37-.3.55-.66.55-.2 0-.5-.04-.9-.13a6.21 6.21 0 0 0-3.24.18 4.23 4.23 0 0 0-1.47.92c-.42.4-.81.9-1.17 1.5-.33.58-.64 1.26-.92 2.02V48H67.7V25.71h2.25c.42 0 .72.08.88.25.16.16.27.44.33.83l.26 3.39zm61.16-13.7L122.75 48h-3.82l-7.99-24.05a21.95 21.95 0 0 1-.42-1.58 38.36 38.36 0 0 1-.44 1.58L102.05 48h-3.83L88.4 16.47h3.54c.38 0 .7.1.95.29.26.2.43.43.5.73l6.52 21.9.28 1.28.29 1.46.3-1.46.38-1.27 7.41-21.91c.1-.25.26-.48.51-.69.27-.22.58-.33.95-.33h1.23c.38 0 .69.1.92.29a1.77 1.77 0 0 1 .53.73l7.4 21.9a28.4 28.4 0 0 1 .68 2.62 29.52 29.52 0 0 1 .52-2.61l6.54-21.91a1.31 1.31 0 0 1 .48-.7c.27-.21.58-.32.95-.32h3.32zm9.35 8.88c1.63 0 3.1.27 4.4.82a9.43 9.43 0 0 1 5.46 5.94c.5 1.4.74 2.98.74 4.73 0 1.76-.25 3.34-.74 4.75a9.43 9.43 0 0 1-5.46 5.92c-1.3.52-2.77.79-4.4.79-1.64 0-3.12-.27-4.44-.8a9.42 9.42 0 0 1-3.35-2.3c-.92-1-1.63-2.2-2.13-3.61-.49-1.41-.73-3-.73-4.75s.24-3.33.73-4.73c.5-1.43 1.2-2.64 2.13-3.63.93-1 2.04-1.77 3.35-2.31 1.32-.55 2.8-.82 4.44-.82zm0 19.89c2.2 0 3.84-.73 4.93-2.2 1.08-1.48 1.63-3.54 1.63-6.18 0-2.66-.55-4.72-1.63-6.2-1.09-1.49-2.73-2.23-4.93-2.23-1.12 0-2.09.2-2.93.57a5.71 5.71 0 0 0-2.06 1.65c-.55.72-.96 1.61-1.24 2.67-.26 1.04-.4 2.22-.4 3.54 0 2.64.55 4.7 1.64 6.18 1.1 1.47 2.76 2.2 4.99 2.2zm17.97-15.07a9.94 9.94 0 0 1 2.6-3.56 5.64 5.64 0 0 1 3.76-1.3c.47 0 .91.05 1.34.15.44.1.83.27 1.16.49l-.28 2.92c-.09.37-.31.55-.66.55-.2 0-.5-.04-.9-.13a6.2 6.2 0 0 0-3.24.18 4.23 4.23 0 0 0-1.47.92c-.43.4-.82.9-1.17 1.5a13.1 13.1 0 0 0-.92 2.02V48h-3.94V25.71h2.24c.43 0 .72.08.88.25.17.16.28.44.33.83l.27 3.39zm15.04-14.59V48h-3.92V15.6h3.92zm19.55 15.43a6.22 6.22 0 0 0-2.38-2.05 6.7 6.7 0 0 0-2.86-.6c-2.07 0-3.66.75-4.77 2.23-1.12 1.48-1.68 3.6-1.68 6.33 0 1.46.13 2.7.38 3.74a7.29 7.29 0 0 0 1.1 2.56 4.35 4.35 0 0 0 1.78 1.45c.7.3 1.5.46 2.4.46 1.29 0 2.41-.3 3.36-.88a9.6 9.6 0 0 0 2.67-2.49V31.02zm3.91-15.43V48h-2.33c-.56 0-.9-.27-1.06-.81l-.35-2.71a12.13 12.13 0 0 1-3.25 2.77 8.28 8.28 0 0 1-4.23 1.06 7.31 7.31 0 0 1-6.14-2.9c-.73-.96-1.3-2.15-1.69-3.57a18.35 18.35 0 0 1 .07-9.48 11.29 11.29 0 0 1 1.89-3.7 8.7 8.7 0 0 1 7.06-3.34 7.96 7.96 0 0 1 6.12 2.62V15.59h3.91zM46.61 70.71V93H42.7V70.71h3.91zm.84-7c0 .39-.08.75-.24 1.09-.15.32-.35.61-.62.88-.25.25-.55.44-.9.59a2.67 2.67 0 0 1-2.16 0 2.9 2.9 0 0 1-1.45-1.47 2.67 2.67 0 0 1 0-2.16c.15-.35.35-.65.6-.9.25-.27.53-.47.85-.62a2.67 2.67 0 0 1 2.16 0c.35.15.65.35.9.62.27.25.47.55.62.9.16.34.24.7.24 1.08zm7.97 10.24c.49-.54 1-1.04 1.54-1.48a9.85 9.85 0 0 1 3.66-1.84 8.96 8.96 0 0 1 5.43.35c.94.4 1.72.97 2.33 1.71.63.74 1.11 1.62 1.43 2.67.32 1.04.49 2.19.49 3.45V93h-3.94V78.81c0-1.69-.4-3-1.17-3.92-.76-.93-1.93-1.4-3.5-1.4-1.15 0-2.24.27-3.25.83-1 .56-1.92 1.31-2.77 2.27V93h-3.94V70.71h2.35c.56 0 .9.28 1.04.82l.3 2.42zm57.7 3.3c0 2.36-.37 4.5-1.11 6.44a14.3 14.3 0 0 1-3.17 4.98c-1.37 1.37-3 2.45-4.93 3.2-1.9.76-4.02 1.13-6.33 1.13H85.8V61.47h11.77c2.31 0 4.42.39 6.33 1.15a13.8 13.8 0 0 1 8.1 8.18 17.75 17.75 0 0 1 1.12 6.45zm-4.37 0c0-1.94-.26-3.67-.8-5.2a10.94 10.94 0 0 0-2.23-3.87 9.57 9.57 0 0 0-3.53-2.42 12.23 12.23 0 0 0-4.61-.83h-7.5v24.62h7.5c1.7 0 3.24-.28 4.61-.84a9.7 9.7 0 0 0 3.53-2.4 10.94 10.94 0 0 0 2.24-3.87c.53-1.53.8-3.26.8-5.2zm19.8 5.72c-1.8.06-3.34.2-4.62.44-1.26.22-2.3.51-3.1.88-.8.36-1.37.8-1.74 1.3-.35.5-.53 1.05-.53 1.67 0 .58.1 1.1.3 1.52a3 3 0 0 0 .76 1.05c.34.27.73.46 1.17.6a6.13 6.13 0 0 0 1.45.17 7.28 7.28 0 0 0 3.5-.81 11.95 11.95 0 0 0 2.82-2.2v-4.62zm-12.65-9.11a12.73 12.73 0 0 1 3.98-2.66c1.43-.59 3-.88 4.73-.88 1.25 0 2.36.2 3.33.61a6.81 6.81 0 0 1 3.94 4.38c.33 1.04.5 2.19.5 3.43V93h-1.74a1.8 1.8 0 0 1-.88-.18c-.2-.13-.36-.38-.48-.74l-.44-2.12-1.72 1.46a9.48 9.48 0 0 1-3.74 1.7c-.69.15-1.46.23-2.3.23-.87 0-1.69-.12-2.45-.35a5.34 5.34 0 0 1-3.34-2.93 6.64 6.64 0 0 1-.49-2.64c0-.88.25-1.72.73-2.53a6.33 6.33 0 0 1 2.35-2.17c1.09-.63 2.5-1.15 4.25-1.54 1.75-.41 3.89-.65 6.42-.7v-1.75c0-1.73-.37-3.03-1.12-3.91-.75-.9-1.84-1.34-3.28-1.34-.97 0-1.78.12-2.44.37-.64.23-1.2.5-1.7.81l-1.23.82c-.33.23-.67.35-1 .35-.27 0-.5-.07-.69-.2a2.1 2.1 0 0 1-.48-.53l-.7-1.25zm27.67 19.5c-1.76 0-3.12-.5-4.07-1.48-.94-.98-1.41-2.4-1.41-4.25V74h-2.68a.9.9 0 0 1-.6-.2c-.16-.14-.24-.36-.24-.66v-1.56l3.65-.46.9-6.89c.05-.22.14-.4.29-.52a.88.88 0 0 1 .62-.22H142v7.67h6.44V74H142v13.38c0 .94.22 1.63.68 2.09.45.45 1.04.68 1.76.68a3.21 3.21 0 0 0 1.85-.53l.55-.35c.16-.12.3-.18.41-.18.2 0 .4.13.55.38l1.15 1.87a7.45 7.45 0 0 1-2.44 1.5 8.53 8.53 0 0 1-2.95.52zm19.68-10.4c-1.8.07-3.34.21-4.62.45-1.26.22-2.3.51-3.1.88-.8.36-1.37.8-1.74 1.3-.35.5-.53 1.05-.53 1.67 0 .58.1 1.1.3 1.52a2.9 2.9 0 0 0 .76 1.05c.34.27.73.46 1.17.6a6.13 6.13 0 0 0 1.45.17 7.3 7.3 0 0 0 3.5-.81 12.04 12.04 0 0 0 2.82-2.2v-4.62zm-12.65-9.1a12.72 12.72 0 0 1 3.99-2.66c1.42-.59 3-.88 4.72-.88 1.25 0 2.36.2 3.33.61a6.81 6.81 0 0 1 3.94 4.38c.33 1.04.5 2.19.5 3.43V93h-1.74a1.8 1.8 0 0 1-.88-.18c-.2-.13-.36-.38-.48-.74l-.44-2.12-1.72 1.46a9.48 9.48 0 0 1-3.74 1.7c-.69.15-1.46.23-2.3.23-.87 0-1.69-.12-2.45-.35a5.33 5.33 0 0 1-3.34-2.93 6.62 6.62 0 0 1-.49-2.64c0-.88.25-1.72.73-2.53a6.33 6.33 0 0 1 2.35-2.17c1.09-.63 2.5-1.15 4.25-1.54 1.74-.41 3.89-.65 6.42-.7v-1.75c0-1.73-.37-3.03-1.12-3.91-.75-.9-1.84-1.34-3.28-1.34-.97 0-1.78.12-2.44.37-.64.23-1.2.5-1.7.81l-1.22.82c-.34.23-.68.35-1.02.35-.26 0-.49-.07-.68-.2a1.88 1.88 0 0 1-.48-.53l-.7-1.25zM40.98 32.25c0 2.36-.38 4.53-1.12 6.51a14.26 14.26 0 0 1-8.1 8.4c-1.9.78-4.02 1.17-6.34 1.17-2.31 0-4.42-.39-6.33-1.17a14.31 14.31 0 0 1-8.08-8.4 18.29 18.29 0 0 1-1.12-6.51c0-2.36.38-4.53 1.12-6.5.75-1.97 1.8-3.67 3.17-5.1a14.32 14.32 0 0 1 4.9-3.34c1.92-.8 4.03-1.19 6.34-1.19 2.32 0 4.43.4 6.34 1.19 1.92.8 3.56 1.9 4.93 3.34a14.87 14.87 0 0 1 3.17 5.1 18.1 18.1 0 0 1 1.12 6.5zm-4.38 0c0-1.94-.26-3.68-.8-5.22a10.91 10.91 0 0 0-2.24-3.89 9.68 9.68 0 0 0-3.52-2.46 11.95 11.95 0 0 0-4.62-.86c-1.68 0-3.21.28-4.6.86a9.88 9.88 0 0 0-3.54 2.46 10.91 10.91 0 0 0-2.24 3.9c-.53 1.53-.8 3.27-.8 5.2 0 1.94.27 3.68.8 5.22a11.17 11.17 0 0 0 2.24 3.9 10.01 10.01 0 0 0 3.55 2.44c1.38.56 2.9.83 4.6.83s3.24-.27 4.61-.83a9.8 9.8 0 0 0 3.52-2.44 11.17 11.17 0 0 0 2.25-3.9c.53-1.54.8-3.28.8-5.21zm26.22-6.54V48H60.5c-.56 0-.9-.27-1.05-.81l-.31-2.4a12.45 12.45 0 0 1-3.26 2.6c-1.2.64-2.58.96-4.13.96-1.22 0-2.3-.2-3.24-.6a6.52 6.52 0 0 1-2.33-1.7 7.37 7.37 0 0 1-1.43-2.67c-.3-1.04-.46-2.2-.46-3.45V25.7h3.91v14.22c0 1.68.38 2.99 1.15 3.91.77.93 1.96 1.39 3.54 1.39 1.16 0 2.24-.27 3.23-.82a10.42 10.42 0 0 0 2.8-2.28V25.7h3.91zm8.61 4.47a9.94 9.94 0 0 1 2.6-3.56 5.64 5.64 0 0 1 3.76-1.3c.47 0 .92.05 1.34.15.44.1.83.27 1.17.49l-.3 2.92c-.09.37-.3.55-.66.55-.2 0-.5-.04-.9-.13a6.21 6.21 0 0 0-3.24.18 4.23 4.23 0 0 0-1.47.92c-.42.4-.81.9-1.17 1.5-.33.58-.64 1.26-.92 2.02V48H67.7V25.71h2.25c.42 0 .72.08.88.25.16.16.27.44.33.83l.26 3.39zm61.16-13.7L122.75 48h-3.82l-7.99-24.05a21.95 21.95 0 0 1-.42-1.58 38.36 38.36 0 0 1-.44 1.58L102.05 48h-3.83L88.4 16.47h3.54c.38 0 .7.1.95.29.26.2.43.43.5.73l6.52 21.9.28 1.28.29 1.46.3-1.46.38-1.27 7.41-21.91c.1-.25.26-.48.51-.69.27-.22.58-.33.95-.33h1.23c.38 0 .69.1.92.29a1.77 1.77 0 0 1 .53.73l7.4 21.9a28.4 28.4 0 0 1 .68 2.62 29.52 29.52 0 0 1 .52-2.61l6.54-21.91a1.31 1.31 0 0 1 .48-.7c.27-.21.58-.32.95-.32h3.32zm9.35 8.88c1.63 0 3.1.27 4.4.82a9.43 9.43 0 0 1 5.46 5.94c.5 1.4.74 2.98.74 4.73 0 1.76-.25 3.34-.74 4.75a9.43 9.43 0 0 1-5.46 5.92c-1.3.52-2.77.79-4.4.79-1.64 0-3.12-.27-4.44-.8a9.42 9.42 0 0 1-3.35-2.3c-.92-1-1.63-2.2-2.13-3.61-.49-1.41-.73-3-.73-4.75s.24-3.33.73-4.73c.5-1.43 1.2-2.64 2.13-3.63.93-1 2.04-1.77 3.35-2.31 1.32-.55 2.8-.82 4.44-.82zm0 19.89c2.2 0 3.84-.73 4.93-2.2 1.08-1.48 1.63-3.54 1.63-6.18 0-2.66-.55-4.72-1.63-6.2-1.09-1.49-2.73-2.23-4.93-2.23-1.12 0-2.09.2-2.93.57a5.71 5.71 0 0 0-2.06 1.65c-.55.72-.96 1.61-1.24 2.67-.26 1.04-.4 2.22-.4 3.54 0 2.64.55 4.7 1.64 6.18 1.1 1.47 2.76 2.2 4.99 2.2zm17.97-15.07a9.94 9.94 0 0 1 2.6-3.56 5.64 5.64 0 0 1 3.76-1.3c.47 0 .91.05 1.34.15.44.1.83.27 1.16.49l-.28 2.92c-.09.37-.31.55-.66.55-.2 0-.5-.04-.9-.13a6.2 6.2 0 0 0-3.24.18 4.23 4.23 0 0 0-1.47.92c-.43.4-.82.9-1.17 1.5a13.1 13.1 0 0 0-.92 2.02V48h-3.94V25.71h2.24c.43 0 .72.08.88.25.17.16.28.44.33.83l.27 3.39zm15.04-14.59V48h-3.92V15.6h3.92zm19.55 15.43a6.22 6.22 0 0 0-2.38-2.05 6.7 6.7 0 0 0-2.86-.6c-2.07 0-3.66.75-4.77 2.23-1.12 1.48-1.68 3.6-1.68 6.33 0 1.46.13 2.7.38 3.74a7.29 7.29 0 0 0 1.1 2.56 4.35 4.35 0 0 0 1.78 1.45c.7.3 1.5.46 2.4.46 1.29 0 2.41-.3 3.36-.88a9.6 9.6 0 0 0 2.67-2.49V31.02zm3.91-15.43V48h-2.33c-.56 0-.9-.27-1.06-.81l-.35-2.71a12.13 12.13 0 0 1-3.25 2.77 8.28 8.28 0 0 1-4.23 1.06 7.31 7.31 0 0 1-6.14-2.9c-.73-.96-1.3-2.15-1.69-3.57a18.35 18.35 0 0 1 .07-9.48 11.29 11.29 0 0 1 1.89-3.7 8.7 8.7 0 0 1 7.06-3.34 7.96 7.96 0 0 1 6.12 2.62V15.59h3.91zM46.61 70.71V93H42.7V70.71h3.91zm.84-7c0 .39-.08.75-.24 1.09-.15.32-.35.61-.62.88-.25.25-.55.44-.9.59a2.67 2.67 0 0 1-2.16 0 2.9 2.9 0 0 1-1.45-1.47 2.67 2.67 0 0 1 0-2.16c.15-.35.35-.65.6-.9.25-.27.53-.47.85-.62a2.67 2.67 0 0 1 2.16 0c.35.15.65.35.9.62.27.25.47.55.62.9.16.34.24.7.24 1.08zm7.97 10.24c.49-.54 1-1.04 1.54-1.48a9.85 9.85 0 0 1 3.66-1.84 8.96 8.96 0 0 1 5.43.35c.94.4 1.72.97 2.33 1.71.63.74 1.11 1.62 1.43 2.67.32 1.04.49 2.19.49 3.45V93h-3.94V78.81c0-1.69-.4-3-1.17-3.92-.76-.93-1.93-1.4-3.5-1.4-1.15 0-2.24.27-3.25.83-1 .56-1.92 1.31-2.77 2.27V93h-3.94V70.71h2.35c.56 0 .9.28 1.04.82l.3 2.42zm57.7 3.3c0 2.36-.37 4.5-1.11 6.44a14.3 14.3 0 0 1-3.17 4.98c-1.37 1.37-3 2.45-4.93 3.2-1.9.76-4.02 1.13-6.33 1.13H85.8V61.47h11.77c2.31 0 4.42.39 6.33 1.15a13.8 13.8 0 0 1 8.1 8.18 17.75 17.75 0 0 1 1.12 6.45zm-4.37 0c0-1.94-.26-3.67-.8-5.2a10.94 10.94 0 0 0-2.23-3.87 9.57 9.57 0 0 0-3.53-2.42 12.23 12.23 0 0 0-4.61-.83h-7.5v24.62h7.5c1.7 0 3.24-.28 4.61-.84a9.7 9.7 0 0 0 3.53-2.4 10.94 10.94 0 0 0 2.24-3.87c.53-1.53.8-3.26.8-5.2zm19.8 5.72c-1.8.06-3.34.2-4.62.44-1.26.22-2.3.51-3.1.88-.8.36-1.37.8-1.74 1.3-.35.5-.53 1.05-.53 1.67 0 .58.1 1.1.3 1.52a3 3 0 0 0 .76 1.05c.34.27.73.46 1.17.6a6.13 6.13 0 0 0 1.45.17 7.28 7.28 0 0 0 3.5-.81 11.95 11.95 0 0 0 2.82-2.2v-4.62zm-12.65-9.11a12.73 12.73 0 0 1 3.98-2.66c1.43-.59 3-.88 4.73-.88 1.25 0 2.36.2 3.33.61a6.81 6.81 0 0 1 3.94 4.38c.33 1.04.5 2.19.5 3.43V93h-1.74a1.8 1.8 0 0 1-.88-.18c-.2-.13-.36-.38-.48-.74l-.44-2.12-1.72 1.46a9.48 9.48 0 0 1-3.74 1.7c-.69.15-1.46.23-2.3.23-.87 0-1.69-.12-2.45-.35a5.34 5.34 0 0 1-3.34-2.93 6.64 6.64 0 0 1-.49-2.64c0-.88.25-1.72.73-2.53a6.33 6.33 0 0 1 2.35-2.17c1.09-.63 2.5-1.15 4.25-1.54 1.75-.41 3.89-.65 6.42-.7v-1.75c0-1.73-.37-3.03-1.12-3.91-.75-.9-1.84-1.34-3.28-1.34-.97 0-1.78.12-2.44.37-.64.23-1.2.5-1.7.81l-1.23.82c-.33.23-.67.35-1 .35-.27 0-.5-.07-.69-.2a2.1 2.1 0 0 1-.48-.53l-.7-1.25zm27.67 19.5c-1.76 0-3.12-.5-4.07-1.48-.94-.98-1.41-2.4-1.41-4.25V74h-2.68a.9.9 0 0 1-.6-.2c-.16-.14-.24-.36-.24-.66v-1.56l3.65-.46.9-6.89c.05-.22.14-.4.29-.52a.88.88 0 0 1 .62-.22H142v7.67h6.44V74H142v13.38c0 .94.22 1.63.68 2.09.45.45 1.04.68 1.76.68a3.21 3.21 0 0 0 1.85-.53l.55-.35c.16-.12.3-.18.41-.18.2 0 .4.13.55.38l1.15 1.87a7.45 7.45 0 0 1-2.44 1.5 8.53 8.53 0 0 1-2.95.52zm19.68-10.4c-1.8.07-3.34.21-4.62.45-1.26.22-2.3.51-3.1.88-.8.36-1.37.8-1.74 1.3-.35.5-.53 1.05-.53 1.67 0 .58.1 1.1.3 1.52a2.9 2.9 0 0 0 .76 1.05c.34.27.73.46 1.17.6a6.13 6.13 0 0 0 1.45.17 7.3 7.3 0 0 0 3.5-.81 12.04 12.04 0 0 0 2.82-2.2v-4.62zm-12.65-9.1a12.72 12.72 0 0 1 3.99-2.66c1.42-.59 3-.88 4.72-.88 1.25 0 2.36.2 3.33.61a6.81 6.81 0 0 1 3.94 4.38c.33 1.04.5 2.19.5 3.43V93h-1.74a1.8 1.8 0 0 1-.88-.18c-.2-.13-.36-.38-.48-.74l-.44-2.12-1.72 1.46a9.48 9.48 0 0 1-3.74 1.7c-.69.15-1.46.23-2.3.23-.87 0-1.69-.12-2.45-.35a5.33 5.33 0 0 1-3.34-2.93 6.62 6.62 0 0 1-.49-2.64c0-.88.25-1.72.73-2.53a6.33 6.33 0 0 1 2.35-2.17c1.09-.63 2.5-1.15 4.25-1.54 1.74-.41 3.89-.65 6.42-.7v-1.75c0-1.73-.37-3.03-1.12-3.91-.75-.9-1.84-1.34-3.28-1.34-.97 0-1.78.12-2.44.37-.64.23-1.2.5-1.7.81l-1.22.82c-.34.23-.68.35-1.02.35-.26 0-.49-.07-.68-.2a1.88 1.88 0 0 1-.48-.53l-.7-1.25z"
    fill="#fff"
  />
  <path fill="#D42B21" d="M0 106.79h210V120H0z" />
</g>
<defs>
  <clipPath id="clip0"><path fill="#fff" d="M0 0h210v120H0z" /></clipPath>
</defs>
</svg></g><a href="https://ourworldindata.org/grapher/gdp-per-capita-maddison-2020?stackMode=relative&amp;time=1000..2018&amp;country=USA~CHN~FRA~IND~MEX~BRA" style="font-family:&quot;Playfair Display&quot;, Georgia, &quot;Times New Roman&quot;, serif" target="_blank" rel="noopener"><text font-size="25.20" x="15.0" y="35.2" fill="#555"><tspan x="15" y="35.160000000000004">Change in GDP per capita, 1000 to 2018</tspan></text></a><text font-size="14.40" x="15.0" y="55.7" fill="#666"><tspan x="15" y="55.72">GDP per capita adjusted for price changes over time (inflation) and price differences between countries – it is</tspan><tspan x="15" y="73">measured in international-$ in 2011 prices.</tspan></text></g><g class="LineChart"><defs><clipPath id="boundsClip-11"><rect x="74.638" y="82.2" width="840" height="475.2"></rect></clipPath></defs><g class="DualAxisView"><g class="HorizontalAxis"><line x1="84.6" y1="526.2" x2="84.6" y2="531.2" stroke="#999"></line><line x1="718.6" y1="526.2" x2="718.6" y2="531.2" stroke="#999"></line><line x1="209.2" y1="526.2" x2="209.2" y2="531.2" stroke="#999"></line><line x1="333.7" y1="526.2" x2="333.7" y2="531.2" stroke="#999"></line><line x1="458.3" y1="526.2" x2="458.3" y2="531.2" stroke="#999"></line><line x1="582.8" y1="526.2" x2="582.8" y2="531.2" stroke="#999"></line><text x="84.638" y="547.4" fill="#666" text-anchor="start" font-size="16.2">1000</text><text x="718.595" y="547.4" fill="#666" text-anchor="end" font-size="16.2">2018</text><text x="209.2" y="547.4" fill="#666" text-anchor="middle" font-size="16.2">1200</text><text x="333.7" y="547.4" fill="#666" text-anchor="middle" font-size="16.2">1400</text><text x="458.3" y="547.4" fill="#666" text-anchor="middle" font-size="16.2">1600</text><text x="582.8" y="547.4" fill="#666" text-anchor="middle" font-size="16.2">1800</text></g><g class="VerticalAxis"><text x="79.64" y="523.7" dy=".32em" text-anchor="end" fill="#666" font-size="16.2">+0%</text><text x="79.64" y="452.6" dy=".32em" text-anchor="end" fill="#666" font-size="16.2">+1,000%</text><text x="79.64" y="381.5" dy=".32em" text-anchor="end" fill="#666" font-size="16.2">+2,000%</text><text x="79.64" y="310.4" dy=".32em" text-anchor="end" fill="#666" font-size="16.2">+3,000%</text><text x="79.64" y="239.3" dy=".32em" text-anchor="end" fill="#666" font-size="16.2">+4,000%</text><text x="79.64" y="168.2" dy=".32em" text-anchor="end" fill="#666" font-size="16.2">+5,000%</text><text x="79.64" y="97.1" dy=".32em" text-anchor="end" fill="#666" font-size="16.2">+6,000%</text></g><g class="AxisGridLines horizontalLines"><line x1="84.64" y1="523.7" x2="718.60" y2="523.7" stroke="#999"></line><line x1="84.64" y1="452.6" x2="718.60" y2="452.6" stroke="#ddd" stroke-dasharray="3,2"></line><line x1="84.64" y1="381.5" x2="718.60" y2="381.5" stroke="#ddd" stroke-dasharray="3,2"></line><line x1="84.64" y1="310.4" x2="718.60" y2="310.4" stroke="#ddd" stroke-dasharray="3,2"></line><line x1="84.64" y1="239.3" x2="718.60" y2="239.3" stroke="#ddd" stroke-dasharray="3,2"></line><line x1="84.64" y1="168.2" x2="718.60" y2="168.2" stroke="#ddd" stroke-dasharray="3,2"></line><line x1="84.64" y1="97.1" x2="718.60" y2="97.1" stroke="#ddd" stroke-dasharray="3,2"></line></g></g><g clip-path="url(#boundsClip-11)"><g class="LineLabels" style="cursor:default"><g class="legendMark"><rect x="718.595" y="92.2" width="116.405" height="13.5" fill="#fff" opacity="0"></rect><text font-size="13.50" font-weight="400" x="722.6" y="103.0" fill="#00847e"><tspan x="722.595" y="103">United States</tspan></text></g><g class="legendMark"><rect x="718.595" y="310.5" width="77.12" height="13.5" fill="#fff" opacity="0"></rect><text font-size="13.50" font-weight="400" x="722.6" y="321.3" fill="#c05917"><tspan x="722.595" y="321.3">France</tspan></text></g><g class="legendMark"><rect x="718.595" y="326" width="77.795" height="13.5" fill="#fff" opacity="0"></rect><text font-size="13.50" font-weight="400" x="722.6" y="336.8" fill="#287669"><tspan x="722.595" y="336.8">Mexico</tspan></text></g><g class="legendMark"><rect x="718.595" y="408.95" width="68.75" height="13.5" fill="#fff" opacity="0"></rect><text font-size="13.50" font-weight="400" x="722.6" y="419.8" fill="#cd2285"><tspan x="722.595" y="419.75">Brazil</tspan></text></g><g class="legendMark"><rect x="718.595" y="448.05" width="70.37" height="13.5" fill="#fff" opacity="0"></rect><text font-size="13.50" font-weight="400" x="722.6" y="458.9" fill="#3c4e66"><tspan x="722.595" y="458.85">China</tspan></text></g><g class="legendMark"><rect x="718.595" y="485.75" width="64.43" height="13.5" fill="#fff" opacity="0"></rect><text font-size="13.50" font-weight="400" x="722.6" y="496.6" fill="#d73c50"><tspan x="722.595" y="496.55">India</tspan></text></g></g><g class="Lines"><rect x="85" y="92" width="634" height="434" fill="rgba(255,255,255,0)" opacity="0"></rect><g><path stroke-linecap="round" stroke-linejoin="round" stroke="#ddd" d="M582.8 523.7L595.3 523.7L614 523.7L614.6 523.2L615.2 523.4L615.8 523.9L616.5 524.1L617.1 524.1L617.7 523.8L618.3 523.3L619 522.8L619.6 522.9L620.2 522.7L620.8 522.8L621.4 523.2L622.1 523L622.7 522.9L623.3 522.3L623.9 522L624.6 521.2L625.2 521.2L625.8 521.2L626.4 521.9L627.1 521.9L627.7 521.6L628.3 521.9L628.9 521.8L629.5 521.6L630.2 522L630.8 522.2L631.4 521.8L632 521.7L632.7 522.2L633.3 522.1L633.9 521.9L634.5 522.1L635.1 521.5L635.8 522.2L636.4 521.9L637 522.5L637.6 522.8L638.3 522.7L638.9 521.9L639.5 521.4L640.1 522.6L640.8 523.9L641.4 523.9L642 522.6L642.6 523.3L643.2 523.4L643.9 523.3L644.5 523.4L645.1 523.7L645.7 523.1L646.4 523.3L647 523.3L647.6 523.3L648.2 523.3L648.8 522.7L649.5 522.9L650.1 523.1L650.7 522.6L651.3 522.7L652 522L652.6 522.3L653.2 522.3L653.8 522.6L654.5 522.4L655.1 522.3L655.7 521.9L656.3 522.3L656.9 521.4L657.6 520.7L658.2 520.7L658.8 520.2L659.4 519.8L660.1 520L660.7 520.2L661.3 520.2L661.9 519.6L662.5 518.6L663.2 518.8L663.8 519.8L664.4 520.2L665 520.1L665.7 519.5L666.3 518.8L666.9 518.7L667.5 517.8L668.2 517.6L668.8 517.4L669.4 517.5L670 517.6L670.6 517L671.3 517.8L671.9 516.4L672.5 516.2L673.1 516.1L673.8 515L674.4 514.8L675 513.6L675.6 512.8L676.2 512.5L676.9 512.1L677.5 511.3L678.1 511L678.7 510.1L679.4 508.9L680 508.9L680.6 507.9L681.2 506.2L681.9 504.6L682.5 503L683.1 501.4L683.7 500.4L684.3 501.1L685 501L685.6 501.2L686.2 500.1L686.8 499.7L687.5 497.6L688.1 495.5L688.7 492.8L689.3 489.6L689.9 485.9L690.6 480.9L691.2 478.2L691.8 476.9L692.4 472.8L693.1 471.4L693.7 469.9L694.3 467.4L694.9 463.2L695.6 467.6L696.2 468.6L696.8 471.8L697.4 469.8L698 466.4L698.7 462.9L699.3 461.9L699.9 463.3L700.5 462.5L701.2 466.5L701.8 466.1L702.4 466.8L703 463.9L703.6 460.2L704.3 457.4L704.9 456L705.5 453.7L706.1 453.6L706.8 453.4L707.4 450.2L708 449.2L708.6 446.8L709.3 445.9L709.9 441L710.5 438.1L711.1 434.3L711.7 428.3L712.4 422.9L713 422.7L713.6 414.3L714.2 409.2L714.9 407.9L715.5 405.3L716.1 405.7L716.7 401L717.3 417.1L718 416.4L718.6 415.7" fill="none" stroke-width="1"></path></g><g><path stroke-linecap="round" stroke-linejoin="round" stroke="#ddd" d="M489.4 523.7L533 516.8L567.3 511.7L582.8 510.7L583.5 510.3L584.1 509.9L584.7 510.3L585.3 510.3L585.9 509.9L586.6 509.5L587.2 509.3L587.8 510.8L588.4 509.8L589.1 509.2L589.7 508.8L590.3 509.2L590.9 508.9L591.6 508.5L592.2 508.6L592.8 509.5L593.4 509.5L594 509.5L594.7 509.5L595.3 509.6L595.9 509.3L596.5 508.7L597.2 509L597.8 508.4L598.4 507.9L599 507.7L599.7 507.6L600.3 507.6L600.9 508.4L601.5 506.7L602.1 505.3L602.8 504.3L603.4 503.4L604 504.7L604.6 503.7L605.3 503.3L605.9 504.2L606.5 504.4L607.1 503.2L607.7 504.5L608.4 505.1L609 505.3L609.6 504.9L610.2 503.5L610.9 503L611.5 502.9L612.1 502.1L612.7 501.4L613.4 502.2L614 502L614.6 500.9L615.2 499.4L615.8 497.2L616.5 497.1L617.1 497.8L617.7 497.2L618.3 497.9L619 497.7L619.6 496.8L620.2 495.9L620.8 496.7L621.4 495.6L622.1 493.3L622.7 492.1L623.3 494.1L623.9 494.4L624.6 493.2L625.2 492.7L625.8 491.7L626.4 492.8L627.1 491.8L627.7 491.3L628.3 490.3L628.9 491.5L629.5 490.4L630.2 490.8L630.8 490.4L631.4 489.6L632 485.5L632.7 481.2L633.3 480.8L633.9 478.9L634.5 478.8L635.1 479.1L635.8 479.9L636.4 479.5L637 478.4L637.6 479.7L638.3 477.7L638.9 478L639.5 476.8L640.1 472.8L640.8 476.7L641.4 479.2L642 474.1L642.6 476.3L643.2 472.1L643.9 472L644.5 467.7L645.1 467.1L645.7 461.3L646.4 462L647 460L647.6 462.2L648.2 458.5L648.8 451.7L649.5 452L650.1 459.7L650.7 453.2L651.3 454.4L652 453.7L652.6 451.8L653.2 450.7L653.8 458.7L654.5 458.2L655.1 449.8L655.7 453.4L656.3 447.8L656.9 448L657.6 450.4L658.2 454.1L658.8 451.5L659.4 443.1L660.1 442.6L660.7 442.5L661.3 438.5L661.9 439.4L662.5 440.1L663.2 436.1L663.8 446.1L664.4 452.1L665 464.4L665.7 467L666.3 462.1L666.9 454.1L667.5 447.1L668.2 441.3L668.8 447.4L669.4 442.3L670 435.7L670.6 423.4L671.3 413L671.9 403.6L672.5 396.1L673.1 400.2L673.8 413.3L674.4 417.4L675 414L675.6 418.3L676.2 410L676.9 403L677.5 400.5L678.1 396.7L678.7 399.9L679.4 393.1L680 392.9L680.6 392.9L681.2 396.5L681.9 388.9L682.5 387.7L683.1 386.8L683.7 380.4L684.3 376.2L685 369.4L685.6 361.3L686.2 352.3L686.8 349.8L687.5 343L688.1 339L688.7 340.9L689.3 337.5L689.9 329.4L690.6 320L691.2 322.5L691.8 325.1L692.4 316.3L693.1 308.9L693.7 298.7L694.3 293.4L694.9 296.1L695.6 292.6L696.2 299.3L696.8 291.8L697.4 276.6L698 269.1L698.7 262.5L699.3 255.5L699.9 246.6L700.5 239.5L701.2 237.7L701.8 241.8L702.4 235.6L703 231.5L703.6 223.2L704.3 218.6L704.9 210.5L705.5 200.1L706.1 189.4L706.8 177.5L707.4 167.1L708 167.2L708.6 164.1L709.3 157L709.9 146.4L710.5 137.2L711.1 130.6L711.7 127.3L712.4 132.3L713 146.8L713.6 140.3L714.2 137.1L714.9 131.4L715.5 127.6L716.1 121.3L716.7 113.9L717.3 110.6L718 102.7L718.6 92.2" fill="none" stroke-width="1"></path></g><g><path stroke-linecap="round" stroke-linejoin="round" stroke="#ddd" d="M458.3 523.7L489.4 524.1L520.6 524.3L551.7 524.8L583.5 525L589.7 525.3L595.9 525.6L602.1 525.5L608.4 525.5L614 525.5L614.6 525.5L620.8 525.8L626.4 526.1L635.1 525.9L635.8 525.8L636.4 525.9L637 525.7L637.6 525.7L638.3 525.8L638.9 525.6L639.5 526.1L640.1 525.7L640.8 525.6L641.4 525.5L642 525.7L642.6 526.1L643.2 525.2L643.9 525.2L644.5 525.6L645.1 525.5L645.7 525.4L646.4 525L647 524.9L647.6 524.9L648.2 525.1L648.8 524.9L649.5 525.3L650.1 525.3L650.7 524.6L651.3 524.6L652 524.6L652.6 524.7L653.2 524.8L653.8 524.5L654.5 524.6L655.1 524.5L655.7 524.6L656.3 525.4L656.9 524.6L657.6 525.1L658.2 524.8L658.8 524.6L659.4 524.8L660.1 524.6L660.7 524.6L661.3 524.4L661.9 524.5L662.5 524.5L663.2 524.3L663.8 524.3L664.4 524.5L665 524.5L665.7 524.6L666.3 524.6L666.9 524.7L667.5 524.6L668.2 524.8L668.8 524.8L669.4 524.8L670 524.7L670.6 524.6L671.3 524.8L671.9 524.6L672.5 524.7L673.1 524.9L673.8 525.3L674.4 525.3L675 525.3L675.6 525.2L676.2 525.3L676.9 525.3L677.5 525.2L678.1 524.9L678.7 524.8L679.4 524.8L680 524.6L680.6 524.7L681.2 524.4L681.9 524.4L682.5 524.1L683.1 524L683.7 524L684.3 523.9L685 523.5L685.6 523.9L686.2 524L686.8 523.6L687.5 523.6L688.1 523.3L688.7 523.1L689.3 523.2L689.9 523.4L690.6 523.2L691.2 523.3L691.8 522.8L692.4 522.9L693.1 522.4L693.7 522.2L694.3 522.8L694.9 522.4L695.6 522.1L696.2 522L696.8 521.5L697.4 521.3L698 521.2L698.7 521L699.3 520.8L699.9 519.9L700.5 519.5L701.2 519.1L701.8 519.2L702.4 518.9L703 518.6L703.6 518.2L704.3 517.6L704.9 516.9L705.5 516.7L706.1 516.1L706.8 515.6L707.4 515.4L708 514.9L708.6 514.7L709.3 513.8L709.9 512.8L710.5 511.7L711.1 510.4L711.7 509.1L712.4 508.2L713 506.8L713.6 505.4L714.2 504L714.9 503.1L715.5 501.7L716.1 500.1L716.7 498.2L717.3 496.4L718 494.6L718.6 492.5" fill="none" stroke-width="1"></path></g><g><path stroke-linecap="round" stroke-linejoin="round" stroke="#ddd" d="M427.1 523.7L439.6 523.3L455.2 521.6L455.8 521.5L456.4 521.7L457 521.7L457.7 521.3L458.3 520.9L458.9 520.8L459.5 520.7L460.2 520.5L460.8 520.3L461.4 520.1L462 519.8L462.6 519.6L463.3 519.2L463.9 518.9L464.5 518.7L465.1 518.7L465.8 518.4L466.4 518.3L467 518.4L467.6 518.5L468.3 518.5L468.9 518.5L469.5 518.4L470.1 518.6L470.7 518.4L471.4 518.3L472 518.2L472.6 518.2L473.2 518.3L473.9 518.2L474.5 517.8L475.1 517.5L475.7 517.5L476.3 517.3L477 517L477.6 517L478.2 517L478.8 517L479.5 517L480.1 516.8L480.7 516.6L481.3 516.9L482 517.2L482.6 517.3L483.2 517.3L483.8 517.3L484.4 517.3L485.1 517.3L485.7 517.4L486.3 517.4L486.9 517.5L487.6 517.3L488.2 517L488.8 516.6L489.4 516.3L490 516.4L490.7 516.4L491.3 516.4L491.9 516.4L492.5 516.4L493.2 516.4L493.8 516.6L494.4 516.6L495 516.5L495.7 516.3L496.3 516.2L496.9 516.2L497.5 516.3L498.1 515.8L498.8 515L499.4 514.3L500 513.8L500.6 513.6L501.3 513.4L501.9 513.1L502.5 512.9L503.1 512.8L503.7 512.7L504.4 512.6L505 512.9L505.6 513.5L506.2 514.1L506.9 514.4L507.5 514.5L508.1 514.7L508.7 515.3L509.4 515.7L510 515.8L510.6 515.7L511.2 515.3L511.8 515.1L512.5 515.1L513.1 515.1L513.7 514.9L514.3 515L515 515.1L515.6 514.7L516.2 514.4L516.8 513.8L517.4 513.7L518.1 513.7L518.7 513.6L519.3 513.3L519.9 513L520.6 512.6L521.2 512.3L521.8 511.7L522.4 511.5L523.1 511.8L523.7 512.5L524.3 512.7L524.9 513.1L525.5 513.4L526.2 513L526.8 512.4L527.4 512.1L528 511.8L528.7 511.9L529.3 512.4L529.9 512.1L530.5 511.9L531.1 511.9L531.8 511.8L532.4 511.5L533 512L533.6 512.9L534.3 513.7L534.9 514.1L535.5 514.1L536.1 514.1L536.8 514.3L537.4 514.3L538 514.5L538.6 514.5L539.2 514.4L539.9 514.1L540.5 514L541.1 514.1L541.7 514.3L542.4 514.4L543 514.6L543.6 514.7L544.2 514.6L544.8 514.5L545.5 514.4L546.1 514.7L546.7 515L547.3 515.1L548 515.3L548.6 515.5L549.2 515.3L549.8 514.9L550.5 514.6L551.1 514.7L551.7 514.8L552.3 514.7L552.9 514L553.6 513.5L554.2 513.3L554.8 513.1L555.4 512.8L556.1 512.7L556.7 512.7L557.3 512.7L557.9 512.6L558.5 512.4L559.2 512.4L559.8 513.3L560.4 513.6L561 513.6L561.7 513.4L562.3 513.5L562.9 513.6L563.5 513.7L564.2 513.6L564.8 513.9L565.4 513.7L566 513.6L566.6 513.1L567.3 513L567.9 512.9L568.5 512.9L569.1 512.6L569.8 512.5L570.4 512.8L571 513.2L571.6 513.4L572.2 514.1L572.9 514.6L573.5 514.8L574.1 514.8L574.7 514.7L575.4 514.7L576 514.7L576.6 514.8L577.2 514.3L577.9 514.1L578.5 513.8L579.1 513.7L579.7 513.6L580.3 513.7L581 514L581.6 514.2L582.2 514.4L582.8 514.7L583.5 514.8L584.1 515.1L584.7 515.2L585.3 515.5L585.9 515.7L586.6 515.9L587.2 516.3L587.8 516.7L588.4 517.1L589.1 517.5L589.7 517.9L595.3 518.4L614 517.8L620.2 519.4L626.4 517.9L638.9 511.4L642 509.1L642.6 508.7L643.2 507.6L643.9 506.6L644.5 508.1L645.1 508.3L645.7 506.6L646.4 508.6L647 506.3L647.6 506.2L648.2 503.9L648.8 504.5L649.5 503.2L650.1 503.5L650.7 503L651.3 503.1L652 504.2L652.6 504.4L653.2 506L653.8 506L654.5 506.3L655.1 504.5L655.7 503.3L656.3 502.2L656.9 501.1L657.6 499.2L658.2 499.3L658.8 499.1L659.4 498.5L660.1 499.6L660.7 498.1L661.3 496.7L661.9 498.8L662.5 499.1L663.2 500.8L663.8 503.2L664.4 502.7L665 507.4L665.7 505.2L666.3 503.9L666.9 502.4L667.5 500.6L668.2 500.1L668.8 500.1L669.4 499L670 499.1L670.6 496.9L671.3 495.9L671.9 495.6L672.5 493.7L673.1 493.6L673.8 492.1L674.4 491.9L675 491.3L675.6 490.3L676.2 487.4L676.9 485.3L677.5 484.9L678.1 486.2L678.7 483.1L679.4 480.5L680 478.6L680.6 476.3L681.2 475.1L681.9 475.1L682.5 472.3L683.1 471.3L683.7 470.4L684.3 467.4L685 462L685.6 459.8L686.2 457.1L686.8 454.9L687.5 451.2L688.1 448.7L688.7 445.7L689.3 445.2L689.9 441L690.6 436.7L691.2 434.2L691.8 431.6L692.4 430.1L693.1 429.5L693.7 423.2L694.3 415.5L694.9 407.8L695.6 400.3L696.2 404L696.8 411.2L697.4 409.7L698 409.6L698.7 415.8L699.3 416.2L699.9 417L700.5 414.5L701.2 410.7L701.8 406.9L702.4 403.7L703 402.5L703.6 398L704.3 407.6L704.9 402.2L705.5 394.2L706.1 388.2L706.8 383.5L707.4 374.6L708 375.2L708.6 374.2L709.3 372.4L709.9 366.2L710.5 361.7L711.1 353.8L711.7 348.9L712.4 347.4L713 357.1L713.6 348.8L714.2 342.4L714.9 337.1L715.5 336.6L716.1 334.4L716.7 331.4L717.3 331L718 328.8L718.6 326.5" fill="none" stroke-width="1"></path></g><g><path stroke-linecap="round" stroke-linejoin="round" stroke="#ddd" d="M259 523.7L259.6 523.9L260.3 524.1L260.9 524.2L261.5 524.3L262.1 524.1L262.7 524.1L263.4 524L264 523.8L264.6 523.7L265.2 523.7L265.9 523.7L266.5 523.6L267.1 523.5L267.7 524L268.3 524.3L269 524.1L269.6 523.9L270.2 523.6L270.8 523.4L271.5 523.2L272.1 523L272.7 522.7L273.3 522.5L274 522.4L274.6 522.2L275.2 521.6L275.8 521.4L276.4 521.3L277.1 521.2L277.7 521.1L278.3 521.2L278.9 521L279.6 521.4L280.2 521.4L280.8 521.7L281.4 521.8L282 521.7L282.7 521.6L283.3 521.6L283.9 522.2L284.5 522.2L285.2 522.2L285.8 522L286.4 521.9L287 521.5L287.7 521.5L288.3 521.7L288.9 521.8L289.5 522L290.1 522.2L290.8 522.4L291.4 522.4L292 522.3L292.6 521.8L293.3 521.7L293.9 521.6L294.5 521.4L295.1 521.6L295.7 521.7L296.4 521.8L297 521.8L297.6 521.9L298.2 521.8L298.9 521.8L299.5 521.8L300.1 521.5L300.7 521.2L301.4 520.9L302 520.9L302.6 520.6L303.2 520.6L303.8 520.7L304.5 520.7L305.1 520.4L305.7 520.4L306.3 520.5L307 520.6L307.6 520.6L308.2 520.8L308.8 520.9L309.4 520.9L310.1 520.8L310.7 520.8L311.3 520.7L311.9 520.7L312.6 520.8L313.2 520.8L313.8 520.7L314.4 520.6L315.1 520.5L315.7 520.6L316.3 520.6L316.9 520.7L317.5 520.8L318.2 520.8L318.8 520.9L319.4 521L320 521L320.7 521L321.3 521.1L321.9 521.2L322.5 521.3L323.2 521.4L323.8 521.4L324.4 521.4L325 521.3L325.6 521.2L326.3 521.1L326.9 520.9L327.5 520.7L328.1 520.7L328.8 520.7L329.4 520.8L330 520.8L330.6 520.9L331.2 520.7L331.9 520.8L332.5 520.8L333.1 520.9L333.7 521.2L334.4 521.3L335 521.4L335.6 521.4L336.2 521.5L336.9 521.4L337.5 521.4L338.1 521.4L338.7 521.4L339.3 521.4L340 521.4L340.6 521.4L341.2 521.4L341.8 521.4L342.5 521.4L343.1 521.4L343.7 521.4L344.3 521.5L344.9 521.5L345.6 521.5L346.2 521.5L346.8 521.5L347.4 521.4L348.1 521.4L348.7 521.4L349.3 521.4L349.9 521.4L350.6 521.4L351.2 521.4L351.8 521.4L352.4 521.4L353 521.3L353.7 521.3L354.3 521.3L354.9 521.3L355.5 521.3L356.2 521.3L356.8 521.2L357.4 521.2L358 521.2L358.6 521.2L359.3 521.2L359.9 521.2L360.5 521.1L361.1 521.1L361.8 521.1L362.4 521.1L363 521L363.6 521.1L364.3 521.1L364.9 521.1L365.5 521.1L366.1 521.2L366.7 521.1L367.4 521.2L368 521.2L368.6 521.3L369.2 521.3L369.9 521.4L370.5 521.4L371.1 521.4L371.7 521.5L372.3 521.5L373 521.6L373.6 521.6L374.2 521.6L374.8 521.6L375.5 521.6L376.1 521.6L376.7 521.5L377.3 521.5L378 521.4L378.6 521.3L379.2 521.3L379.8 521.4L380.4 521.4L381.1 521.6L381.7 521.8L382.3 521.8L382.9 521.9L383.6 521.8L384.2 521.8L384.8 521.6L385.4 521.6L386 521.5L386.7 521.5L387.3 521.5L387.9 521.4L388.5 521.4L389.2 521.4L389.8 521.4L390.4 521.4L391 521.4L391.7 521.4L392.3 521.5L392.9 521.5L393.5 521.5L394.1 521.5L394.8 521.5L395.4 521.6L396 521.7L396.6 521.6L397.3 521.7L397.9 521.8L398.5 521.8L399.1 521.8L399.7 521.9L400.4 521.9L401 521.8L401.6 521.9L402.2 521.9L402.9 521.9L403.5 521.9L404.1 522L404.7 522L405.4 522L406 522L406.6 522.1L407.2 522L407.8 522L408.5 522L409.1 522L409.7 522L410.3 522L411 522L411.6 522L412.2 522L412.8 522L413.4 522L414.1 522L414.7 522L415.3 522L415.9 522L416.6 522L417.2 522L417.8 522L418.4 522L419.1 522L419.7 522.2L420.3 522.3L420.9 522.3L421.5 522.4L422.2 522.4L422.8 522.4L423.4 522.4L424 522.4L424.7 522.4L425.3 522.4L425.9 522.5L426.5 522.7L427.1 522.8L427.8 522.9L428.4 523L429 523L429.6 523L430.3 523.1L430.9 523.1L431.5 523.1L432.1 523.1L432.8 523.1L433.4 523.1L434 523L434.6 523L435.2 522.9L435.9 522.9L436.5 522.9L437.1 522.9L437.7 523L438.4 523L439 522.9L439.6 522.8L440.2 522.7L440.8 522.6L441.5 522.7L442.1 522.5L442.7 522.5L443.3 522.5L444 522.5L444.6 522.5L445.2 522.6L445.8 522.6L446.5 522.6L447.1 522.5L447.7 522.6L448.3 522.4L448.9 522.4L449.6 522.4L450.2 522.4L450.8 522.4L451.4 522.4L452.1 522.4L452.7 522.4L453.3 522.4L453.9 522.3L454.6 522.1L455.2 522L455.8 522.1L456.4 522.1L457 522.1L457.7 522.2L458.3 522.2L458.9 522.1L459.5 522.1L460.2 522.1L460.8 522.2L461.4 522.2L462 522.1L462.6 522.1L463.3 522.1L463.9 522.1L464.5 522.1L465.1 522L465.8 522L466.4 522L467 522L467.6 522L468.3 522L468.9 522L469.5 522L470.1 522L470.7 522L471.4 522L472 522L472.6 522L473.2 522L473.9 522L474.5 522L475.1 522L475.7 522L476.3 522L477 522L477.6 522L478.2 522L478.8 521.9L479.5 521.9L480.1 521.9L480.7 521.9L481.3 521.9L482 521.9L482.6 521.9L483.2 521.9L483.8 521.9L484.4 521.7L485.1 521.5L485.7 521.4L486.3 521.4L486.9 521.4L487.6 521.6L488.2 521.8L488.8 521.9L489.4 521.9L490 521.9L490.7 521.9L491.3 521.9L491.9 521.9L492.5 521.9L493.2 521.8L493.8 521.8L494.4 521.8L495 521.8L495.7 521.8L496.3 521.8L496.9 521.7L497.5 521.6L498.1 521.6L498.8 521.5L499.4 521.5L500 521.5L500.6 521.4L501.3 521.4L501.9 521.4L502.5 521.4L503.1 521.4L503.7 521.4L504.4 521.4L505 521.4L505.6 521.4L506.2 521.4L506.9 521.5L507.5 521.6L508.1 521.7L508.7 521.7L509.4 521.7L510 521.7L510.6 521.6L511.2 521.6L511.8 521.6L512.5 521.6L513.1 521.6L513.7 521.6L514.3 521.6L515 521.6L515.6 521.6L516.2 521.6L516.8 521.7L517.4 521.7L518.1 521.7L518.7 521.8L519.3 521.8L519.9 521.8L520.6 521.7L521.2 522.2L521.8 522.2L522.4 522.2L523.1 522.2L523.7 522.3L524.3 522.2L524.9 522.2L525.5 522.2L526.2 522.1L526.8 522L527.4 522L528 521.9L528.7 521.9L529.3 521.9L529.9 521.9L530.5 521.9L531.1 521.8L531.8 521.7L532.4 521.6L533 521.5L533.6 521.4L534.3 521.4L534.9 521.5L535.5 521.6L536.1 521.6L536.8 521.6L537.4 521.6L538 521.6L538.6 521.5L539.2 521.5L539.9 521.5L540.5 521.5L541.1 521.5L541.7 521.5L542.4 521.6L543 521.6L543.6 521.7L544.2 521.8L544.8 521.8L545.5 521.9L546.1 521.9L546.7 521.9L547.3 521.9L548 521.9L548.6 521.8L549.2 521.8L549.8 521.8L550.5 521.8L551.1 521.8L551.7 521.8L552.3 521.9L552.9 521.9L553.6 521.9L554.2 521.9L554.8 521.9L555.4 521.9L556.1 522L556.7 522L557.3 522L557.9 522L558.5 521.9L559.2 521.8L559.8 521.8L560.4 521.7L561 521.6L561.7 521.6L562.3 521.6L562.9 521.7L563.5 521.7L564.2 521.7L564.8 521.7L565.4 521.7L566 521.6L566.6 521.6L567.3 521.6L567.9 521.5L568.5 521.5L569.1 521.6L569.8 521.6L570.4 521.6L571 521.5L571.6 521.5L572.2 521.3L572.9 521.2L573.5 521.3L574.1 521.4L574.7 520.8L575.4 521.1L576 521.3L595.3 521.1L595.9 520.3L596.5 520.7L597.2 520.4L597.8 520.1L598.4 520.6L599 520.3L599.7 520.6L600.3 520.6L600.9 520.4L601.5 520.6L602.1 520.5L602.8 519.6L603.4 519.8L604 519.8L604.6 519.4L605.3 519.6L605.9 519.4L606.5 518.9L607.1 519.4L607.7 518.6L608.4 518.3L609 518.7L609.6 518.1L610.2 517.7L610.9 518.1L611.5 518.2L612.1 516.8L612.7 517.7L613.4 517.3L614 517.1L614.6 517.4L615.2 516.6L615.8 517.3L616.5 516.7L617.1 517L617.7 516.4L618.3 515.6L619 514.5L619.6 515.6L620.2 514.6L620.8 515.7L621.4 514.4L622.1 513.9L622.7 513.8L623.3 514.3L623.9 514.2L624.6 515.3L625.2 513.8L625.8 513.6L626.4 514.7L627.1 514.5L627.7 513L628.3 514.3L628.9 512.3L629.5 511.8L630.2 513.4L630.8 512.6L631.4 512.9L632 514.1L632.7 512.6L633.3 512L633.9 511.2L634.5 511.2L635.1 511.5L635.8 511.9L636.4 511.6L637 511.5L637.6 511.4L638.3 510.9L638.9 510.5L639.5 510L640.1 509.4L640.8 509.1L641.4 508.3L642 508.8L642.6 507.8L643.2 508.2L643.9 507.2L644.5 505.9L645.1 506.2L645.7 506.6L646.4 507L647 506.5L647.6 506.4L648.2 506L648.8 505.6L649.5 504.5L650.1 504.7L650.7 503.7L651.3 505.4L652 503L652.6 500.7L653.2 500.9L653.8 503.1L654.5 503L655.1 501.1L655.7 505.3L656.3 510.3L656.9 506.7L657.6 503.1L658.2 504.5L658.8 499.9L659.4 498.6L660.1 495L660.7 495.1L661.3 494.4L661.9 495.2L662.5 492.8L663.2 490.4L663.8 492L664.4 494.5L665 496.9L665.7 494.5L666.3 494.9L666.9 495.8L667.5 494.4L668.2 492.3L668.8 492.5L669.4 489.7L670 496.2L670.6 502.4L671.3 505.3L671.9 506.3L672.5 510.1L673.1 508.8L673.8 497.8L674.4 495.3L675 493.1L675.6 488.4L676.2 486.3L676.9 484L677.5 483.1L678.1 482.1L678.7 480.1L679.4 477.7L680 475.5L680.6 472.8L681.2 472L681.9 471L682.5 467.4L683.1 464.6L683.7 461.6L684.3 459.1L685 455.2L685.6 452.2L686.2 449L686.8 445.8L687.5 442.8L688.1 437.4L688.7 432.9L689.3 429.2L689.9 425.6L690.6 420.8L691.2 418.3L691.8 419.7L692.4 415.3L693.1 411.5L693.7 408.7L694.3 405.3L694.9 404.1L695.6 403.5L696.2 401L696.8 400L697.4 398.9L698 397.6L698.7 395L699.3 392.2L699.9 386.8L700.5 382.4L701.2 379.4L701.8 378.5L702.4 376.8L703 378.3L703.6 375.2L704.3 372.5L704.9 370.8L705.5 367.5L706.1 362.2L706.8 357.1L707.4 351L708 348.3L708.6 347L709.3 346.3L709.9 341.9L710.5 339.8L711.1 336.2L711.7 332.5L712.4 333L713 339.6L713.6 336.6L714.2 333.3L714.9 334L715.5 333.7L716.1 334.2L716.7 332.6L717.3 331L718 326.9L718.6 323.5" fill="none" stroke-width="1"></path></g><g><path stroke-linecap="round" stroke-linejoin="round" stroke="#ddd" d="M84.6 523.7L140.7 523.7L159.4 524L333.7 522.7L340 522.6L346.2 522.6L352.4 522.1L358.6 522.4L364.9 522.9L371.1 523.2L377.3 523.1L383.6 523.6L389.8 523.9L396 523.8L402.2 523.4L408.5 524.1L414.7 523.9L420.9 523.9L427.1 523.9L433.4 523.9L439.6 523.7L445.8 523.8L452.1 523.8L458.3 523.8L464.5 523.4L470.7 523.5L496.3 523.1L511.2 523.4L514.3 522.6L520.6 521.9L526.8 522.7L533 523.2L535.5 524L539.2 523.7L545.5 524.1L551.7 524.7L557.9 524.9L561.7 525.1L564.2 525L570.4 525.1L576.6 525.3L582.8 525.5L589.1 525.6L595.3 525.7L601.5 525.9L607.7 525.9L614 525.9L626.4 525.4L637 525.5L638.9 525.2L645.1 525.2L652 525.6L653.2 525.1L663.2 525L663.8 525L664.4 524.9L665 524.8L665.7 525.5L666.3 525.4L666.9 525L667.5 524.7L668.2 524.8L668.8 525L676.2 526.2L676.9 525.3L677.5 524.8L678.1 524.1L678.7 524.7L679.4 524.3L680 523.9L680.6 523.9L681.2 524L681.9 524.4L682.5 524.7L683.1 525.8L683.7 525.5L684.3 524.8L685 524.2L685.6 523.6L686.2 523.5L686.8 523.7L687.5 524L688.1 523.5L688.7 522.7L689.3 522.4L689.9 522.5L690.6 522.1L691.2 522L691.8 521.6L692.4 522L693.1 521.6L693.7 520.7L694.3 520L694.9 519.6L695.6 519.4L696.2 518.5L696.8 517.9L697.4 516.7L698 515.6L698.7 514.9L699.3 513.8L699.9 513.2L700.5 513.3L701.2 513.5L701.8 513.1L702.4 512.1L703 510.5L703.6 509.2L704.3 507.6L704.9 506.3L705.5 505.8L706.1 505.8L706.8 504.9L707.4 503.4L708 501.8L708.6 499.8L709.3 498L709.9 495.6L710.5 492.4L711.1 488.6L711.7 485L712.4 483.3L713 480.1L713.6 474.8L714.2 471.5L714.9 468.9L715.5 465.1L716.1 461.5L716.7 459.8L717.3 457.9L718 456.9L718.6 454.8" fill="none" stroke-width="1"></path></g><g><path fill="none" stroke-linecap="butt" stroke-linejoin="round" stroke="#fff" stroke-width="2.5" d="M582.8 523.7L595.3 523.7L614 523.7L614.6 523.2L615.2 523.4L615.8 523.9L616.5 524.1L617.1 524.1L617.7 523.8L618.3 523.3L619 522.8L619.6 522.9L620.2 522.7L620.8 522.8L621.4 523.2L622.1 523L622.7 522.9L623.3 522.3L623.9 522L624.6 521.2L625.2 521.2L625.8 521.2L626.4 521.9L627.1 521.9L627.7 521.6L628.3 521.9L628.9 521.8L629.5 521.6L630.2 522L630.8 522.2L631.4 521.8L632 521.7L632.7 522.2L633.3 522.1L633.9 521.9L634.5 522.1L635.1 521.5L635.8 522.2L636.4 521.9L637 522.5L637.6 522.8L638.3 522.7L638.9 521.9L639.5 521.4L640.1 522.6L640.8 523.9L641.4 523.9L642 522.6L642.6 523.3L643.2 523.4L643.9 523.3L644.5 523.4L645.1 523.7L645.7 523.1L646.4 523.3L647 523.3L647.6 523.3L648.2 523.3L648.8 522.7L649.5 522.9L650.1 523.1L650.7 522.6L651.3 522.7L652 522L652.6 522.3L653.2 522.3L653.8 522.6L654.5 522.4L655.1 522.3L655.7 521.9L656.3 522.3L656.9 521.4L657.6 520.7L658.2 520.7L658.8 520.2L659.4 519.8L660.1 520L660.7 520.2L661.3 520.2L661.9 519.6L662.5 518.6L663.2 518.8L663.8 519.8L664.4 520.2L665 520.1L665.7 519.5L666.3 518.8L666.9 518.7L667.5 517.8L668.2 517.6L668.8 517.4L669.4 517.5L670 517.6L670.6 517L671.3 517.8L671.9 516.4L672.5 516.2L673.1 516.1L673.8 515L674.4 514.8L675 513.6L675.6 512.8L676.2 512.5L676.9 512.1L677.5 511.3L678.1 511L678.7 510.1L679.4 508.9L680 508.9L680.6 507.9L681.2 506.2L681.9 504.6L682.5 503L683.1 501.4L683.7 500.4L684.3 501.1L685 501L685.6 501.2L686.2 500.1L686.8 499.7L687.5 497.6L688.1 495.5L688.7 492.8L689.3 489.6L689.9 485.9L690.6 480.9L691.2 478.2L691.8 476.9L692.4 472.8L693.1 471.4L693.7 469.9L694.3 467.4L694.9 463.2L695.6 467.6L696.2 468.6L696.8 471.8L697.4 469.8L698 466.4L698.7 462.9L699.3 461.9L699.9 463.3L700.5 462.5L701.2 466.5L701.8 466.1L702.4 466.8L703 463.9L703.6 460.2L704.3 457.4L704.9 456L705.5 453.7L706.1 453.6L706.8 453.4L707.4 450.2L708 449.2L708.6 446.8L709.3 445.9L709.9 441L710.5 438.1L711.1 434.3L711.7 428.3L712.4 422.9L713 422.7L713.6 414.3L714.2 409.2L714.9 407.9L715.5 405.3L716.1 405.7L716.7 401L717.3 417.1L718 416.4L718.6 415.7"></path><polyline points="582.80,523.70 595.30,523.70 614.00,523.70 614.60,523.20 615.20,523.40 615.80,523.90 616.50,524.10 617.10,524.10 617.70,523.80 618.30,523.30 619.00,522.80 619.60,522.90 620.20,522.70 620.80,522.80 621.40,523.20 622.10,523.00 622.70,522.90 623.30,522.30 623.90,522.00 624.60,521.20 625.20,521.20 625.80,521.20 626.40,521.90 627.10,521.90 627.70,521.60 628.30,521.90 628.90,521.80 629.50,521.60 630.20,522.00 630.80,522.20 631.40,521.80 632.00,521.70 632.70,522.20 633.30,522.10 633.90,521.90 634.50,522.10 635.10,521.50 635.80,522.20 636.40,521.90 637.00,522.50 637.60,522.80 638.30,522.70 638.90,521.90 639.50,521.40 640.10,522.60 640.80,523.90 641.40,523.90 642.00,522.60 642.60,523.30 643.20,523.40 643.90,523.30 644.50,523.40 645.10,523.70 645.70,523.10 646.40,523.30 647.00,523.30 647.60,523.30 648.20,523.30 648.80,522.70 649.50,522.90 650.10,523.10 650.70,522.60 651.30,522.70 652.00,522.00 652.60,522.30 653.20,522.30 653.80,522.60 654.50,522.40 655.10,522.30 655.70,521.90 656.30,522.30 656.90,521.40 657.60,520.70 658.20,520.70 658.80,520.20 659.40,519.80 660.10,520.00 660.70,520.20 661.30,520.20 661.90,519.60 662.50,518.60 663.20,518.80 663.80,519.80 664.40,520.20 665.00,520.10 665.70,519.50 666.30,518.80 666.90,518.70 667.50,517.80 668.20,517.60 668.80,517.40 669.40,517.50 670.00,517.60 670.60,517.00 671.30,517.80 671.90,516.40 672.50,516.20 673.10,516.10 673.80,515.00 674.40,514.80 675.00,513.60 675.60,512.80 676.20,512.50 676.90,512.10 677.50,511.30 678.10,511.00 678.70,510.10 679.40,508.90 680.00,508.90 680.60,507.90 681.20,506.20 681.90,504.60 682.50,503.00 683.10,501.40 683.70,500.40 684.30,501.10 685.00,501.00 685.60,501.20 686.20,500.10 686.80,499.70 687.50,497.60 688.10,495.50 688.70,492.80 689.30,489.60 689.90,485.90 690.60,480.90 691.20,478.20 691.80,476.90 692.40,472.80 693.10,471.40 693.70,469.90 694.30,467.40 694.90,463.20 695.60,467.60 696.20,468.60 696.80,471.80 697.40,469.80 698.00,466.40 698.70,462.90 699.30,461.90 699.90,463.30 700.50,462.50 701.20,466.50 701.80,466.10 702.40,466.80 703.00,463.90 703.60,460.20 704.30,457.40 704.90,456.00 705.50,453.70 706.10,453.60 706.80,453.40 707.40,450.20 708.00,449.20 708.60,446.80 709.30,445.90 709.90,441.00 710.50,438.10 711.10,434.30 711.70,428.30 712.40,422.90 713.00,422.70 713.60,414.30 714.20,409.20 714.90,407.90 715.50,405.30 716.10,405.70 716.70,401.00 717.30,417.10 718.00,416.40 718.60,415.70" stroke-linejoin="round" stroke-width="1.5" stroke="#CD2285" fill="none" stroke-linecap="butt"></polyline></g><g><path fill="none" stroke-linecap="butt" stroke-linejoin="round" stroke="#fff" stroke-width="2.5" d="M489.4 523.7L533 516.8L567.3 511.7L582.8 510.7L583.5 510.3L584.1 509.9L584.7 510.3L585.3 510.3L585.9 509.9L586.6 509.5L587.2 509.3L587.8 510.8L588.4 509.8L589.1 509.2L589.7 508.8L590.3 509.2L590.9 508.9L591.6 508.5L592.2 508.6L592.8 509.5L593.4 509.5L594 509.5L594.7 509.5L595.3 509.6L595.9 509.3L596.5 508.7L597.2 509L597.8 508.4L598.4 507.9L599 507.7L599.7 507.6L600.3 507.6L600.9 508.4L601.5 506.7L602.1 505.3L602.8 504.3L603.4 503.4L604 504.7L604.6 503.7L605.3 503.3L605.9 504.2L606.5 504.4L607.1 503.2L607.7 504.5L608.4 505.1L609 505.3L609.6 504.9L610.2 503.5L610.9 503L611.5 502.9L612.1 502.1L612.7 501.4L613.4 502.2L614 502L614.6 500.9L615.2 499.4L615.8 497.2L616.5 497.1L617.1 497.8L617.7 497.2L618.3 497.9L619 497.7L619.6 496.8L620.2 495.9L620.8 496.7L621.4 495.6L622.1 493.3L622.7 492.1L623.3 494.1L623.9 494.4L624.6 493.2L625.2 492.7L625.8 491.7L626.4 492.8L627.1 491.8L627.7 491.3L628.3 490.3L628.9 491.5L629.5 490.4L630.2 490.8L630.8 490.4L631.4 489.6L632 485.5L632.7 481.2L633.3 480.8L633.9 478.9L634.5 478.8L635.1 479.1L635.8 479.9L636.4 479.5L637 478.4L637.6 479.7L638.3 477.7L638.9 478L639.5 476.8L640.1 472.8L640.8 476.7L641.4 479.2L642 474.1L642.6 476.3L643.2 472.1L643.9 472L644.5 467.7L645.1 467.1L645.7 461.3L646.4 462L647 460L647.6 462.2L648.2 458.5L648.8 451.7L649.5 452L650.1 459.7L650.7 453.2L651.3 454.4L652 453.7L652.6 451.8L653.2 450.7L653.8 458.7L654.5 458.2L655.1 449.8L655.7 453.4L656.3 447.8L656.9 448L657.6 450.4L658.2 454.1L658.8 451.5L659.4 443.1L660.1 442.6L660.7 442.5L661.3 438.5L661.9 439.4L662.5 440.1L663.2 436.1L663.8 446.1L664.4 452.1L665 464.4L665.7 467L666.3 462.1L666.9 454.1L667.5 447.1L668.2 441.3L668.8 447.4L669.4 442.3L670 435.7L670.6 423.4L671.3 413L671.9 403.6L672.5 396.1L673.1 400.2L673.8 413.3L674.4 417.4L675 414L675.6 418.3L676.2 410L676.9 403L677.5 400.5L678.1 396.7L678.7 399.9L679.4 393.1L680 392.9L680.6 392.9L681.2 396.5L681.9 388.9L682.5 387.7L683.1 386.8L683.7 380.4L684.3 376.2L685 369.4L685.6 361.3L686.2 352.3L686.8 349.8L687.5 343L688.1 339L688.7 340.9L689.3 337.5L689.9 329.4L690.6 320L691.2 322.5L691.8 325.1L692.4 316.3L693.1 308.9L693.7 298.7L694.3 293.4L694.9 296.1L695.6 292.6L696.2 299.3L696.8 291.8L697.4 276.6L698 269.1L698.7 262.5L699.3 255.5L699.9 246.6L700.5 239.5L701.2 237.7L701.8 241.8L702.4 235.6L703 231.5L703.6 223.2L704.3 218.6L704.9 210.5L705.5 200.1L706.1 189.4L706.8 177.5L707.4 167.1L708 167.2L708.6 164.1L709.3 157L709.9 146.4L710.5 137.2L711.1 130.6L711.7 127.3L712.4 132.3L713 146.8L713.6 140.3L714.2 137.1L714.9 131.4L715.5 127.6L716.1 121.3L716.7 113.9L717.3 110.6L718 102.7L718.6 92.2"></path><polyline points="489.40,523.70 533.00,516.80 567.30,511.70 582.80,510.70 583.50,510.30 584.10,509.90 584.70,510.30 585.30,510.30 585.90,509.90 586.60,509.50 587.20,509.30 587.80,510.80 588.40,509.80 589.10,509.20 589.70,508.80 590.30,509.20 590.90,508.90 591.60,508.50 592.20,508.60 592.80,509.50 593.40,509.50 594.00,509.50 594.70,509.50 595.30,509.60 595.90,509.30 596.50,508.70 597.20,509.00 597.80,508.40 598.40,507.90 599.00,507.70 599.70,507.60 600.30,507.60 600.90,508.40 601.50,506.70 602.10,505.30 602.80,504.30 603.40,503.40 604.00,504.70 604.60,503.70 605.30,503.30 605.90,504.20 606.50,504.40 607.10,503.20 607.70,504.50 608.40,505.10 609.00,505.30 609.60,504.90 610.20,503.50 610.90,503.00 611.50,502.90 612.10,502.10 612.70,501.40 613.40,502.20 614.00,502.00 614.60,500.90 615.20,499.40 615.80,497.20 616.50,497.10 617.10,497.80 617.70,497.20 618.30,497.90 619.00,497.70 619.60,496.80 620.20,495.90 620.80,496.70 621.40,495.60 622.10,493.30 622.70,492.10 623.30,494.10 623.90,494.40 624.60,493.20 625.20,492.70 625.80,491.70 626.40,492.80 627.10,491.80 627.70,491.30 628.30,490.30 628.90,491.50 629.50,490.40 630.20,490.80 630.80,490.40 631.40,489.60 632.00,485.50 632.70,481.20 633.30,480.80 633.90,478.90 634.50,478.80 635.10,479.10 635.80,479.90 636.40,479.50 637.00,478.40 637.60,479.70 638.30,477.70 638.90,478.00 639.50,476.80 640.10,472.80 640.80,476.70 641.40,479.20 642.00,474.10 642.60,476.30 643.20,472.10 643.90,472.00 644.50,467.70 645.10,467.10 645.70,461.30 646.40,462.00 647.00,460.00 647.60,462.20 648.20,458.50 648.80,451.70 649.50,452.00 650.10,459.70 650.70,453.20 651.30,454.40 652.00,453.70 652.60,451.80 653.20,450.70 653.80,458.70 654.50,458.20 655.10,449.80 655.70,453.40 656.30,447.80 656.90,448.00 657.60,450.40 658.20,454.10 658.80,451.50 659.40,443.10 660.10,442.60 660.70,442.50 661.30,438.50 661.90,439.40 662.50,440.10 663.20,436.10 663.80,446.10 664.40,452.10 665.00,464.40 665.70,467.00 666.30,462.10 666.90,454.10 667.50,447.10 668.20,441.30 668.80,447.40 669.40,442.30 670.00,435.70 670.60,423.40 671.30,413.00 671.90,403.60 672.50,396.10 673.10,400.20 673.80,413.30 674.40,417.40 675.00,414.00 675.60,418.30 676.20,410.00 676.90,403.00 677.50,400.50 678.10,396.70 678.70,399.90 679.40,393.10 680.00,392.90 680.60,392.90 681.20,396.50 681.90,388.90 682.50,387.70 683.10,386.80 683.70,380.40 684.30,376.20 685.00,369.40 685.60,361.30 686.20,352.30 686.80,349.80 687.50,343.00 688.10,339.00 688.70,340.90 689.30,337.50 689.90,329.40 690.60,320.00 691.20,322.50 691.80,325.10 692.40,316.30 693.10,308.90 693.70,298.70 694.30,293.40 694.90,296.10 695.60,292.60 696.20,299.30 696.80,291.80 697.40,276.60 698.00,269.10 698.70,262.50 699.30,255.50 699.90,246.60 700.50,239.50 701.20,237.70 701.80,241.80 702.40,235.60 703.00,231.50 703.60,223.20 704.30,218.60 704.90,210.50 705.50,200.10 706.10,189.40 706.80,177.50 707.40,167.10 708.00,167.20 708.60,164.10 709.30,157.00 709.90,146.40 710.50,137.20 711.10,130.60 711.70,127.30 712.40,132.30 713.00,146.80 713.60,140.30 714.20,137.10 714.90,131.40 715.50,127.60 716.10,121.30 716.70,113.90 717.30,110.60 718.00,102.70 718.60,92.20" stroke-linejoin="round" stroke-width="1.5" stroke="#00847E" fill="none" stroke-linecap="butt"></polyline></g><g><path fill="none" stroke-linecap="butt" stroke-linejoin="round" stroke="#fff" stroke-width="2.5" d="M458.3 523.7L489.4 524.1L520.6 524.3L551.7 524.8L583.5 525L589.7 525.3L595.9 525.6L602.1 525.5L608.4 525.5L614 525.5L614.6 525.5L620.8 525.8L626.4 526.1L635.1 525.9L635.8 525.8L636.4 525.9L637 525.7L637.6 525.7L638.3 525.8L638.9 525.6L639.5 526.1L640.1 525.7L640.8 525.6L641.4 525.5L642 525.7L642.6 526.1L643.2 525.2L643.9 525.2L644.5 525.6L645.1 525.5L645.7 525.4L646.4 525L647 524.9L647.6 524.9L648.2 525.1L648.8 524.9L649.5 525.3L650.1 525.3L650.7 524.6L651.3 524.6L652 524.6L652.6 524.7L653.2 524.8L653.8 524.5L654.5 524.6L655.1 524.5L655.7 524.6L656.3 525.4L656.9 524.6L657.6 525.1L658.2 524.8L658.8 524.6L659.4 524.8L660.1 524.6L660.7 524.6L661.3 524.4L661.9 524.5L662.5 524.5L663.2 524.3L663.8 524.3L664.4 524.5L665 524.5L665.7 524.6L666.3 524.6L666.9 524.7L667.5 524.6L668.2 524.8L668.8 524.8L669.4 524.8L670 524.7L670.6 524.6L671.3 524.8L671.9 524.6L672.5 524.7L673.1 524.9L673.8 525.3L674.4 525.3L675 525.3L675.6 525.2L676.2 525.3L676.9 525.3L677.5 525.2L678.1 524.9L678.7 524.8L679.4 524.8L680 524.6L680.6 524.7L681.2 524.4L681.9 524.4L682.5 524.1L683.1 524L683.7 524L684.3 523.9L685 523.5L685.6 523.9L686.2 524L686.8 523.6L687.5 523.6L688.1 523.3L688.7 523.1L689.3 523.2L689.9 523.4L690.6 523.2L691.2 523.3L691.8 522.8L692.4 522.9L693.1 522.4L693.7 522.2L694.3 522.8L694.9 522.4L695.6 522.1L696.2 522L696.8 521.5L697.4 521.3L698 521.2L698.7 521L699.3 520.8L699.9 519.9L700.5 519.5L701.2 519.1L701.8 519.2L702.4 518.9L703 518.6L703.6 518.2L704.3 517.6L704.9 516.9L705.5 516.7L706.1 516.1L706.8 515.6L707.4 515.4L708 514.9L708.6 514.7L709.3 513.8L709.9 512.8L710.5 511.7L711.1 510.4L711.7 509.1L712.4 508.2L713 506.8L713.6 505.4L714.2 504L714.9 503.1L715.5 501.7L716.1 500.1L716.7 498.2L717.3 496.4L718 494.6L718.6 492.5"></path><polyline points="458.30,523.70 489.40,524.10 520.60,524.30 551.70,524.80 583.50,525.00 589.70,525.30 595.90,525.60 602.10,525.50 608.40,525.50 614.00,525.50 614.60,525.50 620.80,525.80 626.40,526.10 635.10,525.90 635.80,525.80 636.40,525.90 637.00,525.70 637.60,525.70 638.30,525.80 638.90,525.60 639.50,526.10 640.10,525.70 640.80,525.60 641.40,525.50 642.00,525.70 642.60,526.10 643.20,525.20 643.90,525.20 644.50,525.60 645.10,525.50 645.70,525.40 646.40,525.00 647.00,524.90 647.60,524.90 648.20,525.10 648.80,524.90 649.50,525.30 650.10,525.30 650.70,524.60 651.30,524.60 652.00,524.60 652.60,524.70 653.20,524.80 653.80,524.50 654.50,524.60 655.10,524.50 655.70,524.60 656.30,525.40 656.90,524.60 657.60,525.10 658.20,524.80 658.80,524.60 659.40,524.80 660.10,524.60 660.70,524.60 661.30,524.40 661.90,524.50 662.50,524.50 663.20,524.30 663.80,524.30 664.40,524.50 665.00,524.50 665.70,524.60 666.30,524.60 666.90,524.70 667.50,524.60 668.20,524.80 668.80,524.80 669.40,524.80 670.00,524.70 670.60,524.60 671.30,524.80 671.90,524.60 672.50,524.70 673.10,524.90 673.80,525.30 674.40,525.30 675.00,525.30 675.60,525.20 676.20,525.30 676.90,525.30 677.50,525.20 678.10,524.90 678.70,524.80 679.40,524.80 680.00,524.60 680.60,524.70 681.20,524.40 681.90,524.40 682.50,524.10 683.10,524.00 683.70,524.00 684.30,523.90 685.00,523.50 685.60,523.90 686.20,524.00 686.80,523.60 687.50,523.60 688.10,523.30 688.70,523.10 689.30,523.20 689.90,523.40 690.60,523.20 691.20,523.30 691.80,522.80 692.40,522.90 693.10,522.40 693.70,522.20 694.30,522.80 694.90,522.40 695.60,522.10 696.20,522.00 696.80,521.50 697.40,521.30 698.00,521.20 698.70,521.00 699.30,520.80 699.90,519.90 700.50,519.50 701.20,519.10 701.80,519.20 702.40,518.90 703.00,518.60 703.60,518.20 704.30,517.60 704.90,516.90 705.50,516.70 706.10,516.10 706.80,515.60 707.40,515.40 708.00,514.90 708.60,514.70 709.30,513.80 709.90,512.80 710.50,511.70 711.10,510.40 711.70,509.10 712.40,508.20 713.00,506.80 713.60,505.40 714.20,504.00 714.90,503.10 715.50,501.70 716.10,500.10 716.70,498.20 717.30,496.40 718.00,494.60 718.60,492.50" stroke-linejoin="round" stroke-width="1.5" stroke="#D73C50" fill="none" stroke-linecap="butt"></polyline></g><g><path fill="none" stroke-linecap="butt" stroke-linejoin="round" stroke="#fff" stroke-width="2.5" d="M427.1 523.7L439.6 523.3L455.2 521.6L455.8 521.5L456.4 521.7L457 521.7L457.7 521.3L458.3 520.9L458.9 520.8L459.5 520.7L460.2 520.5L460.8 520.3L461.4 520.1L462 519.8L462.6 519.6L463.3 519.2L463.9 518.9L464.5 518.7L465.1 518.7L465.8 518.4L466.4 518.3L467 518.4L467.6 518.5L468.3 518.5L468.9 518.5L469.5 518.4L470.1 518.6L470.7 518.4L471.4 518.3L472 518.2L472.6 518.2L473.2 518.3L473.9 518.2L474.5 517.8L475.1 517.5L475.7 517.5L476.3 517.3L477 517L477.6 517L478.2 517L478.8 517L479.5 517L480.1 516.8L480.7 516.6L481.3 516.9L482 517.2L482.6 517.3L483.2 517.3L483.8 517.3L484.4 517.3L485.1 517.3L485.7 517.4L486.3 517.4L486.9 517.5L487.6 517.3L488.2 517L488.8 516.6L489.4 516.3L490 516.4L490.7 516.4L491.3 516.4L491.9 516.4L492.5 516.4L493.2 516.4L493.8 516.6L494.4 516.6L495 516.5L495.7 516.3L496.3 516.2L496.9 516.2L497.5 516.3L498.1 515.8L498.8 515L499.4 514.3L500 513.8L500.6 513.6L501.3 513.4L501.9 513.1L502.5 512.9L503.1 512.8L503.7 512.7L504.4 512.6L505 512.9L505.6 513.5L506.2 514.1L506.9 514.4L507.5 514.5L508.1 514.7L508.7 515.3L509.4 515.7L510 515.8L510.6 515.7L511.2 515.3L511.8 515.1L512.5 515.1L513.1 515.1L513.7 514.9L514.3 515L515 515.1L515.6 514.7L516.2 514.4L516.8 513.8L517.4 513.7L518.1 513.7L518.7 513.6L519.3 513.3L519.9 513L520.6 512.6L521.2 512.3L521.8 511.7L522.4 511.5L523.1 511.8L523.7 512.5L524.3 512.7L524.9 513.1L525.5 513.4L526.2 513L526.8 512.4L527.4 512.1L528 511.8L528.7 511.9L529.3 512.4L529.9 512.1L530.5 511.9L531.1 511.9L531.8 511.8L532.4 511.5L533 512L533.6 512.9L534.3 513.7L534.9 514.1L535.5 514.1L536.1 514.1L536.8 514.3L537.4 514.3L538 514.5L538.6 514.5L539.2 514.4L539.9 514.1L540.5 514L541.1 514.1L541.7 514.3L542.4 514.4L543 514.6L543.6 514.7L544.2 514.6L544.8 514.5L545.5 514.4L546.1 514.7L546.7 515L547.3 515.1L548 515.3L548.6 515.5L549.2 515.3L549.8 514.9L550.5 514.6L551.1 514.7L551.7 514.8L552.3 514.7L552.9 514L553.6 513.5L554.2 513.3L554.8 513.1L555.4 512.8L556.1 512.7L556.7 512.7L557.3 512.7L557.9 512.6L558.5 512.4L559.2 512.4L559.8 513.3L560.4 513.6L561 513.6L561.7 513.4L562.3 513.5L562.9 513.6L563.5 513.7L564.2 513.6L564.8 513.9L565.4 513.7L566 513.6L566.6 513.1L567.3 513L567.9 512.9L568.5 512.9L569.1 512.6L569.8 512.5L570.4 512.8L571 513.2L571.6 513.4L572.2 514.1L572.9 514.6L573.5 514.8L574.1 514.8L574.7 514.7L575.4 514.7L576 514.7L576.6 514.8L577.2 514.3L577.9 514.1L578.5 513.8L579.1 513.7L579.7 513.6L580.3 513.7L581 514L581.6 514.2L582.2 514.4L582.8 514.7L583.5 514.8L584.1 515.1L584.7 515.2L585.3 515.5L585.9 515.7L586.6 515.9L587.2 516.3L587.8 516.7L588.4 517.1L589.1 517.5L589.7 517.9L595.3 518.4L614 517.8L620.2 519.4L626.4 517.9L638.9 511.4L642 509.1L642.6 508.7L643.2 507.6L643.9 506.6L644.5 508.1L645.1 508.3L645.7 506.6L646.4 508.6L647 506.3L647.6 506.2L648.2 503.9L648.8 504.5L649.5 503.2L650.1 503.5L650.7 503L651.3 503.1L652 504.2L652.6 504.4L653.2 506L653.8 506L654.5 506.3L655.1 504.5L655.7 503.3L656.3 502.2L656.9 501.1L657.6 499.2L658.2 499.3L658.8 499.1L659.4 498.5L660.1 499.6L660.7 498.1L661.3 496.7L661.9 498.8L662.5 499.1L663.2 500.8L663.8 503.2L664.4 502.7L665 507.4L665.7 505.2L666.3 503.9L666.9 502.4L667.5 500.6L668.2 500.1L668.8 500.1L669.4 499L670 499.1L670.6 496.9L671.3 495.9L671.9 495.6L672.5 493.7L673.1 493.6L673.8 492.1L674.4 491.9L675 491.3L675.6 490.3L676.2 487.4L676.9 485.3L677.5 484.9L678.1 486.2L678.7 483.1L679.4 480.5L680 478.6L680.6 476.3L681.2 475.1L681.9 475.1L682.5 472.3L683.1 471.3L683.7 470.4L684.3 467.4L685 462L685.6 459.8L686.2 457.1L686.8 454.9L687.5 451.2L688.1 448.7L688.7 445.7L689.3 445.2L689.9 441L690.6 436.7L691.2 434.2L691.8 431.6L692.4 430.1L693.1 429.5L693.7 423.2L694.3 415.5L694.9 407.8L695.6 400.3L696.2 404L696.8 411.2L697.4 409.7L698 409.6L698.7 415.8L699.3 416.2L699.9 417L700.5 414.5L701.2 410.7L701.8 406.9L702.4 403.7L703 402.5L703.6 398L704.3 407.6L704.9 402.2L705.5 394.2L706.1 388.2L706.8 383.5L707.4 374.6L708 375.2L708.6 374.2L709.3 372.4L709.9 366.2L710.5 361.7L711.1 353.8L711.7 348.9L712.4 347.4L713 357.1L713.6 348.8L714.2 342.4L714.9 337.1L715.5 336.6L716.1 334.4L716.7 331.4L717.3 331L718 328.8L718.6 326.5"></path><polyline points="427.10,523.70 439.60,523.30 455.20,521.60 455.80,521.50 456.40,521.70 457.00,521.70 457.70,521.30 458.30,520.90 458.90,520.80 459.50,520.70 460.20,520.50 460.80,520.30 461.40,520.10 462.00,519.80 462.60,519.60 463.30,519.20 463.90,518.90 464.50,518.70 465.10,518.70 465.80,518.40 466.40,518.30 467.00,518.40 467.60,518.50 468.30,518.50 468.90,518.50 469.50,518.40 470.10,518.60 470.70,518.40 471.40,518.30 472.00,518.20 472.60,518.20 473.20,518.30 473.90,518.20 474.50,517.80 475.10,517.50 475.70,517.50 476.30,517.30 477.00,517.00 477.60,517.00 478.20,517.00 478.80,517.00 479.50,517.00 480.10,516.80 480.70,516.60 481.30,516.90 482.00,517.20 482.60,517.30 483.20,517.30 483.80,517.30 484.40,517.30 485.10,517.30 485.70,517.40 486.30,517.40 486.90,517.50 487.60,517.30 488.20,517.00 488.80,516.60 489.40,516.30 490.00,516.40 490.70,516.40 491.30,516.40 491.90,516.40 492.50,516.40 493.20,516.40 493.80,516.60 494.40,516.60 495.00,516.50 495.70,516.30 496.30,516.20 496.90,516.20 497.50,516.30 498.10,515.80 498.80,515.00 499.40,514.30 500.00,513.80 500.60,513.60 501.30,513.40 501.90,513.10 502.50,512.90 503.10,512.80 503.70,512.70 504.40,512.60 505.00,512.90 505.60,513.50 506.20,514.10 506.90,514.40 507.50,514.50 508.10,514.70 508.70,515.30 509.40,515.70 510.00,515.80 510.60,515.70 511.20,515.30 511.80,515.10 512.50,515.10 513.10,515.10 513.70,514.90 514.30,515.00 515.00,515.10 515.60,514.70 516.20,514.40 516.80,513.80 517.40,513.70 518.10,513.70 518.70,513.60 519.30,513.30 519.90,513.00 520.60,512.60 521.20,512.30 521.80,511.70 522.40,511.50 523.10,511.80 523.70,512.50 524.30,512.70 524.90,513.10 525.50,513.40 526.20,513.00 526.80,512.40 527.40,512.10 528.00,511.80 528.70,511.90 529.30,512.40 529.90,512.10 530.50,511.90 531.10,511.90 531.80,511.80 532.40,511.50 533.00,512.00 533.60,512.90 534.30,513.70 534.90,514.10 535.50,514.10 536.10,514.10 536.80,514.30 537.40,514.30 538.00,514.50 538.60,514.50 539.20,514.40 539.90,514.10 540.50,514.00 541.10,514.10 541.70,514.30 542.40,514.40 543.00,514.60 543.60,514.70 544.20,514.60 544.80,514.50 545.50,514.40 546.10,514.70 546.70,515.00 547.30,515.10 548.00,515.30 548.60,515.50 549.20,515.30 549.80,514.90 550.50,514.60 551.10,514.70 551.70,514.80 552.30,514.70 552.90,514.00 553.60,513.50 554.20,513.30 554.80,513.10 555.40,512.80 556.10,512.70 556.70,512.70 557.30,512.70 557.90,512.60 558.50,512.40 559.20,512.40 559.80,513.30 560.40,513.60 561.00,513.60 561.70,513.40 562.30,513.50 562.90,513.60 563.50,513.70 564.20,513.60 564.80,513.90 565.40,513.70 566.00,513.60 566.60,513.10 567.30,513.00 567.90,512.90 568.50,512.90 569.10,512.60 569.80,512.50 570.40,512.80 571.00,513.20 571.60,513.40 572.20,514.10 572.90,514.60 573.50,514.80 574.10,514.80 574.70,514.70 575.40,514.70 576.00,514.70 576.60,514.80 577.20,514.30 577.90,514.10 578.50,513.80 579.10,513.70 579.70,513.60 580.30,513.70 581.00,514.00 581.60,514.20 582.20,514.40 582.80,514.70 583.50,514.80 584.10,515.10 584.70,515.20 585.30,515.50 585.90,515.70 586.60,515.90 587.20,516.30 587.80,516.70 588.40,517.10 589.10,517.50 589.70,517.90 595.30,518.40 614.00,517.80 620.20,519.40 626.40,517.90 638.90,511.40 642.00,509.10 642.60,508.70 643.20,507.60 643.90,506.60 644.50,508.10 645.10,508.30 645.70,506.60 646.40,508.60 647.00,506.30 647.60,506.20 648.20,503.90 648.80,504.50 649.50,503.20 650.10,503.50 650.70,503.00 651.30,503.10 652.00,504.20 652.60,504.40 653.20,506.00 653.80,506.00 654.50,506.30 655.10,504.50 655.70,503.30 656.30,502.20 656.90,501.10 657.60,499.20 658.20,499.30 658.80,499.10 659.40,498.50 660.10,499.60 660.70,498.10 661.30,496.70 661.90,498.80 662.50,499.10 663.20,500.80 663.80,503.20 664.40,502.70 665.00,507.40 665.70,505.20 666.30,503.90 666.90,502.40 667.50,500.60 668.20,500.10 668.80,500.10 669.40,499.00 670.00,499.10 670.60,496.90 671.30,495.90 671.90,495.60 672.50,493.70 673.10,493.60 673.80,492.10 674.40,491.90 675.00,491.30 675.60,490.30 676.20,487.40 676.90,485.30 677.50,484.90 678.10,486.20 678.70,483.10 679.40,480.50 680.00,478.60 680.60,476.30 681.20,475.10 681.90,475.10 682.50,472.30 683.10,471.30 683.70,470.40 684.30,467.40 685.00,462.00 685.60,459.80 686.20,457.10 686.80,454.90 687.50,451.20 688.10,448.70 688.70,445.70 689.30,445.20 689.90,441.00 690.60,436.70 691.20,434.20 691.80,431.60 692.40,430.10 693.10,429.50 693.70,423.20 694.30,415.50 694.90,407.80 695.60,400.30 696.20,404.00 696.80,411.20 697.40,409.70 698.00,409.60 698.70,415.80 699.30,416.20 699.90,417.00 700.50,414.50 701.20,410.70 701.80,406.90 702.40,403.70 703.00,402.50 703.60,398.00 704.30,407.60 704.90,402.20 705.50,394.20 706.10,388.20 706.80,383.50 707.40,374.60 708.00,375.20 708.60,374.20 709.30,372.40 709.90,366.20 710.50,361.70 711.10,353.80 711.70,348.90 712.40,347.40 713.00,357.10 713.60,348.80 714.20,342.40 714.90,337.10 715.50,336.60 716.10,334.40 716.70,331.40 717.30,331.00 718.00,328.80 718.60,326.50" stroke-linejoin="round" stroke-width="1.5" stroke="#287669" fill="none" stroke-linecap="butt"></polyline></g><g><path fill="none" stroke-linecap="butt" stroke-linejoin="round" stroke="#fff" stroke-width="2.5" d="M259 523.7L259.6 523.9L260.3 524.1L260.9 524.2L261.5 524.3L262.1 524.1L262.7 524.1L263.4 524L264 523.8L264.6 523.7L265.2 523.7L265.9 523.7L266.5 523.6L267.1 523.5L267.7 524L268.3 524.3L269 524.1L269.6 523.9L270.2 523.6L270.8 523.4L271.5 523.2L272.1 523L272.7 522.7L273.3 522.5L274 522.4L274.6 522.2L275.2 521.6L275.8 521.4L276.4 521.3L277.1 521.2L277.7 521.1L278.3 521.2L278.9 521L279.6 521.4L280.2 521.4L280.8 521.7L281.4 521.8L282 521.7L282.7 521.6L283.3 521.6L283.9 522.2L284.5 522.2L285.2 522.2L285.8 522L286.4 521.9L287 521.5L287.7 521.5L288.3 521.7L288.9 521.8L289.5 522L290.1 522.2L290.8 522.4L291.4 522.4L292 522.3L292.6 521.8L293.3 521.7L293.9 521.6L294.5 521.4L295.1 521.6L295.7 521.7L296.4 521.8L297 521.8L297.6 521.9L298.2 521.8L298.9 521.8L299.5 521.8L300.1 521.5L300.7 521.2L301.4 520.9L302 520.9L302.6 520.6L303.2 520.6L303.8 520.7L304.5 520.7L305.1 520.4L305.7 520.4L306.3 520.5L307 520.6L307.6 520.6L308.2 520.8L308.8 520.9L309.4 520.9L310.1 520.8L310.7 520.8L311.3 520.7L311.9 520.7L312.6 520.8L313.2 520.8L313.8 520.7L314.4 520.6L315.1 520.5L315.7 520.6L316.3 520.6L316.9 520.7L317.5 520.8L318.2 520.8L318.8 520.9L319.4 521L320 521L320.7 521L321.3 521.1L321.9 521.2L322.5 521.3L323.2 521.4L323.8 521.4L324.4 521.4L325 521.3L325.6 521.2L326.3 521.1L326.9 520.9L327.5 520.7L328.1 520.7L328.8 520.7L329.4 520.8L330 520.8L330.6 520.9L331.2 520.7L331.9 520.8L332.5 520.8L333.1 520.9L333.7 521.2L334.4 521.3L335 521.4L335.6 521.4L336.2 521.5L336.9 521.4L337.5 521.4L338.1 521.4L338.7 521.4L339.3 521.4L340 521.4L340.6 521.4L341.2 521.4L341.8 521.4L342.5 521.4L343.1 521.4L343.7 521.4L344.3 521.5L344.9 521.5L345.6 521.5L346.2 521.5L346.8 521.5L347.4 521.4L348.1 521.4L348.7 521.4L349.3 521.4L349.9 521.4L350.6 521.4L351.2 521.4L351.8 521.4L352.4 521.4L353 521.3L353.7 521.3L354.3 521.3L354.9 521.3L355.5 521.3L356.2 521.3L356.8 521.2L357.4 521.2L358 521.2L358.6 521.2L359.3 521.2L359.9 521.2L360.5 521.1L361.1 521.1L361.8 521.1L362.4 521.1L363 521L363.6 521.1L364.3 521.1L364.9 521.1L365.5 521.1L366.1 521.2L366.7 521.1L367.4 521.2L368 521.2L368.6 521.3L369.2 521.3L369.9 521.4L370.5 521.4L371.1 521.4L371.7 521.5L372.3 521.5L373 521.6L373.6 521.6L374.2 521.6L374.8 521.6L375.5 521.6L376.1 521.6L376.7 521.5L377.3 521.5L378 521.4L378.6 521.3L379.2 521.3L379.8 521.4L380.4 521.4L381.1 521.6L381.7 521.8L382.3 521.8L382.9 521.9L383.6 521.8L384.2 521.8L384.8 521.6L385.4 521.6L386 521.5L386.7 521.5L387.3 521.5L387.9 521.4L388.5 521.4L389.2 521.4L389.8 521.4L390.4 521.4L391 521.4L391.7 521.4L392.3 521.5L392.9 521.5L393.5 521.5L394.1 521.5L394.8 521.5L395.4 521.6L396 521.7L396.6 521.6L397.3 521.7L397.9 521.8L398.5 521.8L399.1 521.8L399.7 521.9L400.4 521.9L401 521.8L401.6 521.9L402.2 521.9L402.9 521.9L403.5 521.9L404.1 522L404.7 522L405.4 522L406 522L406.6 522.1L407.2 522L407.8 522L408.5 522L409.1 522L409.7 522L410.3 522L411 522L411.6 522L412.2 522L412.8 522L413.4 522L414.1 522L414.7 522L415.3 522L415.9 522L416.6 522L417.2 522L417.8 522L418.4 522L419.1 522L419.7 522.2L420.3 522.3L420.9 522.3L421.5 522.4L422.2 522.4L422.8 522.4L423.4 522.4L424 522.4L424.7 522.4L425.3 522.4L425.9 522.5L426.5 522.7L427.1 522.8L427.8 522.9L428.4 523L429 523L429.6 523L430.3 523.1L430.9 523.1L431.5 523.1L432.1 523.1L432.8 523.1L433.4 523.1L434 523L434.6 523L435.2 522.9L435.9 522.9L436.5 522.9L437.1 522.9L437.7 523L438.4 523L439 522.9L439.6 522.8L440.2 522.7L440.8 522.6L441.5 522.7L442.1 522.5L442.7 522.5L443.3 522.5L444 522.5L444.6 522.5L445.2 522.6L445.8 522.6L446.5 522.6L447.1 522.5L447.7 522.6L448.3 522.4L448.9 522.4L449.6 522.4L450.2 522.4L450.8 522.4L451.4 522.4L452.1 522.4L452.7 522.4L453.3 522.4L453.9 522.3L454.6 522.1L455.2 522L455.8 522.1L456.4 522.1L457 522.1L457.7 522.2L458.3 522.2L458.9 522.1L459.5 522.1L460.2 522.1L460.8 522.2L461.4 522.2L462 522.1L462.6 522.1L463.3 522.1L463.9 522.1L464.5 522.1L465.1 522L465.8 522L466.4 522L467 522L467.6 522L468.3 522L468.9 522L469.5 522L470.1 522L470.7 522L471.4 522L472 522L472.6 522L473.2 522L473.9 522L474.5 522L475.1 522L475.7 522L476.3 522L477 522L477.6 522L478.2 522L478.8 521.9L479.5 521.9L480.1 521.9L480.7 521.9L481.3 521.9L482 521.9L482.6 521.9L483.2 521.9L483.8 521.9L484.4 521.7L485.1 521.5L485.7 521.4L486.3 521.4L486.9 521.4L487.6 521.6L488.2 521.8L488.8 521.9L489.4 521.9L490 521.9L490.7 521.9L491.3 521.9L491.9 521.9L492.5 521.9L493.2 521.8L493.8 521.8L494.4 521.8L495 521.8L495.7 521.8L496.3 521.8L496.9 521.7L497.5 521.6L498.1 521.6L498.8 521.5L499.4 521.5L500 521.5L500.6 521.4L501.3 521.4L501.9 521.4L502.5 521.4L503.1 521.4L503.7 521.4L504.4 521.4L505 521.4L505.6 521.4L506.2 521.4L506.9 521.5L507.5 521.6L508.1 521.7L508.7 521.7L509.4 521.7L510 521.7L510.6 521.6L511.2 521.6L511.8 521.6L512.5 521.6L513.1 521.6L513.7 521.6L514.3 521.6L515 521.6L515.6 521.6L516.2 521.6L516.8 521.7L517.4 521.7L518.1 521.7L518.7 521.8L519.3 521.8L519.9 521.8L520.6 521.7L521.2 522.2L521.8 522.2L522.4 522.2L523.1 522.2L523.7 522.3L524.3 522.2L524.9 522.2L525.5 522.2L526.2 522.1L526.8 522L527.4 522L528 521.9L528.7 521.9L529.3 521.9L529.9 521.9L530.5 521.9L531.1 521.8L531.8 521.7L532.4 521.6L533 521.5L533.6 521.4L534.3 521.4L534.9 521.5L535.5 521.6L536.1 521.6L536.8 521.6L537.4 521.6L538 521.6L538.6 521.5L539.2 521.5L539.9 521.5L540.5 521.5L541.1 521.5L541.7 521.5L542.4 521.6L543 521.6L543.6 521.7L544.2 521.8L544.8 521.8L545.5 521.9L546.1 521.9L546.7 521.9L547.3 521.9L548 521.9L548.6 521.8L549.2 521.8L549.8 521.8L550.5 521.8L551.1 521.8L551.7 521.8L552.3 521.9L552.9 521.9L553.6 521.9L554.2 521.9L554.8 521.9L555.4 521.9L556.1 522L556.7 522L557.3 522L557.9 522L558.5 521.9L559.2 521.8L559.8 521.8L560.4 521.7L561 521.6L561.7 521.6L562.3 521.6L562.9 521.7L563.5 521.7L564.2 521.7L564.8 521.7L565.4 521.7L566 521.6L566.6 521.6L567.3 521.6L567.9 521.5L568.5 521.5L569.1 521.6L569.8 521.6L570.4 521.6L571 521.5L571.6 521.5L572.2 521.3L572.9 521.2L573.5 521.3L574.1 521.4L574.7 520.8L575.4 521.1L576 521.3L595.3 521.1L595.9 520.3L596.5 520.7L597.2 520.4L597.8 520.1L598.4 520.6L599 520.3L599.7 520.6L600.3 520.6L600.9 520.4L601.5 520.6L602.1 520.5L602.8 519.6L603.4 519.8L604 519.8L604.6 519.4L605.3 519.6L605.9 519.4L606.5 518.9L607.1 519.4L607.7 518.6L608.4 518.3L609 518.7L609.6 518.1L610.2 517.7L610.9 518.1L611.5 518.2L612.1 516.8L612.7 517.7L613.4 517.3L614 517.1L614.6 517.4L615.2 516.6L615.8 517.3L616.5 516.7L617.1 517L617.7 516.4L618.3 515.6L619 514.5L619.6 515.6L620.2 514.6L620.8 515.7L621.4 514.4L622.1 513.9L622.7 513.8L623.3 514.3L623.9 514.2L624.6 515.3L625.2 513.8L625.8 513.6L626.4 514.7L627.1 514.5L627.7 513L628.3 514.3L628.9 512.3L629.5 511.8L630.2 513.4L630.8 512.6L631.4 512.9L632 514.1L632.7 512.6L633.3 512L633.9 511.2L634.5 511.2L635.1 511.5L635.8 511.9L636.4 511.6L637 511.5L637.6 511.4L638.3 510.9L638.9 510.5L639.5 510L640.1 509.4L640.8 509.1L641.4 508.3L642 508.8L642.6 507.8L643.2 508.2L643.9 507.2L644.5 505.9L645.1 506.2L645.7 506.6L646.4 507L647 506.5L647.6 506.4L648.2 506L648.8 505.6L649.5 504.5L650.1 504.7L650.7 503.7L651.3 505.4L652 503L652.6 500.7L653.2 500.9L653.8 503.1L654.5 503L655.1 501.1L655.7 505.3L656.3 510.3L656.9 506.7L657.6 503.1L658.2 504.5L658.8 499.9L659.4 498.6L660.1 495L660.7 495.1L661.3 494.4L661.9 495.2L662.5 492.8L663.2 490.4L663.8 492L664.4 494.5L665 496.9L665.7 494.5L666.3 494.9L666.9 495.8L667.5 494.4L668.2 492.3L668.8 492.5L669.4 489.7L670 496.2L670.6 502.4L671.3 505.3L671.9 506.3L672.5 510.1L673.1 508.8L673.8 497.8L674.4 495.3L675 493.1L675.6 488.4L676.2 486.3L676.9 484L677.5 483.1L678.1 482.1L678.7 480.1L679.4 477.7L680 475.5L680.6 472.8L681.2 472L681.9 471L682.5 467.4L683.1 464.6L683.7 461.6L684.3 459.1L685 455.2L685.6 452.2L686.2 449L686.8 445.8L687.5 442.8L688.1 437.4L688.7 432.9L689.3 429.2L689.9 425.6L690.6 420.8L691.2 418.3L691.8 419.7L692.4 415.3L693.1 411.5L693.7 408.7L694.3 405.3L694.9 404.1L695.6 403.5L696.2 401L696.8 400L697.4 398.9L698 397.6L698.7 395L699.3 392.2L699.9 386.8L700.5 382.4L701.2 379.4L701.8 378.5L702.4 376.8L703 378.3L703.6 375.2L704.3 372.5L704.9 370.8L705.5 367.5L706.1 362.2L706.8 357.1L707.4 351L708 348.3L708.6 347L709.3 346.3L709.9 341.9L710.5 339.8L711.1 336.2L711.7 332.5L712.4 333L713 339.6L713.6 336.6L714.2 333.3L714.9 334L715.5 333.7L716.1 334.2L716.7 332.6L717.3 331L718 326.9L718.6 323.5"></path><polyline points="259.00,523.70 259.60,523.90 260.30,524.10 260.90,524.20 261.50,524.30 262.10,524.10 262.70,524.10 263.40,524.00 264.00,523.80 264.60,523.70 265.20,523.70 265.90,523.70 266.50,523.60 267.10,523.50 267.70,524.00 268.30,524.30 269.00,524.10 269.60,523.90 270.20,523.60 270.80,523.40 271.50,523.20 272.10,523.00 272.70,522.70 273.30,522.50 274.00,522.40 274.60,522.20 275.20,521.60 275.80,521.40 276.40,521.30 277.10,521.20 277.70,521.10 278.30,521.20 278.90,521.00 279.60,521.40 280.20,521.40 280.80,521.70 281.40,521.80 282.00,521.70 282.70,521.60 283.30,521.60 283.90,522.20 284.50,522.20 285.20,522.20 285.80,522.00 286.40,521.90 287.00,521.50 287.70,521.50 288.30,521.70 288.90,521.80 289.50,522.00 290.10,522.20 290.80,522.40 291.40,522.40 292.00,522.30 292.60,521.80 293.30,521.70 293.90,521.60 294.50,521.40 295.10,521.60 295.70,521.70 296.40,521.80 297.00,521.80 297.60,521.90 298.20,521.80 298.90,521.80 299.50,521.80 300.10,521.50 300.70,521.20 301.40,520.90 302.00,520.90 302.60,520.60 303.20,520.60 303.80,520.70 304.50,520.70 305.10,520.40 305.70,520.40 306.30,520.50 307.00,520.60 307.60,520.60 308.20,520.80 308.80,520.90 309.40,520.90 310.10,520.80 310.70,520.80 311.30,520.70 311.90,520.70 312.60,520.80 313.20,520.80 313.80,520.70 314.40,520.60 315.10,520.50 315.70,520.60 316.30,520.60 316.90,520.70 317.50,520.80 318.20,520.80 318.80,520.90 319.40,521.00 320.00,521.00 320.70,521.00 321.30,521.10 321.90,521.20 322.50,521.30 323.20,521.40 323.80,521.40 324.40,521.40 325.00,521.30 325.60,521.20 326.30,521.10 326.90,520.90 327.50,520.70 328.10,520.70 328.80,520.70 329.40,520.80 330.00,520.80 330.60,520.90 331.20,520.70 331.90,520.80 332.50,520.80 333.10,520.90 333.70,521.20 334.40,521.30 335.00,521.40 335.60,521.40 336.20,521.50 336.90,521.40 337.50,521.40 338.10,521.40 338.70,521.40 339.30,521.40 340.00,521.40 340.60,521.40 341.20,521.40 341.80,521.40 342.50,521.40 343.10,521.40 343.70,521.40 344.30,521.50 344.90,521.50 345.60,521.50 346.20,521.50 346.80,521.50 347.40,521.40 348.10,521.40 348.70,521.40 349.30,521.40 349.90,521.40 350.60,521.40 351.20,521.40 351.80,521.40 352.40,521.40 353.00,521.30 353.70,521.30 354.30,521.30 354.90,521.30 355.50,521.30 356.20,521.30 356.80,521.20 357.40,521.20 358.00,521.20 358.60,521.20 359.30,521.20 359.90,521.20 360.50,521.10 361.10,521.10 361.80,521.10 362.40,521.10 363.00,521.00 363.60,521.10 364.30,521.10 364.90,521.10 365.50,521.10 366.10,521.20 366.70,521.10 367.40,521.20 368.00,521.20 368.60,521.30 369.20,521.30 369.90,521.40 370.50,521.40 371.10,521.40 371.70,521.50 372.30,521.50 373.00,521.60 373.60,521.60 374.20,521.60 374.80,521.60 375.50,521.60 376.10,521.60 376.70,521.50 377.30,521.50 378.00,521.40 378.60,521.30 379.20,521.30 379.80,521.40 380.40,521.40 381.10,521.60 381.70,521.80 382.30,521.80 382.90,521.90 383.60,521.80 384.20,521.80 384.80,521.60 385.40,521.60 386.00,521.50 386.70,521.50 387.30,521.50 387.90,521.40 388.50,521.40 389.20,521.40 389.80,521.40 390.40,521.40 391.00,521.40 391.70,521.40 392.30,521.50 392.90,521.50 393.50,521.50 394.10,521.50 394.80,521.50 395.40,521.60 396.00,521.70 396.60,521.60 397.30,521.70 397.90,521.80 398.50,521.80 399.10,521.80 399.70,521.90 400.40,521.90 401.00,521.80 401.60,521.90 402.20,521.90 402.90,521.90 403.50,521.90 404.10,522.00 404.70,522.00 405.40,522.00 406.00,522.00 406.60,522.10 407.20,522.00 407.80,522.00 408.50,522.00 409.10,522.00 409.70,522.00 410.30,522.00 411.00,522.00 411.60,522.00 412.20,522.00 412.80,522.00 413.40,522.00 414.10,522.00 414.70,522.00 415.30,522.00 415.90,522.00 416.60,522.00 417.20,522.00 417.80,522.00 418.40,522.00 419.10,522.00 419.70,522.20 420.30,522.30 420.90,522.30 421.50,522.40 422.20,522.40 422.80,522.40 423.40,522.40 424.00,522.40 424.70,522.40 425.30,522.40 425.90,522.50 426.50,522.70 427.10,522.80 427.80,522.90 428.40,523.00 429.00,523.00 429.60,523.00 430.30,523.10 430.90,523.10 431.50,523.10 432.10,523.10 432.80,523.10 433.40,523.10 434.00,523.00 434.60,523.00 435.20,522.90 435.90,522.90 436.50,522.90 437.10,522.90 437.70,523.00 438.40,523.00 439.00,522.90 439.60,522.80 440.20,522.70 440.80,522.60 441.50,522.70 442.10,522.50 442.70,522.50 443.30,522.50 444.00,522.50 444.60,522.50 445.20,522.60 445.80,522.60 446.50,522.60 447.10,522.50 447.70,522.60 448.30,522.40 448.90,522.40 449.60,522.40 450.20,522.40 450.80,522.40 451.40,522.40 452.10,522.40 452.70,522.40 453.30,522.40 453.90,522.30 454.60,522.10 455.20,522.00 455.80,522.10 456.40,522.10 457.00,522.10 457.70,522.20 458.30,522.20 458.90,522.10 459.50,522.10 460.20,522.10 460.80,522.20 461.40,522.20 462.00,522.10 462.60,522.10 463.30,522.10 463.90,522.10 464.50,522.10 465.10,522.00 465.80,522.00 466.40,522.00 467.00,522.00 467.60,522.00 468.30,522.00 468.90,522.00 469.50,522.00 470.10,522.00 470.70,522.00 471.40,522.00 472.00,522.00 472.60,522.00 473.20,522.00 473.90,522.00 474.50,522.00 475.10,522.00 475.70,522.00 476.30,522.00 477.00,522.00 477.60,522.00 478.20,522.00 478.80,521.90 479.50,521.90 480.10,521.90 480.70,521.90 481.30,521.90 482.00,521.90 482.60,521.90 483.20,521.90 483.80,521.90 484.40,521.70 485.10,521.50 485.70,521.40 486.30,521.40 486.90,521.40 487.60,521.60 488.20,521.80 488.80,521.90 489.40,521.90 490.00,521.90 490.70,521.90 491.30,521.90 491.90,521.90 492.50,521.90 493.20,521.80 493.80,521.80 494.40,521.80 495.00,521.80 495.70,521.80 496.30,521.80 496.90,521.70 497.50,521.60 498.10,521.60 498.80,521.50 499.40,521.50 500.00,521.50 500.60,521.40 501.30,521.40 501.90,521.40 502.50,521.40 503.10,521.40 503.70,521.40 504.40,521.40 505.00,521.40 505.60,521.40 506.20,521.40 506.90,521.50 507.50,521.60 508.10,521.70 508.70,521.70 509.40,521.70 510.00,521.70 510.60,521.60 511.20,521.60 511.80,521.60 512.50,521.60 513.10,521.60 513.70,521.60 514.30,521.60 515.00,521.60 515.60,521.60 516.20,521.60 516.80,521.70 517.40,521.70 518.10,521.70 518.70,521.80 519.30,521.80 519.90,521.80 520.60,521.70 521.20,522.20 521.80,522.20 522.40,522.20 523.10,522.20 523.70,522.30 524.30,522.20 524.90,522.20 525.50,522.20 526.20,522.10 526.80,522.00 527.40,522.00 528.00,521.90 528.70,521.90 529.30,521.90 529.90,521.90 530.50,521.90 531.10,521.80 531.80,521.70 532.40,521.60 533.00,521.50 533.60,521.40 534.30,521.40 534.90,521.50 535.50,521.60 536.10,521.60 536.80,521.60 537.40,521.60 538.00,521.60 538.60,521.50 539.20,521.50 539.90,521.50 540.50,521.50 541.10,521.50 541.70,521.50 542.40,521.60 543.00,521.60 543.60,521.70 544.20,521.80 544.80,521.80 545.50,521.90 546.10,521.90 546.70,521.90 547.30,521.90 548.00,521.90 548.60,521.80 549.20,521.80 549.80,521.80 550.50,521.80 551.10,521.80 551.70,521.80 552.30,521.90 552.90,521.90 553.60,521.90 554.20,521.90 554.80,521.90 555.40,521.90 556.10,522.00 556.70,522.00 557.30,522.00 557.90,522.00 558.50,521.90 559.20,521.80 559.80,521.80 560.40,521.70 561.00,521.60 561.70,521.60 562.30,521.60 562.90,521.70 563.50,521.70 564.20,521.70 564.80,521.70 565.40,521.70 566.00,521.60 566.60,521.60 567.30,521.60 567.90,521.50 568.50,521.50 569.10,521.60 569.80,521.60 570.40,521.60 571.00,521.50 571.60,521.50 572.20,521.30 572.90,521.20 573.50,521.30 574.10,521.40 574.70,520.80 575.40,521.10 576.00,521.30 595.30,521.10 595.90,520.30 596.50,520.70 597.20,520.40 597.80,520.10 598.40,520.60 599.00,520.30 599.70,520.60 600.30,520.60 600.90,520.40 601.50,520.60 602.10,520.50 602.80,519.60 603.40,519.80 604.00,519.80 604.60,519.40 605.30,519.60 605.90,519.40 606.50,518.90 607.10,519.40 607.70,518.60 608.40,518.30 609.00,518.70 609.60,518.10 610.20,517.70 610.90,518.10 611.50,518.20 612.10,516.80 612.70,517.70 613.40,517.30 614.00,517.10 614.60,517.40 615.20,516.60 615.80,517.30 616.50,516.70 617.10,517.00 617.70,516.40 618.30,515.60 619.00,514.50 619.60,515.60 620.20,514.60 620.80,515.70 621.40,514.40 622.10,513.90 622.70,513.80 623.30,514.30 623.90,514.20 624.60,515.30 625.20,513.80 625.80,513.60 626.40,514.70 627.10,514.50 627.70,513.00 628.30,514.30 628.90,512.30 629.50,511.80 630.20,513.40 630.80,512.60 631.40,512.90 632.00,514.10 632.70,512.60 633.30,512.00 633.90,511.20 634.50,511.20 635.10,511.50 635.80,511.90 636.40,511.60 637.00,511.50 637.60,511.40 638.30,510.90 638.90,510.50 639.50,510.00 640.10,509.40 640.80,509.10 641.40,508.30 642.00,508.80 642.60,507.80 643.20,508.20 643.90,507.20 644.50,505.90 645.10,506.20 645.70,506.60 646.40,507.00 647.00,506.50 647.60,506.40 648.20,506.00 648.80,505.60 649.50,504.50 650.10,504.70 650.70,503.70 651.30,505.40 652.00,503.00 652.60,500.70 653.20,500.90 653.80,503.10 654.50,503.00 655.10,501.10 655.70,505.30 656.30,510.30 656.90,506.70 657.60,503.10 658.20,504.50 658.80,499.90 659.40,498.60 660.10,495.00 660.70,495.10 661.30,494.40 661.90,495.20 662.50,492.80 663.20,490.40 663.80,492.00 664.40,494.50 665.00,496.90 665.70,494.50 666.30,494.90 666.90,495.80 667.50,494.40 668.20,492.30 668.80,492.50 669.40,489.70 670.00,496.20 670.60,502.40 671.30,505.30 671.90,506.30 672.50,510.10 673.10,508.80 673.80,497.80 674.40,495.30 675.00,493.10 675.60,488.40 676.20,486.30 676.90,484.00 677.50,483.10 678.10,482.10 678.70,480.10 679.40,477.70 680.00,475.50 680.60,472.80 681.20,472.00 681.90,471.00 682.50,467.40 683.10,464.60 683.70,461.60 684.30,459.10 685.00,455.20 685.60,452.20 686.20,449.00 686.80,445.80 687.50,442.80 688.10,437.40 688.70,432.90 689.30,429.20 689.90,425.60 690.60,420.80 691.20,418.30 691.80,419.70 692.40,415.30 693.10,411.50 693.70,408.70 694.30,405.30 694.90,404.10 695.60,403.50 696.20,401.00 696.80,400.00 697.40,398.90 698.00,397.60 698.70,395.00 699.30,392.20 699.90,386.80 700.50,382.40 701.20,379.40 701.80,378.50 702.40,376.80 703.00,378.30 703.60,375.20 704.30,372.50 704.90,370.80 705.50,367.50 706.10,362.20 706.80,357.10 707.40,351.00 708.00,348.30 708.60,347.00 709.30,346.30 709.90,341.90 710.50,339.80 711.10,336.20 711.70,332.50 712.40,333.00 713.00,339.60 713.60,336.60 714.20,333.30 714.90,334.00 715.50,333.70 716.10,334.20 716.70,332.60 717.30,331.00 718.00,326.90 718.60,323.50" stroke-linejoin="round" stroke-width="1.5" stroke="#C05917" fill="none" stroke-linecap="butt"></polyline></g><g><path fill="none" stroke-linecap="butt" stroke-linejoin="round" stroke="#fff" stroke-width="2.5" d="M84.6 523.7L140.7 523.7L159.4 524L333.7 522.7L340 522.6L346.2 522.6L352.4 522.1L358.6 522.4L364.9 522.9L371.1 523.2L377.3 523.1L383.6 523.6L389.8 523.9L396 523.8L402.2 523.4L408.5 524.1L414.7 523.9L420.9 523.9L427.1 523.9L433.4 523.9L439.6 523.7L445.8 523.8L452.1 523.8L458.3 523.8L464.5 523.4L470.7 523.5L496.3 523.1L511.2 523.4L514.3 522.6L520.6 521.9L526.8 522.7L533 523.2L535.5 524L539.2 523.7L545.5 524.1L551.7 524.7L557.9 524.9L561.7 525.1L564.2 525L570.4 525.1L576.6 525.3L582.8 525.5L589.1 525.6L595.3 525.7L601.5 525.9L607.7 525.9L614 525.9L626.4 525.4L637 525.5L638.9 525.2L645.1 525.2L652 525.6L653.2 525.1L663.2 525L663.8 525L664.4 524.9L665 524.8L665.7 525.5L666.3 525.4L666.9 525L667.5 524.7L668.2 524.8L668.8 525L676.2 526.2L676.9 525.3L677.5 524.8L678.1 524.1L678.7 524.7L679.4 524.3L680 523.9L680.6 523.9L681.2 524L681.9 524.4L682.5 524.7L683.1 525.8L683.7 525.5L684.3 524.8L685 524.2L685.6 523.6L686.2 523.5L686.8 523.7L687.5 524L688.1 523.5L688.7 522.7L689.3 522.4L689.9 522.5L690.6 522.1L691.2 522L691.8 521.6L692.4 522L693.1 521.6L693.7 520.7L694.3 520L694.9 519.6L695.6 519.4L696.2 518.5L696.8 517.9L697.4 516.7L698 515.6L698.7 514.9L699.3 513.8L699.9 513.2L700.5 513.3L701.2 513.5L701.8 513.1L702.4 512.1L703 510.5L703.6 509.2L704.3 507.6L704.9 506.3L705.5 505.8L706.1 505.8L706.8 504.9L707.4 503.4L708 501.8L708.6 499.8L709.3 498L709.9 495.6L710.5 492.4L711.1 488.6L711.7 485L712.4 483.3L713 480.1L713.6 474.8L714.2 471.5L714.9 468.9L715.5 465.1L716.1 461.5L716.7 459.8L717.3 457.9L718 456.9L718.6 454.8"></path><polyline points="84.60,523.70 140.70,523.70 159.40,524.00 333.70,522.70 340.00,522.60 346.20,522.60 352.40,522.10 358.60,522.40 364.90,522.90 371.10,523.20 377.30,523.10 383.60,523.60 389.80,523.90 396.00,523.80 402.20,523.40 408.50,524.10 414.70,523.90 420.90,523.90 427.10,523.90 433.40,523.90 439.60,523.70 445.80,523.80 452.10,523.80 458.30,523.80 464.50,523.40 470.70,523.50 496.30,523.10 511.20,523.40 514.30,522.60 520.60,521.90 526.80,522.70 533.00,523.20 535.50,524.00 539.20,523.70 545.50,524.10 551.70,524.70 557.90,524.90 561.70,525.10 564.20,525.00 570.40,525.10 576.60,525.30 582.80,525.50 589.10,525.60 595.30,525.70 601.50,525.90 607.70,525.90 614.00,525.90 626.40,525.40 637.00,525.50 638.90,525.20 645.10,525.20 652.00,525.60 653.20,525.10 663.20,525.00 663.80,525.00 664.40,524.90 665.00,524.80 665.70,525.50 666.30,525.40 666.90,525.00 667.50,524.70 668.20,524.80 668.80,525.00 676.20,526.20 676.90,525.30 677.50,524.80 678.10,524.10 678.70,524.70 679.40,524.30 680.00,523.90 680.60,523.90 681.20,524.00 681.90,524.40 682.50,524.70 683.10,525.80 683.70,525.50 684.30,524.80 685.00,524.20 685.60,523.60 686.20,523.50 686.80,523.70 687.50,524.00 688.10,523.50 688.70,522.70 689.30,522.40 689.90,522.50 690.60,522.10 691.20,522.00 691.80,521.60 692.40,522.00 693.10,521.60 693.70,520.70 694.30,520.00 694.90,519.60 695.60,519.40 696.20,518.50 696.80,517.90 697.40,516.70 698.00,515.60 698.70,514.90 699.30,513.80 699.90,513.20 700.50,513.30 701.20,513.50 701.80,513.10 702.40,512.10 703.00,510.50 703.60,509.20 704.30,507.60 704.90,506.30 705.50,505.80 706.10,505.80 706.80,504.90 707.40,503.40 708.00,501.80 708.60,499.80 709.30,498.00 709.90,495.60 710.50,492.40 711.10,488.60 711.70,485.00 712.40,483.30 713.00,480.10 713.60,474.80 714.20,471.50 714.90,468.90 715.50,465.10 716.10,461.50 716.70,459.80 717.30,457.90 718.00,456.90 718.60,454.80" stroke-linejoin="round" stroke-width="1.5" stroke="#3C4E66" fill="none" stroke-linecap="butt"></polyline></g></g></g></g><g class="SourcesFooter" style="fill:#777"><g style="fill:#777"><text font-size="12.60" x="15.0" y="582.5"><tspan x="15" y="582.48">Source: Maddison Project Database 2020 (Bolt and van Zanden (2020))</tspan></text></g><text font-size="12.60" x="570.4" y="582.5"><tspan x="570.4" y="582.48"><a target='_blank' style='fill: #777;' href='https://ourworldindata.org/economic-growth'>OurWorldInData.org/economic-growth</a> • <a style="fill: #777;" class="cclogo" href="http://creativecommons.org/licenses/by/4.0/deed.en_US" target="_blank">CC BY</a></tspan></text></g></svg>