<svg xmlns="http://www.w3.org/2000/svg" version="1.1" style="font-family:Lato, &#x27;Helvetica Neue&#x27;, Helvetica, Arial, sans-serif;font-size:18px;background-color:white;text-rendering:geometricPrecision;-webkit-font-smoothing:antialiased" width="850" height="600" viewBox="0 0 850 600"><g class="HeaderView"><g transform="translate(774, 15) scale(0.29)"><svg className="owidLog" width="210" height="120" viewBox="0 0 210 120" fill="none" xmlns="http://www.w3.org/2000/svg">
<g clip-path="url(#clip0)">
  <path d="M0 0h210v107.89H0V0z" fill="#002147" />
  <path
    d="M40.98 32.25c0 2.36-.38 4.53-1.12 6.51a14.26 14.26 0 0 1-8.1 8.4c-1.9.78-4.02 1.17-6.34 1.17-2.31 0-4.42-.39-6.33-1.17a14.31 14.31 0 0 1-8.08-8.4 18.29 18.29 0 0 1-1.12-6.51c0-2.36.38-4.53 1.12-6.5.75-1.97 1.8-3.67 3.17-5.1a14.32 14.32 0 0 1 4.9-3.34c1.92-.8 4.03-1.19 6.34-1.19 2.32 0 4.43.4 6.34 1.19 1.92.8 3.56 1.9 4.93 3.34a14.87 14.87 0 0 1 3.17 5.1 18.1 18.1 0 0 1 1.12 6.5zm-4.38 0c0-1.94-.26-3.68-.8-5.22a10.91 10.91 0 0 0-2.24-3.89 9.68 9.68 0 0 0-3.52-2.46 11.95 11.95 0 0 0-4.62-.86c-1.68 0-3.21.28-4.6.86a9.88 9.88 0 0 0-3.54 2.46 10.91 10.91 0 0 0-2.24 3.9c-.53 1.53-.8 3.27-.8 5.2 0 1.94.27 3.68.8 5.22a11.17 11.17 0 0 0 2.24 3.9 10.01 10.01 0 0 0 3.55 2.44c1.38.56 2.9.83 4.6.83s3.24-.27 4.61-.83a9.8 9.8 0 0 0 3.52-2.44 11.17 11.17 0 0 0 2.25-3.9c.53-1.54.8-3.28.8-5.21zm26.22-6.54V48H60.5c-.56 0-.9-.27-1.05-.81l-.31-2.4a12.45 12.45 0 0 1-3.26 2.6c-1.2.64-2.58.96-4.13.96-1.22 0-2.3-.2-3.24-.6a6.52 6.52 0 0 1-2.33-1.7 7.37 7.37 0 0 1-1.43-2.67c-.3-1.04-.46-2.2-.46-3.45V25.7h3.91v14.22c0 1.68.38 2.99 1.15 3.91.77.93 1.96 1.39 3.54 1.39 1.16 0 2.24-.27 3.23-.82a10.42 10.42 0 0 0 2.8-2.28V25.7h3.91zm8.61 4.47a9.94 9.94 0 0 1 2.6-3.56 5.64 5.64 0 0 1 3.76-1.3c.47 0 .92.05 1.34.15.44.1.83.27 1.17.49l-.3 2.92c-.09.37-.3.55-.66.55-.2 0-.5-.04-.9-.13a6.21 6.21 0 0 0-3.24.18 4.23 4.23 0 0 0-1.47.92c-.42.4-.81.9-1.17 1.5-.33.58-.64 1.26-.92 2.02V48H67.7V25.71h2.25c.42 0 .72.08.88.25.16.16.27.44.33.83l.26 3.39zm61.16-13.7L122.75 48h-3.82l-7.99-24.05a21.95 21.95 0 0 1-.42-1.58 38.36 38.36 0 0 1-.44 1.58L102.05 48h-3.83L88.4 16.47h3.54c.38 0 .7.1.95.29.26.2.43.43.5.73l6.52 21.9.28 1.28.29 1.46.3-1.46.38-1.27 7.41-21.91c.1-.25.26-.48.51-.69.27-.22.58-.33.95-.33h1.23c.38 0 .69.1.92.29a1.77 1.77 0 0 1 .53.73l7.4 21.9a28.4 28.4 0 0 1 .68 2.62 29.52 29.52 0 0 1 .52-2.61l6.54-21.91a1.31 1.31 0 0 1 .48-.7c.27-.21.58-.32.95-.32h3.32zm9.35 8.88c1.63 0 3.1.27 4.4.82a9.43 9.43 0 0 1 5.46 5.94c.5 1.4.74 2.98.74 4.73 0 1.76-.25 3.34-.74 4.75a9.43 9.43 0 0 1-5.46 5.92c-1.3.52-2.77.79-4.4.79-1.64 0-3.12-.27-4.44-.8a9.42 9.42 0 0 1-3.35-2.3c-.92-1-1.63-2.2-2.13-3.61-.49-1.41-.73-3-.73-4.75s.24-3.33.73-4.73c.5-1.43 1.2-2.64 2.13-3.63.93-1 2.04-1.77 3.35-2.31 1.32-.55 2.8-.82 4.44-.82zm0 19.89c2.2 0 3.84-.73 4.93-2.2 1.08-1.48 1.63-3.54 1.63-6.18 0-2.66-.55-4.72-1.63-6.2-1.09-1.49-2.73-2.23-4.93-2.23-1.12 0-2.09.2-2.93.57a5.71 5.71 0 0 0-2.06 1.65c-.55.72-.96 1.61-1.24 2.67-.26 1.04-.4 2.22-.4 3.54 0 2.64.55 4.7 1.64 6.18 1.1 1.47 2.76 2.2 4.99 2.2zm17.97-15.07a9.94 9.94 0 0 1 2.6-3.56 5.64 5.64 0 0 1 3.76-1.3c.47 0 .91.05 1.34.15.44.1.83.27 1.16.49l-.28 2.92c-.09.37-.31.55-.66.55-.2 0-.5-.04-.9-.13a6.2 6.2 0 0 0-3.24.18 4.23 4.23 0 0 0-1.47.92c-.43.4-.82.9-1.17 1.5a13.1 13.1 0 0 0-.92 2.02V48h-3.94V25.71h2.24c.43 0 .72.08.88.25.17.16.28.44.33.83l.27 3.39zm15.04-14.59V48h-3.92V15.6h3.92zm19.55 15.43a6.22 6.22 0 0 0-2.38-2.05 6.7 6.7 0 0 0-2.86-.6c-2.07 0-3.66.75-4.77 2.23-1.12 1.48-1.68 3.6-1.68 6.33 0 1.46.13 2.7.38 3.74a7.29 7.29 0 0 0 1.1 2.56 4.35 4.35 0 0 0 1.78 1.45c.7.3 1.5.46 2.4.46 1.29 0 2.41-.3 3.36-.88a9.6 9.6 0 0 0 2.67-2.49V31.02zm3.91-15.43V48h-2.33c-.56 0-.9-.27-1.06-.81l-.35-2.71a12.13 12.13 0 0 1-3.25 2.77 8.28 8.28 0 0 1-4.23 1.06 7.31 7.31 0 0 1-6.14-2.9c-.73-.96-1.3-2.15-1.69-3.57a18.35 18.35 0 0 1 .07-9.48 11.29 11.29 0 0 1 1.89-3.7 8.7 8.7 0 0 1 7.06-3.34 7.96 7.96 0 0 1 6.12 2.62V15.59h3.91zM46.61 70.71V93H42.7V70.71h3.91zm.84-7c0 .39-.08.75-.24 1.09-.15.32-.35.61-.62.88-.25.25-.55.44-.9.59a2.67 2.67 0 0 1-2.16 0 2.9 2.9 0 0 1-1.45-1.47 2.67 2.67 0 0 1 0-2.16c.15-.35.35-.65.6-.9.25-.27.53-.47.85-.62a2.67 2.67 0 0 1 2.16 0c.35.15.65.35.9.62.27.25.47.55.62.9.16.34.24.7.24 1.08zm7.97 10.24c.49-.54 1-1.04 1.54-1.48a9.85 9.85 0 0 1 3.66-1.84 8.96 8.96 0 0 1 5.43.35c.94.4 1.72.97 2.33 1.71.63.74 1.11 1.62 1.43 2.67.32 1.04.49 2.19.49 3.45V93h-3.94V78.81c0-1.69-.4-3-1.17-3.92-.76-.93-1.93-1.4-3.5-1.4-1.15 0-2.24.27-3.25.83-1 .56-1.92 1.31-2.77 2.27V93h-3.94V70.71h2.35c.56 0 .9.28 1.04.82l.3 2.42zm57.7 3.3c0 2.36-.37 4.5-1.11 6.44a14.3 14.3 0 0 1-3.17 4.98c-1.37 1.37-3 2.45-4.93 3.2-1.9.76-4.02 1.13-6.33 1.13H85.8V61.47h11.77c2.31 0 4.42.39 6.33 1.15a13.8 13.8 0 0 1 8.1 8.18 17.75 17.75 0 0 1 1.12 6.45zm-4.37 0c0-1.94-.26-3.67-.8-5.2a10.94 10.94 0 0 0-2.23-3.87 9.57 9.57 0 0 0-3.53-2.42 12.23 12.23 0 0 0-4.61-.83h-7.5v24.62h7.5c1.7 0 3.24-.28 4.61-.84a9.7 9.7 0 0 0 3.53-2.4 10.94 10.94 0 0 0 2.24-3.87c.53-1.53.8-3.26.8-5.2zm19.8 5.72c-1.8.06-3.34.2-4.62.44-1.26.22-2.3.51-3.1.88-.8.36-1.37.8-1.74 1.3-.35.5-.53 1.05-.53 1.67 0 .58.1 1.1.3 1.52a3 3 0 0 0 .76 1.05c.34.27.73.46 1.17.6a6.13 6.13 0 0 0 1.45.17 7.28 7.28 0 0 0 3.5-.81 11.95 11.95 0 0 0 2.82-2.2v-4.62zm-12.65-9.11a12.73 12.73 0 0 1 3.98-2.66c1.43-.59 3-.88 4.73-.88 1.25 0 2.36.2 3.33.61a6.81 6.81 0 0 1 3.94 4.38c.33 1.04.5 2.19.5 3.43V93h-1.74a1.8 1.8 0 0 1-.88-.18c-.2-.13-.36-.38-.48-.74l-.44-2.12-1.72 1.46a9.48 9.48 0 0 1-3.74 1.7c-.69.15-1.46.23-2.3.23-.87 0-1.69-.12-2.45-.35a5.34 5.34 0 0 1-3.34-2.93 6.64 6.64 0 0 1-.49-2.64c0-.88.25-1.72.73-2.53a6.33 6.33 0 0 1 2.35-2.17c1.09-.63 2.5-1.15 4.25-1.54 1.75-.41 3.89-.65 6.42-.7v-1.75c0-1.73-.37-3.03-1.12-3.91-.75-.9-1.84-1.34-3.28-1.34-.97 0-1.78.12-2.44.37-.64.23-1.2.5-1.7.81l-1.23.82c-.33.23-.67.35-1 .35-.27 0-.5-.07-.69-.2a2.1 2.1 0 0 1-.48-.53l-.7-1.25zm27.67 19.5c-1.76 0-3.12-.5-4.07-1.48-.94-.98-1.41-2.4-1.41-4.25V74h-2.68a.9.9 0 0 1-.6-.2c-.16-.14-.24-.36-.24-.66v-1.56l3.65-.46.9-6.89c.05-.22.14-.4.29-.52a.88.88 0 0 1 .62-.22H142v7.67h6.44V74H142v13.38c0 .94.22 1.63.68 2.09.45.45 1.04.68 1.76.68a3.21 3.21 0 0 0 1.85-.53l.55-.35c.16-.12.3-.18.41-.18.2 0 .4.13.55.38l1.15 1.87a7.45 7.45 0 0 1-2.44 1.5 8.53 8.53 0 0 1-2.95.52zm19.68-10.4c-1.8.07-3.34.21-4.62.45-1.26.22-2.3.51-3.1.88-.8.36-1.37.8-1.74 1.3-.35.5-.53 1.05-.53 1.67 0 .58.1 1.1.3 1.52a2.9 2.9 0 0 0 .76 1.05c.34.27.73.46 1.17.6a6.13 6.13 0 0 0 1.45.17 7.3 7.3 0 0 0 3.5-.81 12.04 12.04 0 0 0 2.82-2.2v-4.62zm-12.65-9.1a12.72 12.72 0 0 1 3.99-2.66c1.42-.59 3-.88 4.72-.88 1.25 0 2.36.2 3.33.61a6.81 6.81 0 0 1 3.94 4.38c.33 1.04.5 2.19.5 3.43V93h-1.74a1.8 1.8 0 0 1-.88-.18c-.2-.13-.36-.38-.48-.74l-.44-2.12-1.72 1.46a9.48 9.48 0 0 1-3.74 1.7c-.69.15-1.46.23-2.3.23-.87 0-1.69-.12-2.45-.35a5.33 5.33 0 0 1-3.34-2.93 6.62 6.62 0 0 1-.49-2.64c0-.88.25-1.72.73-2.53a6.33 6.33 0 0 1 2.35-2.17c1.09-.63 2.5-1.15 4.25-1.54 1.74-.41 3.89-.65 6.42-.7v-1.75c0-1.73-.37-3.03-1.12-3.91-.75-.9-1.84-1.34-3.28-1.34-.97 0-1.78.12-2.44.37-.64.23-1.2.5-1.7.81l-1.22.82c-.34.23-.68.35-1.02.35-.26 0-.49-.07-.68-.2a1.88 1.88 0 0 1-.48-.53l-.7-1.25zM40.98 32.25c0 2.36-.38 4.53-1.12 6.51a14.26 14.26 0 0 1-8.1 8.4c-1.9.78-4.02 1.17-6.34 1.17-2.31 0-4.42-.39-6.33-1.17a14.31 14.31 0 0 1-8.08-8.4 18.29 18.29 0 0 1-1.12-6.51c0-2.36.38-4.53 1.12-6.5.75-1.97 1.8-3.67 3.17-5.1a14.32 14.32 0 0 1 4.9-3.34c1.92-.8 4.03-1.19 6.34-1.19 2.32 0 4.43.4 6.34 1.19 1.92.8 3.56 1.9 4.93 3.34a14.87 14.87 0 0 1 3.17 5.1 18.1 18.1 0 0 1 1.12 6.5zm-4.38 0c0-1.94-.26-3.68-.8-5.22a10.91 10.91 0 0 0-2.24-3.89 9.68 9.68 0 0 0-3.52-2.46 11.95 11.95 0 0 0-4.62-.86c-1.68 0-3.21.28-4.6.86a9.88 9.88 0 0 0-3.54 2.46 10.91 10.91 0 0 0-2.24 3.9c-.53 1.53-.8 3.27-.8 5.2 0 1.94.27 3.68.8 5.22a11.17 11.17 0 0 0 2.24 3.9 10.01 10.01 0 0 0 3.55 2.44c1.38.56 2.9.83 4.6.83s3.24-.27 4.61-.83a9.8 9.8 0 0 0 3.52-2.44 11.17 11.17 0 0 0 2.25-3.9c.53-1.54.8-3.28.8-5.21zm26.22-6.54V48H60.5c-.56 0-.9-.27-1.05-.81l-.31-2.4a12.45 12.45 0 0 1-3.26 2.6c-1.2.64-2.58.96-4.13.96-1.22 0-2.3-.2-3.24-.6a6.52 6.52 0 0 1-2.33-1.7 7.37 7.37 0 0 1-1.43-2.67c-.3-1.04-.46-2.2-.46-3.45V25.7h3.91v14.22c0 1.68.38 2.99 1.15 3.91.77.93 1.96 1.39 3.54 1.39 1.16 0 2.24-.27 3.23-.82a10.42 10.42 0 0 0 2.8-2.28V25.7h3.91zm8.61 4.47a9.94 9.94 0 0 1 2.6-3.56 5.64 5.64 0 0 1 3.76-1.3c.47 0 .92.05 1.34.15.44.1.83.27 1.17.49l-.3 2.92c-.09.37-.3.55-.66.55-.2 0-.5-.04-.9-.13a6.21 6.21 0 0 0-3.24.18 4.23 4.23 0 0 0-1.47.92c-.42.4-.81.9-1.17 1.5-.33.58-.64 1.26-.92 2.02V48H67.7V25.71h2.25c.42 0 .72.08.88.25.16.16.27.44.33.83l.26 3.39zm61.16-13.7L122.75 48h-3.82l-7.99-24.05a21.95 21.95 0 0 1-.42-1.58 38.36 38.36 0 0 1-.44 1.58L102.05 48h-3.83L88.4 16.47h3.54c.38 0 .7.1.95.29.26.2.43.43.5.73l6.52 21.9.28 1.28.29 1.46.3-1.46.38-1.27 7.41-21.91c.1-.25.26-.48.51-.69.27-.22.58-.33.95-.33h1.23c.38 0 .69.1.92.29a1.77 1.77 0 0 1 .53.73l7.4 21.9a28.4 28.4 0 0 1 .68 2.62 29.52 29.52 0 0 1 .52-2.61l6.54-21.91a1.31 1.31 0 0 1 .48-.7c.27-.21.58-.32.95-.32h3.32zm9.35 8.88c1.63 0 3.1.27 4.4.82a9.43 9.43 0 0 1 5.46 5.94c.5 1.4.74 2.98.74 4.73 0 1.76-.25 3.34-.74 4.75a9.43 9.43 0 0 1-5.46 5.92c-1.3.52-2.77.79-4.4.79-1.64 0-3.12-.27-4.44-.8a9.42 9.42 0 0 1-3.35-2.3c-.92-1-1.63-2.2-2.13-3.61-.49-1.41-.73-3-.73-4.75s.24-3.33.73-4.73c.5-1.43 1.2-2.64 2.13-3.63.93-1 2.04-1.77 3.35-2.31 1.32-.55 2.8-.82 4.44-.82zm0 19.89c2.2 0 3.84-.73 4.93-2.2 1.08-1.48 1.63-3.54 1.63-6.18 0-2.66-.55-4.72-1.63-6.2-1.09-1.49-2.73-2.23-4.93-2.23-1.12 0-2.09.2-2.93.57a5.71 5.71 0 0 0-2.06 1.65c-.55.72-.96 1.61-1.24 2.67-.26 1.04-.4 2.22-.4 3.54 0 2.64.55 4.7 1.64 6.18 1.1 1.47 2.76 2.2 4.99 2.2zm17.97-15.07a9.94 9.94 0 0 1 2.6-3.56 5.64 5.64 0 0 1 3.76-1.3c.47 0 .91.05 1.34.15.44.1.83.27 1.16.49l-.28 2.92c-.09.37-.31.55-.66.55-.2 0-.5-.04-.9-.13a6.2 6.2 0 0 0-3.24.18 4.23 4.23 0 0 0-1.47.92c-.43.4-.82.9-1.17 1.5a13.1 13.1 0 0 0-.92 2.02V48h-3.94V25.71h2.24c.43 0 .72.08.88.25.17.16.28.44.33.83l.27 3.39zm15.04-14.59V48h-3.92V15.6h3.92zm19.55 15.43a6.22 6.22 0 0 0-2.38-2.05 6.7 6.7 0 0 0-2.86-.6c-2.07 0-3.66.75-4.77 2.23-1.12 1.48-1.68 3.6-1.68 6.33 0 1.46.13 2.7.38 3.74a7.29 7.29 0 0 0 1.1 2.56 4.35 4.35 0 0 0 1.78 1.45c.7.3 1.5.46 2.4.46 1.29 0 2.41-.3 3.36-.88a9.6 9.6 0 0 0 2.67-2.49V31.02zm3.91-15.43V48h-2.33c-.56 0-.9-.27-1.06-.81l-.35-2.71a12.13 12.13 0 0 1-3.25 2.77 8.28 8.28 0 0 1-4.23 1.06 7.31 7.31 0 0 1-6.14-2.9c-.73-.96-1.3-2.15-1.69-3.57a18.35 18.35 0 0 1 .07-9.48 11.29 11.29 0 0 1 1.89-3.7 8.7 8.7 0 0 1 7.06-3.34 7.96 7.96 0 0 1 6.12 2.62V15.59h3.91zM46.61 70.71V93H42.7V70.71h3.91zm.84-7c0 .39-.08.75-.24 1.09-.15.32-.35.61-.62.88-.25.25-.55.44-.9.59a2.67 2.67 0 0 1-2.16 0 2.9 2.9 0 0 1-1.45-1.47 2.67 2.67 0 0 1 0-2.16c.15-.35.35-.65.6-.9.25-.27.53-.47.85-.62a2.67 2.67 0 0 1 2.16 0c.35.15.65.35.9.62.27.25.47.55.62.9.16.34.24.7.24 1.08zm7.97 10.24c.49-.54 1-1.04 1.54-1.48a9.85 9.85 0 0 1 3.66-1.84 8.96 8.96 0 0 1 5.43.35c.94.4 1.72.97 2.33 1.71.63.74 1.11 1.62 1.43 2.67.32 1.04.49 2.19.49 3.45V93h-3.94V78.81c0-1.69-.4-3-1.17-3.92-.76-.93-1.93-1.4-3.5-1.4-1.15 0-2.24.27-3.25.83-1 .56-1.92 1.31-2.77 2.27V93h-3.94V70.71h2.35c.56 0 .9.28 1.04.82l.3 2.42zm57.7 3.3c0 2.36-.37 4.5-1.11 6.44a14.3 14.3 0 0 1-3.17 4.98c-1.37 1.37-3 2.45-4.93 3.2-1.9.76-4.02 1.13-6.33 1.13H85.8V61.47h11.77c2.31 0 4.42.39 6.33 1.15a13.8 13.8 0 0 1 8.1 8.18 17.75 17.75 0 0 1 1.12 6.45zm-4.37 0c0-1.94-.26-3.67-.8-5.2a10.94 10.94 0 0 0-2.23-3.87 9.57 9.57 0 0 0-3.53-2.42 12.23 12.23 0 0 0-4.61-.83h-7.5v24.62h7.5c1.7 0 3.24-.28 4.61-.84a9.7 9.7 0 0 0 3.53-2.4 10.94 10.94 0 0 0 2.24-3.87c.53-1.53.8-3.26.8-5.2zm19.8 5.72c-1.8.06-3.34.2-4.62.44-1.26.22-2.3.51-3.1.88-.8.36-1.37.8-1.74 1.3-.35.5-.53 1.05-.53 1.67 0 .58.1 1.1.3 1.52a3 3 0 0 0 .76 1.05c.34.27.73.46 1.17.6a6.13 6.13 0 0 0 1.45.17 7.28 7.28 0 0 0 3.5-.81 11.95 11.95 0 0 0 2.82-2.2v-4.62zm-12.65-9.11a12.73 12.73 0 0 1 3.98-2.66c1.43-.59 3-.88 4.73-.88 1.25 0 2.36.2 3.33.61a6.81 6.81 0 0 1 3.94 4.38c.33 1.04.5 2.19.5 3.43V93h-1.74a1.8 1.8 0 0 1-.88-.18c-.2-.13-.36-.38-.48-.74l-.44-2.12-1.72 1.46a9.48 9.48 0 0 1-3.74 1.7c-.69.15-1.46.23-2.3.23-.87 0-1.69-.12-2.45-.35a5.34 5.34 0 0 1-3.34-2.93 6.64 6.64 0 0 1-.49-2.64c0-.88.25-1.72.73-2.53a6.33 6.33 0 0 1 2.35-2.17c1.09-.63 2.5-1.15 4.25-1.54 1.75-.41 3.89-.65 6.42-.7v-1.75c0-1.73-.37-3.03-1.12-3.91-.75-.9-1.84-1.34-3.28-1.34-.97 0-1.78.12-2.44.37-.64.23-1.2.5-1.7.81l-1.23.82c-.33.23-.67.35-1 .35-.27 0-.5-.07-.69-.2a2.1 2.1 0 0 1-.48-.53l-.7-1.25zm27.67 19.5c-1.76 0-3.12-.5-4.07-1.48-.94-.98-1.41-2.4-1.41-4.25V74h-2.68a.9.9 0 0 1-.6-.2c-.16-.14-.24-.36-.24-.66v-1.56l3.65-.46.9-6.89c.05-.22.14-.4.29-.52a.88.88 0 0 1 .62-.22H142v7.67h6.44V74H142v13.38c0 .94.22 1.63.68 2.09.45.45 1.04.68 1.76.68a3.21 3.21 0 0 0 1.85-.53l.55-.35c.16-.12.3-.18.41-.18.2 0 .4.13.55.38l1.15 1.87a7.45 7.45 0 0 1-2.44 1.5 8.53 8.53 0 0 1-2.95.52zm19.68-10.4c-1.8.07-3.34.21-4.62.45-1.26.22-2.3.51-3.1.88-.8.36-1.37.8-1.74 1.3-.35.5-.53 1.05-.53 1.67 0 .58.1 1.1.3 1.52a2.9 2.9 0 0 0 .76 1.05c.34.27.73.46 1.17.6a6.13 6.13 0 0 0 1.45.17 7.3 7.3 0 0 0 3.5-.81 12.04 12.04 0 0 0 2.82-2.2v-4.62zm-12.65-9.1a12.72 12.72 0 0 1 3.99-2.66c1.42-.59 3-.88 4.72-.88 1.25 0 2.36.2 3.33.61a6.81 6.81 0 0 1 3.94 4.38c.33 1.04.5 2.19.5 3.43V93h-1.74a1.8 1.8 0 0 1-.88-.18c-.2-.13-.36-.38-.48-.74l-.44-2.12-1.72 1.46a9.48 9.48 0 0 1-3.74 1.7c-.69.15-1.46.23-2.3.23-.87 0-1.69-.12-2.45-.35a5.33 5.33 0 0 1-3.34-2.93 6.62 6.62 0 0 1-.49-2.64c0-.88.25-1.72.73-2.53a6.33 6.33 0 0 1 2.35-2.17c1.09-.63 2.5-1.15 4.25-1.54 1.74-.41 3.89-.65 6.42-.7v-1.75c0-1.73-.37-3.03-1.12-3.91-.75-.9-1.84-1.34-3.28-1.34-.97 0-1.78.12-2.44.37-.64.23-1.2.5-1.7.81l-1.22.82c-.34.23-.68.35-1.02.35-.26 0-.49-.07-.68-.2a1.88 1.88 0 0 1-.48-.53l-.7-1.25zM40.98 32.25c0 2.36-.38 4.53-1.12 6.51a14.26 14.26 0 0 1-8.1 8.4c-1.9.78-4.02 1.17-6.34 1.17-2.31 0-4.42-.39-6.33-1.17a14.31 14.31 0 0 1-8.08-8.4 18.29 18.29 0 0 1-1.12-6.51c0-2.36.38-4.53 1.12-6.5.75-1.97 1.8-3.67 3.17-5.1a14.32 14.32 0 0 1 4.9-3.34c1.92-.8 4.03-1.19 6.34-1.19 2.32 0 4.43.4 6.34 1.19 1.92.8 3.56 1.9 4.93 3.34a14.87 14.87 0 0 1 3.17 5.1 18.1 18.1 0 0 1 1.12 6.5zm-4.38 0c0-1.94-.26-3.68-.8-5.22a10.91 10.91 0 0 0-2.24-3.89 9.68 9.68 0 0 0-3.52-2.46 11.95 11.95 0 0 0-4.62-.86c-1.68 0-3.21.28-4.6.86a9.88 9.88 0 0 0-3.54 2.46 10.91 10.91 0 0 0-2.24 3.9c-.53 1.53-.8 3.27-.8 5.2 0 1.94.27 3.68.8 5.22a11.17 11.17 0 0 0 2.24 3.9 10.01 10.01 0 0 0 3.55 2.44c1.38.56 2.9.83 4.6.83s3.24-.27 4.61-.83a9.8 9.8 0 0 0 3.52-2.44 11.17 11.17 0 0 0 2.25-3.9c.53-1.54.8-3.28.8-5.21zm26.22-6.54V48H60.5c-.56 0-.9-.27-1.05-.81l-.31-2.4a12.45 12.45 0 0 1-3.26 2.6c-1.2.64-2.58.96-4.13.96-1.22 0-2.3-.2-3.24-.6a6.52 6.52 0 0 1-2.33-1.7 7.37 7.37 0 0 1-1.43-2.67c-.3-1.04-.46-2.2-.46-3.45V25.7h3.91v14.22c0 1.68.38 2.99 1.15 3.91.77.93 1.96 1.39 3.54 1.39 1.16 0 2.24-.27 3.23-.82a10.42 10.42 0 0 0 2.8-2.28V25.7h3.91zm8.61 4.47a9.94 9.94 0 0 1 2.6-3.56 5.64 5.64 0 0 1 3.76-1.3c.47 0 .92.05 1.34.15.44.1.83.27 1.17.49l-.3 2.92c-.09.37-.3.55-.66.55-.2 0-.5-.04-.9-.13a6.21 6.21 0 0 0-3.24.18 4.23 4.23 0 0 0-1.47.92c-.42.4-.81.9-1.17 1.5-.33.58-.64 1.26-.92 2.02V48H67.7V25.71h2.25c.42 0 .72.08.88.25.16.16.27.44.33.83l.26 3.39zm61.16-13.7L122.75 48h-3.82l-7.99-24.05a21.95 21.95 0 0 1-.42-1.58 38.36 38.36 0 0 1-.44 1.58L102.05 48h-3.83L88.4 16.47h3.54c.38 0 .7.1.95.29.26.2.43.43.5.73l6.52 21.9.28 1.28.29 1.46.3-1.46.38-1.27 7.41-21.91c.1-.25.26-.48.51-.69.27-.22.58-.33.95-.33h1.23c.38 0 .69.1.92.29a1.77 1.77 0 0 1 .53.73l7.4 21.9a28.4 28.4 0 0 1 .68 2.62 29.52 29.52 0 0 1 .52-2.61l6.54-21.91a1.31 1.31 0 0 1 .48-.7c.27-.21.58-.32.95-.32h3.32zm9.35 8.88c1.63 0 3.1.27 4.4.82a9.43 9.43 0 0 1 5.46 5.94c.5 1.4.74 2.98.74 4.73 0 1.76-.25 3.34-.74 4.75a9.43 9.43 0 0 1-5.46 5.92c-1.3.52-2.77.79-4.4.79-1.64 0-3.12-.27-4.44-.8a9.42 9.42 0 0 1-3.35-2.3c-.92-1-1.63-2.2-2.13-3.61-.49-1.41-.73-3-.73-4.75s.24-3.33.73-4.73c.5-1.43 1.2-2.64 2.13-3.63.93-1 2.04-1.77 3.35-2.31 1.32-.55 2.8-.82 4.44-.82zm0 19.89c2.2 0 3.84-.73 4.93-2.2 1.08-1.48 1.63-3.54 1.63-6.18 0-2.66-.55-4.72-1.63-6.2-1.09-1.49-2.73-2.23-4.93-2.23-1.12 0-2.09.2-2.93.57a5.71 5.71 0 0 0-2.06 1.65c-.55.72-.96 1.61-1.24 2.67-.26 1.04-.4 2.22-.4 3.54 0 2.64.55 4.7 1.64 6.18 1.1 1.47 2.76 2.2 4.99 2.2zm17.97-15.07a9.94 9.94 0 0 1 2.6-3.56 5.64 5.64 0 0 1 3.76-1.3c.47 0 .91.05 1.34.15.44.1.83.27 1.16.49l-.28 2.92c-.09.37-.31.55-.66.55-.2 0-.5-.04-.9-.13a6.2 6.2 0 0 0-3.24.18 4.23 4.23 0 0 0-1.47.92c-.43.4-.82.9-1.17 1.5a13.1 13.1 0 0 0-.92 2.02V48h-3.94V25.71h2.24c.43 0 .72.08.88.25.17.16.28.44.33.83l.27 3.39zm15.04-14.59V48h-3.92V15.6h3.92zm19.55 15.43a6.22 6.22 0 0 0-2.38-2.05 6.7 6.7 0 0 0-2.86-.6c-2.07 0-3.66.75-4.77 2.23-1.12 1.48-1.68 3.6-1.68 6.33 0 1.46.13 2.7.38 3.74a7.29 7.29 0 0 0 1.1 2.56 4.35 4.35 0 0 0 1.78 1.45c.7.3 1.5.46 2.4.46 1.29 0 2.41-.3 3.36-.88a9.6 9.6 0 0 0 2.67-2.49V31.02zm3.91-15.43V48h-2.33c-.56 0-.9-.27-1.06-.81l-.35-2.71a12.13 12.13 0 0 1-3.25 2.77 8.28 8.28 0 0 1-4.23 1.06 7.31 7.31 0 0 1-6.14-2.9c-.73-.96-1.3-2.15-1.69-3.57a18.35 18.35 0 0 1 .07-9.48 11.29 11.29 0 0 1 1.89-3.7 8.7 8.7 0 0 1 7.06-3.34 7.96 7.96 0 0 1 6.12 2.62V15.59h3.91zM46.61 70.71V93H42.7V70.71h3.91zm.84-7c0 .39-.08.75-.24 1.09-.15.32-.35.61-.62.88-.25.25-.55.44-.9.59a2.67 2.67 0 0 1-2.16 0 2.9 2.9 0 0 1-1.45-1.47 2.67 2.67 0 0 1 0-2.16c.15-.35.35-.65.6-.9.25-.27.53-.47.85-.62a2.67 2.67 0 0 1 2.16 0c.35.15.65.35.9.62.27.25.47.55.62.9.16.34.24.7.24 1.08zm7.97 10.24c.49-.54 1-1.04 1.54-1.48a9.85 9.85 0 0 1 3.66-1.84 8.96 8.96 0 0 1 5.43.35c.94.4 1.72.97 2.33 1.71.63.74 1.11 1.62 1.43 2.67.32 1.04.49 2.19.49 3.45V93h-3.94V78.81c0-1.69-.4-3-1.17-3.92-.76-.93-1.93-1.4-3.5-1.4-1.15 0-2.24.27-3.25.83-1 .56-1.92 1.31-2.77 2.27V93h-3.94V70.71h2.35c.56 0 .9.28 1.04.82l.3 2.42zm57.7 3.3c0 2.36-.37 4.5-1.11 6.44a14.3 14.3 0 0 1-3.17 4.98c-1.37 1.37-3 2.45-4.93 3.2-1.9.76-4.02 1.13-6.33 1.13H85.8V61.47h11.77c2.31 0 4.42.39 6.33 1.15a13.8 13.8 0 0 1 8.1 8.18 17.75 17.75 0 0 1 1.12 6.45zm-4.37 0c0-1.94-.26-3.67-.8-5.2a10.94 10.94 0 0 0-2.23-3.87 9.57 9.57 0 0 0-3.53-2.42 12.23 12.23 0 0 0-4.61-.83h-7.5v24.62h7.5c1.7 0 3.24-.28 4.61-.84a9.7 9.7 0 0 0 3.53-2.4 10.94 10.94 0 0 0 2.24-3.87c.53-1.53.8-3.26.8-5.2zm19.8 5.72c-1.8.06-3.34.2-4.62.44-1.26.22-2.3.51-3.1.88-.8.36-1.37.8-1.74 1.3-.35.5-.53 1.05-.53 1.67 0 .58.1 1.1.3 1.52a3 3 0 0 0 .76 1.05c.34.27.73.46 1.17.6a6.13 6.13 0 0 0 1.45.17 7.28 7.28 0 0 0 3.5-.81 11.95 11.95 0 0 0 2.82-2.2v-4.62zm-12.65-9.11a12.73 12.73 0 0 1 3.98-2.66c1.43-.59 3-.88 4.73-.88 1.25 0 2.36.2 3.33.61a6.81 6.81 0 0 1 3.94 4.38c.33 1.04.5 2.19.5 3.43V93h-1.74a1.8 1.8 0 0 1-.88-.18c-.2-.13-.36-.38-.48-.74l-.44-2.12-1.72 1.46a9.48 9.48 0 0 1-3.74 1.7c-.69.15-1.46.23-2.3.23-.87 0-1.69-.12-2.45-.35a5.34 5.34 0 0 1-3.34-2.93 6.64 6.64 0 0 1-.49-2.64c0-.88.25-1.72.73-2.53a6.33 6.33 0 0 1 2.35-2.17c1.09-.63 2.5-1.15 4.25-1.54 1.75-.41 3.89-.65 6.42-.7v-1.75c0-1.73-.37-3.03-1.12-3.91-.75-.9-1.84-1.34-3.28-1.34-.97 0-1.78.12-2.44.37-.64.23-1.2.5-1.7.81l-1.23.82c-.33.23-.67.35-1 .35-.27 0-.5-.07-.69-.2a2.1 2.1 0 0 1-.48-.53l-.7-1.25zm27.67 19.5c-1.76 0-3.12-.5-4.07-1.48-.94-.98-1.41-2.4-1.41-4.25V74h-2.68a.9.9 0 0 1-.6-.2c-.16-.14-.24-.36-.24-.66v-1.56l3.65-.46.9-6.89c.05-.22.14-.4.29-.52a.88.88 0 0 1 .62-.22H142v7.67h6.44V74H142v13.38c0 .94.22 1.63.68 2.09.45.45 1.04.68 1.76.68a3.21 3.21 0 0 0 1.85-.53l.55-.35c.16-.12.3-.18.41-.18.2 0 .4.13.55.38l1.15 1.87a7.45 7.45 0 0 1-2.44 1.5 8.53 8.53 0 0 1-2.95.52zm19.68-10.4c-1.8.07-3.34.21-4.62.45-1.26.22-2.3.51-3.1.88-.8.36-1.37.8-1.74 1.3-.35.5-.53 1.05-.53 1.67 0 .58.1 1.1.3 1.52a2.9 2.9 0 0 0 .76 1.05c.34.27.73.46 1.17.6a6.13 6.13 0 0 0 1.45.17 7.3 7.3 0 0 0 3.5-.81 12.04 12.04 0 0 0 2.82-2.2v-4.62zm-12.65-9.1a12.72 12.72 0 0 1 3.99-2.66c1.42-.59 3-.88 4.72-.88 1.25 0 2.36.2 3.33.61a6.81 6.81 0 0 1 3.94 4.38c.33 1.04.5 2.19.5 3.43V93h-1.74a1.8 1.8 0 0 1-.88-.18c-.2-.13-.36-.38-.48-.74l-.44-2.12-1.72 1.46a9.48 9.48 0 0 1-3.74 1.7c-.69.15-1.46.23-2.3.23-.87 0-1.69-.12-2.45-.35a5.33 5.33 0 0 1-3.34-2.93 6.62 6.62 0 0 1-.49-2.64c0-.88.25-1.72.73-2.53a6.33 6.33 0 0 1 2.35-2.17c1.09-.63 2.5-1.15 4.25-1.54 1.74-.41 3.89-.65 6.42-.7v-1.75c0-1.73-.37-3.03-1.12-3.91-.75-.9-1.84-1.34-3.28-1.34-.97 0-1.78.12-2.44.37-.64.23-1.2.5-1.7.81l-1.22.82c-.34.23-.68.35-1.02.35-.26 0-.49-.07-.68-.2a1.88 1.88 0 0 1-.48-.53l-.7-1.25z"
    fill="#fff"
  />
  <path fill="#D42B21" d="M0 106.79h210V120H0z" />
</g>
<defs>
  <clipPath id="clip0"><path fill="#fff" d="M0 0h210v120H0z" /></clipPath>
</defs>
</svg></g><a href="https://ourworldindata.org/grapher/gdp-per-capita-maddison-2020?time=1000..2018&amp;country=USA~CHN~FRA~IND~MEX~BRA" style="font-family:&quot;Playfair Display&quot;, Georgia, &quot;Times New Roman&quot;, serif" target="_blank" rel="noopener"><text font-size="25.20" x="15.0" y="35.2" fill="#555"><tspan x="15" y="35.160000000000004">GDP per capita, 1000 to 2018</tspan></text></a><text font-size="14.40" x="15.0" y="55.7" fill="#666"><tspan x="15" y="55.72">GDP per capita adjusted for price changes over time (inflation) and price differences between countries – it is</tspan><tspan x="15" y="73">measured in international-$ in 2011 prices.</tspan></text></g><g class="LineChart"><defs><clipPath id="boundsClip-10"><rect x="68.968" y="82.2" width="840" height="475.2"></rect></clipPath></defs><g class="DualAxisView"><g class="HorizontalAxis"><line x1="79" y1="526.2" x2="79" y2="531.2" stroke="#999"></line><line x1="718.6" y1="526.2" x2="718.6" y2="531.2" stroke="#999"></line><line x1="204.6" y1="526.2" x2="204.6" y2="531.2" stroke="#999"></line><line x1="330.3" y1="526.2" x2="330.3" y2="531.2" stroke="#999"></line><line x1="456" y1="526.2" x2="456" y2="531.2" stroke="#999"></line><line x1="581.6" y1="526.2" x2="581.6" y2="531.2" stroke="#999"></line><text x="78.968" y="547.4" fill="#666" text-anchor="start" font-size="16.2">1000</text><text x="718.595" y="547.4" fill="#666" text-anchor="end" font-size="16.2">2018</text><text x="204.6" y="547.4" fill="#666" text-anchor="middle" font-size="16.2">1200</text><text x="330.3" y="547.4" fill="#666" text-anchor="middle" font-size="16.2">1400</text><text x="456" y="547.4" fill="#666" text-anchor="middle" font-size="16.2">1600</text><text x="581.6" y="547.4" fill="#666" text-anchor="middle" font-size="16.2">1800</text></g><g class="VerticalAxis"><text x="73.97" y="526.2" dy=".32em" text-anchor="end" fill="#666" font-size="16.2">$0</text><text x="73.97" y="447.8" dy=".32em" text-anchor="end" fill="#666" font-size="16.2">$10,000</text><text x="73.97" y="369.3" dy=".32em" text-anchor="end" fill="#666" font-size="16.2">$20,000</text><text x="73.97" y="290.9" dy=".32em" text-anchor="end" fill="#666" font-size="16.2">$30,000</text><text x="73.97" y="212.5" dy=".32em" text-anchor="end" fill="#666" font-size="16.2">$40,000</text><text x="73.97" y="134" dy=".32em" text-anchor="end" fill="#666" font-size="16.2">$50,000</text></g><g class="AxisGridLines horizontalLines"><line x1="78.97" y1="526.2" x2="718.60" y2="526.2" stroke="#999"></line><line x1="78.97" y1="447.8" x2="718.60" y2="447.8" stroke="#ddd" stroke-dasharray="3,2"></line><line x1="78.97" y1="369.3" x2="718.60" y2="369.3" stroke="#ddd" stroke-dasharray="3,2"></line><line x1="78.97" y1="290.9" x2="718.60" y2="290.9" stroke="#ddd" stroke-dasharray="3,2"></line><line x1="78.97" y1="212.5" x2="718.60" y2="212.5" stroke="#ddd" stroke-dasharray="3,2"></line><line x1="78.97" y1="134" x2="718.60" y2="134" stroke="#ddd" stroke-dasharray="3,2"></line></g></g><g clip-path="url(#boundsClip-10)"><g class="LineLabels" style="cursor:default"><g class="legendMark"><rect x="718.595" y="92.2" width="116.405" height="13.5" fill="#fff" opacity="0"></rect><text font-size="13.50" font-weight="400" x="722.6" y="103.0" fill="#00847e"><tspan x="722.595" y="103">United States</tspan></text></g><g class="legendMark"><rect x="718.595" y="217.35" width="77.12" height="13.5" fill="#fff" opacity="0"></rect><text font-size="13.50" font-weight="400" x="722.6" y="228.2" fill="#c05917"><tspan x="722.595" y="228.15">France</tspan></text></g><g class="legendMark"><rect x="718.595" y="390.05" width="77.795" height="13.5" fill="#fff" opacity="0"></rect><text font-size="13.50" font-weight="400" x="722.6" y="400.9" fill="#287669"><tspan x="722.595" y="400.85">Mexico</tspan></text></g><g class="legendMark"><rect x="718.595" y="405.25" width="68.75" height="13.5" fill="#fff" opacity="0"></rect><text font-size="13.50" font-weight="400" x="722.6" y="416.1" fill="#cd2285"><tspan x="722.595" y="416.05">Brazil</tspan></text></g><g class="legendMark"><rect x="718.595" y="420.75" width="70.37" height="13.5" fill="#fff" opacity="0"></rect><text font-size="13.50" font-weight="400" x="722.6" y="431.6" fill="#3c4e66"><tspan x="722.595" y="431.55">China</tspan></text></g><g class="legendMark"><rect x="718.595" y="466.05" width="64.43" height="13.5" fill="#fff" opacity="0"></rect><text font-size="13.50" font-weight="400" x="722.6" y="476.9" fill="#d73c50"><tspan x="722.595" y="476.85">India</tspan></text></g></g><g class="Lines"><rect x="79" y="92" width="640" height="434" fill="rgba(255,255,255,0)" opacity="0"></rect><g><path stroke-linecap="round" stroke-linejoin="round" stroke="#ddd" d="M581.6 519.4L594.2 519.4L613 519.4L613.7 518.9L614.3 519.1L614.9 519.6L615.6 519.8L616.2 519.7L616.8 519.5L617.4 519L618.1 518.6L618.7 518.6L619.3 518.4L619.9 518.5L620.6 518.9L621.2 518.7L621.8 518.6L622.5 518L623.1 517.7L623.7 517L624.3 517L625 517L625.6 517.7L626.2 517.7L626.9 517.4L627.5 517.7L628.1 517.5L628.7 517.4L629.4 517.7L630 518L630.6 517.6L631.3 517.5L631.9 517.9L632.5 517.8L633.1 517.6L633.8 517.9L634.4 517.3L635 517.9L635.7 517.7L636.3 518.2L636.9 518.5L637.5 518.4L638.2 517.7L638.8 517.2L639.4 518.4L640.1 519.5L640.7 519.5L641.3 518.3L641.9 519L642.6 519.1L643.2 519L643.8 519.1L644.5 519.3L645.1 518.8L645.7 519L646.3 519L647 519L647.6 518.9L648.2 518.4L648.9 518.6L649.5 518.8L650.1 518.4L650.7 518.4L651.4 517.8L652 518L652.6 518L653.3 518.3L653.9 518.1L654.5 518.1L655.1 517.7L655.8 518L656.4 517.1L657 516.5L657.6 516.5L658.3 516L658.9 515.6L659.5 515.8L660.2 516L660.8 516L661.4 515.5L662 514.5L662.7 514.7L663.3 515.6L663.9 516.1L664.6 515.9L665.2 515.3L665.8 514.7L666.4 514.6L667.1 513.7L667.7 513.6L668.3 513.3L669 513.4L669.6 513.6L670.2 513L670.8 513.8L671.5 512.4L672.1 512.2L672.7 512.1L673.4 511L674 510.9L674.6 509.8L675.2 508.9L675.9 508.7L676.5 508.3L677.1 507.6L677.8 507.2L678.4 506.3L679 505.2L679.6 505.2L680.3 504.3L680.9 502.6L681.5 501.1L682.2 499.5L682.8 498.1L683.4 497.1L684 497.8L684.7 497.7L685.3 497.8L685.9 496.8L686.6 496.4L687.2 494.4L687.8 492.4L688.4 489.8L689.1 486.8L689.7 483.2L690.3 478.5L690.9 475.9L691.6 474.6L692.2 470.7L692.8 469.4L693.5 468L694.1 465.5L694.7 461.5L695.3 465.7L696 466.7L696.6 469.7L697.2 467.9L697.9 464.5L698.5 461.3L699.1 460.3L699.7 461.7L700.4 460.8L701 464.7L701.6 464.3L702.3 464.9L702.9 462.2L703.5 458.6L704.1 456L704.8 454.6L705.4 452.4L706 452.3L706.7 452.1L707.3 449.1L707.9 448.1L708.5 445.8L709.2 445L709.8 440.3L710.4 437.5L711.1 433.9L711.7 428.2L712.3 423L712.9 422.8L713.6 414.7L714.2 409.9L714.8 408.7L715.5 406.2L716.1 406.5L716.7 402.1L717.3 417.4L718 416.8L718.6 416.1" fill="none" stroke-width="1"></path></g><g><path stroke-linecap="round" stroke-linejoin="round" stroke="#ddd" d="M487.4 519.2L531.4 512.3L565.9 507.2L581.6 506.2L582.3 505.9L582.9 505.5L583.5 505.9L584.1 505.9L584.8 505.5L585.4 505.1L586 504.9L586.6 506.4L587.3 505.4L587.9 504.8L588.5 504.4L589.2 504.8L589.8 504.5L590.4 504.1L591 504.2L591.7 505.1L592.3 505.1L592.9 505.1L593.6 505.1L594.2 505.2L594.8 504.9L595.4 504.3L596.1 504.6L596.7 504L597.3 503.5L598 503.3L598.6 503.2L599.2 503.2L599.8 504L600.5 502.4L601.1 500.9L601.7 500L602.4 499.1L603 500.4L603.6 499.4L604.2 499L604.9 499.8L605.5 500.1L606.1 498.8L606.8 500.2L607.4 500.7L608 500.9L608.6 500.5L609.3 499.1L609.9 498.7L610.5 498.5L611.2 497.8L611.8 497.1L612.4 497.8L613 497.7L613.7 496.6L614.3 495.1L614.9 492.9L615.6 492.8L616.2 493.6L616.8 492.9L617.4 493.6L618.1 493.4L618.7 492.6L619.3 491.7L619.9 492.4L620.6 491.3L621.2 489.1L621.8 487.9L622.5 489.8L623.1 490.1L623.7 488.9L624.3 488.4L625 487.4L625.6 488.5L626.2 487.6L626.9 487L627.5 486.1L628.1 487.3L628.7 486.2L629.4 486.6L630 486.2L630.6 485.4L631.3 481.4L631.9 477.1L632.5 476.7L633.1 474.8L633.8 474.8L634.4 475L635 475.8L635.7 475.4L636.3 474.3L636.9 475.6L637.5 473.6L638.2 473.9L638.8 472.8L639.4 468.8L640.1 472.6L640.7 475.1L641.3 470L641.9 472.2L642.6 468.1L643.2 467.9L643.8 463.8L644.5 463.2L645.1 457.4L645.7 458.1L646.3 456.1L647 458.2L647.6 454.7L648.2 447.9L648.9 448.2L649.5 455.8L650.1 449.4L650.7 450.6L651.4 449.8L652 448L652.6 446.9L653.3 454.9L653.9 454.3L654.5 446L655.1 449.6L655.8 444.1L656.4 444.2L657 446.6L657.6 450.3L658.3 447.7L658.9 439.4L659.5 438.9L660.2 438.8L660.8 434.8L661.4 435.7L662 436.4L662.7 432.4L663.3 442.3L663.9 448.3L664.6 460.5L665.2 463.1L665.8 458.2L666.4 450.3L667.1 443.3L667.7 437.6L668.3 443.6L669 438.6L669.6 432L670.2 419.9L670.8 409.6L671.5 400.3L672.1 392.9L672.7 397L673.4 409.9L674 414L674.6 410.6L675.2 414.9L675.9 406.7L676.5 399.7L677.1 397.2L677.8 393.5L678.4 396.7L679 390L679.6 389.8L680.3 389.7L680.9 393.3L681.5 385.8L682.2 384.6L682.8 383.7L683.4 377.4L684 373.1L684.7 366.5L685.3 358.4L685.9 349.5L686.6 347L687.2 340.4L687.8 336.4L688.4 338.3L689.1 334.9L689.7 326.9L690.3 317.6L690.9 320L691.6 322.6L692.2 314L692.8 306.6L693.5 296.5L694.1 291.3L694.7 294L695.3 290.5L696 297.1L696.6 289.7L697.2 274.6L697.9 267.2L698.5 260.7L699.1 253.8L699.7 244.9L700.4 237.9L701 236.1L701.6 240.2L702.3 234.1L702.9 230L703.5 221.8L704.1 217.3L704.8 209.2L705.4 199L706 188.4L706.7 176.6L707.3 166.3L707.9 166.4L708.5 163.3L709.2 156.3L709.8 145.9L710.4 136.7L711.1 130.2L711.7 127L712.3 131.9L712.9 146.2L713.6 139.8L714.2 136.6L714.8 131L715.5 127.3L716.1 121L716.7 113.7L717.3 110.4L718 102.6L718.6 92.2" fill="none" stroke-width="1"></path></g><g><path stroke-linecap="round" stroke-linejoin="round" stroke="#ddd" d="M456 516.3L487.4 516.9L518.8 517.1L550.2 517.8L582.3 518.1L588.5 518.5L594.8 518.9L601.1 518.8L607.4 518.8L613 518.8L613.7 518.8L619.9 519.2L625.6 519.5L634.4 519.3L635 519.1L635.7 519.3L636.3 519L636.9 519L637.5 519.2L638.2 518.9L638.8 519.6L639.4 519.1L640.1 518.9L640.7 518.8L641.3 519L641.9 519.5L642.6 518.3L643.2 518.3L643.8 518.9L644.5 518.7L645.1 518.6L645.7 518L646.3 517.9L647 518L647.6 518.2L648.2 518L648.9 518.5L649.5 518.5L650.1 517.4L650.7 517.5L651.4 517.6L652 517.6L652.6 517.8L653.3 517.3L653.9 517.6L654.5 517.3L655.1 517.5L655.8 518.6L656.4 517.6L657 518.3L657.6 517.7L658.3 517.4L658.9 517.8L659.5 517.5L660.2 517.5L660.8 517.3L661.4 517.4L662 517.4L662.7 517.1L663.3 517.1L663.9 517.3L664.6 517.3L665.2 517.4L665.8 517.5L666.4 517.7L667.1 517.5L667.7 517.7L668.3 517.8L669 517.8L669.6 517.6L670.2 517.6L670.8 517.7L671.5 517.5L672.1 517.7L672.7 517.9L673.4 518.4L674 518.5L674.6 518.5L675.2 518.4L675.9 518.5L676.5 518.4L677.1 518.3L677.8 518L678.4 517.8L679 517.7L679.6 517.4L680.3 517.7L680.9 517.3L681.5 517.2L682.2 516.8L682.8 516.7L683.4 516.7L684 516.5L684.7 515.9L685.3 516.6L685.9 516.7L686.6 516.1L687.2 516.1L687.8 515.6L688.4 515.3L689.1 515.5L689.7 515.8L690.3 515.5L690.9 515.7L691.6 515L692.2 515.1L692.8 514.5L693.5 514.1L694.1 515L694.7 514.5L695.3 514L696 513.9L696.6 513.2L697.2 512.9L697.9 512.7L698.5 512.4L699.1 512.1L699.7 511L700.4 510.3L701 509.8L701.6 510L702.3 509.6L702.9 509.1L703.5 508.5L704.1 507.7L704.8 506.8L705.4 506.5L706 505.7L706.7 505L707.3 504.6L707.9 503.9L708.5 503.7L709.2 502.4L709.8 501L710.4 499.6L711.1 497.7L711.7 495.8L712.3 494.6L712.9 492.7L713.6 490.7L714.2 488.8L714.8 487.5L715.5 485.6L716.1 483.4L716.7 480.8L717.3 478.2L718 475.6L718.6 472.8" fill="none" stroke-width="1"></path></g><g><path stroke-linecap="round" stroke-linejoin="round" stroke="#ddd" d="M424.5 521.7L437.1 521.4L452.8 520.3L453.4 520.3L454.1 520.4L454.7 520.4L455.3 520.2L456 519.9L456.6 519.8L457.2 519.8L457.8 519.7L458.5 519.5L459.1 519.4L459.7 519.2L460.4 519.1L461 518.9L461.6 518.6L462.2 518.5L462.9 518.5L463.5 518.3L464.1 518.3L464.8 518.3L465.4 518.4L466 518.4L466.6 518.4L467.3 518.3L467.9 518.5L468.5 518.3L469.2 518.2L469.8 518.2L470.4 518.2L471 518.2L471.7 518.2L472.3 518L472.9 517.7L473.6 517.7L474.2 517.7L474.8 517.4L475.4 517.4L476.1 517.4L476.7 517.4L477.3 517.4L477.9 517.3L478.6 517.2L479.2 517.3L479.8 517.6L480.5 517.6L481.1 517.7L481.7 517.7L482.3 517.6L483 517.7L483.6 517.7L484.2 517.7L484.9 517.7L485.5 517.7L486.1 517.4L486.7 517.2L487.4 517L488 517.1L488.6 517L489.3 517.1L489.9 517.1L490.5 517L491.1 517.1L491.8 517.2L492.4 517.2L493 517.1L493.7 517L494.3 516.9L494.9 516.9L495.5 517L496.2 516.7L496.8 516.2L497.4 515.7L498.1 515.4L498.7 515.3L499.3 515.2L499.9 515L500.6 514.8L501.2 514.8L501.8 514.7L502.5 514.6L503.1 514.8L503.7 515.3L504.3 515.6L505 515.8L505.6 515.9L506.2 516L506.9 516.3L507.5 516.6L508.1 516.7L508.7 516.6L509.4 516.3L510 516.2L510.6 516.2L511.3 516.2L511.9 516.1L512.5 516.2L513.1 516.3L513.8 516L514.4 515.8L515 515.4L515.6 515.4L516.3 515.4L516.9 515.3L517.5 515.1L518.2 514.9L518.8 514.6L519.4 514.5L520 514.1L520.7 513.9L521.3 514.1L521.9 514.6L522.6 514.7L523.2 515L523.8 515.2L524.4 514.9L525.1 514.5L525.7 514.3L526.3 514.1L527 514.2L527.6 514.5L528.2 514.4L528.8 514.2L529.5 514.2L530.1 514.1L530.7 514L531.4 514.3L532 514.8L532.6 515.3L533.2 515.6L533.9 515.6L534.5 515.6L535.1 515.7L535.8 515.7L536.4 515.8L537 515.8L537.6 515.8L538.3 515.6L538.9 515.5L539.5 515.6L540.2 515.7L540.8 515.8L541.4 515.9L542 516L542.7 515.9L543.3 515.8L543.9 515.8L544.6 516L545.2 516.2L545.8 516.2L546.4 516.4L547.1 516.5L547.7 516.4L548.3 516.1L548.9 515.9L549.6 516L550.2 516L550.8 516L551.5 515.5L552.1 515.2L552.7 515.1L553.3 515L554 514.8L554.6 514.7L555.2 514.7L555.9 514.7L556.5 514.6L557.1 514.5L557.7 514.5L558.4 515.1L559 515.3L559.6 515.3L560.3 515.2L560.9 515.2L561.5 515.3L562.1 515.4L562.8 515.3L563.4 515.5L564 515.4L564.7 515.3L565.3 515L565.9 514.9L566.5 514.9L567.2 514.9L567.8 514.7L568.4 514.6L569.1 514.7L569.7 515L570.3 515.2L570.9 515.6L571.6 515.9L572.2 516.1L572.8 516L573.5 516L574.1 516L574.7 516L575.3 516L576 515.8L576.6 515.6L577.2 515.4L577.9 515.3L578.5 515.3L579.1 515.4L579.7 515.6L580.4 515.7L581 515.8L581.6 516L582.3 516L582.9 516.2L583.5 516.3L584.1 516.5L584.8 516.6L585.4 516.8L586 517L586.6 517.2L587.3 517.5L587.9 517.8L588.5 518L594.2 518.3L613 517.9L619.3 519L625.6 518L638.2 513.9L641.3 512.4L641.9 512.2L642.6 511.5L643.2 510.8L643.8 511.8L644.5 511.9L645.1 510.9L645.7 512.1L646.3 510.7L647 510.6L647.6 509.1L648.2 509.5L648.9 508.7L649.5 508.9L650.1 508.6L650.7 508.6L651.4 509.3L652 509.5L652.6 510.5L653.3 510.5L653.9 510.7L654.5 509.5L655.1 508.8L655.8 508.1L656.4 507.4L657 506.2L657.6 506.3L658.3 506.1L658.9 505.7L659.5 506.4L660.2 505.5L660.8 504.6L661.4 505.9L662 506.1L662.7 507.2L663.3 508.7L663.9 508.4L664.6 511.4L665.2 510L665.8 509.1L666.4 508.2L667.1 507L667.7 506.7L668.3 506.8L669 506L669.6 506.1L670.2 504.7L670.8 504.1L671.5 503.9L672.1 502.7L672.7 502.6L673.4 501.7L674 501.5L674.6 501.2L675.2 500.5L675.9 498.7L676.5 497.4L677.1 497.1L677.8 497.9L678.4 496L679 494.4L679.6 493.2L680.3 491.7L680.9 490.9L681.5 490.9L682.2 489.2L682.8 488.5L683.4 487.9L684 486.1L684.7 482.6L685.3 481.2L685.9 479.5L686.6 478.1L687.2 475.8L687.8 474.2L688.4 472.3L689.1 472L689.7 469.3L690.3 466.6L690.9 465L691.6 463.4L692.2 462.4L692.8 462.1L693.5 458L694.1 453.2L694.7 448.3L695.3 443.5L696 445.9L696.6 450.5L697.2 449.5L697.9 449.5L698.5 453.4L699.1 453.6L699.7 454.1L700.4 452.5L701 450.1L701.6 447.7L702.3 445.7L702.9 445L703.5 442.1L704.1 448.2L704.8 444.7L705.4 439.7L706 435.9L706.7 432.9L707.3 427.3L707.9 427.6L708.5 427L709.2 425.9L709.8 422L710.4 419.1L711.1 414.1L711.7 411L712.3 410.1L712.9 416.2L713.6 410.9L714.2 406.9L714.8 403.5L715.5 403.2L716.1 401.8L716.7 400L717.3 399.7L718 398.3L718.6 396.8" fill="none" stroke-width="1"></path></g><g><path stroke-linecap="round" stroke-linejoin="round" stroke="#ddd" d="M254.9 515.8L255.5 516.1L256.2 516.4L256.8 516.5L257.4 516.6L258 516.4L258.7 516.4L259.3 516.2L259.9 516L260.6 515.8L261.2 515.8L261.8 515.8L262.4 515.7L263.1 515.6L263.7 516.2L264.3 516.6L264.9 516.4L265.6 516.1L266.2 515.7L266.8 515.3L267.5 515L268.1 514.8L268.7 514.4L269.3 514.1L270 514L270.6 513.6L271.2 512.8L271.9 512.5L272.5 512.2L273.1 512.1L273.7 512L274.4 512.1L275 511.8L275.6 512.4L276.3 512.5L276.9 512.9L277.5 513L278.1 512.9L278.8 512.8L279.4 512.8L280 513.6L280.7 513.6L281.3 513.6L281.9 513.3L282.5 513.2L283.2 512.6L283.8 512.6L284.4 512.9L285.1 513L285.7 513.3L286.3 513.6L286.9 513.8L287.6 513.8L288.2 513.7L288.8 513L289.5 512.9L290.1 512.8L290.7 512.5L291.3 512.8L292 512.9L292.6 513L293.2 513L293.9 513.2L294.5 513L295.1 513L295.7 513L296.4 512.6L297 512.1L297.6 511.7L298.3 511.7L298.9 511.3L299.5 511.3L300.1 511.4L300.8 511.4L301.4 510.9L302 510.9L302.6 511.2L303.3 511.3L303.9 511.3L304.5 511.6L305.2 511.7L305.8 511.7L306.4 511.6L307 511.6L307.7 511.4L308.3 511.4L308.9 511.6L309.6 511.6L310.2 511.4L310.8 511.3L311.4 511.2L312.1 511.3L312.7 511.3L313.3 511.4L314 511.6L314.6 511.6L315.2 511.7L315.8 511.8L316.5 511.8L317.1 511.8L317.7 512L318.4 512.1L319 512.2L319.6 512.4L320.2 512.4L320.9 512.4L321.5 512.2L322.1 512.1L322.8 512L323.4 511.7L324 511.4L324.6 511.4L325.3 511.4L325.9 511.6L326.5 511.6L327.2 511.7L327.8 511.4L328.4 511.6L329 511.6L329.7 511.7L330.3 512.1L330.9 512.2L331.6 512.4L332.2 512.5L332.8 512.6L333.4 512.5L334.1 512.5L334.7 512.4L335.3 512.4L335.9 512.4L336.6 512.4L337.2 512.4L337.8 512.5L338.5 512.5L339.1 512.5L339.7 512.5L340.3 512.5L341 512.6L341.6 512.6L342.2 512.6L342.9 512.6L343.5 512.6L344.1 512.5L344.7 512.5L345.4 512.5L346 512.5L346.6 512.4L347.3 512.5L347.9 512.4L348.5 512.4L349.1 512.4L349.8 512.2L350.4 512.2L351 512.2L351.7 512.2L352.3 512.2L352.9 512.2L353.5 512.1L354.2 512.1L354.8 512.1L355.4 512.1L356.1 512.1L356.7 512.1L357.3 512L357.9 512L358.6 512L359.2 512L359.8 511.8L360.5 512L361.1 512L361.7 512L362.3 512L363 512.1L363.6 512L364.2 512.1L364.9 512.1L365.5 512.2L366.1 512.2L366.7 512.4L367.4 512.4L368 512.5L368.6 512.6L369.3 512.6L369.9 512.8L370.5 512.8L371.1 512.8L371.8 512.8L372.4 512.8L373 512.8L373.6 512.6L374.3 512.6L374.9 512.5L375.5 512.2L376.2 512.2L376.8 512.4L377.4 512.5L378 512.8L378.7 513L379.3 513L379.9 513.2L380.6 513L381.2 513L381.8 512.8L382.4 512.8L383.1 512.6L383.7 512.6L384.3 512.6L385 512.5L385.6 512.5L386.2 512.5L386.8 512.5L387.5 512.5L388.1 512.5L388.7 512.5L389.4 512.6L390 512.6L390.6 512.6L391.2 512.6L391.9 512.6L392.5 512.8L393.1 512.9L393.8 512.8L394.4 512.9L395 513L395.6 513L396.3 513L396.9 513.2L397.5 513.2L398.2 513L398.8 513.2L399.4 513.2L400 513.2L400.7 513.2L401.3 513.3L401.9 513.3L402.6 513.3L403.2 513.3L403.8 513.4L404.4 513.3L405.1 513.3L405.7 513.3L406.3 513.3L406.9 513.3L407.6 513.3L408.2 513.3L408.8 513.3L409.5 513.3L410.1 513.3L410.7 513.3L411.3 513.3L412 513.3L412.6 513.3L413.2 513.3L413.9 513.3L414.5 513.3L415.1 513.3L415.7 513.3L416.4 513.3L417 513.6L417.6 513.7L418.3 513.7L418.9 513.8L419.5 513.8L420.1 513.8L420.8 513.8L421.4 514L422 514L422.7 514L423.3 514.1L423.9 514.4L424.5 514.5L425.2 514.6L425.8 514.8L426.4 514.8L427.1 514.8L427.7 514.9L428.3 514.9L428.9 514.9L429.6 514.9L430.2 514.9L430.8 514.9L431.5 514.8L432.1 514.8L432.7 514.6L433.3 514.6L434 514.6L434.6 514.6L435.2 514.8L435.9 514.8L436.5 514.6L437.1 514.5L437.7 514.4L438.4 514.2L439 514.4L439.6 514.1L440.3 514.1L440.9 514.1L441.5 514.1L442.1 514.1L442.8 514.2L443.4 514.2L444 514.2L444.6 514.1L445.3 514.2L445.9 514L446.5 514L447.2 514L447.8 514L448.4 513.8L449 514L449.7 514L450.3 513.8L450.9 513.8L451.6 513.7L452.2 513.4L452.8 513.3L453.4 513.4L454.1 513.4L454.7 513.4L455.3 513.6L456 513.6L456.6 513.4L457.2 513.4L457.8 513.4L458.5 513.6L459.1 513.6L459.7 513.4L460.4 513.4L461 513.4L461.6 513.4L462.2 513.4L462.9 513.3L463.5 513.3L464.1 513.3L464.8 513.3L465.4 513.3L466 513.3L466.6 513.3L467.3 513.3L467.9 513.3L468.5 513.3L469.2 513.3L469.8 513.3L470.4 513.3L471 513.3L471.7 513.3L472.3 513.3L472.9 513.3L473.6 513.3L474.2 513.3L474.8 513.3L475.4 513.3L476.1 513.3L476.7 513.2L477.3 513.2L477.9 513.2L478.6 513.2L479.2 513.2L479.8 513.2L480.5 513.2L481.1 513.2L481.7 513.2L482.3 512.9L483 512.6L483.6 512.5L484.2 512.5L484.9 512.5L485.5 512.8L486.1 513L486.7 513.2L487.4 513.2L488 513.2L488.6 513.2L489.3 513.2L489.9 513.2L490.5 513.2L491.1 513L491.8 513L492.4 513L493 513L493.7 513L494.3 513L494.9 512.9L495.5 512.8L496.2 512.8L496.8 512.6L497.4 512.6L498.1 512.6L498.7 512.5L499.3 512.5L499.9 512.5L500.6 512.5L501.2 512.5L501.8 512.5L502.5 512.5L503.1 512.5L503.7 512.5L504.3 512.5L505 512.6L505.6 512.8L506.2 512.9L506.9 512.9L507.5 512.9L508.1 512.9L508.7 512.8L509.4 512.8L510 512.8L510.6 512.8L511.3 512.8L511.9 512.8L512.5 512.8L513.1 512.8L513.8 512.8L514.4 512.8L515 512.9L515.6 512.9L516.3 512.9L516.9 513L517.5 513L518.2 513L518.8 512.9L519.4 513.6L520 513.6L520.7 513.6L521.3 513.6L521.9 513.7L522.6 513.6L523.2 513.6L523.8 513.6L524.4 513.4L525.1 513.3L525.7 513.3L526.3 513.2L527 513.2L527.6 513.2L528.2 513.2L528.8 513.2L529.5 513L530.1 512.9L530.7 512.8L531.4 512.6L532 512.5L532.6 512.5L533.2 512.6L533.9 512.8L534.5 512.8L535.1 512.8L535.8 512.8L536.4 512.8L537 512.6L537.6 512.6L538.3 512.6L538.9 512.6L539.5 512.6L540.2 512.6L540.8 512.8L541.4 512.8L542 512.9L542.7 513L543.3 513L543.9 513.2L544.6 513.2L545.2 513.2L545.8 513.2L546.4 513.2L547.1 513L547.7 513L548.3 513L548.9 513L549.6 513L550.2 513L550.8 513.2L551.5 513.2L552.1 513.2L552.7 513.2L553.3 513.2L554 513.2L554.6 513.3L555.2 513.3L555.9 513.3L556.5 513.3L557.1 513.2L557.7 513L558.4 513L559 512.9L559.6 512.8L560.3 512.8L560.9 512.8L561.5 512.9L562.1 512.9L562.8 512.9L563.4 512.9L564 512.9L564.7 512.8L565.3 512.8L565.9 512.8L566.5 512.6L567.2 512.6L567.8 512.8L568.4 512.8L569.1 512.8L569.7 512.6L570.3 512.6L570.9 512.2L571.6 512.1L572.2 512.2L572.8 512.4L573.5 511.6L574.1 512L574.7 512.2L594.2 512L594.8 510.9L595.4 511.5L596.1 511L596.7 510.6L597.3 511.3L598 510.9L598.6 511.2L599.2 511.3L599.8 510.9L600.5 511.3L601.1 511.1L601.7 509.8L602.4 510.1L603 510.1L603.6 509.5L604.2 509.8L604.9 509.6L605.5 508.9L606.1 509.5L606.8 508.3L607.4 508L608 508.5L608.6 507.6L609.3 507L609.9 507.7L610.5 507.7L611.2 505.8L611.8 507.1L612.4 506.5L613 506.2L613.7 506.6L614.3 505.4L614.9 506.5L615.6 505.6L616.2 506L616.8 505.1L617.4 504L618.1 502.4L618.7 504L619.3 502.5L619.9 504.1L620.6 502.3L621.2 501.5L621.8 501.3L622.5 502.1L623.1 502L623.7 503.5L624.3 501.4L625 501.1L625.6 502.7L626.2 502.5L626.9 500.2L627.5 502.2L628.1 499.2L628.7 498.5L629.4 500.8L630 499.6L630.6 500.1L631.3 501.8L631.9 499.7L632.5 498.8L633.1 497.6L633.8 497.6L634.4 498L635 498.6L635.7 498.2L636.3 498.1L636.9 497.8L637.5 497.2L638.2 496.5L638.8 495.8L639.4 495L640.1 494.5L640.7 493.4L641.3 494.1L641.9 492.6L642.6 493.2L643.2 491.7L643.8 489.8L644.5 490.2L645.1 490.9L645.7 491.5L646.3 490.8L647 490.6L647.6 490L648.2 489.4L648.9 487.8L649.5 488.1L650.1 486.6L650.7 489.1L651.4 485.6L652 482.3L652.6 482.6L653.3 485.7L653.9 485.6L654.5 482.9L655.1 489L655.8 496.2L656.4 491.1L657 485.9L657.6 487.8L658.3 481.1L658.9 479.3L659.5 474L660.2 474.1L660.8 473.1L661.4 474.3L662 470.8L662.7 467.3L663.3 469.5L663.9 473.3L664.6 476.7L665.2 473.2L665.8 473.8L666.4 475.1L667.1 473.1L667.7 470.1L668.3 470.4L669 466.3L669.6 475.7L670.2 484.8L670.8 488.9L671.5 490.4L672.1 495.9L672.7 494L673.4 478L674 474.5L674.6 471.3L675.2 464.4L675.9 461.4L676.5 457.9L677.1 456.6L677.8 455.1L678.4 452.3L679 448.7L679.6 445.6L680.3 441.7L680.9 440.5L681.5 439L682.2 433.7L682.8 429.7L683.4 425.3L684 421.7L684.7 415.9L685.3 411.6L685.9 406.9L686.6 402.3L687.2 397.8L687.8 390.1L688.4 383.6L689.1 378.1L689.7 372.9L690.3 365.9L690.9 362.3L691.6 364.2L692.2 357.8L692.8 352.3L693.5 348.2L694.1 343.3L694.7 341.6L695.3 340.7L696 337L696.6 335.6L697.2 333.9L697.9 332L698.5 328.3L699.1 324.2L699.7 316.3L700.4 309.9L701 305.6L701.6 304.3L702.3 301.7L702.9 304L703.5 299.5L704.1 295.5L704.8 293L705.4 288.2L706 280.5L706.7 273L707.3 264.2L707.9 260.2L708.5 258.3L709.2 257.2L709.8 251L710.4 247.8L711.1 242.5L711.7 237.2L712.3 237.9L712.9 247.5L713.6 243.2L714.2 238.4L714.8 239.4L715.5 238.9L716.1 239.7L716.7 237.4L717.3 235L718 229L718.6 224.1" fill="none" stroke-width="1"></path></g><g><path stroke-linecap="round" stroke-linejoin="round" stroke="#ddd" d="M79 516.6L135.5 516.6L154.4 516.9L330.3 515.2L336.6 515.1L342.9 515.1L349.1 514.5L355.4 514.8L361.7 515.4L368 515.8L374.3 515.7L380.6 516.5L386.8 516.9L393.1 516.7L399.4 516.2L405.7 517.1L412 516.9L418.3 516.8L424.5 516.8L430.8 516.8L437.1 516.5L443.4 516.7L449.7 516.7L456 516.7L462.2 516.1L468.5 516.3L494.3 515.8L509.4 516.2L512.5 515.1L518.8 514.1L525.1 515.2L531.4 515.9L533.9 517L537.6 516.5L543.9 517.1L550.2 517.9L556.5 518.2L560.3 518.4L562.8 518.4L569.1 518.5L575.3 518.7L581.6 518.9L587.9 519.1L594.2 519.3L600.5 519.6L606.8 519.5L613 519.5L625.6 518.8L636.3 519L638.2 518.6L644.5 518.6L651.4 519.1L652.6 518.5L662.7 518.3L663.3 518.3L663.9 518.2L664.6 518.1L665.2 519L665.8 518.9L666.4 518.3L667.1 517.8L667.7 518.1L668.3 518.3L675.9 519.9L676.5 518.7L677.1 518L677.8 517.1L678.4 518L679 517.4L679.6 516.9L680.3 516.8L680.9 517L681.5 517.4L682.2 517.9L682.8 519.3L683.4 518.9L684 518.1L684.7 517.2L685.3 516.4L685.9 516.3L686.6 516.5L687.2 517L687.8 516.3L688.4 515.2L689.1 514.9L689.7 515L690.3 514.3L690.9 514.3L691.6 513.7L692.2 514.3L692.8 513.8L693.5 512.5L694.1 511.6L694.7 511.1L695.3 510.8L696 509.5L696.6 508.7L697.2 507L697.9 505.7L698.5 504.6L699.1 503.2L699.7 502.3L700.4 502.5L701 502.8L701.6 502.3L702.3 500.9L702.9 498.7L703.5 496.9L704.1 494.8L704.8 493.1L705.4 492.4L706 492.4L706.7 491.2L707.3 489.1L707.9 487L708.5 484.3L709.2 481.9L709.8 478.6L710.4 474.2L711.1 469.2L711.7 464.3L712.3 462L712.9 457.7L713.6 450.4L714.2 446L714.8 442.4L715.5 437.4L716.1 432.5L716.7 430.2L717.3 427.6L718 426.3L718.6 423.4" fill="none" stroke-width="1"></path></g><g><path fill="none" stroke-linecap="butt" stroke-linejoin="round" stroke="#fff" stroke-width="2.5" d="M581.6 519.4L594.2 519.4L613 519.4L613.7 518.9L614.3 519.1L614.9 519.6L615.6 519.8L616.2 519.7L616.8 519.5L617.4 519L618.1 518.6L618.7 518.6L619.3 518.4L619.9 518.5L620.6 518.9L621.2 518.7L621.8 518.6L622.5 518L623.1 517.7L623.7 517L624.3 517L625 517L625.6 517.7L626.2 517.7L626.9 517.4L627.5 517.7L628.1 517.5L628.7 517.4L629.4 517.7L630 518L630.6 517.6L631.3 517.5L631.9 517.9L632.5 517.8L633.1 517.6L633.8 517.9L634.4 517.3L635 517.9L635.7 517.7L636.3 518.2L636.9 518.5L637.5 518.4L638.2 517.7L638.8 517.2L639.4 518.4L640.1 519.5L640.7 519.5L641.3 518.3L641.9 519L642.6 519.1L643.2 519L643.8 519.1L644.5 519.3L645.1 518.8L645.7 519L646.3 519L647 519L647.6 518.9L648.2 518.4L648.9 518.6L649.5 518.8L650.1 518.4L650.7 518.4L651.4 517.8L652 518L652.6 518L653.3 518.3L653.9 518.1L654.5 518.1L655.1 517.7L655.8 518L656.4 517.1L657 516.5L657.6 516.5L658.3 516L658.9 515.6L659.5 515.8L660.2 516L660.8 516L661.4 515.5L662 514.5L662.7 514.7L663.3 515.6L663.9 516.1L664.6 515.9L665.2 515.3L665.8 514.7L666.4 514.6L667.1 513.7L667.7 513.6L668.3 513.3L669 513.4L669.6 513.6L670.2 513L670.8 513.8L671.5 512.4L672.1 512.2L672.7 512.1L673.4 511L674 510.9L674.6 509.8L675.2 508.9L675.9 508.7L676.5 508.3L677.1 507.6L677.8 507.2L678.4 506.3L679 505.2L679.6 505.2L680.3 504.3L680.9 502.6L681.5 501.1L682.2 499.5L682.8 498.1L683.4 497.1L684 497.8L684.7 497.7L685.3 497.8L685.9 496.8L686.6 496.4L687.2 494.4L687.8 492.4L688.4 489.8L689.1 486.8L689.7 483.2L690.3 478.5L690.9 475.9L691.6 474.6L692.2 470.7L692.8 469.4L693.5 468L694.1 465.5L694.7 461.5L695.3 465.7L696 466.7L696.6 469.7L697.2 467.9L697.9 464.5L698.5 461.3L699.1 460.3L699.7 461.7L700.4 460.8L701 464.7L701.6 464.3L702.3 464.9L702.9 462.2L703.5 458.6L704.1 456L704.8 454.6L705.4 452.4L706 452.3L706.7 452.1L707.3 449.1L707.9 448.1L708.5 445.8L709.2 445L709.8 440.3L710.4 437.5L711.1 433.9L711.7 428.2L712.3 423L712.9 422.8L713.6 414.7L714.2 409.9L714.8 408.7L715.5 406.2L716.1 406.5L716.7 402.1L717.3 417.4L718 416.8L718.6 416.1"></path><polyline points="581.60,519.40 594.20,519.40 613.00,519.40 613.70,518.90 614.30,519.10 614.90,519.60 615.60,519.80 616.20,519.70 616.80,519.50 617.40,519.00 618.10,518.60 618.70,518.60 619.30,518.40 619.90,518.50 620.60,518.90 621.20,518.70 621.80,518.60 622.50,518.00 623.10,517.70 623.70,517.00 624.30,517.00 625.00,517.00 625.60,517.70 626.20,517.70 626.90,517.40 627.50,517.70 628.10,517.50 628.70,517.40 629.40,517.70 630.00,518.00 630.60,517.60 631.30,517.50 631.90,517.90 632.50,517.80 633.10,517.60 633.80,517.90 634.40,517.30 635.00,517.90 635.70,517.70 636.30,518.20 636.90,518.50 637.50,518.40 638.20,517.70 638.80,517.20 639.40,518.40 640.10,519.50 640.70,519.50 641.30,518.30 641.90,519.00 642.60,519.10 643.20,519.00 643.80,519.10 644.50,519.30 645.10,518.80 645.70,519.00 646.30,519.00 647.00,519.00 647.60,518.90 648.20,518.40 648.90,518.60 649.50,518.80 650.10,518.40 650.70,518.40 651.40,517.80 652.00,518.00 652.60,518.00 653.30,518.30 653.90,518.10 654.50,518.10 655.10,517.70 655.80,518.00 656.40,517.10 657.00,516.50 657.60,516.50 658.30,516.00 658.90,515.60 659.50,515.80 660.20,516.00 660.80,516.00 661.40,515.50 662.00,514.50 662.70,514.70 663.30,515.60 663.90,516.10 664.60,515.90 665.20,515.30 665.80,514.70 666.40,514.60 667.10,513.70 667.70,513.60 668.30,513.30 669.00,513.40 669.60,513.60 670.20,513.00 670.80,513.80 671.50,512.40 672.10,512.20 672.70,512.10 673.40,511.00 674.00,510.90 674.60,509.80 675.20,508.90 675.90,508.70 676.50,508.30 677.10,507.60 677.80,507.20 678.40,506.30 679.00,505.20 679.60,505.20 680.30,504.30 680.90,502.60 681.50,501.10 682.20,499.50 682.80,498.10 683.40,497.10 684.00,497.80 684.70,497.70 685.30,497.80 685.90,496.80 686.60,496.40 687.20,494.40 687.80,492.40 688.40,489.80 689.10,486.80 689.70,483.20 690.30,478.50 690.90,475.90 691.60,474.60 692.20,470.70 692.80,469.40 693.50,468.00 694.10,465.50 694.70,461.50 695.30,465.70 696.00,466.70 696.60,469.70 697.20,467.90 697.90,464.50 698.50,461.30 699.10,460.30 699.70,461.70 700.40,460.80 701.00,464.70 701.60,464.30 702.30,464.90 702.90,462.20 703.50,458.60 704.10,456.00 704.80,454.60 705.40,452.40 706.00,452.30 706.70,452.10 707.30,449.10 707.90,448.10 708.50,445.80 709.20,445.00 709.80,440.30 710.40,437.50 711.10,433.90 711.70,428.20 712.30,423.00 712.90,422.80 713.60,414.70 714.20,409.90 714.80,408.70 715.50,406.20 716.10,406.50 716.70,402.10 717.30,417.40 718.00,416.80 718.60,416.10" stroke-linejoin="round" stroke-width="1.5" stroke="#CD2285" fill="none" stroke-linecap="butt"></polyline></g><g><path fill="none" stroke-linecap="butt" stroke-linejoin="round" stroke="#fff" stroke-width="2.5" d="M487.4 519.2L531.4 512.3L565.9 507.2L581.6 506.2L582.3 505.9L582.9 505.5L583.5 505.9L584.1 505.9L584.8 505.5L585.4 505.1L586 504.9L586.6 506.4L587.3 505.4L587.9 504.8L588.5 504.4L589.2 504.8L589.8 504.5L590.4 504.1L591 504.2L591.7 505.1L592.3 505.1L592.9 505.1L593.6 505.1L594.2 505.2L594.8 504.9L595.4 504.3L596.1 504.6L596.7 504L597.3 503.5L598 503.3L598.6 503.2L599.2 503.2L599.8 504L600.5 502.4L601.1 500.9L601.7 500L602.4 499.1L603 500.4L603.6 499.4L604.2 499L604.9 499.8L605.5 500.1L606.1 498.8L606.8 500.2L607.4 500.7L608 500.9L608.6 500.5L609.3 499.1L609.9 498.7L610.5 498.5L611.2 497.8L611.8 497.1L612.4 497.8L613 497.7L613.7 496.6L614.3 495.1L614.9 492.9L615.6 492.8L616.2 493.6L616.8 492.9L617.4 493.6L618.1 493.4L618.7 492.6L619.3 491.7L619.9 492.4L620.6 491.3L621.2 489.1L621.8 487.9L622.5 489.8L623.1 490.1L623.7 488.9L624.3 488.4L625 487.4L625.6 488.5L626.2 487.6L626.9 487L627.5 486.1L628.1 487.3L628.7 486.2L629.4 486.6L630 486.2L630.6 485.4L631.3 481.4L631.9 477.1L632.5 476.7L633.1 474.8L633.8 474.8L634.4 475L635 475.8L635.7 475.4L636.3 474.3L636.9 475.6L637.5 473.6L638.2 473.9L638.8 472.8L639.4 468.8L640.1 472.6L640.7 475.1L641.3 470L641.9 472.2L642.6 468.1L643.2 467.9L643.8 463.8L644.5 463.2L645.1 457.4L645.7 458.1L646.3 456.1L647 458.2L647.6 454.7L648.2 447.9L648.9 448.2L649.5 455.8L650.1 449.4L650.7 450.6L651.4 449.8L652 448L652.6 446.9L653.3 454.9L653.9 454.3L654.5 446L655.1 449.6L655.8 444.1L656.4 444.2L657 446.6L657.6 450.3L658.3 447.7L658.9 439.4L659.5 438.9L660.2 438.8L660.8 434.8L661.4 435.7L662 436.4L662.7 432.4L663.3 442.3L663.9 448.3L664.6 460.5L665.2 463.1L665.8 458.2L666.4 450.3L667.1 443.3L667.7 437.6L668.3 443.6L669 438.6L669.6 432L670.2 419.9L670.8 409.6L671.5 400.3L672.1 392.9L672.7 397L673.4 409.9L674 414L674.6 410.6L675.2 414.9L675.9 406.7L676.5 399.7L677.1 397.2L677.8 393.5L678.4 396.7L679 390L679.6 389.8L680.3 389.7L680.9 393.3L681.5 385.8L682.2 384.6L682.8 383.7L683.4 377.4L684 373.1L684.7 366.5L685.3 358.4L685.9 349.5L686.6 347L687.2 340.4L687.8 336.4L688.4 338.3L689.1 334.9L689.7 326.9L690.3 317.6L690.9 320L691.6 322.6L692.2 314L692.8 306.6L693.5 296.5L694.1 291.3L694.7 294L695.3 290.5L696 297.1L696.6 289.7L697.2 274.6L697.9 267.2L698.5 260.7L699.1 253.8L699.7 244.9L700.4 237.9L701 236.1L701.6 240.2L702.3 234.1L702.9 230L703.5 221.8L704.1 217.3L704.8 209.2L705.4 199L706 188.4L706.7 176.6L707.3 166.3L707.9 166.4L708.5 163.3L709.2 156.3L709.8 145.9L710.4 136.7L711.1 130.2L711.7 127L712.3 131.9L712.9 146.2L713.6 139.8L714.2 136.6L714.8 131L715.5 127.3L716.1 121L716.7 113.7L717.3 110.4L718 102.6L718.6 92.2"></path><polyline points="487.40,519.20 531.40,512.30 565.90,507.20 581.60,506.20 582.30,505.90 582.90,505.50 583.50,505.90 584.10,505.90 584.80,505.50 585.40,505.10 586.00,504.90 586.60,506.40 587.30,505.40 587.90,504.80 588.50,504.40 589.20,504.80 589.80,504.50 590.40,504.10 591.00,504.20 591.70,505.10 592.30,505.10 592.90,505.10 593.60,505.10 594.20,505.20 594.80,504.90 595.40,504.30 596.10,504.60 596.70,504.00 597.30,503.50 598.00,503.30 598.60,503.20 599.20,503.20 599.80,504.00 600.50,502.40 601.10,500.90 601.70,500.00 602.40,499.10 603.00,500.40 603.60,499.40 604.20,499.00 604.90,499.80 605.50,500.10 606.10,498.80 606.80,500.20 607.40,500.70 608.00,500.90 608.60,500.50 609.30,499.10 609.90,498.70 610.50,498.50 611.20,497.80 611.80,497.10 612.40,497.80 613.00,497.70 613.70,496.60 614.30,495.10 614.90,492.90 615.60,492.80 616.20,493.60 616.80,492.90 617.40,493.60 618.10,493.40 618.70,492.60 619.30,491.70 619.90,492.40 620.60,491.30 621.20,489.10 621.80,487.90 622.50,489.80 623.10,490.10 623.70,488.90 624.30,488.40 625.00,487.40 625.60,488.50 626.20,487.60 626.90,487.00 627.50,486.10 628.10,487.30 628.70,486.20 629.40,486.60 630.00,486.20 630.60,485.40 631.30,481.40 631.90,477.10 632.50,476.70 633.10,474.80 633.80,474.80 634.40,475.00 635.00,475.80 635.70,475.40 636.30,474.30 636.90,475.60 637.50,473.60 638.20,473.90 638.80,472.80 639.40,468.80 640.10,472.60 640.70,475.10 641.30,470.00 641.90,472.20 642.60,468.10 643.20,467.90 643.80,463.80 644.50,463.20 645.10,457.40 645.70,458.10 646.30,456.10 647.00,458.20 647.60,454.70 648.20,447.90 648.90,448.20 649.50,455.80 650.10,449.40 650.70,450.60 651.40,449.80 652.00,448.00 652.60,446.90 653.30,454.90 653.90,454.30 654.50,446.00 655.10,449.60 655.80,444.10 656.40,444.20 657.00,446.60 657.60,450.30 658.30,447.70 658.90,439.40 659.50,438.90 660.20,438.80 660.80,434.80 661.40,435.70 662.00,436.40 662.70,432.40 663.30,442.30 663.90,448.30 664.60,460.50 665.20,463.10 665.80,458.20 666.40,450.30 667.10,443.30 667.70,437.60 668.30,443.60 669.00,438.60 669.60,432.00 670.20,419.90 670.80,409.60 671.50,400.30 672.10,392.90 672.70,397.00 673.40,409.90 674.00,414.00 674.60,410.60 675.20,414.90 675.90,406.70 676.50,399.70 677.10,397.20 677.80,393.50 678.40,396.70 679.00,390.00 679.60,389.80 680.30,389.70 680.90,393.30 681.50,385.80 682.20,384.60 682.80,383.70 683.40,377.40 684.00,373.10 684.70,366.50 685.30,358.40 685.90,349.50 686.60,347.00 687.20,340.40 687.80,336.40 688.40,338.30 689.10,334.90 689.70,326.90 690.30,317.60 690.90,320.00 691.60,322.60 692.20,314.00 692.80,306.60 693.50,296.50 694.10,291.30 694.70,294.00 695.30,290.50 696.00,297.10 696.60,289.70 697.20,274.60 697.90,267.20 698.50,260.70 699.10,253.80 699.70,244.90 700.40,237.90 701.00,236.10 701.60,240.20 702.30,234.10 702.90,230.00 703.50,221.80 704.10,217.30 704.80,209.20 705.40,199.00 706.00,188.40 706.70,176.60 707.30,166.30 707.90,166.40 708.50,163.30 709.20,156.30 709.80,145.90 710.40,136.70 711.10,130.20 711.70,127.00 712.30,131.90 712.90,146.20 713.60,139.80 714.20,136.60 714.80,131.00 715.50,127.30 716.10,121.00 716.70,113.70 717.30,110.40 718.00,102.60 718.60,92.20" stroke-linejoin="round" stroke-width="1.5" stroke="#00847E" fill="none" stroke-linecap="butt"></polyline></g><g><path fill="none" stroke-linecap="butt" stroke-linejoin="round" stroke="#fff" stroke-width="2.5" d="M456 516.3L487.4 516.9L518.8 517.1L550.2 517.8L582.3 518.1L588.5 518.5L594.8 518.9L601.1 518.8L607.4 518.8L613 518.8L613.7 518.8L619.9 519.2L625.6 519.5L634.4 519.3L635 519.1L635.7 519.3L636.3 519L636.9 519L637.5 519.2L638.2 518.9L638.8 519.6L639.4 519.1L640.1 518.9L640.7 518.8L641.3 519L641.9 519.5L642.6 518.3L643.2 518.3L643.8 518.9L644.5 518.7L645.1 518.6L645.7 518L646.3 517.9L647 518L647.6 518.2L648.2 518L648.9 518.5L649.5 518.5L650.1 517.4L650.7 517.5L651.4 517.6L652 517.6L652.6 517.8L653.3 517.3L653.9 517.6L654.5 517.3L655.1 517.5L655.8 518.6L656.4 517.6L657 518.3L657.6 517.7L658.3 517.4L658.9 517.8L659.5 517.5L660.2 517.5L660.8 517.3L661.4 517.4L662 517.4L662.7 517.1L663.3 517.1L663.9 517.3L664.6 517.3L665.2 517.4L665.8 517.5L666.4 517.7L667.1 517.5L667.7 517.7L668.3 517.8L669 517.8L669.6 517.6L670.2 517.6L670.8 517.7L671.5 517.5L672.1 517.7L672.7 517.9L673.4 518.4L674 518.5L674.6 518.5L675.2 518.4L675.9 518.5L676.5 518.4L677.1 518.3L677.8 518L678.4 517.8L679 517.7L679.6 517.4L680.3 517.7L680.9 517.3L681.5 517.2L682.2 516.8L682.8 516.7L683.4 516.7L684 516.5L684.7 515.9L685.3 516.6L685.9 516.7L686.6 516.1L687.2 516.1L687.8 515.6L688.4 515.3L689.1 515.5L689.7 515.8L690.3 515.5L690.9 515.7L691.6 515L692.2 515.1L692.8 514.5L693.5 514.1L694.1 515L694.7 514.5L695.3 514L696 513.9L696.6 513.2L697.2 512.9L697.9 512.7L698.5 512.4L699.1 512.1L699.7 511L700.4 510.3L701 509.8L701.6 510L702.3 509.6L702.9 509.1L703.5 508.5L704.1 507.7L704.8 506.8L705.4 506.5L706 505.7L706.7 505L707.3 504.6L707.9 503.9L708.5 503.7L709.2 502.4L709.8 501L710.4 499.6L711.1 497.7L711.7 495.8L712.3 494.6L712.9 492.7L713.6 490.7L714.2 488.8L714.8 487.5L715.5 485.6L716.1 483.4L716.7 480.8L717.3 478.2L718 475.6L718.6 472.8"></path><polyline points="456.00,516.30 487.40,516.90 518.80,517.10 550.20,517.80 582.30,518.10 588.50,518.50 594.80,518.90 601.10,518.80 607.40,518.80 613.00,518.80 613.70,518.80 619.90,519.20 625.60,519.50 634.40,519.30 635.00,519.10 635.70,519.30 636.30,519.00 636.90,519.00 637.50,519.20 638.20,518.90 638.80,519.60 639.40,519.10 640.10,518.90 640.70,518.80 641.30,519.00 641.90,519.50 642.60,518.30 643.20,518.30 643.80,518.90 644.50,518.70 645.10,518.60 645.70,518.00 646.30,517.90 647.00,518.00 647.60,518.20 648.20,518.00 648.90,518.50 649.50,518.50 650.10,517.40 650.70,517.50 651.40,517.60 652.00,517.60 652.60,517.80 653.30,517.30 653.90,517.60 654.50,517.30 655.10,517.50 655.80,518.60 656.40,517.60 657.00,518.30 657.60,517.70 658.30,517.40 658.90,517.80 659.50,517.50 660.20,517.50 660.80,517.30 661.40,517.40 662.00,517.40 662.70,517.10 663.30,517.10 663.90,517.30 664.60,517.30 665.20,517.40 665.80,517.50 666.40,517.70 667.10,517.50 667.70,517.70 668.30,517.80 669.00,517.80 669.60,517.60 670.20,517.60 670.80,517.70 671.50,517.50 672.10,517.70 672.70,517.90 673.40,518.40 674.00,518.50 674.60,518.50 675.20,518.40 675.90,518.50 676.50,518.40 677.10,518.30 677.80,518.00 678.40,517.80 679.00,517.70 679.60,517.40 680.30,517.70 680.90,517.30 681.50,517.20 682.20,516.80 682.80,516.70 683.40,516.70 684.00,516.50 684.70,515.90 685.30,516.60 685.90,516.70 686.60,516.10 687.20,516.10 687.80,515.60 688.40,515.30 689.10,515.50 689.70,515.80 690.30,515.50 690.90,515.70 691.60,515.00 692.20,515.10 692.80,514.50 693.50,514.10 694.10,515.00 694.70,514.50 695.30,514.00 696.00,513.90 696.60,513.20 697.20,512.90 697.90,512.70 698.50,512.40 699.10,512.10 699.70,511.00 700.40,510.30 701.00,509.80 701.60,510.00 702.30,509.60 702.90,509.10 703.50,508.50 704.10,507.70 704.80,506.80 705.40,506.50 706.00,505.70 706.70,505.00 707.30,504.60 707.90,503.90 708.50,503.70 709.20,502.40 709.80,501.00 710.40,499.60 711.10,497.70 711.70,495.80 712.30,494.60 712.90,492.70 713.60,490.70 714.20,488.80 714.80,487.50 715.50,485.60 716.10,483.40 716.70,480.80 717.30,478.20 718.00,475.60 718.60,472.80" stroke-linejoin="round" stroke-width="1.5" stroke="#D73C50" fill="none" stroke-linecap="butt"></polyline></g><g><path fill="none" stroke-linecap="butt" stroke-linejoin="round" stroke="#fff" stroke-width="2.5" d="M424.5 521.7L437.1 521.4L452.8 520.3L453.4 520.3L454.1 520.4L454.7 520.4L455.3 520.2L456 519.9L456.6 519.8L457.2 519.8L457.8 519.7L458.5 519.5L459.1 519.4L459.7 519.2L460.4 519.1L461 518.9L461.6 518.6L462.2 518.5L462.9 518.5L463.5 518.3L464.1 518.3L464.8 518.3L465.4 518.4L466 518.4L466.6 518.4L467.3 518.3L467.9 518.5L468.5 518.3L469.2 518.2L469.8 518.2L470.4 518.2L471 518.2L471.7 518.2L472.3 518L472.9 517.7L473.6 517.7L474.2 517.7L474.8 517.4L475.4 517.4L476.1 517.4L476.7 517.4L477.3 517.4L477.9 517.3L478.6 517.2L479.2 517.3L479.8 517.6L480.5 517.6L481.1 517.7L481.7 517.7L482.3 517.6L483 517.7L483.6 517.7L484.2 517.7L484.9 517.7L485.5 517.7L486.1 517.4L486.7 517.2L487.4 517L488 517.1L488.6 517L489.3 517.1L489.9 517.1L490.5 517L491.1 517.1L491.8 517.2L492.4 517.2L493 517.1L493.7 517L494.3 516.9L494.9 516.9L495.5 517L496.2 516.7L496.8 516.2L497.4 515.7L498.1 515.4L498.7 515.3L499.3 515.2L499.9 515L500.6 514.8L501.2 514.8L501.8 514.7L502.5 514.6L503.1 514.8L503.7 515.3L504.3 515.6L505 515.8L505.6 515.9L506.2 516L506.9 516.3L507.5 516.6L508.1 516.7L508.7 516.6L509.4 516.3L510 516.2L510.6 516.2L511.3 516.2L511.9 516.1L512.5 516.2L513.1 516.3L513.8 516L514.4 515.8L515 515.4L515.6 515.4L516.3 515.4L516.9 515.3L517.5 515.1L518.2 514.9L518.8 514.6L519.4 514.5L520 514.1L520.7 513.9L521.3 514.1L521.9 514.6L522.6 514.7L523.2 515L523.8 515.2L524.4 514.9L525.1 514.5L525.7 514.3L526.3 514.1L527 514.2L527.6 514.5L528.2 514.4L528.8 514.2L529.5 514.2L530.1 514.1L530.7 514L531.4 514.3L532 514.8L532.6 515.3L533.2 515.6L533.9 515.6L534.5 515.6L535.1 515.7L535.8 515.7L536.4 515.8L537 515.8L537.6 515.8L538.3 515.6L538.9 515.5L539.5 515.6L540.2 515.7L540.8 515.8L541.4 515.9L542 516L542.7 515.9L543.3 515.8L543.9 515.8L544.6 516L545.2 516.2L545.8 516.2L546.4 516.4L547.1 516.5L547.7 516.4L548.3 516.1L548.9 515.9L549.6 516L550.2 516L550.8 516L551.5 515.5L552.1 515.2L552.7 515.1L553.3 515L554 514.8L554.6 514.7L555.2 514.7L555.9 514.7L556.5 514.6L557.1 514.5L557.7 514.5L558.4 515.1L559 515.3L559.6 515.3L560.3 515.2L560.9 515.2L561.5 515.3L562.1 515.4L562.8 515.3L563.4 515.5L564 515.4L564.7 515.3L565.3 515L565.9 514.9L566.5 514.9L567.2 514.9L567.8 514.7L568.4 514.6L569.1 514.7L569.7 515L570.3 515.2L570.9 515.6L571.6 515.9L572.2 516.1L572.8 516L573.5 516L574.1 516L574.7 516L575.3 516L576 515.8L576.6 515.6L577.2 515.4L577.9 515.3L578.5 515.3L579.1 515.4L579.7 515.6L580.4 515.7L581 515.8L581.6 516L582.3 516L582.9 516.2L583.5 516.3L584.1 516.5L584.8 516.6L585.4 516.8L586 517L586.6 517.2L587.3 517.5L587.9 517.8L588.5 518L594.2 518.3L613 517.9L619.3 519L625.6 518L638.2 513.9L641.3 512.4L641.9 512.2L642.6 511.5L643.2 510.8L643.8 511.8L644.5 511.9L645.1 510.9L645.7 512.1L646.3 510.7L647 510.6L647.6 509.1L648.2 509.5L648.9 508.7L649.5 508.9L650.1 508.6L650.7 508.6L651.4 509.3L652 509.5L652.6 510.5L653.3 510.5L653.9 510.7L654.5 509.5L655.1 508.8L655.8 508.1L656.4 507.4L657 506.2L657.6 506.3L658.3 506.1L658.9 505.7L659.5 506.4L660.2 505.5L660.8 504.6L661.4 505.9L662 506.1L662.7 507.2L663.3 508.7L663.9 508.4L664.6 511.4L665.2 510L665.8 509.1L666.4 508.2L667.1 507L667.7 506.7L668.3 506.8L669 506L669.6 506.1L670.2 504.7L670.8 504.1L671.5 503.9L672.1 502.7L672.7 502.6L673.4 501.7L674 501.5L674.6 501.2L675.2 500.5L675.9 498.7L676.5 497.4L677.1 497.1L677.8 497.9L678.4 496L679 494.4L679.6 493.2L680.3 491.7L680.9 490.9L681.5 490.9L682.2 489.2L682.8 488.5L683.4 487.9L684 486.1L684.7 482.6L685.3 481.2L685.9 479.5L686.6 478.1L687.2 475.8L687.8 474.2L688.4 472.3L689.1 472L689.7 469.3L690.3 466.6L690.9 465L691.6 463.4L692.2 462.4L692.8 462.1L693.5 458L694.1 453.2L694.7 448.3L695.3 443.5L696 445.9L696.6 450.5L697.2 449.5L697.9 449.5L698.5 453.4L699.1 453.6L699.7 454.1L700.4 452.5L701 450.1L701.6 447.7L702.3 445.7L702.9 445L703.5 442.1L704.1 448.2L704.8 444.7L705.4 439.7L706 435.9L706.7 432.9L707.3 427.3L707.9 427.6L708.5 427L709.2 425.9L709.8 422L710.4 419.1L711.1 414.1L711.7 411L712.3 410.1L712.9 416.2L713.6 410.9L714.2 406.9L714.8 403.5L715.5 403.2L716.1 401.8L716.7 400L717.3 399.7L718 398.3L718.6 396.8"></path><polyline points="424.50,521.70 437.10,521.40 452.80,520.30 453.40,520.30 454.10,520.40 454.70,520.40 455.30,520.20 456.00,519.90 456.60,519.80 457.20,519.80 457.80,519.70 458.50,519.50 459.10,519.40 459.70,519.20 460.40,519.10 461.00,518.90 461.60,518.60 462.20,518.50 462.90,518.50 463.50,518.30 464.10,518.30 464.80,518.30 465.40,518.40 466.00,518.40 466.60,518.40 467.30,518.30 467.90,518.50 468.50,518.30 469.20,518.20 469.80,518.20 470.40,518.20 471.00,518.20 471.70,518.20 472.30,518.00 472.90,517.70 473.60,517.70 474.20,517.70 474.80,517.40 475.40,517.40 476.10,517.40 476.70,517.40 477.30,517.40 477.90,517.30 478.60,517.20 479.20,517.30 479.80,517.60 480.50,517.60 481.10,517.70 481.70,517.70 482.30,517.60 483.00,517.70 483.60,517.70 484.20,517.70 484.90,517.70 485.50,517.70 486.10,517.40 486.70,517.20 487.40,517.00 488.00,517.10 488.60,517.00 489.30,517.10 489.90,517.10 490.50,517.00 491.10,517.10 491.80,517.20 492.40,517.20 493.00,517.10 493.70,517.00 494.30,516.90 494.90,516.90 495.50,517.00 496.20,516.70 496.80,516.20 497.40,515.70 498.10,515.40 498.70,515.30 499.30,515.20 499.90,515.00 500.60,514.80 501.20,514.80 501.80,514.70 502.50,514.60 503.10,514.80 503.70,515.30 504.30,515.60 505.00,515.80 505.60,515.90 506.20,516.00 506.90,516.30 507.50,516.60 508.10,516.70 508.70,516.60 509.40,516.30 510.00,516.20 510.60,516.20 511.30,516.20 511.90,516.10 512.50,516.20 513.10,516.30 513.80,516.00 514.40,515.80 515.00,515.40 515.60,515.40 516.30,515.40 516.90,515.30 517.50,515.10 518.20,514.90 518.80,514.60 519.40,514.50 520.00,514.10 520.70,513.90 521.30,514.10 521.90,514.60 522.60,514.70 523.20,515.00 523.80,515.20 524.40,514.90 525.10,514.50 525.70,514.30 526.30,514.10 527.00,514.20 527.60,514.50 528.20,514.40 528.80,514.20 529.50,514.20 530.10,514.10 530.70,514.00 531.40,514.30 532.00,514.80 532.60,515.30 533.20,515.60 533.90,515.60 534.50,515.60 535.10,515.70 535.80,515.70 536.40,515.80 537.00,515.80 537.60,515.80 538.30,515.60 538.90,515.50 539.50,515.60 540.20,515.70 540.80,515.80 541.40,515.90 542.00,516.00 542.70,515.90 543.30,515.80 543.90,515.80 544.60,516.00 545.20,516.20 545.80,516.20 546.40,516.40 547.10,516.50 547.70,516.40 548.30,516.10 548.90,515.90 549.60,516.00 550.20,516.00 550.80,516.00 551.50,515.50 552.10,515.20 552.70,515.10 553.30,515.00 554.00,514.80 554.60,514.70 555.20,514.70 555.90,514.70 556.50,514.60 557.10,514.50 557.70,514.50 558.40,515.10 559.00,515.30 559.60,515.30 560.30,515.20 560.90,515.20 561.50,515.30 562.10,515.40 562.80,515.30 563.40,515.50 564.00,515.40 564.70,515.30 565.30,515.00 565.90,514.90 566.50,514.90 567.20,514.90 567.80,514.70 568.40,514.60 569.10,514.70 569.70,515.00 570.30,515.20 570.90,515.60 571.60,515.90 572.20,516.10 572.80,516.00 573.50,516.00 574.10,516.00 574.70,516.00 575.30,516.00 576.00,515.80 576.60,515.60 577.20,515.40 577.90,515.30 578.50,515.30 579.10,515.40 579.70,515.60 580.40,515.70 581.00,515.80 581.60,516.00 582.30,516.00 582.90,516.20 583.50,516.30 584.10,516.50 584.80,516.60 585.40,516.80 586.00,517.00 586.60,517.20 587.30,517.50 587.90,517.80 588.50,518.00 594.20,518.30 613.00,517.90 619.30,519.00 625.60,518.00 638.20,513.90 641.30,512.40 641.90,512.20 642.60,511.50 643.20,510.80 643.80,511.80 644.50,511.90 645.10,510.90 645.70,512.10 646.30,510.70 647.00,510.60 647.60,509.10 648.20,509.50 648.90,508.70 649.50,508.90 650.10,508.60 650.70,508.60 651.40,509.30 652.00,509.50 652.60,510.50 653.30,510.50 653.90,510.70 654.50,509.50 655.10,508.80 655.80,508.10 656.40,507.40 657.00,506.20 657.60,506.30 658.30,506.10 658.90,505.70 659.50,506.40 660.20,505.50 660.80,504.60 661.40,505.90 662.00,506.10 662.70,507.20 663.30,508.70 663.90,508.40 664.60,511.40 665.20,510.00 665.80,509.10 666.40,508.20 667.10,507.00 667.70,506.70 668.30,506.80 669.00,506.00 669.60,506.10 670.20,504.70 670.80,504.10 671.50,503.90 672.10,502.70 672.70,502.60 673.40,501.70 674.00,501.50 674.60,501.20 675.20,500.50 675.90,498.70 676.50,497.40 677.10,497.10 677.80,497.90 678.40,496.00 679.00,494.40 679.60,493.20 680.30,491.70 680.90,490.90 681.50,490.90 682.20,489.20 682.80,488.50 683.40,487.90 684.00,486.10 684.70,482.60 685.30,481.20 685.90,479.50 686.60,478.10 687.20,475.80 687.80,474.20 688.40,472.30 689.10,472.00 689.70,469.30 690.30,466.60 690.90,465.00 691.60,463.40 692.20,462.40 692.80,462.10 693.50,458.00 694.10,453.20 694.70,448.30 695.30,443.50 696.00,445.90 696.60,450.50 697.20,449.50 697.90,449.50 698.50,453.40 699.10,453.60 699.70,454.10 700.40,452.50 701.00,450.10 701.60,447.70 702.30,445.70 702.90,445.00 703.50,442.10 704.10,448.20 704.80,444.70 705.40,439.70 706.00,435.90 706.70,432.90 707.30,427.30 707.90,427.60 708.50,427.00 709.20,425.90 709.80,422.00 710.40,419.10 711.10,414.10 711.70,411.00 712.30,410.10 712.90,416.20 713.60,410.90 714.20,406.90 714.80,403.50 715.50,403.20 716.10,401.80 716.70,400.00 717.30,399.70 718.00,398.30 718.60,396.80" stroke-linejoin="round" stroke-width="1.5" stroke="#287669" fill="none" stroke-linecap="butt"></polyline></g><g><path fill="none" stroke-linecap="butt" stroke-linejoin="round" stroke="#fff" stroke-width="2.5" d="M254.9 515.8L255.5 516.1L256.2 516.4L256.8 516.5L257.4 516.6L258 516.4L258.7 516.4L259.3 516.2L259.9 516L260.6 515.8L261.2 515.8L261.8 515.8L262.4 515.7L263.1 515.6L263.7 516.2L264.3 516.6L264.9 516.4L265.6 516.1L266.2 515.7L266.8 515.3L267.5 515L268.1 514.8L268.7 514.4L269.3 514.1L270 514L270.6 513.6L271.2 512.8L271.9 512.5L272.5 512.2L273.1 512.1L273.7 512L274.4 512.1L275 511.8L275.6 512.4L276.3 512.5L276.9 512.9L277.5 513L278.1 512.9L278.8 512.8L279.4 512.8L280 513.6L280.7 513.6L281.3 513.6L281.9 513.3L282.5 513.2L283.2 512.6L283.8 512.6L284.4 512.9L285.1 513L285.7 513.3L286.3 513.6L286.9 513.8L287.6 513.8L288.2 513.7L288.8 513L289.5 512.9L290.1 512.8L290.7 512.5L291.3 512.8L292 512.9L292.6 513L293.2 513L293.9 513.2L294.5 513L295.1 513L295.7 513L296.4 512.6L297 512.1L297.6 511.7L298.3 511.7L298.9 511.3L299.5 511.3L300.1 511.4L300.8 511.4L301.4 510.9L302 510.9L302.6 511.2L303.3 511.3L303.9 511.3L304.5 511.6L305.2 511.7L305.8 511.7L306.4 511.6L307 511.6L307.7 511.4L308.3 511.4L308.9 511.6L309.6 511.6L310.2 511.4L310.8 511.3L311.4 511.2L312.1 511.3L312.7 511.3L313.3 511.4L314 511.6L314.6 511.6L315.2 511.7L315.8 511.8L316.5 511.8L317.1 511.8L317.7 512L318.4 512.1L319 512.2L319.6 512.4L320.2 512.4L320.9 512.4L321.5 512.2L322.1 512.1L322.8 512L323.4 511.7L324 511.4L324.6 511.4L325.3 511.4L325.9 511.6L326.5 511.6L327.2 511.7L327.8 511.4L328.4 511.6L329 511.6L329.7 511.7L330.3 512.1L330.9 512.2L331.6 512.4L332.2 512.5L332.8 512.6L333.4 512.5L334.1 512.5L334.7 512.4L335.3 512.4L335.9 512.4L336.6 512.4L337.2 512.4L337.8 512.5L338.5 512.5L339.1 512.5L339.7 512.5L340.3 512.5L341 512.6L341.6 512.6L342.2 512.6L342.9 512.6L343.5 512.6L344.1 512.5L344.7 512.5L345.4 512.5L346 512.5L346.6 512.4L347.3 512.5L347.9 512.4L348.5 512.4L349.1 512.4L349.8 512.2L350.4 512.2L351 512.2L351.7 512.2L352.3 512.2L352.9 512.2L353.5 512.1L354.2 512.1L354.8 512.1L355.4 512.1L356.1 512.1L356.7 512.1L357.3 512L357.9 512L358.6 512L359.2 512L359.8 511.8L360.5 512L361.1 512L361.7 512L362.3 512L363 512.1L363.6 512L364.2 512.1L364.9 512.1L365.5 512.2L366.1 512.2L366.7 512.4L367.4 512.4L368 512.5L368.6 512.6L369.3 512.6L369.9 512.8L370.5 512.8L371.1 512.8L371.8 512.8L372.4 512.8L373 512.8L373.6 512.6L374.3 512.6L374.9 512.5L375.5 512.2L376.2 512.2L376.8 512.4L377.4 512.5L378 512.8L378.7 513L379.3 513L379.9 513.2L380.6 513L381.2 513L381.8 512.8L382.4 512.8L383.1 512.6L383.7 512.6L384.3 512.6L385 512.5L385.6 512.5L386.2 512.5L386.8 512.5L387.5 512.5L388.1 512.5L388.7 512.5L389.4 512.6L390 512.6L390.6 512.6L391.2 512.6L391.9 512.6L392.5 512.8L393.1 512.9L393.8 512.8L394.4 512.9L395 513L395.6 513L396.3 513L396.9 513.2L397.5 513.2L398.2 513L398.8 513.2L399.4 513.2L400 513.2L400.7 513.2L401.3 513.3L401.9 513.3L402.6 513.3L403.2 513.3L403.8 513.4L404.4 513.3L405.1 513.3L405.7 513.3L406.3 513.3L406.9 513.3L407.6 513.3L408.2 513.3L408.8 513.3L409.5 513.3L410.1 513.3L410.7 513.3L411.3 513.3L412 513.3L412.6 513.3L413.2 513.3L413.9 513.3L414.5 513.3L415.1 513.3L415.7 513.3L416.4 513.3L417 513.6L417.6 513.7L418.3 513.7L418.9 513.8L419.5 513.8L420.1 513.8L420.8 513.8L421.4 514L422 514L422.7 514L423.3 514.1L423.9 514.4L424.5 514.5L425.2 514.6L425.8 514.8L426.4 514.8L427.1 514.8L427.7 514.9L428.3 514.9L428.9 514.9L429.6 514.9L430.2 514.9L430.8 514.9L431.5 514.8L432.1 514.8L432.7 514.6L433.3 514.6L434 514.6L434.6 514.6L435.2 514.8L435.9 514.8L436.5 514.6L437.1 514.5L437.7 514.4L438.4 514.2L439 514.4L439.6 514.1L440.3 514.1L440.9 514.1L441.5 514.1L442.1 514.1L442.8 514.2L443.4 514.2L444 514.2L444.6 514.1L445.3 514.2L445.9 514L446.5 514L447.2 514L447.8 514L448.4 513.8L449 514L449.7 514L450.3 513.8L450.9 513.8L451.6 513.7L452.2 513.4L452.8 513.3L453.4 513.4L454.1 513.4L454.7 513.4L455.3 513.6L456 513.6L456.6 513.4L457.2 513.4L457.8 513.4L458.5 513.6L459.1 513.6L459.7 513.4L460.4 513.4L461 513.4L461.6 513.4L462.2 513.4L462.9 513.3L463.5 513.3L464.1 513.3L464.8 513.3L465.4 513.3L466 513.3L466.6 513.3L467.3 513.3L467.9 513.3L468.5 513.3L469.2 513.3L469.8 513.3L470.4 513.3L471 513.3L471.7 513.3L472.3 513.3L472.9 513.3L473.6 513.3L474.2 513.3L474.8 513.3L475.4 513.3L476.1 513.3L476.7 513.2L477.3 513.2L477.9 513.2L478.6 513.2L479.2 513.2L479.8 513.2L480.5 513.2L481.1 513.2L481.7 513.2L482.3 512.9L483 512.6L483.6 512.5L484.2 512.5L484.9 512.5L485.5 512.8L486.1 513L486.7 513.2L487.4 513.2L488 513.2L488.6 513.2L489.3 513.2L489.9 513.2L490.5 513.2L491.1 513L491.8 513L492.4 513L493 513L493.7 513L494.3 513L494.9 512.9L495.5 512.8L496.2 512.8L496.8 512.6L497.4 512.6L498.1 512.6L498.7 512.5L499.3 512.5L499.9 512.5L500.6 512.5L501.2 512.5L501.8 512.5L502.5 512.5L503.1 512.5L503.7 512.5L504.3 512.5L505 512.6L505.6 512.8L506.2 512.9L506.9 512.9L507.5 512.9L508.1 512.9L508.7 512.8L509.4 512.8L510 512.8L510.6 512.8L511.3 512.8L511.9 512.8L512.5 512.8L513.1 512.8L513.8 512.8L514.4 512.8L515 512.9L515.6 512.9L516.3 512.9L516.9 513L517.5 513L518.2 513L518.8 512.9L519.4 513.6L520 513.6L520.7 513.6L521.3 513.6L521.9 513.7L522.6 513.6L523.2 513.6L523.8 513.6L524.4 513.4L525.1 513.3L525.7 513.3L526.3 513.2L527 513.2L527.6 513.2L528.2 513.2L528.8 513.2L529.5 513L530.1 512.9L530.7 512.8L531.4 512.6L532 512.5L532.6 512.5L533.2 512.6L533.9 512.8L534.5 512.8L535.1 512.8L535.8 512.8L536.4 512.8L537 512.6L537.6 512.6L538.3 512.6L538.9 512.6L539.5 512.6L540.2 512.6L540.8 512.8L541.4 512.8L542 512.9L542.7 513L543.3 513L543.9 513.2L544.6 513.2L545.2 513.2L545.8 513.2L546.4 513.2L547.1 513L547.7 513L548.3 513L548.9 513L549.6 513L550.2 513L550.8 513.2L551.5 513.2L552.1 513.2L552.7 513.2L553.3 513.2L554 513.2L554.6 513.3L555.2 513.3L555.9 513.3L556.5 513.3L557.1 513.2L557.7 513L558.4 513L559 512.9L559.6 512.8L560.3 512.8L560.9 512.8L561.5 512.9L562.1 512.9L562.8 512.9L563.4 512.9L564 512.9L564.7 512.8L565.3 512.8L565.9 512.8L566.5 512.6L567.2 512.6L567.8 512.8L568.4 512.8L569.1 512.8L569.7 512.6L570.3 512.6L570.9 512.2L571.6 512.1L572.2 512.2L572.8 512.4L573.5 511.6L574.1 512L574.7 512.2L594.2 512L594.8 510.9L595.4 511.5L596.1 511L596.7 510.6L597.3 511.3L598 510.9L598.6 511.2L599.2 511.3L599.8 510.9L600.5 511.3L601.1 511.1L601.7 509.8L602.4 510.1L603 510.1L603.6 509.5L604.2 509.8L604.9 509.6L605.5 508.9L606.1 509.5L606.8 508.3L607.4 508L608 508.5L608.6 507.6L609.3 507L609.9 507.7L610.5 507.7L611.2 505.8L611.8 507.1L612.4 506.5L613 506.2L613.7 506.6L614.3 505.4L614.9 506.5L615.6 505.6L616.2 506L616.8 505.1L617.4 504L618.1 502.4L618.7 504L619.3 502.5L619.9 504.1L620.6 502.3L621.2 501.5L621.8 501.3L622.5 502.1L623.1 502L623.7 503.5L624.3 501.4L625 501.1L625.6 502.7L626.2 502.5L626.9 500.2L627.5 502.2L628.1 499.2L628.7 498.5L629.4 500.8L630 499.6L630.6 500.1L631.3 501.8L631.9 499.7L632.5 498.8L633.1 497.6L633.8 497.6L634.4 498L635 498.6L635.7 498.2L636.3 498.1L636.9 497.8L637.5 497.2L638.2 496.5L638.8 495.8L639.4 495L640.1 494.5L640.7 493.4L641.3 494.1L641.9 492.6L642.6 493.2L643.2 491.7L643.8 489.8L644.5 490.2L645.1 490.9L645.7 491.5L646.3 490.8L647 490.6L647.6 490L648.2 489.4L648.9 487.8L649.5 488.1L650.1 486.6L650.7 489.1L651.4 485.6L652 482.3L652.6 482.6L653.3 485.7L653.9 485.6L654.5 482.9L655.1 489L655.8 496.2L656.4 491.1L657 485.9L657.6 487.8L658.3 481.1L658.9 479.3L659.5 474L660.2 474.1L660.8 473.1L661.4 474.3L662 470.8L662.7 467.3L663.3 469.5L663.9 473.3L664.6 476.7L665.2 473.2L665.8 473.8L666.4 475.1L667.1 473.1L667.7 470.1L668.3 470.4L669 466.3L669.6 475.7L670.2 484.8L670.8 488.9L671.5 490.4L672.1 495.9L672.7 494L673.4 478L674 474.5L674.6 471.3L675.2 464.4L675.9 461.4L676.5 457.9L677.1 456.6L677.8 455.1L678.4 452.3L679 448.7L679.6 445.6L680.3 441.7L680.9 440.5L681.5 439L682.2 433.7L682.8 429.7L683.4 425.3L684 421.7L684.7 415.9L685.3 411.6L685.9 406.9L686.6 402.3L687.2 397.8L687.8 390.1L688.4 383.6L689.1 378.1L689.7 372.9L690.3 365.9L690.9 362.3L691.6 364.2L692.2 357.8L692.8 352.3L693.5 348.2L694.1 343.3L694.7 341.6L695.3 340.7L696 337L696.6 335.6L697.2 333.9L697.9 332L698.5 328.3L699.1 324.2L699.7 316.3L700.4 309.9L701 305.6L701.6 304.3L702.3 301.7L702.9 304L703.5 299.5L704.1 295.5L704.8 293L705.4 288.2L706 280.5L706.7 273L707.3 264.2L707.9 260.2L708.5 258.3L709.2 257.2L709.8 251L710.4 247.8L711.1 242.5L711.7 237.2L712.3 237.9L712.9 247.5L713.6 243.2L714.2 238.4L714.8 239.4L715.5 238.9L716.1 239.7L716.7 237.4L717.3 235L718 229L718.6 224.1"></path><polyline points="254.90,515.80 255.50,516.10 256.20,516.40 256.80,516.50 257.40,516.60 258.00,516.40 258.70,516.40 259.30,516.20 259.90,516.00 260.60,515.80 261.20,515.80 261.80,515.80 262.40,515.70 263.10,515.60 263.70,516.20 264.30,516.60 264.90,516.40 265.60,516.10 266.20,515.70 266.80,515.30 267.50,515.00 268.10,514.80 268.70,514.40 269.30,514.10 270.00,514.00 270.60,513.60 271.20,512.80 271.90,512.50 272.50,512.20 273.10,512.10 273.70,512.00 274.40,512.10 275.00,511.80 275.60,512.40 276.30,512.50 276.90,512.90 277.50,513.00 278.10,512.90 278.80,512.80 279.40,512.80 280.00,513.60 280.70,513.60 281.30,513.60 281.90,513.30 282.50,513.20 283.20,512.60 283.80,512.60 284.40,512.90 285.10,513.00 285.70,513.30 286.30,513.60 286.90,513.80 287.60,513.80 288.20,513.70 288.80,513.00 289.50,512.90 290.10,512.80 290.70,512.50 291.30,512.80 292.00,512.90 292.60,513.00 293.20,513.00 293.90,513.20 294.50,513.00 295.10,513.00 295.70,513.00 296.40,512.60 297.00,512.10 297.60,511.70 298.30,511.70 298.90,511.30 299.50,511.30 300.10,511.40 300.80,511.40 301.40,510.90 302.00,510.90 302.60,511.20 303.30,511.30 303.90,511.30 304.50,511.60 305.20,511.70 305.80,511.70 306.40,511.60 307.00,511.60 307.70,511.40 308.30,511.40 308.90,511.60 309.60,511.60 310.20,511.40 310.80,511.30 311.40,511.20 312.10,511.30 312.70,511.30 313.30,511.40 314.00,511.60 314.60,511.60 315.20,511.70 315.80,511.80 316.50,511.80 317.10,511.80 317.70,512.00 318.40,512.10 319.00,512.20 319.60,512.40 320.20,512.40 320.90,512.40 321.50,512.20 322.10,512.10 322.80,512.00 323.40,511.70 324.00,511.40 324.60,511.40 325.30,511.40 325.90,511.60 326.50,511.60 327.20,511.70 327.80,511.40 328.40,511.60 329.00,511.60 329.70,511.70 330.30,512.10 330.90,512.20 331.60,512.40 332.20,512.50 332.80,512.60 333.40,512.50 334.10,512.50 334.70,512.40 335.30,512.40 335.90,512.40 336.60,512.40 337.20,512.40 337.80,512.50 338.50,512.50 339.10,512.50 339.70,512.50 340.30,512.50 341.00,512.60 341.60,512.60 342.20,512.60 342.90,512.60 343.50,512.60 344.10,512.50 344.70,512.50 345.40,512.50 346.00,512.50 346.60,512.40 347.30,512.50 347.90,512.40 348.50,512.40 349.10,512.40 349.80,512.20 350.40,512.20 351.00,512.20 351.70,512.20 352.30,512.20 352.90,512.20 353.50,512.10 354.20,512.10 354.80,512.10 355.40,512.10 356.10,512.10 356.70,512.10 357.30,512.00 357.90,512.00 358.60,512.00 359.20,512.00 359.80,511.80 360.50,512.00 361.10,512.00 361.70,512.00 362.30,512.00 363.00,512.10 363.60,512.00 364.20,512.10 364.90,512.10 365.50,512.20 366.10,512.20 366.70,512.40 367.40,512.40 368.00,512.50 368.60,512.60 369.30,512.60 369.90,512.80 370.50,512.80 371.10,512.80 371.80,512.80 372.40,512.80 373.00,512.80 373.60,512.60 374.30,512.60 374.90,512.50 375.50,512.20 376.20,512.20 376.80,512.40 377.40,512.50 378.00,512.80 378.70,513.00 379.30,513.00 379.90,513.20 380.60,513.00 381.20,513.00 381.80,512.80 382.40,512.80 383.10,512.60 383.70,512.60 384.30,512.60 385.00,512.50 385.60,512.50 386.20,512.50 386.80,512.50 387.50,512.50 388.10,512.50 388.70,512.50 389.40,512.60 390.00,512.60 390.60,512.60 391.20,512.60 391.90,512.60 392.50,512.80 393.10,512.90 393.80,512.80 394.40,512.90 395.00,513.00 395.60,513.00 396.30,513.00 396.90,513.20 397.50,513.20 398.20,513.00 398.80,513.20 399.40,513.20 400.00,513.20 400.70,513.20 401.30,513.30 401.90,513.30 402.60,513.30 403.20,513.30 403.80,513.40 404.40,513.30 405.10,513.30 405.70,513.30 406.30,513.30 406.90,513.30 407.60,513.30 408.20,513.30 408.80,513.30 409.50,513.30 410.10,513.30 410.70,513.30 411.30,513.30 412.00,513.30 412.60,513.30 413.20,513.30 413.90,513.30 414.50,513.30 415.10,513.30 415.70,513.30 416.40,513.30 417.00,513.60 417.60,513.70 418.30,513.70 418.90,513.80 419.50,513.80 420.10,513.80 420.80,513.80 421.40,514.00 422.00,514.00 422.70,514.00 423.30,514.10 423.90,514.40 424.50,514.50 425.20,514.60 425.80,514.80 426.40,514.80 427.10,514.80 427.70,514.90 428.30,514.90 428.90,514.90 429.60,514.90 430.20,514.90 430.80,514.90 431.50,514.80 432.10,514.80 432.70,514.60 433.30,514.60 434.00,514.60 434.60,514.60 435.20,514.80 435.90,514.80 436.50,514.60 437.10,514.50 437.70,514.40 438.40,514.20 439.00,514.40 439.60,514.10 440.30,514.10 440.90,514.10 441.50,514.10 442.10,514.10 442.80,514.20 443.40,514.20 444.00,514.20 444.60,514.10 445.30,514.20 445.90,514.00 446.50,514.00 447.20,514.00 447.80,514.00 448.40,513.80 449.00,514.00 449.70,514.00 450.30,513.80 450.90,513.80 451.60,513.70 452.20,513.40 452.80,513.30 453.40,513.40 454.10,513.40 454.70,513.40 455.30,513.60 456.00,513.60 456.60,513.40 457.20,513.40 457.80,513.40 458.50,513.60 459.10,513.60 459.70,513.40 460.40,513.40 461.00,513.40 461.60,513.40 462.20,513.40 462.90,513.30 463.50,513.30 464.10,513.30 464.80,513.30 465.40,513.30 466.00,513.30 466.60,513.30 467.30,513.30 467.90,513.30 468.50,513.30 469.20,513.30 469.80,513.30 470.40,513.30 471.00,513.30 471.70,513.30 472.30,513.30 472.90,513.30 473.60,513.30 474.20,513.30 474.80,513.30 475.40,513.30 476.10,513.30 476.70,513.20 477.30,513.20 477.90,513.20 478.60,513.20 479.20,513.20 479.80,513.20 480.50,513.20 481.10,513.20 481.70,513.20 482.30,512.90 483.00,512.60 483.60,512.50 484.20,512.50 484.90,512.50 485.50,512.80 486.10,513.00 486.70,513.20 487.40,513.20 488.00,513.20 488.60,513.20 489.30,513.20 489.90,513.20 490.50,513.20 491.10,513.00 491.80,513.00 492.40,513.00 493.00,513.00 493.70,513.00 494.30,513.00 494.90,512.90 495.50,512.80 496.20,512.80 496.80,512.60 497.40,512.60 498.10,512.60 498.70,512.50 499.30,512.50 499.90,512.50 500.60,512.50 501.20,512.50 501.80,512.50 502.50,512.50 503.10,512.50 503.70,512.50 504.30,512.50 505.00,512.60 505.60,512.80 506.20,512.90 506.90,512.90 507.50,512.90 508.10,512.90 508.70,512.80 509.40,512.80 510.00,512.80 510.60,512.80 511.30,512.80 511.90,512.80 512.50,512.80 513.10,512.80 513.80,512.80 514.40,512.80 515.00,512.90 515.60,512.90 516.30,512.90 516.90,513.00 517.50,513.00 518.20,513.00 518.80,512.90 519.40,513.60 520.00,513.60 520.70,513.60 521.30,513.60 521.90,513.70 522.60,513.60 523.20,513.60 523.80,513.60 524.40,513.40 525.10,513.30 525.70,513.30 526.30,513.20 527.00,513.20 527.60,513.20 528.20,513.20 528.80,513.20 529.50,513.00 530.10,512.90 530.70,512.80 531.40,512.60 532.00,512.50 532.60,512.50 533.20,512.60 533.90,512.80 534.50,512.80 535.10,512.80 535.80,512.80 536.40,512.80 537.00,512.60 537.60,512.60 538.30,512.60 538.90,512.60 539.50,512.60 540.20,512.60 540.80,512.80 541.40,512.80 542.00,512.90 542.70,513.00 543.30,513.00 543.90,513.20 544.60,513.20 545.20,513.20 545.80,513.20 546.40,513.20 547.10,513.00 547.70,513.00 548.30,513.00 548.90,513.00 549.60,513.00 550.20,513.00 550.80,513.20 551.50,513.20 552.10,513.20 552.70,513.20 553.30,513.20 554.00,513.20 554.60,513.30 555.20,513.30 555.90,513.30 556.50,513.30 557.10,513.20 557.70,513.00 558.40,513.00 559.00,512.90 559.60,512.80 560.30,512.80 560.90,512.80 561.50,512.90 562.10,512.90 562.80,512.90 563.40,512.90 564.00,512.90 564.70,512.80 565.30,512.80 565.90,512.80 566.50,512.60 567.20,512.60 567.80,512.80 568.40,512.80 569.10,512.80 569.70,512.60 570.30,512.60 570.90,512.20 571.60,512.10 572.20,512.20 572.80,512.40 573.50,511.60 574.10,512.00 574.70,512.20 594.20,512.00 594.80,510.90 595.40,511.50 596.10,511.00 596.70,510.60 597.30,511.30 598.00,510.90 598.60,511.20 599.20,511.30 599.80,510.90 600.50,511.30 601.10,511.10 601.70,509.80 602.40,510.10 603.00,510.10 603.60,509.50 604.20,509.80 604.90,509.60 605.50,508.90 606.10,509.50 606.80,508.30 607.40,508.00 608.00,508.50 608.60,507.60 609.30,507.00 609.90,507.70 610.50,507.70 611.20,505.80 611.80,507.10 612.40,506.50 613.00,506.20 613.70,506.60 614.30,505.40 614.90,506.50 615.60,505.60 616.20,506.00 616.80,505.10 617.40,504.00 618.10,502.40 618.70,504.00 619.30,502.50 619.90,504.10 620.60,502.30 621.20,501.50 621.80,501.30 622.50,502.10 623.10,502.00 623.70,503.50 624.30,501.40 625.00,501.10 625.60,502.70 626.20,502.50 626.90,500.20 627.50,502.20 628.10,499.20 628.70,498.50 629.40,500.80 630.00,499.60 630.60,500.10 631.30,501.80 631.90,499.70 632.50,498.80 633.10,497.60 633.80,497.60 634.40,498.00 635.00,498.60 635.70,498.20 636.30,498.10 636.90,497.80 637.50,497.20 638.20,496.50 638.80,495.80 639.40,495.00 640.10,494.50 640.70,493.40 641.30,494.10 641.90,492.60 642.60,493.20 643.20,491.70 643.80,489.80 644.50,490.20 645.10,490.90 645.70,491.50 646.30,490.80 647.00,490.60 647.60,490.00 648.20,489.40 648.90,487.80 649.50,488.10 650.10,486.60 650.70,489.10 651.40,485.60 652.00,482.30 652.60,482.60 653.30,485.70 653.90,485.60 654.50,482.90 655.10,489.00 655.80,496.20 656.40,491.10 657.00,485.90 657.60,487.80 658.30,481.10 658.90,479.30 659.50,474.00 660.20,474.10 660.80,473.10 661.40,474.30 662.00,470.80 662.70,467.30 663.30,469.50 663.90,473.30 664.60,476.70 665.20,473.20 665.80,473.80 666.40,475.10 667.10,473.10 667.70,470.10 668.30,470.40 669.00,466.30 669.60,475.70 670.20,484.80 670.80,488.90 671.50,490.40 672.10,495.90 672.70,494.00 673.40,478.00 674.00,474.50 674.60,471.30 675.20,464.40 675.90,461.40 676.50,457.90 677.10,456.60 677.80,455.10 678.40,452.30 679.00,448.70 679.60,445.60 680.30,441.70 680.90,440.50 681.50,439.00 682.20,433.70 682.80,429.70 683.40,425.30 684.00,421.70 684.70,415.90 685.30,411.60 685.90,406.90 686.60,402.30 687.20,397.80 687.80,390.10 688.40,383.60 689.10,378.10 689.70,372.90 690.30,365.90 690.90,362.30 691.60,364.20 692.20,357.80 692.80,352.30 693.50,348.20 694.10,343.30 694.70,341.60 695.30,340.70 696.00,337.00 696.60,335.60 697.20,333.90 697.90,332.00 698.50,328.30 699.10,324.20 699.70,316.30 700.40,309.90 701.00,305.60 701.60,304.30 702.30,301.70 702.90,304.00 703.50,299.50 704.10,295.50 704.80,293.00 705.40,288.20 706.00,280.50 706.70,273.00 707.30,264.20 707.90,260.20 708.50,258.30 709.20,257.20 709.80,251.00 710.40,247.80 711.10,242.50 711.70,237.20 712.30,237.90 712.90,247.50 713.60,243.20 714.20,238.40 714.80,239.40 715.50,238.90 716.10,239.70 716.70,237.40 717.30,235.00 718.00,229.00 718.60,224.10" stroke-linejoin="round" stroke-width="1.5" stroke="#C05917" fill="none" stroke-linecap="butt"></polyline></g><g><path fill="none" stroke-linecap="butt" stroke-linejoin="round" stroke="#fff" stroke-width="2.5" d="M79 516.6L135.5 516.6L154.4 516.9L330.3 515.2L336.6 515.1L342.9 515.1L349.1 514.5L355.4 514.8L361.7 515.4L368 515.8L374.3 515.7L380.6 516.5L386.8 516.9L393.1 516.7L399.4 516.2L405.7 517.1L412 516.9L418.3 516.8L424.5 516.8L430.8 516.8L437.1 516.5L443.4 516.7L449.7 516.7L456 516.7L462.2 516.1L468.5 516.3L494.3 515.8L509.4 516.2L512.5 515.1L518.8 514.1L525.1 515.2L531.4 515.9L533.9 517L537.6 516.5L543.9 517.1L550.2 517.9L556.5 518.2L560.3 518.4L562.8 518.4L569.1 518.5L575.3 518.7L581.6 518.9L587.9 519.1L594.2 519.3L600.5 519.6L606.8 519.5L613 519.5L625.6 518.8L636.3 519L638.2 518.6L644.5 518.6L651.4 519.1L652.6 518.5L662.7 518.3L663.3 518.3L663.9 518.2L664.6 518.1L665.2 519L665.8 518.9L666.4 518.3L667.1 517.8L667.7 518.1L668.3 518.3L675.9 519.9L676.5 518.7L677.1 518L677.8 517.1L678.4 518L679 517.4L679.6 516.9L680.3 516.8L680.9 517L681.5 517.4L682.2 517.9L682.8 519.3L683.4 518.9L684 518.1L684.7 517.2L685.3 516.4L685.9 516.3L686.6 516.5L687.2 517L687.8 516.3L688.4 515.2L689.1 514.9L689.7 515L690.3 514.3L690.9 514.3L691.6 513.7L692.2 514.3L692.8 513.8L693.5 512.5L694.1 511.6L694.7 511.1L695.3 510.8L696 509.5L696.6 508.7L697.2 507L697.9 505.7L698.5 504.6L699.1 503.2L699.7 502.3L700.4 502.5L701 502.8L701.6 502.3L702.3 500.9L702.9 498.7L703.5 496.9L704.1 494.8L704.8 493.1L705.4 492.4L706 492.4L706.7 491.2L707.3 489.1L707.9 487L708.5 484.3L709.2 481.9L709.8 478.6L710.4 474.2L711.1 469.2L711.7 464.3L712.3 462L712.9 457.7L713.6 450.4L714.2 446L714.8 442.4L715.5 437.4L716.1 432.5L716.7 430.2L717.3 427.6L718 426.3L718.6 423.4"></path><polyline points="79.00,516.60 135.50,516.60 154.40,516.90 330.30,515.20 336.60,515.10 342.90,515.10 349.10,514.50 355.40,514.80 361.70,515.40 368.00,515.80 374.30,515.70 380.60,516.50 386.80,516.90 393.10,516.70 399.40,516.20 405.70,517.10 412.00,516.90 418.30,516.80 424.50,516.80 430.80,516.80 437.10,516.50 443.40,516.70 449.70,516.70 456.00,516.70 462.20,516.10 468.50,516.30 494.30,515.80 509.40,516.20 512.50,515.10 518.80,514.10 525.10,515.20 531.40,515.90 533.90,517.00 537.60,516.50 543.90,517.10 550.20,517.90 556.50,518.20 560.30,518.40 562.80,518.40 569.10,518.50 575.30,518.70 581.60,518.90 587.90,519.10 594.20,519.30 600.50,519.60 606.80,519.50 613.00,519.50 625.60,518.80 636.30,519.00 638.20,518.60 644.50,518.60 651.40,519.10 652.60,518.50 662.70,518.30 663.30,518.30 663.90,518.20 664.60,518.10 665.20,519.00 665.80,518.90 666.40,518.30 667.10,517.80 667.70,518.10 668.30,518.30 675.90,519.90 676.50,518.70 677.10,518.00 677.80,517.10 678.40,518.00 679.00,517.40 679.60,516.90 680.30,516.80 680.90,517.00 681.50,517.40 682.20,517.90 682.80,519.30 683.40,518.90 684.00,518.10 684.70,517.20 685.30,516.40 685.90,516.30 686.60,516.50 687.20,517.00 687.80,516.30 688.40,515.20 689.10,514.90 689.70,515.00 690.30,514.30 690.90,514.30 691.60,513.70 692.20,514.30 692.80,513.80 693.50,512.50 694.10,511.60 694.70,511.10 695.30,510.80 696.00,509.50 696.60,508.70 697.20,507.00 697.90,505.70 698.50,504.60 699.10,503.20 699.70,502.30 700.40,502.50 701.00,502.80 701.60,502.30 702.30,500.90 702.90,498.70 703.50,496.90 704.10,494.80 704.80,493.10 705.40,492.40 706.00,492.40 706.70,491.20 707.30,489.10 707.90,487.00 708.50,484.30 709.20,481.90 709.80,478.60 710.40,474.20 711.10,469.20 711.70,464.30 712.30,462.00 712.90,457.70 713.60,450.40 714.20,446.00 714.80,442.40 715.50,437.40 716.10,432.50 716.70,430.20 717.30,427.60 718.00,426.30 718.60,423.40" stroke-linejoin="round" stroke-width="1.5" stroke="#3C4E66" fill="none" stroke-linecap="butt"></polyline></g></g></g></g><g class="SourcesFooter" style="fill:#777"><g style="fill:#777"><text font-size="12.60" x="15.0" y="582.5"><tspan x="15" y="582.48">Source: Maddison Project Database 2020 (Bolt and van Zanden (2020))</tspan></text></g><text font-size="12.60" x="570.4" y="582.5"><tspan x="570.4" y="582.48"><a target='_blank' style='fill: #777;' href='https://ourworldindata.org/economic-growth'>OurWorldInData.org/economic-growth</a> • <a style="fill: #777;" class="cclogo" href="http://creativecommons.org/licenses/by/4.0/deed.en_US" target="_blank">CC BY</a></tspan></text></g></svg>