<svg xmlns="http://www.w3.org/2000/svg" class="prefix__svglite" viewBox="0 0 810 625"><rect width="100%" height="100%" style="stroke:none;fill:#fff;stroke-linecap:round;stroke-linejoin:round;stroke-miterlimit:10"/><defs><clipPath id="prefix__a"><rect x="0" y="0" width="810" height="625" style="fill:none;stroke:#000;stroke-linecap:round;stroke-linejoin:round;stroke-miterlimit:10"/></clipPath></defs><g clip-path="url(#prefix__a)"><rect x="0" y="0" width="810" height="625" style="stroke-width:1.07;stroke:#fff;fill:#fff;stroke-linecap:round;stroke-linejoin:round;stroke-miterlimit:10"/><rect x="116.18" y="14.17" width="679.65" height="529.93" style="stroke-width:1.07;stroke:none;fill:#fff;stroke-linecap:round;stroke-linejoin:round;stroke-miterlimit:10"/><polyline points="116.18 455.78 795.83 455.78" style="stroke-width:1.07;stroke:#c6c4c4;stroke-linecap:butt;fill:none;stroke-linejoin:round;stroke-miterlimit:10"/><polyline points="116.18 367.46 795.83 367.46" style="stroke-width:1.07;stroke:#c6c4c4;stroke-linecap:butt;fill:none;stroke-linejoin:round;stroke-miterlimit:10"/><polyline points="116.18 279.14 795.83 279.14" style="stroke-width:1.07;stroke:#c6c4c4;stroke-linecap:butt;fill:none;stroke-linejoin:round;stroke-miterlimit:10"/><polyline points="116.18 190.82 795.83 190.82" style="stroke-width:1.07;stroke:#c6c4c4;stroke-linecap:butt;fill:none;stroke-linejoin:round;stroke-miterlimit:10"/><polyline points="116.18 102.49 795.83 102.49" style="stroke-width:1.07;stroke:#c6c4c4;stroke-linecap:butt;fill:none;stroke-linejoin:round;stroke-miterlimit:10"/><polyline points="116.18 14.17 795.83 14.17" style="stroke-width:1.07;stroke:#c6c4c4;stroke-linecap:butt;fill:none;stroke-linejoin:round;stroke-miterlimit:10"/><polyline points="116.18 530.73 116.83 530.73 117.47 530.74 118.12 530.74 118.77 530.75 119.42 530.76 120.06 530.76 120.71 530.77 121.36 530.77 122 530.78 122.65 530.78 123.3 530.79 123.95 530.79 124.59 530.8 125.24 530.8 125.89 530.81 126.54 530.81 127.18 530.82 127.83 530.82 128.48 530.83 129.12 530.84 129.77 530.84 130.42 530.85 131.07 530.85 131.71 530.86 132.36 530.86 133.01 530.87 133.66 530.87 134.3 530.88 134.95 530.88 135.6 530.89 136.25 530.89 136.89 530.9 137.54 530.9 138.19 530.91 138.83 530.91 139.48 530.92 140.13 530.92 140.78 530.93 141.42 530.94 142.07 530.94 142.72 530.95 143.37 530.95 144.01 530.96 144.66 530.96 145.31 530.97 145.95 530.97 146.6 530.98 147.25 530.98 147.9 530.99 148.54 530.99 149.19 531 149.84 531 150.49 531.01 151.13 531.01 151.78 531.02 152.43 531.02 153.07 531.03 153.72 531.03 154.37 531.04 155.02 531.05 155.66 531.05 156.31 531.06 156.96 531.06 157.61 531.07 158.25 531.07 158.9 531.08 159.55 531.08 160.19 531.09 160.84 531.09 161.49 531.1 162.14 531.1 162.78 531.11 163.43 531.11 164.08 531.12 164.73 531.12 165.37 531.13 166.02 531.13 166.67 531.14 167.31 531.14 167.96 531.15 168.61 531.15 169.26 531.16 169.9 531.16 170.55 531.17 171.2 531.17 171.85 531.18 172.49 531.19 173.14 531.19 173.79 531.2 174.43 531.2 175.08 531.21 175.73 531.21 176.38 531.22 177.02 531.22 177.67 531.23 178.32 531.23 178.97 531.24 179.61 531.24 180.26 531.25 180.91 531.25 181.55 531.26 182.2 531.26 182.85 531.27 183.5 531.27 184.14 531.28 184.79 531.28 185.44 531.29 186.09 531.29 186.73 531.3 187.38 531.3 188.03 531.31 188.67 531.31 189.32 531.32 189.97 531.32 190.62 531.33 191.26 531.33 191.91 531.34 192.56 531.34 193.21 531.35 193.85 531.35 194.5 531.36 195.15 531.36 195.8 531.37 196.44 531.37 197.09 531.38 197.74 531.38 198.38 531.39 199.03 531.39 199.68 531.4 200.33 531.4 200.97 531.41 201.62 531.41 202.27 531.42 202.92 531.42 203.56 531.43 204.21 531.44 204.86 531.44 205.5 531.45 206.15 531.45 206.8 531.46 207.45 531.46 208.09 531.47 208.74 531.47 209.39 531.48 210.04 531.48 210.68 531.49 211.33 531.49 211.98 531.5 212.62 531.5 213.27 531.51 213.92 531.51 214.57 531.52 215.21 531.52 215.86 531.53 216.51 531.53 217.16 531.54 217.8 531.54 218.45 531.55 219.1 531.55 219.74 531.56 220.39 531.56 221.04 531.57 221.69 531.57 222.33 531.58 222.98 531.58 223.63 531.59 224.28 531.59 224.92 531.6 225.57 531.6 226.22 531.61 226.86 531.61 227.51 531.62 228.16 531.62 228.81 531.63 229.45 531.63 230.1 531.64 230.75 531.64 231.4 531.65 232.04 531.65 232.69 531.66 233.34 531.66 233.98 531.67 234.63 531.67 235.28 531.68 235.93 531.68 236.57 531.69 237.22 531.69 237.87 531.7 238.52 531.7 239.16 531.7 239.81 531.71 240.46 531.71 241.1 531.72 241.75 531.72 242.4 531.73 243.05 531.73 243.69 531.74 244.34 531.74 244.99 531.75 245.64 531.75 246.28 531.76 246.93 531.76 247.58 531.77 248.23 531.77 248.87 531.78 249.52 531.78 250.17 531.79 250.81 531.79 251.46 531.8 252.11 531.8 252.76 531.81 253.4 531.81 254.05 531.82 254.7 531.82 255.35 531.83 255.99 531.83 256.64 531.84 257.29 531.84 257.93 531.85 258.58 531.85 259.23 531.86 259.88 531.86 260.52 531.87 261.17 531.87 261.82 531.88 262.47 531.88 263.11 531.89 263.76 531.89 264.41 531.9 265.05 531.9 265.7 531.91 266.35 531.91 267 531.92 267.64 531.92 268.29 531.93 268.94 531.93 269.59 531.94 270.23 531.94 270.88 531.94 271.53 531.95 272.17 531.95 272.82 531.96 273.47 531.96 274.12 531.97 274.76 531.97 275.41 531.98 276.06 531.98 276.71 531.99 277.35 531.99 278 532 278.65 532 279.29 532.01 279.94 532.01 280.59 532.02 281.24 532.02 281.88 532.03 282.53 532.03 283.18 532.04 283.83 532.04 284.47 532.05 285.12 532.05 285.77 532.06 286.41 532.06 287.06 532.07 287.71 532.07 288.36 532.08 289 532.08 289.65 532.08 290.3 532.09 290.95 532.09 291.59 532.1 292.24 532.1 292.89 532.11 293.53 532.11 294.18 532.12 294.83 532.12 295.48 532.13 296.12 532.13 296.77 532.14 297.42 532.14 298.07 532.09 298.71 532.03 299.36 531.98 300.01 531.92 300.66 531.86 301.3 531.81 301.95 531.75 302.6 531.7 303.24 531.64 303.89 531.58 304.54 531.52 305.19 531.47 305.83 531.41 306.48 531.35 307.13 531.29 307.78 531.23 308.42 531.17 309.07 531.11 309.72 531.05 310.36 530.99 311.01 530.98 311.66 530.96 312.31 530.95 312.95 530.93 313.6 530.91 314.25 530.9 314.9 530.88 315.54 530.87 316.19 530.85 316.84 530.84 317.48 530.82 318.13 530.8 318.78 530.79 319.43 530.77 320.07 530.76 320.72 530.74 321.37 530.72 322.02 530.71 322.66 530.69 323.31 530.68 323.96 530.66 324.6 530.64 325.25 530.63 325.9 530.61 326.55 530.59 327.19 530.58 327.84 530.56 328.49 530.55 329.14 530.53 329.78 530.51 330.43 530.5 331.08 530.48 331.72 530.46 332.37 530.45 333.02 530.43 333.67 530.42 334.31 530.4 334.96 530.38 335.61 530.37 336.26 530.35 336.9 530.33 337.55 530.32 338.2 530.3 338.84 530.28 339.49 530.27 340.14 530.25 340.79 530.23 341.43 530.22 342.08 530.13 342.73 530.04 343.38 529.95 344.02 529.85 344.67 529.76 345.32 529.67 345.96 529.58 346.61 529.48 347.26 529.39 347.91 529.29 348.55 529.2 349.2 529.1 349.85 529 350.5 528.91 351.14 528.81 351.79 528.71 352.44 528.61 353.08 528.51 353.73 528.41 354.38 528.31 355.03 528.2 355.67 528.1 356.32 528 356.97 527.89 357.62 527.79 358.26 527.68 358.91 527.58 359.56 527.47 360.21 527.36 360.85 527.25 361.5 527.15 362.15 527.04 362.79 526.93 363.44 526.81 364.09 526.7 364.74 526.59 365.38 526.48 366.03 526.36 366.68 526.25 367.33 526.13 367.97 526.02 368.62 525.9 369.27 525.78 369.91 525.66 370.56 525.54 371.21 525.42 371.86 525.3 372.5 525.18 373.15 525.06 373.8 524.94 374.45 524.81 375.09 524.69 375.74 524.7 376.39 524.7 377.03 524.71 377.68 524.72 378.33 524.73 378.98 524.74 379.62 524.75 380.27 524.75 380.92 524.76 381.57 524.77 382.21 524.78 382.86 524.79 383.51 524.79 384.15 524.8 384.8 524.81 385.45 524.82 386.1 524.83 386.74 524.83 387.39 524.84 388.04 524.85 388.69 524.86 389.33 524.87 389.98 524.88 390.63 524.88 391.27 524.89 391.92 524.9 392.57 524.91 393.22 524.92 393.86 524.92 394.51 524.93 395.16 524.94 395.81 524.95 396.45 524.96 397.1 524.96 397.75 524.97 398.39 524.98 399.04 524.99 399.69 525 400.34 525.01 400.98 525.01 401.63 525.02 402.28 525.03 402.93 525.04 403.57 525.05 404.22 525.05 404.87 525.06 405.51 525.07 406.16 525.08 406.81 525.09 407.46 525.09 408.1 525.09 408.75 525.09 409.4 525.08 410.05 525.08 410.69 525.08 411.34 525.07 411.99 525.07 412.64 525.07 413.28 525.06 413.93 525.06 414.58 525.06 415.22 525.05 415.87 525.05 416.52 525.04 417.17 525.04 417.81 525.04 418.46 525.03 419.11 525.03 419.76 525.03 420.4 525.02 421.05 525.02 421.7 525.02 422.34 525.01 422.99 525.01 423.64 525.01 424.29 525 424.93 525 425.58 525 426.23 524.99 426.88 524.99 427.52 524.98 428.17 524.98 428.82 524.98 429.46 524.97 430.11 524.97 430.76 524.97 431.41 524.96 432.05 524.96 432.7 524.96 433.35 524.95 434 524.95 434.64 524.95 435.29 524.94 435.94 524.94 436.58 524.94 437.23 524.93 437.88 524.93 438.53 524.92 439.17 524.92 439.82 524.92 440.47 524.93 441.12 524.94 441.76 524.95 442.41 524.96 443.06 524.97 443.7 524.98 444.35 524.99 445 525 445.65 525.01 446.29 525.02 446.94 525.03 447.59 525.04 448.24 525.05 448.88 525.06 449.53 525.07 450.18 525.08 450.82 525.09 451.47 525.1 452.12 525.11 452.77 525.12 453.41 525.13 454.06 525.14 454.71 525.15 455.36 525.16 456 525.17 456.65 525.18 457.3 525.19 457.94 525.2 458.59 525.21 459.24 525.22 459.89 525.23 460.53 525.24 461.18 525.25 461.83 525.26 462.48 525.26 463.12 525.27 463.77 525.28 464.42 525.29 465.06 525.3 465.71 525.31 466.36 525.32 467.01 525.33 467.65 525.34 468.3 525.35 468.95 525.36 469.6 525.37 470.24 525.38 470.89 525.39 471.54 525.4 472.19 525.41 472.83 525.37 473.48 525.32 474.13 525.27 474.77 525.23 475.42 525.18 476.07 525.14 476.72 525.09 477.36 525.04 478.01 525 478.66 524.95 479.31 524.9 479.95 524.86 480.6 524.81 481.25 524.76 481.89 524.71 482.54 524.67 483.19 524.62 483.84 524.57 484.48 524.52 485.13 524.48 485.78 524.49 486.43 524.51 487.07 524.53 487.72 524.54 488.37 524.56 489.01 524.58 489.66 524.6 490.31 524.61 490.96 524.63 491.6 524.65 492.25 524.67 492.9 524.68 493.55 524.7 494.19 524.72 494.84 524.73 495.49 524.75 496.13 524.77 496.78 524.78 497.43 524.8 498.08 524.82 498.72 524.84 499.37 524.85 500.02 524.87 500.67 524.89 501.31 524.9 501.96 524.92 502.61 524.94 503.25 524.95 503.9 524.97 504.55 524.99 505.2 524.99 505.84 525 506.49 525 507.14 525.01 507.79 525.01 508.43 525.01 509.08 525.02 509.73 525.02 510.37 525.03 511.02 525.03 511.67 525.04 512.32 525.04 512.96 525.05 513.61 525.05 514.26 525.05 514.91 525.06 515.55 525.06 516.2 525.07 516.85 525.07 517.49 525.08 518.14 525.08 518.79 525.09 519.44 525.09 520.08 525.09 520.73 525.1 521.38 525.1 522.03 525.11 522.67 525.11 523.32 525.12 523.97 525.12 524.62 525.13 525.26 525.13 525.91 525.13 526.56 525.14 527.2 525.14 527.85 525.15 528.5 525.15 529.15 525.16 529.79 525.16 530.44 525.17 531.09 525.17 531.74 525.17 532.38 525.18 533.03 525.18 533.68 525.19 534.32 525.19 534.97 525.2 535.62 525.2 536.27 525.2 536.91 525.21 537.56 525.08 538.21 524.95 538.86 524.81 539.5 524.68 540.15 524.54 540.8 524.41 541.44 524.27 542.09 524.13 542.74 523.99 543.39 523.85 544.03 523.71 544.68 523.57 545.33 523.43 545.98 523.28 546.62 523.14 547.27 522.99 547.92 522.84 548.56 522.7 549.21 522.55 549.86 522.4 550.51 522.25 551.15 522.09 551.8 521.94 552.45 521.79 553.1 521.63 553.74 521.47 554.39 521.32 555.04 521.16 555.68 521 556.33 520.84 556.98 520.68 557.63 520.51 558.27 520.35 558.92 520.18 559.57 520.02 560.22 519.85 560.86 519.68 561.51 519.51 562.16 519.34 562.8 519.17 563.45 518.99 564.1 518.82 564.75 518.64 565.39 518.46 566.04 518.29 566.69 518.11 567.34 517.93 567.98 517.74 568.63 517.56 569.28 517.37 569.92 515.16 570.57 516.1 571.22 518.12 571.87 513.32 572.51 514.95 573.16 519.5 573.81 516.56 574.46 514.89 575.1 518.85 575.75 521.21 576.4 519.11 577.04 519.09 577.69 520.2 578.34 517.91 578.99 518.67 579.63 517.87 580.28 516.58 580.93 515.22 581.58 515.92 582.22 514.02 582.87 515.17 583.52 514.88 584.17 515.69 584.81 516.08 585.46 515.45 586.11 516.57 586.75 516.9 587.4 515.8 588.05 516.93 588.7 515.97 589.34 516.4 589.99 514.68 590.64 514.19 591.29 514.61 591.93 515.56 592.58 513.68 593.23 515.49 593.87 515.08 594.52 515.46 595.17 516.1 595.82 515.35 596.46 514.38 597.11 515.07 597.76 515.67 598.41 515.55 599.05 514.83 599.7 513.63 600.35 514.03 600.99 514.4 601.64 514.17 602.29 514.99 602.94 513.75 603.58 513.7 604.23 514.76 604.88 514.07 605.53 514.81 606.17 513.25 606.82 512.9 607.47 512.51 608.11 511.79 608.76 510.73 609.41 511.78 610.06 511.81 610.7 511.98 611.35 512.48 612 512.2 612.65 512.06 613.29 511.84 613.94 510.24 614.59 511.39 615.23 510.98 615.88 512.07 616.53 511.74 617.18 512.69 617.82 512.02 618.47 511.29 619.12 510.66 619.77 511.23 620.41 511.62 621.06 510.31 621.71 509.73 622.35 510.33 623 510.56 623.65 510.75 624.3 511.28 624.94 511.06 625.59 511.99 626.24 512.38 626.89 512.1 627.53 510.06 628.18 510.34 628.83 509.38 629.47 510.3 630.12 511.68 630.77 508.56 631.42 508.28 632.06 509 632.71 509.07 633.36 508.56 634.01 507.06 634.65 506.98 635.3 506.86 635.95 508.07 636.6 508.6 637.24 507 637.89 507.67 638.54 505.82 639.18 508.09 639.83 507.44 640.48 505.56 641.13 506.46 641.77 508.56 642.42 507.21 643.07 508.59 643.72 505.44 644.36 508.07 645.01 508.04 645.66 508.63 646.3 509.71 646.95 507.47 647.6 507.45 648.25 507.36 648.89 506.87 649.54 505.4 650.19 505.07 650.84 507.64 651.48 505.33 652.13 505.76 652.78 505.95 653.42 504.76 654.07 504.81 654.72 504.07 655.37 504.21 656.01 503.77 656.66 501.32 657.31 500.47 657.96 501.36 658.6 500.19 659.25 501.09 659.9 499.57 660.54 500.95 661.19 501.89 661.84 500.33 662.49 497.05 663.13 495.49 663.78 496.07 664.43 497.18 665.08 495.78 665.72 495.1 666.37 502.94 667.02 500.81 667.66 500.29 668.31 498.96 668.96 498.13 669.61 498.69 670.25 495.88 670.9 495.4 671.55 495.66 672.2 494.82 672.84 494.11 673.49 493.16 674.14 493.22 674.78 493.22 675.43 492.25 676.08 491.09 676.73 490.7 677.37 491.67 678.02 490.46 678.67 490.56 679.32 487.74 679.96 485.25 680.61 485.47 681.26 484.67 681.9 484.28 682.55 483.45 683.2 483.51 683.85 483.6 684.49 484 685.14 484.88 685.79 482.68 686.44 481.07 687.08 479.75 687.73 479.74 688.38 480.13 689.03 480.97 689.67 480.51 690.32 478.51 690.97 476.11 691.61 473.02 692.26 473.29 692.91 473.88 693.56 476.16 694.2 476.79 694.85 472.93 695.5 471.36 696.15 469.05 696.79 468.79 697.44 465.89 698.09 463.43 698.73 464.76 699.38 465.49 700.03 464.17 700.68 465.68 701.32 465.88 701.97 464.25 702.62 462.3 703.27 461.46 703.91 465.51 704.56 464.43 705.21 462.65 705.85 460.92 706.5 459.99 707.15 457.18 707.8 457.08 708.44 450.69 709.09 448.99 709.74 448.34 710.39 447.67 711.03 458.07 711.68 463.77 712.33 465.69 712.97 462.19 713.62 460.02 714.27 457.18 714.92 453.23 715.56 456.91 716.21 450.22 716.86 449.47 717.51 446.89 718.15 447.99 718.8 453.33 719.45 453.16 720.09 450.88 720.74 445.05 721.39 441.67 722.04 437.49 722.68 434.27 723.33 433.41 723.98 433.48 724.63 422.99 725.27 411.94 725.92 409.17 726.57 407.31 727.21 413.29 727.86 419.46 728.51 424.95 729.16 427.44 729.8 424.94 730.45 421.23 731.1 421.52 731.75 418.27 732.39 418.85 733.04 414.34 733.69 409.51 734.33 405.12 734.98 404.05 735.63 402.49 736.28 403.39 736.92 398.55 737.57 391.39 738.22 387.65 738.87 387.5 739.51 382.49 740.16 375.09 740.81 371.85 741.45 369.48 742.1 366.59 742.75 360.22 743.4 357.71 744.04 353.9 744.69 350.83 745.34 344.6 745.99 331.68 746.63 334.62 747.28 334.83 747.93 330.1 748.58 325.35 749.22 317.51 749.87 311.51 750.52 315.68 751.16 318.93 751.81 315.27 752.46 307.32 753.11 301.75 753.75 293.89 754.4 283.7 755.05 272.19 755.7 259.53 756.34 254.16 756.99 253.88 757.64 258.73 758.28 259.11 758.93 253.38 759.58 241.73 760.23 233.47 760.87 225.37 761.52 206.45 762.17 195.69 762.82 186.06 763.46 172.34 764.11 163.13 764.76 155.35 765.4 142.01 766.05 132.41 766.7 123.51 767.35 115.12 767.99 102.46 768.64 109.52 769.29 129.18 769.94 124.1 770.58 118.2 771.23 115.56 771.88 108.71 772.52 98.73 773.17 90.81" style="stroke-width:1.2;stroke:#3a53a4;stroke-linecap:butt;fill:none;stroke-linejoin:round;stroke-miterlimit:10"/><polyline points="116.18 535.27 116.83 535.27 117.47 535.27 118.12 535.27 118.77 535.26 119.42 535.26 120.06 535.26 120.71 535.26 121.36 535.25 122 535.25 122.65 535.25 123.3 535.25 123.95 535.24 124.59 535.24 125.24 535.24 125.89 535.24 126.54 535.24 127.18 535.23 127.83 535.23 128.48 535.23 129.12 535.23 129.77 535.22 130.42 535.22 131.07 535.22 131.71 535.22 132.36 535.21 133.01 535.21 133.66 535.21 134.3 535.21 134.95 535.21 135.6 535.2 136.25 535.2 136.89 535.2 137.54 535.2 138.19 535.19 138.83 535.19 139.48 535.19 140.13 535.19 140.78 535.18 141.42 535.18 142.07 535.18 142.72 535.18 143.37 535.18 144.01 535.17 144.66 535.17 145.31 535.17 145.95 535.17 146.6 535.16 147.25 535.16 147.9 535.16 148.54 535.16 149.19 535.15 149.84 535.15 150.49 535.15 151.13 535.15 151.78 535.15 152.43 535.14 153.07 535.14 153.72 535.14 154.37 535.14 155.02 535.13 155.66 535.13 156.31 535.13 156.96 535.13 157.61 535.12 158.25 535.12 158.9 535.12 159.55 535.12 160.19 535.11 160.84 535.11 161.49 535.11 162.14 535.11 162.78 535.11 163.43 535.1 164.08 535.1 164.73 535.1 165.37 535.1 166.02 535.09 166.67 535.09 167.31 535.09 167.96 535.09 168.61 535.08 169.26 535.08 169.9 535.08 170.55 535.08 171.2 535.08 171.85 535.07 172.49 535.07 173.14 535.07 173.79 535.07 174.43 535.06 175.08 535.06 175.73 535.06 176.38 535.06 177.02 535.05 177.67 535.05 178.32 535.05 178.97 535.05 179.61 535.04 180.26 535.04 180.91 535.04 181.55 535.04 182.2 535.04 182.85 535.03 183.5 535.03 184.14 535.03 184.79 535.03 185.44 535.02 186.09 535.02 186.73 535.02 187.38 535.02 188.03 535.01 188.67 535.01 189.32 535.01 189.97 535.01 190.62 535 191.26 535 191.91 535 192.56 535 193.21 534.99 193.85 534.99 194.5 534.99 195.15 534.99 195.8 534.99 196.44 534.98 197.09 534.98 197.74 534.98 198.38 534.98 199.03 534.97 199.68 534.97 200.33 534.97 200.97 534.97 201.62 534.96 202.27 534.96 202.92 534.96 203.56 534.96 204.21 534.95 204.86 534.95 205.5 534.95 206.15 534.95 206.8 534.94 207.45 534.94 208.09 534.94 208.74 534.94 209.39 534.94 210.04 534.93 210.68 534.93 211.33 534.93 211.98 534.93 212.62 534.92 213.27 534.92 213.92 534.92 214.57 534.92 215.21 534.92 215.86 534.92 216.51 534.92 217.16 534.92 217.8 534.91 218.45 534.91 219.1 534.91 219.74 534.91 220.39 534.91 221.04 534.91 221.69 534.91 222.33 534.91 222.98 534.91 223.63 534.91 224.28 534.9 224.92 534.9 225.57 534.9 226.22 534.9 226.86 534.9 227.51 534.9 228.16 534.9 228.81 534.9 229.45 534.9 230.1 534.9 230.75 534.9 231.4 534.89 232.04 534.89 232.69 534.89 233.34 534.89 233.98 534.89 234.63 534.89 235.28 534.89 235.93 534.89 236.57 534.89 237.22 534.89 237.87 534.89 238.52 534.88 239.16 534.88 239.81 534.88 240.46 534.88 241.1 534.88 241.75 534.88 242.4 534.88 243.05 534.88 243.69 534.88 244.34 534.88 244.99 534.87 245.64 534.87 246.28 534.87 246.93 534.87 247.58 534.87 248.23 534.87 248.87 534.87 249.52 534.87 250.17 534.87 250.81 534.87 251.46 534.87 252.11 534.86 252.76 534.86 253.4 534.86 254.05 534.86 254.7 534.86 255.35 534.86 255.99 534.86 256.64 534.86 257.29 534.86 257.93 534.86 258.58 534.85 259.23 534.85 259.88 534.85 260.52 534.85 261.17 534.85 261.82 534.85 262.47 534.85 263.11 534.85 263.76 534.85 264.41 534.85 265.05 534.84 265.7 534.84 266.35 534.84 267 534.84 267.64 534.84 268.29 534.84 268.94 534.84 269.59 534.84 270.23 534.84 270.88 534.84 271.53 534.84 272.17 534.83 272.82 534.83 273.47 534.83 274.12 534.83 274.76 534.83 275.41 534.83 276.06 534.83 276.71 534.83 277.35 534.83 278 534.83 278.65 534.82 279.29 534.82 279.94 534.82 280.59 534.82 281.24 534.82 281.88 534.82 282.53 534.82 283.18 534.82 283.83 534.82 284.47 534.82 285.12 534.82 285.77 534.81 286.41 534.81 287.06 534.81 287.71 534.81 288.36 534.81 289 534.81 289.65 534.81 290.3 534.81 290.95 534.81 291.59 534.81 292.24 534.8 292.89 534.8 293.53 534.8 294.18 534.8 294.83 534.8 295.48 534.8 296.12 534.8 296.77 534.8 297.42 534.8 298.07 534.8 298.71 534.8 299.36 534.8 300.01 534.8 300.66 534.8 301.3 534.8 301.95 534.8 302.6 534.8 303.24 534.8 303.89 534.8 304.54 534.8 305.19 534.8 305.83 534.8 306.48 534.8 307.13 534.8 307.78 534.8 308.42 534.8 309.07 534.8 309.72 534.8 310.36 534.8 311.01 534.8 311.66 534.8 312.31 534.8 312.95 534.8 313.6 534.8 314.25 534.8 314.9 534.8 315.54 534.8 316.19 534.8 316.84 534.8 317.48 534.8 318.13 534.8 318.78 534.8 319.43 534.8 320.07 534.8 320.72 534.8 321.37 534.8 322.02 534.8 322.66 534.8 323.31 534.8 323.96 534.8 324.6 534.8 325.25 534.8 325.9 534.8 326.55 534.8 327.19 534.8 327.84 534.8 328.49 534.8 329.14 534.8 329.78 534.8 330.43 534.8 331.08 534.8 331.72 534.8 332.37 534.8 333.02 534.8 333.67 534.8 334.31 534.8 334.96 534.8 335.61 534.8 336.26 534.8 336.9 534.8 337.55 534.8 338.2 534.8 338.84 534.8 339.49 534.8 340.14 534.8 340.79 534.8 341.43 534.8 342.08 534.8 342.73 534.8 343.38 534.8 344.02 534.8 344.67 534.8 345.32 534.8 345.96 534.8 346.61 534.8 347.26 534.8 347.91 534.8 348.55 534.8 349.2 534.8 349.85 534.8 350.5 534.8 351.14 534.8 351.79 534.8 352.44 534.8 353.08 534.8 353.73 534.8 354.38 534.8 355.03 534.8 355.67 534.8 356.32 534.8 356.97 534.8 357.62 534.8 358.26 534.8 358.91 534.8 359.56 534.8 360.21 534.8 360.85 534.8 361.5 534.8 362.15 534.8 362.79 534.8 363.44 534.8 364.09 534.8 364.74 534.8 365.38 534.8 366.03 534.8 366.68 534.8 367.33 534.8 367.97 534.8 368.62 534.8 369.27 534.8 369.91 534.8 370.56 534.8 371.21 534.8 371.86 534.8 372.5 534.8 373.15 534.8 373.8 534.8 374.45 534.8 375.09 534.8 375.74 534.8 376.39 534.8 377.03 534.8 377.68 534.8 378.33 534.8 378.98 534.8 379.62 534.8 380.27 534.8 380.92 534.8 381.57 534.8 382.21 534.8 382.86 534.8 383.51 534.8 384.15 534.8 384.8 534.8 385.45 534.8 386.1 534.8 386.74 534.8 387.39 534.8 388.04 534.8 388.69 534.8 389.33 534.8 389.98 534.8 390.63 534.8 391.27 534.8 391.92 534.8 392.57 534.8 393.22 534.8 393.86 534.8 394.51 534.8 395.16 534.8 395.81 534.8 396.45 534.8 397.1 534.8 397.75 534.8 398.39 534.8 399.04 534.8 399.69 534.8 400.34 534.8 400.98 534.8 401.63 534.8 402.28 534.8 402.93 534.8 403.57 534.8 404.22 534.8 404.87 534.8 405.51 534.8 406.16 534.8 406.81 534.8 407.46 534.8 408.1 534.79 408.75 534.79 409.4 534.78 410.05 534.78 410.69 534.77 411.34 534.77 411.99 534.76 412.64 534.75 413.28 534.75 413.93 534.74 414.58 534.74 415.22 534.73 415.87 534.73 416.52 534.72 417.17 534.72 417.81 534.71 418.46 534.71 419.11 534.7 419.76 534.7 420.4 534.69 421.05 534.68 421.7 534.68 422.34 534.67 422.99 534.67 423.64 534.66 424.29 534.66 424.93 534.65 425.58 534.65 426.23 534.64 426.88 534.64 427.52 534.63 428.17 534.63 428.82 534.62 429.46 534.61 430.11 534.61 430.76 534.6 431.41 534.6 432.05 534.59 432.7 534.59 433.35 534.58 434 534.58 434.64 534.57 435.29 534.57 435.94 534.56 436.58 534.55 437.23 534.55 437.88 534.54 438.53 534.54 439.17 534.53 439.82 534.53 440.47 534.52 441.12 534.52 441.76 534.51 442.41 534.51 443.06 534.5 443.7 534.49 444.35 534.49 445 534.48 445.65 534.48 446.29 534.47 446.94 534.47 447.59 534.46 448.24 534.46 448.88 534.45 449.53 534.44 450.18 534.44 450.82 534.43 451.47 534.43 452.12 534.42 452.77 534.42 453.41 534.41 454.06 534.41 454.71 534.4 455.36 534.4 456 534.39 456.65 534.38 457.3 534.38 457.94 534.37 458.59 534.37 459.24 534.36 459.89 534.36 460.53 534.35 461.18 534.35 461.83 534.34 462.48 534.33 463.12 534.33 463.77 534.32 464.42 534.32 465.06 534.31 465.71 534.31 466.36 534.3 467.01 534.29 467.65 534.29 468.3 534.28 468.95 534.28 469.6 534.27 470.24 534.27 470.89 534.26 471.54 534.26 472.19 534.25 472.83 534.24 473.48 534.24 474.13 534.23 474.77 534.23 475.42 534.22 476.07 534.22 476.72 534.21 477.36 534.2 478.01 534.2 478.66 534.19 479.31 534.19 479.95 534.18 480.6 534.18 481.25 534.17 481.89 534.16 482.54 534.16 483.19 534.15 483.84 534.15 484.48 534.14 485.13 534.14 485.78 534.13 486.43 534.13 487.07 534.12 487.72 534.11 488.37 534.11 489.01 534.1 489.66 534.1 490.31 534.09 490.96 534.09 491.6 534.08 492.25 534.07 492.9 534.07 493.55 534.06 494.19 534.06 494.84 534.05 495.49 534.04 496.13 534.04 496.78 534.03 497.43 534.03 498.08 534.02 498.72 534.02 499.37 534.01 500.02 534 500.67 534 501.31 533.99 501.96 533.99 502.61 533.98 503.25 533.98 503.9 533.97 504.55 533.96 505.2 533.97 505.84 533.97 506.49 533.98 507.14 533.99 507.79 533.99 508.43 534 509.08 534 509.73 534.01 510.37 534.01 511.02 534.02 511.67 534.02 512.32 534.03 512.96 534.03 513.61 534.04 514.26 534.04 514.91 534.05 515.55 534.06 516.2 534.06 516.85 534.07 517.49 534.07 518.14 534.08 518.79 534.08 519.44 534.09 520.08 534.09 520.73 534.1 521.38 534.1 522.03 534.11 522.67 534.11 523.32 534.12 523.97 534.12 524.62 534.13 525.26 534.14 525.91 534.14 526.56 534.15 527.2 534.15 527.85 534.16 528.5 534.16 529.15 534.17 529.79 534.17 530.44 534.18 531.09 534.18 531.74 534.19 532.38 534.19 533.03 534.2 533.68 534.2 534.32 534.21 534.97 534.21 535.62 534.22 536.27 534.22 536.91 534.23 537.56 534.21 538.21 534.18 538.86 534.16 539.5 534.14 540.15 534.11 540.8 534.09 541.44 534.07 542.09 534.04 542.74 534.02 543.39 533.99 544.03 533.97 544.68 533.95 545.33 533.92 545.98 533.9 546.62 533.87 547.27 533.85 547.92 533.82 548.56 533.8 549.21 533.78 549.86 533.75 550.51 533.73 551.15 533.7 551.8 533.68 552.45 533.65 553.1 533.63 553.74 533.6 554.39 533.58 555.04 533.55 555.68 533.53 556.33 533.5 556.98 533.48 557.63 533.45 558.27 533.43 558.92 533.4 559.57 533.38 560.22 533.35 560.86 533.33 561.51 533.3 562.16 533.28 562.8 533.25 563.45 533.22 564.1 533.2 564.75 533.17 565.39 533.15 566.04 533.12 566.69 533.09 567.34 533.07 567.98 533.04 568.63 533.02 569.28 532.99 569.92 533 570.57 533.01 571.22 533.02 571.87 533.03 572.51 533.05 573.16 533.06 573.81 533.07 574.46 533.08 575.1 533.09 575.75 533.1 576.4 533.11 577.04 533.12 577.69 533.14 578.34 533.15 578.99 533.16 579.63 533.17 580.28 533.18 580.93 533.19 581.58 533.2 582.22 533.21 582.87 533.22 583.52 533.23 584.17 533.25 584.81 533.26 585.46 533.27 586.11 533.28 586.75 533.29 587.4 533.3 588.05 533.31 588.7 533.32 589.34 533.33 589.99 533.34 590.64 533.36 591.29 533.37 591.93 533.38 592.58 533.39 593.23 533.4 593.87 533.41 594.52 533.42 595.17 533.43 595.82 533.44 596.46 533.45 597.11 533.46 597.76 533.47 598.41 533.49 599.05 533.5 599.7 533.51 600.35 533.52 600.99 533.53 601.64 533.54 602.29 533.52 602.94 533.51 603.58 533.49 604.23 533.48 604.88 533.47 605.53 533.45 606.17 533.44 606.82 533.42 607.47 533.41 608.11 533.39 608.76 533.38 609.41 533.36 610.06 533.35 610.7 533.33 611.35 533.32 612 533.3 612.65 533.29 613.29 533.27 613.94 533.26 614.59 533.24 615.23 533.23 615.88 533.21 616.53 533.19 617.18 533.18 617.82 533.16 618.47 533.15 619.12 533.13 619.77 533.12 620.41 533.1 621.06 533.09 621.71 533.07 622.35 533.06 623 533.04 623.65 533.03 624.3 533.01 624.94 533 625.59 532.98 626.24 532.96 626.89 532.95 627.53 532.93 628.18 532.92 628.83 532.9 629.47 532.89 630.12 532.87 630.77 532.86 631.42 532.84 632.06 532.82 632.71 532.81 633.36 532.79 634.01 532.78 634.65 532.76 635.3 532.75 635.95 532.74 636.6 532.72 637.24 532.71 637.89 532.69 638.54 532.68 639.18 532.67 639.83 532.65 640.48 532.64 641.13 532.62 641.77 532.61 642.42 532.6 643.07 532.58 643.72 532.57 644.36 532.55 645.01 532.54 645.66 532.53 646.3 532.51 646.95 532.5 647.6 532.48 648.25 532.47 648.89 532.46 649.54 532.44 650.19 532.43 650.84 532.41 651.48 532.4 652.13 532.39 652.78 532.37 653.42 532.36 654.07 532.34 654.72 532.33 655.37 532.31 656.01 532.3 656.66 532.29 657.31 532.27 657.96 532.26 658.6 532.24 659.25 532.23 659.9 532.21 660.54 532.2 661.19 532.18 661.84 532.17 662.49 532.16 663.13 532.14 663.78 532.13 664.43 532.11 665.08 532.1 665.72 532.08 666.37 532.07 667.02 532.02 667.66 531.97 668.31 531.92 668.96 531.88 669.61 531.83 670.25 531.78 670.9 531.73 671.55 531.68 672.2 531.63 672.84 531.58 673.49 531.53 674.14 531.48 674.78 531.43 675.43 531.38 676.08 531.33 676.73 531.28 677.37 531.23 678.02 531.18 678.67 531.13 679.32 531.08 679.96 530.99 680.61 530.92 681.26 530.83 681.9 530.74 682.55 529.8 683.2 530.24 683.85 529.92 684.49 530.08 685.14 529.34 685.79 528.85 686.44 529.45 687.08 529.19 687.73 529.31 688.38 529.34 689.03 528.91 689.67 527.91 690.32 527.29 690.97 528.21 691.61 527.63 692.26 526.23 692.91 527.21 693.56 526.21 694.2 526.29 694.85 524.33 695.5 524.26 696.15 525.53 696.79 525.34 697.44 522.04 698.09 523.91 698.73 523.27 699.38 522.79 700.03 524.16 700.68 523.03 701.32 523.11 701.97 523.67 702.62 521.19 703.27 520.69 703.91 520.81 704.56 521.13 705.21 521.07 705.85 520.16 706.5 519.65 707.15 519.61 707.8 520.67 708.44 518.85 709.09 515.31 709.74 514.69 710.39 514.63 711.03 511.82 711.68 514.15 712.33 511.25 712.97 511.76 713.62 512.14 714.27 511.66 714.92 510.8 715.56 511.04 716.21 511.07 716.86 508.91 717.51 508.32 718.15 511.41 718.8 511.65 719.45 509.45 720.09 506.61 720.74 507.04 721.39 506.64 722.04 504.45 722.68 503.21 723.33 500.84 723.98 494.36 724.63 493.33 725.27 493.36 725.92 494.32 726.57 494.26 727.21 497.13 727.86 520.32 728.51 518.59 729.16 516.88 729.8 513.62 730.45 512.31 731.1 510.17 731.75 506.55 732.39 502.83 733.04 500.39 733.69 498.49 734.33 495.16 734.98 492.03 735.63 488.71 736.28 486 736.92 481.32 737.57 473.68 738.22 465.91 738.87 459.73 739.51 453.51 740.16 443.99 740.81 439.29 741.45 429.19 742.1 417.76 742.75 403.08 743.4 387.35 744.04 372.51 744.69 366.75 745.34 354.5 745.99 342.13 746.63 347.24 747.28 343.72 747.93 337.98 748.58 331 749.22 321.8 749.87 311.58 750.52 306.91 751.16 301.14 751.81 295.42 752.46 291.38 753.11 283.15 753.75 273.29 754.4 267.14 755.05 257.03 755.7 240.55 756.34 227.16 756.99 212.21 757.64 202.35 758.28 200.7 758.93 201.11 759.58 199 760.23 193.08 760.87 184.75 761.52 179.91 762.17 188.09 762.82 189.57 763.46 182.32 764.11 181.99 764.76 181.69 765.4 176.1 766.05 167.83 766.7 162.99 767.35 156.58 767.99 148.24 768.64 152.39 769.29 173.8 769.94 156.64 770.58 158.07 771.23 151.03 771.88 145.33 772.52 144.99 773.17 142.52" style="stroke-width:1.2;stroke:#f49323;stroke-linecap:butt;fill:none;stroke-linejoin:round;stroke-miterlimit:10"/><polyline points="116.18 518.83 116.83 518.82 117.47 518.81 118.12 518.8 118.77 518.79 119.42 518.78 120.06 518.77 120.71 518.75 121.36 518.74 122 518.73 122.65 518.72 123.3 518.71 123.95 518.7 124.59 518.69 125.24 518.68 125.89 518.67 126.54 518.66 127.18 518.65 127.83 518.64 128.48 518.63 129.12 518.62 129.77 518.61 130.42 518.6 131.07 518.59 131.71 518.58 132.36 518.57 133.01 518.55 133.66 518.54 134.3 518.53 134.95 518.52 135.6 518.51 136.25 518.5 136.89 518.49 137.54 518.48 138.19 518.47 138.83 518.46 139.48 518.45 140.13 518.44 140.78 518.43 141.42 518.42 142.07 518.41 142.72 518.4 143.37 518.38 144.01 518.37 144.66 518.36 145.31 518.35 145.95 518.34 146.6 518.33 147.25 518.32 147.9 518.31 148.54 518.3 149.19 518.29 149.84 518.28 150.49 518.27 151.13 518.26 151.78 518.25 152.43 518.24 153.07 518.22 153.72 518.21 154.37 518.2 155.02 518.19 155.66 518.18 156.31 518.17 156.96 518.16 157.61 518.15 158.25 518.14 158.9 518.13 159.55 518.12 160.19 518.11 160.84 518.1 161.49 518.08 162.14 518.07 162.78 518.06 163.43 518.05 164.08 518.04 164.73 518.03 165.37 518.02 166.02 518.01 166.67 518 167.31 517.99 167.96 517.98 168.61 517.97 169.26 517.96 169.9 517.94 170.55 517.93 171.2 517.92 171.85 517.91 172.49 517.9 173.14 517.89 173.79 517.88 174.43 517.87 175.08 517.86 175.73 517.85 176.38 517.84 177.02 517.83 177.67 517.81 178.32 517.8 178.97 517.79 179.61 517.78 180.26 517.77 180.91 517.76 181.55 517.75 182.2 517.74 182.85 517.73 183.5 517.72 184.14 517.71 184.79 517.69 185.44 517.68 186.09 517.67 186.73 517.66 187.38 517.65 188.03 517.64 188.67 517.63 189.32 517.62 189.97 517.61 190.62 517.6 191.26 517.58 191.91 517.57 192.56 517.56 193.21 517.55 193.85 517.54 194.5 517.53 195.15 517.52 195.8 517.51 196.44 517.5 197.09 517.49 197.74 517.47 198.38 517.46 199.03 517.45 199.68 517.44 200.33 517.43 200.97 517.42 201.62 517.41 202.27 517.4 202.92 517.39 203.56 517.38 204.21 517.36 204.86 517.35 205.5 517.34 206.15 517.33 206.8 517.32 207.45 517.31 208.09 517.3 208.74 517.29 209.39 517.28 210.04 517.26 210.68 517.25 211.33 517.24 211.98 517.23 212.62 517.22 213.27 517.21 213.92 517.2 214.57 517.19 215.21 517.18 215.86 517.16 216.51 517.15 217.16 517.14 217.8 517.13 218.45 517.12 219.1 517.11 219.74 517.1 220.39 517.09 221.04 517.07 221.69 517.06 222.33 517.05 222.98 517.04 223.63 517.03 224.28 517.02 224.92 517.01 225.57 517 226.22 516.99 226.86 516.97 227.51 516.96 228.16 516.95 228.81 516.94 229.45 516.93 230.1 516.92 230.75 516.91 231.4 516.9 232.04 516.88 232.69 516.87 233.34 516.86 233.98 516.85 234.63 516.84 235.28 516.83 235.93 516.82 236.57 516.8 237.22 516.79 237.87 516.78 238.52 516.77 239.16 516.76 239.81 516.75 240.46 516.74 241.1 516.73 241.75 516.71 242.4 516.7 243.05 516.69 243.69 516.68 244.34 516.67 244.99 516.66 245.64 516.65 246.28 516.63 246.93 516.62 247.58 516.61 248.23 516.6 248.87 516.59 249.52 516.58 250.17 516.57 250.81 516.56 251.46 516.54 252.11 516.53 252.76 516.52 253.4 516.51 254.05 516.5 254.7 516.49 255.35 516.48 255.99 516.46 256.64 516.45 257.29 516.44 257.93 516.43 258.58 516.42 259.23 516.41 259.88 516.39 260.52 516.38 261.17 516.37 261.82 516.36 262.47 516.35 263.11 516.34 263.76 516.33 264.41 516.31 265.05 516.3 265.7 516.29 266.35 516.28 267 516.27 267.64 516.26 268.29 516.25 268.94 516.23 269.59 516.22 270.23 516.21 270.88 516.2 271.53 516.19 272.17 516.18 272.82 516.16 273.47 516.15 274.12 516.14 274.76 516.13 275.41 516.12 276.06 516.11 276.71 516.1 277.35 516.08 278 516.07 278.65 516.06 279.29 516.05 279.94 516.04 280.59 516.03 281.24 516.01 281.88 516 282.53 515.99 283.18 515.98 283.83 515.97 284.47 515.96 285.12 515.94 285.77 515.93 286.41 515.92 287.06 515.91 287.71 515.9 288.36 515.89 289 515.87 289.65 515.86 290.3 515.85 290.95 515.84 291.59 515.83 292.24 515.82 292.89 515.8 293.53 515.79 294.18 515.78 294.83 515.77 295.48 515.76 296.12 515.75 296.77 515.73 297.42 515.72 298.07 515.71 298.71 515.7 299.36 515.69 300.01 515.67 300.66 515.66 301.3 515.65 301.95 515.64 302.6 515.63 303.24 515.62 303.89 515.6 304.54 515.59 305.19 515.58 305.83 515.57 306.48 515.56 307.13 515.54 307.78 515.53 308.42 515.52 309.07 515.51 309.72 515.5 310.36 515.49 311.01 515.53 311.66 515.57 312.31 515.6 312.95 515.64 313.6 515.68 314.25 515.72 314.9 515.76 315.54 515.8 316.19 515.84 316.84 515.88 317.48 515.92 318.13 515.96 318.78 516 319.43 516.04 320.07 516.08 320.72 516.11 321.37 516.15 322.02 516.19 322.66 516.23 323.31 516.27 323.96 516.31 324.6 516.35 325.25 516.39 325.9 516.42 326.55 516.46 327.19 516.5 327.84 516.54 328.49 516.58 329.14 516.62 329.78 516.65 330.43 516.69 331.08 516.73 331.72 516.77 332.37 516.81 333.02 516.84 333.67 516.88 334.31 516.92 334.96 516.96 335.61 516.99 336.26 517.03 336.9 517.07 337.55 517.11 338.2 517.15 338.84 517.18 339.49 517.22 340.14 517.26 340.79 517.29 341.43 517.33 342.08 517.26 342.73 517.18 343.38 517.11 344.02 517.03 344.67 516.96 345.32 516.88 345.96 516.81 346.61 516.73 347.26 516.66 347.91 516.58 348.55 516.5 349.2 516.43 349.85 516.35 350.5 516.27 351.14 516.19 351.79 516.12 352.44 516.04 353.08 515.96 353.73 515.88 354.38 515.8 355.03 515.73 355.67 515.65 356.32 515.57 356.97 515.49 357.62 515.41 358.26 515.33 358.91 515.25 359.56 515.17 360.21 515.09 360.85 515.01 361.5 514.93 362.15 514.85 362.79 514.77 363.44 514.68 364.09 514.6 364.74 514.52 365.38 514.44 366.03 514.36 366.68 514.27 367.33 514.19 367.97 514.11 368.62 514.02 369.27 513.94 369.91 513.86 370.56 513.77 371.21 513.69 371.86 513.6 372.5 513.52 373.15 513.43 373.8 513.35 374.45 513.26 375.09 513.18 375.74 513.22 376.39 513.26 377.03 513.3 377.68 513.34 378.33 513.38 378.98 513.42 379.62 513.46 380.27 513.5 380.92 513.55 381.57 513.59 382.21 513.63 382.86 513.67 383.51 513.71 384.15 513.75 384.8 513.79 385.45 513.83 386.1 513.87 386.74 513.91 387.39 513.95 388.04 513.99 388.69 514.03 389.33 514.07 389.98 514.11 390.63 514.15 391.27 514.19 391.92 514.23 392.57 514.27 393.22 514.31 393.86 514.35 394.51 514.39 395.16 514.43 395.81 514.46 396.45 514.5 397.1 514.54 397.75 514.58 398.39 514.62 399.04 514.66 399.69 514.7 400.34 514.74 400.98 514.78 401.63 514.82 402.28 514.86 402.93 514.89 403.57 514.93 404.22 514.97 404.87 515.01 405.51 515.05 406.16 515.09 406.81 515.13 407.46 515.16 408.1 515.2 408.75 515.24 409.4 515.28 410.05 515.32 410.69 515.36 411.34 515.39 411.99 515.43 412.64 515.47 413.28 515.51 413.93 515.55 414.58 515.58 415.22 515.62 415.87 515.66 416.52 515.7 417.17 515.74 417.81 515.77 418.46 515.81 419.11 515.85 419.76 515.89 420.4 515.92 421.05 515.96 421.7 516 422.34 516.04 422.99 516.07 423.64 516.11 424.29 516.15 424.93 516.18 425.58 516.22 426.23 516.26 426.88 516.3 427.52 516.33 428.17 516.37 428.82 516.41 429.46 516.44 430.11 516.48 430.76 516.52 431.41 516.55 432.05 516.59 432.7 516.63 433.35 516.66 434 516.7 434.64 516.73 435.29 516.77 435.94 516.81 436.58 516.84 437.23 516.88 437.88 516.92 438.53 516.95 439.17 516.99 439.82 517.02 440.47 517.04 441.12 517.06 441.76 517.08 442.41 517.1 443.06 517.12 443.7 517.14 444.35 517.16 445 517.18 445.65 517.2 446.29 517.21 446.94 517.23 447.59 517.25 448.24 517.27 448.88 517.29 449.53 517.31 450.18 517.33 450.82 517.35 451.47 517.37 452.12 517.39 452.77 517.4 453.41 517.42 454.06 517.44 454.71 517.46 455.36 517.48 456 517.5 456.65 517.52 457.3 517.54 457.94 517.55 458.59 517.57 459.24 517.59 459.89 517.61 460.53 517.63 461.18 517.65 461.83 517.67 462.48 517.69 463.12 517.7 463.77 517.72 464.42 517.74 465.06 517.76 465.71 517.78 466.36 517.8 467.01 517.82 467.65 517.83 468.3 517.85 468.95 517.87 469.6 517.89 470.24 517.91 470.89 517.93 471.54 517.95 472.19 517.96 472.83 517.98 473.48 518 474.13 518.02 474.77 518.04 475.42 518.06 476.07 518.08 476.72 518.09 477.36 518.11 478.01 518.13 478.66 518.15 479.31 518.17 479.95 518.19 480.6 518.2 481.25 518.22 481.89 518.24 482.54 518.26 483.19 518.28 483.84 518.3 484.48 518.31 485.13 518.33 485.78 518.39 486.43 518.45 487.07 518.51 487.72 518.56 488.37 518.62 489.01 518.68 489.66 518.74 490.31 518.79 490.96 518.85 491.6 518.91 492.25 518.97 492.9 519.02 493.55 519.08 494.19 519.14 494.84 519.19 495.49 519.25 496.13 519.3 496.78 519.36 497.43 519.42 498.08 519.47 498.72 519.53 499.37 519.58 500.02 519.64 500.67 519.69 501.31 519.75 501.96 519.8 502.61 519.86 503.25 519.91 503.9 519.97 504.55 520.02 505.2 520.01 505.84 520 506.49 519.99 507.14 519.98 507.79 519.96 508.43 519.95 509.08 519.94 509.73 519.93 510.37 519.91 511.02 519.9 511.67 519.89 512.32 519.88 512.96 519.87 513.61 519.85 514.26 519.84 514.91 519.83 515.55 519.82 516.2 519.8 516.85 519.79 517.49 519.78 518.14 519.77 518.79 519.76 519.44 519.74 520.08 519.73 520.73 519.72 521.38 519.71 522.03 519.69 522.67 519.68 523.32 519.67 523.97 519.66 524.62 519.64 525.26 519.63 525.91 519.62 526.56 519.61 527.2 519.59 527.85 519.58 528.5 519.57 529.15 519.56 529.79 519.55 530.44 519.53 531.09 519.52 531.74 519.51 532.38 519.5 533.03 519.48 533.68 519.47 534.32 519.46 534.97 519.45 535.62 519.43 536.27 519.42 536.91 519.41 537.56 519.38 538.21 519.35 538.86 519.33 539.5 519.3 540.15 519.27 540.8 519.25 541.44 519.22 542.09 519.19 542.74 519.16 543.39 519.14 544.03 519.11 544.68 519.08 545.33 519.06 545.98 519.03 546.62 519 547.27 518.97 547.92 518.95 548.56 518.92 549.21 518.89 549.86 518.86 550.51 518.84 551.15 518.81 551.8 518.78 552.45 518.75 553.1 518.73 553.74 518.7 554.39 518.67 555.04 518.64 555.68 518.61 556.33 518.59 556.98 518.56 557.63 518.53 558.27 518.5 558.92 518.48 559.57 518.45 560.22 518.42 560.86 518.39 561.51 518.36 562.16 518.34 562.8 518.31 563.45 518.28 564.1 518.25 564.75 518.22 565.39 518.19 566.04 518.17 566.69 518.14 567.34 518.11 567.98 518.08 568.63 518.05 569.28 518.02 569.92 518 570.57 517.98 571.22 517.97 571.87 517.95 572.51 517.93 573.16 517.91 573.81 517.89 574.46 517.87 575.1 517.85 575.75 517.83 576.4 517.81 577.04 517.79 577.69 517.77 578.34 517.75 578.99 517.73 579.63 517.71 580.28 517.69 580.93 517.67 581.58 517.65 582.22 517.63 582.87 517.61 583.52 517.59 584.17 517.57 584.81 517.55 585.46 517.53 586.11 517.51 586.75 517.49 587.4 517.47 588.05 517.45 588.7 517.43 589.34 517.41 589.99 517.39 590.64 517.37 591.29 517.35 591.93 517.33 592.58 517.31 593.23 517.29 593.87 517.27 594.52 517.25 595.17 517.23 595.82 517.21 596.46 517.19 597.11 517.17 597.76 517.15 598.41 517.13 599.05 517.11 599.7 517.09 600.35 517.06 600.99 517.04 601.64 517.02 602.29 517.09 602.94 517.15 603.58 517.21 604.23 517.28 604.88 517.34 605.53 517.4 606.17 517.47 606.82 517.53 607.47 517.59 608.11 517.65 608.76 517.71 609.41 517.78 610.06 517.84 610.7 517.9 611.35 517.96 612 518.02 612.65 518.08 613.29 518.14 613.94 518.21 614.59 518.27 615.23 518.33 615.88 518.39 616.53 518.45 617.18 518.51 617.82 518.57 618.47 518.63 619.12 518.69 619.77 518.75 620.41 518.81 621.06 518.87 621.71 518.93 622.35 518.98 623 519.04 623.65 519.1 624.3 519.16 624.94 519.22 625.59 519.28 626.24 519.34 626.89 519.39 627.53 519.45 628.18 519.51 628.83 519.57 629.47 519.62 630.12 519.68 630.77 519.74 631.42 519.8 632.06 519.85 632.71 519.91 633.36 519.97 634.01 520.02 634.65 520.33 635.3 519.56 635.95 518.87 636.6 517.79 637.24 518.64 637.89 518.02 638.54 517.95 639.18 516.49 639.83 516.33 640.48 518.49 641.13 519.33 641.77 518.79 642.42 518.1 643.07 517.79 643.72 518.95 644.36 519.33 645.01 519.1 645.66 517.18 646.3 517.41 646.95 517.41 647.6 517.87 648.25 517.56 648.89 517.33 649.54 516.64 650.19 517.02 650.84 516.25 651.48 516.72 652.13 517.02 652.78 517.1 653.42 517.49 654.07 516.56 654.72 516.33 655.37 516.18 656.01 515.95 656.66 515.18 657.31 517.25 657.96 517.95 658.6 517.56 659.25 517.79 659.9 516.95 660.54 516.41 661.19 516.18 661.84 517.56 662.49 517.56 663.13 517.33 663.78 517.56 664.43 518.18 665.08 517.49 665.72 517.64 666.37 517.95 667.02 517.95 667.66 518.33 668.31 518.87 668.96 520.56 669.61 520.33 670.25 520.25 670.9 518.33 671.55 517.33 672.2 518.18 672.84 518.33 673.49 518.49 674.14 518.15 674.78 517.53 675.43 517.49 676.08 515.89 676.73 515.94 677.37 518.38 678.02 517.86 678.67 517.52 679.32 516.87 679.96 517.47 680.61 518.06 681.26 518.2 681.9 516.86 682.55 516.72 683.2 517.39 683.85 517.22 684.49 516.54 685.14 516.47 685.79 516.03 686.44 515.19 687.08 514.83 687.73 514.56 688.38 515.01 689.03 514.58 689.67 513.94 690.32 513.17 690.97 513.33 691.61 514.27 692.26 514.25 692.91 513.85 693.56 513.82 694.2 513.35 694.85 513.17 695.5 512.92 696.15 512.46 696.79 512.4 697.44 512.53 698.09 512.18 698.73 511.34 699.38 510.8 700.03 510.27 700.68 509.96 701.32 509.37 701.97 508.65 702.62 507.45 703.27 506.8 703.91 506.01 704.56 505.71 705.21 505.67 705.85 505.25 706.5 505.22 707.15 503.39 707.8 505.61 708.44 507.54 709.09 504.53 709.74 504.41 710.39 505.4 711.03 506.96 711.68 506.07 712.33 507.37 712.97 504.69 713.62 501.46 714.27 500.7 714.92 498.13 715.56 498.17 716.21 499.4 716.86 497 717.51 495.03 718.15 497.63 718.8 498.55 719.45 497.91 720.09 498.79 720.74 499.27 721.39 497.22 722.04 499.23 722.68 495.13 723.33 494.11 723.98 491.45 724.63 492.93 725.27 494.25 725.92 497.32 726.57 504.64 727.21 512.35 727.86 515.69 728.51 505.92 729.16 498.96 729.8 495.78 730.45 492.02 731.1 488.08 731.75 483.15 732.39 480.68 733.04 476.45 733.69 474.38 734.33 470.09 734.98 466.94 735.63 463 736.28 458.91 736.92 453.47 737.57 447.72 738.22 440.72 738.87 434.53 739.51 428.72 740.16 425.26 740.81 421.09 741.45 413.99 742.1 405.04 742.75 396.03 743.4 387.25 744.04 378.65 744.69 376.48 745.34 371.08 745.99 360.15 746.63 351.32 747.28 356.52 747.93 344.36 748.58 340.22 749.22 334.44 749.87 322.73 750.52 315.75 751.16 314.14 751.81 313.33 752.46 310.78 753.11 303.26 753.75 296.63 754.4 289.59 755.05 281.47 755.7 270.58 756.34 261.53 756.99 255.94 757.64 251.53 758.28 250.27 758.93 253.69 759.58 248.02 760.23 239.98 760.87 237.13 761.52 231.87 762.17 227.76 762.82 223.66 763.46 212.7 764.11 207.38 764.76 206.71 765.4 208.36 766.05 204.76 766.7 203.47 767.35 197.36 767.99 193.61 768.64 200.35 769.29 221.22 769.94 216.95 770.58 216.51 771.23 227.01 771.88 233.68 772.52 235.74 773.17 234.27" style="stroke-width:1.2;stroke:#009147;stroke-linecap:butt;fill:none;stroke-linejoin:round;stroke-miterlimit:10"/><polyline points="116.18 519.55 116.83 519.43 117.47 519.31 118.12 519.19 118.77 519.06 119.42 518.94 120.06 518.82 120.71 518.69 121.36 518.57 122 518.44 122.65 518.31 123.3 518.19 123.95 518.06 124.59 517.93 125.24 517.8 125.89 517.67 126.54 517.54 127.18 517.41 127.83 517.28 128.48 517.15 129.12 517.02 129.77 517.05 130.42 517.09 131.07 517.12 131.71 517.16 132.36 517.2 133.01 517.23 133.66 517.27 134.3 517.31 134.95 517.34 135.6 517.38 136.25 517.41 136.89 517.45 137.54 517.48 138.19 517.52 138.83 517.56 139.48 517.59 140.13 517.63 140.78 517.66 141.42 517.7 142.07 517.73 142.72 517.77 143.37 517.8 144.01 517.84 144.66 517.88 145.31 517.91 145.95 517.95 146.6 517.98 147.25 518.02 147.9 518.05 148.54 518.09 149.19 518.22 149.84 518.36 150.49 518.5 151.13 518.63 151.78 518.77 152.43 518.9 153.07 519.04 153.72 519.17 154.37 519.3 155.02 519.43 155.66 519.56 156.31 519.69 156.96 519.82 157.61 519.95 158.25 520.08 158.9 520.21 159.55 520.33 160.19 520.46 160.84 520.59 161.49 520.71 162.14 520.83 162.78 520.96 163.43 521.08 164.08 521.2 164.73 521.32 165.37 521.45 166.02 521.57 166.67 521.68 167.31 521.8 167.96 521.92 168.61 522.04 169.26 522.16 169.9 522.27 170.55 522.39 171.2 522.5 171.85 522.62 172.49 522.7 173.14 522.77 173.79 522.85 174.43 522.93 175.08 523.01 175.73 523.09 176.38 523.16 177.02 523.24 177.67 523.31 178.32 523.39 178.97 523.47 179.61 523.54 180.26 523.62 180.91 523.69 181.55 523.77 182.2 523.84 182.85 523.92 183.5 523.99 184.14 524.06 184.79 524.14 185.44 524.21 186.09 524.28 186.73 524.35 187.38 524.43 188.03 524.5 188.67 524.57 189.32 524.64 189.97 524.71 190.62 524.78 191.26 524.85 191.91 524.92 192.56 524.99 193.21 525.06 193.85 525.13 194.5 525.14 195.15 525.15 195.8 525.15 196.44 525.16 197.09 525.17 197.74 525.18 198.38 525.18 199.03 525.19 199.68 525.2 200.33 525.2 200.97 525.21 201.62 525.22 202.27 525.22 202.92 525.23 203.56 525.24 204.21 525.24 204.86 525.25 205.5 525.26 206.15 525.26 206.8 525.27 207.45 525.28 208.09 525.29 208.74 525.29 209.39 525.3 210.04 525.31 210.68 525.31 211.33 525.32 211.98 525.33 212.62 525.33 213.27 525.34 213.92 525.35 214.57 525.35 215.21 525.36 215.86 525.37 216.51 525.37 217.16 525.38 217.8 525.39 218.45 525.39 219.1 525.4 219.74 525.41 220.39 525.41 221.04 525.42 221.69 525.43 222.33 525.44 222.98 525.44 223.63 525.45 224.28 525.46 224.92 525.46 225.57 525.47 226.22 525.48 226.86 525.48 227.51 525.49 228.16 525.5 228.81 525.5 229.45 525.51 230.1 525.52 230.75 525.52 231.4 525.53 232.04 525.54 232.69 525.54 233.34 525.55 233.98 525.56 234.63 525.56 235.28 525.57 235.93 525.58 236.57 525.58 237.22 525.59 237.87 525.6 238.52 525.6 239.16 525.61 239.81 525.62 240.46 525.62 241.1 525.63 241.75 525.64 242.4 525.64 243.05 525.65 243.69 525.66 244.34 525.66 244.99 525.67 245.64 525.68 246.28 525.69 246.93 525.69 247.58 525.7 248.23 525.71 248.87 525.71 249.52 525.72 250.17 525.73 250.81 525.73 251.46 525.74 252.11 525.75 252.76 525.75 253.4 525.76 254.05 525.77 254.7 525.77 255.35 525.78 255.99 525.79 256.64 525.79 257.29 525.8 257.93 525.81 258.58 525.81 259.23 525.82 259.88 525.83 260.52 525.83 261.17 525.84 261.82 525.85 262.47 525.85 263.11 525.86 263.76 525.87 264.41 525.87 265.05 525.88 265.7 525.89 266.35 525.89 267 525.9 267.64 525.9 268.29 525.91 268.94 525.92 269.59 525.92 270.23 525.93 270.88 525.94 271.53 525.94 272.17 525.95 272.82 525.96 273.47 525.96 274.12 525.97 274.76 525.98 275.41 525.98 276.06 525.99 276.71 526 277.35 526 278 526.01 278.65 526.02 279.29 526.02 279.94 526.03 280.59 526.04 281.24 526.04 281.88 526.05 282.53 526.06 283.18 526.06 283.83 526.07 284.47 526.08 285.12 526.08 285.77 526.09 286.41 526.1 287.06 526.1 287.71 526.11 288.36 526.12 289 526.12 289.65 526.13 290.3 526.14 290.95 526.14 291.59 526.15 292.24 526.15 292.89 526.16 293.53 526.17 294.18 526.17 294.83 526.18 295.48 526.19 296.12 526.19 296.77 526.2 297.42 526.21 298.07 526.21 298.71 526.22 299.36 526.23 300.01 526.23 300.66 526.24 301.3 526.25 301.95 526.25 302.6 526.26 303.24 526.27 303.89 526.27 304.54 526.28 305.19 526.29 305.83 526.29 306.48 526.3 307.13 526.3 307.78 526.31 308.42 526.32 309.07 526.32 309.72 526.33 310.36 526.34 311.01 526.34 311.66 526.35 312.31 526.36 312.95 526.36 313.6 526.37 314.25 526.38 314.9 526.38 315.54 526.39 316.19 526.39 316.84 526.4 317.48 526.41 318.13 526.41 318.78 526.42 319.43 526.43 320.07 526.43 320.72 526.44 321.37 526.45 322.02 526.45 322.66 526.46 323.31 526.47 323.96 526.47 324.6 526.48 325.25 526.48 325.9 526.49 326.55 526.5 327.19 526.5 327.84 526.51 328.49 526.52 329.14 526.52 329.78 526.53 330.43 526.54 331.08 526.54 331.72 526.55 332.37 526.56 333.02 526.56 333.67 526.57 334.31 526.57 334.96 526.58 335.61 526.59 336.26 526.59 336.9 526.6 337.55 526.61 338.2 526.61 338.84 526.62 339.49 526.63 340.14 526.63 340.79 526.64 341.43 526.64 342.08 526.65 342.73 526.66 343.38 526.66 344.02 526.67 344.67 526.68 345.32 526.68 345.96 526.69 346.61 526.7 347.26 526.7 347.91 526.71 348.55 526.71 349.2 526.72 349.85 526.73 350.5 526.73 351.14 526.74 351.79 526.75 352.44 526.75 353.08 526.76 353.73 526.76 354.38 526.77 355.03 526.78 355.67 526.78 356.32 526.79 356.97 526.8 357.62 526.8 358.26 526.81 358.91 526.82 359.56 526.82 360.21 526.83 360.85 526.83 361.5 526.84 362.15 526.85 362.79 526.85 363.44 526.86 364.09 526.87 364.74 526.87 365.38 526.88 366.03 526.88 366.68 526.89 367.33 526.9 367.97 526.9 368.62 526.91 369.27 526.92 369.91 526.92 370.56 526.93 371.21 526.93 371.86 526.94 372.5 526.95 373.15 526.95 373.8 526.96 374.45 526.97 375.09 526.97 375.74 526.96 376.39 526.96 377.03 526.95 377.68 526.94 378.33 526.93 378.98 526.92 379.62 526.91 380.27 526.91 380.92 526.9 381.57 526.89 382.21 526.88 382.86 526.87 383.51 526.87 384.15 526.86 384.8 526.85 385.45 526.84 386.1 526.83 386.74 526.83 387.39 526.82 388.04 526.81 388.69 526.8 389.33 526.79 389.98 526.78 390.63 526.78 391.27 526.77 391.92 526.76 392.57 526.75 393.22 526.74 393.86 526.73 394.51 526.73 395.16 526.72 395.81 526.71 396.45 526.7 397.1 526.69 397.75 526.69 398.39 526.68 399.04 526.67 399.69 526.66 400.34 526.65 400.98 526.64 401.63 526.64 402.28 526.63 402.93 526.62 403.57 526.61 404.22 526.6 404.87 526.59 405.51 526.59 406.16 526.58 406.81 526.57 407.46 526.56 408.1 526.51 408.75 526.47 409.4 526.42 410.05 526.37 410.69 526.32 411.34 526.27 411.99 526.22 412.64 526.17 413.28 526.12 413.93 526.08 414.58 526.03 415.22 525.98 415.87 525.93 416.52 525.88 417.17 525.83 417.81 525.78 418.46 525.73 419.11 525.68 419.76 525.63 420.4 525.58 421.05 525.52 421.7 525.47 422.34 525.42 422.99 525.37 423.64 525.32 424.29 525.27 424.93 525.22 425.58 525.17 426.23 525.11 426.88 525.06 427.52 525.01 428.17 524.96 428.82 524.91 429.46 524.85 430.11 524.8 430.76 524.75 431.41 524.69 432.05 524.64 432.7 524.59 433.35 524.53 434 524.48 434.64 524.43 435.29 524.37 435.94 524.32 436.58 524.27 437.23 524.21 437.88 524.16 438.53 524.1 439.17 524.05 439.82 523.99 440.47 524.04 441.12 524.08 441.76 524.12 442.41 524.17 443.06 524.21 443.7 524.25 444.35 524.3 445 524.34 445.65 524.38 446.29 524.42 446.94 524.47 447.59 524.51 448.24 524.55 448.88 524.59 449.53 524.64 450.18 524.68 450.82 524.72 451.47 524.76 452.12 524.81 452.77 524.85 453.41 524.89 454.06 524.93 454.71 524.97 455.36 525.01 456 525.06 456.65 525.1 457.3 525.14 457.94 525.18 458.59 525.22 459.24 525.26 459.89 525.3 460.53 525.34 461.18 525.38 461.83 525.42 462.48 525.46 463.12 525.5 463.77 525.55 464.42 525.59 465.06 525.63 465.71 525.67 466.36 525.71 467.01 525.75 467.65 525.79 468.3 525.83 468.95 525.86 469.6 525.9 470.24 525.94 470.89 525.98 471.54 526.02 472.19 526.06 472.83 526.1 473.48 526.14 474.13 526.18 474.77 526.22 475.42 526.26 476.07 526.3 476.72 526.33 477.36 526.37 478.01 526.41 478.66 526.45 479.31 526.49 479.95 526.53 480.6 526.56 481.25 526.6 481.89 526.64 482.54 526.68 483.19 526.72 483.84 526.75 484.48 526.79 485.13 526.83 485.78 526.82 486.43 526.82 487.07 526.81 487.72 526.81 488.37 526.8 489.01 526.8 489.66 526.79 490.31 526.79 490.96 526.78 491.6 526.78 492.25 526.77 492.9 526.76 493.55 526.76 494.19 526.75 494.84 526.75 495.49 526.74 496.13 526.74 496.78 526.73 497.43 526.73 498.08 526.72 498.72 526.72 499.37 526.71 500.02 526.71 500.67 526.7 501.31 526.7 501.96 526.69 502.61 526.68 503.25 526.68 503.9 526.67 504.55 526.67 505.2 526.69 505.84 526.72 506.49 526.75 507.14 526.77 507.79 526.8 508.43 526.82 509.08 526.85 509.73 526.88 510.37 526.9 511.02 526.93 511.67 526.95 512.32 526.98 512.96 527 513.61 527.03 514.26 527.06 514.91 527.08 515.55 527.11 516.2 527.13 516.85 527.16 517.49 527.18 518.14 527.21 518.79 527.23 519.44 527.26 520.08 527.28 520.73 527.31 521.38 527.33 522.03 527.36 522.67 527.38 523.32 527.41 523.97 527.44 524.62 527.46 525.26 527.48 525.91 527.51 526.56 527.53 527.2 527.56 527.85 527.58 528.5 527.61 529.15 527.63 529.79 527.66 530.44 527.68 531.09 527.71 531.74 527.73 532.38 527.76 533.03 527.78 533.68 527.81 534.32 527.83 534.97 527.85 535.62 527.88 536.27 527.9 536.91 527.93 537.56 527.95 538.21 527.98 538.86 528 539.5 528.02 540.15 528.05 540.8 528.07 541.44 528.1 542.09 528.12 542.74 528.14 543.39 528.17 544.03 528.19 544.68 528.22 545.33 528.24 545.98 528.26 546.62 528.29 547.27 528.31 547.92 528.33 548.56 528.36 549.21 528.38 549.86 528.4 550.51 528.43 551.15 528.45 551.8 528.48 552.45 528.5 553.1 528.52 553.74 528.55 554.39 528.57 555.04 528.59 555.68 528.62 556.33 528.64 556.98 528.66 557.63 528.68 558.27 528.71 558.92 528.73 559.57 528.75 560.22 528.78 560.86 528.8 561.51 528.82 562.16 528.85 562.8 528.87 563.45 528.89 564.1 528.91 564.75 528.94 565.39 528.96 566.04 528.98 566.69 529 567.34 529.03 567.98 529.05 568.63 529.07 569.28 529.1 569.92 529.16 570.57 529.22 571.22 529.28 571.87 529.34 572.51 529.4 573.16 529.46 573.81 529.52 574.46 529.58 575.1 529.64 575.75 529.7 576.4 529.76 577.04 529.82 577.69 529.87 578.34 529.93 578.99 529.99 579.63 530.05 580.28 530.11 580.93 530.16 581.58 530.22 582.22 530.28 582.87 530.33 583.52 530.39 584.17 530.45 584.81 530.5 585.46 530.56 586.11 530.61 586.75 530.67 587.4 530.72 588.05 530.78 588.7 530.83 589.34 530.89 589.99 530.94 590.64 531 591.29 531.05 591.93 531.1 592.58 531.16 593.23 531.21 593.87 531.26 594.52 531.31 595.17 531.37 595.82 531.42 596.46 531.47 597.11 531.52 597.76 531.57 598.41 531.63 599.05 531.68 599.7 531.73 600.35 531.78 600.99 531.83 601.64 531.88 602.29 531.91 602.94 531.95 603.58 531.98 604.23 532.01 604.88 532.05 605.53 532.08 606.17 532.11 606.82 532.14 607.47 532.18 608.11 532.21 608.76 532.24 609.41 532.28 610.06 532.31 610.7 532.34 611.35 532.37 612 532.4 612.65 532.44 613.29 532.47 613.94 532.5 614.59 532.53 615.23 532.56 615.88 532.6 616.53 532.63 617.18 532.66 617.82 532.69 618.47 532.72 619.12 532.75 619.77 532.78 620.41 532.82 621.06 532.85 621.71 532.88 622.35 532.91 623 532.94 623.65 532.97 624.3 533 624.94 533.03 625.59 533.06 626.24 533.09 626.89 533.12 627.53 533.15 628.18 533.18 628.83 533.21 629.47 533.24 630.12 533.27 630.77 533.3 631.42 533.33 632.06 533.36 632.71 533.39 633.36 533.42 634.01 533.45 634.65 533.45 635.3 533.45 635.95 533.45 636.6 533.45 637.24 533.45 637.89 533.46 638.54 533.46 639.18 533.46 639.83 533.46 640.48 533.46 641.13 533.46 641.77 533.46 642.42 533.46 643.07 533.46 643.72 533.46 644.36 533.47 645.01 533.47 645.66 533.47 646.3 533.47 646.95 533.47 647.6 533.47 648.25 533.47 648.89 533.47 649.54 533.47 650.19 533.48 650.84 533.48 651.48 533.48 652.13 533.48 652.78 533.48 653.42 533.48 654.07 533.48 654.72 533.48 655.37 533.48 656.01 533.49 656.66 533.49 657.31 533.49 657.96 533.49 658.6 533.49 659.25 533.49 659.9 533.49 660.54 533.49 661.19 533.49 661.84 533.49 662.49 533.5 663.13 533.5 663.78 533.5 664.43 533.5 665.08 533.5 665.72 533.5 666.37 533.5 667.02 533.57 667.66 533.63 668.31 533.7 668.96 533.76 669.61 533.83 670.25 533.89 670.9 533.95 671.55 534.02 672.2 534.08 672.84 534.14 673.49 534.2 674.14 534.26 674.78 534.32 675.43 534.38 676.08 534.44 676.73 534.5 677.37 534.56 678.02 534.62 678.67 534.68 679.32 534.74 679.96 534.73 680.61 534.72 681.26 534.71 681.9 534.7 682.55 534.69 683.2 534.68 683.85 534.67 684.49 534.67 685.14 534.66 685.79 534.65 686.44 534.64 687.08 534.63 687.73 534.62 688.38 534.61 689.03 534.6 689.67 534.59 690.32 534.58 690.97 534.57 691.61 534.56 692.26 534.55 692.91 534.55 693.56 534.54 694.2 534.53 694.85 534.52 695.5 534.51 696.15 534.5 696.79 534.49 697.44 534.48 698.09 534.48 698.73 534.47 699.38 534.46 700.03 534.45 700.68 534.44 701.32 534.43 701.97 534.42 702.62 534.41 703.27 534.4 703.91 534.39 704.56 534.38 705.21 534.37 705.85 534.36 706.5 534.35 707.15 534.34 707.8 534.33 708.44 534.32 709.09 534.31 709.74 534.3 710.39 534.29 711.03 534.28 711.68 534.27 712.33 534.26 712.97 534.24 713.62 534.23 714.27 534.22 714.92 534.21 715.56 534.2 716.21 534.19 716.86 534.18 717.51 534.16 718.15 534.07 718.8 534.05 719.45 533.8 720.09 533.88 720.74 534.82 721.39 534.12 722.04 533.55 722.68 533.86 723.33 534.17 723.98 534.35 724.63 534.54 725.27 534.72 725.92 534.89 726.57 535.07 727.21 535.23 727.86 535.4 728.51 535.56 729.16 535.72 729.8 535.88 730.45 536.04 731.1 536.19 731.75 535.43 732.39 534.6 733.04 534.35 733.69 534.26 734.33 533.92 734.98 533.22 735.63 532.87 736.28 531.91 736.92 531.98 737.57 532.4 738.22 534.33 738.87 534.38 739.51 533.67 740.16 532.71 740.81 531.71 741.45 530.92 742.1 531.61 742.75 532.18 743.4 531.51 744.04 530.35 744.69 530.06 745.34 530 745.99 529.29 746.63 529.35 747.28 528.71 747.93 529.04 748.58 528.32 749.22 526.83 749.87 525.74 750.52 525.36 751.16 524.49 751.81 523.15 752.46 521.88 753.11 519.44 753.75 517.27 754.4 515.89 755.05 513.42 755.7 511.77 756.34 511.7 756.99 511.05 757.64 509.35 758.28 506.44 758.93 503.26 759.58 499.68 760.23 493.52 760.87 493.02 761.52 490.87 762.17 491.23 762.82 488.24 763.46 483.67 764.11 477.7 764.76 469.96 765.4 459.26 766.05 452.8 766.7 445.62 767.35 437.28 767.99 432.76 768.64 425.31 769.29 415.01 769.94 402.22 770.58 389.53 771.23 378.39 771.88 366.44 772.52 354.32 773.17 342.14" style="stroke-width:1.2;stroke:#b9519e;stroke-linecap:butt;fill:none;stroke-linejoin:round;stroke-miterlimit:10"/><polyline points="504.55 532.05 505.2 532.07 505.84 532.09 506.49 532.1 507.14 532.12 507.79 532.13 508.43 532.15 509.08 532.17 509.73 532.18 510.37 532.2 511.02 532.21 511.67 532.23 512.32 532.25 512.96 532.26 513.61 532.28 514.26 532.29 514.91 532.31 515.55 532.32 516.2 532.34 516.85 532.36 517.49 532.37 518.14 532.39 518.79 532.4 519.44 532.42 520.08 532.43 520.73 532.45 521.38 532.46 522.03 532.48 522.67 532.5 523.32 532.51 523.97 532.53 524.62 532.54 525.26 532.56 525.91 532.57 526.56 532.59 527.2 532.6 527.85 532.62 528.5 532.63 529.15 532.65 529.79 532.66 530.44 532.68 531.09 532.69 531.74 532.71 532.38 532.73 533.03 532.74 533.68 532.76 534.32 532.77 534.97 532.79 535.62 532.8 536.27 532.82 536.91 532.83 537.56 532.84 538.21 532.84 538.86 532.85 539.5 532.85 540.15 532.86 540.8 532.87 541.44 532.87 542.09 532.88 542.74 532.88 543.39 532.89 544.03 532.89 544.68 532.9 545.33 532.91 545.98 532.91 546.62 532.92 547.27 532.92 547.92 532.93 548.56 532.93 549.21 532.94 549.86 532.94 550.51 532.95 551.15 532.96 551.8 532.96 552.45 532.97 553.1 532.97 553.74 532.98 554.39 532.98 555.04 532.99 555.68 533 556.33 533 556.98 533.01 557.63 533.01 558.27 533.02 558.92 533.02 559.57 533.03 560.22 533.04 560.86 533.04 561.51 533.05 562.16 533.05 562.8 533.06 563.45 533.06 564.1 533.07 564.75 533.07 565.39 533.08 566.04 533.09 566.69 533.09 567.34 533.1 567.98 533.1 568.63 533.11 569.28 533.11 569.92 533.13 570.57 533.15 571.22 533.17 571.87 533.19 572.51 533.2 573.16 533.22 573.81 533.24 574.46 533.26 575.1 533.27 575.75 533.29 576.4 533.31 577.04 533.33 577.69 533.35 578.34 533.36 578.99 533.38 579.63 533.4 580.28 533.42 580.93 533.43 581.58 533.45 582.22 533.47 582.87 533.49 583.52 533.5 584.17 533.52 584.81 533.54 585.46 533.56 586.11 533.57 586.75 533.59 587.4 533.61 588.05 533.62 588.7 533.64 589.34 533.66 589.99 533.68 590.64 533.69 591.29 533.71 591.93 533.73 592.58 533.74 593.23 533.76 593.87 533.78 594.52 533.79 595.17 533.81 595.82 533.83 596.46 533.85 597.11 533.86 597.76 533.88 598.41 533.9 599.05 533.91 599.7 533.93 600.35 533.95 600.99 533.96 601.64 533.98 602.29 533.98 602.94 533.98 603.58 533.98 604.23 533.98 604.88 533.99 605.53 533.99 606.17 533.99 606.82 533.99 607.47 533.99 608.11 533.99 608.76 533.99 609.41 534 610.06 534 610.7 534 611.35 534 612 534 612.65 534 613.29 534 613.94 534.01 614.59 534.01 615.23 534.01 615.88 534.01 616.53 534.01 617.18 534.01 617.82 534.01 618.47 534.02 619.12 534.02 619.77 534.02 620.41 534.02 621.06 534.02 621.71 534.02 622.35 534.02 623 534.03 623.65 534.03 624.3 534.03 624.94 534.03 625.59 534.03 626.24 534.03 626.89 534.03 627.53 534.04 628.18 534.04 628.83 534.04 629.47 534.04 630.12 534.04 630.77 534.04 631.42 534.04 632.06 534.05 632.71 534.05 633.36 534.05 634.01 534.05 634.65 534.05 635.3 534.06 635.95 534.06 636.6 534.07 637.24 534.07 637.89 534.08 638.54 534.08 639.18 534.09 639.83 534.09 640.48 534.1 641.13 534.1 641.77 534.11 642.42 534.11 643.07 534.11 643.72 534.12 644.36 534.12 645.01 534.13 645.66 534.13 646.3 534.14 646.95 534.14 647.6 534.15 648.25 534.15 648.89 534.16 649.54 534.16 650.19 534.17 650.84 534.17 651.48 534.17 652.13 534.18 652.78 534.18 653.42 534.19 654.07 534.19 654.72 534.2 655.37 534.2 656.01 534.21 656.66 534.21 657.31 534.22 657.96 534.22 658.6 534.22 659.25 534.23 659.9 534.23 660.54 534.24 661.19 534.24 661.84 534.25 662.49 534.25 663.13 534.26 663.78 534.26 664.43 534.27 665.08 534.27 665.72 534.27 666.37 534.28 667.02 534.3 667.66 534.32 668.31 534.34 668.96 534.36 669.61 534.38 670.25 534.4 670.9 534.42 671.55 534.44 672.2 534.46 672.84 534.48 673.49 534.5 674.14 534.52 674.78 534.54 675.43 534.56 676.08 534.58 676.73 534.6 677.37 534.62 678.02 534.64 678.67 534.66 679.32 534.68 679.96 534.66 680.61 534.64 681.26 534.62 681.9 534.6 682.55 534.57 683.2 534.55 683.85 534.53 684.49 534.51 685.14 534.49 685.79 534.46 686.44 534.44 687.08 534.42 687.73 534.4 688.38 534.38 689.03 534.09 689.67 534.42 690.32 534 690.97 533.93 691.61 534.22 692.26 533.78 692.91 534.75 693.56 534.01 694.2 533.78 694.85 533.64 695.5 533.91 696.15 534.68 696.79 532.98 697.44 532.97 698.09 533.86 698.73 533.52 699.38 533.36 700.03 532.54 700.68 532.45 701.32 532.46 701.97 532.74 702.62 532.49 703.27 533.26 703.91 533.17 704.56 531.74 705.21 531.8 705.85 531.9 706.5 531.94 707.15 532.22 707.8 531.58 708.44 531.9 709.09 531.56 709.74 531.79 710.39 533.38 711.03 531.91 711.68 532.88 712.33 532.1 712.97 531.72 713.62 532.24 714.27 531.79 714.92 531.77 715.56 531.51 716.21 531.63 716.86 531.63 717.51 531.25 718.15 531.28 718.8 531.54 719.45 531.57 720.09 531.74 720.74 531.8 721.39 532.08 722.04 531.79 722.68 532.16 723.33 532.29 723.98 532.2 724.63 531.98 725.27 531.9 725.92 532.1 726.57 531.77 727.21 532.04 727.86 532.37 728.51 533.12 729.16 533.19 729.8 533.2 730.45 533.07 731.1 533.17 731.75 533.1 732.39 532.98 733.04 532.5 733.69 532.24 734.33 532.17 734.98 531.72 735.63 532.1 736.28 531.46 736.92 531.43 737.57 530.8 738.22 530.7 738.87 530.71 739.51 530.34 740.16 529.59 740.81 530.49 741.45 530.64 742.1 529.85 742.75 529.82 743.4 529.18 744.04 528.77 744.69 528.98 745.34 529.37 745.99 529.03 746.63 529.2 747.28 528.25 747.93 528.39 748.58 527.56 749.22 527.04 749.87 528.29 750.52 527.52 751.16 526.85 751.81 526.69 752.46 525.68 753.11 525.38 753.75 525.05 754.4 524.65 755.05 524.24 755.7 522.62 756.34 521.67 756.99 520.98 757.64 521.06 758.28 520.25 758.93 519.34 759.58 518.24 760.23 516.85 760.87 515.21 761.52 514.51 762.17 513.1 762.82 511.68 763.46 510.85 764.11 509.54 764.76 508.83 765.4 506.48 766.05 503.95 766.7 501.29 767.35 497.96 767.99 494.46 768.64 491.96 769.29 488.39 769.94 484.54 770.58 480.84 771.23 478.67 771.88 475.42 772.52 471.53 773.17 467.18" style="stroke-width:1.2;stroke-linecap:butt;fill:none;stroke:#000;stroke-linejoin:round;stroke-miterlimit:10"/><circle cx="773.17" cy="342.14" r="3.8" style="stroke-width:1.2;stroke:#b9519e;fill:#b9519e;stroke-linecap:round;stroke-linejoin:round;stroke-miterlimit:10"/><circle cx="773.17" cy="90.81" r="3.8" style="stroke-width:1.2;stroke:#3a53a4;fill:#3a53a4;stroke-linecap:round;stroke-linejoin:round;stroke-miterlimit:10"/><circle cx="773.17" cy="234.27" r="3.8" style="stroke-width:1.2;stroke:#009147;fill:#009147;stroke-linecap:round;stroke-linejoin:round;stroke-miterlimit:10"/><circle cx="773.17" cy="142.52" r="3.8" style="stroke-width:1.2;stroke:#f49323;fill:#f49323;stroke-linecap:round;stroke-linejoin:round;stroke-miterlimit:10"/><circle cx="773.17" cy="467.18" r="3.8" style="stroke-width:1.2;fill:#000;stroke:#000;stroke-linecap:round;stroke-linejoin:round;stroke-miterlimit:10"/><polyline points="116.18 544.1 116.18 14.17" style="stroke-width:1.07;stroke:#464646;stroke-linecap:butt;fill:none;stroke-linejoin:round;stroke-miterlimit:10"/><text x="57.03" y="460.19" style="font-size:18px;font-family:Asap" textLength="42.1" lengthAdjust="spacingAndGlyphs">5,000</text><text x="47.4" y="371.87" style="font-size:18px;font-family:Asap" textLength="51.73" lengthAdjust="spacingAndGlyphs">10,000</text><text x="47.4" y="283.55" style="font-size:18px;font-family:Asap" textLength="51.73" lengthAdjust="spacingAndGlyphs">15,000</text><text x="47.4" y="195.23" style="font-size:18px;font-family:Asap" textLength="51.73" lengthAdjust="spacingAndGlyphs">20,000</text><text x="47.4" y="106.9" style="font-size:18px;font-family:Asap" textLength="51.73" lengthAdjust="spacingAndGlyphs">25,000</text><text x="47.4" y="18.58" style="font-size:18px;font-family:Asap" textLength="51.73" lengthAdjust="spacingAndGlyphs">30,000</text><polyline points="109.09 455.78 116.18 455.78" style="stroke-width:1.07;stroke:#464646;stroke-linecap:butt;fill:none;stroke-linejoin:round;stroke-miterlimit:10"/><polyline points="109.09 367.46 116.18 367.46" style="stroke-width:1.07;stroke:#464646;stroke-linecap:butt;fill:none;stroke-linejoin:round;stroke-miterlimit:10"/><polyline points="109.09 279.14 116.18 279.14" style="stroke-width:1.07;stroke:#464646;stroke-linecap:butt;fill:none;stroke-linejoin:round;stroke-miterlimit:10"/><polyline points="109.09 190.82 116.18 190.82" style="stroke-width:1.07;stroke:#464646;stroke-linecap:butt;fill:none;stroke-linejoin:round;stroke-miterlimit:10"/><polyline points="109.09 102.49 116.18 102.49" style="stroke-width:1.07;stroke:#464646;stroke-linecap:butt;fill:none;stroke-linejoin:round;stroke-miterlimit:10"/><polyline points="109.09 14.17 116.18 14.17" style="stroke-width:1.07;stroke:#464646;stroke-linecap:butt;fill:none;stroke-linejoin:round;stroke-miterlimit:10"/><polyline points="116.18 544.1 795.83 544.1" style="stroke-width:1.07;stroke:#464646;stroke-linecap:butt;fill:none;stroke-linejoin:round;stroke-miterlimit:10"/><polyline points="116.18 551.19 116.18 544.1" style="stroke-width:1.07;stroke:#464646;stroke-linecap:butt;fill:none;stroke-linejoin:round;stroke-miterlimit:10"/><polyline points="245.64 551.19 245.64 544.1" style="stroke-width:1.07;stroke:#464646;stroke-linecap:butt;fill:none;stroke-linejoin:round;stroke-miterlimit:10"/><polyline points="375.09 551.19 375.09 544.1" style="stroke-width:1.07;stroke:#464646;stroke-linecap:butt;fill:none;stroke-linejoin:round;stroke-miterlimit:10"/><polyline points="504.55 551.19 504.55 544.1" style="stroke-width:1.07;stroke:#464646;stroke-linecap:butt;fill:none;stroke-linejoin:round;stroke-miterlimit:10"/><polyline points="634.01 551.19 634.01 544.1" style="stroke-width:1.07;stroke:#464646;stroke-linecap:butt;fill:none;stroke-linejoin:round;stroke-miterlimit:10"/><polyline points="763.46 551.19 763.46 544.1" style="stroke-width:1.07;stroke:#464646;stroke-linecap:butt;fill:none;stroke-linejoin:round;stroke-miterlimit:10"/><text x="96.91" y="573.79" style="font-size:18px;font-family:Asap" textLength="38.53" lengthAdjust="spacingAndGlyphs">1000</text><text x="226.37" y="573.79" style="font-size:18px;font-family:Asap" textLength="38.53" lengthAdjust="spacingAndGlyphs">1200</text><text x="355.83" y="573.79" style="font-size:18px;font-family:Asap" textLength="38.53" lengthAdjust="spacingAndGlyphs">1400</text><text x="485.28" y="573.79" style="font-size:18px;font-family:Asap" textLength="38.53" lengthAdjust="spacingAndGlyphs">1600</text><text x="614.74" y="573.79" style="font-size:18px;font-family:Asap" textLength="38.53" lengthAdjust="spacingAndGlyphs">1800</text><text x="744.2" y="573.79" style="font-size:18px;font-family:Asap" textLength="38.53" lengthAdjust="spacingAndGlyphs">2000</text><text x="435.91" y="606.59" style="font-size:20px;font-weight:500;font-family:Asap Medium" textLength="40.18" lengthAdjust="spacingAndGlyphs">Year</text><text transform="rotate(-90 186.925 158.715)" style="font-size:20px;font-weight:500;font-family:Asap Medium" textLength="38.74" lengthAdjust="spacingAndGlyphs">GDP</text><text transform="rotate(-90 165.155 136.945)" style="font-size:20px;font-weight:500;font-family:Asap Medium" textLength="29.56" lengthAdjust="spacingAndGlyphs">per</text><text transform="rotate(-90 147.97 119.76)" style="font-size:20px;font-weight:500;font-family:Asap Medium" textLength="55.1" lengthAdjust="spacingAndGlyphs">capita</text><rect x="617.41" y="20.84" width="84.97" height="124.44" style="stroke-width:1.07;stroke:none;fill:#fff;stroke-linecap:round;stroke-linejoin:round;stroke-miterlimit:10"/><line x1="616.41" y1="42.6" x2="638.01" y2="42.6" style="stroke-width:1.2;stroke:#3a53a4;stroke-linecap:butt;fill:none;stroke-linejoin:round;stroke-miterlimit:10"/><circle cx="640.17" cy="42.6" r="4.27" style="stroke-width:.75;stroke:#3a53a4;fill:#3a53a4;stroke-linecap:round;stroke-linejoin:round;stroke-miterlimit:10"/><circle cx="640.17" cy="42.6" r="4.27" style="stroke-width:.75;stroke:#3a53a4;fill:#3a53a4;stroke-linecap:round;stroke-linejoin:round;stroke-miterlimit:10"/><line x1="616.41" y1="64.2" x2="638.01" y2="64.2" style="stroke-width:1.2;stroke:#f49323;stroke-linecap:butt;fill:none;stroke-linejoin:round;stroke-miterlimit:10"/><circle cx="640.17" cy="64.2" r="4.27" style="stroke-width:.75;stroke:#f49323;fill:#f49323;stroke-linecap:round;stroke-linejoin:round;stroke-miterlimit:10"/><circle cx="640.17" cy="64.2" r="4.27" style="stroke-width:.75;stroke:#f49323;fill:#f49323;stroke-linecap:round;stroke-linejoin:round;stroke-miterlimit:10"/><line x1="616.41" y1="85.8" x2="638.01" y2="85.8" style="stroke-width:1.2;stroke:#009147;stroke-linecap:butt;fill:none;stroke-linejoin:round;stroke-miterlimit:10"/><circle cx="640.17" cy="85.8" r="4.27" style="stroke-width:.75;stroke:#009147;fill:#009147;stroke-linecap:round;stroke-linejoin:round;stroke-miterlimit:10"/><circle cx="640.17" cy="85.8" r="4.27" style="stroke-width:.75;stroke:#009147;fill:#009147;stroke-linecap:round;stroke-linejoin:round;stroke-miterlimit:10"/><line x1="616.41" y1="107.4" x2="638.01" y2="107.4" style="stroke-width:1.2;stroke:#b9519e;stroke-linecap:butt;fill:none;stroke-linejoin:round;stroke-miterlimit:10"/><circle cx="640.17" cy="107.4" r="4.27" style="stroke-width:.75;stroke:#b9519e;fill:#b9519e;stroke-linecap:round;stroke-linejoin:round;stroke-miterlimit:10"/><circle cx="640.17" cy="107.4" r="4.27" style="stroke-width:.75;stroke:#b9519e;fill:#b9519e;stroke-linecap:round;stroke-linejoin:round;stroke-miterlimit:10"/><line x1="616.41" y1="129" x2="638.01" y2="129" style="stroke-width:1.2;stroke-linecap:butt;fill:none;stroke:#000;stroke-linejoin:round;stroke-miterlimit:10"/><circle cx="640.17" cy="129" r="4.27" style="stroke-width:.75;fill:#000;stroke:#000;stroke-linecap:round;stroke-linejoin:round;stroke-miterlimit:10"/><circle cx="640.17" cy="129" r="4.27" style="stroke-width:.75;fill:#000;stroke:#000;stroke-linecap:round;stroke-linejoin:round;stroke-miterlimit:10"/><text x="649.97" y="46.52" style="font-size:16px;font-family:Asap" textLength="46.93" lengthAdjust="spacingAndGlyphs">Britain</text><text x="649.97" y="68.12" style="font-size:16px;font-family:Asap" textLength="41.95" lengthAdjust="spacingAndGlyphs">Japan</text><text x="649.97" y="89.72" style="font-size:16px;font-family:Asap" textLength="31.17" lengthAdjust="spacingAndGlyphs">Italy</text><text x="649.97" y="111.32" style="font-size:16px;font-family:Asap" textLength="40.82" lengthAdjust="spacingAndGlyphs">China</text><text x="649.97" y="132.92" style="font-size:16px;font-family:Asap" textLength="35.45" lengthAdjust="spacingAndGlyphs">India</text></g></svg>