<svg version="1.1" xmlns="http://www.w3.org/2000/svg" x="0" y="0" viewBox="0 0 311.81 154.78" style="enable-background:new 0 0 311.81 154.78" xml:space="preserve"><text transform="translate(140.034 88.518)" style="font-family:'Asap-Medium';font-size:8px">Manager</text><text transform="translate(141.503 153.785)" style="font-family:'Asap-Medium';font-size:8px">Workers</text><path style="fill:#58595b" d="M156 74.55h-1.4c-1.96 0-3.99 1.61-3.99 3.57v1.4h9.38v-1.4c0-1.96-2.02-3.57-3.99-3.57z"/><circle transform="rotate(-13.286 155.27 71.6)" style="fill:#58595b" cx="155.3" cy="71.61" r="2.43"/><line style="fill:none;stroke:#939598;stroke-width:.5;stroke-miterlimit:10" x1="155.3" y1="41.99" x2="155.3" y2="61.78"/><polygon style="fill:#939598" points="153.26 60.13 153.63 59.79 155.3 61.59 156.98 59.79 157.35 60.13 155.3 62.33"/><line style="fill:none;stroke:#009147;stroke-width:.5;stroke-miterlimit:10" x1="161.79" y1="62.33" x2="161.79" y2="61.62"/><line style="fill:none;stroke:#009147;stroke-width:.5;stroke-miterlimit:10;stroke-dasharray:1.4134,1.4134" x1="161.79" y1="60.2" x2="161.79" y2="43.95"/><line style="fill:none;stroke:#009147;stroke-width:.5;stroke-miterlimit:10" x1="161.79" y1="43.24" x2="161.79" y2="42.54"/><polygon style="fill:#009147" points="163.84 44.19 163.47 44.53 161.79 42.73 160.11 44.53 159.75 44.19 161.79 41.99"/><polyline style="fill:none;stroke:#939598;stroke-width:.5;stroke-miterlimit:10" points="155.91 95.66 155.91 115.66 251.14 115.66 251.14 125.45"/><polygon style="fill:#939598" points="249.09 123.79 249.46 123.45 251.14 125.26 252.82 123.45 253.18 123.79 251.14 125.99"/><polyline style="fill:none;stroke:#939598;stroke-width:.5;stroke-miterlimit:10" points="155.91 115.66 60.67 115.66 60.67 125.45"/><polygon style="fill:#939598" points="58.63 123.79 58.99 123.45 60.67 125.26 62.35 123.45 62.72 123.79 60.67 125.99"/><path style="fill:#ed2124" d="M61.37 137.19h-1.4c-1.96 0-3.99 1.61-3.99 3.57v1.4h9.38v-1.4c0-1.96-2.02-3.57-3.99-3.57z"/><circle transform="rotate(-13.286 60.657 134.228)" style="fill:#ed2124" cx="60.67" cy="134.25" r="2.43"/><path style="fill:#ed2124" d="M82.53 137.19h-1.4c-1.96 0-3.99 1.61-3.99 3.57v1.4h9.38v-1.4c.01-1.96-2.02-3.57-3.99-3.57z"/><circle transform="rotate(-13.286 81.815 134.229)" style="fill:#ed2124" cx="81.84" cy="134.25" r="2.43"/><path style="fill:#ed2124" d="M103.7 137.19h-1.4c-1.96 0-3.99 1.61-3.99 3.57v1.4h9.38v-1.4c0-1.96-2.03-3.57-3.99-3.57z"/><circle transform="rotate(-13.286 102.974 134.229)" style="fill:#ed2124" cx="103" cy="134.25" r="2.43"/><path style="fill:#ed2124" d="M124.86 137.19h-1.4c-1.96 0-3.99 1.61-3.99 3.57v1.4h9.38v-1.4c0-1.96-2.03-3.57-3.99-3.57z"/><circle transform="rotate(-13.286 124.132 134.23)" style="fill:#ed2124" cx="124.16" cy="134.25" r="2.43"/><path style="fill:#ed2124" d="M146.02 137.19h-1.4c-1.96 0-3.99 1.61-3.99 3.57v1.4h9.38v-1.4c0-1.96-2.02-3.57-3.99-3.57z"/><circle transform="rotate(-13.286 145.29 134.23)" style="fill:#ed2124" cx="145.32" cy="134.25" r="2.43"/><path style="fill:#ed2124" d="M167.19 137.19h-1.4c-1.96 0-3.99 1.61-3.99 3.57v1.4h9.38v-1.4c0-1.96-2.03-3.57-3.99-3.57z"/><circle transform="rotate(-13.286 166.45 134.23)" style="fill:#ed2124" cx="166.49" cy="134.25" r="2.43"/><path style="fill:#ed2124" d="M188.35 137.19h-1.4c-1.96 0-3.99 1.61-3.99 3.57v1.4h9.38v-1.4c0-1.96-2.03-3.57-3.99-3.57z"/><circle transform="rotate(-13.286 187.608 134.231)" style="fill:#ed2124" cx="187.65" cy="134.25" r="2.43"/><path style="fill:#ed2124" d="M209.51 137.19h-1.4c-1.96 0-3.99 1.61-3.99 3.57v1.4h9.38v-1.4c0-1.96-2.02-3.57-3.99-3.57z"/><circle transform="rotate(-13.286 208.766 134.232)" style="fill:#ed2124" cx="208.81" cy="134.25" r="2.43"/><path style="fill:#ed2124" d="M230.67 137.19h-1.4c-1.96 0-3.99 1.61-3.99 3.57v1.4h9.38v-1.4c0-1.96-2.02-3.57-3.99-3.57z"/><circle transform="rotate(-13.286 229.925 134.232)" style="fill:#ed2124" cx="229.98" cy="134.25" r="2.43"/><path style="fill:#ed2124" d="M251.84 137.19h-1.4c-1.96 0-3.99 1.61-3.99 3.57v1.4h9.38v-1.4c0-1.96-2.03-3.57-3.99-3.57z"/><circle transform="rotate(-13.286 251.083 134.233)" style="fill:#ed2124" cx="251.14" cy="134.25" r="2.43"/><line style="fill:none;stroke:#009147;stroke-width:.5;stroke-miterlimit:10" x1="173.14" y1="136.68" x2="181.21" y2="136.68"/><polygon style="fill:#009147" points="174.8 138.73 175.14 138.36 173.33 136.68 175.14 135 174.8 134.64 172.6 136.68"/><polygon style="fill:#009147" points="179.56 138.73 179.21 138.36 181.02 136.68 179.21 135 179.56 134.64 181.75 136.68"/><line style="fill:none;stroke:#009147;stroke-width:.5;stroke-miterlimit:10" x1="194.37" y1="136.68" x2="202.44" y2="136.68"/><polygon style="fill:#009147" points="196.03 138.73 196.37 138.36 194.56 136.68 196.37 135 196.03 134.64 193.83 136.68"/><polygon style="fill:#009147" points="200.79 138.73 200.45 138.36 202.25 136.68 200.45 135 200.79 134.64 202.99 136.68"/><line style="fill:none;stroke:#009147;stroke-width:.5;stroke-miterlimit:10" x1="215.6" y1="136.68" x2="223.68" y2="136.68"/><polygon style="fill:#009147" points="217.26 138.73 217.6 138.36 215.79 136.68 217.6 135 217.26 134.64 215.06 136.68"/><polygon style="fill:#009147" points="222.02 138.73 221.68 138.36 223.48 136.68 221.68 135 222.02 134.64 224.22 136.68"/><line style="fill:none;stroke:#009147;stroke-width:.5;stroke-miterlimit:10" x1="236.83" y1="136.68" x2="244.91" y2="136.68"/><polygon style="fill:#009147" points="238.49 138.73 238.83 138.36 237.02 136.68 238.83 135 238.49 134.64 236.29 136.68"/><polygon style="fill:#009147" points="243.25 138.73 242.91 138.36 244.71 136.68 242.91 135 243.25 134.64 245.45 136.68"/><rect x="60.07" y="1" style="fill:#e3e3f2" width="190.47" height="36.26"/><text transform="translate(107.474 13.574)" style="font-family:'Asap-Medium';font-size:8px">Board of Directors (owners)</text><path style="fill:#3a53a4" d="M123.47 26.19h-1.4c-1.96 0-3.99 1.61-3.99 3.57v1.4h9.38v-1.4c0-1.96-2.03-3.57-3.99-3.57z"/><circle transform="rotate(-13.286 122.742 23.252)" style="fill:#3a53a4" cx="122.77" cy="23.25" r="2.43"/><path style="fill:#3a53a4" d="M144.63 26.19h-1.4c-1.96 0-3.99 1.61-3.99 3.57v1.4h9.38v-1.4c0-1.96-2.03-3.57-3.99-3.57z"/><circle transform="rotate(-13.286 143.901 23.253)" style="fill:#3a53a4" cx="143.93" cy="23.25" r="2.43"/><g><path style="fill:#3a53a4" d="M165.79 26.19h-1.4c-1.96 0-3.99 1.61-3.99 3.57v1.4h9.38v-1.4c0-1.96-2.02-3.57-3.99-3.57z"/><circle transform="rotate(-13.286 165.06 23.253)" style="fill:#3a53a4" cx="165.09" cy="23.25" r="2.43"/></g><g><path style="fill:#3a53a4" d="M186.96 26.19h-1.4c-1.96 0-3.99 1.61-3.99 3.57v1.4h9.38v-1.4c0-1.96-2.03-3.57-3.99-3.57z"/><circle transform="rotate(-13.286 186.218 23.254)" style="fill:#3a53a4" cx="186.26" cy="23.25" r="2.43"/></g><g><line style="fill:none;stroke:#009147;stroke-width:.5;stroke-miterlimit:10" x1="129.49" y1="25.68" x2="137.56" y2="25.68"/><polygon style="fill:#009147" points="131.14 27.73 131.49 27.36 129.68 25.68 131.49 24 131.14 23.64 128.95 25.68"/><polygon style="fill:#009147" points="135.91 27.73 135.56 27.36 137.37 25.68 135.56 24 135.91 23.64 138.1 25.68"/></g><g><line style="fill:none;stroke:#009147;stroke-width:.5;stroke-miterlimit:10" x1="150.72" y1="25.68" x2="158.79" y2="25.68"/><polygon style="fill:#009147" points="152.38 27.73 152.72 27.36 150.91 25.68 152.72 24 152.38 23.64 150.18 25.68"/><polygon style="fill:#009147" points="157.14 27.73 156.8 27.36 158.6 25.68 156.8 24 157.14 23.64 159.34 25.68"/></g><g><line style="fill:none;stroke:#009147;stroke-width:.5;stroke-miterlimit:10" x1="171.95" y1="25.68" x2="180.02" y2="25.68"/><polygon style="fill:#009147" points="173.61 27.73 173.95 27.36 172.14 25.68 173.95 24 173.61 23.64 171.41 25.68"/><polygon style="fill:#009147" points="178.37 27.73 178.03 27.36 179.83 25.68 178.03 24 178.37 23.64 180.57 25.68"/></g><g><line style="fill:none;stroke:#009147;stroke-width:.5;stroke-miterlimit:10" x1="88.21" y1="136.68" x2="96.29" y2="136.68"/><polygon style="fill:#009147" points="89.87 138.73 90.21 138.36 88.4 136.68 90.21 135 89.87 134.64 87.67 136.68"/><polygon style="fill:#009147" points="94.63 138.73 94.29 138.36 96.1 136.68 94.29 135 94.63 134.64 96.83 136.68"/></g><g><line style="fill:none;stroke:#009147;stroke-width:.5;stroke-miterlimit:10" x1="66.98" y1="136.68" x2="75.06" y2="136.68"/><polygon style="fill:#009147" points="68.64 138.73 68.98 138.36 67.17 136.68 68.98 135 68.64 134.64 66.44 136.68"/><polygon style="fill:#009147" points="73.4 138.73 73.06 138.36 74.86 136.68 73.06 135 73.4 134.64 75.6 136.68"/></g><g><line style="fill:none;stroke:#009147;stroke-width:.5;stroke-miterlimit:10" x1="109.44" y1="136.68" x2="117.52" y2="136.68"/><polygon style="fill:#009147" points="111.1 138.73 111.44 138.36 109.64 136.68 111.44 135 111.1 134.64 108.9 136.68"/><polygon style="fill:#009147" points="115.86 138.73 115.52 138.36 117.33 136.68 115.52 135 115.86 134.64 118.06 136.68"/></g><g><line style="fill:none;stroke:#009147;stroke-width:.5;stroke-miterlimit:10" x1="130.68" y1="136.68" x2="138.75" y2="136.68"/><polygon style="fill:#009147" points="132.33 138.73 132.67 138.36 130.87 136.68 132.67 135 132.33 134.64 130.13 136.68"/><polygon style="fill:#009147" points="137.09 138.73 136.75 138.36 138.56 136.68 136.75 135 137.09 134.64 139.29 136.68"/></g><g><line style="fill:none;stroke:#009147;stroke-width:.5;stroke-miterlimit:10" x1="151.91" y1="136.68" x2="159.98" y2="136.68"/><polygon style="fill:#009147" points="153.56 138.73 153.9 138.36 152.1 136.68 153.9 135 153.56 134.64 151.36 136.68"/><polygon style="fill:#009147" points="158.32 138.73 157.98 138.36 159.79 136.68 157.98 135 158.32 134.64 160.52 136.68"/></g><g><line style="fill:none;stroke:#939598;stroke-width:.5;stroke-miterlimit:10" x1="229.98" y1="115.66" x2="229.98" y2="125.45"/><polygon style="fill:#939598" points="227.93 123.79 228.3 123.45 229.97 125.26 231.65 123.45 232.02 123.79 229.97 125.99"/></g><g><line style="fill:none;stroke:#939598;stroke-width:.5;stroke-miterlimit:10" x1="81.84" y1="115.66" x2="81.84" y2="125.45"/><polygon style="fill:#939598" points="79.79 123.79 80.16 123.45 81.84 125.26 83.51 123.45 83.88 123.79 81.84 125.99"/></g><g><line style="fill:none;stroke:#939598;stroke-width:.5;stroke-miterlimit:10" x1="103" y1="115.66" x2="103" y2="125.45"/><polygon style="fill:#939598" points="100.95 123.79 101.32 123.45 103 125.26 104.68 123.45 105.04 123.79 103 125.99"/></g><g><line style="fill:none;stroke:#939598;stroke-width:.5;stroke-miterlimit:10" x1="124.16" y1="115.66" x2="124.16" y2="125.45"/><polygon style="fill:#939598" points="122.12 123.79 122.48 123.45 124.16 125.26 125.84 123.45 126.21 123.79 124.16 125.99"/></g><g><line style="fill:none;stroke:#009147;stroke-width:.5;stroke-miterlimit:10;stroke-dasharray:1.4173,1.4173" x1="130.13" y1="125.99" x2="130.13" y2="117.2"/><polygon style="fill:#009147" points="132.18 118.86 131.81 119.2 130.13 117.39 128.46 119.2 128.09 118.86 130.13 116.66"/></g><g><line style="fill:none;stroke:#009147;stroke-width:.5;stroke-miterlimit:10;stroke-dasharray:1.4173,1.4173" x1="151.36" y1="125.99" x2="151.36" y2="117.2"/><polygon style="fill:#009147" points="153.41 118.86 153.04 119.2 151.37 117.39 149.69 119.2 149.32 118.86 151.37 116.66"/></g><g><line style="fill:none;stroke:#009147;stroke-width:.5;stroke-miterlimit:10;stroke-dasharray:1.4173,1.4173" x1="172.6" y1="125.99" x2="172.6" y2="117.2"/><polygon style="fill:#009147" points="174.64 118.86 174.27 119.2 172.6 117.39 170.92 119.2 170.55 118.86 172.6 116.66"/></g><g><line style="fill:none;stroke:#009147;stroke-width:.5;stroke-miterlimit:10;stroke-dasharray:1.4173,1.4173" x1="193.83" y1="125.99" x2="193.83" y2="117.2"/><polygon style="fill:#009147" points="195.87 118.86 195.51 119.2 193.83 117.39 192.15 119.2 191.78 118.86 193.83 116.66"/></g><g><line style="fill:none;stroke:#009147;stroke-width:.5;stroke-miterlimit:10;stroke-dasharray:1.4173,1.4173" x1="215.06" y1="125.99" x2="215.06" y2="117.2"/><polygon style="fill:#009147" points="217.1 118.86 216.74 119.2 215.06 117.39 213.38 119.2 213.01 118.86 215.06 116.66"/></g><g><line style="fill:none;stroke:#009147;stroke-width:.5;stroke-miterlimit:10;stroke-dasharray:1.4173,1.4173" x1="236.29" y1="125.99" x2="236.29" y2="117.2"/><polygon style="fill:#009147" points="238.34 118.86 237.97 119.2 236.29 117.39 234.61 119.2 234.25 118.86 236.29 116.66"/></g><g><line style="fill:none;stroke:#009147;stroke-width:.5;stroke-miterlimit:10;stroke-dasharray:1.4173,1.4173" x1="108.9" y1="125.99" x2="108.9" y2="117.2"/><polygon style="fill:#009147" points="110.95 118.86 110.58 119.2 108.9 117.39 107.22 119.2 106.86 118.86 108.9 116.66"/></g><g><line style="fill:none;stroke:#009147;stroke-width:.5;stroke-miterlimit:10;stroke-dasharray:1.4173,1.4173" x1="87.67" y1="125.99" x2="87.67" y2="117.2"/><polygon style="fill:#009147" points="89.72 118.86 89.35 119.2 87.67 117.39 85.99 119.2 85.63 118.86 87.67 116.66"/></g><g><line style="fill:none;stroke:#009147;stroke-width:.5;stroke-miterlimit:10;stroke-dasharray:1.4173,1.4173" x1="66.44" y1="125.99" x2="66.44" y2="117.2"/><polygon style="fill:#009147" points="68.48 118.86 68.12 119.2 66.44 117.39 64.76 119.2 64.4 118.86 66.44 116.66"/></g><g><line style="fill:none;stroke:#939598;stroke-width:.5;stroke-miterlimit:10" x1="145.32" y1="115.66" x2="145.32" y2="125.45"/><polygon style="fill:#939598" points="143.28 123.79 143.65 123.45 145.32 125.26 147 123.45 147.37 123.79 145.32 125.99"/></g><g><line style="fill:none;stroke:#939598;stroke-width:.5;stroke-miterlimit:10" x1="166.49" y1="115.66" x2="166.49" y2="125.45"/><polygon style="fill:#939598" points="164.44 123.79 164.81 123.45 166.49 125.26 168.17 123.45 168.53 123.79 166.49 125.99"/></g><g><line style="fill:none;stroke:#939598;stroke-width:.5;stroke-miterlimit:10" x1="187.65" y1="115.66" x2="187.65" y2="125.45"/><polygon style="fill:#939598" points="185.6 123.79 185.97 123.45 187.65 125.26 189.33 123.45 189.69 123.79 187.65 125.99"/></g><g><line style="fill:none;stroke:#939598;stroke-width:.5;stroke-miterlimit:10" x1="208.81" y1="115.66" x2="208.81" y2="125.45"/><polygon style="fill:#939598" points="206.77 123.79 207.13 123.45 208.81 125.26 210.49 123.45 210.86 123.79 208.81 125.99"/></g></svg>