<svg version="1.1" xmlns="http://www.w3.org/2000/svg" x="0" y="0" viewBox="0 0 311.81 185" style="enable-background:new 0 0 311.81 185" xml:space="preserve"><polyline style="fill:none;stroke:#ed2124;stroke-width:.5;stroke-miterlimit:10" points="218.11 34.06 221.92 37.87 218.11 41.68"/><polyline style="fill:none;stroke:#ed2124;stroke-width:.5;stroke-miterlimit:10" points="221.11 34.06 224.92 37.87 221.11 41.68"/><rect x="101.06" y="37.87" style="fill:#e3e3f2" width="113.86" height="41.29"/><rect x="101.06" y="99.8" style="fill:#fee7dc" width="113.86" height="61.93"/><text transform="translate(109.228 180.623)" style="font-family:'Asap-Medium';font-size:8px">Number of 35-hour weeks</text><text transform="translate(99.68 174.101)" style="font-family:'Asap-Regular';font-size:7px">0</text><text transform="translate(45 40.187)" style="font-family:'Asap-Regular';font-size:6px">Hourly wage = $12</text><text transform="translate(20.667 101.666)" style="font-family:'Asap-Regular';font-size:6px">Unemployment benefit = $6</text><text transform="translate(36 66.333)"><tspan x="0" y="0" style="font-family:'Asap-Regular';font-size:6px">Unemployment</tspan><tspan x="0" y="7.2" style="font-family:'Asap-Regular';font-size:6px">benefit plus the </tspan><tspan x="0" y="14.4" style="font-family:'Asap-Regular';font-size:6px">disutility of effort = $8</tspan></text><text transform="translate(134.667 88.05)"><tspan x="0" y="0" style="font-family:'Asap-Regular';font-size:6px">Disutility of effort</tspan><tspan x="0" y="7.2" style="font-family:'Asap-Regular';font-size:6px">when employed</tspan></text><text transform="translate(134.667 122.384)"><tspan x="0" y="0" style="font-family:'Asap-Regular';font-size:6px">What Maria receives</tspan><tspan x="0" y="7.2" style="font-family:'Asap-Regular';font-size:6px">in unemployment</tspan><tspan x="0" y="14.4" style="font-family:'Asap-Regular';font-size:6px">benefit during her</tspan><tspan x="0" y="21.6" style="font-family:'Asap-Regular';font-size:6px">period of unemployment</tspan></text><text transform="translate(134.667 58.1)"><tspan x="0" y="0" style="font-family:'Asap-Regular';font-size:6px">Maria’s rent</tspan><tspan x="0" y="7.2" style="font-family:'Asap-Regular';font-size:6px">when employed</tspan></text><text transform="translate(244.333 58.101)"><tspan x="0" y="0" style="font-family:'Asap-Regular';font-size:6px">Employment rent</tspan><tspan x="0" y="7.2" style="font-family:'Asap-Regular';font-size:6px">per hour</tspan></text><text transform="translate(244.333 122.384)"><tspan x="0" y="0" style="font-family:'Asap-Regular';font-size:6px">Reservation wage</tspan><tspan x="0" y="7.2" style="font-family:'Asap-Regular';font-size:6px">per hour</tspan></text><text transform="translate(122.023 7.39)" style="font-family:'Asap-Regular';font-size:6px">= what Maria gets should she not lose her job today</text><text transform="translate(209.667 174.101)"><tspan x="0" y="0" style="font-family:'Asap-Regular';font-size:6px">Expected duration of unemployment</tspan><tspan x="0" y="7.2" style="font-family:'Asap-Regular';font-size:6px">= 44 weeks (1,540 hours)</tspan></text><text transform="rotate(-90 64.453 52.12)" style="font-family:'Asap-Medium';font-size:8px">Hourly wages ($)</text><text transform="translate(90 164.42)" style="font-family:'Asap-Regular';font-size:7px">0</text><line style="fill:none;stroke:#939598;stroke-width:.5;stroke-linejoin:round;stroke-dasharray:1.4173" x1="101.06" y1="79.15" x2="214.92" y2="79.15"/><polyline style="fill:none;stroke:#ed2124;stroke-width:.5;stroke-miterlimit:10" points="224.92 37.87 214.92 37.87 214.92 99.73 101.06 99.73"/><line style="fill:none;stroke:#3a53a4;stroke-width:.5;stroke-miterlimit:10" x1="100.83" y1="37.87" x2="224.92" y2="37.87"/><polyline style="fill:none;stroke:#939598;stroke-width:.5;stroke-linecap:square;stroke-linejoin:round" points="230.08 37.87 235.08 37.87 235.08 79.15 230.08 79.15"/><polyline style="fill:none;stroke:#939598;stroke-width:.5;stroke-linecap:square;stroke-linejoin:round" points="230.08 99.73 235.08 99.73 235.08 161.73 230.08 161.73"/><polyline style="fill:none;stroke:#3a53a4;stroke-width:.5;stroke-miterlimit:10" points="119.13 34.06 122.94 37.87 119.13 41.68"/><line style="fill:none;stroke:#3a53a4;stroke-width:.5;stroke-miterlimit:10" x1="101.06" y1="5.99" x2="119.15" y2="5.99"/><polyline style="fill:none;stroke:#3a53a4;stroke-width:.5;stroke-miterlimit:10" points="106.96 2.18 110.77 5.99 106.96 9.8"/><text transform="translate(122.023 19.52)" style="font-family:'Asap-Regular';font-size:6px">= what Maria gets should she lose her job today</text><line style="fill:none;stroke:#ed2124;stroke-width:.5;stroke-miterlimit:10" x1="101.06" y1="18.12" x2="119.15" y2="18.12"/><polyline style="fill:none;stroke:#3a53a4;stroke-width:.5;stroke-miterlimit:10" points="189.13 34.06 192.94 37.87 189.13 41.68"/><polyline style="fill:none;stroke:#ed2124;stroke-width:.5;stroke-miterlimit:10" points="122.47 95.99 126.28 99.8 122.47 103.61"/><polyline style="fill:none;stroke:#ed2124;stroke-width:.5;stroke-miterlimit:10" points="125.47 95.99 129.28 99.8 125.47 103.61"/><g><polyline style="fill:none;stroke:#ed2124;stroke-width:.5;stroke-miterlimit:10" points="211.14 93 214.86 89.1 218.76 92.82"/><polyline style="fill:none;stroke:#ed2124;stroke-width:.5;stroke-miterlimit:10" points="211.07 90 214.79 86.1 218.69 89.82"/></g><g><polyline style="fill:none;stroke:#ed2124;stroke-width:.5;stroke-miterlimit:10" points="107.2 14.31 111.01 18.12 107.2 21.93"/><polyline style="fill:none;stroke:#ed2124;stroke-width:.5;stroke-miterlimit:10" points="110.2 14.31 114.01 18.12 110.2 21.93"/></g><g><line style="fill:none;stroke:#6d6e71;stroke-width:.5;stroke-linecap:square;stroke-linejoin:round" x1="100.83" y1="161.73" x2="100.83" y2="37.87"/><line style="fill:none;stroke:#6d6e71;stroke-width:.5;stroke-linecap:square;stroke-linejoin:round" x1="100.83" y1="161.73" x2="224.92" y2="161.73"/><line style="fill:none;stroke:#6d6e71;stroke-width:.5;stroke-linecap:square;stroke-linejoin:round" x1="100.83" y1="162.12" x2="100.83" y2="164.25"/><line style="fill:none;stroke:#6d6e71;stroke-width:.5;stroke-linecap:square;stroke-linejoin:round" x1="214.92" y1="162.12" x2="214.92" y2="164.25"/><g><line style="fill:none;stroke:#6d6e71;stroke-width:.5;stroke-linecap:square;stroke-linejoin:round" x1="100.43" y1="37.87" x2="98.31" y2="37.87"/><line style="fill:none;stroke:#6d6e71;stroke-width:.5;stroke-linecap:square;stroke-linejoin:round" x1="100.43" y1="161.73" x2="98.31" y2="161.73"/><line style="fill:none;stroke:#6d6e71;stroke-width:.5;stroke-linecap:square;stroke-linejoin:round" x1="100.43" y1="99.8" x2="98.31" y2="99.8"/><line style="fill:none;stroke:#6d6e71;stroke-width:.5;stroke-linecap:square;stroke-linejoin:round" x1="100.43" y1="79.15" x2="98.31" y2="79.15"/></g></g></svg>