<svg version="1.1" xmlns="http://www.w3.org/2000/svg" x="0" y="0" viewBox="0 0 311.81 154.78" style="enable-background:new 0 0 311.81 154.78" xml:space="preserve"><text transform="translate(140.034 88.518)" style="font-family:'Asap-Medium';font-size:8px">Manager</text><text transform="translate(141.503 153.785)" style="font-family:'Asap-Medium';font-size:8px">Workers</text><path style="fill:#58595b" d="M156 74.55h-1.4c-1.96 0-3.99 1.61-3.99 3.57v1.4h9.38v-1.4c0-1.96-2.02-3.57-3.99-3.57z"/><circle transform="rotate(-13.286 155.27 71.6)" style="fill:#58595b" cx="155.3" cy="71.61" r="2.43"/><line style="fill:none;stroke:#939598;stroke-width:.5;stroke-miterlimit:10" x1="155.3" y1="41.99" x2="155.3" y2="61.78"/><polygon style="fill:#939598" points="153.26 60.13 153.63 59.79 155.3 61.59 156.98 59.79 157.35 60.13 155.3 62.33"/><path style="fill:#ed2124" d="M61.37 137.19h-1.4c-1.96 0-3.99 1.61-3.99 3.57v1.4h9.38v-1.4c0-1.96-2.02-3.57-3.99-3.57z"/><circle transform="rotate(-13.286 60.657 134.228)" style="fill:#ed2124" cx="60.67" cy="134.25" r="2.43"/><path style="fill:#ed2124" d="M82.53 137.19h-1.4c-1.96 0-3.99 1.61-3.99 3.57v1.4h9.38v-1.4c.01-1.96-2.02-3.57-3.99-3.57z"/><circle transform="rotate(-13.286 81.815 134.229)" style="fill:#ed2124" cx="81.84" cy="134.25" r="2.43"/><path style="fill:#ed2124" d="M103.7 137.19h-1.4c-1.96 0-3.99 1.61-3.99 3.57v1.4h9.38v-1.4c0-1.96-2.03-3.57-3.99-3.57z"/><circle transform="rotate(-13.286 102.974 134.229)" style="fill:#ed2124" cx="103" cy="134.25" r="2.43"/><path style="fill:#ed2124" d="M124.86 137.19h-1.4c-1.96 0-3.99 1.61-3.99 3.57v1.4h9.38v-1.4c0-1.96-2.03-3.57-3.99-3.57z"/><circle transform="rotate(-13.286 124.132 134.23)" style="fill:#ed2124" cx="124.16" cy="134.25" r="2.43"/><path style="fill:#ed2124" d="M146.02 137.19h-1.4c-1.96 0-3.99 1.61-3.99 3.57v1.4h9.38v-1.4c0-1.96-2.02-3.57-3.99-3.57z"/><circle transform="rotate(-13.286 145.29 134.23)" style="fill:#ed2124" cx="145.32" cy="134.25" r="2.43"/><path style="fill:#ed2124" d="M167.19 137.19h-1.4c-1.96 0-3.99 1.61-3.99 3.57v1.4h9.38v-1.4c0-1.96-2.03-3.57-3.99-3.57z"/><circle transform="rotate(-13.286 166.45 134.23)" style="fill:#ed2124" cx="166.49" cy="134.25" r="2.43"/><path style="fill:#ed2124" d="M188.35 137.19h-1.4c-1.96 0-3.99 1.61-3.99 3.57v1.4h9.38v-1.4c0-1.96-2.03-3.57-3.99-3.57z"/><circle transform="rotate(-13.286 187.608 134.231)" style="fill:#ed2124" cx="187.65" cy="134.25" r="2.43"/><g><path style="fill:#ed2124" d="M209.51 137.19h-1.4c-1.96 0-3.99 1.61-3.99 3.57v1.4h9.38v-1.4c0-1.96-2.02-3.57-3.99-3.57z"/><circle transform="rotate(-13.286 208.766 134.232)" style="fill:#ed2124" cx="208.81" cy="134.25" r="2.43"/></g><g><path style="fill:#ed2124" d="M230.67 137.19h-1.4c-1.96 0-3.99 1.61-3.99 3.57v1.4h9.38v-1.4c0-1.96-2.02-3.57-3.99-3.57z"/><circle transform="rotate(-13.286 229.925 134.232)" style="fill:#ed2124" cx="229.98" cy="134.25" r="2.43"/></g><g><path style="fill:#ed2124" d="M251.84 137.19h-1.4c-1.96 0-3.99 1.61-3.99 3.57v1.4h9.38v-1.4c0-1.96-2.03-3.57-3.99-3.57z"/><circle transform="rotate(-13.286 251.083 134.233)" style="fill:#ed2124" cx="251.14" cy="134.25" r="2.43"/></g><rect x="60.07" y="1" style="fill:#e3e3f2" width="190.47" height="36.26"/><text transform="translate(107.474 13.574)" style="font-family:'Asap-Medium';font-size:8px">Board of Directors (owners)</text><g><path style="fill:#3a53a4" d="M123.47 26.19h-1.4c-1.96 0-3.99 1.61-3.99 3.57v1.4h9.38v-1.4c0-1.96-2.03-3.57-3.99-3.57z"/><circle transform="rotate(-13.286 122.742 23.252)" style="fill:#3a53a4" cx="122.77" cy="23.25" r="2.43"/></g><g><path style="fill:#3a53a4" d="M144.63 26.19h-1.4c-1.96 0-3.99 1.61-3.99 3.57v1.4h9.38v-1.4c0-1.96-2.03-3.57-3.99-3.57z"/><circle transform="rotate(-13.286 143.901 23.253)" style="fill:#3a53a4" cx="143.93" cy="23.25" r="2.43"/></g><g><path style="fill:#3a53a4" d="M165.79 26.19h-1.4c-1.96 0-3.99 1.61-3.99 3.57v1.4h9.38v-1.4c0-1.96-2.02-3.57-3.99-3.57z"/><circle transform="rotate(-13.286 165.06 23.253)" style="fill:#3a53a4" cx="165.09" cy="23.25" r="2.43"/></g><g><path style="fill:#3a53a4" d="M186.96 26.19h-1.4c-1.96 0-3.99 1.61-3.99 3.57v1.4h9.38v-1.4c0-1.96-2.03-3.57-3.99-3.57z"/><circle transform="rotate(-13.286 186.218 23.254)" style="fill:#3a53a4" cx="186.26" cy="23.25" r="2.43"/></g></svg>