<svg version="1.1" xmlns="http://www.w3.org/2000/svg" x="0" y="0" viewBox="0 0 311.81 181.42" style="enable-background:new 0 0 311.81 181.42" xml:space="preserve"><text transform="translate(59.68 144.68)" style="font-family:'Asap-Regular';font-size:7px">0</text><text transform="translate(51 135)" style="font-family:'Asap-Regular';font-size:7px">0</text><text transform="translate(51 11)" style="font-family:'Asap-Regular';font-size:7px">1</text><text transform="translate(227.339 19.666)"><tspan x="0" y="0" style="fill:#ed2124;font-family:'Asap-Regular';font-size:6px">Status quo best</tspan><tspan x="0" y="7.2" style="fill:#ed2124;font-family:'Asap-Regular';font-size:6px">response curve</tspan></text><path style="fill:none;stroke:#ed2124;stroke-width:.5378;stroke-linecap:square;stroke-linejoin:round" d="M108.37 132.07s0-96.91 110.97-112.41"/><text transform="rotate(-90 62.819 34.486)"><tspan x="0" y="0" style="font-family:'Asap-Medium';font-size:8px">Effort per hour, </tspan><tspan x="55.41" y="0" style="font-family:'Asap-MediumItalic';font-size:8px">e</tspan></text><text transform="translate(111.267 174.603)"><tspan x="0" y="0" style="font-family:'Asap-Medium';font-size:8px">Hourly wage, </tspan><tspan x="48.46" y="0" style="font-family:'Asap-MediumItalic';font-size:8px">w</tspan><tspan x="54.44" y="0" style="font-family:'Asap-Medium';font-size:8px"> ($)</tspan></text><text transform="translate(98.767 141.18)"><tspan x="0" y="0" style="font-family:'Asap-Regular';font-size:5px">Status quo</tspan><tspan x="-.89" y="5" style="font-family:'Asap-Regular';font-size:5px">reservation</tspan><tspan x="5.63" y="10" style="font-family:'Asap-Regular';font-size:5px">wage</tspan></text><g><line style="fill:none;stroke:#6d6e71;stroke-width:.5;stroke-linecap:square;stroke-linejoin:round" x1="61.83" y1="132.3" x2="61.83" y2="8.45"/><line style="fill:none;stroke:#6d6e71;stroke-width:.5;stroke-linecap:square;stroke-linejoin:round" x1="61.83" y1="132.3" x2="227.34" y2="132.3"/><line style="fill:none;stroke:#6d6e71;stroke-width:.5;stroke-linecap:square;stroke-linejoin:round" x1="61.43" y1="8.45" x2="59.31" y2="8.45"/><line style="fill:none;stroke:#6d6e71;stroke-width:.5;stroke-linecap:square;stroke-linejoin:round" x1="61.43" y1="132.3" x2="59.31" y2="132.3"/><g><line style="fill:none;stroke:#6d6e71;stroke-width:.5;stroke-linecap:square;stroke-linejoin:round" x1="61.83" y1="132.7" x2="61.83" y2="134.83"/><line style="fill:none;stroke:#6d6e71;stroke-width:.5;stroke-linecap:square;stroke-linejoin:round" x1="108.37" y1="132.7" x2="108.37" y2="134.83"/></g></g></svg>