<svg version="1.1" xmlns="http://www.w3.org/2000/svg" x="0" y="0" viewBox="0 0 311.81 185" style="enable-background:new 0 0 311.81 185" xml:space="preserve"><text transform="translate(90.228 180.623)" style="font-family:'Asap-Medium';font-size:8px">Number of 35-hour weeks</text><text transform="translate(80.68 174.101)" style="font-family:'Asap-Regular';font-size:7px">0</text><text transform="translate(26 40.187)" style="font-family:'Asap-Regular';font-size:6px">Hourly wage = $12</text><text transform="translate(103.023 7.39)" style="font-family:'Asap-Regular';font-size:6px">= what Maria gets should she not lose her job today</text><text transform="rotate(-90 93.786 22.786)" style="font-family:'Asap-Medium';font-size:8px">Hourly wages ($)</text><text transform="translate(71 164.42)" style="font-family:'Asap-Regular';font-size:7px">0</text><line style="fill:none;stroke:#3a53a4;stroke-width:.5;stroke-miterlimit:10" x1="81.83" y1="37.87" x2="205.92" y2="37.87"/><polyline style="fill:none;stroke:#3a53a4;stroke-width:.5;stroke-miterlimit:10" points="100.13 34.06 103.94 37.87 100.13 41.68"/><line style="fill:none;stroke:#3a53a4;stroke-width:.5;stroke-miterlimit:10" x1="82.06" y1="5.99" x2="100.15" y2="5.99"/><polyline style="fill:none;stroke:#3a53a4;stroke-width:.5;stroke-miterlimit:10" points="87.96 2.18 91.77 5.99 87.96 9.8"/><polyline style="fill:none;stroke:#3a53a4;stroke-width:.5;stroke-miterlimit:10" points="170.13 34.06 173.94 37.87 170.13 41.68"/><g><line style="fill:none;stroke:#6d6e71;stroke-width:.5;stroke-linecap:square;stroke-linejoin:round" x1="81.43" y1="37.87" x2="79.31" y2="37.87"/><line style="fill:none;stroke:#6d6e71;stroke-width:.5;stroke-linecap:square;stroke-linejoin:round" x1="81.43" y1="161.73" x2="79.31" y2="161.73"/><line style="fill:none;stroke:#6d6e71;stroke-width:.5;stroke-linecap:square;stroke-linejoin:round" x1="81.83" y1="161.73" x2="81.83" y2="37.87"/><line style="fill:none;stroke:#6d6e71;stroke-width:.5;stroke-linecap:square;stroke-linejoin:round" x1="81.83" y1="161.65" x2="81.83" y2="164.09"/><line style="fill:none;stroke:#6d6e71;stroke-width:.5;stroke-linecap:square;stroke-linejoin:round" x1="81.83" y1="161.73" x2="195.92" y2="161.73"/></g></svg>