<svg version="1.1" xmlns="http://www.w3.org/2000/svg" x="0" y="0" viewBox="0 0 311.81 164.98" style="enable-background:new 0 0 311.81 164.98" xml:space="preserve"><line style="fill:none;stroke:#939598;stroke-width:.5;stroke-linecap:square;stroke-linejoin:round;stroke-dasharray:1.4173" x1="66.83" y1="4.87" x2="190.92" y2="4.87"/><path style="fill:none;stroke:#ed2124;stroke-width:.5;stroke-miterlimit:10" d="M87.09 128.5S85.16 37.39 190.91 13.72"/><rect x="83.84" y="135.22" style="fill:#fff" width="6.5" height="6.5"/><line style="fill:none;stroke:#6d6e71;stroke-width:.5;stroke-linecap:square;stroke-linejoin:round" x1="66.83" y1="4.87" x2="64.71" y2="4.87"/><line style="fill:none;stroke:#6d6e71;stroke-width:.5;stroke-linecap:square;stroke-linejoin:round" x1="66.83" y1="128.73" x2="64.71" y2="128.73"/><line style="fill:none;stroke:#6d6e71;stroke-width:.5;stroke-linecap:square;stroke-linejoin:round" x1="66.83" y1="128.73" x2="66.83" y2="4.87"/><line style="fill:none;stroke:#6d6e71;stroke-width:.5;stroke-linecap:square;stroke-linejoin:round" x1="66.83" y1="128.73" x2="66.83" y2="130.85"/><line style="fill:none;stroke:#6d6e71;stroke-width:.5378;stroke-linecap:square;stroke-linejoin:round" x1="66.83" y1="128.73" x2="190.92" y2="128.73"/><text transform="translate(114.357 154.102)" style="font-family:'Asap-Medium';font-size:8px">Hourly wage ($)</text><text transform="translate(64.68 141.102)" style="font-family:'Asap-Regular';font-size:7px">0</text><text transform="translate(84.93 141.102)" style="font-family:'Asap-Regular';font-size:7px">6</text><text transform="rotate(-90 67.53 26.196)" style="font-family:'Asap-Medium';font-size:8px">Effort per hour</text><text transform="translate(56 131.421)" style="font-family:'Asap-Regular';font-size:7px">0</text><text transform="translate(57 7.421)" style="font-family:'Asap-Regular';font-size:7px">1</text><line style="fill:none;stroke:#6d6e71;stroke-width:.5;stroke-linecap:square;stroke-linejoin:round" x1="87.09" y1="128.73" x2="87.09" y2="130.85"/><text transform="translate(71.405 153.102)"><tspan x="0" y="0" style="font-family:'Asap-Regular';font-size:6px">Reservation</tspan><tspan x="8.56" y="7.2" style="font-family:'Asap-Regular';font-size:6px">wage</tspan></text><text transform="translate(193.414 6.87)" style="font-family:'Asap-Regular';font-size:6px">Maximum possible effort</text><text transform="translate(193.672 16.3)"><tspan x="0" y="0" style="fill:#ed2124;font-family:'Asap-Regular';font-size:6px">Worker’s best response curve</tspan><tspan x="0" y="7.2" style="fill:#ed2124;font-family:'Asap-Regular';font-size:6px">when expected unemployment</tspan><tspan x="0" y="14.4" style="fill:#ed2124;font-family:'Asap-Regular';font-size:6px">duration is 44 weeks</tspan></text><line style="fill:none;stroke:#939598;stroke-width:.25;stroke-miterlimit:10" x1="87.09" y1="142.59" x2="87.09" y2="146.92"/></svg>