<svg version="1.1" xmlns="http://www.w3.org/2000/svg" x="0" y="0" viewBox="0 0 311.81 158.62" style="enable-background:new 0 0 311.81 158.62" xml:space="preserve"><text transform="translate(81.68 141.102)" style="font-family:'Asap-Regular';font-size:7px">0</text><text transform="translate(142.43 141.102)" style="font-family:'Asap-Regular';font-size:7px">10</text><text transform="translate(73 131.421)" style="font-family:'Asap-Regular';font-size:7px">0</text><text transform="translate(73 7.421)" style="font-family:'Asap-Regular';font-size:7px">1</text><text transform="translate(63.667 75.42)" style="font-family:'Asap-Regular';font-size:7px">0.45</text><text transform="rotate(-90 72.03 21.696)"><tspan x="0" y="0" style="font-family:'Asap-Medium';font-size:8px">Effort per hour, </tspan><tspan x="55.41" y="0" style="font-family:'Asap-MediumItalic';font-size:8px">e</tspan></text><text transform="translate(134.005 153.123)"><tspan x="0" y="0" style="font-family:'Asap-Medium';font-size:8px">Hourly wage, </tspan><tspan x="48.46" y="0" style="font-family:'Asap-MediumItalic';font-size:8px">w</tspan><tspan x="54.44" y="0" style="font-family:'Asap-Medium';font-size:8px"> ($)</tspan></text><polyline style="fill:none;stroke:#939598;stroke-width:.5;stroke-linejoin:round;stroke-dasharray:1.4173" points="86.67 72.75 146.19 72.75 146.19 126.5"/><text transform="translate(114.541 112.125)"><tspan x="0" y="0" style="font-family:'Asap-Regular';font-size:6px">S</tspan><tspan x="3" y="0" style="font-family:'Asap-Regular';font-size:6px">l</tspan><tspan x="4.58" y="0" style="font-family:'Asap-Regular';font-size:6px">ope</tspan><tspan x="14.67" y="0" style="font-family:'Asap-Italic';font-size:6px"> = e</tspan><tspan x="24.14" y="0" style="font-family:'Asap-Regular';font-size:6px">/</tspan><tspan x="26.68" y="0" style="font-family:'Asap-Italic';font-size:6px">w</tspan><tspan x="31.16" y="0" style="font-family:'Asap-Regular';font-size:6px"> = 0.045</tspan></text><path style="fill:none;stroke:#27aae1;stroke-width:.5;stroke-miterlimit:10" d="M104.28 128.73s1.71-7.04-4.2-14.28"/><line style="fill:none;stroke:#5b73b8;stroke-width:.5378;stroke-linecap:square;stroke-linejoin:round" x1="91.4" y1="121.99" x2="216" y2="11.09"/><g><line style="fill:none;stroke:#6d6e71;stroke-width:.5378;stroke-linecap:square;stroke-linejoin:round" x1="83.83" y1="128.73" x2="83.83" y2="4.87"/><line style="fill:none;stroke:#6d6e71;stroke-width:.4641;stroke-linecap:square;stroke-linejoin:round" x1="83.83" y1="128.73" x2="260.84" y2="128.73"/><line style="fill:none;stroke:#6d6e71;stroke-width:.5378;stroke-linecap:square;stroke-linejoin:round" x1="83.43" y1="4.87" x2="81.31" y2="4.87"/><line style="fill:none;stroke:#6d6e71;stroke-width:.5378;stroke-linecap:square;stroke-linejoin:round" x1="83.43" y1="128.73" x2="81.31" y2="128.73"/><line style="fill:none;stroke:#6d6e71;stroke-width:.5378;stroke-linecap:square;stroke-linejoin:round" x1="83.43" y1="72.75" x2="81.31" y2="72.75"/><g><line style="fill:none;stroke:#6d6e71;stroke-width:.5378;stroke-linecap:square;stroke-linejoin:round" x1="83.83" y1="129.12" x2="83.83" y2="131.25"/><line style="fill:none;stroke:#6d6e71;stroke-width:.5378;stroke-linecap:square;stroke-linejoin:round" x1="146.19" y1="129.12" x2="146.19" y2="131.25"/></g></g></svg>