<svg version="1.1" xmlns="http://www.w3.org/2000/svg" x="0" y="0" viewBox="0 0 311.81 176.17" style="enable-background:new 0 0 311.81 176.17" xml:space="preserve"><polyline style="fill:none;stroke:#939598;stroke-width:.5;stroke-linecap:square;stroke-linejoin:round;stroke-dasharray:1.4173" points="72.83 77.94 113.36 77.94 113.35 139.87"/><line style="fill:none;stroke:#3a53a4;stroke-width:.5;stroke-miterlimit:10" x1="79" y1="133.83" x2="146.34" y2="22.5"/><path style="fill:none;stroke:#ed2124;stroke-width:.5;stroke-miterlimit:10" d="M93.09 139.64S91.16 48.53 196.91 24.86"/><line style="fill:none;stroke:#939598;stroke-width:.25;stroke-linecap:square;stroke-linejoin:round" x1="93.09" y1="143.56" x2="93.09" y2="158.86"/><line style="fill:none;stroke:#6d6e71;stroke-width:.5;stroke-linecap:square;stroke-linejoin:round" x1="72.83" y1="16.01" x2="70.71" y2="16.01"/><line style="fill:none;stroke:#6d6e71;stroke-width:.5;stroke-linecap:square;stroke-linejoin:round" x1="72.83" y1="139.87" x2="70.71" y2="139.87"/><line style="fill:none;stroke:#6d6e71;stroke-width:.5;stroke-linecap:square;stroke-linejoin:round" x1="72.83" y1="139.87" x2="72.83" y2="16.01"/><line style="fill:none;stroke:#6d6e71;stroke-width:.6124;stroke-linecap:square;stroke-linejoin:round" x1="72.83" y1="139.87" x2="72.83" y2="141.99"/><line style="fill:none;stroke:#6d6e71;stroke-width:.5378;stroke-linecap:square;stroke-linejoin:round" x1="72.83" y1="139.87" x2="196.92" y2="139.87"/><text transform="translate(70.68 152.244)" style="font-family:'Asap-Regular';font-size:7px">0</text><text transform="translate(112.18 152.244)" style="font-family:'Asap-Regular';font-size:7px">12</text><text transform="translate(62 142.563)" style="font-family:'Asap-Regular';font-size:7px">0</text><text transform="translate(62 18.563)" style="font-family:'Asap-Regular';font-size:7px">1</text><line style="fill:none;stroke:#6d6e71;stroke-width:.5;stroke-linecap:square;stroke-linejoin:round" x1="72.83" y1="77.94" x2="70.71" y2="77.94"/><text transform="translate(56.667 79.563)" style="font-family:'Asap-Regular';font-size:7px">0.5</text><line style="fill:none;stroke:#6d6e71;stroke-width:.6124;stroke-linecap:square;stroke-linejoin:round" x1="113.35" y1="139.87" x2="113.35" y2="141.99"/><line style="fill:none;stroke:#6d6e71;stroke-width:.6124;stroke-linecap:square;stroke-linejoin:round" x1="93.09" y1="139.87" x2="93.09" y2="141.99"/><text transform="translate(77.405 164.244)"><tspan x="0" y="0" style="font-family:'Asap-Regular';font-size:6px">Reservation</tspan><tspan x="8.56" y="7.2" style="font-family:'Asap-Regular';font-size:6px">wage</tspan></text><text transform="translate(128.687 79.357)" style="font-family:'Asap-Regular';font-size:6px">MRS = MRT</text><text transform="translate(198.672 26.443)" style="fill:#ed2124;font-family:'Asap-Regular';font-size:6px">Worker’s best response curve</text><text transform="translate(109.091 75.063)" style="font-family:'Asap-Regular';font-size:6px">A</text><circle cx="113.36" cy="77.94" r="1.13"/><circle cx="94.23" cy="128.31" r="1.13"/><text transform="translate(87.86 127.833)" style="font-family:'Asap-Regular';font-size:6px">C</text><line style="fill:none;stroke:#939598;stroke-width:.5;stroke-linecap:square;stroke-linejoin:round" x1="117.38" y1="77.94" x2="127.59" y2="77.94"/><polygon style="fill:#939598" points="119.04 79.98 119.38 79.62 117.57 77.94 119.38 76.26 119.04 75.9 116.84 77.94"/><text transform="rotate(-90 72.1 32.767)"><tspan x="0" y="0" style="font-family:'Asap-Medium';font-size:8px">Effort per hour, </tspan><tspan x="55.41" y="0" style="font-family:'Asap-MediumItalic';font-size:8px">e</tspan></text><text transform="translate(123.357 169.765)"><tspan x="0" y="0" style="font-family:'Asap-Medium';font-size:8px">Hourly wage, </tspan><tspan x="48.46" y="0" style="font-family:'Asap-MediumItalic';font-size:8px">w</tspan><tspan x="54.44" y="0" style="font-family:'Asap-Medium';font-size:8px"> ($)</tspan></text><text transform="translate(147.847 16.01)"><tspan x="0" y="0" style="font-family:'Asap-Regular';font-size:6px">Minimum</tspan><tspan x="0" y="7.2" style="font-family:'Asap-Regular';font-size:6px">feasible cost</tspan></text></svg>