<svg version="1.1" xmlns="http://www.w3.org/2000/svg" x="0" y="0" viewBox="0 0 311.81 158.62" style="enable-background:new 0 0 311.81 158.62" xml:space="preserve"><line style="fill:none;stroke:#939598;stroke-width:.5;stroke-linejoin:round;stroke-dasharray:1.4173" x1="86.67" y1="72.75" x2="146.19" y2="72.75"/><polyline style="fill:none;stroke:#939598;stroke-width:.5;stroke-linejoin:round;stroke-dasharray:1.4173" points="208.56 127.05 208.56 17.25 86.67 17.25"/><polyline style="fill:none;stroke:#939598;stroke-width:.5;stroke-linejoin:round;stroke-dasharray:1.4173" points="86.67 54.41 167.72 54.41 167.72 127.05"/><polyline style="fill:none;stroke:#939598;stroke-width:.5;stroke-linejoin:round;stroke-dasharray:1.4173" points="146.19 127.05 146.19 42.03 86.67 42.03"/><line style="fill:none;stroke:#5b73b8;stroke-width:.5378;stroke-linecap:square;stroke-linejoin:round" x1="91.4" y1="121.99" x2="216" y2="11.09"/><line style="fill:none;stroke:#273a71;stroke-width:.5378;stroke-linecap:square;stroke-linejoin:round" x1="89.68" y1="120.6" x2="171.09" y2="7.42"/><text transform="translate(81.68 141.102)" style="font-family:'Asap-Regular';font-size:7px">0</text><text transform="translate(142.43 141.102)" style="font-family:'Asap-Regular';font-size:7px">10</text><text transform="translate(164.18 141.102)" style="font-family:'Asap-Regular';font-size:7px">13</text><text transform="translate(204.853 141.102)" style="font-family:'Asap-Regular';font-size:7px">20</text><text transform="translate(73 131.421)" style="font-family:'Asap-Regular';font-size:7px">0</text><text transform="translate(73 7.421)" style="font-family:'Asap-Regular';font-size:7px">1</text><text transform="translate(67.667 19.42)" style="font-family:'Asap-Regular';font-size:7px">0.9</text><text transform="translate(63.667 75.42)" style="font-family:'Asap-Regular';font-size:7px">0.45</text><text transform="translate(94.176 63.051)" style="font-family:'Asap-Regular';font-size:6px">Slope = MRS</text><text transform="translate(108.224 11.088)" style="fill:#273a71;font-family:'Asap-Regular';font-size:6px">Lower cost of effort</text><text transform="translate(213.338 23.755)"><tspan x="0" y="0" style="fill:#5b73b8;font-family:'Asap-Regular';font-size:6px">Medium cost</tspan><tspan x="0" y="7.2" style="fill:#5b73b8;font-family:'Asap-Regular';font-size:6px">of effort</tspan></text><text transform="translate(213.338 70.088)"><tspan x="0" y="0" style="fill:#a1b0da;font-family:'Asap-Regular';font-size:6px">Higher cost</tspan><tspan x="0" y="7.2" style="fill:#a1b0da;font-family:'Asap-Regular';font-size:6px">of effort</tspan></text><circle cx="167.72" cy="54.41" r="1.13"/><text transform="translate(162.342 51.245)" style="font-family:'Asap-Regular';font-size:6px">A</text><text transform="translate(142.226 38.421)" style="font-family:'Asap-Regular';font-size:6px">B</text><text transform="translate(67.667 44.42)" style="font-family:'Asap-Regular';font-size:7px">0.7</text><text transform="translate(67.667 56.42)" style="font-family:'Asap-Regular';font-size:7px">0.6</text><circle cx="146.19" cy="42.03" r="1.13"/><line style="fill:none;stroke:#a1b0da;stroke-width:.5378;stroke-linecap:square;stroke-linejoin:round" x1="92.53" y1="124.07" x2="235" y2="47.75"/><line style="fill:none;stroke:#58595b;stroke-width:.5;stroke-miterlimit:10" x1="110.59" y1="67.25" x2="110.59" y2="100.88"/><polygon style="fill:#58595b" points="108.54 99.22 108.91 98.88 110.59 100.69 112.27 98.88 112.63 99.22 110.59 101.42"/><text transform="rotate(-90 72.03 21.696)"><tspan x="0" y="0" style="font-family:'Asap-Medium';font-size:8px">Effort per hour, </tspan><tspan x="55.41" y="0" style="font-family:'Asap-MediumItalic';font-size:8px">e</tspan></text><text transform="translate(134.005 153.123)"><tspan x="0" y="0" style="font-family:'Asap-Medium';font-size:8px">Hourly wage, </tspan><tspan x="48.46" y="0" style="font-family:'Asap-MediumItalic';font-size:8px">w</tspan><tspan x="54.44" y="0" style="font-family:'Asap-Medium';font-size:8px"> ($)</tspan></text><g><line style="fill:none;stroke:#6d6e71;stroke-width:.5378;stroke-linecap:square;stroke-linejoin:round" x1="83.83" y1="128.73" x2="83.83" y2="4.87"/><line style="fill:none;stroke:#6d6e71;stroke-width:.4641;stroke-linecap:square;stroke-linejoin:round" x1="83.83" y1="128.73" x2="260.84" y2="128.73"/><line style="fill:none;stroke:#6d6e71;stroke-width:.5378;stroke-linecap:square;stroke-linejoin:round" x1="83.43" y1="4.87" x2="81.31" y2="4.87"/><line style="fill:none;stroke:#6d6e71;stroke-width:.5378;stroke-linecap:square;stroke-linejoin:round" x1="83.43" y1="128.73" x2="81.31" y2="128.73"/><line style="fill:none;stroke:#6d6e71;stroke-width:.5378;stroke-linecap:square;stroke-linejoin:round" x1="83.43" y1="72.75" x2="81.31" y2="72.75"/><line style="fill:none;stroke:#6d6e71;stroke-width:.5378;stroke-linecap:square;stroke-linejoin:round" x1="83.43" y1="17.25" x2="81.31" y2="17.25"/><line style="fill:none;stroke:#6d6e71;stroke-width:.5378;stroke-linecap:square;stroke-linejoin:round" x1="83.43" y1="42.03" x2="81.31" y2="42.03"/><line style="fill:none;stroke:#6d6e71;stroke-width:.5378;stroke-linecap:square;stroke-linejoin:round" x1="83.43" y1="54.41" x2="81.31" y2="54.41"/><g><line style="fill:none;stroke:#6d6e71;stroke-width:.5378;stroke-linecap:square;stroke-linejoin:round" x1="83.83" y1="129.12" x2="83.83" y2="131.25"/><line style="fill:none;stroke:#6d6e71;stroke-width:.5378;stroke-linecap:square;stroke-linejoin:round" x1="208.56" y1="129.12" x2="208.56" y2="131.25"/><line style="fill:none;stroke:#6d6e71;stroke-width:.5378;stroke-linecap:square;stroke-linejoin:round" x1="146.19" y1="129.12" x2="146.19" y2="131.25"/><line style="fill:none;stroke:#6d6e71;stroke-width:.5378;stroke-linecap:square;stroke-linejoin:round" x1="167.72" y1="129.12" x2="167.72" y2="131.25"/></g></g></svg>