<svg version="1.1" xmlns="http://www.w3.org/2000/svg" x="0" y="0" viewBox="0 0 311.81 185" style="enable-background:new 0 0 311.81 185" xml:space="preserve"><line style="fill:none;stroke:#6d6e71;stroke-width:.5;stroke-linecap:square;stroke-linejoin:round" x1="81.83" y1="161.73" x2="195.92" y2="161.73"/><text transform="translate(90.228 180.623)" style="font-family:'Asap-Medium';font-size:8px">Number of 35-hour weeks</text><text transform="translate(80.68 174.101)" style="font-family:'Asap-Regular';font-size:7px">0</text><text transform="translate(26 40.187)" style="font-family:'Asap-Regular';font-size:6px">Hourly wage = $12</text><text transform="translate(28 129.187)"><tspan x="0" y="0" style="font-family:'Asap-Regular';font-size:6px">Disutility of an</tspan><tspan x="0" y="7.2" style="font-family:'Asap-Regular';font-size:6px">hour of effort = $2</tspan></text><text transform="translate(115.667 147.187)"><tspan x="0" y="0" style="font-family:'Asap-Regular';font-size:6px">Disutility of effort</tspan><tspan x="0" y="7.2" style="font-family:'Asap-Regular';font-size:6px">when employed</tspan></text><text transform="translate(225.333 86.1)"><tspan x="0" y="0" style="font-family:'Asap-Regular';font-size:6px">Employment rent</tspan><tspan x="0" y="7.2" style="font-family:'Asap-Regular';font-size:6px">per hour</tspan></text><text transform="translate(103.023 7.39)" style="font-family:'Asap-Regular';font-size:6px">= what Maria gets should she not lose her job today</text><text transform="rotate(-90 93.786 22.786)" style="font-family:'Asap-Medium';font-size:8px">Hourly wages ($)</text><text transform="translate(71 164.42)" style="font-family:'Asap-Regular';font-size:7px">0</text><line style="fill:none;stroke:#ed2124;stroke-width:.5;stroke-miterlimit:10" x1="195.92" y1="161.73" x2="82.06" y2="161.73"/><line style="fill:none;stroke:#3a53a4;stroke-width:.5;stroke-miterlimit:10" x1="81.83" y1="37.87" x2="205.92" y2="37.87"/><polyline style="fill:none;stroke:#3a53a4;stroke-width:.5;stroke-miterlimit:10" points="100.13 34.06 103.94 37.87 100.13 41.68"/><line style="fill:none;stroke:#3a53a4;stroke-width:.5;stroke-miterlimit:10" x1="82.06" y1="5.99" x2="100.15" y2="5.99"/><polyline style="fill:none;stroke:#3a53a4;stroke-width:.5;stroke-miterlimit:10" points="87.96 2.18 91.77 5.99 87.96 9.8"/><text transform="translate(103.023 19.52)" style="font-family:'Asap-Regular';font-size:6px">= what Maria gets should she lose her job today</text><line style="fill:none;stroke:#ed2124;stroke-width:.5;stroke-miterlimit:10" x1="82.06" y1="18.12" x2="100.15" y2="18.12"/><polyline style="fill:none;stroke:#3a53a4;stroke-width:.5;stroke-miterlimit:10" points="170.13 34.06 173.94 37.87 170.13 41.68"/><polyline style="fill:none;stroke:#ed2124;stroke-width:.5;stroke-miterlimit:10" points="135.47 157.69 139.28 161.5 135.47 165.31"/><polyline style="fill:none;stroke:#ed2124;stroke-width:.5;stroke-miterlimit:10" points="138.47 157.69 142.28 161.5 138.47 165.31"/><polyline style="fill:none;stroke:#ed2124;stroke-width:.5;stroke-miterlimit:10" points="88.2 14.31 92.01 18.12 88.2 21.93"/><polyline style="fill:none;stroke:#ed2124;stroke-width:.5;stroke-miterlimit:10" points="91.2 14.31 95.01 18.12 91.2 21.93"/><line style="fill:none;stroke:#939598;stroke-width:.5;stroke-linejoin:round;stroke-dasharray:1.4173" x1="82.06" y1="134.33" x2="195.92" y2="134.33"/><polyline style="fill:none;stroke:#939598;stroke-width:.25;stroke-linecap:square;stroke-linejoin:round" points="211.08 37.87 216.08 37.87 216.08 134.33 211.08 134.33"/><g><line style="fill:none;stroke:#6d6e71;stroke-width:.5;stroke-linecap:square;stroke-linejoin:round" x1="81.43" y1="37.87" x2="79.31" y2="37.87"/><line style="fill:none;stroke:#6d6e71;stroke-width:.5;stroke-linecap:square;stroke-linejoin:round" x1="81.43" y1="134.33" x2="79.31" y2="134.33"/><line style="fill:none;stroke:#6d6e71;stroke-width:.5;stroke-linecap:square;stroke-linejoin:round" x1="81.43" y1="161.73" x2="79.31" y2="161.73"/><line style="fill:none;stroke:#6d6e71;stroke-width:.5;stroke-linecap:square;stroke-linejoin:round" x1="81.83" y1="161.73" x2="81.83" y2="37.87"/><line style="fill:none;stroke:#6d6e71;stroke-width:.5;stroke-linecap:square;stroke-linejoin:round" x1="81.83" y1="161.65" x2="81.83" y2="164.09"/></g></svg>