<svg version="1.1" xmlns="http://www.w3.org/2000/svg" x="0" y="0" viewBox="0 0 311.81 176.17" style="enable-background:new 0 0 311.81 176.17" xml:space="preserve"><path style="fill:none;stroke:#ed2124;stroke-width:.5;stroke-miterlimit:10" d="M93.09 139.64S91.16 48.53 196.91 24.86"/><line style="fill:none;stroke:#939598;stroke-width:.25;stroke-linecap:square;stroke-linejoin:round" x1="93.09" y1="143.56" x2="93.09" y2="158.86"/><line style="fill:none;stroke:#6d6e71;stroke-width:.5;stroke-linecap:square;stroke-linejoin:round" x1="72.83" y1="16.01" x2="70.71" y2="16.01"/><line style="fill:none;stroke:#6d6e71;stroke-width:.5;stroke-linecap:square;stroke-linejoin:round" x1="72.83" y1="139.87" x2="70.71" y2="139.87"/><line style="fill:none;stroke:#6d6e71;stroke-width:.5;stroke-linecap:square;stroke-linejoin:round" x1="72.83" y1="139.87" x2="72.83" y2="16.01"/><line style="fill:none;stroke:#6d6e71;stroke-width:.6124;stroke-linecap:square;stroke-linejoin:round" x1="72.83" y1="139.87" x2="72.83" y2="141.99"/><line style="fill:none;stroke:#6d6e71;stroke-width:.5378;stroke-linecap:square;stroke-linejoin:round" x1="72.83" y1="139.87" x2="196.92" y2="139.87"/><text transform="translate(70.68 152.244)" style="font-family:'Asap-Regular';font-size:7px">0</text><text transform="translate(62 142.563)" style="font-family:'Asap-Regular';font-size:7px">0</text><text transform="translate(62 18.563)" style="font-family:'Asap-Regular';font-size:7px">1</text><line style="fill:none;stroke:#6d6e71;stroke-width:.6124;stroke-linecap:square;stroke-linejoin:round" x1="93.09" y1="139.87" x2="93.09" y2="141.99"/><text transform="translate(77.405 164.244)"><tspan x="0" y="0" style="font-family:'Asap-Regular';font-size:6px">Reservation</tspan><tspan x="2.93" y="7.2" style="font-family:'Asap-Regular';font-size:6px">wage ($6)</tspan></text><text transform="translate(198.672 26.443)" style="fill:#ed2124;font-family:'Asap-Regular';font-size:6px">Worker’s best response curve</text><text transform="rotate(-90 72.1 32.767)"><tspan x="0" y="0" style="font-family:'Asap-Medium';font-size:8px">Effort per hour, </tspan><tspan x="55.41" y="0" style="font-family:'Asap-MediumItalic';font-size:8px">e</tspan></text><text transform="translate(123.357 169.765)"><tspan x="0" y="0" style="font-family:'Asap-Medium';font-size:8px">Hourly wage, </tspan><tspan x="48.46" y="0" style="font-family:'Asap-MediumItalic';font-size:8px">w</tspan><tspan x="54.44" y="0" style="font-family:'Asap-Medium';font-size:8px"> ($)</tspan></text></svg>