<svg version="1.1" xmlns="http://www.w3.org/2000/svg" x="0" y="0" viewBox="0 0 311.81 223.51" style="enable-background:new 0 0 311.81 223.51" xml:space="preserve"><path style="fill:#c8627f" d="M155.91 196.93c-46.97 0-85.18-38.21-85.18-85.18 0-27.79 13.61-53.9 36.4-69.83 14.36-10.04 31.23-15.35 48.78-15.35 17.06 0 33.54 5.04 47.66 14.58a85.095 85.095 0 0137.51 70.6c0 46.97-38.21 85.18-85.17 85.18z"/><path style="fill:#d77261;stroke:#fff;stroke-width:.5;stroke-miterlimit:10" d="M155.91 177.42c-36.21 0-65.66-29.46-65.66-65.66 0-21.43 10.49-41.55 28.06-53.84 11.07-7.74 24.07-11.83 37.6-11.83 13.15 0 25.86 3.89 36.74 11.24a65.61 65.61 0 0128.92 54.43c0 36.2-29.46 65.66-65.66 65.66z"/><path style="fill:#e58342;stroke:#fff;stroke-width:.5;stroke-miterlimit:10" d="M155.91 157.91c-25.45 0-46.15-20.7-46.15-46.15 0-15.06 7.38-29.21 19.73-37.84 7.78-5.44 16.91-8.31 26.42-8.31 9.25 0 18.17 2.73 25.82 7.89a46.137 46.137 0 0120.34 38.26c-.01 25.44-20.72 46.15-46.16 46.15z"/><path style="fill:#f49323;stroke:#fff;stroke-width:.5;stroke-miterlimit:10" d="M182.55 111.75c0 14.71-11.93 26.64-26.64 26.64s-26.64-11.93-26.64-26.64c0-9.04 4.51-17.03 11.4-21.85 4.32-3.02 9.57-4.79 15.24-4.79 5.52 0 10.64 1.68 14.89 4.55 7.09 4.79 11.75 12.9 11.75 22.09z"/><text transform="translate(137.55 114.297)" style="fill:#fff;font-family:'Asap-Regular';font-size:8.6571px">Economy</text><path style="fill:none" d="M135.21 85.19a36.391 36.391 0 0120.94-6.58c7.58 0 14.62 2.3 20.46 6.25"/><text transform="rotate(-27.526 239.003 -240.772)"><tspan x="1.99" y="0" style="fill:#fff;font-family:'Asap-Regular';font-size:8.6571px" rotate="3.13"> </tspan><tspan x="4" y=".11" style="fill:#fff;font-family:'Asap-Regular';font-size:8.6571px" rotate="6.31"> </tspan><tspan x="5.95" y=".27" style="fill:#fff;font-family:'Asap-Regular';font-size:8.6571px" rotate="11.15">S</tspan><tspan x="10.05" y="1.05" style="fill:#fff;font-family:'Asap-Regular';font-size:8.6571px" rotate="18.19">o</tspan><tspan x="14.57" y="2.55" style="fill:#fff;font-family:'Asap-Regular';font-size:8.6571px" rotate="25.05">c</tspan><tspan x="18.24" y="4.3" style="fill:#fff;font-family:'Asap-Regular';font-size:8.6571px" rotate="29.84">i</tspan><tspan x="20.16" y="5.33" style="fill:#fff;font-family:'Asap-Regular';font-size:8.6571px" rotate="35.07">e</tspan><tspan x="23.85" y="7.97" style="fill:#fff;font-family:'Asap-Regular';font-size:8.6571px" rotate="40.86">t</tspan><tspan x="26.01" y="9.79" style="fill:#fff;font-family:'Asap-Regular';font-size:8.6571px" rotate="46.27">y</tspan></text><path style="fill:none" d="M128.34 66.88c7.96-5.1 17.42-8.07 27.56-8.07 10.07 0 19.47 2.92 27.4 7.96"/><text transform="rotate(-26.16 205.003 -252.813)"><tspan x="2.01" y="0" style="fill:#fff;font-family:'Asap-Regular';font-size:8.6571px" rotate="2.25"> </tspan><tspan x="4.05" y=".08" style="fill:#fff;font-family:'Asap-Regular';font-size:8.6571px" rotate="4.56"> </tspan><tspan x="6.07" y=".24" style="fill:#fff;font-family:'Asap-Regular';font-size:8.6571px" rotate="6.83"> </tspan><tspan x="8.04" y=".42" style="fill:#fff;font-family:'Asap-Regular';font-size:8.6571px" rotate="10.79">B</tspan><tspan x="12.96" y="1.4" style="fill:#fff;font-family:'Asap-Regular';font-size:8.6571px" rotate="14.84">i</tspan><tspan x="15.12" y="1.93" style="fill:#fff;font-family:'Asap-Regular';font-size:8.6571px" rotate="18.82">o</tspan><tspan x="19.65" y="3.49" style="fill:#fff;font-family:'Asap-Regular';font-size:8.6571px" rotate="23.42">s</tspan><tspan x="22.84" y="4.84" style="fill:#fff;font-family:'Asap-Regular';font-size:8.6571px" rotate="28.01">p</tspan><tspan x="27.13" y="7.12" style="fill:#fff;font-family:'Asap-Regular';font-size:8.6571px" rotate="33.38">h</tspan><tspan x="31.09" y="9.72" style="fill:#fff;font-family:'Asap-Regular';font-size:8.6571px" rotate="38.59">e</tspan><tspan x="34.66" y="12.61" style="fill:#fff;font-family:'Asap-Regular';font-size:8.6571px" rotate="42.92">r</tspan><tspan x="36.92" y="14.67" style="fill:#fff;font-family:'Asap-Regular';font-size:8.6571px" rotate="47.21">e</tspan></text><path style="fill:none" d="M113.06 54.9c1.16-1 2.36-1.96 3.6-2.88 10.97-8.17 24.55-12.15 39.25-12.15 14.9 0 28.66 4.12 39.71 12.49 1.33 1.01 2.62 2.06 3.87 3.17"/><text transform="rotate(-39.767 132.427 -128.797)"><tspan x="2.05" y="0" style="fill:#fff;font-family:'Asap-Regular';font-size:8.6571px" rotate="1.76"> </tspan><tspan x="4.08" y=".06" style="fill:#fff;font-family:'Asap-Regular';font-size:8.6571px" rotate="3.63"> </tspan><tspan x="6.12" y=".19" style="fill:#fff;font-family:'Asap-Regular';font-size:8.6571px" rotate="5.61"> </tspan><tspan x="8.12" y=".38" style="fill:#fff;font-family:'Asap-Regular';font-size:8.6571px" rotate="7.63"> </tspan><tspan x="10.09" y=".6" style="fill:#fff;font-family:'Asap-Regular';font-size:8.6571px" rotate="11.01">P</tspan><tspan x="14.84" y="1.52" style="fill:#fff;font-family:'Asap-Regular';font-size:8.6571px" rotate="15.66">h</tspan><tspan x="19.45" y="2.83" style="fill:#fff;font-family:'Asap-Regular';font-size:8.6571px" rotate="19.8">y</tspan><tspan x="23.3" y="4.22" style="fill:#fff;font-family:'Asap-Regular';font-size:8.6571px" rotate="23.23">s</tspan><tspan x="26.51" y="5.61" style="fill:#fff;font-family:'Asap-Regular';font-size:8.6571px" rotate="25.74">i</tspan><tspan x="28.52" y="6.56" style="fill:#fff;font-family:'Asap-Regular';font-size:8.6571px" rotate="28.42">c</tspan><tspan x="32.16" y="8.51" style="fill:#fff;font-family:'Asap-Regular';font-size:8.6571px" rotate="31.99">a</tspan><tspan x="36.09" y="11" style="fill:#fff;font-family:'Asap-Regular';font-size:8.6571px" rotate="34.77">l</tspan><tspan x="38.16" y="12.44" style="fill:#fff;font-family:'Asap-Regular';font-size:8.6571px" rotate="36.48"> </tspan><tspan x="39.81" y="13.62" style="fill:#fff;font-family:'Asap-Regular';font-size:8.6571px" rotate="38.91">E</tspan><tspan x="43.41" y="16.52" style="fill:#fff;font-family:'Asap-Regular';font-size:8.6571px" rotate="42.27">n</tspan><tspan x="46.93" y="19.74" style="fill:#fff;font-family:'Asap-Regular';font-size:8.6571px" rotate="45.63">v</tspan><tspan x="49.81" y="22.7" style="fill:#fff;font-family:'Asap-Regular';font-size:8.6571px" rotate="48.13">i</tspan><tspan x="51.32" y="24.37" style="fill:#fff;font-family:'Asap-Regular';font-size:8.6571px" rotate="50.31">r</tspan><tspan x="53.3" y="26.71" style="fill:#fff;font-family:'Asap-Regular';font-size:8.6571px" rotate="53.63">o</tspan><tspan x="56.16" y="30.6" style="fill:#fff;font-family:'Asap-Regular';font-size:8.6571px" rotate="57.83">n</tspan><tspan x="58.72" y="34.54" style="fill:#fff;font-family:'Asap-Regular';font-size:8.6571px" rotate="63.31">m</tspan><tspan x="61.91" y="41" style="fill:#fff;font-family:'Asap-Regular';font-size:8.6571px" rotate="68.95">e</tspan><tspan x="63.56" y="45.27" style="fill:#fff;font-family:'Asap-Regular';font-size:8.6571px" rotate="73.54">n</tspan><tspan x="64.87" y="49.81" style="fill:#fff;font-family:'Asap-Regular';font-size:8.6571px" rotate="77.23">t</tspan></text></svg>